<svg width="24" height="24" viewBox="0 0 24 24" fill="none" xmlns="http://www.w3.org/2000/svg">
<g id="icon.default">
<path id="Union" fill-rule="evenodd" clip-rule="evenodd" d="M11.9997 2.10002C9.18307 2.10002 6.89973 4.38337 6.89973 7.20002C6.89973 10.0167 9.18307 12.3 11.9997 12.3C14.8164 12.3 17.0997 10.0167 17.0997 7.20002C17.0997 4.38337 14.8164 2.10002 11.9997 2.10002ZM15.7532 12.9908C17.6471 11.7606 18.8997 9.62662 18.8997 7.20002C18.8997 3.38925 15.8105 0.300018 11.9997 0.300018C8.18896 0.300018 5.09973 3.38925 5.09973 7.20002C5.09973 9.62663 6.35237 11.7607 8.24629 12.9908C4.30113 14.5013 1.5 18.3235 1.5 22.7999C1.5 23.297 1.90294 23.6999 2.4 23.6999C2.89706 23.6999 3.3 23.297 3.3 22.7999C3.3 17.995 7.19487 14.1 11.9997 14.1C16.8046 14.1 20.7 17.9951 20.7 22.7999C20.7 23.297 21.1029 23.6999 21.6 23.6999C22.0971 23.6999 22.5 23.297 22.5 22.7999C22.5 18.3234 19.6985 14.5013 15.7532 12.9908Z" fill="currentColor"/>
</g>
</svg>
