<svg width="24" height="25" viewBox="0 0 24 25" fill="none" xmlns="http://www.w3.org/2000/svg">
<g clip-path="url(#clip0_3443_38127)">
<path fill-rule="evenodd" clip-rule="evenodd" d="M11.9998 2.93184C6.53219 2.93184 2.0998 7.36422 2.0998 12.8318C2.0998 18.2995 6.53219 22.7318 11.9998 22.7318C17.4674 22.7318 21.8998 18.2995 21.8998 12.8318C21.8998 7.36422 17.4674 2.93184 11.9998 2.93184ZM0.299805 12.8318C0.299805 6.3701 5.53807 1.13184 11.9998 1.13184C18.4615 1.13184 23.6998 6.3701 23.6998 12.8318C23.6998 19.2936 18.4615 24.5318 11.9998 24.5318C5.53807 24.5318 0.299805 19.2936 0.299805 12.8318ZM11.9998 5.93203C12.4968 5.93203 12.8998 6.33497 12.8998 6.83203V14.832C12.8998 15.3291 12.4968 15.732 11.9998 15.732C11.5027 15.732 11.0998 15.3291 11.0998 14.832V6.83203C11.0998 6.33497 11.5027 5.93203 11.9998 5.93203ZM11.9998 19.832C12.552 19.832 12.9998 19.3843 12.9998 18.832C12.9998 18.2797 12.552 17.832 11.9998 17.832C11.4475 17.832 10.9998 18.2797 10.9998 18.832C10.9998 19.3843 11.4475 19.832 11.9998 19.832Z" fill="#FF3900"/>
</g>
<defs>
<clipPath id="clip0_3443_38127">
<rect width="24" height="24" fill="white" transform="translate(0 0.832031)"/>
</clipPath>
</defs>
</svg>
