<svg xmlns="http://www.w3.org/2000/svg" width="32" height="32" viewBox="0 0 32 32" fill="none">
  <g clip-path="url(#clip0_3902_19344)">
  <path fill-rule="evenodd" clip-rule="evenodd" d="M16.0003 2.80063C8.71011 2.80063 2.80027 8.71048 2.80027 16.0006C2.80027 23.2908 8.71011 29.2006 16.0003 29.2006C23.2904 29.2006 29.2003 23.2908 29.2003 16.0006C29.2003 8.71048 23.2904 2.80063 16.0003 2.80063ZM0.400269 16.0006C0.400269 7.38499 7.38463 0.400635 16.0003 0.400635C24.6159 0.400635 31.6003 7.38499 31.6003 16.0006C31.6003 24.6163 24.6159 31.6006 16.0003 31.6006C7.38463 31.6006 0.400269 24.6163 0.400269 16.0006ZM16 6.80037C16.6628 6.80037 17.2 7.33763 17.2 8.00037V18.667C17.2 19.3298 16.6628 19.867 16 19.867C15.3373 19.867 14.8 19.3298 14.8 18.667V8.00037C14.8 7.33763 15.3373 6.80037 16 6.80037ZM16 25.3337C16.7364 25.3337 17.3333 24.7368 17.3333 24.0004C17.3333 23.264 16.7364 22.667 16 22.667C15.2636 22.667 14.6667 23.264 14.6667 24.0004C14.6667 24.7368 15.2636 25.3337 16 25.3337Z" fill="#BFCFD5"/>
  </g>
  <defs>
  <clipPath id="clip0_3902_19344">
  <rect width="32" height="32" fill="white"/>
  </clipPath>
  </defs>
</svg>