<svg width="14" height="8" viewBox="0 0 14 8" fill="none" xmlns="http://www.w3.org/2000/svg">
<path d="M7.00021 7.99501C6.8711 7.99515 6.74324 7.96978 6.62397 7.92036C6.5047 7.87093 6.39637 7.79843 6.30521 7.70701L0.271209 1.67201C0.0916461 1.48671 -0.00785808 1.23823 -0.00582898 0.980209C-0.00379989 0.722187 0.0995998 0.475309 0.282055 0.292854C0.46451 0.110399 0.711388 0.00700339 0.969411 0.00497432C1.22743 0.00294525 1.47591 0.10245 1.66121 0.282013L7.00021 5.62201L12.3392 0.282013C12.5245 0.102451 12.773 0.00294576 13.031 0.00497485C13.289 0.00700394 13.5359 0.1104 13.7184 0.292855C13.9008 0.47531 14.0042 0.722188 14.0062 0.98021C14.0083 1.23823 13.9088 1.48671 13.7292 1.67201L7.69521 7.70701C7.60404 7.79843 7.49572 7.87093 7.37645 7.92036C7.25718 7.96978 7.12931 7.99515 7.00021 7.99501Z" fill="currentColor"/>
</svg>
