<svg width="20" height="21" viewBox="0 0 20 21" fill="none" xmlns="http://www.w3.org/2000/svg">
<g id="icon.default">
<path id="Union" fill-rule="evenodd" clip-rule="evenodd" d="M4.16683 2.16693C3.70659 2.16693 3.3335 2.54003 3.3335 3.00026C3.3335 3.4605 3.70659 3.8336 4.16683 3.8336H15.8333C16.2935 3.8336 16.6666 3.4605 16.6666 3.00026C16.6666 2.54003 16.2935 2.16693 15.8333 2.16693H4.16683ZM5.00016 4.66703C4.53993 4.66703 4.16683 5.04013 4.16683 5.50037V18.0004C4.16683 18.4606 4.53993 18.8337 5.00016 18.8337H15.0002C15.4604 18.8337 15.8335 18.4606 15.8335 18.0004V5.50037C15.8335 5.04013 15.4604 4.66703 15.0002 4.66703H5.00016ZM5.8335 17.167V6.3337H14.1668V17.167H5.8335ZM8.3335 15.5003C7.87326 15.5003 7.50016 15.1272 7.50016 14.6669L7.50016 8.8336C7.50016 8.37336 7.87326 8.00026 8.3335 8.00026C8.79373 8.00026 9.16683 8.37336 9.16683 8.8336V14.6669C9.16683 15.1272 8.79373 15.5003 8.3335 15.5003ZM10.8335 14.6669C10.8335 15.1272 11.2066 15.5003 11.6668 15.5003C12.1271 15.5003 12.5002 15.1272 12.5002 14.6669L12.5002 8.8336C12.5002 8.37336 12.1271 8.00026 11.6668 8.00026C11.2066 8.00026 10.8335 8.37336 10.8335 8.8336L10.8335 14.6669Z" fill="currentColor"/>
</g>
</svg>
