<svg width="24" height="24" viewBox="0 0 24 24" fill="none" xmlns="http://www.w3.org/2000/svg">
<g id="icon.default">
<path id="Union" fill-rule="evenodd" clip-rule="evenodd" d="M2.82139 3.09998C2.32433 3.09998 1.92139 3.50292 1.92139 3.99998C1.92139 4.49703 2.32433 4.89998 2.82139 4.89998L21.0614 4.89998C21.5584 4.89998 21.9614 4.49703 21.9614 3.99998C21.9614 3.50292 21.5584 3.09998 21.0614 3.09998H2.82139ZM1.92139 11.6802C1.92139 11.1831 2.32433 10.7802 2.82139 10.7802L21.0614 10.7802C21.5584 10.7802 21.9614 11.1831 21.9614 11.6802C21.9614 12.1772 21.5584 12.5802 21.0614 12.5802L2.82139 12.5802C2.32433 12.5802 1.92139 12.1772 1.92139 11.6802ZM1.92139 19.3601C1.92139 18.863 2.32433 18.4601 2.82139 18.4601L21.0614 18.4601C21.5584 18.4601 21.9614 18.863 21.9614 19.3601C21.9614 19.8571 21.5584 20.2601 21.0614 20.2601L2.82139 20.2601C2.32433 20.2601 1.92139 19.8571 1.92139 19.3601Z" fill="#141414"/>
</g>
</svg>
