<svg xmlns="http://www.w3.org/2000/svg" width="32" height="32" viewBox="0 0 32 32" fill="none">
  <path fill-rule="evenodd" clip-rule="evenodd" d="M10.6661 1.47266C10.0034 1.47266 9.46615 2.00991 9.46615 2.67266C9.46615 3.3354 10.0034 3.87266 10.6661 3.87266H22.6661C24.2125 3.87266 25.4661 5.12626 25.4661 6.67266V24.006C25.4661 24.6687 26.0034 25.206 26.6661 25.206C27.3289 25.206 27.8661 24.6687 27.8661 24.006V6.67266C27.8661 3.80078 25.538 1.47266 22.6661 1.47266H10.6661ZM6.66615 5.46663C5.26702 5.46663 4.13281 6.60085 4.13281 7.99997V28C4.13281 29.3991 5.26702 30.5333 6.66615 30.5333H21.3328C22.7319 30.5333 23.8661 29.3991 23.8661 28V7.99997C23.8661 6.60085 22.7319 5.46663 21.3328 5.46663H6.66615ZM6.53281 7.99997C6.53281 7.92633 6.59251 7.86663 6.66615 7.86663H21.3328C21.4065 7.86663 21.4661 7.92633 21.4661 7.99997V28C21.4661 28.0736 21.4065 28.1333 21.3328 28.1333H6.66615C6.59251 28.1333 6.53281 28.0736 6.53281 28V7.99997Z" fill="#D2D0E7"/>
</svg>