<svg width="20" height="20" viewBox="0 0 20 20" fill="none" xmlns="http://www.w3.org/2000/svg">
<path fill-rule="evenodd" clip-rule="evenodd" d="M2.68548 2.68517C3.04346 2.32719 3.62386 2.32719 3.98184 2.68517L10.0003 8.70366L16.0188 2.68517C16.3768 2.32719 16.9572 2.32719 17.3152 2.68517C17.6732 3.04315 17.6732 3.62355 17.3152 3.98153L11.2967 10L17.3152 16.0185C17.6732 16.3765 17.6732 16.9569 17.3152 17.3149C16.9572 17.6728 16.3768 17.6728 16.0188 17.3149L10.0003 11.2964L3.98184 17.3149C3.62386 17.6728 3.04346 17.6728 2.68548 17.3149C2.3275 16.9569 2.3275 16.3765 2.68548 16.0185L8.70396 10L2.68548 3.98153C2.3275 3.62355 2.3275 3.04315 2.68548 2.68517Z" fill="currentColor"/>
</svg>
