<svg width="16" height="16" viewBox="0 0 16 16" fill="none" xmlns="http://www.w3.org/2000/svg">
<g id="icon.default">
<path id="Union" fill-rule="evenodd" clip-rule="evenodd" d="M2.66683 9.33329C3.40321 9.33329 4.00016 8.73634 4.00016 7.99996C4.00016 7.26358 3.40321 6.66663 2.66683 6.66663C1.93045 6.66663 1.3335 7.26358 1.3335 7.99996C1.3335 8.73634 1.93045 9.33329 2.66683 9.33329ZM9.33333 8C9.33333 8.73638 8.73638 9.33333 8 9.33333C7.26362 9.33333 6.66667 8.73638 6.66667 8C6.66667 7.26362 7.26362 6.66667 8 6.66667C8.73638 6.66667 9.33333 7.26362 9.33333 8ZM14.6667 8C14.6667 8.73638 14.0697 9.33333 13.3333 9.33333C12.597 9.33333 12 8.73638 12 8C12 7.26362 12.597 6.66667 13.3333 6.66667C14.0697 6.66667 14.6667 7.26362 14.6667 8Z" fill="currentColor"/>
</g>
</svg>
