<svg width="20" height="20" viewBox="0 0 20 20" fill="none" xmlns="http://www.w3.org/2000/svg">
<g id="icon.default">
<path id="Union" fill-rule="evenodd" clip-rule="evenodd" d="M6.59251 13.5469C4.97036 12.8707 3.36212 11.6998 1.82797 10.0013C3.36212 8.30277 4.97036 7.13189 6.59251 6.45564C5.66148 7.35028 5.08203 8.60811 5.08203 10.0013C5.08203 11.3945 5.66148 12.6523 6.59251 13.5469ZM13.4049 13.5469C15.0271 12.8706 16.6353 11.6997 18.1694 10.0013C16.6353 8.30283 15.0271 7.13197 13.4049 6.4557C14.3359 7.35034 14.9154 8.60814 14.9154 10.0013C14.9154 11.3944 14.3359 12.6522 13.4049 13.5469ZM19.7379 9.51682C16.8212 6.06985 13.4552 4.2513 9.9987 4.25128C6.54217 4.25126 3.17619 6.06978 0.259489 9.51683C0.0228787 9.79646 0.0228787 10.2061 0.259489 10.4857C3.17619 13.9328 6.54217 15.7513 9.9987 15.7513C13.4552 15.7513 16.8212 13.9327 19.7379 10.4857C19.9745 10.2061 19.9745 9.79646 19.7379 9.51682ZM6.58203 10.0013C6.58203 8.11431 8.11172 6.58461 9.9987 6.58461C11.8857 6.58461 13.4154 8.11431 13.4154 10.0013C13.4154 11.8883 11.8857 13.4179 9.9987 13.4179C8.11172 13.4179 6.58203 11.8883 6.58203 10.0013Z" fill="currentColor"/>
</g>
</svg>
