<svg xmlns="http://www.w3.org/2000/svg" width="20" height="21" viewBox="0 0 20 21" fill="none">
  <g clip-path="url(#clip0_1291_120155)">
    <path fill-rule="evenodd" clip-rule="evenodd" d="M14.9176 3.83313C14.9176 2.86663 15.7011 2.08313 16.6676 2.08313C17.6341 2.08313 18.4176 2.86663 18.4176 3.83313C18.4176 4.79963 17.6341 5.58313 16.6676 5.58313C15.7011 5.58313 14.9176 4.79963 14.9176 3.83313ZM13.5045 4.58318H2.5009C2.08668 4.58318 1.7509 4.24739 1.7509 3.83318C1.7509 3.41897 2.08668 3.08318 2.5009 3.08318H13.5045C13.8431 1.64981 15.1308 0.58313 16.6676 0.58313C18.4625 0.58313 19.9176 2.0382 19.9176 3.83313C19.9176 5.62806 18.4625 7.08313 16.6676 7.08313C15.1308 7.08313 13.8431 6.0165 13.5045 4.58318ZM3.33423 7.2502C4.87089 7.2502 6.15847 8.31668 6.49718 9.74985L17.5009 9.74985C17.9151 9.74985 18.2509 10.0856 18.2509 10.4998C18.2509 10.9141 17.9151 11.2498 17.5009 11.2498L6.49735 11.2498C6.15889 12.6834 4.87115 13.7502 3.33423 13.7502C1.5393 13.7502 0.0842285 12.2951 0.0842285 10.5002C0.0842285 8.70528 1.5393 7.2502 3.33423 7.2502ZM5.08423 10.5002V10.5007C5.08399 11.4669 4.30058 12.2502 3.33423 12.2502C2.36773 12.2502 1.58423 11.4667 1.58423 10.5002C1.58423 9.5337 2.36773 8.7502 3.33423 8.7502C4.30073 8.7502 5.08423 9.5337 5.08423 10.5002ZM2.5009 16.4169C2.08668 16.4169 1.7509 16.7527 1.7509 17.1669C1.7509 17.5811 2.08668 17.9169 2.5009 17.9169H13.5045C13.8431 19.3502 15.1308 20.4169 16.6676 20.4169C18.4625 20.4169 19.9176 18.9618 19.9176 17.1669C19.9176 15.3719 18.4625 13.9169 16.6676 13.9169C15.1308 13.9169 13.8431 14.9835 13.5045 16.4169H2.5009ZM14.9176 17.1669C14.9176 18.1334 15.7011 18.9169 16.6676 18.9169C17.6341 18.9169 18.4176 18.1334 18.4176 17.1669C18.4176 16.2004 17.6341 15.4169 16.6676 15.4169C15.7011 15.4169 14.9176 16.2004 14.9176 17.1669Z" fill="#141414"/>
  </g>
  <defs>
    <clipPath id="clip0_1291_120155">
      <rect width="20" height="20" fill="white" transform="translate(0 0.5)"/>
    </clipPath>
  </defs>
</svg>