<svg width="20" height="20" viewBox="0 0 20 20" fill="none" xmlns="http://www.w3.org/2000/svg">
<g id="icon.default">
<path id="Union" d="M16.0749 9.1854C15.8285 8.87984 15.5286 8.61502 15.2501 8.35019C14.5324 7.73907 13.7182 7.30109 13.0326 6.65941C11.4365 5.17233 11.083 2.71763 12.1007 0.833313C11.083 1.06758 10.1939 1.59722 9.43329 2.1778C6.6588 4.29637 5.56614 8.03444 6.87305 11.2429C6.91589 11.3447 6.95874 11.4466 6.95874 11.579C6.95874 11.8031 6.79806 12.0068 6.58381 12.0883C6.33743 12.1901 6.08033 12.129 5.8768 11.966C5.81564 11.918 5.76473 11.8592 5.72683 11.7929C4.51633 10.3364 4.32351 8.24834 5.13765 6.57792C3.34869 7.96315 2.37387 10.3058 2.51313 12.5161C2.5774 13.0253 2.64168 13.5346 2.82379 14.0439C2.97376 14.655 3.26299 15.2661 3.58436 15.806C4.74129 17.5681 6.7445 18.831 8.89768 19.0857C11.1901 19.3607 13.6432 18.9635 15.4001 17.456C17.3604 15.7652 18.046 13.0559 17.039 10.7336L16.8998 10.4688C16.6748 10.0002 16.0749 9.1854 16.0749 9.1854ZM12.6898 15.6023C12.3899 15.8467 11.8971 16.1115 11.5115 16.2134C10.3117 16.6208 9.11192 16.0504 8.40491 15.3782C9.67967 15.093 10.4402 14.1967 10.6652 13.2901C10.8473 12.4753 10.5045 11.8031 10.3653 11.0188C10.2367 10.2651 10.2581 9.62338 10.5474 8.92058C10.7509 9.30763 10.9652 9.69468 11.2222 10.0002C12.0471 11.0188 13.3433 11.4669 13.6218 12.8522C13.6647 12.9948 13.6861 13.1374 13.6861 13.2901C13.7182 14.1254 13.3326 15.0421 12.6898 15.6023Z" fill="currentColor"/>
</g>
</svg>
