<svg width="227" height="95" viewBox="0 0 227 95" fill="none" xmlns="http://www.w3.org/2000/svg">
<g style="mix-blend-mode:hard-light">
<path fill-rule="evenodd" clip-rule="evenodd" d="M98.8763 95H98.3763V94.5V85.2129L76.3903 85.1571L31.7091 85.0437L0 84.9633L0.00253772 83.9633L31.2104 84.0425L31.2104 19.0811V18.5811H31.7104L194.292 18.5811H194.792V19.0811V84.4576L226.003 84.5368L226 85.5368L194.291 85.4563L150.474 85.3451L128.203 85.2886V94.5V95H127.703L98.8763 95ZM127.203 85.2861L99.3763 85.2154V94L127.203 94V85.2861ZM32.2104 19.5811L32.2104 84.045L75.8916 84.1558V62.956V62.456H76.3916H150.476H150.976V62.956V84.3464L193.792 84.455V19.5811L32.2104 19.5811ZM76.8916 63.456V84.1584L98.8775 84.2142L127.704 84.2873L149.976 84.3439V63.456L76.8916 63.456ZM79.6264 17.6717C80.8111 16.3314 82.1082 15.0617 83.5093 13.8728C87.3889 10.5811 91.9904 7.97334 97.0495 6.19531C102.109 4.41727 107.529 3.50281 113.001 3.50281C118.473 3.50281 123.893 4.41727 128.952 6.19531C134.012 7.97334 138.613 10.5811 142.493 13.8728C143.894 15.0617 145.191 16.3314 146.376 17.6717L145.626 18.3339C144.474 17.0302 143.211 15.7939 141.846 14.6353C138.064 11.427 133.571 8.87854 128.621 7.13874C123.671 5.39895 118.363 4.50281 113.001 4.50281C107.639 4.50281 102.331 5.39894 97.3811 7.13874C92.4308 8.87854 87.9375 11.427 84.1563 14.6353C82.7908 15.7939 81.528 17.0302 80.3756 18.3339L79.6264 17.6717ZM113.501 32.0028C114.33 32.0028 115.001 32.6744 115.001 33.5028C115.001 34.3312 114.33 35.0028 113.501 35.0028C112.673 35.0028 112.001 34.3312 112.001 33.5028C112.001 32.6744 112.673 32.0028 113.501 32.0028Z" fill="url(#paint0_linear_1255_4787)"/>
</g>
<defs>
<linearGradient id="paint0_linear_1255_4787" x1="107.728" y1="105.086" x2="109.232" y2="-29.2608" gradientUnits="userSpaceOnUse">
<stop stop-color="#1E1D1D"/>
<stop offset="0.250787" stop-color="#4FF94B"/>
<stop offset="0.65" stop-color="#4FF94B"/>
<stop offset="1" stop-color="#1E1D1D"/>
</linearGradient>
</defs>
</svg>
