<svg width="24" height="25" viewBox="0 0 24 25" fill="none" xmlns="http://www.w3.org/2000/svg">
<path fill-rule="evenodd" clip-rule="evenodd" d="M2.0001 2.06775C1.50304 2.06775 1.1001 2.47069 1.1001 2.96775V10.9677C1.1001 11.4648 1.50304 11.8677 2.0001 11.8677H10.0001C10.4972 11.8677 10.9001 11.4648 10.9001 10.9677V2.96775C10.9001 2.47069 10.4972 2.06775 10.0001 2.06775H2.0001ZM2.9001 10.0677V3.86775H9.1001V10.0677H2.9001ZM2.0001 14.0677C1.50304 14.0677 1.1001 14.4707 1.1001 14.9677V22.9677C1.1001 23.4648 1.50304 23.8677 2.0001 23.8677H10.0001C10.4972 23.8677 10.9001 23.4648 10.9001 22.9677V14.9677C10.9001 14.4707 10.4972 14.0677 10.0001 14.0677H2.0001ZM2.9001 22.0677V15.8677H9.1001V22.0677H2.9001ZM13.1001 2.96775C13.1001 2.47069 13.503 2.06775 14.0001 2.06775H22.0001C22.4972 2.06775 22.9001 2.47069 22.9001 2.96775V10.9677C22.9001 11.4648 22.4972 11.8677 22.0001 11.8677H14.0001C13.503 11.8677 13.1001 11.4648 13.1001 10.9677V2.96775ZM14.9001 3.86775V10.0677H21.1001V3.86775H14.9001ZM14.0001 14.0677C13.503 14.0677 13.1001 14.4707 13.1001 14.9677V22.9677C13.1001 23.4648 13.503 23.8677 14.0001 23.8677H22.0001C22.4972 23.8677 22.9001 23.4648 22.9001 22.9677V14.9677C22.9001 14.4707 22.4972 14.0677 22.0001 14.0677H14.0001ZM14.9001 22.0677V15.8677H21.1001V22.0677H14.9001Z" fill="#141414"/>
</svg>
