<svg width="16" height="20" viewBox="0 0 16 20" fill="none" xmlns="http://www.w3.org/2000/svg">
<path d="M14.0749 9.18559C13.8285 8.88002 13.5286 8.6152 13.2501 8.35038C12.5324 7.73925 11.7182 7.30127 11.0326 6.65959C9.4365 5.17251 9.08299 2.71781 10.1007 0.833496C9.08299 1.06776 8.19387 1.59741 7.43329 2.17798C4.6588 4.29656 3.56614 8.03463 4.87305 11.2431C4.91589 11.3449 4.95874 11.4468 4.95874 11.5792C4.95874 11.8033 4.79806 12.007 4.58381 12.0884C4.33743 12.1903 4.08033 12.1292 3.8768 11.9662C3.81564 11.9181 3.76473 11.8594 3.72683 11.7931C2.51633 10.3365 2.32351 8.24852 3.13765 6.5781C1.34869 7.96333 0.37387 10.306 0.51313 12.5162C0.577404 13.0255 0.641678 13.5348 0.823787 14.0441C0.97376 14.6552 1.26299 15.2663 1.58436 15.8061C2.74129 17.5682 4.7445 18.8312 6.89768 19.0859C9.19011 19.3609 11.6432 18.9636 13.4001 17.4562C15.3604 15.7654 16.046 13.0561 15.039 10.7338L14.8998 10.469C14.6748 10.0004 14.0749 9.18559 14.0749 9.18559ZM10.6898 15.6024C10.3899 15.8469 9.89713 16.1117 9.51148 16.2136C8.3117 16.621 7.11192 16.0506 6.40491 15.3784C7.67967 15.0932 8.44025 14.1968 8.66521 13.2903C8.84732 12.4755 8.50452 11.8033 8.36526 11.019C8.23672 10.2652 8.25814 9.62356 8.54737 8.92076C8.75091 9.30781 8.96515 9.69486 9.22225 10.0004C10.0471 11.019 11.3433 11.4671 11.6218 12.8524C11.6647 12.995 11.6861 13.1375 11.6861 13.2903C11.7182 14.1255 11.3326 15.0422 10.6898 15.6024Z" fill="white"/>
</svg>
