<svg width="25" height="25" viewBox="0 0 25 25" fill="none" xmlns="http://www.w3.org/2000/svg">
<g id="icon.default" clip-path="url(#clip0_3271_20849)">
<path id="Union" fill-rule="evenodd" clip-rule="evenodd" d="M18.3512 0.667969H7.59756C3.94567 0.667969 0.974609 3.63917 0.974609 7.29106V18.0447C0.974609 21.6968 3.94567 24.6678 7.59756 24.6678H18.3512C22.0034 24.6678 24.9745 21.6966 24.9745 18.0447V7.29106C24.9746 3.63917 22.0034 0.667969 18.3512 0.667969ZM22.8452 18.0447C22.8452 20.5226 20.8293 22.5384 18.3514 22.5384H7.59756C5.11981 22.5386 3.10399 20.5226 3.10399 18.0447V7.29106C3.10399 4.81331 5.11981 2.79735 7.59756 2.79735H18.3512C20.8291 2.79735 22.8451 4.81331 22.8451 7.29106V18.0447H22.8452ZM12.9742 6.48401C9.5642 6.48401 6.79004 9.25817 6.79004 12.6682C6.79004 16.078 9.5642 18.852 12.9742 18.852C16.3842 18.852 19.1583 16.078 19.1583 12.6682C19.1583 9.25817 16.3842 6.48401 12.9742 6.48401ZM12.9742 16.7225C10.7385 16.7225 8.91942 14.9037 8.91942 12.668C8.91942 10.4322 10.7383 8.61325 12.9742 8.61325C15.21 8.61325 17.029 10.4322 17.029 12.668C17.029 14.9037 15.2099 16.7225 12.9742 16.7225ZM18.315 5.13557C18.6047 4.84456 19.0077 4.67847 19.418 4.67847C19.8297 4.67847 20.2328 4.84456 20.5224 5.13557C20.8134 5.42517 20.9795 5.82833 20.9795 6.24001C20.9795 6.65028 20.8134 7.05344 20.5224 7.34445C20.2314 7.63405 19.8297 7.80156 19.418 7.80156C19.0077 7.80156 18.6046 7.63405 18.315 7.34445C18.024 7.05344 17.8564 6.65042 17.8564 6.24001C17.8564 5.82833 18.0238 5.42517 18.315 5.13557Z" fill="#BFCFD5"/>
</g>
<defs>
<clipPath id="clip0_3271_20849">
<rect width="24" height="24" fill="white" transform="translate(0.974609 0.667969)"/>
</clipPath>
</defs>
</svg>
