<svg width="24" height="25" viewBox="0 0 24 25" fill="none" xmlns="http://www.w3.org/2000/svg">
<g id="icon.default" clip-path="url(#clip0_3300_22062)">
<path id="Union" fill-rule="evenodd" clip-rule="evenodd" d="M12.0008 2.76777C11.8889 2.76777 11.7774 2.76963 11.6664 2.77332C10.5153 4.05348 9.66589 5.7985 9.14256 7.76797H14.8574C14.3341 5.79847 13.4846 4.05343 12.3336 2.77326C12.2231 2.76961 12.1122 2.76777 12.0008 2.76777ZM15.2355 9.56797H8.76447C8.60571 10.5745 8.52493 11.6169 8.52491 12.668C8.52489 13.7191 8.60564 14.7614 8.76438 15.768H15.2356C15.3944 14.7614 15.4751 13.7191 15.4751 12.668C15.4751 11.6169 15.3943 10.5745 15.2355 9.56797ZM7.28668 7.76797C7.6826 6.10814 8.291 4.54283 9.12205 3.19282C6.68025 3.93373 4.63777 5.59271 3.39638 7.76797H7.28668ZM2.59577 9.56797H6.94463C6.79744 10.5915 6.72493 11.6334 6.72491 12.668C6.72489 13.7025 6.79738 14.7445 6.94455 15.768H2.5959C2.27461 14.7928 2.10078 13.7506 2.10078 12.6678C2.10078 11.5851 2.27457 10.5431 2.59577 9.56797ZM17.0554 9.56797H21.4058C21.727 10.5431 21.9008 11.5851 21.9008 12.6678C21.9008 13.7506 21.7269 14.7928 21.4057 15.768H17.0555C17.2026 14.7445 17.2751 13.7025 17.2751 12.668C17.2751 11.6334 17.2026 10.5915 17.0554 9.56797ZM20.6052 7.76797H16.7133C16.3173 6.1079 15.7088 4.54238 14.8776 3.19223C17.3202 3.93286 19.3635 5.59214 20.6052 7.76797ZM7.28656 17.568H3.39661C4.63794 19.7429 6.68015 21.4017 9.12162 22.1426C8.29068 20.7927 7.68239 19.2276 7.28656 17.568ZM14.8576 17.568H9.14243C9.66567 19.5372 10.515 21.2821 11.666 22.5622C11.7771 22.5659 11.8887 22.5678 12.0008 22.5678C12.1123 22.5678 12.2234 22.5659 12.334 22.5623C13.4849 21.2821 14.3343 19.5373 14.8576 17.568ZM14.878 22.1432C15.7091 20.7931 16.3176 19.2278 16.7134 17.568H20.605C19.3633 19.7435 17.3203 21.4025 14.878 22.1432ZM0.300781 12.6678C0.300781 6.20604 5.53905 0.967773 12.0008 0.967773C18.4625 0.967773 23.7008 6.20604 23.7008 12.6678C23.7008 19.1295 18.4625 24.3678 12.0008 24.3678C5.53905 24.3678 0.300781 19.1295 0.300781 12.6678Z" fill="#BFCFD5"/>
</g>
<defs>
<clipPath id="clip0_3300_22062">
<rect width="24" height="24" fill="white" transform="translate(0 0.667969)"/>
</clipPath>
</defs>
</svg>
