<svg width="24" height="25" viewBox="0 0 24 25" fill="none" xmlns="http://www.w3.org/2000/svg">
<path fill-rule="evenodd" clip-rule="evenodd" d="M2.82139 4.06787C2.32433 4.06787 1.92139 4.47081 1.92139 4.96787C1.92139 5.46493 2.32433 5.86787 2.82139 5.86787L21.0614 5.86787C21.5584 5.86787 21.9614 5.46493 21.9614 4.96787C21.9614 4.47082 21.5584 4.06787 21.0614 4.06787H2.82139ZM2.1 12.9678C2.1 12.4707 2.50294 12.0678 3 12.0678H14C14.4971 12.0678 14.9 12.4707 14.9 12.9678C14.9 13.4648 14.4971 13.8678 14 13.8678H3C2.50294 13.8678 2.1 13.4648 2.1 12.9678ZM2.1 20.9678C2.1 20.4707 2.50294 20.0678 3 20.0678L22 20.0678C22.4971 20.0678 22.9 20.4707 22.9 20.9678C22.9 21.4648 22.4971 21.8678 22 21.8678L3 21.8678C2.50294 21.8678 2.1 21.4648 2.1 20.9678Z" fill="#141414"/>
</svg>
