<svg width="245" height="21" viewBox="0 0 245 21" fill="none" xmlns="http://www.w3.org/2000/svg">
<g id="grasser_logo 3" clip-path="url(#clip0_3271_20829)">
<path id="Vector" fill-rule="evenodd" clip-rule="evenodd" d="M117.996 6.29418C117.996 8.18545 121.435 8.71309 126.105 9.0309C131.839 9.4346 137.147 10.2674 137.147 14.4919C137.147 18.2934 132.926 20.6552 126.13 20.6552C121.193 20.6552 116.887 19.3393 113.676 16.8409L113.632 16.8058L115.933 14.4537L115.971 14.4855C118.749 16.7264 122.023 17.9056 126.279 17.9056C130.882 17.9056 133.552 16.701 133.552 14.7651C133.552 12.8993 130.901 12.3781 125.621 11.9744C122.201 11.717 119.671 11.2497 117.882 10.5377C115.59 9.6286 114.43 8.29987 114.43 6.50713C114.43 4.71439 115.536 3.21721 117.609 2.17145C119.515 1.20197 122.23 0.667969 125.237 0.667969C129.55 0.667969 133.517 1.80601 136.118 3.78947L136.162 3.82439L133.829 6.09397L133.79 6.06526C131.718 4.42827 128.861 3.44931 125.297 3.4207C122.904 3.40799 119.773 3.93254 118.549 5.09273C118.378 5.24326 118.241 5.42792 118.146 5.63487C118.05 5.84182 117.999 6.06639 117.996 6.29418ZM13.9574 0.757905C5.32107 0.757905 0.00136278 4.7009 0.00136278 10.7625C-0.0231939 12.1889 0.283774 13.5982 0.950725 14.8593C1.61768 16.1204 2.593 17.1922 3.7858 17.9748C6.25241 19.6881 9.82514 20.5908 14.0877 20.5908C18.4265 20.5908 22.0628 19.6627 25.5307 17.6665L25.5911 17.6314V9.36709L13.641 9.3449V12.1326H22.6572V16.0294C19.5549 17.1483 17.0056 17.6569 14.075 17.6569C10.855 17.6569 8.00865 17.0212 6.1778 15.8101C5.321 15.282 4.61566 14.541 4.13046 13.6591C3.64527 12.7773 3.33697 11.7849 3.3494 10.7785C3.33728 9.76551 3.64677 8.76642 4.13403 7.87818C4.6213 6.98993 5.32965 6.24267 6.19053 5.70855C8.02774 4.48796 10.8805 3.75619 14.1004 3.75619C18.2104 3.75619 21.6702 4.95161 25.3272 6.85066L25.6293 6.79975V3.59121C22.4628 1.84093 18.347 0.757905 13.9574 0.757905ZM92.2504 1.26657H88.5667L76.0491 20.0968H80.0225L82.8291 15.7705H97.8097L100.528 20.0395L100.562 20.0968H104.536L92.2885 1.32058L92.2504 1.26657ZM84.711 12.9289L90.3813 4.21006L95.9788 12.9289H84.711ZM159.513 9.0309C154.844 8.71309 151.405 8.18545 151.405 6.29418C151.409 6.06618 151.46 5.84149 151.556 5.63456C151.652 5.42762 151.79 5.2431 151.961 5.09273C153.182 3.93254 156.309 3.40481 158.706 3.4207C162.269 3.44931 165.127 4.42827 167.202 6.06526L167.238 6.09397L169.574 3.82439L169.526 3.78947C166.926 1.80601 162.959 0.667969 158.649 0.667969C155.639 0.667969 152.927 1.20197 151.004 2.17145C148.935 3.21721 147.826 4.71439 147.826 6.50713C147.826 8.29987 148.989 9.6286 151.281 10.5377C153.067 11.2497 155.598 11.717 159.018 11.9744C164.301 12.3781 166.964 12.8993 166.964 14.7651C166.964 16.701 164.294 17.9056 159.692 17.9056C155.435 17.9056 152.161 16.7264 149.383 14.4855L149.345 14.4537L147.044 16.8058L147.089 16.8409C150.299 19.3393 154.605 20.6552 159.542 20.6552C166.338 20.6552 170.559 18.2934 170.559 14.4919C170.556 10.2674 165.248 9.4346 159.513 9.0309ZM206.863 20.0999H183.961V1.26657H206.863V4.16229H187.477V9.24805H204.352V12.093H187.477V17.2042H206.863V20.0999ZM64.6879 6.9086C64.6879 4.53737 63.617 2.99895 61.3061 2.09304C59.6564 1.45732 57.6444 1.26657 54.8345 1.26657H40.6038V20.0968H44.1003V12.7414H54.4308C54.8554 12.7521 55.2702 12.7485 55.6816 12.7449C55.886 12.7431 56.0897 12.7414 56.2934 12.7414L61.0994 20.0999H64.7388L64.917 19.8615L59.8853 12.2551C62.6758 11.5304 64.6879 9.94418 64.6879 6.9086ZM44.1161 4.1877H53.9317C57.0849 4.1877 58.6996 4.26399 59.72 4.82342C60.6734 5.30658 61.1219 5.94548 61.1219 7.04848C61.1219 8.15145 60.6734 8.70454 59.7454 9.19405C58.7251 9.74393 57.0627 9.82975 54.1892 9.82975H44.1161V4.1877ZM243.418 6.9086C243.418 9.94418 241.405 11.5304 238.615 12.2551L243.678 19.8488L243.633 20.0871H239.994L235.185 12.7223C234.53 12.7414 233.862 12.7573 233.189 12.7414H222.846V20.0968H219.333V1.26657H233.564C236.377 1.26657 238.386 1.45732 240.035 2.09304C242.346 2.99895 243.418 4.53737 243.418 6.9086ZM232.661 4.1877H222.846V9.82975H232.918C235.795 9.82975 237.455 9.74393 238.475 9.19405C239.403 8.70454 239.854 8.15145 239.854 7.04848C239.854 5.94548 239.406 5.30658 238.453 4.82342C237.429 4.26399 235.814 4.1877 232.661 4.1877Z" fill="#FF3900"/>
</g>
<defs>
<clipPath id="clip0_3271_20829">
<rect width="244.242" height="20" fill="white" transform="translate(0 0.667969)"/>
</clipPath>
</defs>
</svg>
