<svg width="42" height="33" viewBox="0 0 42 33" fill="none" xmlns="http://www.w3.org/2000/svg">
<g id="logo">
<path id="XMLID_1775_" d="M7.75232 32.5977V30.474C7.75232 29.6617 7.25748 29.1297 6.40799 29.1297C5.98325 29.1297 5.5214 29.2699 5.20387 29.7318C4.95645 29.3441 4.60181 29.1297 4.06985 29.1297C3.71521 29.1297 3.36057 29.2369 3.08016 29.6245V29.1998H2.33789V32.5977H3.08016V30.7214C3.08016 30.1194 3.39768 29.8348 3.89253 29.8348C4.38738 29.8348 4.6348 30.1524 4.6348 30.7214V32.5977H5.37707V30.7214C5.37707 30.1194 5.7317 29.8348 6.18944 29.8348C6.68428 29.8348 6.9317 30.1524 6.9317 30.7214V32.5977H7.75232ZM18.7626 29.1998H17.5585V28.173H16.8162V29.1998H16.1441V29.872H16.8162V31.4307C16.8162 32.2101 17.1338 32.6678 17.9833 32.6678C18.3008 32.6678 18.6554 32.5606 18.9028 32.4204L18.6884 31.7812C18.474 31.9214 18.2266 31.9586 18.0492 31.9586C17.6946 31.9586 17.5544 31.7441 17.5544 31.3936V29.872H18.7585V29.1998H18.7626ZM25.0637 29.1256C24.6389 29.1256 24.3544 29.34 24.1771 29.6204V29.1957H23.4348V32.5936H24.1771V30.6802C24.1771 30.1153 24.4245 29.7936 24.8863 29.7936C25.0265 29.7936 25.2039 29.8307 25.3482 29.8637L25.5626 29.1544C25.4142 29.1256 25.2039 29.1256 25.0637 29.1256ZM15.542 29.4802C15.1874 29.2328 14.6925 29.1256 14.1606 29.1256C13.3111 29.1256 12.7461 29.5503 12.7461 30.2225C12.7461 30.7874 13.1709 31.1091 13.9131 31.2122L14.2678 31.2493C14.6554 31.3194 14.8699 31.4266 14.8699 31.6039C14.8699 31.8513 14.5853 32.0287 14.0905 32.0287C13.5956 32.0287 13.2039 31.8513 12.9564 31.674L12.6018 32.239C12.9894 32.5235 13.5214 32.6637 14.0534 32.6637C15.043 32.6637 15.6121 32.2019 15.6121 31.5668C15.6121 30.9647 15.1503 30.6472 14.4451 30.54L14.0905 30.5029C13.7729 30.4658 13.5255 30.3957 13.5255 30.1854C13.5255 29.9379 13.7729 29.7977 14.1647 29.7977C14.5894 29.7977 15.0142 29.9751 15.2286 30.0823L15.542 29.4802ZM35.2905 29.1256C34.8657 29.1256 34.5812 29.34 34.4039 29.6204V29.1957H33.6616V32.5936H34.4039V30.6802C34.4039 30.1153 34.6513 29.7936 35.1131 29.7936C35.2534 29.7936 35.4307 29.8307 35.575 29.8637L35.7894 29.1627C35.6451 29.1256 35.4348 29.1256 35.2905 29.1256ZM25.8059 30.8988C25.8059 31.9256 26.5152 32.6678 27.6121 32.6678C28.107 32.6678 28.4616 32.5606 28.8162 32.2802L28.4616 31.6781C28.1771 31.8926 27.8967 31.9957 27.575 31.9957C26.9729 31.9957 26.5482 31.5709 26.5482 30.8988C26.5482 30.2596 26.9729 29.8349 27.575 29.8019C27.8925 29.8019 28.1771 29.9091 28.4616 30.1194L28.8162 29.5173C28.4616 29.2328 28.107 29.1297 27.6121 29.1297C26.5152 29.1256 25.8059 29.872 25.8059 30.8988ZM32.6719 30.8988V29.1998H31.9296V29.6245C31.6822 29.307 31.3276 29.1297 30.8657 29.1297C29.909 29.1297 29.1668 29.872 29.1668 30.8988C29.1668 31.9256 29.909 32.6678 30.8657 32.6678C31.3606 32.6678 31.7152 32.4905 31.9296 32.173V32.5977H32.6719V30.8988ZM29.9461 30.8988C29.9461 30.2967 30.3338 29.8019 30.9729 29.8019C31.575 29.8019 31.9997 30.2637 31.9997 30.8988C31.9997 31.5008 31.575 31.9957 30.9729 31.9957C30.3379 31.9586 29.9461 31.4967 29.9461 30.8988ZM21.0637 29.1256C20.074 29.1256 19.3647 29.8349 19.3647 30.8946C19.3647 31.9586 20.074 32.6637 21.1008 32.6637C21.5956 32.6637 22.0905 32.5235 22.4822 32.2019L22.1276 31.6699C21.843 31.8843 21.4884 32.0245 21.1379 32.0245C20.676 32.0245 20.2183 31.8101 20.1111 31.2122H22.6224C22.6224 31.105 22.6224 31.0348 22.6224 30.9276C22.6554 29.8348 22.0162 29.1256 21.0637 29.1256ZM21.0637 29.7647C21.5255 29.7647 21.843 30.0493 21.9131 30.5771H20.1441C20.2142 30.1194 20.5317 29.7647 21.0637 29.7647ZM39.5049 30.8988V27.8555H38.7626V29.6245C38.5152 29.307 38.1606 29.1297 37.6987 29.1297C36.742 29.1297 35.9997 29.872 35.9997 30.8988C35.9997 31.9256 36.742 32.6678 37.6987 32.6678C38.1936 32.6678 38.5482 32.4905 38.7626 32.173V32.5977H39.5049V30.8988ZM36.7791 30.8988C36.7791 30.2967 37.1668 29.8019 37.8059 29.8019C38.408 29.8019 38.8327 30.2637 38.8327 30.8988C38.8327 31.5008 38.408 31.9957 37.8059 31.9957C37.1668 31.9586 36.7791 31.4967 36.7791 30.8988ZM11.9296 30.8988V29.1998H11.1874V29.6245C10.94 29.307 10.5853 29.1297 10.1235 29.1297C9.16676 29.1297 8.42449 29.872 8.42449 30.8988C8.42449 31.9256 9.16676 32.6678 10.1235 32.6678C10.6183 32.6678 10.9729 32.4905 11.1874 32.173V32.5977H11.9296V30.8988ZM9.17088 30.8988C9.17088 30.2967 9.55851 29.8019 10.1977 29.8019C10.7997 29.8019 11.2245 30.2637 11.2245 30.8988C11.2245 31.5008 10.7997 31.9957 10.1977 31.9957C9.55851 31.9586 9.17088 31.4967 9.17088 30.8988Z" fill="#141414"/>
<g id="Group">
<path id="rect19" d="M26.4454 3.39355H15.2949V23.4265H26.4454V3.39355Z" fill="#FF5A00"/>
<path id="XMLID_330_" d="M16.0377 13.4102C16.0377 9.34013 17.9511 5.72776 20.8872 3.39374C18.7264 1.69477 16.0006 0.667969 13.0274 0.667969C5.98412 0.667969 0.285156 6.36694 0.285156 13.4102C0.285156 20.4535 5.98412 26.1525 13.0274 26.1525C16.0006 26.1525 18.7264 25.1257 20.8872 23.4267C17.947 21.1257 16.0377 17.4803 16.0377 13.4102Z" fill="#EB001B"/>
<path id="path22" d="M41.4888 13.4102C41.4888 20.4535 35.7898 26.1525 28.7465 26.1525C25.7733 26.1525 23.0475 25.1257 20.8867 23.4267C23.8599 21.0886 25.7362 17.4803 25.7362 13.4102C25.7362 9.34013 23.8228 5.72776 20.8867 3.39374C23.0434 1.69477 25.7692 0.667969 28.7424 0.667969C35.7898 0.667969 41.4888 6.40405 41.4888 13.4102Z" fill="#F79E1B"/>
</g>
</g>
</svg>
