<svg width="50" height="50" viewBox="0 0 50 50" fill="none" xmlns="http://www.w3.org/2000/svg">
<g clip-path="url(#clip0_1748_2662)">
<path d="M22.033 21.3985C22.033 21.3985 22.4201 23.13 22.5384 23.5696C22.6568 24.0091 22.873 23.8454 23.0095 24.1562C23.146 24.467 23.6269 29.2793 23.7309 29.6376C23.835 29.996 24.1696 30.2718 24.245 30.4678C24.3204 30.6638 25.1387 36.463 25.3258 36.5974C25.5129 36.7318 25.383 36.9221 25.7716 37.2722C26.1601 37.6222 26.7412 43.0028 26.8166 43.1988C26.892 43.3948 27.1218 43.5623 27.2552 43.833C27.511 44.3518 27.5129 45.2944 27.5129 45.2944" stroke="white" stroke-opacity="0.5" stroke-width="0.180693"/>
<path d="M15.3463 22.5777C15.3463 22.5777 15.6112 24.0797 15.7042 24.6074C15.7973 25.1351 15.9663 25.1053 16.2485 25.223C16.5306 25.3406 16.5738 30.7742 16.7155 31.0841C16.8573 31.3939 17.1531 31.3418 17.3651 31.5555C17.577 31.7693 17.9381 37.5235 18.0162 37.719C18.0942 37.9146 18.3764 38.0322 18.5461 38.2534C18.7158 38.4746 19.4364 44.291 19.6555 44.5454C19.8746 44.7997 20.0508 44.8105 20.0938 45.0541C20.1367 45.2977 20.3729 46.6372 20.3729 46.6372" stroke="white" stroke-opacity="0.5" stroke-width="0.180693"/>
<path d="M8.88398 23.7167C8.88398 23.7167 9.19546 25.7127 9.26334 25.8682C9.33122 26.0236 9.67385 26.1306 9.8417 26.394C10.0096 26.6574 10.1405 31.5314 10.1015 31.9987C10.0625 32.466 10.4051 32.573 10.4658 32.6879C10.5266 32.8027 10.7901 38.6579 11.0043 38.9549C11.2186 39.252 11.5148 39.3253 11.6755 39.5481C11.8362 39.7709 12.0353 45.2607 12.1853 45.6528C12.3354 46.0449 12.8726 45.9701 13.0814 46.3738C13.3129 46.8214 13.107 47.6668 13.107 47.6668" stroke="white" stroke-opacity="0.5" stroke-width="0.180693"/>
<path d="M2.45627 24.8505C2.45627 24.8505 2.34915 26.622 2.92231 27.4935C3.06449 27.7097 3.10167 27.5876 3.33839 28.0071C3.57511 28.4265 3.59959 33.4114 3.69641 33.7298C3.79324 34.0481 3.98338 33.9727 4.10533 34.2027C4.22727 34.4328 4.21946 39.4653 4.24808 40.0892C4.2767 40.713 4.5171 40.461 4.77532 41.0024C5.03355 41.5439 5.3594 46.3918 5.41676 46.7171C5.47412 47.0424 5.92966 47.549 5.95834 47.7117C5.98702 47.8743 6.18061 48.9722 6.18061 48.9722" stroke="white" stroke-opacity="0.5" stroke-width="0.180693"/>
<path d="M36.0617 22.1512C36.0617 22.1512 35.3252 21.7764 35.1245 22.0641C34.9239 22.3518 30.1645 23.4013 29.2464 23.1847C28.3283 22.9681 28.6551 23.1486 28.2758 23.1455C26.1484 23.1286 23.0957 24.1851 22.9116 24.0914C22.7274 23.9977 23.1291 24.1372 22.517 23.9927C21.905 23.8483 16.462 25.0604 16.0962 25.1249C15.7305 25.1894 9.44348 26.1297 9.44348 26.1297C9.44348 26.1297 3.67746 27.6485 3.29779 27.634C2.91811 27.6194 3.02281 27.5218 2.99894 27.6025C2.97506 27.6832 -0.921374 28.42 -0.921374 28.42" stroke="white" stroke-opacity="0.5" stroke-width="0.180693"/>
<path d="M37.3043 28.2487L36.8273 28.1544C36.1473 28.0958 30.9312 29.3725 30.9412 29.1923C30.9513 29.012 30.9336 29.149 30.6317 29.3361C30.3299 29.5231 24.4133 30.3879 24.1469 30.3011C23.8804 30.2142 23.9946 30.1495 23.8728 30.1709C23.751 30.1924 17.1343 31.3591 17.1343 31.3591C17.1343 31.3591 16.9229 31.3121 16.7867 31.2866C16.6505 31.2611 10.4111 32.6338 10.4111 32.6338L3.94665 33.9521L0.267912 34.69" stroke="white" stroke-opacity="0.5" stroke-width="0.180693"/>
<path d="M38.4912 34.5036C38.4912 34.5036 38.2348 34.4946 38.0704 34.4933C37.906 34.4919 34.3857 35.4477 31.9992 35.9442C29.5221 36.4595 25.2433 36.8396 25.619 37.0692C25.9947 37.2988 25.4754 36.9677 25.2244 36.9697C24.9733 36.9717 18.5336 38.234 18.5336 38.234C18.3436 38.1903 18.2681 38.154 18.0505 38.1079C17.8328 38.0617 14.0183 39.2415 11.4554 39.4398C11.2522 39.4555 11.1427 39.3635 10.9389 39.3618C8.42109 39.3408 4.85765 40.5186 4.53978 40.617C4.22191 40.7153 4.86039 40.7718 4.35828 40.7758C3.85616 40.7798 1.33663 41.224 1.33663 41.224" stroke="white" stroke-opacity="0.5" stroke-width="0.180693"/>
<path d="M39.5234 40.8328C39.5234 40.8328 35.9095 41.863 33.5459 42.3014C33.1819 42.3689 32.9767 42.4006 32.6123 42.466C30.4729 42.8503 29.1374 42.6677 27.1535 43.553C26.9859 43.6277 26.8957 43.6775 26.7282 43.7523C24.2745 44.8487 19.9208 44.7868 19.9208 44.7868C19.9208 44.7868 20.1218 44.5026 19.6914 44.9102C19.261 45.3178 13.2635 45.9607 12.9316 45.9777C12.5998 45.9948 12.8592 46.0418 12.7428 46.0939C12.6264 46.1461 6.18352 47.1115 5.73241 47.1642C5.2813 47.2169 6.13231 47.0584 5.41989 47.0535C4.70748 47.0485 2.64022 47.668 2.64022 47.668" stroke="white" stroke-opacity="0.5" stroke-width="0.180693"/>
</g>
<g clip-path="url(#clip1_1748_2662)">
<path d="M44.5124 2.07313C44.5124 2.07313 44.5243 4.15943 45.2647 5.13861C45.4309 5.35834 45.5071 5.31197 45.738 5.66022C45.9688 6.00848 46.4836 10.3692 46.6397 10.7738C46.7957 11.1785 46.8894 10.9891 47.0972 11.6872C47.3051 12.3852 48.0276 17.444 48.1985 17.9325C48.3693 18.421 48.8056 18.733 48.8056 18.733" stroke="white" stroke-opacity="0.5" stroke-width="0.186114"/>
<path d="M38.4024 3.23683C38.4024 3.23683 38.4998 6.02658 38.9194 6.16852C39.3389 6.31045 39.424 6.29545 39.5959 6.52424C39.7677 6.75304 40.2361 11.8956 40.3581 12.09C40.48 12.2845 40.8497 12.392 40.9791 12.6283C41.1084 12.8646 41.1015 14.7347 41.2796 16.0732C41.446 17.3244 41.7189 19.0617 41.8408 19.2561C41.9628 19.4505 42.0552 19.4774 42.2492 19.8319C42.4433 20.1863 43.0835 25.5577 43.3127 25.8628C43.5418 26.1678 43.8043 26.1647 43.9762 26.3935C44.1481 26.6223 44.2568 27.985 44.2568 27.985" stroke="white" stroke-opacity="0.5" stroke-width="0.186114"/>
<path d="M31.7245 4.50057C31.7245 4.50057 32.1232 6.28405 32.2451 6.73678C32.367 7.18951 32.5897 7.0209 32.7303 7.341C32.8709 7.6611 33.3662 12.6178 33.4734 12.9869C33.5805 13.356 33.9252 13.6401 34.0028 13.842C34.0805 14.0438 34.9233 20.017 35.1161 20.1554C35.3088 20.2939 35.175 20.4899 35.5752 20.8505C35.9754 21.211 36.5739 26.753 36.6516 26.9549C36.7293 27.1568 36.9659 27.3293 37.1034 27.6081C37.3668 28.1425 37.3688 29.1133 37.3688 29.1133" stroke="white" stroke-opacity="0.5" stroke-width="0.186114"/>
<path d="M24.8367 5.71504C24.8367 5.71504 25.1095 7.26205 25.2053 7.8056C25.3012 8.34914 25.4753 8.31845 25.7659 8.43965C26.0565 8.56084 26.101 14.1575 26.247 14.4766C26.393 14.7957 26.6977 14.742 26.916 14.9622C27.1343 15.1824 27.5062 21.1092 27.5866 21.3106C27.667 21.512 27.9576 21.6332 28.1324 21.861C28.3072 22.0889 29.0495 28.0798 29.2752 28.3418C29.5009 28.6037 29.6823 28.6148 29.7266 28.8657C29.7708 29.1166 30.0141 30.4964 30.0141 30.4964" stroke="white" stroke-opacity="0.5" stroke-width="0.186114"/>
<path d="M18.181 6.88872C18.181 6.88872 18.5018 8.94459 18.5717 9.10471C18.6416 9.26482 18.9945 9.37504 19.1674 9.64633C19.3403 9.91763 19.4752 14.9378 19.435 15.4192C19.3948 15.9005 19.7477 16.0107 19.8103 16.129C19.8728 16.2473 20.1442 22.2781 20.3649 22.5841C20.5856 22.89 20.8907 22.9656 21.0562 23.1951C21.2217 23.4245 21.4268 29.0791 21.5814 29.4829C21.7359 29.8868 22.2893 29.8097 22.5043 30.2255C22.7428 30.6865 22.5307 31.5573 22.5307 31.5573" stroke="white" stroke-opacity="0.5" stroke-width="0.186114"/>
<path d="M11.5605 8.05585C11.5605 8.05585 11.4501 9.88056 12.0405 10.7782C12.1869 11.0008 12.2252 10.8751 12.469 11.3072C12.7129 11.7392 12.7381 16.8737 12.8378 17.2016C12.9375 17.5294 13.1334 17.4517 13.259 17.6887C13.3846 17.9256 13.3765 23.1091 13.406 23.7517C13.4355 24.3943 13.6831 24.1347 13.9491 24.6924C14.2151 25.25 14.5507 30.2434 14.6098 30.5785C14.6688 30.9135 15.1381 31.4354 15.1676 31.6029C15.1971 31.7704 15.3965 32.9012 15.3965 32.9012" stroke="white" stroke-opacity="0.5" stroke-width="0.186114"/>
<path d="M46.1743 5.27576C46.1743 5.27576 45.4157 4.88968 45.209 5.18605C45.0023 5.48241 40.1002 6.56338 39.1545 6.34025C38.2088 6.11712 38.5455 6.30304 38.1547 6.29994C35.9636 6.28252 32.8193 7.37069 32.6296 7.27417C32.4399 7.17765 32.8537 7.32129 32.2233 7.17254C31.5928 7.02378 25.9865 8.27223 25.6098 8.33866C25.2331 8.40509 18.7575 9.37364 18.7575 9.37364C18.7575 9.37364 12.8185 10.938 12.4274 10.923C12.0364 10.908 12.1442 10.8075 12.1196 10.8906C12.095 10.9738 8.08169 11.7326 8.08169 11.7326" stroke="white" stroke-opacity="0.5" stroke-width="0.186114"/>
<path d="M47.4543 11.5565L46.9629 11.4594C46.2625 11.3991 40.8899 12.714 40.9003 12.5284C40.9107 12.3428 40.8925 12.4838 40.5815 12.6765C40.2706 12.8692 34.1766 13.7599 33.9021 13.6705C33.6277 13.581 33.7453 13.5143 33.6198 13.5364C33.4944 13.5585 26.6792 14.7603 26.6792 14.7603C26.6792 14.7603 26.4614 14.7118 26.3211 14.6855C26.1808 14.6593 19.7543 16.0732 19.7543 16.0732L13.0959 17.4311L9.3068 18.1911" stroke="white" stroke-opacity="0.5" stroke-width="0.186114"/>
<path d="M48.6763 17.9987C48.6763 17.9987 48.4121 17.9895 48.2428 17.9881C48.0735 17.9867 44.4476 18.9712 41.9894 19.4826C39.4381 20.0133 35.0309 20.4048 35.4179 20.6413C35.8049 20.8778 35.27 20.5368 35.0114 20.5388C34.7528 20.5409 28.1199 21.8411 28.1199 21.8411C27.9242 21.796 27.8465 21.7587 27.6223 21.7111C27.3981 21.6636 23.4692 22.8788 20.8294 23.083C20.62 23.0992 20.5073 23.0045 20.2973 23.0027C17.704 22.9811 14.0337 24.1942 13.7063 24.2955C13.3789 24.3968 14.0365 24.455 13.5193 24.4591C13.0022 24.4632 10.407 24.9208 10.407 24.9208" stroke="white" stroke-opacity="0.5" stroke-width="0.186114"/>
<path d="M49.7393 24.5176C49.7393 24.5176 46.0169 25.5787 43.5824 26.0303C43.2075 26.0998 42.9961 26.1324 42.6208 26.1998C40.4172 26.5957 39.0416 26.4076 36.9982 27.3194C36.8256 27.3964 36.7327 27.4477 36.5602 27.5247C34.0329 28.654 29.5485 28.5902 29.5485 28.5902C29.5485 28.5902 29.7555 28.2975 29.3122 28.7173C28.8689 29.1372 22.6915 29.7993 22.3497 29.8169C22.0079 29.8344 22.2751 29.8829 22.1552 29.9366C22.0354 29.9903 15.3991 30.9847 14.9345 31.039C14.4699 31.0933 15.3464 30.93 14.6126 30.9249C13.8788 30.9198 11.7495 31.5579 11.7495 31.5579" stroke="white" stroke-opacity="0.5" stroke-width="0.186114"/>
</g>
<rect width="33" height="3" transform="translate(8 41.9998)" fill="#1E1D1D"/>
<path d="M9.03 45.1048L9.03 44.6598L8.88 44.6598C8.64333 44.6598 8.46333 44.6098 8.34 44.5098C8.21667 44.4098 8.155 44.2398 8.155 43.9998L8.155 43.0098C8.155 42.8198 8.20833 42.6731 8.315 42.5698C8.42167 42.4664 8.58833 42.4148 8.815 42.4148L9.03 42.4148L9.03 42.0448L9.505 42.0448L9.505 42.4148L9.71 42.4148C9.94 42.4148 10.1083 42.4648 10.215 42.5648C10.325 42.6614 10.38 42.8131 10.38 43.0198L10.38 43.9948C10.38 44.2481 10.3167 44.4231 10.19 44.5198C10.0667 44.6131 9.885 44.6598 9.645 44.6598L9.505 44.6598L9.505 45.1048L9.03 45.1048ZM8.955 44.4048L9.03 44.4048C9.03 44.1181 9.03 43.8331 9.03 43.5498C9.03 43.2631 9.03 42.9764 9.03 42.6898L8.955 42.6898C8.85167 42.6898 8.77167 42.7198 8.715 42.7798C8.66167 42.8364 8.635 42.9314 8.635 43.0648L8.635 44.0298C8.635 44.1631 8.66167 44.2598 8.715 44.3198C8.76833 44.3764 8.84833 44.4048 8.955 44.4048ZM9.505 44.4048L9.57 44.4048C9.67667 44.4048 9.75833 44.3781 9.815 44.3248C9.87167 44.2714 9.9 44.1731 9.9 44.0298L9.9 43.0698C9.9 42.9264 9.87167 42.8281 9.815 42.7748C9.75833 42.7181 9.67667 42.6898 9.57 42.6898L9.505 42.6898C9.505 42.9764 9.505 43.2631 9.505 43.5498C9.505 43.8331 9.505 44.1181 9.505 44.4048ZM10.9692 45.0598C10.8925 45.0598 10.8175 45.0548 10.7442 45.0448C10.6742 45.0348 10.6158 45.0248 10.5692 45.0148L10.5692 44.7598C10.5925 44.7664 10.6192 44.7714 10.6492 44.7748C10.6792 44.7781 10.7108 44.7798 10.7442 44.7798C10.7908 44.7798 10.8392 44.7731 10.8892 44.7598C10.9392 44.7431 10.9742 44.7064 10.9942 44.6498C11.0075 44.6164 11.0175 44.5798 11.0242 44.5398C11.0308 44.4998 11.0342 44.4514 11.0342 44.3948L10.5192 42.0448L11.0092 42.0448L11.3592 44.0348L11.7192 42.0448L12.1692 42.0448L11.6692 44.3148C11.6125 44.5848 11.5308 44.7764 11.4242 44.8898C11.3208 45.0031 11.1692 45.0598 10.9692 45.0598ZM12.6729 44.9998L12.6729 42.3848L12.2029 42.3848L12.2029 42.0448L13.6329 42.0448L13.6329 42.3848L13.1529 42.3848L13.1529 44.9998L12.6729 44.9998ZM13.8812 44.9998L13.8812 42.0448L15.2863 42.0448L15.2863 42.3848L14.3512 42.3848L14.3512 42.8198L14.8162 42.8198C14.9362 42.8198 15.0396 42.8398 15.1263 42.8798C15.2129 42.9164 15.2796 42.9781 15.3262 43.0648C15.3729 43.1514 15.3962 43.2714 15.3962 43.4248L15.3962 44.2398C15.3962 44.3964 15.3812 44.5248 15.3512 44.6248C15.3246 44.7214 15.2846 44.7981 15.2313 44.8548C15.1779 44.9081 15.1112 44.9464 15.0312 44.9698C14.9512 44.9898 14.8579 44.9998 14.7512 44.9998L13.8812 44.9998ZM14.6512 44.7448C14.7279 44.7448 14.7846 44.7298 14.8212 44.6998C14.8612 44.6698 14.8879 44.6264 14.9012 44.5698C14.9179 44.5131 14.9262 44.4481 14.9262 44.3748L14.9262 43.4798C14.9262 43.4098 14.9196 43.3481 14.9063 43.2948C14.8929 43.2381 14.8662 43.1948 14.8262 43.1648C14.7862 43.1314 14.7262 43.1148 14.6462 43.1148L14.3512 43.1148L14.3512 44.7448L14.6512 44.7448ZM16.5148 45.0598C16.3582 45.0598 16.2198 45.0414 16.0998 45.0048C15.9832 44.9681 15.8915 44.8931 15.8248 44.7798C15.7582 44.6631 15.7248 44.4898 15.7248 44.2598L15.7248 42.6648C15.7248 42.4848 15.7582 42.3481 15.8248 42.2548C15.8915 42.1581 15.9848 42.0914 16.1048 42.0548C16.2248 42.0181 16.3632 41.9998 16.5198 41.9998C16.6765 41.9998 16.8132 42.0198 16.9298 42.0598C17.0498 42.0964 17.1448 42.1631 17.2148 42.2598C17.2848 42.3531 17.3198 42.4881 17.3198 42.6648L17.3198 44.2548C17.3198 44.4914 17.2848 44.6664 17.2148 44.7798C17.1448 44.8931 17.0498 44.9681 16.9298 45.0048C16.8098 45.0414 16.6715 45.0598 16.5148 45.0598ZM16.5148 44.7748C16.5782 44.7748 16.6348 44.7664 16.6848 44.7498C16.7348 44.7298 16.7732 44.6948 16.7998 44.6448C16.8265 44.5948 16.8398 44.5214 16.8398 44.4248L16.8398 42.6498C16.8398 42.5564 16.8265 42.4848 16.7998 42.4348C16.7732 42.3814 16.7348 42.3464 16.6848 42.3298C16.6348 42.3098 16.5782 42.2998 16.5148 42.2998C16.4515 42.2998 16.3948 42.3098 16.3448 42.3298C16.2982 42.3464 16.2615 42.3814 16.2348 42.4348C16.2082 42.4848 16.1948 42.5564 16.1948 42.6498L16.1948 44.4248C16.1948 44.5214 16.2082 44.5948 16.2348 44.6448C16.2615 44.6948 16.2982 44.7298 16.3448 44.7498C16.3948 44.7664 16.4515 44.7748 16.5148 44.7748ZM17.5414 44.9998L17.5414 44.7498C17.6048 44.7498 17.6614 44.7148 17.7114 44.6448C17.7614 44.5748 17.7914 44.4831 17.8014 44.3698L17.9614 42.0448L19.4864 42.0448L19.4864 44.9998L19.0064 44.9998L19.0064 42.3848L18.4314 42.3848L18.2764 44.4998C18.2698 44.5498 18.2631 44.6048 18.2564 44.6648C18.2498 44.7214 18.2331 44.7748 18.2064 44.8248C18.1798 44.8748 18.1381 44.9164 18.0814 44.9498C18.0248 44.9798 17.9448 44.9964 17.8414 44.9998L17.5414 44.9998ZM19.8641 44.9998L19.8641 42.0498L20.3341 42.0498L20.3341 42.8198L20.7941 42.8198C20.9174 42.8198 21.0224 42.8398 21.1091 42.8798C21.1957 42.9164 21.2624 42.9781 21.3091 43.0648C21.3557 43.1514 21.3791 43.2714 21.3791 43.4248L21.3791 44.2398C21.3791 44.3964 21.3641 44.5248 21.3341 44.6248C21.3074 44.7214 21.2674 44.7981 21.2141 44.8548C21.1607 44.9081 21.0941 44.9464 21.0141 44.9698C20.9341 44.9898 20.8407 44.9998 20.7341 44.9998L19.8641 44.9998ZM20.3341 44.7448L20.6341 44.7448C20.7141 44.7448 20.7741 44.7281 20.8141 44.6948C20.8541 44.6581 20.8791 44.6014 20.8891 44.5248C20.9024 44.4481 20.9091 44.3481 20.9091 44.2248L20.9091 43.5298C20.9091 43.4464 20.9024 43.3748 20.8891 43.3148C20.8791 43.2548 20.8541 43.2064 20.8141 43.1698C20.7774 43.1331 20.7157 43.1148 20.6291 43.1148L20.3341 43.1148L20.3341 44.7448ZM21.7574 44.9998L21.7574 42.0448L22.2324 42.0448L22.2324 43.2848L22.8674 43.2848L22.8674 42.0448L23.3424 42.0448L23.3424 44.9998L22.8674 44.9998L22.8674 43.6448L22.2324 43.6448L22.2324 44.9998L21.7574 44.9998ZM23.7924 44.9998L23.7924 42.0498L24.2624 42.0498L24.2624 42.8198L24.7224 42.8198C24.8457 42.8198 24.9507 42.8398 25.0374 42.8798C25.124 42.9164 25.1907 42.9781 25.2374 43.0648C25.284 43.1514 25.3074 43.2714 25.3074 43.4248L25.3074 44.2398C25.3074 44.3964 25.2924 44.5248 25.2624 44.6248C25.2357 44.7214 25.1957 44.7981 25.1424 44.8548C25.089 44.9081 25.0224 44.9464 24.9424 44.9698C24.8624 44.9898 24.769 44.9998 24.6624 44.9998L23.7924 44.9998ZM24.2624 44.7448L24.5624 44.7448C24.6424 44.7448 24.7024 44.7281 24.7424 44.6948C24.7824 44.6581 24.8074 44.6014 24.8174 44.5248C24.8307 44.4481 24.8374 44.3481 24.8374 44.2248L24.8374 43.5298C24.8374 43.4464 24.8307 43.3748 24.8174 43.3148C24.8074 43.2548 24.7824 43.2064 24.7424 43.1698C24.7057 43.1331 24.644 43.1148 24.5574 43.1148L24.2624 43.1148L24.2624 44.7448ZM25.6224 44.9998L25.6224 42.0448L26.0974 42.0448L26.0974 44.9998L25.6224 44.9998ZM26.4816 44.9998L26.4816 42.0448L26.9066 42.0448L26.9066 44.0398L27.6416 42.0448L28.0616 42.0448L28.0616 44.9998L27.6366 44.9998L27.6366 43.1148L26.9066 44.9998L26.4816 44.9998ZM27.2666 41.8448C27.1233 41.8448 27.0133 41.8181 26.9366 41.7648C26.86 41.7114 26.8066 41.6481 26.7766 41.5748C26.75 41.4981 26.735 41.4298 26.7316 41.3698L26.9966 41.3698C27.0033 41.4531 27.0316 41.5148 27.0816 41.5548C27.135 41.5948 27.1966 41.6148 27.2666 41.6148C27.3433 41.6148 27.4066 41.5964 27.4566 41.5598C27.51 41.5198 27.54 41.4564 27.5466 41.3698L27.8116 41.3698C27.8083 41.4464 27.7883 41.5214 27.7516 41.5948C27.715 41.6681 27.6566 41.7281 27.5766 41.7748C27.5 41.8214 27.3966 41.8448 27.2666 41.8448ZM29.326 44.9998L29.326 42.0448L29.916 42.0448L30.411 44.1448L30.911 42.0448L31.496 42.0448L31.496 44.9998L31.071 44.9998L31.071 42.7198L30.576 44.9998L30.246 44.9998L29.751 42.7198L29.751 44.9998L29.326 44.9998ZM31.747 44.9998L32.322 42.0448L32.992 42.0448L33.557 44.9998L33.027 44.9998L32.907 44.3998L32.367 44.3998L32.257 44.9998L31.747 44.9998ZM32.377 44.1548L32.902 44.1548L32.642 42.5098L32.377 44.1548ZM33.8109 44.9998L33.8109 42.0448L34.2859 42.0448L34.2859 43.2848L34.9209 43.2848L34.9209 42.0448L35.3959 42.0448L35.3959 44.9998L34.9209 44.9998L34.9209 43.6448L34.2859 43.6448L34.2859 44.9998L33.8109 44.9998ZM35.8459 44.9998L35.8459 42.0448L37.1759 42.0448L37.1759 42.3848L36.3459 42.3848L36.3459 43.2798L37.0309 43.2798L37.0309 43.6548L36.3459 43.6548L36.3459 44.6698L37.1759 44.6698L37.1759 44.9998L35.8459 44.9998ZM37.2655 44.9998L37.9555 43.4648L37.2905 42.0448L37.8355 42.0448L38.3605 43.3348L38.4955 43.3348L38.4955 42.0448L38.9755 42.0448L38.9755 43.3348L39.1205 43.3348L39.6455 42.0448L40.2005 42.0448L39.5305 43.4648L40.2155 44.9998L39.6755 44.9998L39.1255 43.6048L38.9755 43.6048L38.9755 44.9998L38.4955 44.9998L38.4955 43.6048L38.3605 43.6048L37.8055 44.9998L37.2655 44.9998Z" fill="white"/>
<circle cx="21.758" cy="26.7585" r="13" transform="rotate(-41 21.758 26.7585)" fill="white"/>
<path d="M9.95934 31.8461C9.95934 31.8461 9.18337 30.2174 9.35787 30.1973C9.53238 30.1772 9.83723 30.3071 10.0614 30.6386C10.2857 30.9702 10.6581 32.0962 11.1804 32.9563C11.6749 33.7707 11.993 34.2113 12.6312 34.9197C13.1531 35.499 13.7968 36.0673 14.0804 36.2924C14.3603 36.5145 14.706 36.7225 14.8439 36.8055L14.8491 36.8086C14.9833 36.8894 14.9927 37.3419 14.8469 37.4686C14.7011 37.5953 13.9765 37.0029 13.4724 36.6235C12.6353 35.9934 12.2431 35.5257 11.6035 34.6944C11.0824 34.0172 10.639 33.212 10.4318 32.8359L10.4249 32.8233C10.2208 32.4528 9.95934 31.8461 9.95934 31.8461Z" fill="#1E1D1D"/>
<path d="M12.6599 30.827C12.6432 30.5787 14.2821 27.1167 14.3577 27.051C14.4334 26.9852 14.5741 26.9943 14.5635 27.135C14.553 27.2756 13.1296 30.2215 13.1138 30.4325C13.0979 30.6434 15.7784 34.4908 15.9138 34.5702C16.0493 34.6497 20.2112 34.7777 20.2112 34.7777C20.2112 34.7777 20.3466 34.8571 20.2332 34.9557C20.1197 35.0544 15.6332 35.0113 15.4978 34.9319C15.3623 34.8525 12.6766 31.0754 12.6599 30.827Z" fill="#1E1D1D"/>
<path d="M28.3368 37.5402C28.0845 37.7283 27.9228 37.8065 27.6411 37.9472C27.6411 37.9472 26.6956 38.4611 26.0445 38.676C26.0445 38.676 25.141 39.0148 24.5367 39.1297C23.9323 39.2446 23.7833 39.3119 23.2904 39.3561C22.6352 39.4148 21.4936 39.4019 21.6057 39.3045C21.7178 39.207 24.9992 38.5299 24.9992 38.5299C25.5924 38.4064 25.9267 38.3348 26.5022 38.1462C27.0662 37.9614 27.3704 37.8218 27.9121 37.5798C28.242 37.4324 28.8599 37.0855 28.7478 37.1829C28.6357 37.2804 28.5074 37.4131 28.3368 37.5402Z" fill="#1E1D1D"/>
<path d="M23.2033 31.1688C23.5388 30.8771 23.4546 31.0814 23.4546 31.0814C23.4546 31.0814 21.8597 34.8935 21.8873 35.0005C21.9149 35.1076 24.2353 37.024 24.3375 37.0663C24.4397 37.1085 24.4397 37.1085 24.5094 37.1135C24.5792 37.1184 25.7892 36.7993 26.5524 36.452C27.3156 36.1047 28.005 35.7138 28.005 35.7138C28.4265 35.4724 29.3749 34.6694 29.0343 35.0156L28.1397 35.7934C27.8794 35.9966 27.441 36.2696 27.441 36.2696C27.441 36.2696 26.8761 36.5937 26.4958 36.7634C26.1391 36.9227 25.5603 37.1178 25.5603 37.1178C25.5603 37.1178 25.006 37.3489 24.6296 37.4023C24.3581 37.4409 24.1318 37.5073 23.9274 37.4227C23.723 37.3382 21.5049 35.4641 21.4724 35.4268C21.44 35.3894 21.3702 35.3845 21.4544 35.1802C21.5386 34.9759 22.8678 31.4604 23.2033 31.1688Z" fill="#1E1D1D"/>
<path d="M33.7317 22.8505C33.7317 22.8505 33.4534 21.7747 33.5186 21.8498C33.5839 21.9248 33.9418 22.8656 33.9418 22.8656C33.9418 22.8656 34.1104 23.4096 34.1971 23.7637C34.2819 24.1097 34.3216 24.3059 34.3824 24.6569C34.5295 25.5059 34.6136 25.9929 34.5842 26.8535C34.5565 27.6649 34.4727 28.1224 34.2679 28.9075C34.2041 29.152 34.164 29.2881 34.0847 29.5279C33.9677 29.8818 33.7702 30.5261 33.7423 30.4186C33.7145 30.311 33.7855 30.0137 33.8228 29.7556C33.8228 29.7556 34.0608 28.6075 34.1344 27.7716C34.2079 26.9358 34.1606 26.4602 34.1053 25.6226C34.0334 24.5328 33.7317 22.8505 33.7317 22.8505Z" fill="#1E1D1D"/>
<path d="M28.4052 28.5737C28.3135 28.3923 28.2669 23.8632 28.3149 23.6909C28.3629 23.5186 28.6258 23.29 28.6905 23.3644C28.7551 23.4387 28.7266 28.0332 28.8184 28.2146C28.9101 28.396 30.8372 29.8542 30.9394 29.896C31.0416 29.9377 31.0416 29.9377 31.1489 29.9096L31.149 29.9096C31.2565 29.8815 32.4959 28.804 32.6461 28.6734C32.7964 28.5428 31.1342 30.5752 30.887 30.5943C30.6398 30.6134 28.497 28.7551 28.4052 28.5737Z" fill="#1E1D1D"/>
<path d="M12.5704 22.1246C12.5811 21.9838 15.2424 17.6973 15.3235 17.5611C15.4047 17.4248 15.6647 17.2645 15.5349 17.5746C15.4052 17.8847 12.998 21.6214 12.982 21.8326C12.966 22.0438 14.6988 25.3384 14.7965 25.4508C14.8942 25.5632 18.7477 25.6333 18.7477 25.6333C18.7477 25.6333 18.8507 25.6752 18.7749 25.7411C18.6991 25.807 14.4394 25.9585 14.3417 25.8461C14.2441 25.7337 12.6087 22.4201 12.587 22.3732C12.5653 22.3264 12.5598 22.2654 12.5704 22.1246Z" fill="#1E1D1D"/>
<path d="M9.4141 22.9429C9.4238 22.8038 9.51275 22.5304 9.51275 22.5304C9.51275 22.5304 10.3522 20.4696 10.5543 20.1221C10.5543 20.1221 11.0399 19.279 11.4164 18.7846C11.781 18.306 12.4402 17.6333 12.4402 17.6333L13.2215 16.9541C13.3331 16.8571 12.5621 17.7234 12.5373 17.7449C12.5373 17.7449 12.4014 17.8892 12.1556 18.2074C11.9097 18.5257 11.8855 18.5729 11.8855 18.5729C11.8855 18.5729 11.7145 18.7912 11.6154 18.9384C11.5162 19.0856 10.9627 19.9721 10.6546 20.6883C10.481 21.092 10.2665 21.7445 10.2665 21.7445C10.2387 21.8646 10.2147 21.9855 10.2099 22.0551C10.205 22.1246 11.1998 21.3906 11.5896 21.3131C11.9794 21.2356 12.193 21.1807 11.4958 21.656L11.4955 21.6562C10.7983 22.1316 9.4044 23.082 9.4141 22.9429Z" fill="#1E1D1D"/>
<path d="M21.2439 16.5356C21.0984 16.5965 20.9099 16.7603 20.8294 16.896C20.7488 17.0316 22.8516 21.0489 22.8841 21.0863C22.9166 21.1237 22.9439 21.2313 23.0467 21.2734C23.1494 21.3154 27.2139 22.6422 27.3543 22.6515C27.4947 22.6608 27.4947 22.6608 27.6403 22.5999C27.7859 22.539 30.1002 20.3302 29.8468 20.4192C29.5933 20.5081 27.8221 22.0478 27.7142 22.076C27.6063 22.1041 27.6063 22.1041 27.5361 22.0994C27.4659 22.0948 23.4664 20.8428 23.3637 20.8008C23.2609 20.7587 23.2336 20.6511 23.2336 20.6511C23.1394 20.536 21.3895 16.4747 21.2439 16.5356Z" fill="#1E1D1D"/>
<path d="M23.2629 13.7793C23.2629 13.7793 22.3944 13.6823 22.422 13.7893C22.4497 13.8963 23.0348 14.0431 23.0348 14.0431L23.4481 14.1427L24.0704 14.2571C24.0704 14.2571 24.408 14.3202 24.623 14.3666C25.6907 14.5972 27.2974 15.1878 27.2974 15.1878L28.3187 15.6109C28.5229 15.6955 27.3717 15.0521 26.7314 14.7622C26.4168 14.6198 25.9144 14.4238 25.9144 14.4238L25.1623 14.16C25.1623 14.16 24.6009 13.9927 24.2336 13.9186C23.8581 13.8429 23.2629 13.7793 23.2629 13.7793Z" fill="#1E1D1D"/>
<path d="M12.2254 30.3495C12.0383 30.446 9.20774 28.6714 9.04391 28.483C8.88009 28.2945 8.96987 24.5769 9.05292 24.4386C9.13598 24.3002 11.7416 22.6969 12.0715 22.6086C12.4015 22.5203 13.8164 26.2534 13.8316 26.5048C13.8468 26.7563 12.4126 30.2529 12.2254 30.3495Z" fill="#1E1D1D" stroke="#1E1D1D" stroke-width="0.121667"/>
<path d="M16.242 38.1475C16.0432 37.9943 16.0917 36.3877 16.2039 36.2901C16.3161 36.1925 20.3737 36.2507 20.4757 36.2924C20.5777 36.3342 22.3243 37.8145 22.314 37.9538C22.3038 38.0931 20.2157 39.0951 19.6326 39.1765C19.0495 39.2578 18.7107 39.1186 18.142 38.973C17.3574 38.7721 16.242 38.1475 16.242 38.1475Z" fill="#1E1D1D" stroke="#1E1D1D" stroke-width="0.121667"/>
<path d="M31.481 31.7879C31.1998 32.2248 29.7908 36.0789 30.0425 35.9884C30.2943 35.8978 30.6014 35.5667 30.6014 35.5667L32.3864 33.4378C32.3864 33.4378 32.9443 32.7413 33.129 32.0869C33.3137 31.4324 33.1318 30.4171 32.9612 30.373C32.7906 30.3288 31.7623 31.351 31.481 31.7879Z" fill="#1E1D1D" stroke="#1E1D1D" stroke-width="0.121667"/>
<path d="M22.824 30.5671C22.5444 30.5466 19.2867 26.7238 19.31 26.3741C19.3334 26.0243 22.4053 22.1021 22.6197 22.0475C22.8341 21.9929 27.411 23.4171 27.6067 23.6422C27.8025 23.8674 27.9233 28.3746 27.7275 28.6765C27.5317 28.9785 23.1037 30.5875 22.824 30.5671Z" fill="#1E1D1D" stroke="#1E1D1D" stroke-width="0.121667"/>
<path d="M15.6158 16.2238C15.5512 16.1495 15.4814 15.2311 15.5945 15.1327C15.7077 15.0343 16.5806 14.6671 16.5806 14.6671C16.5806 14.6671 17.0194 14.4686 17.3081 14.3611C17.5862 14.2576 18.0301 14.1251 18.0301 14.1251L19 13.8694L19.749 13.7405C19.749 13.7405 20.1495 13.7187 20.277 13.7384C20.4045 13.7581 20.8653 13.9739 21.2305 14.1496C21.4177 14.2397 21.7046 14.3902 21.7046 14.3902C21.7046 14.3902 21.807 14.4318 21.7692 14.4646C21.7315 14.4974 21.7004 14.5247 21.6561 14.563C20.9762 15.1508 20.0016 15.9359 19.8561 15.9971C19.7107 16.0583 18.0188 16.093 18.0188 16.093L16.6072 16.1453C16.6072 16.1453 15.6804 16.2982 15.6158 16.2238Z" fill="#1E1D1D" stroke="#1E1D1D" stroke-width="0.121667"/>
<path d="M31.1433 20.0752C30.8895 19.7079 29.8714 16.8036 29.8116 16.6596C29.7519 16.5155 30.2476 16.9071 30.4784 17.1252C30.7093 17.3434 31.9341 18.7998 31.9341 18.7998C32.1354 19.0608 32.2523 19.2075 32.4094 19.4973L32.4106 19.4995C32.5347 19.7284 32.6063 19.8604 32.6807 20.1108C32.829 20.6097 32.8701 21.3835 32.7258 21.4435C32.5815 21.5036 31.3972 20.4425 31.1433 20.0752Z" fill="#1E1D1D"/>
<path d="M26.717 16.5089H29.25L30.8915 9.61905H34.9953L35.5613 7.25298H24.8632L24.2972 9.61905H28.3585L26.717 16.5089ZM28.0189 10.1101H24.283L24.1132 9.87202H24L24.6792 7H35.8585L35.8302 7.11905L36 7.35714L35.3491 10.1101H31.2453L29.6038 17H26.7028L26.5472 16.7619H26.434L28.0189 10.1101Z" fill="#1E1D1D"/>
<path d="M26.717 16.5089H29.25L30.8915 9.61905H34.9953L35.5613 7.25298H24.8632L24.2972 9.61905H28.3585L26.717 16.5089Z" fill="white"/>
<path d="M37.3031 21.7857L37.7334 19.9509H33.3161L32.8352 22H30.2531L30.1013 21.7857H30L31.8479 13.9509C31.8732 13.8571 31.9239 13.75 32.0125 13.6429C32.1011 13.5357 32.2023 13.4286 32.3162 13.3348C32.4301 13.2411 32.5567 13.1607 32.6833 13.0938C32.8099 13.0402 32.9238 13 33.0377 13H41.1002C41.2521 13 41.404 13.067 41.5305 13.1875C41.6571 13.3214 41.7584 13.4554 41.8343 13.5893H41.8217L41.847 13.6295C41.8976 13.7366 41.9482 13.8304 41.9735 13.9241C41.9989 14.0179 42.0115 14.1116 41.9862 14.2054L40.1509 22H37.5562L37.4044 21.7857H37.3031ZM38.0625 19.5089L37.5689 21.558H39.8345L41.6318 13.9509C41.6445 13.8705 41.6445 13.7902 41.6191 13.7098C41.5938 13.6295 41.5432 13.5491 41.4926 13.4688C41.4419 13.4018 41.366 13.3482 41.2901 13.2946C41.2141 13.2545 41.1255 13.2277 41.0496 13.2277H32.9871C32.8985 13.2277 32.8099 13.2545 32.7086 13.2946C32.6073 13.3482 32.5061 13.4018 32.4175 13.4688C32.3289 13.5491 32.253 13.6295 32.1897 13.7098C32.1137 13.7902 32.0758 13.8705 32.0631 13.9509L30.2658 21.558H32.5187L33.0124 19.5089H38.0625ZM38.5561 17.3929H33.506L33.987 15.3571H39.0371L38.5561 17.3929ZM34.3034 15.7991L33.9743 17.1652H38.3916L38.7207 15.7991H34.3034Z" fill="#1E1D1D"/>
<path fill-rule="evenodd" clip-rule="evenodd" d="M38.0625 19.5089L37.5689 21.558H39.8345L41.6318 13.9509C41.6445 13.8705 41.6445 13.7902 41.6191 13.7098C41.5938 13.6295 41.5432 13.5491 41.4926 13.4688C41.4419 13.4018 41.366 13.3482 41.2901 13.2946C41.2141 13.2545 41.1255 13.2277 41.0496 13.2277H32.9871C32.8985 13.2277 32.8099 13.2545 32.7086 13.2946C32.6073 13.3482 32.5061 13.4018 32.4175 13.4688C32.3289 13.5491 32.253 13.6295 32.1897 13.7098C32.1137 13.7902 32.0758 13.8705 32.0631 13.9509L30.2658 21.558H32.5187L33.0124 19.5089H38.0625ZM33.506 17.3929H38.5561L39.0371 15.3571H33.987L33.506 17.3929Z" fill="white"/>
<path d="M37.9736 27.1231L33.0086 31.5731H30.4212L32.4069 23.5263H35.0544L33.9597 28.0243L38.5444 23.5263H41.6649L39.7094 31.5731H36.9973L37.9736 27.1231ZM32.106 23.3064L30 31.6928H30.1341L30.4212 32H33.0086L37.594 27.8122L36.6176 32H40.0132L42 23.7226L41.8411 23.4897L41.9205 23.3343L38.3037 23.3064L34.5564 27.0171L35.4756 23.3064H32.106Z" fill="#1E1D1D"/>
<path d="M37.9736 27.1231L33.0086 31.5731H30.4212L32.4069 23.5263H35.0544L33.9597 28.0243L38.5444 23.5263H41.6649L39.7094 31.5731H36.9973L37.9736 27.1231Z" fill="white"/>
<path d="M38.0011 22.0054L36.1684 21.9953L36.0282 22.9284L37.8265 22.947L38.0011 22.0054Z" fill="white"/>
<path d="M27.0437 33.8214L29.2737 38.6071H30.4828L35.44 33.8214L34.0831 38.6071H36.4878L38.5835 31.2024H35.3728L30.7112 35.6786L28.5751 31.2024H25.3778L23.2821 38.6071H25.6868L27.0437 33.8214ZM28.911 31.2738L30.8186 35.3214L35.3325 31H38.8657L38.8388 31.0952L39 31.2857L36.8237 39H34.0697L33.9085 38.8095H33.801L34.8757 34.9881L30.7112 39H29.3409L29.1797 38.8095H29.1259L27.2049 34.7738L26.0092 39H23.2687L23.1075 38.8095H23L25.2032 31H28.7364L28.817 31.1548L28.911 31.2738Z" fill="#1E1D1D"/>
<path d="M27.0437 33.8214L29.2737 38.6071H30.4828L35.44 33.8214L34.0831 38.6071H36.4878L38.5835 31.2024H35.3728L30.7112 35.6786L28.5751 31.2024H25.3778L23.2821 38.6071H25.6868L27.0437 33.8214Z" fill="white"/>
<defs>
<clipPath id="clip0_1748_2662">
<rect width="28" height="33" fill="white" transform="translate(0 17)"/>
</clipPath>
<clipPath id="clip1_1748_2662">
<rect width="40" height="38" fill="white" transform="translate(10)"/>
</clipPath>
</defs>
</svg>
