<svg width="50" height="50" viewBox="0 0 50 50" fill="none" xmlns="http://www.w3.org/2000/svg">
<path d="M18.4792 37.4263C17.8252 37.5577 17.3135 37.6628 17.2397 37.6786C17.1448 37.6996 17.0498 37.7049 16.9601 37.7049C16.7755 37.7049 16.5909 37.6681 16.4116 37.5998C15.9211 37.4105 15.6204 37.0005 15.5888 36.4801C15.5782 36.2908 15.5888 36.1174 15.631 35.9491C15.7365 35.5339 16.1162 34.0304 16.1321 33.9884C15.1827 32.6006 11 26.4187 11 26.4187C11 26.4187 12.1551 24.7208 12.5982 24.0689C12.4399 23.8271 11.3745 22.2449 11.3745 22.2449L24.4974 3L37.615 22.2974C37.615 22.2974 36.6497 23.722 36.4124 24.0689C36.6234 24.3844 38 26.4082 38 26.4082C38 26.4082 35.5421 30.0774 34.983 30.8974C35.0147 31.2549 34.9197 31.7963 34.6032 32.7846C34.598 32.8056 34.5927 32.8266 34.5874 32.8372C34.4608 33.2367 34.2762 33.5573 34.0231 33.8149C33.6591 34.1829 33.2161 34.4194 32.7044 34.5193C32.6359 34.5351 32.5304 34.5561 32.3985 34.5824L24.5026 46L18.4792 37.4263Z" fill="#ADADAD"/>
<path d="M20.4527 32.6171L19.9537 32.7242L20.1063 31.9865L20.6054 31.8795L20.4527 32.6171ZM32.8587 19.6731C32.8939 20.0419 32.8939 20.4107 32.8763 20.7855C32.8587 21.1305 32.8058 21.4755 32.7295 21.8086C32.3948 23.2779 31.6844 24.5271 30.5924 25.5443C29.9172 26.1689 29.148 26.6329 28.2791 26.9125C27.9209 27.0255 27.5569 27.1028 27.1812 27.1444C26.8465 27.1801 26.506 27.1861 26.1713 27.1563C25.6899 27.1207 25.2202 27.0195 24.7622 26.8589C24.3454 26.7102 23.952 26.5317 23.5586 26.3354L23.4177 26.2641C23.3825 26.2462 23.3414 26.2522 23.312 26.276C23.2885 26.2998 23.2592 26.3176 23.2357 26.3414C22.7308 26.7399 22.1789 27.0255 21.5506 27.1801C21.1925 27.2634 20.8343 27.2872 20.4762 27.2515C20.0828 27.2099 19.7129 27.0909 19.3783 26.8768C19.1199 26.7102 18.9086 26.4901 18.7735 26.2046C18.5035 25.6454 18.6385 24.9732 19.1434 24.5747C19.3548 24.4081 19.6014 24.307 19.8656 24.2594C20.2061 24.1999 20.5467 24.2356 20.8813 24.307C21.2629 24.3903 21.6328 24.5211 21.9969 24.658C22.2434 24.7472 22.4842 24.8424 22.7249 24.9316C22.7719 24.9494 22.8247 24.9673 22.8775 24.9851C22.9421 24.9375 22.9539 24.8781 22.9832 24.8245C23.1359 24.4974 23.2416 24.1523 23.3179 23.8014C23.4001 23.4504 23.4588 23.0935 23.4999 22.7366C23.541 22.3975 23.5645 22.0585 23.588 21.7194C23.6114 21.4101 23.6056 21.1067 23.6173 20.7974C23.6349 20.3512 23.6114 19.911 23.6056 19.4649C23.5997 19.1675 23.5762 18.87 23.5586 18.5726C23.5469 18.3942 23.541 18.2098 23.5234 18.0313C23.5058 17.8053 23.4823 17.5733 23.4647 17.3472C23.4647 17.3353 23.4529 17.3234 23.4471 17.3115C23.4001 17.2937 23.3707 17.3234 23.3414 17.3472C23.1594 17.4602 22.9891 17.5852 22.8012 17.6922C22.5194 17.8528 22.2317 18.0016 21.9499 18.1503C21.9147 18.1681 21.8794 18.2038 21.8207 18.18C21.8148 18.1503 21.809 18.1146 21.809 18.0848V16.7405C21.809 16.6988 21.8325 16.6691 21.8677 16.6512C21.9088 16.6334 21.944 16.6096 21.9851 16.5917C22.3726 16.3954 22.7601 16.2051 23.1476 16.0088C23.312 15.9255 23.312 15.9255 23.2827 15.7411C23.2474 15.4913 23.2063 15.2414 23.177 14.9916C23.1535 14.7715 23.1476 14.5455 23.1359 14.3194C23.13 14.2302 23.1359 14.141 23.13 14.0577C23.13 14.0279 23.1183 13.9922 23.1124 13.9625C23.0478 13.9447 23.0008 13.9744 22.9539 13.9922C22.5135 14.1588 22.1084 14.3967 21.7561 14.712C21.216 15.1879 20.8461 15.7709 20.6523 16.4787C20.5467 16.8773 20.5232 17.2758 20.5525 17.6803C20.5643 17.8826 20.6112 18.0729 20.6934 18.2573C20.8637 18.6559 21.1631 18.8879 21.58 18.9652C21.7209 18.995 21.8677 18.995 22.0086 18.995C22.0556 18.995 22.1025 18.9831 22.1554 19.0128C22.1554 19.0366 22.1613 19.0604 22.1554 19.0842C22.0497 19.6731 21.7385 20.1252 21.2571 20.4583C20.9694 20.6546 20.6523 20.7736 20.3059 20.8271C19.4722 20.958 18.5857 20.5535 18.0925 19.8456C17.8459 19.4946 17.705 19.108 17.6463 18.6856C17.6052 18.4001 17.6052 18.1086 17.6286 17.8231C17.658 17.4602 17.7402 17.1033 17.8635 16.7583C18.1336 15.985 18.5622 15.3069 19.1258 14.718C20.0065 13.79 21.0751 13.1892 22.2904 12.8501C22.5664 12.7728 22.8423 12.7133 23.1241 12.6717C23.1417 12.6717 23.1594 12.6657 23.1828 12.6598C23.2239 12.6479 23.2474 12.6241 23.2592 12.5824C23.2768 12.4932 23.2944 12.404 23.3179 12.3088C23.4177 11.8567 23.5527 11.4165 23.7524 10.9942C23.9402 10.5837 24.181 10.209 24.5039 9.8937C24.7857 9.62602 25.1027 9.41782 25.4785 9.32264C25.8367 9.22747 26.1948 9.23936 26.5295 9.42377C26.7526 9.54869 26.9228 9.72119 27.0579 9.93534C27.2281 10.203 27.3338 10.4945 27.3984 10.7979C27.4747 11.1607 27.4747 11.5236 27.4336 11.8865C27.3984 12.2017 27.3162 12.5051 27.2105 12.8085C27.1929 12.8501 27.1812 12.8918 27.1694 12.9394C27.1988 12.9572 27.2223 12.981 27.2516 12.9929C27.3867 13.0405 27.5276 13.0881 27.6626 13.1357C29.5062 13.8495 30.9505 15.057 31.9486 16.794C32.342 17.4781 32.6121 18.2098 32.7647 18.9831C32.8058 19.2091 32.8352 19.4351 32.8587 19.6731ZM22.355 25.7049C22.3139 25.6752 22.2963 25.6573 22.2669 25.6454C22.0145 25.5145 21.762 25.3837 21.4978 25.2766C21.3569 25.2231 21.216 25.1755 21.0692 25.1517C20.8696 25.1219 20.6758 25.1338 20.4938 25.229C20.1122 25.4194 20.0652 25.9012 20.4057 26.1629C20.4879 26.2284 20.576 26.27 20.6758 26.2938C20.8578 26.3473 21.0398 26.3414 21.216 26.3117C21.6211 26.2462 21.9675 26.0559 22.2787 25.7882C22.3022 25.7763 22.3198 25.7465 22.355 25.7049ZM24.4921 12.5289C24.5098 12.5408 24.5156 12.5527 24.5215 12.5527C25.044 12.5824 25.5666 12.6122 26.0832 12.7014C26.1067 12.7074 26.1302 12.7014 26.1537 12.7014C26.1889 12.6538 26.1948 12.6062 26.2007 12.5586C26.2183 12.4159 26.2418 12.2791 26.2535 12.1363C26.2711 11.9103 26.277 11.6902 26.23 11.4641C26.2124 11.363 26.1772 11.2678 26.1243 11.1786C26.0187 11.0061 25.8367 10.9287 25.6429 10.9644C25.5313 10.9823 25.4315 11.0299 25.3435 11.0953C25.2084 11.1845 25.1027 11.3035 25.0088 11.4344C24.774 11.7437 24.6213 12.0947 24.5039 12.4635C24.4921 12.4873 24.4921 12.5111 24.4921 12.5289ZM24.1868 14.6228C24.2044 14.8191 24.2221 15.0094 24.2514 15.1998C24.2573 15.2176 24.2573 15.2355 24.2632 15.2593C24.2749 15.289 24.3043 15.3069 24.3336 15.289C24.363 15.2712 24.3923 15.2533 24.4158 15.2355C24.6213 15.0868 24.8209 14.9262 25.0088 14.7477C25.2495 14.5217 25.4609 14.2659 25.637 13.9922C25.6664 13.9506 25.7016 13.909 25.7016 13.8495C25.4902 13.7365 24.5391 13.6472 24.2338 13.7186C24.1927 13.7721 24.1927 13.8376 24.1927 13.8971C24.1868 14.141 24.1633 14.3789 24.1868 14.6228ZM29.9348 18.6143C29.8643 18.1324 29.7528 17.6684 29.5825 17.2163C29.3477 16.568 29.013 15.9791 28.5668 15.4615C28.056 14.8726 27.4454 14.4265 26.7232 14.135C26.6762 14.1172 26.6293 14.0874 26.5647 14.0934L26.4766 14.2183C26.3357 14.4146 26.1948 14.6168 26.048 14.8072C25.6546 15.3128 25.2143 15.7768 24.7446 16.211C24.7035 16.2467 24.6683 16.2824 24.6389 16.3181C24.6448 16.3895 24.68 16.4311 24.7035 16.4728C24.9618 16.907 25.3024 17.258 25.7251 17.5257C26.1185 17.7755 26.5529 17.9421 27.005 18.0491C27.1048 18.0729 27.1988 18.0967 27.3162 18.1205C27.3103 18.1622 27.3103 18.186 27.3103 18.2038C27.2986 18.2633 27.281 18.3287 27.2634 18.3882C26.917 19.7266 26.4942 21.0413 25.9423 22.3142C25.4844 23.3671 24.956 24.3724 24.2573 25.2885C24.2397 25.3123 24.2221 25.348 24.2103 25.3718C24.2397 25.4194 24.2866 25.4194 24.3277 25.4313C24.633 25.4908 24.9442 25.5264 25.2613 25.5205C25.4902 25.5205 25.7251 25.5205 25.9541 25.4789C26.324 25.4194 26.6762 25.3242 27.0226 25.1755C27.6978 24.8781 28.2497 24.4319 28.7077 23.8549C29.1363 23.3136 29.4416 22.7128 29.6588 22.0585C29.7939 21.648 29.8937 21.2257 29.9524 20.7974C29.9935 20.4821 30.0229 20.1668 30.0346 19.8515C30.0229 19.4351 29.9935 19.0247 29.9348 18.6143ZM30.4926 29.9641L30.9975 29.857L31.0386 29.6666L30.5337 29.7737L30.4926 29.9641ZM30.3927 30.4875L30.8977 30.3804L30.9388 30.1722L30.4338 30.2793L30.3927 30.4875ZM27.5452 33.438L26.823 33.5927L26.7526 33.9377L27.4747 33.783L27.5452 33.438ZM21.6563 32.3613L22.1378 32.2602L22.1789 32.0579L21.6974 32.1591L21.6563 32.3613ZM35.8178 31.8259C35.7708 31.8973 35.7415 31.9687 35.7767 32.046C35.9469 32.397 35.4772 33.8246 35.4068 34.0447C35.3187 34.3303 35.1954 34.5801 34.9899 34.7943C34.7022 35.0857 34.3617 35.2701 33.9683 35.3534C33.2697 35.4962 29.4827 36.2873 29.3242 36.3171C29.2655 36.329 29.2244 36.3528 29.1891 36.4063C29.0658 36.5967 28.9367 36.787 28.8075 36.9774C28.7958 36.9952 28.7899 37.025 28.7782 37.0428C28.8134 37.0725 28.8486 37.0606 28.8838 37.0547C29.1833 36.9893 32.2246 36.3587 32.6649 36.2695C32.7236 36.2576 32.7882 36.2457 32.8704 36.2279C32.8528 36.2695 32.8469 36.2873 32.8352 36.3052C32.7178 36.4836 32.6003 36.6561 32.4829 36.8346C32.4477 36.8822 32.4125 36.9119 32.3479 36.9238C32.025 36.9893 29.0189 37.6139 28.4963 37.7269C28.467 37.7328 28.4376 37.7447 28.4083 37.7447C28.3202 37.7507 28.2615 37.7983 28.2145 37.8697C28.0912 38.066 27.9562 38.2563 27.827 38.4526C27.8094 38.4764 27.7977 38.5061 27.7859 38.5359C27.7859 38.5418 27.7977 38.5597 27.8035 38.5656C27.8211 38.5716 27.8388 38.5656 27.8564 38.5656C28.1382 38.5061 31.2147 37.8697 31.7373 37.7626C31.7725 37.7566 31.8077 37.7388 31.8547 37.7685C31.8488 37.7864 31.8371 37.8102 31.8312 37.8221C31.7196 37.9946 31.6022 38.1671 31.4848 38.3396C31.4496 38.3931 31.4026 38.4229 31.338 38.4348C31.0386 38.4942 27.9092 39.1426 27.4336 39.2438C27.416 39.2497 27.3984 39.2497 27.3808 39.2557C27.3103 39.2676 27.2575 39.3032 27.2164 39.3687C27.099 39.5531 26.9698 39.7375 26.8524 39.9219C26.8289 39.9516 26.7995 39.9814 26.8054 40.023C26.8289 40.0528 26.8583 40.0409 26.8876 40.0349C27.099 39.9933 28.3906 39.7256 28.4435 39.7196C28.42 39.7613 24.9971 44.8711 24.9971 44.8711C24.9971 44.8711 22.4313 41.0343 22.4196 41.0224C22.4137 41.0164 22.4137 41.0045 22.4137 40.9986C22.4137 40.9926 22.4137 40.9926 22.4196 40.9748C22.4313 40.9688 22.4548 40.9569 22.4724 40.9569C22.8071 40.8856 23.1417 40.8201 23.4764 40.7487C23.5351 40.7368 23.5938 40.7368 23.6525 40.6952C23.6408 40.6714 23.6408 40.6476 23.6232 40.6238C23.5234 40.4751 23.4236 40.3323 23.3296 40.1836C23.2944 40.136 23.2592 40.1182 23.2005 40.1301C22.9656 40.1836 20.4821 40.6952 20.212 40.7487C20.1944 40.7547 20.1768 40.7547 20.1592 40.7547C20.0828 40.6893 19.8715 40.3561 19.8186 40.261C19.8421 40.2491 19.8597 40.2312 19.8773 40.2312C20.3001 40.142 22.7249 39.6423 22.7895 39.6245C22.8306 39.6126 22.8717 39.6126 22.9128 39.5769C22.901 39.5531 22.8893 39.5233 22.8775 39.4995C22.7777 39.3508 22.6779 39.2081 22.584 39.0594C22.5429 38.9999 22.4959 38.988 22.4313 38.9999C22.173 39.0534 19.7717 39.5531 19.5427 39.6007C19.5309 39.6007 19.5192 39.6066 19.5074 39.6126C19.4252 39.6364 19.3724 39.6126 19.3254 39.5352C19.255 39.4163 19.1728 39.3032 19.0965 39.1902C19.0847 39.1724 19.0788 39.1545 19.0612 39.1248C19.1023 39.1129 19.1376 39.095 19.1728 39.0891C20.0006 38.9166 21.9323 38.518 22.0732 38.4883C22.1025 38.4823 22.126 38.4705 22.1554 38.4526C22.1436 38.4229 22.1378 38.405 22.1319 38.3872C22.0438 38.2504 21.9499 38.1135 21.8618 37.9767C21.8266 37.9232 21.7855 37.9053 21.7209 37.9232C21.5272 37.9648 17.0826 38.8868 16.748 38.9523C16.5953 38.982 16.4485 38.9642 16.3076 38.9106C16.0786 38.8214 15.9553 38.6489 15.9377 38.3991C15.9319 38.292 15.9377 38.1849 15.9612 38.0779C16.0786 37.6139 16.425 36.2279 16.4779 36.0018C16.5131 35.865 16.5425 35.7341 16.607 35.6092C16.6364 35.5557 16.6305 35.514 16.5953 35.4664C16.5718 35.4367 11.0352 27.1444 11 27.0909C11.0294 27.0433 12.7496 24.4617 12.7672 24.4319C12.7555 24.3665 11.4403 22.4094 11.4169 22.3678C11.6635 21.9871 24.9912 2.0119 24.9971 2C25.0088 2.0119 38.5714 22.3023 38.5831 22.3321C38.4716 22.5046 37.3267 24.2059 37.221 24.3784C37.315 24.539 38.9002 26.9006 39 27.0493C38.9765 27.0909 36.0057 31.5523 35.8178 31.8259ZM18.0279 36.7692L17.8283 36.3587L17.8752 36.1208L18.2686 35.5973L17.7813 35.7044L17.4466 36.1386L17.3644 36.5491L17.5406 36.8762L18.0279 36.7692ZM18.7559 36.6145L18.5622 36.1981L18.6091 35.9602L18.9966 35.4426L18.5152 35.5438L18.1864 35.984L18.1042 36.3885L18.2745 36.7216L18.7559 36.6145ZM21.2571 35.8234L21.0575 35.865L21.3921 34.2232L20.1122 34.4968C19.8891 34.5444 19.7247 34.6158 19.619 34.705C19.4898 34.8121 19.4018 34.9727 19.3607 35.1928L19.1434 36.2754L18.9438 36.3171L18.8205 36.9238L21.1397 36.4301L21.2571 35.8234ZM19.484 33.0038C19.4898 33.0989 19.5368 33.1525 19.619 33.1644C19.6307 33.1644 19.6484 33.1703 19.6718 33.1703C19.7247 33.1703 19.7893 33.1644 19.8715 33.1465L20.3705 33.0394C20.5349 33.0037 20.6523 32.9502 20.7287 32.8848C20.8167 32.8074 20.8754 32.6885 20.9048 32.5219L21.0575 31.7843C21.0692 31.7189 21.0751 31.6653 21.0751 31.6177C21.0692 31.5226 21.0281 31.469 20.94 31.4512C20.9224 31.4512 20.9107 31.4452 20.8872 31.4452C20.8343 31.4452 20.7698 31.4512 20.6876 31.469L20.1885 31.5761C20.03 31.6118 19.9126 31.6594 19.8362 31.7248C19.7482 31.8021 19.6895 31.9152 19.6542 32.0758L19.5016 32.8134C19.4898 32.8967 19.484 32.9562 19.484 33.0038ZM21.762 31.8259L21.8031 31.6237L22.6955 31.4333L22.7777 31.0288L21.4391 31.3144L21.122 32.8729L22.1789 32.6468C22.4078 32.5993 22.5488 32.4505 22.5957 32.2066L22.6486 31.9568C22.6603 31.8973 22.6662 31.8497 22.6603 31.8081C22.6603 31.7486 22.6368 31.707 22.6016 31.6891C22.584 31.6772 22.5546 31.6713 22.5194 31.6713C22.4724 31.6713 22.4137 31.6772 22.3433 31.6951L21.762 31.8259ZM22.9539 34.824L22.6955 36.097L23.3296 35.9602L23.7876 33.7116L23.1535 33.8484L22.1378 35.282L22.3961 34.0091L21.762 34.1459L21.304 36.3944L21.9381 36.2576L22.9539 34.824ZM23.359 31.9984L23.5938 30.8563L23.1417 30.9515L22.9069 32.0936C22.8893 32.1769 22.8834 32.2364 22.8834 32.2899C22.8893 32.3673 22.9186 32.4148 22.9774 32.4386C23.0008 32.4446 23.0302 32.4505 23.0654 32.4505C23.1183 32.4505 23.1887 32.4446 23.2709 32.4267L24.9618 32.0639L25.0499 31.6415L24.9149 31.6713L25.1497 30.5351L24.6976 30.6303L24.4628 31.7724L24.1281 31.8438L24.363 30.7017L23.9344 30.7909L23.6995 31.933L23.359 31.9984ZM27.2281 31.1657L27.3808 30.428L28.2439 30.2436L28.3261 29.8391L27.463 30.0235C27.2986 30.0592 27.1753 30.1068 27.1048 30.1722C27.0168 30.2436 26.9581 30.3626 26.9287 30.5232L26.7819 31.2608C26.7643 31.3441 26.7584 31.4095 26.7584 31.4571C26.7643 31.5345 26.7937 31.5821 26.8524 31.6058C26.8759 31.6118 26.9052 31.6177 26.9404 31.6177C26.9933 31.6177 27.0637 31.6118 27.1459 31.588L28.009 31.4036L28.0971 30.9813L27.2281 31.1657ZM26.4355 33.2417C26.3064 33.3488 26.2183 33.5094 26.1713 33.7295L25.8249 35.4248L26.4766 35.288L26.6586 34.3898L27.3808 34.2351L27.1988 35.1333L27.8505 34.9965L28.3085 32.748L26.9346 33.0394C26.7115 33.087 26.5471 33.1525 26.4355 33.2417ZM26.7232 30.1841L25.4902 30.4459L25.1732 32.0103L26.4062 31.7486L26.4942 31.3263L25.7192 31.4928L25.7603 31.2906L26.4649 31.1419L26.5353 30.8147L25.8308 30.9634L25.8719 30.7612L26.6469 30.5946L26.7232 30.1841ZM24.5098 34.3957L24.6859 33.5213L24.0283 33.664L23.5703 35.9126L24.2279 35.7698L24.4099 34.8716L25.1145 34.7229L24.9325 35.6211L25.5901 35.4783L26.048 33.2298L25.3904 33.3726L25.2143 34.247L24.5098 34.3957ZM28.0266 36.5907C27.9679 36.6026 22.7542 37.6852 22.7131 37.6971C22.7542 37.7983 24.9853 41.1116 25.0088 41.1354C25.0323 41.1116 28.0266 36.6086 28.0266 36.5907ZM30.8801 32.1947L30.0992 32.3613L29.7058 33.3071C29.6471 33.4439 29.6119 33.551 29.5943 33.6343H29.5884C29.606 33.5391 29.6177 33.432 29.6119 33.325L29.5825 32.4684L28.8075 32.6349L28.0501 34.9549L28.696 34.8181L29.0189 33.789C29.0482 33.6997 29.0658 33.6224 29.0776 33.5629H29.0835L29.1069 34.7348L29.653 34.6158L30.1755 33.3309H30.1814C30.1638 33.4083 30.152 33.4796 30.1462 33.551L30.064 34.5325L30.7098 34.3957L30.8801 32.1947ZM28.9132 30.1068L28.6783 31.2668L29.1363 31.1716L29.3711 30.0116L29.8174 29.9165L29.8996 29.512L28.555 29.7975L28.4728 30.202L28.9132 30.1068ZM30.9446 30.779C31.0562 30.7552 31.1443 30.7076 31.203 30.6362C31.2617 30.5708 31.2969 30.4816 31.3263 30.3626L31.3732 30.1425C31.385 30.0949 31.385 30.0533 31.385 30.0235C31.385 29.97 31.3556 29.9343 31.2969 29.9284C31.3498 29.8867 31.385 29.851 31.4026 29.8213C31.432 29.7796 31.4496 29.738 31.4613 29.6845L31.5083 29.4644C31.52 29.4168 31.52 29.3751 31.52 29.3454C31.5142 29.2562 31.4613 29.2086 31.3674 29.2086C31.338 29.2086 31.3028 29.2145 31.2676 29.2205L30.1696 29.4584L29.8526 31.0169L30.9446 30.779ZM33.0935 33.2952L33.3108 32.2304C33.3284 32.1353 33.3342 32.0579 33.3342 31.9925C33.3284 31.8557 33.2638 31.7784 33.1405 31.7546C33.117 31.7486 33.0935 31.7486 33.0642 31.7486C32.9937 31.7486 32.8939 31.7605 32.7823 31.7843L32.0602 31.939C31.8312 31.9866 31.6609 32.0579 31.5494 32.1531C31.4261 32.2602 31.338 32.4267 31.291 32.6587L31.0738 33.7235C31.0503 33.8306 31.0445 33.9198 31.0445 33.9912C31.0503 34.128 31.1149 34.2054 31.2441 34.2232C31.2676 34.2291 31.291 34.2291 31.3204 34.2291C31.3909 34.2291 31.4907 34.2173 31.6022 34.1935L32.3244 34.0388C32.5592 33.9853 32.7354 33.9139 32.8411 33.8127C32.9644 33.7057 33.0466 33.5332 33.0935 33.2952ZM31.614 30.4102C31.6198 30.5054 31.6668 30.5589 31.749 30.5708C31.7607 30.5708 31.7784 30.5767 31.8018 30.5767C31.8547 30.5767 31.9193 30.5708 32.0015 30.553L32.5005 30.4459C32.6649 30.4102 32.7823 30.3567 32.8587 30.2912C32.9409 30.2139 33.0055 30.0949 33.0348 29.9284L33.1875 29.1907C33.1992 29.1253 33.2051 29.0718 33.2051 29.0242C33.1992 28.929 33.1581 28.8755 33.07 28.8576C33.0524 28.8576 33.0407 28.8517 33.0172 28.8517C32.9644 28.8517 32.8998 28.8576 32.8176 28.8755L32.3185 28.9825C32.16 29.0182 32.0426 29.0658 31.9662 29.1313C31.8782 29.2086 31.8195 29.3216 31.7842 29.4822L31.6316 30.2258C31.6198 30.3031 31.6081 30.3626 31.614 30.4102ZM33.71 33.4142L34.0329 32.98L34.1151 32.5755L33.9449 32.2423L33.4634 32.3435L33.663 32.7361L33.6161 32.974L33.2227 33.5153L33.71 33.4142ZM34.8549 32.4148L34.6788 32.0877L34.1973 32.1888L34.3969 32.5755L34.3441 32.8193L33.9507 33.3607L34.4322 33.2595L34.7668 32.8253L34.8549 32.4148ZM37.5792 22.3261C37.5439 22.2726 25.0264 3.54067 25.0029 3.53472C24.9912 3.54067 12.4443 22.2785 12.4326 22.338C12.4619 22.3797 17.9163 30.553 17.9398 30.5827C17.9633 30.6184 17.9985 30.6303 18.0396 30.6184C18.204 30.5827 34.0623 27.2396 34.2502 27.2039C34.3089 27.192 34.3558 27.1682 34.3852 27.1147C34.3911 27.1088 37.5498 22.3737 37.5792 22.3261ZM32.7354 29.2859L32.2363 29.393L32.0837 30.1306L32.5827 30.0235L32.7354 29.2859ZM19.7775 36.1386L20.4057 36.0018L20.623 34.943L19.9948 35.0798L19.7775 36.1386ZM30.8155 39.2021C30.4456 39.2795 30.0698 39.3568 29.6999 39.4341C29.5414 39.4698 29.5414 39.4698 29.4475 39.6066C28.0853 41.647 25.0147 46.2392 25.0147 46.2392C25.0147 46.2392 21.9029 41.5994 21.6505 41.2306C21.5859 41.1354 21.6035 41.1116 21.5037 41.1354C21.4273 41.1532 20.623 41.3317 20.623 41.3317C20.5819 41.3436 20.5643 41.3495 20.5819 41.3852C22.0438 43.5802 24.9971 47.9881 25.0088 48C25.0205 47.9881 28.9249 42.1407 30.8683 39.2378C30.8683 39.2259 30.8272 39.1962 30.8155 39.2021ZM31.7255 33.5867L32.4477 33.432L32.6649 32.3732L31.9428 32.5279L31.7255 33.5867Z" fill="white"/>
</svg>
