<svg width="50" height="50" viewBox="0 0 50 50" fill="none" xmlns="http://www.w3.org/2000/svg">
<path fill-rule="evenodd" clip-rule="evenodd" d="M28.9217 3.23398C29.5095 3.16815 30.0277 3.31231 30.4761 3.66647C30.6995 5.0885 30.1055 5.55703 28.6942 5.07204C28.5552 4.98794 28.4415 4.87982 28.353 4.74768C28.1935 4.10852 28.383 3.60395 28.9217 3.23398Z" fill="white"/>
<path fill-rule="evenodd" clip-rule="evenodd" d="M29.0918 3.5495C29.5121 3.43814 29.8258 3.56871 30.1233 3.80933C30.1997 4.66302 30.0019 5.01419 29.1682 4.95997C29.016 4.91734 28.9014 4.83073 28.8244 4.70015C28.7113 4.25114 28.7098 3.84644 29.0918 3.5495Z" fill="#1E1D1D"/>
<path fill-rule="evenodd" clip-rule="evenodd" d="M22.6552 3.12048C23.4977 2.94369 23.8647 3.26314 23.7562 4.07882C23.6929 4.14025 23.6296 4.20168 23.5664 4.26311C23.1913 4.34474 22.8117 4.40617 22.4274 4.44741C22.3912 4.68622 22.3912 4.93195 22.4274 5.18459C22.2755 5.18459 22.1237 5.18459 21.9718 5.18459C21.9696 4.56502 21.9316 3.9507 21.8579 3.34163C21.8959 3.30478 21.9338 3.26792 21.9718 3.23106C22.2144 3.21775 22.4422 3.18089 22.6552 3.12048Z" fill="white"/>
<path fill-rule="evenodd" clip-rule="evenodd" d="M22.31 3.48634C22.5947 3.47386 23.0329 3.411 23.3153 3.44862C23.4373 3.67171 23.4115 3.87291 23.238 4.0522C22.9313 4.11466 22.6219 4.15239 22.31 4.16537C22.2759 3.88784 22.1728 3.71179 22.31 3.48634Z" fill="#1E1D1D"/>
<path fill-rule="evenodd" clip-rule="evenodd" d="M31.2423 3.72778C31.8131 3.77737 32.3543 3.92298 32.8657 4.16461C32.961 4.51462 32.8477 4.78157 32.5259 4.96547C32.7584 5.39154 32.6452 5.70704 32.1861 5.91194C31.6978 5.78832 31.2195 5.64271 30.7515 5.47511C30.8434 4.87848 31.0069 4.29604 31.2423 3.72778Z" fill="white"/>
<path fill-rule="evenodd" clip-rule="evenodd" d="M31.4699 4.09204C31.7833 4.10156 32.0851 4.16228 32.3753 4.27419C32.5086 4.52365 32.4332 4.68151 32.1489 4.74778C31.9193 4.69841 31.6929 4.63769 31.4699 4.56563C31.4332 4.41797 31.4332 4.26011 31.4699 4.09204Z" fill="#1E1D1D"/>
<path fill-rule="evenodd" clip-rule="evenodd" d="M17.8798 4.04772C18.685 3.91785 19.163 4.23284 19.3135 4.99271C19.3876 5.48266 19.168 5.80977 18.6548 5.97405C17.7304 6.34126 17.2008 6.06262 17.0661 5.1381C17.0144 4.94425 17.0144 4.75041 17.0661 4.55656C17.2984 4.32121 17.5697 4.15159 17.8798 4.04772Z" fill="white"/>
<path fill-rule="evenodd" clip-rule="evenodd" d="M24.7711 3C24.899 3 25.0267 3 25.1545 3C25.5472 3.62272 25.8795 4.27601 26.1513 4.95988C26.021 4.9715 25.8932 4.9594 25.7679 4.92358C25.6765 4.78476 25.5998 4.63959 25.5379 4.48805C25.1774 4.42793 24.8195 4.44003 24.4644 4.52435C24.4457 4.85253 24.2668 4.9977 23.9277 4.95988C24.1464 4.28011 24.4275 3.62682 24.7711 3Z" fill="white"/>
<path fill-rule="evenodd" clip-rule="evenodd" d="M24.9249 3.2935C24.992 3.28407 25.0432 3.30807 25.0782 3.36548C25.2033 3.62392 25.3056 3.88788 25.3849 4.15735C25.1244 4.18042 24.8687 4.15642 24.6182 4.08536C24.7209 3.81971 24.8232 3.55576 24.9249 3.2935Z" fill="#1E1D1D"/>
<path fill-rule="evenodd" clip-rule="evenodd" d="M18.024 4.31367C18.6364 4.27581 18.9431 4.55696 18.9441 5.15713C18.9407 5.28653 18.9151 5.40877 18.8674 5.52385C18.0569 5.9975 17.5969 5.77746 17.4873 4.86376C17.5289 4.55182 17.7078 4.36845 18.024 4.31367Z" fill="#1E1D1D"/>
<path fill-rule="evenodd" clip-rule="evenodd" d="M21.001 3.30776C21.079 3.30776 21.1569 3.27118 21.2349 3.30776C21.2739 3.45406 21.2349 3.5516 21.2349 3.67352C20.8144 3.70376 20.3987 3.76472 19.9876 3.8564C19.8922 4.04873 19.9181 4.23161 20.0656 4.40503C20.495 4.25863 20.9368 4.19768 21.3908 4.22215C21.93 4.86482 21.7741 5.25496 20.9231 5.39258C20.5693 5.48941 20.2185 5.5016 19.8707 5.42915C19.6782 4.87745 19.5482 4.31663 19.481 3.74667C19.9851 3.57083 20.4918 3.42453 21.001 3.30776Z" fill="white"/>
<path fill-rule="evenodd" clip-rule="evenodd" d="M20.4851 4.55538C20.6944 4.54391 20.9523 4.48547 21.108 4.59033C21.2352 4.8292 21.1573 4.99232 20.8745 5.07969C20.6798 5.13981 20.4851 5.18455 20.2515 5.18455C20.1348 5.1496 20.0053 4.84801 20.018 4.62529C20.2126 4.59033 20.2905 4.56605 20.4851 4.55538Z" fill="#1E1D1D"/>
<path fill-rule="evenodd" clip-rule="evenodd" d="M26.3822 3C26.5607 3 26.7393 3 26.9178 3C27.1581 3.06065 27.4132 3.09758 27.6829 3.11078C27.8229 3.13098 27.9376 3.19252 28.0272 3.29541C28.1211 3.59757 28.0574 3.85606 27.8359 4.07087C28.1564 4.41635 28.131 4.73638 27.7594 5.03097C27.2749 5.04826 26.7903 5.03595 26.3057 4.99404C26.3057 4.89557 26.3057 4.7971 26.3057 4.69863C26.7393 4.69863 27.1728 4.69863 27.6064 4.69863C27.626 4.52932 27.6005 4.3693 27.5299 4.21858C27.1482 4.18171 26.7656 4.1694 26.3822 4.18165C26.3822 4.08318 26.3822 3.98471 26.3822 3.88624C26.7911 3.8985 27.1991 3.8862 27.6064 3.84931C27.7084 3.70161 27.7084 3.5539 27.6064 3.40619C27.1983 3.36433 26.7902 3.32741 26.3822 3.29541C26.3822 3.19694 26.3822 3.09847 26.3822 3Z" fill="white"/>
<path fill-rule="evenodd" clip-rule="evenodd" d="M31.248 4.81934C31.5822 4.89032 31.9142 4.97532 32.2437 5.07435C32.3464 5.32816 32.257 5.48602 31.9756 5.54794C31.7283 5.5043 31.4857 5.44359 31.248 5.36579C31.1992 5.19138 31.1992 5.00922 31.248 4.81934Z" fill="#1E1D1D"/>
<path fill-rule="evenodd" clip-rule="evenodd" d="M16.1843 4.68244C16.3503 4.65457 16.4781 4.70294 16.5677 4.82756C16.2197 5.00427 15.862 5.16148 15.4942 5.29919C15.4559 5.51686 15.4942 5.66198 15.6859 5.77082C16.0089 5.65688 16.3284 5.53595 16.6443 5.40803C16.7593 5.37175 16.836 5.45298 16.8744 5.55314C16.5293 5.77082 16.1843 5.87966 15.8009 5.9885C15.7867 6.22747 15.8762 6.42096 16.0693 6.56897C16.4075 6.41512 16.7525 6.27 17.1044 6.13361C17.1979 6.16169 17.2491 6.22215 17.2577 6.31501C16.8188 6.56871 16.346 6.77429 15.8393 6.93176C15.7801 6.92125 15.7289 6.89707 15.6859 6.8592C15.4417 6.35734 15.199 5.86153 14.9575 5.37175C14.9831 5.31128 15.0087 5.25081 15.0342 5.19035C15.4189 5.00543 15.8022 4.83613 16.1843 4.68244Z" fill="white"/>
<path fill-rule="evenodd" clip-rule="evenodd" d="M35.3521 4.96558C35.9902 5.21999 36.6035 5.51121 37.1922 5.83924C37.1626 5.92805 37.0987 5.97659 37.0006 5.98485C36.7854 5.90697 36.5809 5.8099 36.3872 5.69363C36.0829 6.17752 35.7762 6.66289 35.4671 7.14973C35.3531 7.10203 35.2637 7.02922 35.1987 6.93132C35.4934 6.4594 35.749 5.97403 35.9655 5.47521C35.7466 5.44435 35.5422 5.37155 35.3521 5.2568C35.2657 5.16154 35.2657 5.06447 35.3521 4.96558Z" fill="white"/>
<path fill-rule="evenodd" clip-rule="evenodd" d="M34.1224 4.47146C34.404 4.41557 34.5953 4.51176 34.6961 4.76002C34.7344 5.38479 34.7471 6.01001 34.7344 6.6357C34.6086 6.6511 34.4939 6.62706 34.3901 6.56356C34.3521 6.37267 34.3393 6.18029 34.3519 5.98643C34.0219 5.92681 33.7031 5.83062 33.3956 5.69786C33.2434 5.82865 33.0776 5.94889 32.8983 6.05857C32.7754 6.04869 32.6733 6.0006 32.5923 5.91429C33.1274 5.45783 33.6374 4.97689 34.1224 4.47146Z" fill="white"/>
<path fill-rule="evenodd" clip-rule="evenodd" d="M34.1898 4.89258C34.3342 5.14972 34.3843 5.44117 34.34 5.7669C34.0778 5.73711 33.8274 5.66425 33.5889 5.54832C33.7909 5.3283 33.9912 5.10972 34.1898 4.89258Z" fill="#1E1D1D"/>
<path fill-rule="evenodd" clip-rule="evenodd" d="M14.0158 5.62423C14.1162 5.61186 14.2049 5.63611 14.2817 5.69695C14.558 6.11899 14.8492 6.5311 15.1552 6.93327C15.5093 6.82315 15.5853 6.908 15.3831 7.18781C14.6363 7.58157 13.902 7.99368 13.1803 8.42413C13.079 8.47262 12.9777 8.47262 12.8764 8.42413C12.5071 7.93715 12.1526 7.4402 11.813 6.93327C11.917 6.81517 12.0436 6.7788 12.1928 6.82419C12.4818 7.2584 12.7856 7.68263 13.1043 8.09687C13.3224 7.98075 13.5249 7.84742 13.712 7.69688C13.4435 7.24358 13.165 6.79512 12.8764 6.35147C13.0568 6.16075 13.2214 6.18499 13.3702 6.4242C13.6012 6.78192 13.8418 7.13343 14.0918 7.47871C14.2924 7.41974 14.495 7.33489 14.6994 7.22417C14.7817 7.16126 14.7943 7.08854 14.7374 7.006C14.4087 6.61904 14.1174 6.20693 13.8639 5.76967C13.9203 5.72009 13.9709 5.67161 14.0158 5.62423Z" fill="white"/>
<path fill-rule="evenodd" clip-rule="evenodd" d="M37.4299 6.05737C37.9955 6.2144 38.5112 6.46922 38.9771 6.82183C38.9386 6.90614 38.8741 6.96682 38.7837 7.00384C38.44 6.82394 38.0919 6.65406 37.7393 6.4942C37.4478 6.6037 37.3963 6.76145 37.5846 6.96744C37.898 7.1144 38.1816 7.29641 38.4356 7.51348C38.4056 7.60229 38.3412 7.65082 38.2422 7.65909C37.9316 7.45217 37.5964 7.2823 37.2365 7.14945C36.9943 7.26578 36.9298 7.43566 37.0431 7.65909C37.3268 7.81683 37.6104 7.97457 37.894 8.13232C37.9972 8.20513 37.9972 8.27793 37.894 8.35074C38.5232 8.10321 39.1421 7.81199 39.7507 7.47707C40.1246 7.44067 40.2922 7.59842 40.2535 7.95031C40.0772 8.5451 39.871 9.12754 39.6346 9.69763C39.5143 9.6234 39.4241 9.52632 39.3639 9.40641C39.5293 8.89101 39.7098 8.38137 39.9054 7.8775C39.8796 7.85324 39.8538 7.82896 39.828 7.8047C39.2865 8.09592 38.745 8.38714 38.2035 8.67836C37.675 8.34463 37.1334 8.02913 36.5789 7.73189C36.4914 7.61726 36.4785 7.49592 36.5402 7.36787C36.8577 6.93926 37.1543 6.50243 37.4299 6.05737Z" fill="white"/>
<path fill-rule="evenodd" clip-rule="evenodd" d="M11.1361 7.36826C11.2802 7.36541 11.3835 7.42608 11.4462 7.55027C11.1232 7.80507 10.8003 8.05988 10.4774 8.31469C10.4795 8.45428 10.5441 8.57561 10.6711 8.6787C10.71 8.75303 10.7617 8.76517 10.8261 8.7151C11.1423 8.43937 11.491 8.20883 11.8724 8.02348C12.6113 8.31524 12.7017 8.71566 12.1437 9.22472C11.8784 9.45247 11.5812 9.63447 11.2524 9.77074C10.7731 9.36887 10.3468 8.91992 9.97363 8.42389C10.3291 8.03897 10.7166 7.68709 11.1361 7.36826Z" fill="white"/>
<path fill-rule="evenodd" clip-rule="evenodd" d="M11.5836 8.46587C11.8626 8.43321 12.0415 8.5418 12.1203 8.79162C11.9134 9.01591 11.6706 9.19688 11.3919 9.33453C11.23 9.25432 11.0894 9.14574 10.9702 9.00878C11.195 8.84341 11.3994 8.66244 11.5836 8.46587Z" fill="#1E1D1D"/>
<path fill-rule="evenodd" clip-rule="evenodd" d="M41.1023 8.38794C41.259 8.427 41.3868 8.51278 41.4856 8.6453C41.2772 8.82047 41.0982 9.01655 40.9489 9.23356C41.2734 9.50772 41.5546 9.8141 41.7923 10.1527C41.6052 10.7908 41.2218 10.9501 40.6422 10.6307C40.345 10.358 40.0639 10.0761 39.7988 9.78505C40.2635 9.33979 40.6979 8.87409 41.1023 8.38794Z" fill="white"/>
<path fill-rule="evenodd" clip-rule="evenodd" d="M40.4898 9.47949C40.7845 9.60337 41.0145 9.81586 41.2565 10.042C41.2596 10.3607 41.1319 10.4607 40.7965 10.417C40.6274 10.2264 40.4357 10.064 40.2215 9.92947C40.1703 9.87947 40.1703 9.82948 40.2215 9.77948C40.327 9.6891 40.4163 9.58911 40.4898 9.47949Z" fill="#1E1D1D"/>
<path fill-rule="evenodd" clip-rule="evenodd" d="M42.8665 9.98877C43.0109 10.0042 43.1131 10.077 43.1732 10.2072C42.9572 10.3759 42.7527 10.5579 42.5598 10.7532C42.7524 11.0332 42.9952 11.2637 43.2882 11.4449C43.494 11.2862 43.7112 11.1405 43.9399 11.008C44.0421 11.0566 44.1188 11.1294 44.1699 11.2265C43.6582 11.6516 43.1343 12.0642 42.5981 12.4641C42.4738 12.4311 42.3844 12.3583 42.3298 12.2457C42.5577 12.0778 42.7622 11.8837 42.9432 11.6633C42.7677 11.3753 42.5377 11.1326 42.2531 10.9352C42.045 11.1329 41.815 11.3028 41.563 11.4449C41.4608 11.3963 41.3841 11.3235 41.333 11.2265C41.8456 10.8123 42.3568 10.3997 42.8665 9.98877Z" fill="white"/>
<path fill-rule="evenodd" clip-rule="evenodd" d="M9.13866 8.9751C9.41967 8.95035 9.67761 9.01108 9.91257 9.1573C10.8833 9.9029 10.8059 10.5588 9.6804 11.1251C9.37455 11.1916 9.09076 11.1429 8.8291 10.9793C8.63563 10.7971 8.44215 10.6149 8.24868 10.4327C8.19706 10.2141 8.19706 9.99543 8.24868 9.77679C8.48626 9.44353 8.78298 9.1763 9.13866 8.9751Z" fill="white"/>
<path fill-rule="evenodd" clip-rule="evenodd" d="M9.20801 9.40698C9.65497 9.43962 10.0079 9.63763 10.267 10.001C10.3266 10.3709 10.1828 10.6555 9.83554 10.8549C9.33697 10.9057 8.95786 10.7201 8.69814 10.298C8.64276 10.1145 8.66888 9.94126 8.77658 9.77824C8.91872 9.64457 9.0625 9.52082 9.20801 9.40698Z" fill="#1E1D1D"/>
<path fill-rule="evenodd" clip-rule="evenodd" d="M6.44642 11.8096C7.09761 12.0462 7.711 12.3617 8.28659 12.756C8.20992 12.8531 8.13324 12.9502 8.05657 13.0473C7.571 12.756 7.08535 12.4648 6.59977 12.1736C6.36101 12.3761 6.18213 12.6188 6.06306 12.9016C6.16419 13.1803 6.36868 13.2895 6.67645 13.2293C6.79008 13.0487 6.93062 12.8909 7.09815 12.756C7.15734 12.7666 7.20848 12.7908 7.2515 12.8288C7.35286 13.1412 7.44234 13.4566 7.51985 13.7753C7.44855 13.9286 7.35915 14.0742 7.2515 14.2121C7.2071 13.908 7.13043 13.6168 7.02148 13.3385C6.53882 13.7481 6.10431 13.6996 5.71803 13.1929C5.66691 13.0473 5.66691 12.9016 5.71803 12.756C5.96153 12.4384 6.20437 12.1229 6.44642 11.8096Z" fill="white"/>
<path fill-rule="evenodd" clip-rule="evenodd" d="M44.3997 12.1998C44.7789 12.1143 45.0344 12.2341 45.1665 12.559C44.7882 13.1482 44.3536 13.699 43.863 14.2116C43.7823 14.1442 43.7311 14.0604 43.7097 13.9602C43.7924 13.8053 43.8947 13.6616 44.0164 13.529C43.8218 13.3202 43.6557 13.0927 43.518 12.8464C43.3309 12.7634 43.1392 12.7634 42.9429 12.8464C42.8071 12.7847 42.7049 12.6889 42.6362 12.559C43.239 12.4613 43.8268 12.3416 44.3997 12.1998Z" fill="white"/>
<path fill-rule="evenodd" clip-rule="evenodd" d="M44.3238 12.5445C44.4609 12.5239 44.5887 12.5479 44.7072 12.6166C44.5552 12.8554 44.3763 13.0719 44.1705 13.266C44.0239 13.1103 43.8961 12.9419 43.7871 12.7609C43.9497 12.6514 44.1286 12.5792 44.3238 12.5445Z" fill="#1E1D1D"/>
<path fill-rule="evenodd" clip-rule="evenodd" d="M5.19047 13.634C5.29722 13.6226 5.40086 13.6348 5.50137 13.6704C6.05036 13.903 6.59445 14.1331 7.13364 14.3607C7.15354 14.536 7.07582 14.6572 6.90046 14.7241C6.42182 14.5125 5.95545 14.2823 5.50137 14.0337C5.40158 13.984 5.3109 13.9962 5.22933 14.0701C5.05521 14.321 4.95157 14.5874 4.91842 14.8694C5.34569 15.2128 5.64365 15.128 5.81228 14.6151C5.91592 14.5666 6.01956 14.5666 6.12319 14.6151C6.21025 14.9321 6.31386 15.247 6.4341 15.5598C6.39943 15.6853 6.33469 15.7943 6.23978 15.8868C6.15148 15.6148 6.04781 15.3483 5.92887 15.0875C5.73958 15.4308 5.44163 15.5398 5.03501 15.4145C4.84184 15.3064 4.67344 15.1731 4.52979 15.0148C4.6185 14.5089 4.83872 14.0487 5.19047 13.634Z" fill="white"/>
<path fill-rule="evenodd" clip-rule="evenodd" d="M45.4729 13.569C45.7622 13.5191 45.9794 13.6172 46.1246 13.8631C46.3029 14.1926 46.4691 14.5234 46.623 14.8556C46.551 15.0261 46.4233 15.1487 46.2397 15.2231C45.8253 15.4202 45.4164 15.6162 45.0129 15.8113C44.7834 15.8302 44.6812 15.7199 44.7062 15.4805C45.2484 15.2817 45.7595 15.0244 46.2397 14.7085C46.1317 14.3875 45.9273 14.1546 45.6263 14.0101C45.3884 14.0007 45.2351 14.0988 45.1662 14.3042C45.3078 14.5026 45.4729 14.782 45.3963 14.9658C44.9745 15.0026 44.5605 14.8786 44.1695 14.7085C44.0928 14.635 44.0161 14.5247 43.9395 14.3777C43.965 14.3532 43.9906 14.3287 44.0161 14.3042C44.3155 14.4369 44.6222 14.5227 44.9362 14.5615C44.7996 14.3966 44.7612 14.2128 44.8212 14.0101C45.0234 13.8343 45.2406 13.6873 45.4729 13.569Z" fill="white"/>
<path fill-rule="evenodd" clip-rule="evenodd" d="M47.3794 16.8648C47.4811 16.8648 47.57 16.7928 47.6844 16.8648C47.7606 16.9728 47.7606 17.0808 47.7606 17.1528C47.2572 17.2983 46.749 17.4304 46.2359 17.5488C46.1584 17.5862 46.1076 17.6462 46.0834 17.7288C46.1298 17.9323 46.206 18.1243 46.3121 18.3049C46.8458 18.1609 47.3794 18.0168 47.9131 17.8728C48.071 17.9654 48.0964 18.0855 47.9894 18.2329C47.4663 18.3976 46.9326 18.5176 46.3884 18.5929C46.4115 18.8105 46.4878 19.0265 46.5408 19.2409C46.5961 19.2812 46.6215 19.3052 46.6933 19.3129C47.254 19.1923 47.8131 19.0722 48.3705 18.9529C48.3905 19.0593 48.4032 19.1913 48.3324 19.277C47.7613 19.4888 47.1388 19.6208 46.5408 19.745C46.4265 19.709 46.3502 19.637 46.274 19.529C46.0816 18.8499 45.8655 18.1778 45.626 17.5128C45.6918 17.3906 45.7935 17.3067 45.9309 17.2608C46.4343 17.1654 46.9172 17.0333 47.3794 16.8648Z" fill="white"/>
<path fill-rule="evenodd" clip-rule="evenodd" d="M4.06437 15.5955C4.72981 15.8139 5.39521 16.0323 6.06054 16.2507C6.07661 16.4119 6.01263 16.5333 5.8686 16.6147C5.61149 16.4735 5.34278 16.3885 5.06245 16.3599C4.92734 16.6348 4.79938 16.9138 4.67857 17.1972C4.9222 17.327 5.17812 17.4362 5.44633 17.5248C5.48212 17.6194 5.48212 17.7286 5.44633 17.8524C4.77039 17.6994 4.1178 17.481 3.48855 17.1972C3.42071 17.0413 3.45909 16.92 3.60372 16.8331C3.84052 16.9848 4.09644 17.0697 4.37147 17.088C4.50658 16.8131 4.63454 16.5341 4.75535 16.2507C4.51763 16.1108 4.26171 16.0138 3.98759 15.9595C3.99748 15.8346 4.02306 15.7132 4.06437 15.5955Z" fill="white"/>
<path fill-rule="evenodd" clip-rule="evenodd" d="M4.98848 17.9978C5.11083 18.0071 5.21344 18.0557 5.29631 18.1433C5.08987 18.8241 4.88464 19.5032 4.68064 20.1809C4.46293 20.1936 4.33467 20.0966 4.29584 19.8898C3.92201 19.5969 3.53721 19.318 3.14145 19.0529C2.8738 18.856 2.84815 18.6377 3.0645 18.398C3.61037 18.2804 4.16191 18.1956 4.71912 18.1433C4.8485 18.1355 4.93828 18.0869 4.98848 17.9978Z" fill="white"/>
<path fill-rule="evenodd" clip-rule="evenodd" d="M4.37665 18.5073C4.53 18.5073 4.68335 18.5073 4.83669 18.5073C4.74547 18.8768 4.63046 19.2411 4.49166 19.6002C4.0885 19.3054 3.69236 19.0018 3.30322 18.6895C3.66908 18.6179 4.02688 18.5571 4.37665 18.5073Z" fill="#1E1D1D"/>
<path fill-rule="evenodd" clip-rule="evenodd" d="M48.2778 19.8181C48.3532 19.8181 48.4285 19.8181 48.5039 19.8181C48.5519 19.9609 48.5519 20.0945 48.5039 20.2188C47.8165 20.2843 47.1384 20.3936 46.4697 20.5467C46.4697 20.4253 46.4697 20.3039 46.4697 20.1824C47.0881 20.0912 47.6908 19.9697 48.2778 19.8181Z" fill="white"/>
<path fill-rule="evenodd" clip-rule="evenodd" d="M2.50049 19.8982C2.63983 19.8777 2.76972 19.9017 2.89014 19.9702C2.81944 20.3313 2.74151 20.6912 2.65635 21.0498C2.84303 21.1119 3.02486 21.1119 3.20186 21.0498C3.29159 20.7674 3.35653 20.4795 3.39669 20.1861C3.47844 20.0704 3.59534 20.0225 3.74738 20.0421C3.69943 20.4075 3.6215 20.7673 3.51359 21.1217C3.71839 21.2752 3.93919 21.2992 4.176 21.1937C4.21346 20.9036 4.26541 20.6157 4.33186 20.33C4.41361 20.2144 4.5305 20.1664 4.68254 20.1861C4.61855 20.6495 4.51464 21.1054 4.37082 21.5536C3.71561 21.5937 3.06618 21.5338 2.42256 21.3736C2.38359 21.3376 2.34463 21.3017 2.30566 21.2657C2.37463 20.814 2.43957 20.3582 2.50049 19.8982Z" fill="white"/>
<path fill-rule="evenodd" clip-rule="evenodd" d="M47.3903 20.4044C47.5205 20.3928 47.6483 20.4049 47.7736 20.4407C48.0931 20.6464 48.4125 20.8522 48.732 21.0578C48.7832 21.1789 48.7832 21.2998 48.732 21.4208C48.3778 21.1747 48.0072 20.9568 47.6203 20.7674C47.2867 21.1209 46.9928 21.508 46.7386 21.9291C46.6874 21.7354 46.6874 21.5419 46.7386 21.3482C46.9566 21.0316 47.1738 20.717 47.3903 20.4044Z" fill="white"/>
<path fill-rule="evenodd" clip-rule="evenodd" d="M2.52066 21.8631C2.87135 21.8323 3.19378 21.9046 3.48792 22.0802C3.52656 22.4894 3.53946 22.8994 3.52661 23.3101C3.75875 23.3101 3.99089 23.3101 4.22303 23.3101C4.22303 23.4307 4.22303 23.5512 4.22303 23.6718C3.75804 23.6838 3.29375 23.6718 2.83018 23.6357C2.56686 23.6284 2.32182 23.5681 2.09506 23.4548C2.05404 23.0421 2.07984 22.6321 2.17244 22.2249C2.25176 22.0666 2.36783 21.946 2.52066 21.8631Z" fill="white"/>
<path fill-rule="evenodd" clip-rule="evenodd" d="M2.46835 22.2998C2.6996 22.2798 2.9219 22.3038 3.13524 22.3721C3.16323 22.6622 3.15015 22.9515 3.09601 23.2402C2.86064 23.2402 2.62527 23.2402 2.38989 23.2402C2.36877 22.9196 2.39492 22.6061 2.46835 22.2998Z" fill="#1E1D1D"/>
<path fill-rule="evenodd" clip-rule="evenodd" d="M47.4456 21.8184C48.6654 21.6431 49.1673 22.1368 48.9511 23.2993C48.93 23.4347 48.8656 23.5458 48.7581 23.6325C47.3297 24.2343 46.6735 23.8024 46.7894 22.3367C46.9323 22.0659 47.151 21.8932 47.4456 21.8184Z" fill="white"/>
<path fill-rule="evenodd" clip-rule="evenodd" d="M47.5431 22.152C47.8271 22.1399 48.1098 22.1521 48.3915 22.1886C48.7668 22.5347 48.7924 22.9013 48.4686 23.2885C47.4519 23.6891 47.0277 23.3836 47.196 22.372C47.3234 22.306 47.4391 22.2327 47.5431 22.152Z" fill="#1E1D1D"/>
<path fill-rule="evenodd" clip-rule="evenodd" d="M3.91206 24.9956C3.92265 24.7383 3.93673 24.4224 3.91206 24.1135C3.98993 24.1135 4.14566 24.1135 4.22353 24.1135C4.22353 24.481 4.22353 24.8486 4.22353 25.2161C4.12321 25.4941 3.91557 25.6534 3.60058 25.6939C2.35821 25.8315 1.83908 25.3047 2.04321 24.1135C2.17299 24.1135 2.30277 24.1135 2.43255 24.1135C2.19867 25.1301 2.61398 25.5099 3.67845 25.2528C3.8284 25.2218 3.90627 25.136 3.91206 24.9956Z" fill="white"/>
<path fill-rule="evenodd" clip-rule="evenodd" d="M2.61237 26.1519C2.74239 26.1653 2.84462 26.2261 2.91907 26.334C2.77316 26.5092 2.59425 26.6429 2.38235 26.7347C2.28882 26.7065 2.23771 26.6458 2.229 26.5526C2.37089 26.43 2.49868 26.2964 2.61237 26.1519Z" fill="white"/>
<path fill-rule="evenodd" clip-rule="evenodd" d="M46.8538 23.9678C47.518 24.2141 48.1846 24.469 48.8533 24.7322C49.0185 24.8833 49.0442 25.0532 48.9302 25.2419C48.2519 25.476 47.5854 25.7308 46.9308 26.0063C47.4401 26.3693 47.9785 26.6969 48.5457 26.9892C48.7935 27.1341 48.8319 27.3161 48.661 27.5352C47.9535 27.744 47.2358 27.9138 46.5078 28.0449C46.4464 27.9168 46.4593 27.7954 46.5462 27.6808C46.7161 27.6367 46.8828 27.5882 47.0461 27.5352C47.1103 27.2674 47.1744 27.0005 47.2384 26.7344C47.1272 26.6206 46.9991 26.5235 46.8538 26.4431C46.7647 26.1794 46.752 25.9125 46.8154 25.6423C47.4056 25.4075 48.008 25.2012 48.6226 25.0234C48.064 24.7906 47.5001 24.5722 46.9308 24.3682C46.8611 24.2445 46.8355 24.111 46.8538 23.9678Z" fill="white"/>
<path fill-rule="evenodd" clip-rule="evenodd" d="M47.4673 26.8071C47.7858 26.922 48.067 27.092 48.3107 27.3172C48.0138 27.427 47.7071 27.4999 47.3906 27.5357C47.3995 27.2909 47.4251 27.0481 47.4673 26.8071Z" fill="#1E1D1D"/>
<path fill-rule="evenodd" clip-rule="evenodd" d="M2.68903 26.7349C2.81905 26.7483 2.92128 26.8091 2.99573 26.917C2.81682 27.0506 2.63791 27.1842 2.45901 27.3177C2.36548 27.2895 2.31437 27.2289 2.30566 27.1356C2.44755 27.013 2.57534 26.8794 2.68903 26.7349Z" fill="white"/>
<path fill-rule="evenodd" clip-rule="evenodd" d="M2.76562 28.8459C3.52047 29.0451 4.2872 29.2029 5.06583 29.3192C5.12409 29.4241 5.1752 29.5333 5.21918 29.6468C5.01994 29.6855 4.81548 29.6976 4.60579 29.6832C4.18409 30.0351 3.76238 30.387 3.34068 30.7389C3.22597 30.5969 3.21319 30.4513 3.30234 30.3021C3.59768 30.0337 3.90437 29.7789 4.22242 29.5376C3.7705 29.4105 3.31046 29.3256 2.8423 29.2828C2.81674 29.1372 2.79118 28.9916 2.76562 28.8459Z" fill="white"/>
<path fill-rule="evenodd" clip-rule="evenodd" d="M46.0037 29.428C46.6687 29.6003 47.326 29.7945 47.9754 30.0104C48.0465 30.2149 47.9821 30.3726 47.7821 30.4837C47.2023 30.5516 46.6353 30.6608 46.081 30.8113C46.5358 30.9791 46.9998 31.1247 47.4728 31.2481C47.5446 31.3347 47.5704 31.4317 47.5501 31.5393C46.8459 31.4113 46.1628 31.2172 45.5011 30.9569C45.43 30.7525 45.4944 30.5947 45.6944 30.4837C46.2647 30.4023 46.8317 30.3052 47.3955 30.1924C46.9241 30.0026 46.4344 29.8691 45.9264 29.792C45.916 29.6615 45.9418 29.5402 46.0037 29.428Z" fill="white"/>
<path fill-rule="evenodd" clip-rule="evenodd" d="M4.66267 30.3999C5.21544 30.3006 5.59083 30.4953 5.78883 30.984C6.10648 31.4497 6.04176 31.8513 5.59466 32.1888C5.18341 32.4133 4.7433 32.5107 4.27434 32.4809C3.79566 32.0794 3.57561 31.5804 3.61418 30.984C3.90124 30.675 4.25074 30.4804 4.66267 30.3999Z" fill="white"/>
<path fill-rule="evenodd" clip-rule="evenodd" d="M4.69784 30.8115C5.31117 30.8146 5.5839 31.1044 5.51601 31.6808C5.18695 32.0683 4.75838 32.2011 4.23031 32.0793C3.69031 31.4183 3.84615 30.9957 4.69784 30.8115Z" fill="#1E1D1D"/>
<path fill-rule="evenodd" clip-rule="evenodd" d="M46.1636 31.4675C46.2469 31.4762 46.298 31.5245 46.317 31.6124C46.2428 31.7762 46.1917 31.9452 46.1636 32.1194C46.083 32.1302 46.0063 32.1182 45.9336 32.0832C46.0331 31.8857 46.1098 31.6805 46.1636 31.4675Z" fill="white"/>
<path fill-rule="evenodd" clip-rule="evenodd" d="M46.5325 31.5398C46.7674 31.5326 46.9899 31.5804 47.1999 31.6832C47.3378 32.3344 47.0906 32.5018 46.4584 32.1852C46.3519 31.9508 46.3766 31.7357 46.5325 31.5398Z" fill="white"/>
<path fill-rule="evenodd" clip-rule="evenodd" d="M46.547 31.8306C46.7003 31.8542 46.8536 31.8779 47.0069 31.9015C47.0069 31.996 47.0069 32.0906 47.0069 32.1851C46.6957 32.2314 46.5424 32.1131 46.547 31.8306Z" fill="#1E1D1D"/>
<path fill-rule="evenodd" clip-rule="evenodd" d="M6.13811 32.1223C6.28694 32.1602 6.3637 32.2586 6.36839 32.4175C6.29884 32.5833 6.19652 32.7309 6.06135 32.8602C6.18577 33.1365 6.33929 33.3948 6.52191 33.6351C6.72662 33.6596 6.93127 33.6843 7.13598 33.7089C7.18718 33.7826 7.23831 33.8564 7.2895 33.9302C6.50095 34.0929 5.70775 34.1298 4.90995 34.0409C4.72279 33.8818 4.70999 33.7097 4.87157 33.5244C5.33118 33.08 5.75336 32.6126 6.13811 32.1223Z" fill="white"/>
<path fill-rule="evenodd" clip-rule="evenodd" d="M5.75645 32.9968C5.83281 32.9907 5.89671 33.0142 5.94814 33.067C6.07016 33.2374 6.13407 33.4245 6.13982 33.6286C5.80162 33.6592 5.46936 33.6592 5.14307 33.6286C5.34924 33.4166 5.5537 33.206 5.75645 32.9968Z" fill="#1E1D1D"/>
<path fill-rule="evenodd" clip-rule="evenodd" d="M44.8328 32.1223C44.9564 32.1316 45.06 32.1797 45.1437 32.2666C45.0168 32.5163 44.8743 32.7569 44.7161 32.9882C44.6972 33.312 44.8656 33.4202 45.2215 33.313C45.3556 33.0267 45.4936 32.8078 45.7268 32.5553C45.8216 32.5832 45.9708 32.6563 45.9211 32.7357C45.7809 32.96 45.6513 33.1885 45.5324 33.4212C45.5824 33.672 45.7379 33.7561 45.9989 33.6738C46.174 33.4452 46.3294 33.2046 46.4653 32.9522C46.5879 32.9242 46.6915 32.9602 46.7763 33.0604C46.5788 33.391 46.3715 33.7158 46.1544 34.0346C45.6896 34.1737 45.3656 34.0414 45.1826 33.6377C44.5671 33.7876 44.282 33.5712 44.3274 32.9882C44.5176 32.7072 44.686 32.4186 44.8328 32.1223Z" fill="white"/>
<path fill-rule="evenodd" clip-rule="evenodd" d="M43.7901 33.8013C43.972 33.7894 44.152 33.8015 44.3302 33.8376C44.7095 34.0342 45.0824 34.2401 45.449 34.4551C45.5493 34.5905 45.5751 34.7358 45.5261 34.8909C45.3578 35.2086 45.1521 35.4992 44.9089 35.7626C44.7931 35.7505 44.7289 35.69 44.716 35.581C44.8874 35.3351 45.0417 35.0809 45.1789 34.8183C45.1396 34.7029 45.0624 34.6181 44.9475 34.564C44.8742 34.5192 44.81 34.5313 44.7546 34.6003C44.4222 35.4354 43.9335 35.5323 43.2886 34.8909C43.2371 34.7456 43.2371 34.6003 43.2886 34.4551C43.4565 34.235 43.6237 34.0171 43.7901 33.8013Z" fill="white"/>
<path fill-rule="evenodd" clip-rule="evenodd" d="M43.9055 34.1908C44.3913 34.05 44.7463 34.4157 44.2045 34.8593C43.8309 34.9528 43.6691 34.8238 43.7187 34.4722C43.756 34.3667 43.7934 34.2963 43.9055 34.1908Z" fill="#1E1D1D"/>
<path fill-rule="evenodd" clip-rule="evenodd" d="M7.20894 34.0876C7.42745 34.0873 7.51794 34.1843 7.48033 34.3789C7.03354 34.6311 6.60706 34.9101 6.20089 35.2161C6.75625 35.136 7.31191 35.0268 7.86804 34.8885C8.21636 34.9472 8.2939 35.117 8.10067 35.3981C7.80345 35.7743 7.50615 36.1504 7.20894 36.5266C7.31812 36.5496 7.42148 36.5253 7.5191 36.4538C7.88363 36.1319 8.29716 35.9135 8.75977 35.7986C8.86523 35.9397 8.83941 36.061 8.68223 36.1626C8.17984 36.4527 7.67582 36.7318 7.17017 36.9999C6.88908 36.9337 6.78564 36.7639 6.86 36.4902C7.17226 36.1121 7.46948 35.7238 7.75173 35.3253C7.67419 35.3011 7.59665 35.2768 7.5191 35.2525C7.02803 35.3496 6.53688 35.4467 6.04581 35.5438C5.61641 35.4149 5.56472 35.2086 5.89073 34.9249C6.34388 34.6558 6.78331 34.3767 7.20894 34.0876Z" fill="white"/>
<path fill-rule="evenodd" clip-rule="evenodd" d="M44.1699 35.9094C44.2463 35.9032 44.3102 35.9275 44.3616 35.9822C44.4644 36.1656 44.5283 36.3597 44.5533 36.5642C44.255 36.5486 44.1016 36.391 44.0933 36.0913C44.1119 36.0257 44.1375 35.9651 44.1699 35.9094Z" fill="white"/>
<path fill-rule="evenodd" clip-rule="evenodd" d="M43.7866 36.3454C43.863 36.3392 43.9269 36.3633 43.9783 36.4175C44.0812 36.5992 44.145 36.7914 44.17 36.994C44.0567 37.0129 43.9545 36.9889 43.8633 36.9219C43.7866 36.7778 43.71 36.6337 43.6333 36.4896C43.6903 36.4404 43.7413 36.3923 43.7866 36.3454Z" fill="white"/>
<path fill-rule="evenodd" clip-rule="evenodd" d="M24.8343 9.00829C25.7174 8.97426 26.5921 9.04909 27.4595 9.15777C28.0149 9.59386 28.0664 10.0435 27.6139 10.5778C27.4721 10.6837 27.3177 10.8085 27.1506 10.8768C20.9595 10.9386 16.1228 13.3611 12.5575 18.2012C11.1009 20.4099 10.2776 22.8323 10.0867 25.4509C10.0481 27.9391 9.99664 30.4364 10.0095 32.9248C9.34021 32.9248 8.67135 32.9248 8.00202 32.9248C7.98913 30.3119 8.04062 27.6898 8.07923 25.0772C8.67527 19.2551 11.4796 14.8098 16.5726 11.6989C19.1493 10.2673 21.9021 9.34339 24.8343 9.00829Z" fill="white"/>
<path fill-rule="evenodd" clip-rule="evenodd" d="M16.493 24.844C16.3619 25.4009 16.3104 25.9755 16.3385 26.5678C16.0876 27.1235 15.6499 27.3358 15.0256 27.2048C14.588 27.0549 14.3563 26.7551 14.3306 26.3055C14.481 22.966 15.8197 20.1681 18.3464 17.9116C20.9417 15.7563 23.9536 14.7321 27.3821 14.8389C28.1449 15.3244 28.1964 15.874 27.5366 16.4877C24.1625 16.5081 21.2921 17.6698 18.9256 19.9726C18.1244 20.8753 17.4809 21.8746 16.9949 22.9704C16.7401 23.5745 16.5728 24.1991 16.493 24.844Z" fill="white"/>
<path fill-rule="evenodd" clip-rule="evenodd" d="M13.413 24.4782C13.2884 25.0842 13.2369 25.7069 13.2586 26.3462C13.046 27.0098 12.5827 27.2713 11.8685 27.1307C11.6785 27.0218 11.5112 26.8848 11.3666 26.7198C11.1492 24.2226 11.6898 21.8814 12.9883 19.6963C16.0207 14.8461 20.4868 12.2559 26.3867 11.9256C26.8292 11.8841 27.241 11.9713 27.6223 12.1871C28.1197 12.8521 27.9909 13.3752 27.2362 13.7562C21.8227 13.8026 17.6912 16.0317 14.8417 20.4434C14.1223 21.7102 13.6461 23.0552 13.413 24.4782Z" fill="white"/>
<path fill-rule="evenodd" clip-rule="evenodd" d="M25.8381 20.4434C26.3271 20.431 26.8155 20.4434 27.3032 20.4808C27.8907 20.7611 28.0577 21.1974 27.8044 21.7899C27.6887 21.9021 27.5731 22.0143 27.4574 22.1265C25.7489 22.0938 24.348 22.7047 23.2549 23.9592C22.7028 24.6935 22.4458 25.5163 22.4838 26.4278C22.0958 27.2097 21.5175 27.3718 20.7489 26.914C20.5547 26.6506 20.4776 26.3514 20.5175 26.0163C20.795 23.4776 22.1573 21.7322 24.6044 20.78C25.031 20.6873 25.4422 20.5751 25.8381 20.4434Z" fill="white"/>
<path fill-rule="evenodd" clip-rule="evenodd" d="M19.535 25.0798C19.4005 25.5343 19.3492 26.0082 19.3811 26.5016C19.3238 26.8942 19.093 27.1312 18.6888 27.2125C18.0492 27.3319 17.6261 27.095 17.4194 26.5016C17.5861 22.7727 19.3939 20.0911 22.843 18.4572C24.2631 17.8217 25.7504 17.5722 27.3049 17.7089C27.891 17.9893 28.0576 18.4258 27.8049 19.0184C27.6608 19.1837 27.4941 19.3209 27.3049 19.43C23.8661 19.4237 21.3915 20.9079 19.8812 23.8825C19.726 24.2726 19.6106 24.6717 19.535 25.0798Z" fill="white"/>
<path fill-rule="evenodd" clip-rule="evenodd" d="M26.2336 24.4608C27.5605 24.2238 28.4739 24.6985 28.974 25.8849C29.1212 27.027 28.6453 27.8015 27.5459 28.2083C27.4688 29.0563 27.4431 29.9057 27.4687 30.7566C27.1085 30.7566 26.7483 30.7566 26.388 30.7566C26.388 29.9072 26.388 29.0577 26.388 28.2083C25.1608 27.8503 24.6591 27.0509 24.8828 25.8099C25.1396 25.1734 25.5899 24.7236 26.2336 24.4608Z" fill="white"/>
<path fill-rule="evenodd" clip-rule="evenodd" d="M14.4092 27.7664C15.0525 27.7664 15.6959 27.7664 16.3393 27.7664C16.3393 29.5108 16.3393 31.2554 16.3393 32.9999C15.6959 32.9999 15.0525 32.9999 14.4092 32.9999C14.4092 31.2554 14.4092 29.5108 14.4092 27.7664Z" fill="white"/>
<path fill-rule="evenodd" clip-rule="evenodd" d="M17.4951 28.8875C18.1385 28.8875 18.7819 28.8875 19.4252 28.8875C19.4252 30.2581 19.4252 31.6289 19.4252 32.9995C18.7819 32.9995 18.1385 32.9995 17.4951 32.9995C17.4951 31.6289 17.4951 30.2581 17.4951 28.8875Z" fill="white"/>
<path fill-rule="evenodd" clip-rule="evenodd" d="M13.3271 30.3076C13.3271 31.2048 13.3271 32.102 13.3271 32.9992C12.658 32.9992 11.9889 32.9992 11.3198 32.9992C11.3198 32.102 11.3198 31.2048 11.3198 30.3076C11.9889 30.3076 12.658 30.3076 13.3271 30.3076Z" fill="white"/>
<path fill-rule="evenodd" clip-rule="evenodd" d="M20.584 32.0276C21.2531 32.0276 21.9222 32.0276 22.5913 32.0276C22.5913 32.3515 22.5913 32.6756 22.5913 32.9995C21.9222 32.9995 21.2531 32.9995 20.584 32.9995C20.584 32.6756 20.584 32.3515 20.584 32.0276Z" fill="white"/>
<path fill-rule="evenodd" clip-rule="evenodd" d="M37.9088 17.1566C37.8846 17.1088 37.858 17.0596 37.8291 17.0093C38.377 15.9502 38.8684 14.8944 39.3032 13.8419C39.4359 13.9038 39.4493 13.867 39.343 13.7314C39.4893 13.4361 39.6752 13.1661 39.9008 12.9212C39.8104 12.8463 39.837 12.7972 39.9805 12.7738C39.8312 12.7036 39.8047 12.6177 39.9008 12.516C40.0748 12.3625 40.2873 12.2888 40.5383 12.295C40.4613 12.932 40.4481 13.5704 40.4984 14.2102C40.629 14.5499 40.8017 14.8692 41.0163 15.1678C40.4661 15.1681 39.9084 15.1804 39.343 15.2046C39.2285 15.2208 39.1222 15.2576 39.0243 15.3151C39.3614 15.9725 39.5738 16.6599 39.6618 17.3776C39.058 17.4091 38.4737 17.3354 37.9088 17.1566Z" fill="white"/>
<path fill-rule="evenodd" clip-rule="evenodd" d="M39.9005 12.5166C39.8046 12.6184 39.8311 12.7045 39.9801 12.7748C39.8368 12.7982 39.8103 12.8474 39.9005 12.9223C39.6753 13.1676 39.4896 13.438 39.3436 13.7338C39.4496 13.8695 39.4364 13.9064 39.3038 13.8444C38.8696 14.8985 38.379 15.9558 37.8319 17.0165C37.8608 17.0668 37.8873 17.116 37.9115 17.164C37.5707 17.0552 37.2922 16.8708 36.9965 16.6845C36.984 16.5832 36.9575 16.5217 36.9965 16.4263C37.1296 16.3524 37.2223 16.2664 37.275 16.1681C37.2386 16.1376 37.2121 16.1007 37.1954 16.0575C37.4162 15.5971 37.6549 15.1422 37.9115 14.6928C37.8213 14.6178 37.8478 14.5686 37.991 14.5452C37.8883 14.391 37.9414 14.2926 38.1502 14.2501C38.1138 14.2196 38.0872 14.1827 38.0706 14.1395C38.2927 13.7791 38.4784 13.4348 38.6275 13.1067C39.0386 12.897 39.4629 12.7003 39.9005 12.5166Z" fill="white"/>
<path fill-rule="evenodd" clip-rule="evenodd" d="M38.7051 13.1065C38.5544 13.4346 38.3669 13.7788 38.1425 14.1393C38.1593 14.1825 38.1862 14.2194 38.2229 14.2499C38.012 14.2924 37.9584 14.3908 38.0622 14.545C37.9175 14.5684 37.8907 14.6176 37.9818 14.6925C37.7227 15.142 37.4816 15.5969 37.2586 16.0572C37.2754 16.1005 37.3022 16.1374 37.3389 16.1679C37.2857 16.2662 37.192 16.3522 37.0577 16.4261C37.0183 16.5215 37.0049 16.6199 37.0175 16.7212C35.2913 15.5449 34.2868 13.9712 34.0039 12C35.0628 12.7381 36.2548 13.1807 37.58 13.3278C37.9708 13.3102 38.3459 13.2364 38.7051 13.1065Z" fill="white"/>
<path fill-rule="evenodd" clip-rule="evenodd" d="M41.4944 15.6191C43.5281 16.0511 44.6702 17.2301 44.9207 19.1563C44.9207 19.3774 44.9207 19.5984 44.9207 19.8195C44.861 19.7435 44.8079 19.6575 44.7613 19.5616C44.8136 19.3899 44.6941 19.2664 44.4824 19.1925C44.509 19.168 44.5754 19.144 44.602 19.1195C44.3526 18.9626 44.1268 18.814 43.9247 18.6024C43.5898 18.2496 43.2711 17.88 42.9685 17.4958C42.942 17.5204 42.9153 17.5451 42.8888 17.5696C42.797 17.4112 42.6377 17.2389 42.4904 17.127C42.5169 17.1025 42.5436 17.0778 42.5701 17.0532C41.9864 16.6117 41.4817 16.1436 41.0562 15.6516C41.1864 15.6152 41.359 15.6073 41.4944 15.6191Z" fill="white"/>
<path fill-rule="evenodd" clip-rule="evenodd" d="M40.8566 15.5854C40.6952 15.5734 40.5358 15.5858 40.3786 15.6225C40.5439 15.8252 40.7563 15.9735 41.016 16.0672C40.9628 16.0919 40.9098 16.1167 40.8566 16.1413C41.3436 16.6019 41.8747 17.0713 42.45 17.5496C42.3742 17.6028 42.361 17.6646 42.4102 17.7349C42.6073 17.8142 42.8064 17.9502 43.0077 18.1426C42.9112 18.2088 42.9112 18.2705 43.0077 18.3279C43.0544 18.3124 43.0942 18.2876 43.1272 18.2538C43.167 18.3896 43.26 18.4761 43.406 18.5132C43.3529 18.5379 43.2998 18.5626 43.2467 18.5873C43.3726 18.6397 43.4921 18.7015 43.6052 18.7726C43.7626 19.0918 44.0016 19.3389 44.3222 19.5138C44.4521 19.7822 44.6381 20.0046 44.8799 20.1809C44.9189 20.0851 44.9322 19.9862 44.9197 19.8844C44.9197 19.6621 44.9197 19.4397 44.9197 19.2173C45.0116 19.6734 45.0249 20.1428 44.9595 20.6256C44.8674 20.943 44.801 21.2642 44.7604 21.5892C44.7112 21.5974 44.6714 21.6221 44.6409 21.6633C44.6409 21.5645 44.6409 21.4656 44.6409 21.3668C44.6143 21.3915 44.4831 21.5906 44.5222 21.5158C44.2885 21.1377 44.0222 20.7416 43.645 20.4774C43.735 20.327 43.6951 20.3022 43.5255 20.4033C43.499 20.3045 43.4724 20.2056 43.4458 20.1068C43.4193 20.1562 43.3927 20.2056 43.3662 20.255C43.2781 20.0003 43.0263 19.8612 42.7692 19.7453C42.9629 19.6648 42.9761 19.6282 42.7293 19.6347C42.7363 19.4051 42.7363 19.4077 42.6497 19.5879C42.6098 19.5014 42.4637 19.4136 42.3708 19.3765C42.4239 19.3518 42.5168 19.2905 42.57 19.2658C42.1865 19.0704 41.9076 18.8272 41.7333 18.4544C41.4053 18.2483 41.0997 17.9982 40.817 17.7349C40.8701 17.7102 40.8834 17.6676 40.9365 17.643C40.6441 17.5136 40.5245 17.3066 40.4186 17.0159C40.2594 16.8906 40.2147 16.8214 40.1397 17.0159C40.0303 16.5137 39.8709 15.9974 39.6616 15.5113C40.075 15.4332 40.4734 15.4579 40.8566 15.5854Z" fill="white"/>
<path fill-rule="evenodd" clip-rule="evenodd" d="M44.7613 21.5887C44.5899 22.1267 44.3641 22.6433 44.084 23.1384C43.6313 22.1152 42.954 21.242 42.0522 20.5187C41.7896 20.3391 41.4974 20.2161 41.1757 20.1497C40.408 20.0557 39.6378 19.9819 38.8649 19.9284C38.8005 19.9056 38.7474 19.8687 38.7056 19.8177C39.3529 19.2333 39.8178 18.5445 40.1 17.7514C40.1397 17.5066 40.153 17.2607 40.1398 17.0134C40.2148 16.8197 40.3077 16.8197 40.4187 17.0134C40.5247 17.3029 40.7239 17.5119 41.0163 17.6407C40.9632 17.6653 40.9101 17.6899 40.857 17.7145C41.1397 17.9766 41.4452 18.2103 41.7733 18.4156C41.9475 18.7867 42.2264 19.0696 42.6099 19.2642C42.5568 19.2888 42.5037 19.3134 42.4506 19.338C42.5436 19.3749 42.6099 19.4364 42.6498 19.5225C42.7364 19.343 42.7762 19.3677 42.7693 19.5963C43.0161 19.5899 43.0428 19.6268 42.849 19.707C43.1062 19.8223 43.3187 19.8961 43.4067 20.1497C43.4333 20.1005 43.4997 20.0156 43.5263 19.9664C43.5528 20.0648 43.5794 20.1631 43.6059 20.2615C43.7756 20.1609 43.8951 20.2962 43.8051 20.4459C44.1824 20.709 44.3284 21.0647 44.5621 21.4412C44.5886 21.4166 44.6153 21.3919 44.6418 21.3674C44.6418 21.4657 44.6418 21.5642 44.6418 21.6625C44.6723 21.6215 44.7122 21.5969 44.7613 21.5887Z" fill="white"/>
<path fill-rule="evenodd" clip-rule="evenodd" d="M35.9167 18.7498C35.7289 18.7378 35.543 18.7141 35.3589 18.7507C35.5082 18.8308 35.641 18.929 35.7573 19.0457C35.8132 19.2975 35.9859 19.5064 36.2753 19.6725C36.3394 19.4955 36.4058 19.5078 36.4745 19.7094C36.3934 19.7867 36.3801 19.8728 36.4346 19.9675C36.7235 20.3498 37.0024 20.6816 37.2713 20.963C37.2448 20.9875 37.2181 21.0122 37.1916 21.0367C37.2713 21.0613 37.351 21.0859 37.4306 21.1104C37.3633 21.2253 37.4164 21.2991 37.59 21.3317C37.5279 21.4108 37.5412 21.4968 37.6299 21.5898C38.1148 22.2164 38.6194 22.8309 39.1438 23.4333C39.2499 23.5998 39.3164 23.7473 39.343 23.8757C39.1604 24.006 38.9479 24.0798 38.7055 24.0969C38.5558 24.1048 38.5293 24.068 38.6259 23.9863C38.5349 23.8671 38.4686 23.7319 38.4267 23.5808C38.3735 23.8757 38.3204 23.8757 38.2673 23.5808C38.0393 23.6108 38.026 23.5494 38.2275 23.3964C38.028 23.2649 38.028 23.1419 38.2275 23.0277C38.12 22.9708 38.0536 22.8847 38.0283 22.7696C38.0017 22.8434 37.9751 22.9171 37.9486 22.9908C37.9039 22.8268 37.8242 22.6793 37.7095 22.5484C37.683 22.5729 37.6564 22.5976 37.6299 22.6221C37.3656 22.2551 37.0734 21.9109 36.7534 21.5898C36.6256 21.2862 36.4662 21.0404 36.2753 20.8524C36.2452 20.9587 36.1789 21.0324 36.0761 21.0736C35.8175 20.2386 35.4191 19.4643 34.8809 18.7507C35.0505 18.6694 35.2365 18.6325 35.4386 18.6401C35.6136 18.6405 35.773 18.701 35.9167 18.7498Z" fill="white"/>
<path fill-rule="evenodd" clip-rule="evenodd" d="M35.9167 18.7172C36.3547 18.7505 36.7797 18.7996 37.1915 18.8646C37.0821 18.853 37.0954 18.861 36.9923 18.8971C37.1384 18.934 37.1119 18.9833 37.1517 19.1184C37.1782 19.0939 37.2447 19.0692 37.2712 19.0447C37.3982 19.3584 37.6505 19.6171 37.9485 19.893C37.9977 19.9629 38.0641 20.0614 37.9884 20.1143C38.2167 20.2026 38.2035 20.3258 38.2672 20.5569C38.2938 20.5324 38.3204 20.5843 38.3469 20.5598C38.5048 20.9077 38.7305 21.2148 39.0242 21.4811C38.9977 21.5056 38.9711 21.5302 38.9445 21.5548C39.4439 22.162 39.922 22.7393 40.3788 23.2868C40.0761 23.5412 39.7308 23.7377 39.3429 23.8765C39.3163 23.7481 39.2499 23.6007 39.1437 23.4342C38.6194 22.8321 38.1147 22.218 37.6298 21.5916C37.5411 21.4988 37.4083 21.4843 37.4704 21.4052C37.2968 21.3727 37.2039 21.2988 37.2712 21.1839C37.1915 21.1594 37.1119 21.1371 37.0322 21.1125C37.0587 21.088 37.165 20.9872 37.1915 20.9626C36.9226 20.6814 36.7234 20.3523 36.4346 19.9701C36.3801 19.8755 36.3934 19.7895 36.4744 19.7122C36.4057 19.5107 36.3394 19.4983 36.2752 19.6753C35.9858 19.5093 35.8131 19.3005 35.7573 19.0488C35.641 18.9322 35.5182 18.8602 35.3589 18.7496C35.5429 18.713 35.7573 18.6758 35.9167 18.7172Z" fill="white"/>
<path fill-rule="evenodd" clip-rule="evenodd" d="M40.498 20.3725C40.1517 20.3602 39.7666 20.3357 39.4223 20.3725C39.8962 21.0325 40.4008 21.6718 40.9363 22.2905C40.9098 22.315 40.8831 22.3397 40.8566 22.3642C41.0956 22.106 41.1501 22.538 41.2152 22.6593C40.9992 22.9331 40.6141 23.1544 40.2988 23.3232C39.842 22.7753 39.3639 22.2343 38.8646 21.6265C38.8911 21.602 38.9974 21.5036 39.0239 21.479C38.7052 21.8478 38.5045 20.9052 38.3467 20.5569C38.3201 20.5815 38.2935 20.6061 38.267 20.6307C38.2032 20.3994 38.0571 20.2396 37.8287 20.1512C37.9045 20.0982 37.9177 20.0368 37.8686 19.9668C37.5706 19.6906 37.3581 19.3956 37.2311 19.0815C37.2046 19.1061 37.178 19.1307 37.1514 19.1553C37.1116 19.0201 37.0186 18.934 36.8726 18.8971C36.9756 18.861 37.0819 18.8487 37.1913 18.8602C38.0754 18.944 38.8324 18.6981 39.4622 18.1226C39.2315 18.6669 38.8597 19.1341 38.3467 19.5242C38.2236 19.9021 38.3698 20.1356 38.7849 20.2249C39.3569 20.2376 39.9545 20.3113 40.498 20.3725Z" fill="white"/>
<path fill-rule="evenodd" clip-rule="evenodd" d="M40.4441 20.3744C41.1794 20.3705 41.7637 20.6404 42.1971 21.1842C41.97 21.7523 41.5451 22.3906 41.0816 22.8042C41.0166 22.6831 40.9103 22.5599 40.7629 22.5091C40.7894 22.4846 40.8563 22.4751 40.9222 22.3253C40.0994 22.1432 39.8025 21.0331 39.3286 20.3744C39.6729 20.3376 40.0979 20.3622 40.4441 20.3744Z" fill="white"/>
<path fill-rule="evenodd" clip-rule="evenodd" d="M32.6497 20.639C32.8429 20.6164 33.0288 20.6409 33.2075 20.7126C33.2589 20.8032 33.2721 20.9012 33.2473 21.0068C33.3324 21.0576 33.4253 21.0944 33.5262 21.1171C33.3367 21.1888 33.3634 21.2378 33.6059 21.2642C33.5528 21.2887 33.4997 21.3133 33.4465 21.3378C33.6194 21.4544 33.8054 21.5526 34.0043 21.632C33.9512 21.6565 33.8981 21.6811 33.8449 21.7056C33.9645 21.7668 34.0575 21.8527 34.1238 21.963C34.1681 21.8089 34.208 21.7966 34.2433 21.9262C34.2111 21.9957 34.1579 22.0448 34.084 22.0733C34.2559 22.214 34.4418 22.3366 34.6418 22.4411C34.5621 22.4656 34.4824 22.4902 34.4027 22.5147C34.6394 22.5995 34.8519 22.7221 35.0402 22.8824C34.9735 22.9568 34.9469 23.0426 34.9605 23.1399C34.8602 23.3992 34.6211 23.7315 34.4027 23.9135C34.3678 23.9183 34.3412 23.8691 34.323 23.8398C34.4431 23.7782 34.4431 23.6916 34.4027 23.5816C34.1959 23.3958 34.0896 23.2472 34.0043 23.0652C33.6815 22.7152 33.2433 22.3196 32.7693 21.8849C32.7958 21.8604 32.8622 21.7619 32.8888 21.7374C32.7919 21.6094 32.6193 21.5721 32.4505 21.553C32.5037 21.5285 32.5169 21.4668 32.57 21.4423C32.4359 21.2942 32.3164 21.2142 32.1318 21.1171C32.1583 21.0926 32.1451 21.0611 32.1716 21.0366C32.0034 20.9744 31.8839 20.9495 31.7334 20.889C31.9832 20.777 32.3683 20.625 32.6497 20.639Z" fill="white"/>
<path fill-rule="evenodd" clip-rule="evenodd" d="M32.6094 20.6676C32.9439 20.583 33.3334 20.5342 33.6982 20.5943C34.3249 20.672 34.9436 20.7826 35.554 20.9262C35.6913 21.7421 35.434 22.5165 34.9201 23.1757C34.9064 23.0782 34.8526 23.0289 34.9201 22.9544C34.7295 22.7936 34.5622 22.5968 34.3225 22.5118C34.4032 22.4872 34.5207 22.4626 34.6014 22.438C34.399 22.3332 34.2177 22.2471 34.0436 22.106C34.1185 22.0774 34.1703 21.9913 34.203 21.9216C34.1672 21.7917 34.1682 21.8409 34.1233 21.9954C34.0561 21.8848 33.8858 21.7249 33.7647 21.6634C33.8186 21.6389 33.9101 21.688 33.964 21.6634C33.7626 21.5838 33.5813 21.4484 33.4062 21.3315C33.46 21.3069 33.5117 21.2823 33.5655 21.2577C33.3199 21.2312 33.294 21.182 33.4859 21.1102C33.3837 21.0874 33.3329 21.0874 33.2468 21.0364C33.2719 20.9306 33.2192 20.8322 33.1671 20.7413C32.9862 20.6695 32.805 20.6448 32.6094 20.6676Z" fill="white"/>
<path fill-rule="evenodd" clip-rule="evenodd" d="M31.8109 20.8518C31.9607 20.9124 32.1193 20.9739 32.2868 21.0362C32.2604 21.0608 32.2339 21.0854 32.2075 21.11C32.3912 21.2074 32.5499 21.3303 32.6834 21.4788C32.6305 21.5034 32.5776 21.528 32.5247 21.5526C32.6927 21.5718 32.8249 21.6456 32.9213 21.7739C32.8949 21.7985 32.8684 21.8231 32.842 21.8477C33.3138 22.2836 33.7104 22.677 34.0317 23.028C34.1166 23.2105 34.2621 23.3949 34.468 23.5812C34.5082 23.6916 34.4685 23.7777 34.349 23.8394C34.3671 23.8688 34.3936 23.8811 34.4283 23.8763C34.3941 23.9656 34.3412 24.0393 34.2697 24.0976C34.0839 24.0773 33.9787 24.0527 34.1645 23.9501C33.6815 23.4826 33.3189 22.9785 32.9294 22.4378C32.903 22.4624 32.8761 22.487 32.8497 22.5116C32.7662 22.3461 32.6589 22.174 32.531 21.9952C32.4464 21.9442 32.3127 21.8705 32.2123 21.8477C32.4009 21.7758 32.4139 21.7266 32.1724 21.7001C32.1988 21.6756 32.1859 21.6509 32.2123 21.6264C31.9941 21.4265 31.8195 21.2543 31.6147 21.0362C31.4254 21.146 31.332 21.0845 31.4155 20.9256C31.5212 20.901 31.7051 20.8764 31.8109 20.8518Z" fill="white"/>
<path fill-rule="evenodd" clip-rule="evenodd" d="M38.7056 24.0967C38.1856 24.255 37.641 24.3287 37.0722 24.3179C36.3115 24.2514 35.5545 24.2391 34.8013 24.281C35.3525 23.5434 35.7641 22.7445 36.0363 21.8843C36.0761 21.615 36.0893 21.234 36.0762 20.9625C36.179 20.9214 36.2453 20.8844 36.2754 20.7781C36.4663 20.9661 36.7053 21.2859 36.8331 21.5895C37.1519 21.9215 37.3657 22.2546 37.6299 22.6217C37.6565 22.5972 37.6831 22.5726 37.7096 22.548C37.8243 22.6789 37.904 22.8264 37.9487 22.9905C37.9752 22.9167 38.0018 22.7329 38.0283 22.6591C38.0537 22.7743 38.2396 22.9711 38.3471 23.028C38.1476 23.1422 38.0281 23.2645 38.2275 23.3961C38.0261 23.5491 38.0394 23.6105 38.2674 23.5804C38.3205 23.8754 38.3736 23.8754 38.4268 23.5804C38.4687 23.7316 38.535 23.8668 38.626 23.986C38.5294 24.0677 38.5559 24.1046 38.7056 24.0967Z" fill="white"/>
<path fill-rule="evenodd" clip-rule="evenodd" d="M31.455 20.926C31.3712 21.085 31.4242 21.1096 31.6143 20.9998C31.82 21.2179 32.0324 21.4269 32.2515 21.6268C32.225 21.6514 32.1984 21.676 32.1719 21.7006C32.4143 21.7271 32.4409 21.7763 32.2515 21.8481C32.3523 21.8709 32.4453 21.9078 32.5303 21.9588C32.6588 22.1376 32.765 22.3097 32.8489 22.4752C32.8754 22.4506 32.902 22.426 32.9286 22.4014C33.3197 22.9421 33.7578 23.4462 34.2428 23.9136C34.0563 24.0163 34.0563 24.0778 34.2428 24.098C34.1356 24.2483 34.0293 24.3959 33.9242 24.5407C33.89 24.4335 33.8767 24.3106 33.8844 24.1718C33.7782 24.0243 33.6719 23.8767 33.5658 23.7292C33.4808 23.6782 33.3878 23.6414 33.287 23.6186C33.3401 23.594 33.3932 23.5694 33.4463 23.5448C33.3122 23.3962 33.1529 23.2733 32.9684 23.1759C32.9399 22.9888 32.8072 22.8413 32.5701 22.7333C32.5966 22.7088 32.6232 22.6841 32.6498 22.6596C32.517 22.5858 32.3843 22.512 32.2515 22.4383C32.3046 22.4137 32.3577 22.3891 32.4108 22.3645C32.0901 22.0674 31.798 21.7969 31.5346 21.5531C31.5612 21.5285 31.5878 21.5039 31.6143 21.4793C31.4417 21.4178 31.3222 21.3072 31.2559 21.1473C31.1677 21.2367 31.1279 21.2122 31.1364 21.0736C31.2171 20.987 31.3233 20.9378 31.455 20.926Z" fill="white"/>
<path fill-rule="evenodd" clip-rule="evenodd" d="M31.2956 21.0361C31.287 21.1747 31.2472 21.2362 31.3354 21.1468C31.4018 21.3066 31.5213 21.4173 31.694 21.4787C31.6674 21.5033 31.6408 21.5279 31.6143 21.5525C31.8777 21.7964 32.1699 22.0669 32.4908 22.364C32.4376 22.3885 32.3846 22.4132 32.3314 22.4377C32.4642 22.5115 32.597 22.5853 32.7298 22.659C32.7033 22.6836 32.6767 22.7082 32.6501 22.7328C32.8873 22.8407 33.0201 22.9883 33.0485 23.1754C33.2332 23.2728 33.3925 23.3957 33.5266 23.5442C33.4735 23.5688 33.4204 23.5934 33.3673 23.618C33.4681 23.6408 33.5611 23.6777 33.6461 23.7287C33.7524 23.8762 33.8587 24.0237 33.9649 24.1713C33.9572 24.31 33.9705 24.4329 34.0047 24.5401C33.992 24.6621 33.8592 24.7604 33.7657 24.8352C33.7426 24.7229 33.6629 24.6491 33.686 24.5401C33.6088 24.4104 33.5955 24.3367 33.4868 24.3926C33.4181 24.2755 33.365 24.1894 33.3274 24.0606C32.6422 23.433 32.0713 22.7814 31.5346 22.032C31.4496 21.981 31.2769 21.8704 31.176 21.8476C31.2292 21.823 31.2823 21.7984 31.3354 21.7738C31.2026 21.7 31.0698 21.6263 30.937 21.5525C31.0432 21.4168 31.0697 21.3799 30.937 21.4419C30.8577 21.4001 30.7913 21.3509 30.7378 21.2943C30.8301 21.1652 31.1223 21.0546 31.2956 21.0361Z" fill="white"/>
<path fill-rule="evenodd" clip-rule="evenodd" d="M30.7374 21.2944C30.7909 21.351 30.8573 21.4002 30.9365 21.442C31.0692 21.38 31.0826 21.4169 30.9764 21.5526C31.1092 21.6264 31.2419 21.7002 31.3747 21.7739C31.3215 21.7985 31.2685 21.8231 31.2153 21.8477C31.3162 21.8705 31.4091 21.9074 31.4941 21.9583C32.0306 22.7078 32.6413 23.3962 33.3262 24.0238C33.3638 24.1526 33.4169 24.2756 33.4856 24.3927C33.5942 24.3368 33.6872 24.3737 33.7644 24.5033C33.7413 24.6124 33.7413 24.723 33.7644 24.8353C33.7305 25.0285 33.6508 25.2007 33.5254 25.3517C33.502 25.2207 33.4887 25.0731 33.4856 24.9091C33.4258 24.8629 33.3594 24.826 33.2864 24.7984C33.3926 24.6627 33.3793 24.6258 33.2466 24.6878C33.1846 24.4586 33.0386 24.2987 32.8085 24.2083C32.835 24.1837 32.8616 24.1591 32.8881 24.1345C32.7348 23.9094 32.5091 23.7004 32.211 23.5075C32.125 23.3233 32.0188 23.1512 31.8924 22.9911C31.8659 23.0157 31.8393 23.0403 31.8128 23.0649C31.6531 22.7714 31.4673 22.501 31.2552 22.2534C31.2286 22.3026 31.202 22.3518 31.1755 22.401C31.1385 22.2954 31.072 22.2094 30.9764 22.1428C31.0826 22.007 31.0692 21.9701 30.9365 22.0321C30.799 21.9158 30.6662 21.7437 30.5383 21.5157C30.4178 21.5716 30.3116 21.6453 30.2196 21.737C30.1878 21.7202 30.1746 21.6956 30.1798 21.6633C30.3229 21.4862 30.5088 21.3633 30.7374 21.2944Z" fill="white"/>
<path fill-rule="evenodd" clip-rule="evenodd" d="M33.6051 25.3518C33.5661 25.4621 33.513 25.5605 33.4457 25.6469C33.4188 25.4733 33.3789 25.3012 33.3262 25.1305C33.2997 25.2289 33.2731 25.3273 33.2465 25.4256C33.1475 25.0138 32.8951 24.7064 32.4895 24.5035C32.5499 24.4029 32.5101 24.3168 32.37 24.2453C32.3435 24.1224 32.3169 23.9995 32.2903 23.8765C32.2353 24.0529 32.1556 24.0529 32.0513 23.8765C31.8567 23.6885 31.724 23.4672 31.6529 23.2126C31.5664 23.3717 31.4735 23.384 31.374 23.2495C31.5462 23.1193 31.5595 22.9841 31.4139 22.8437C31.3362 23.0192 31.2831 22.9945 31.2545 22.77C31.228 22.7945 31.2013 22.8192 31.1748 22.8437C30.9504 22.4916 30.7114 22.1473 30.4577 21.811C30.3542 21.8454 30.2347 21.8454 30.0991 21.811C30.1257 21.7372 30.1788 21.688 30.2585 21.6634C30.2533 21.6958 30.2665 21.6097 30.2983 21.6266C30.3903 21.5349 30.4567 21.498 30.5772 21.4421C30.7052 21.6701 30.8778 21.8791 31.0155 21.9954C31.1482 21.9334 31.1615 22.0072 31.0553 22.1429C31.151 22.2095 31.2174 22.148 31.2545 22.2536C31.281 22.2044 31.3076 22.3028 31.3342 22.2536C31.5464 22.5012 31.7323 22.6978 31.8919 22.9913C31.9185 22.9667 31.9451 23.0158 31.9716 22.9913C32.098 23.1513 32.2043 23.3235 32.2903 23.5076C32.5885 23.7005 32.8142 23.9096 32.9676 24.1347C32.9411 24.1592 32.9145 24.1839 32.888 24.2084C33.1182 24.2989 33.304 24.4218 33.366 24.651C33.4988 24.5891 33.4723 24.6628 33.366 24.7986C33.439 24.8262 33.5055 24.8631 33.5652 24.9092C33.5684 25.0733 33.5817 25.2208 33.6051 25.3518Z" fill="white"/>
<path fill-rule="evenodd" clip-rule="evenodd" d="M29.7824 22.1057C29.947 22.125 30.0533 22.2111 30.1014 22.3639C30.0748 22.3885 30.0482 22.4131 30.0216 22.4377C30.1014 22.4622 30.1811 22.4869 30.2609 22.5114C30.2343 22.536 30.2077 22.5606 30.1811 22.5852C30.4185 22.6931 30.5514 22.8407 30.5799 23.0278C30.7725 23.1135 30.932 23.2364 31.0584 23.3967C31.0584 23.4704 31.0584 23.5442 31.0584 23.618C31.2073 23.6704 31.3269 23.6335 31.4172 23.5073C31.4548 23.6361 31.508 23.7591 31.5767 23.8761C31.6033 23.8516 31.6299 23.8269 31.6565 23.8024C31.6964 23.8885 31.7628 23.9499 31.8559 23.9868C31.8027 24.0114 31.7496 24.036 31.6964 24.0606C31.9977 24.1424 32.0111 24.2531 31.7362 24.3925C31.5381 24.1876 31.2856 24.0893 30.9786 24.0974C30.6104 24.0246 30.2382 23.9754 29.8621 23.9499C29.4899 23.9007 29.1178 23.8516 28.7456 23.8024C29.071 23.2248 29.4165 22.6593 29.7824 22.1057Z" fill="white"/>
<path fill-rule="evenodd" clip-rule="evenodd" d="M28.7453 23.8027C29.1172 23.8503 29.489 23.8979 29.8608 23.9455C29.435 23.9573 29.0101 23.9454 28.5859 23.9098C28.6293 23.8586 28.6824 23.8229 28.7453 23.8027Z" fill="white"/>
<path fill-rule="evenodd" clip-rule="evenodd" d="M37.909 26.2371C37.9138 25.9548 37.8208 25.9056 37.6301 26.0895C37.5572 26.0285 37.5042 25.9547 37.4708 25.8682C37.3553 25.9504 37.249 26.0242 37.1521 26.0895C37.0458 25.8928 36.9396 25.8928 36.8333 26.0895C36.7271 25.7945 36.6208 25.7945 36.5146 26.0895C36.4349 25.9666 36.3553 25.8437 36.2756 25.7207C36.1959 25.8437 36.1162 25.9666 36.0365 26.0895C35.9569 25.9666 35.8772 25.8437 35.7975 25.7207C35.771 25.819 35.7443 25.9174 35.7178 26.0158C35.6647 25.819 35.6116 25.819 35.5584 26.0158C35.5053 25.819 35.4522 25.819 35.3991 26.0158C35.3459 25.819 35.2929 25.819 35.2397 26.0158C35.1621 25.8404 35.109 25.865 35.0804 26.0895C35.0518 25.865 34.9986 25.8404 34.921 26.0158C34.7181 25.7041 34.6118 25.7287 34.6023 26.0895C34.5689 25.7685 34.5157 25.7439 34.4429 26.0158C34.4164 25.9174 34.3898 25.819 34.3632 25.7207C34.2758 25.8353 34.1696 25.9336 34.0445 26.0158C33.959 26.0378 33.866 26.0378 33.7656 26.0158C33.9566 25.5965 34.1558 25.1784 34.3632 24.7617C34.7616 24.7986 34.682 24.7986 35.0405 24.7986C35.5224 24.7497 36.0005 24.7743 36.4748 24.8724C36.9878 25.3679 37.5721 25.7736 38.2278 26.0895C38.1419 26.1784 38.0357 26.2276 37.909 26.2371Z" fill="white"/>
<path fill-rule="evenodd" clip-rule="evenodd" d="M32.5699 26.0895C32.3757 25.9815 32.2297 25.834 32.1317 25.6469C32.0392 25.8163 31.9596 25.7918 31.8926 25.5731C31.7772 25.6553 31.6709 25.7291 31.5739 25.7944C31.3815 25.5218 31.3417 25.5587 31.4544 25.9051C31.3098 26.0881 31.2568 26.2972 31.295 26.5321C31.2422 26.3742 31.2156 26.202 31.2153 26.0157C31.2376 25.6181 31.2907 25.2246 31.3747 24.8354C31.966 25.0883 32.3644 25.5063 32.5699 26.0895Z" fill="white"/>
<path fill-rule="evenodd" clip-rule="evenodd" d="M30.1 21.8108C30.2355 21.8452 30.355 21.8452 30.4585 21.8108C30.7122 22.1471 30.9513 22.4914 31.1757 22.8435C31.2022 22.819 31.2288 22.7943 31.2553 22.7698C31.284 22.9943 31.3371 23.019 31.4147 22.8435C31.5604 22.9839 31.5471 23.1191 31.3749 23.2493C31.4744 23.3838 31.5673 23.3715 31.6538 23.2124C31.7248 23.467 31.8576 23.6883 32.0522 23.8763C32.1565 24.0527 32.2361 24.0527 32.2912 23.8763C32.3177 23.9993 32.3443 24.1222 32.3709 24.2451C32.511 24.3166 32.5508 24.4027 32.4904 24.5033C32.896 24.7063 33.1483 25.0136 33.2474 25.4254C33.2739 25.3271 33.3005 25.2287 33.3271 25.1304C33.3798 25.301 33.4196 25.4731 33.4466 25.6467C33.4165 25.7764 33.3634 25.8994 33.2872 26.0156C33.2075 26.1139 33.1278 26.1139 33.0482 26.0156C32.5927 25.1513 31.9021 24.512 30.9765 24.0976C31.2832 24.0894 31.5355 24.1877 31.7334 24.3927C32.008 24.2532 31.9947 24.1426 31.6936 24.0607C31.7467 24.0362 31.7998 24.0115 31.853 23.9869C31.76 23.9501 31.6936 23.8886 31.6538 23.8025C31.6272 23.8271 31.6006 23.8517 31.5741 23.8763C31.5054 23.7592 31.4522 23.6363 31.4147 23.5075C31.3244 23.6337 31.2049 23.6706 31.0561 23.6181C31.0561 23.5443 31.0561 23.4706 31.0561 23.3968C30.9299 23.2366 30.7706 23.1136 30.5781 23.028C30.5496 22.8408 30.4169 22.6933 30.1797 22.5854C30.2062 22.5608 30.2328 22.5362 30.2593 22.5116C30.1797 22.487 30.1 22.4624 30.0203 22.4378C30.0468 22.4133 30.0734 22.3886 30.1 22.3641C30.0519 22.2113 29.9457 22.1252 29.7812 22.1059C29.8609 21.9829 29.9671 21.8846 30.1 21.8108Z" fill="white"/>
<path fill-rule="evenodd" clip-rule="evenodd" d="M32.5699 26.0528C32.9993 26.5574 33.3895 26.5328 33.7651 25.979C33.8665 26.001 33.9181 26.0379 34.0045 26.0159C34.1308 25.9337 34.2744 25.7985 34.3627 25.6839C34.3895 25.7822 34.4156 25.8069 34.4424 25.9052C34.516 25.6334 34.5282 25.5473 34.5619 25.8683C34.5716 25.5075 34.6849 25.6304 34.8899 25.9421C34.9683 25.7667 35.051 25.7544 35.0799 25.979C35.1088 25.7544 35.121 25.7667 35.1994 25.9421C35.2531 25.7454 35.3051 25.7085 35.3587 25.9052C35.4124 25.7085 35.5043 25.7454 35.5579 25.9421C35.6116 25.7454 35.6636 25.7454 35.7173 25.9421C35.7441 25.8438 35.7702 25.7822 35.797 25.6839C35.8775 25.8069 35.9555 25.9298 36.036 26.0528C36.1165 25.9298 36.1946 25.8438 36.2751 25.7208C36.3556 25.8438 36.4336 25.9298 36.5141 26.0528C36.6214 25.7577 36.7255 25.7577 36.8328 26.0528C36.9401 25.856 37.0443 25.856 37.1516 26.0528C37.2495 25.9874 37.349 25.9505 37.4656 25.8683C37.4994 25.9548 37.556 25.9917 37.6296 26.0528C37.8223 25.8688 37.9132 25.9549 37.9084 26.2372C37.3558 26.3934 36.7923 26.5286 36.218 26.6429C35.8218 26.7431 35.4462 26.8784 35.0911 27.0486C34.9731 26.9861 34.9366 26.9985 34.9205 26.8642C34.8668 27.1109 34.7367 27.2339 34.5221 27.3806C34.4484 27.3195 34.3566 27.3933 34.3229 27.3068C34.2961 27.356 34.2727 27.2207 34.2459 27.2699C34.1863 27.1858 34.1583 27.2226 34.0838 27.3068C34.0281 27.2681 33.9891 27.2926 33.9643 27.233C33.9303 27.3404 33.8229 27.2667 33.7227 27.233C33.6642 27.1298 33.6676 27.1298 33.6456 27.0117C33.628 27.1178 33.5889 27.1793 33.5261 27.2699C33.4516 27.3541 33.3865 27.4647 33.3269 27.3806C33.3001 27.4298 33.2263 27.2945 33.1995 27.3437C33.1302 27.2266 33.0859 27.2881 33.048 27.1593C33.0251 27.3353 32.9869 27.2369 32.8488 27.1593C32.822 27.2085 32.7959 27.2576 32.7691 27.3068C32.7256 27.0958 32.6476 26.9359 32.5301 26.7535C32.4407 26.8935 32.4676 26.9549 32.5301 27.0855C32.408 27.2167 32.2632 27.4012 32.2512 27.1962C32.2334 27.4501 32.1553 27.3641 32.0121 27.1593C31.9853 27.2085 31.9593 27.1838 31.9325 27.233C31.8788 26.8396 31.8666 26.8765 31.8129 27.2699C31.7593 26.9749 31.7073 26.9749 31.6536 27.2699C31.5999 27.0732 31.5877 27.0732 31.5341 27.2699C31.5117 27.2024 31.3661 27.0795 31.308 27.0486C31.2501 26.8816 31.2233 26.7095 31.2275 26.5322C31.1888 26.2973 31.2424 26.0882 31.3885 25.9052C31.2746 25.5588 31.3796 25.485 31.5739 25.7577C31.6719 25.6923 31.795 25.6186 31.9117 25.5364C31.9793 25.755 32.0383 25.7796 32.1317 25.6101C32.2307 25.7972 32.3737 25.9448 32.5699 26.0528Z" fill="white"/>
<path fill-rule="evenodd" clip-rule="evenodd" d="M35.1195 27.0483C34.0293 28.0083 33.445 29.1639 33.3665 30.5154C32.3276 29.5512 31.6635 28.3954 31.3745 27.0483C31.432 27.0791 31.4719 27.1282 31.494 27.1958C31.5472 26.9991 31.6002 26.9991 31.6534 27.1958C31.7065 26.9007 31.7596 26.9007 31.8128 27.1958C31.8659 26.8024 31.919 26.8024 31.9721 27.1958C31.9987 27.1466 32.0253 27.0975 32.0518 27.0483C32.1936 27.2531 32.2732 27.2285 32.2908 26.9745C32.3027 27.1795 32.3692 27.2164 32.49 27.0852C32.4282 26.9546 32.4414 26.8194 32.5299 26.6794C32.6462 26.8618 32.7259 27.0585 32.7689 27.2696C32.7955 27.2204 32.8221 27.1713 32.8486 27.1221C32.9853 27.1997 33.065 27.1505 33.0877 26.9745C33.1252 27.1033 33.1783 27.2263 33.247 27.3434C33.2735 27.2942 33.3002 27.245 33.3267 27.1958C33.3857 27.28 33.4522 27.28 33.5259 27.1958C33.5881 27.1052 33.628 27.0068 33.6454 26.9007C33.6672 27.0188 33.707 27.1295 33.7649 27.2327C33.8641 27.2663 33.9304 27.2295 33.9641 27.1221C33.9887 27.1817 34.0285 27.2309 34.0837 27.2696C34.1574 27.1854 34.2238 27.1854 34.2829 27.2696C34.3094 27.2204 34.336 27.1713 34.3625 27.1221C34.3959 27.2085 34.449 27.2823 34.5219 27.3434C34.7343 27.1966 34.8672 26.9999 34.9203 26.7532C34.9362 26.8875 35.0027 26.9858 35.1195 27.0483Z" fill="white"/>
<path fill-rule="evenodd" clip-rule="evenodd" d="M37.191 27.8967C37.2042 28.2129 37.2306 28.6521 37.191 28.9664C37.1028 28.8284 36.9653 28.5475 37.0269 28.4188C36.869 28.3228 36.7005 28.7683 36.6731 28.5975C36.6201 28.7915 36.6464 28.5702 36.5934 28.3762C36.5669 28.4248 36.5369 28.1157 36.5105 28.1642C36.3848 28.058 36.2413 28.3281 36.1551 28.1918C36.1287 28.2403 36.1397 27.8974 36.1132 27.946C36.0644 27.8284 36.0261 28.0224 35.9161 27.946C35.8896 27.9945 35.8219 27.752 35.7954 27.8005C35.6298 27.3958 35.51 27.4928 35.199 27.8005C35.1673 27.7839 35.0355 27.6141 35.0407 27.5822C35.1602 27.4123 35.3191 27.279 35.5174 27.1822C35.9824 26.9369 36.4724 26.852 36.9872 26.9276C37.0821 27.2368 37.2065 27.5756 37.191 27.8967Z" fill="white"/>
<path fill-rule="evenodd" clip-rule="evenodd" d="M37.1667 27.8972C37.2742 28.4872 37.1932 29.1408 37.0323 29.7414C36.9735 29.6388 36.8811 29.5301 36.8331 29.4094C36.8598 29.3846 36.8064 29.3604 36.8331 29.3357C36.7089 29.2453 36.7765 29.2841 36.7136 29.1512C36.6601 29.3497 36.6077 29.3497 36.5542 29.1512C36.481 29.2371 36.2959 29.1143 36.2355 29.0037C36.3029 28.8797 36.2635 28.8676 36.116 28.9668C35.9302 28.8731 35.8262 28.765 35.6379 28.5611C35.6112 28.6107 35.5451 28.6221 35.5184 28.6717C35.415 28.5012 35.3263 28.3931 35.1625 28.266C35.1358 28.3157 35.067 28.327 35.0403 28.3767C34.9936 28.2649 34.9678 28.1683 34.8809 28.0816C34.7986 28.1777 34.6801 28.1408 34.6021 28.0447C34.7089 27.8959 34.9596 27.6275 35.12 27.5283C35.0777 27.5095 35.1305 27.6784 35.1625 27.6954C35.4764 27.3806 35.7169 27.4302 35.884 27.8442C35.9107 27.7946 35.9375 27.745 35.9642 27.6954C36.0752 27.7736 36.1554 27.8728 36.2047 27.993C36.2314 27.9434 36.2582 27.8938 36.2849 27.8442C36.3719 27.9836 36.4787 28.1076 36.6055 28.2163C36.6322 28.1666 36.659 28.1171 36.6857 28.0674C36.7392 28.2659 36.7926 28.2659 36.846 28.0674C36.8738 28.2422 36.9673 28.3786 37.1266 28.4767C37.0644 28.6084 37.0777 28.7448 37.1667 28.886C37.2067 28.5644 37.18 28.2206 37.1667 27.8972Z" fill="white"/>
<path fill-rule="evenodd" clip-rule="evenodd" d="M34.6441 28.0076C34.7215 28.1028 34.8011 28.1028 34.8828 28.0076C34.9691 28.0935 35.0354 28.1918 35.0818 28.3026C35.1083 28.2534 35.1349 28.2043 35.1614 28.1551C35.324 28.2811 35.4567 28.4286 35.5594 28.5977C35.5859 28.5485 35.6124 28.4994 35.6389 28.4502C35.8259 28.6523 36.0117 28.7998 36.1961 28.8928C36.3425 28.7945 36.3823 28.8068 36.3155 28.9297C36.3754 29.0394 36.4417 29.0517 36.5144 28.9666C36.5675 29.1633 36.6205 29.1633 36.6736 28.9666C36.7361 29.0983 36.8289 29.209 36.9522 29.2985C36.9257 29.3231 36.8991 29.3477 36.8726 29.3723C36.9203 29.4919 36.9734 29.6026 37.0318 29.7042C36.9597 30.0289 36.8271 30.324 36.6338 30.5894C36.5814 30.3749 36.515 30.3503 36.4349 30.5157C36.3301 30.4069 36.2505 30.284 36.1961 30.1468C36.1696 30.1714 36.143 30.196 36.1165 30.2206C36.0879 29.9961 36.0348 29.9714 35.9573 30.1468C35.8138 29.8509 35.7342 29.8755 35.7185 30.2206C35.6302 30.0807 35.617 29.9455 35.6787 29.8149C35.4949 29.6941 35.3755 29.5343 35.3206 29.3354C35.2675 29.6305 35.2145 29.6305 35.1614 29.3354C35.1495 29.5404 35.0832 29.5773 34.9624 29.446C34.9889 29.4215 35.0155 29.3968 35.042 29.3723C34.9842 29.2691 34.9444 29.1584 34.9226 29.0403C34.8961 29.1387 34.8695 29.2371 34.843 29.3354C34.7932 29.1516 34.7269 29.1516 34.6441 29.3354C34.5662 29.3002 34.4999 29.2511 34.4451 29.1879C34.4186 29.2371 34.392 29.2862 34.3655 29.3354C34.2963 29.0947 34.1902 29.0701 34.0471 29.2616C34.0102 29.2178 33.9969 29.1686 34.0073 29.1141C34.1578 28.7121 34.37 28.3433 34.6441 28.0076Z" fill="white"/>
<path fill-rule="evenodd" clip-rule="evenodd" d="M33.8444 29.7697C33.8319 29.8706 33.8452 29.9686 33.8842 30.0636C33.9393 29.8879 34.0189 29.8879 34.1232 30.0636C34.1764 30.0146 34.2295 29.9657 34.2826 29.9166C34.5376 30.1126 34.7766 30.333 34.9997 30.5779C35.1553 30.4897 35.2748 30.5265 35.3583 30.6881C35.4339 30.7335 35.5003 30.7213 35.5575 30.6514C35.5862 30.8063 35.6393 30.9532 35.7169 31.0922C35.7434 31.0432 35.77 30.9943 35.7965 30.9453C35.8497 31.0432 35.9028 31.0432 35.9559 30.9453C36.0279 31.0335 36.1208 31.0948 36.2348 31.129C36.0758 31.1969 36.0493 31.2825 36.1551 31.3861C34.8559 32.5742 33.2888 33.0518 31.4539 32.8189C30.7913 32.7129 30.1272 32.615 29.4619 32.525C30.0998 31.9241 30.5645 31.2261 30.8563 30.431C30.9092 29.9866 30.8826 29.5457 30.7766 29.1084C30.5481 28.6385 30.3223 28.1731 30.0994 27.7124C30.4188 27.7387 30.7375 27.7754 31.0555 27.8226C31.538 28.9086 32.2021 29.8884 33.0476 30.7616C33.3255 31.0047 33.5778 30.9924 33.8045 30.7249C33.768 30.3948 33.7813 30.0765 33.8444 29.7697Z" fill="white"/>
<path fill-rule="evenodd" clip-rule="evenodd" d="M36.6335 30.5892C36.5448 30.9172 36.3584 31.2245 36.0758 31.4375C35.9701 31.3335 35.9975 31.2106 36.1562 31.1424C36.0424 31.1081 35.9484 31.1573 35.8766 31.0687C35.8235 31.167 35.7703 31.2408 35.7172 31.1424C35.6907 31.1916 35.6656 31.0563 35.6391 31.1055C35.5617 30.966 35.467 30.9291 35.4383 30.7736C35.3812 30.8437 35.3566 30.7453 35.2811 30.6998C35.1977 30.5375 35.1182 30.5744 34.9629 30.6629C34.7401 30.4171 34.4579 30.2695 34.2033 30.0728C34.1502 30.122 34.1011 30.0236 34.048 30.0728C33.9439 29.8964 33.8997 30.0439 33.8447 30.2203C33.8057 30.1249 33.7571 29.879 33.7696 29.7777C33.8036 29.5354 33.8832 29.3141 34.0082 29.1138C33.9978 29.1683 34.0867 29.1069 34.1236 29.1507C34.2666 28.9592 34.2971 29.0944 34.3662 29.3351C34.3927 29.2859 34.4193 29.2368 34.4458 29.1876C34.5006 29.2508 34.5669 29.2999 34.6447 29.3351C34.7275 29.1514 34.7938 29.1514 34.8436 29.3351C34.8701 29.2368 34.8966 29.1384 34.9231 29.04C34.9448 29.1581 34.9846 29.2688 35.0425 29.372C35.016 29.3966 34.9894 29.4212 34.9629 29.4458C35.0836 29.577 35.1499 29.5401 35.1618 29.3351C35.2148 29.6302 35.2678 29.6302 35.3209 29.3351C35.3758 29.534 35.4951 29.6938 35.6789 29.8146C35.6172 29.9452 35.6304 30.0804 35.7187 30.2203C35.7343 29.8752 35.8139 29.8506 35.9573 30.1466C36.0348 29.9711 36.0879 29.9958 36.1164 30.2203C36.1429 30.1958 36.1695 30.1711 36.196 30.1466C36.2504 30.2837 36.33 30.4067 36.4347 30.5154C36.5148 30.35 36.5811 30.3746 36.6335 30.5892Z" fill="white"/>
<path fill-rule="evenodd" clip-rule="evenodd" d="M28.2669 31.4743C28.3542 31.5924 28.4605 31.7029 28.5856 31.8058C28.5591 31.8304 28.5325 31.855 28.506 31.8795C28.6825 32.0227 28.6825 32.1454 28.506 32.2479C28.5591 32.297 28.6122 32.3461 28.6653 32.3952C28.6237 32.578 28.6237 32.7499 28.6653 32.911C28.7185 32.9355 28.7715 32.9601 28.8247 32.9846C28.8345 33.1165 28.8345 33.2515 28.8247 33.3899C28.8895 33.4867 28.9691 33.5726 29.0637 33.6477C28.8732 33.7442 28.8732 33.8178 29.0637 33.8688C29.0075 34.0911 29.0606 34.2999 29.2231 34.495C29.2133 34.6333 29.2133 34.7684 29.2231 34.9002C29.039 34.9368 28.8531 34.949 28.6653 34.937C26.4666 34.6841 25.2449 33.5298 25 31.4743C25.0265 31.4498 25.0531 31.4252 25.0797 31.4006C25.6065 31.5745 26.151 31.6727 26.7131 31.6953C27.2346 31.6452 27.7525 31.5715 28.2669 31.4743Z" fill="white"/>
<path fill-rule="evenodd" clip-rule="evenodd" d="M29.8602 32.9547C30.0275 33.0472 30.1868 33.1581 30.3383 33.2873C30.1258 33.3366 30.1258 33.3858 30.3383 33.4352C30.2586 33.5091 30.1789 33.583 30.0993 33.6569C30.1555 33.7981 30.2352 33.9459 30.3383 34.1004C30.3118 34.1744 30.2852 34.2483 30.2586 34.3222C30.4571 34.3685 30.4571 34.43 30.2586 34.507C30.3891 34.5961 30.4157 34.6946 30.3383 34.8027C30.4404 34.7669 30.5201 34.8162 30.5773 34.9505C29.9277 35.0373 29.2903 35.0003 28.665 34.9136C28.8528 34.9256 28.959 34.9048 29.1431 34.8681C29.1333 34.7358 29.213 34.6458 29.2228 34.507C29.0603 34.3113 29.0072 34.1018 29.0634 33.8787C28.8729 33.8276 28.7534 33.7537 28.9439 33.6569C28.8493 33.5816 28.8891 33.4953 28.8244 33.3982C28.8342 33.2594 28.8342 33.1239 28.8244 32.9916C28.7712 32.967 28.7182 32.9423 28.665 32.9177C28.6234 32.7561 28.6234 32.5837 28.665 32.4003C28.6119 32.351 28.519 32.2617 28.4658 32.2124C28.6423 32.1096 28.5228 31.9503 28.3463 31.8067C28.3728 31.7821 28.5588 31.8335 28.5853 31.8089C28.4602 31.7056 28.3539 31.5948 28.2666 31.4763C28.7499 31.2887 29.2013 31.0424 29.6212 30.7371C29.7138 31.0297 29.7536 31.3254 29.7407 31.6241C29.5207 31.9087 29.2817 32.1798 29.0236 32.4372C28.9623 32.6293 28.9756 32.8141 29.0634 32.9916C29.3284 33.0043 29.594 32.992 29.8602 32.9547Z" fill="white"/>
<path fill-rule="evenodd" clip-rule="evenodd" d="M29.8608 32.9495C30.2493 32.9926 30.6212 33.0664 30.9764 33.1708C31.1085 33.4559 31.228 33.751 31.3349 34.056C31.3615 33.9822 31.3881 33.9084 31.4146 33.8347C31.4392 33.9281 31.4791 34.0142 31.5341 34.0929C31.4355 34.3073 31.4355 34.5164 31.5341 34.7199C31.2234 34.8164 30.9047 34.8902 30.578 34.9412C30.5207 34.8072 30.3613 34.7948 30.2592 34.8305C30.3366 34.7227 30.2702 34.6244 30.1397 34.5355C30.3382 34.4587 30.2585 34.3972 30.06 34.3511C30.0866 34.2773 30.2327 34.1666 30.2592 34.0929C30.1561 33.9387 29.9569 33.828 29.9007 33.6871C29.9804 33.6134 30.0999 33.5396 30.1796 33.4658C29.9671 33.4166 30.0069 33.3306 30.2194 33.2814C30.0679 33.1525 30.0281 33.0418 29.8608 32.9495Z" fill="white"/>
<path fill-rule="evenodd" clip-rule="evenodd" d="M30.9766 33.1709C31.7174 33.4812 32.4611 33.7762 33.2076 34.0561C32.7129 34.4058 32.1551 34.6271 31.5343 34.72C31.4357 34.5165 31.4357 34.3074 31.5343 34.093C31.4793 34.0143 31.4394 33.9282 31.4148 33.8348C31.3883 33.9086 31.3617 33.9823 31.3351 34.0561C31.2282 33.7511 31.1087 33.456 30.9766 33.1709Z" fill="white"/>
<path fill-rule="evenodd" clip-rule="evenodd" d="M40.8561 15.5489C41.0858 15.5263 41.2981 15.5509 41.4929 15.6225C41.3577 15.6107 41.225 15.6229 41.0949 15.6593C41.5201 16.1509 42.0243 16.6173 42.6073 17.0584C42.5808 17.083 42.5542 17.1075 42.5277 17.1321C42.6748 17.2439 42.7942 17.3788 42.8859 17.5371C42.9125 17.5126 42.939 17.488 42.9655 17.4634C43.2679 17.8473 43.5863 18.2155 43.9208 18.568C44.1227 18.7795 44.3923 18.9618 44.6414 19.1185C44.6149 19.143 44.5443 19.1694 44.5178 19.1939C44.7292 19.2678 44.853 19.3896 44.8008 19.5611C44.8474 19.657 44.8607 19.7434 44.9203 19.8193C44.9328 19.9204 44.9195 20.1298 44.8805 20.225C44.6389 20.0499 44.4127 19.7909 44.2829 19.5242C43.9626 19.3505 43.723 19.1036 43.5657 18.7866C43.4528 18.7159 43.333 18.6542 43.2072 18.6021C43.2603 18.5776 43.2736 18.516 43.3267 18.4915C43.1808 18.4547 43.1673 18.4052 43.1275 18.2702C43.0945 18.3038 43.0546 18.3286 43.008 18.344C42.9116 18.287 42.8692 18.1884 42.9655 18.1227C42.7645 17.9315 42.5675 17.7957 42.3705 17.7169C42.3214 17.647 42.3347 17.5854 42.4104 17.5325C41.8356 17.0573 41.3033 16.5885 40.8168 16.1309C40.8698 16.1064 40.7769 16.1678 40.9363 16.0571C40.6769 15.964 40.4639 15.8239 40.2988 15.6225C40.4559 15.5861 40.6948 15.5369 40.8561 15.5489Z" fill="white"/>
<path fill-rule="evenodd" clip-rule="evenodd" d="M34.393 42.5645C33.0992 42.5645 31.8055 42.5645 30.5117 42.5645C30.5117 42.1348 30.5117 41.705 30.5117 41.2753C31.4638 41.3018 32.4025 41.2749 33.3275 41.1948C33.6132 41.0878 33.702 40.873 33.5939 40.5502C33.5558 40.5099 33.5178 40.4696 33.4797 40.4293C32.5161 40.389 31.5521 40.3756 30.5878 40.389C30.5878 39.9862 30.5878 39.5833 30.5878 39.1805C31.476 39.1939 32.3639 39.1805 33.2514 39.1402C33.6239 38.9127 33.6494 38.6441 33.3275 38.3345C32.3892 38.2942 31.4507 38.2807 30.5117 38.2942C30.5117 37.8645 30.5117 37.4347 30.5117 37.005C31.8818 36.9916 33.2516 37.005 34.6213 37.0453C35.2642 37.4608 35.5052 38.065 35.3442 38.8582C35.2372 39.2669 34.9963 39.5489 34.6213 39.7042C35.4185 39.9817 35.7102 40.5591 35.4964 41.4365C35.3871 42.1029 35.0193 42.4789 34.393 42.5645Z" fill="white"/>
<path fill-rule="evenodd" clip-rule="evenodd" d="M25.5358 42.5647C25.168 42.6441 24.7852 42.6709 24.3875 42.6451C24.1496 41.9304 23.8689 41.2334 23.5455 40.5537C23.2013 41.2239 22.8951 41.9211 22.6268 42.6451C22.2441 42.7523 21.8613 42.7523 21.4785 42.6451C21.9355 41.6849 22.3948 40.7196 22.8565 39.7494C23.0296 39.5526 23.2465 39.4722 23.5072 39.5081C23.7767 39.4745 24.0064 39.5549 24.1962 39.7494C24.6438 40.6899 25.0903 41.6284 25.5358 42.5647Z" fill="white"/>
<path fill-rule="evenodd" clip-rule="evenodd" d="M40.6711 37.005C40.6711 37.4617 40.6711 37.9182 40.6711 38.3748C39.7432 38.3484 38.8289 38.3752 37.9282 38.4554C37.8812 38.4643 37.8431 38.4911 37.8139 38.5359C37.7761 38.7491 37.7634 38.964 37.7758 39.1805C38.5636 39.1671 39.3509 39.1805 40.1377 39.2208C40.5568 39.3416 40.8235 39.6237 40.9377 40.0668C41.2341 42.1436 40.4806 42.6048 38.4235 42.6451C37.9536 42.6317 37.4838 42.6183 37.0139 42.6048C36.4652 42.4542 36.1224 42.0917 35.9854 41.5171C35.9346 40.3353 35.9346 39.1537 35.9854 37.9719C36.1806 37.5239 36.498 37.215 36.9378 37.0453C38.1819 37.005 39.4264 36.9916 40.6711 37.005Z" fill="white"/>
<path fill-rule="evenodd" clip-rule="evenodd" d="M37.8319 40.42C38.2235 40.3427 38.6159 40.4201 39.0067 40.4587C39.1616 40.6519 39.2007 40.8711 39.1241 41.1162C38.7523 41.204 38.3738 41.2169 37.9885 41.1549C37.8319 41.0775 37.7144 40.6908 37.8319 40.42Z" fill="#1E1D1D"/>
<path fill-rule="evenodd" clip-rule="evenodd" d="M14.2822 39.5803C14.665 39.5803 15.0478 39.5803 15.4305 39.5803C15.4305 40.6556 15.4305 41.7309 15.4305 42.8061C15.0478 42.8061 14.665 42.8061 14.2822 42.8061C14.2822 41.7309 14.2822 40.6556 14.2822 39.5803Z" fill="white"/>
<path fill-rule="evenodd" clip-rule="evenodd" d="M9.00479 39.5803C9.38679 39.5803 9.7688 39.5803 10.1508 39.5803C10.1508 40.3599 10.1508 41.1394 10.1508 41.919C10.38 41.919 10.6092 41.919 10.8384 41.919C10.8384 41.1394 10.8384 40.3599 10.8384 39.5803C11.2204 39.5803 11.6024 39.5803 11.9844 39.5803C11.9844 40.3599 11.9844 41.1394 11.9844 41.919C12.2097 41.9413 12.4261 41.9145 12.6339 41.8384C12.6721 41.0862 12.6847 40.3335 12.6721 39.5803C13.0541 39.5803 13.4361 39.5803 13.8181 39.5803C13.8308 40.5753 13.8181 41.5561 13.7799 42.5642C13.7035 42.6851 13.6271 42.7254 13.5125 42.7658C12.1118 42.8196 10.7111 42.8196 9.31039 42.7658C9.20106 42.7283 9.11198 42.661 9.04299 42.5642C9.00479 41.5699 8.99203 40.5753 9.00479 39.5803Z" fill="white"/>
<path fill-rule="evenodd" clip-rule="evenodd" d="M28.2912 39.6611C28.59 39.7445 28.8069 39.9325 28.9419 40.2252C28.9929 40.9772 28.9929 41.7293 28.9419 42.4814C28.8781 42.5485 28.8143 42.6157 28.7505 42.6828C27.8648 42.8136 26.9717 42.8405 26.0712 42.7634C25.847 42.6619 25.7067 42.4872 25.6501 42.2396C25.5991 41.8905 25.5991 41.5413 25.6501 41.1921C25.7139 41.0175 25.8287 40.8966 25.9946 40.8295C26.6065 40.7892 27.2189 40.7759 27.8319 40.7892C27.8492 40.5932 27.7727 40.4589 27.6022 40.3863C27.0294 40.3064 26.4539 40.3058 25.8415 40.3058C25.8415 40.0909 25.8415 39.876 25.8415 39.6611C26.6581 39.6611 27.4746 39.6611 28.2912 39.6611Z" fill="white"/>
<path fill-rule="evenodd" clip-rule="evenodd" d="M26.908 41.5159C27.2401 41.5159 27.5723 41.5159 27.9043 41.5159C27.9207 41.6484 27.8951 41.7694 27.8277 41.8788C27.5211 41.9325 27.2146 41.9325 26.908 41.8788C26.8139 41.7586 26.8139 41.6376 26.908 41.5159Z" fill="#1E1D1D"/>
<path fill-rule="evenodd" clip-rule="evenodd" d="M17.8801 42.6356C17.4866 42.715 17.0783 42.7418 16.6552 42.716C16.2233 42.2384 15.8661 41.7023 15.5835 41.1079C15.8507 40.601 16.1569 40.1186 16.5021 39.6607C16.936 39.5535 17.3697 39.5535 17.8035 39.6607C17.4146 40.1222 17.0573 40.6046 16.7318 41.1079C17.0847 41.6397 17.4675 42.1489 17.8801 42.6356Z" fill="white"/>
<path fill-rule="evenodd" clip-rule="evenodd" d="M18.8755 39.5048C19.4371 39.4914 19.9981 39.5048 20.5586 39.545C21.0476 39.6569 21.3664 39.9656 21.515 40.471C21.6116 41.0894 21.5351 41.6798 21.2855 42.2424C21.0474 42.5086 20.7541 42.6561 20.4056 42.6852C19.7304 42.7722 19.0673 42.7185 18.4164 42.5242C18.1246 42.3244 17.9588 42.0426 17.9191 41.6787C17.8681 41.2493 17.8681 40.8199 17.9191 40.3905C18.0682 39.8781 18.387 39.5829 18.8755 39.5048Z" fill="white"/>
<path fill-rule="evenodd" clip-rule="evenodd" d="M19.3367 40.2825C20.1563 40.0369 20.4786 40.6049 20.268 41.5105C20.1439 41.7697 19.97 41.838 19.672 41.838C19.4266 41.838 19.2761 41.7904 19.1505 41.5924C18.967 41.1069 18.9642 40.61 19.3367 40.2825Z" fill="#1E1D1D"/>
<path fill-rule="evenodd" clip-rule="evenodd" d="M27.3002 44.6539C28.6918 44.3473 29.3243 45.0078 28.9523 46.5311C28.6996 46.937 28.2692 46.9999 27.885 46.9999C27.4239 46.9999 26.892 46.8918 26.7239 46.2863C26.6661 45.8723 26.6554 45.4491 26.8007 45.062C26.9517 44.8947 27.1165 44.7554 27.3002 44.6539Z" fill="white"/>
<path fill-rule="evenodd" clip-rule="evenodd" d="M27.4844 44.9492C28.4676 44.7492 28.8189 45.1953 28.623 46.183C28.5239 46.5508 28.2713 46.6765 27.9163 46.6765C27.6431 46.6765 27.4556 46.6233 27.2881 46.4298C27.0837 45.8879 27.0542 45.3661 27.4844 44.9492Z" fill="#1E1D1D"/>
<path fill-rule="evenodd" clip-rule="evenodd" d="M32.3505 44.561C33.8191 44.2902 34.3681 44.9136 33.9974 46.431C33.7455 46.8353 33.393 46.9188 32.925 46.9188C32.5121 46.9188 31.9436 46.7903 31.776 46.1871C31.7184 45.7747 31.7078 45.3532 31.8526 44.9676C32.0031 44.8009 32.1691 44.6653 32.3505 44.561Z" fill="white"/>
<path fill-rule="evenodd" clip-rule="evenodd" d="M32.5045 44.8967C33.0447 44.619 33.812 45.1389 33.6201 46.1107C33.523 46.4726 33.1601 46.6019 32.9277 46.5963C32.6952 46.5907 32.4763 46.5439 32.3121 46.3535C32.083 46.1567 31.9643 45.1744 32.5045 44.8967Z" fill="#1E1D1D"/>
<path fill-rule="evenodd" clip-rule="evenodd" d="M16.9627 44.7415C17.4986 44.7415 18.0344 44.7415 18.5703 44.7415C18.5703 44.8219 18.5703 44.9829 18.5703 45.0633C18.1219 45.0374 17.6899 45.0633 17.2689 45.0633C17.1948 45.2329 17.1692 45.4207 17.1924 45.6266C17.6517 45.6266 18.111 45.6266 18.5703 45.6266C18.5703 45.7338 18.5703 45.8412 18.5703 45.9484C18.111 45.9484 17.6517 45.9484 17.1924 45.9484C17.1924 46.163 17.1924 46.3776 17.1924 46.5922C17.6772 46.5922 18.162 46.5922 18.6469 46.5922C18.6469 46.7263 18.6469 46.8604 18.6469 46.9945C18.0849 47.0079 17.5235 46.9945 16.9627 46.9543C16.9244 46.914 16.8861 46.8738 16.8479 46.8336C16.7968 46.163 16.7968 45.4924 16.8479 44.8219C16.8772 44.7772 16.9155 44.7504 16.9627 44.7415Z" fill="white"/>
<path fill-rule="evenodd" clip-rule="evenodd" d="M24.8444 46.8386C24.7174 46.8386 24.5904 46.8386 24.4634 46.8386C24.4634 46.1397 24.4634 45.4408 24.4634 44.7419C24.4952 44.6836 24.546 44.6433 24.6158 44.6209C25.0985 44.5671 25.5812 44.5671 26.0639 44.6209C26.2 44.6842 26.3143 44.7782 26.4068 44.9032C26.519 45.3528 26.4301 45.7426 26.1401 46.0725C25.7089 46.1127 25.277 46.1262 24.8444 46.1128C24.8444 46.3548 24.8444 46.5967 24.8444 46.8386Z" fill="white"/>
<path fill-rule="evenodd" clip-rule="evenodd" d="M24.8462 44.9886C25.2044 44.9754 25.5616 44.9887 25.918 45.0284C26.02 45.2405 26.02 45.4526 25.918 45.6647C25.5616 45.7044 25.2044 45.7177 24.8462 45.7045C24.8462 45.4659 24.8462 45.2272 24.8462 44.9886Z" fill="#1E1D1D"/>
<path fill-rule="evenodd" clip-rule="evenodd" d="M21.7851 44.9001C21.7851 45.5729 21.7851 46.2458 21.7851 46.9186C21.6579 46.9186 21.5308 46.9186 21.4036 46.9186C21.4289 46.3241 21.4034 45.732 21.3273 45.1423C21.281 45.1523 21.2556 45.1792 21.251 45.2231C21.0358 45.7866 20.8196 46.3517 20.6025 46.9186C20.4499 47.0262 20.2973 47.0262 20.1447 46.9186C19.9489 46.3697 19.7327 45.8315 19.4962 45.3038C19.4844 45.2776 19.458 45.2231 19.4199 45.1423C19.3438 45.732 19.3183 46.3241 19.3436 46.9186C19.2164 46.9186 19.0893 46.9186 18.9621 46.9186C18.9368 46.1899 18.9623 45.4633 19.0384 44.7386C19.2698 44.6234 19.486 44.6503 19.6869 44.8194C19.8816 45.4034 20.1105 45.9686 20.3736 46.5149C20.6274 45.9256 20.8817 45.3335 21.1366 44.7386C21.2941 44.6505 21.4594 44.6371 21.6325 44.6983C21.7283 44.7319 21.7792 44.7992 21.7851 44.9001Z" fill="white"/>
<path fill-rule="evenodd" clip-rule="evenodd" d="M24.0809 46.5972C24.0809 46.6777 24.0809 46.7581 24.0809 46.8386C23.5195 46.8386 22.9581 46.8386 22.3967 46.8386C22.3494 46.8297 22.3111 46.8029 22.2818 46.7581C22.2204 46.0837 22.2331 45.4132 22.3201 44.7465C22.3603 44.6908 22.4114 44.6506 22.4732 44.6258C23.0085 44.5856 23.5444 44.5722 24.0809 44.5856C24.0809 44.6928 24.0809 44.8002 24.0809 44.9074C23.6464 44.8941 23.2125 44.9075 22.7795 44.9477C22.7079 45.1393 22.6824 45.3404 22.7029 45.5512C23.1622 45.5512 23.6216 45.5512 24.0809 45.5512C24.0809 45.6584 24.0809 45.7658 24.0809 45.873C23.6216 45.873 23.1622 45.873 22.7029 45.873C22.7029 46.0876 22.7029 46.3021 22.7029 46.5168C23.1622 46.5168 23.6216 46.5972 24.0809 46.5972Z" fill="white"/>
<path fill-rule="evenodd" clip-rule="evenodd" d="M16.1197 44.5854C16.3001 44.5723 16.4787 44.5857 16.6556 44.6257C16.2594 44.9482 15.9021 45.3103 15.5838 45.7119C15.6389 45.8911 15.7409 46.0386 15.89 46.1544C16.1598 46.3978 16.4405 46.6257 16.7321 46.8383C16.5587 46.9306 16.3801 46.944 16.1963 46.8785C15.83 46.5713 15.4855 46.236 15.1628 45.8728C15.15 45.8191 15.1373 45.7655 15.1245 45.7119C15.4037 45.2844 15.7354 44.9089 16.1197 44.5854Z" fill="white"/>
<path fill-rule="evenodd" clip-rule="evenodd" d="M14.5889 44.7415C14.7165 44.7415 14.844 44.7415 14.9716 44.7415C14.9716 45.4673 14.9716 46.1931 14.9716 46.9189C14.844 46.9189 14.7165 46.9189 14.5889 46.9189C14.5889 46.1931 14.5889 45.4673 14.5889 44.7415Z" fill="white"/>
<path fill-rule="evenodd" clip-rule="evenodd" d="M29.517 44.5856C30.0268 44.5722 30.5361 44.5856 31.0446 44.6258C31.3281 44.828 31.4171 45.1097 31.3119 45.4708C31.2626 45.563 31.199 45.6434 31.121 45.7122C31.3107 45.8402 31.3501 45.9938 31.3501 46.2755C31.3501 46.5571 31.308 46.7291 31.121 46.879C30.5863 46.9327 30.0517 46.9327 29.517 46.879C29.4788 46.8388 29.4407 46.7985 29.4025 46.7583C29.3515 46.0877 29.3515 45.4171 29.4025 44.7465C29.4406 44.666 29.4788 44.6258 29.517 44.5856Z" fill="white"/>
<path fill-rule="evenodd" clip-rule="evenodd" d="M30.8194 45.5475C30.5127 45.5475 30.2061 45.5475 29.8994 45.5475C29.8994 45.3595 29.8994 45.1714 29.8994 44.9834C30.1916 44.8911 30.4982 44.8776 30.8194 44.9431C31.0218 45.1543 31.0218 45.3558 30.8194 45.5475Z" fill="#1E1D1D"/>
<path fill-rule="evenodd" clip-rule="evenodd" d="M30.8989 46.0317C31.0671 46.1742 31.0927 46.3473 30.9758 46.5513C30.6179 46.5912 30.2592 46.6046 29.8994 46.5913C29.8994 46.4048 29.8994 46.2182 29.8994 46.0317C30.2326 46.0317 30.5658 46.0317 30.8989 46.0317Z" fill="#1E1D1D"/>
</svg>
