<svg width="50" height="50" viewBox="0 0 50 50" fill="none" xmlns="http://www.w3.org/2000/svg">
<path fill-rule="evenodd" clip-rule="evenodd" d="M43.4464 21.8664C43.321 20.7276 43.0088 17.9573 42.8751 17.357C42.4134 15.2816 41.577 13.359 40.3932 11.5816C40.2977 11.4392 40.192 11.3027 40.0763 11.175C40.0486 11.1441 40.004 11.1278 39.9478 11.1073C39.9187 11.0966 39.8865 11.0848 39.8519 11.0693C39.7233 11.4025 39.8918 11.6238 40.0501 11.8315C40.0912 11.8855 40.1316 11.9386 40.166 11.9925C42.1341 15.0644 43.0256 18.4167 42.8765 22.0361C42.8259 23.2851 42.5972 24.5106 42.273 25.72C42.1703 26.1031 41.972 26.2954 41.5408 26.2792C40.8447 26.2528 40.1472 26.2616 39.4511 26.2778C39.0328 26.2866 38.8302 26.1765 38.9909 25.7274C39.9894 22.9402 40.0024 20.1222 39.2311 17.2895C39.1124 16.8565 39.2933 16.7274 39.6566 16.6231C40.0126 16.5204 40.3744 16.4059 40.6956 16.2283C41.137 15.9862 41.1891 15.6603 40.6841 15.4284C39.8425 15.041 39.1613 15.0319 38.3528 15.0211C38.12 15.018 37.8765 15.0148 37.6157 15.0023C37.3581 14.9891 36.8022 16.0307 36.6543 16.3678C36.6626 16.5237 36.5103 16.6215 36.4404 16.6664C36.3997 16.6925 36.3869 16.7008 36.4497 16.6921C36.4913 16.6862 36.533 16.6803 36.5747 16.6744C37.1961 16.5866 37.8194 16.4984 38.4337 16.3678C38.9065 16.2671 38.7687 15.9727 38.6448 15.7081C38.6314 15.6795 38.6182 15.6512 38.6059 15.6236C38.4261 15.2153 38.5701 15.2172 38.911 15.2216C38.9488 15.2221 38.989 15.2227 39.0314 15.2227C39.5384 15.2961 40.637 15.5095 40.6477 15.8103C40.6553 16.0237 39.5205 16.4749 39.0314 16.585C38.3541 16.7391 37.6667 16.8609 36.9764 16.9328C36.5207 16.9796 36.7362 17.4005 36.9757 17.8683C37.0442 18.0021 37.1147 18.1398 37.172 18.2737C37.5381 19.1264 37.6928 19.5528 37.8375 20.4774C37.8708 20.6947 37.9115 21.4659 37.6896 21.7262C37.5417 21.9801 37.172 21.8732 36.9501 21.7997C36.8928 21.7807 36.8405 21.7666 36.7901 21.7531C36.6453 21.7142 36.5167 21.6796 36.3339 21.5459C35.6754 20.9734 35.1429 20.288 34.7001 19.5542C34.5243 19.2629 34.3394 19.4632 33.9921 19.924C32.8807 21.3962 31.6953 22.5183 30.2206 23.6705C30.1946 23.6908 30.168 23.7117 30.141 23.733C29.6965 24.0834 29.1235 24.5351 28.5641 24.2127C27.9857 23.8794 28.1773 23.2892 28.3448 22.7733C28.3713 22.6916 28.3972 22.6117 28.4194 22.5351C28.9056 20.856 29.7132 19.312 30.5713 17.7914C30.9577 17.1075 30.9476 17.1031 30.1835 17.0224C29.2197 16.9196 28.2703 16.7919 27.3934 16.3061C26.6871 15.9157 25.5743 16.6349 25.5699 17.4289C25.5641 18.4064 25.5598 19.3839 25.5641 20.3629C25.5656 20.7313 25.5251 21.0542 25.0605 21.1202C24.7192 21.1685 24.691 21.4228 24.6624 21.6798C24.6605 21.6963 24.6587 21.7128 24.6568 21.7293C24.5121 23.015 24.3645 24.3022 24.2168 25.5879C24.2139 25.6142 24.2122 25.6407 24.2105 25.6678C24.2014 25.8122 24.1913 25.9728 23.9781 26.1853L23.811 25.4658L23.8093 25.4585C23.5234 24.2275 23.2486 23.0439 22.9737 21.8614L22.9735 21.8614C22.9142 21.8541 22.855 21.8467 22.7957 21.8409C22.5837 22.5601 22.3714 23.2792 22.159 23.9984C21.9466 24.7176 21.7342 25.4368 21.5222 26.1559C21.3138 25.2517 21.2879 24.35 21.262 23.4493C21.2434 22.7988 21.2247 22.1488 21.1373 21.4989C20.201 23.1838 19.2082 24.8086 17.9695 26.2675C17.9427 26.2536 17.9156 26.2396 17.8885 26.2257C17.8614 26.2117 17.8342 26.1978 17.8074 26.1838C17.8698 25.9809 17.9324 25.7781 17.9949 25.5753C18.1527 25.0639 18.3104 24.5528 18.4658 24.041C20.0288 18.901 18.7263 14.4025 15.2864 10.3898C14.7582 9.77333 14.2242 9.15102 13.6193 8.61237C13.136 8.18233 13.0925 7.81394 13.4326 7.29877C13.4784 7.22891 13.5777 7.10452 13.6949 6.95773C14.0036 6.57095 14.4365 6.0287 14.3414 5.91912C14.2103 5.76794 13.081 6.49593 12.8335 6.66325C12.1917 7.09597 11.771 6.78293 11.3391 6.46154C11.248 6.39377 11.1564 6.32563 11.0622 6.26403C10.9991 6.22271 10.8626 6.10026 10.705 5.95885C10.3923 5.67832 9.99652 5.32321 9.92615 5.37914C9.86031 5.43146 10.073 5.83218 10.256 6.17703C10.3672 6.38648 10.4674 6.57533 10.4877 6.65297C10.6216 7.16372 10.6896 7.42201 10.6083 7.6186C10.5245 7.82143 10.2818 7.95859 9.78867 8.23957C9.71206 8.28358 9.52283 8.3461 9.29235 8.42224C8.90023 8.55178 8.38871 8.72076 8.10926 8.90517C9.66223 8.90517 11.5571 8.93966 11.5542 10.5982C11.5703 10.5899 11.585 10.5824 11.5985 10.5755C11.7157 10.5159 11.7405 10.5033 11.8068 10.3898C12.183 9.74615 12.3688 9.42651 12.6222 9.35847C12.8792 9.28945 13.2058 9.47934 13.8711 9.85259C14.1081 9.98508 14.3364 10.1328 14.5649 10.2807C14.7313 10.3884 14.8978 10.4962 15.0679 10.5982C15.5238 10.8712 15.5136 11.1089 15.1403 11.4964C13.6309 13.0625 12.5195 14.8678 11.8639 16.9372C10.9623 19.7773 10.9811 22.6129 11.8784 25.4485L11.8821 25.4603C12.1403 26.2763 12.1403 26.2763 11.2387 26.2807C10.9652 26.2807 10.6917 26.2807 10.4182 26.2778L10.4045 26.2777C9.00998 26.2719 8.99037 26.2718 8.70765 24.8966C7.77712 20.3878 8.46742 16.152 10.9551 12.2259C11.3024 11.677 11.1041 9.99055 10.6338 9.57079C10.4665 9.42059 10.258 9.41161 10.051 9.40269C10.0092 9.40089 9.96749 9.39909 9.92615 9.39613L9.89883 9.3942H9.89883C8.95278 9.32734 8.00478 9.26034 7 9.0292C7.19886 8.9208 7.39719 8.81133 7.59556 8.70185C8.05255 8.4496 8.50972 8.19726 8.97392 7.95777L8.99953 7.94454C10.0275 7.41329 10.031 7.41152 9.75394 6.30953C9.71613 6.15872 9.67705 6.00828 9.63799 5.85788C9.56642 5.58233 9.49489 5.30693 9.43123 5.02968C9.42689 5.01105 9.42146 4.99133 9.41588 4.97104C9.38231 4.84907 9.34292 4.70596 9.49924 4.64808C9.58318 4.61726 9.73079 4.69945 9.82775 4.76256C9.92961 4.82903 10.0316 4.89526 10.1337 4.96151C10.613 5.27267 11.0925 5.58392 11.5542 5.91912C11.929 6.19211 12.2604 6.2611 12.7148 6.05855C13.2421 5.82155 13.788 5.62368 14.3763 5.41046C14.6405 5.3147 14.9132 5.21584 15.1967 5.10894C15.0898 5.61875 14.8607 6.01592 14.6411 6.39662C14.5338 6.58256 14.4288 6.76457 14.3414 6.95386C14.2758 7.09633 14.2031 7.2352 14.1305 7.37393C14.0894 7.45243 14.0483 7.53089 14.0086 7.60992C13.8928 7.84035 13.9464 8.03409 14.1475 8.19407C14.3487 8.35396 14.5013 8.23425 14.6462 8.12062C14.6556 8.11325 14.6649 8.10591 14.6743 8.09867C15.612 7.36775 16.599 6.71462 17.6713 6.18331C19.0794 5.48614 20.5367 4.93575 22.0895 4.65835C22.6004 4.56735 23.42 4.23798 23.4171 3.65529C23.639 2.9207 23.7869 2.47996 24.6743 2.11265C25.7096 1.89227 26.3433 1.96115 26.9668 2.62687C27.0081 2.68223 27.0443 2.73621 27.0788 2.78756C27.2215 3.0003 27.3338 3.16781 27.6567 3.20091C31.3875 3.59133 34.619 5.1148 37.4757 7.44847C37.9012 7.79632 38.2427 7.93135 38.7999 7.73174C39.7101 7.40591 40.975 7.9816 40.7956 9.01781C40.7781 9.11932 40.7602 9.21767 40.7428 9.31327C40.6003 10.0968 40.4915 10.6944 40.9301 11.3144C42.0062 12.8364 42.6384 14.5647 43.2699 16.2915L43.3193 16.4265C43.3193 16.4265 43.5662 17.4884 43.6797 18.1775C43.8689 19.3261 43.9795 21.8583 43.9974 22.2933C43.9991 22.3146 44 22.336 44 22.3575C44 22.3575 44 22.3575 44 22.3576C44 22.6736 43.9128 23.1056 43.8241 23.5447C43.77 23.8127 43.7154 24.0834 43.6797 24.3318C43.5809 25.0208 43.3248 26.0779 43.3248 26.0779L43.3263 26.0793C42.5169 28.4145 41.3194 30.5284 39.6588 32.3886C39.2822 32.8108 38.8999 33.0204 38.3214 32.9984C37.6261 32.9716 36.9295 32.9775 36.2404 32.9833C35.9515 32.9857 35.6638 32.9882 35.3782 32.9882C35.2938 32.7489 35.4159 32.6624 35.5273 32.5834C35.5532 32.5651 35.5784 32.5472 35.6004 32.5279C37.2134 31.1103 38.4902 29.4451 39.3688 27.4983C39.5593 27.0747 39.8103 26.8885 40.272 26.9237C40.4927 26.9409 40.7154 26.9365 40.9379 26.9321C41.0383 26.9301 41.1386 26.9281 41.2386 26.9281L41.2561 26.9281C42.4104 26.9311 42.4361 26.9311 42.716 25.7803C42.9076 24.9969 43.3029 22.9047 43.4464 21.8664Z" fill="white"/>
<path d="M16.2816 33.0159C18.4159 33.0159 20.5486 33.0188 22.6829 33.0131C23.0763 33.0131 23.4293 33.0677 23.7837 33.256C25.2689 34.0481 26.766 34.051 28.2422 33.2273C28.5159 33.0749 28.7882 33.0016 29.1112 33.003C33.4037 33.0145 37.6977 33.0303 41.9902 33.0001C42.7724 32.9944 43.0237 33.2057 42.9983 33.9317C42.9474 35.4139 42.9594 36.9004 42.9938 38.3826C43.0087 39.0094 42.7679 39.2121 42.0979 39.2078C38.0103 39.1863 33.9242 39.2021 29.8366 39.1949C29.2608 39.1949 28.7403 39.2926 28.2048 39.5198C26.7002 40.1595 25.1642 40.1739 23.6671 39.4795C23.2124 39.2696 22.7697 39.1891 22.2656 39.192C18.1526 39.2064 14.0396 39.1891 9.92658 39.2107C9.22362 39.215 8.98731 39.0037 9.00676 38.3424C9.05013 36.7638 9.04265 35.1824 9.00077 33.6039C8.98731 33.1079 9.14735 33.0016 9.64839 33.0059C11.859 33.0289 14.0695 33.0159 16.2801 33.0159H16.2816Z" fill="#ADADAD"/>
<path d="M17.7966 27.6994C20.2133 28.2652 22.4348 29.1529 24.1061 31.0466C21.8092 28.9263 19.1529 28.2263 15.973 29.2049C19.0434 29.4604 21.7071 30.4938 24.1017 32.21C21.2205 30.745 18.3646 29.1674 14.7898 30.8532C17.6517 30.7883 20.2266 31.2473 22.6626 32.3991C21.0564 32.3991 19.4502 32.4078 17.8454 32.3876C17.6665 32.3847 17.4505 32.2533 17.3204 32.1205C16.2939 31.064 14.9998 31.2574 13.7057 31.3858C13.3034 31.4263 12.5889 31.5172 12.5402 31.3526C12.4915 31.1881 13.1421 30.8475 13.5163 30.7046C14.917 30.1676 14.9125 30.1965 14.0813 29.062C13.6775 28.5106 13.3108 27.9318 12.9647 27.3444C12.5017 26.5592 12.5328 26.5216 13.4542 26.5216C16.5557 26.5202 19.6572 26.5216 22.7587 26.5216C27.9442 26.5216 33.1311 26.5173 38.3165 26.5361C38.5768 26.5361 39.0984 26.4653 39.0723 26.8045C39.0427 27.1885 38.8726 27.6966 38.2736 27.7182C37.5889 27.7427 36.9011 27.7211 36.2148 27.7341C35.8007 27.7427 35.3141 27.7629 35.323 28.2883C35.3304 28.7589 35.7859 28.7863 36.1779 28.8051C36.2533 28.8094 36.3317 28.7993 36.4056 28.8108C36.876 28.7747 37.5715 28.7747 37.6584 28.9725C37.8137 29.3261 37.2265 29.6725 36.944 29.9987C36.2503 30.8013 35.4265 31.4811 34.5465 32.1003C34.2034 32.3428 33.8425 32.4482 33.4151 32.4467C31.2794 32.4381 29.1437 32.4309 27.0094 32.4539C26.4992 32.4597 26.2359 32.2721 26.0259 31.8463C25.421 30.618 24.6962 29.4618 23.4657 28.6824C22.2559 27.9174 20.8952 27.6908 19.4709 27.6994C18.9118 27.7023 18.3542 27.6994 17.7951 27.6994H17.7966Z" fill="white"/>
<path d="M28.6514 14.8536C27.9696 14.8406 27.2774 14.907 26.6133 14.6876C26.2214 14.5577 25.7954 14.4018 25.6608 14.0236C25.2526 12.8732 24.2824 12.7838 23.2618 12.8675C22.7457 12.9093 22.3848 12.8545 22.1038 12.4186C21.7148 11.8152 21.0537 11.6377 20.3822 11.6796C19.0718 11.7604 18.1429 10.9838 17.1017 10.47C16.6196 10.2318 17.0085 10.0023 17.2422 9.8378C19.2404 8.43195 21.4796 7.55437 23.9422 7.2527C28.1707 6.73308 31.9244 7.81418 35.2463 10.3329C35.8202 10.7673 35.8705 11.056 35.4016 11.5872C34.5394 12.5644 34.566 12.5932 33.8324 11.5641C33.4183 10.9824 32.9361 10.4585 32.3903 9.98791C32.204 9.8277 32.0058 9.64006 31.7218 9.73965C31.392 9.85512 31.3964 10.1496 31.4024 10.4094C31.4275 11.5598 31.883 12.6105 32.272 13.6772C32.5619 14.4696 32.5619 14.4509 31.676 14.5692C30.6702 14.702 29.6749 14.9113 28.6499 14.8536H28.6514Z" fill="#1E1D1D"/>
<path d="M32.8622 17.0243C33.8132 17.0272 34.3885 17.4804 34.5764 18.2829C34.6207 18.4734 34.5571 18.6135 34.4507 18.7491C33.4035 20.077 32.3283 21.3819 30.969 22.4456C30.9306 22.476 30.8877 22.5048 30.8433 22.5279C30.5002 22.704 30.1719 23.0952 29.7548 22.8238C29.3406 22.5553 29.5521 22.1137 29.6542 21.7571C30.0979 20.1925 30.8818 18.7693 31.7219 17.3693C32.028 16.8597 32.5235 17.0907 32.8622 17.0243Z" fill="#1E1D1D"/>
<path d="M36.5569 14.3415C36.1827 14.2347 35.6399 14.4281 35.2658 13.8421C34.8413 13.1767 34.8635 12.7234 35.4063 12.136C36.4785 10.9784 37.4991 9.77749 38.771 8.80609C39.1689 8.50154 39.6333 8.02667 40.1776 8.36442C40.6997 8.68774 40.3846 9.25643 40.2796 9.70388C40.0119 10.8369 39.4602 11.8704 38.9589 12.9226C38.771 13.3167 38.348 13.666 38.6113 14.1813C38.6586 14.2736 38.6083 14.3747 38.4811 14.3949C38.3303 14.4194 38.1646 14.4425 38.0507 14.3285C37.9443 14.2217 38.033 14.1019 38.0936 14.0008C38.6409 13.0756 39.1082 12.1187 39.478 11.117C39.6392 10.6825 39.7575 10.2437 39.7413 9.77894C39.722 9.24488 39.404 9.07312 38.9308 9.28385C37.9916 9.70388 37.3083 10.4256 36.6531 11.1631C36.4504 11.3926 36.6309 11.5557 36.7788 11.7261C37.0687 12.0595 37.5952 12.7321 37.9117 13.0424C38.3347 13.4581 37.9825 13.6948 37.6958 13.9691C37.3201 14.3285 37.0835 14.4108 36.5584 14.3415H36.5569Z" fill="#1E1D1D"/>
<path d="M23.8252 4.05575C23.8178 3.32107 24.2512 2.75815 24.9877 2.54453C25.6947 2.33957 26.5037 2.56185 26.8247 3.2056C27.0924 3.74398 27.4947 3.83636 28.0168 3.88976C31.6078 4.25638 34.7655 5.59151 37.5549 7.73782C37.5949 7.76813 37.6378 7.79556 37.6688 7.83309C37.836 8.02361 38.2811 8.18816 38.0711 8.42776C37.8153 8.72077 37.6111 8.29641 37.4263 8.15352C34.6354 6.01154 31.4998 4.64032 27.8984 4.28092C27.4207 4.23329 27.119 4.30546 26.8853 4.77744C26.5466 5.46016 25.7494 5.74018 25.0173 5.55831C24.337 5.38944 23.8311 4.7529 23.8237 4.05719L23.8252 4.05575Z" fill="#1E1D1D"/>
<path d="M31.9287 11.2206C31.9583 10.9911 31.8592 10.7299 32.1269 10.623C32.3739 10.5249 32.5647 10.7096 32.7289 10.8482C33.3234 11.3491 33.7257 11.9943 34.1724 12.6063C34.4342 12.9657 34.1029 13.2038 33.9106 13.4189C33.6266 13.735 33.5068 14.3744 33.0291 14.3022C32.5721 14.2344 32.5972 13.6051 32.4345 13.2168C32.1639 12.5702 31.9583 11.9004 31.9287 11.2192V11.2206Z" fill="#1E1D1D"/>
<path d="M37.5451 20.1047C37.5333 20.3919 37.5495 20.6041 37.3232 20.6993C37.1058 20.7917 36.9328 20.6719 36.7745 20.5435C36.174 20.0484 35.7289 19.4335 35.294 18.8128C35.0234 18.426 35.3428 18.1705 35.5469 17.9223C35.8146 17.5961 35.9182 16.9509 36.3944 17.023C36.8322 17.0894 36.8307 17.7202 36.9905 18.1114C37.2626 18.784 37.449 19.484 37.5451 20.1061V20.1047Z" fill="#1E1D1D"/>
<path d="M31.0858 16.6024C30.4069 16.5548 29.8138 16.4479 29.237 16.2617C29.0462 16.1996 28.8258 16.1187 28.814 15.9007C28.8007 15.6494 29.0477 15.6277 29.2399 15.5772C30.2324 15.3101 31.1849 14.9072 32.2261 14.8104C32.3947 14.7945 32.5929 14.7065 32.7068 14.8927C32.8147 15.0703 32.6535 15.2046 32.5633 15.3418C32.3903 15.6061 32.1876 15.8544 32.0427 16.1317C31.8208 16.5548 31.5236 16.7699 31.0858 16.6039V16.6024Z" fill="#1F1E1E" fill-opacity="0.95"/>
<path d="M34.9893 16.7121C34.1019 16.7323 33.3032 15.9713 33.3076 15.154C33.3076 14.975 33.3505 14.8046 33.5487 14.7511C34.1122 14.5981 34.692 14.5302 35.2659 14.6558C35.5631 14.7208 36.242 16.0637 36.1326 16.328C35.9033 16.881 35.3975 16.7237 34.9908 16.7106L34.9893 16.7121Z" fill="#1E1D1D"/>
<path d="M36.5079 16.0275C36.2002 15.4528 35.7269 15.112 35.9858 14.6831C36.1174 14.4665 36.783 14.4795 36.9383 14.7033C37.274 15.1856 36.604 15.4224 36.5079 16.0275Z" fill="#1E1D1D"/>
<path d="M32.9127 16.7375C32.7042 16.6566 32.2871 16.8371 32.3478 16.4602C32.4054 16.1035 32.611 15.6169 33.0044 15.6039C33.321 15.5938 33.4378 16.0992 33.491 16.4097C33.565 16.8544 33.1287 16.6537 32.9142 16.7389L32.9127 16.7375Z" fill="#1E1D1D"/>
<path d="M34.4136 14.3978C34.2258 14.3343 33.853 14.5018 33.9078 14.174C33.9595 13.865 34.1843 13.465 34.5156 13.4318C34.8573 13.3986 35.0289 13.8145 35.0407 14.0975C35.057 14.5018 34.6399 14.3199 34.4136 14.3964V14.3978Z" fill="#1E1D1D"/>
<path d="M35.5953 17.0404C35.3616 17.4158 35.3291 17.9775 34.8351 17.9544C34.5807 17.9429 34.279 17.4245 34.4076 17.205C34.6532 16.7891 35.1797 17.1227 35.5953 17.0404Z" fill="#1E1D1D"/>
<path d="M23.5132 37.9349C22.8521 37.9349 22.191 37.9219 21.5299 37.9378C20.9841 37.9508 20.7194 37.6953 20.7075 37.2089C20.6883 36.4164 20.6942 35.6226 20.6942 34.8302C20.6942 34.3885 21.0078 34.3524 21.3716 34.351C21.7443 34.3495 21.9499 34.4823 21.9499 34.8518C21.9499 35.4292 21.9588 36.0051 21.9499 36.5824C21.9455 36.9029 22.0579 37.0775 22.4291 37.0804C22.7856 37.0833 22.9394 36.9361 22.9364 36.607C22.932 36.1263 22.9379 35.6457 22.9408 35.165C22.9423 34.7565 22.861 34.3336 23.5561 34.3423C24.2128 34.351 24.1211 34.7522 24.1255 35.1304C24.1315 35.611 24.1315 36.0917 24.13 36.5723C24.13 36.8812 24.2379 37.0775 24.6121 37.0746C24.9789 37.0717 25.0973 36.8798 25.0987 36.5694C25.1002 36.0166 25.118 35.4638 25.1061 34.911C25.0958 34.4549 25.3531 34.3567 25.7791 34.3452C26.2405 34.3322 26.3352 34.5328 26.3234 34.9139C26.3012 35.6341 26.2967 36.3558 26.3189 37.0761C26.3367 37.6794 26.0852 37.9681 25.4212 37.9406C24.7867 37.9147 24.1507 37.9349 23.5147 37.9349H23.5132Z" fill="#1E1D1D"/>
<path d="M20.2092 36.1479C20.2136 37.5653 19.7255 38.0185 18.1918 38.017C16.6018 38.017 16.0694 37.5494 16.0664 36.1536C16.0635 34.7362 16.5175 34.3292 18.1045 34.3249C19.7876 34.3205 20.2032 34.6814 20.2092 36.1479Z" fill="#1E1D1D"/>
<path d="M37.8053 37.9306C37.6278 37.9306 37.4488 37.9364 37.2713 37.9306C36.3011 37.8931 35.8678 37.2118 36.3381 36.3934C36.4801 36.1466 36.483 36.0066 36.3662 35.7569C36.0053 34.9933 36.3958 34.4116 37.2699 34.3582C37.5731 34.3395 37.8807 34.3481 38.1854 34.3539C39.2813 34.3727 39.6363 34.8418 39.2873 35.8435C39.2281 36.0138 39.2 36.1249 39.2873 36.3039C39.8286 37.398 39.4647 37.9263 38.1869 37.9378C38.0597 37.9378 37.9325 37.9378 37.8053 37.9378V37.9335V37.9306Z" fill="#1E1D1D"/>
<path d="M13.661 37.9362C12.8416 37.9362 12.1021 36.6415 12.6316 35.0451C12.8475 34.6496 13.2203 34.4273 13.661 34.384C14.1875 34.332 14.7244 34.3609 15.2569 34.3609C15.5246 34.3609 15.6813 34.4865 15.6947 34.7535C15.7094 35.0609 15.5408 35.188 15.2347 35.1923C15.0321 35.1952 14.8279 35.1923 14.6268 35.2024C13.9228 35.2414 13.6447 35.5344 13.658 36.22C13.6684 36.8031 13.7598 36.9475 14.6268 37.0023C14.9404 37.0221 15.6874 36.858 15.6917 37.5436C15.6947 38.0127 14.9862 37.9362 14.5203 37.9362C14.4981 37.9434 14.47 37.9362 14.4449 37.9362H13.661Z" fill="#1E1D1D"/>
<path d="M34.3309 34.351C34.3811 34.351 34.4329 34.3437 34.4832 34.351C34.9732 34.3524 35.6752 34.26 35.8927 34.6151C36.1367 35.0135 35.6886 35.549 35.4327 35.9676C35.1162 36.4857 34.7568 36.9823 34.4181 37.4889C34.2806 37.6938 34.1504 37.9089 33.8531 37.9161C33.5795 37.9219 33.1787 37.9407 33.0589 37.8295C32.8859 37.6101 33.1935 37.4023 33.3222 37.2103C33.6609 36.7037 34.0158 36.2072 34.3782 35.715C34.6607 35.3325 34.4995 35.2026 34.0779 35.1982C33.7733 35.1953 33.4686 35.1939 33.1654 35.1925C32.8947 35.1925 32.6507 35.1708 32.6625 34.8172C32.6729 34.4823 32.8518 34.3481 33.192 34.3524C33.5721 34.3582 33.9537 34.3524 34.3338 34.3524V34.3481L34.3309 34.351Z" fill="#1E1D1D"/>
<path d="M29.8503 36.93C29.972 36.471 29.8814 35.9644 29.9435 35.5906C29.9731 35.4116 30.0263 35.2543 30.2585 35.2571C30.4922 35.26 30.5544 35.4275 30.5573 35.6036C30.5677 36.204 30.5677 36.8044 30.5632 37.4049C30.5617 37.6618 30.4789 37.8812 30.1713 37.9476C29.871 38.0126 29.6033 37.9418 29.4259 37.708C29.1892 37.3962 28.9895 37.0599 28.7633 36.7409C28.6716 36.611 28.6124 36.3916 28.3817 36.471C28.2101 36.5302 28.2648 36.7164 28.2574 36.8521C28.2426 37.0917 28.2486 37.3327 28.2367 37.5723C28.2279 37.7614 28.1406 37.8942 27.9173 37.9014C27.6954 37.9101 27.5741 37.7845 27.5741 37.5969C27.5712 36.9502 27.5741 36.3022 27.6067 35.6555C27.6185 35.4275 27.793 35.2644 28.0504 35.2225C28.3846 35.1677 28.6523 35.2773 28.8402 35.5415C29.133 35.9529 29.4125 36.4075 29.7764 36.93H29.8503Z" fill="#1E1D1D"/>
<path d="M31.0135 35.8351C30.9928 35.4495 31.1452 35.204 31.6155 35.2098C32.0296 35.2156 32.2101 35.4076 32.2012 35.7903C32.1908 36.1744 32.0548 36.4502 31.5918 36.4459C31.1822 36.4415 31.0017 36.2249 31.015 35.8351H31.0135Z" fill="#1E1D1D"/>
<path d="M31.1084 36.7695C31.1084 36.9992 31.7 36.9303 31.7 36.9303C31.7 36.9303 32.0907 36.9238 32.0907 36.7794C31.9958 36.5786 31.1641 36.6162 31.1084 36.7695Z" fill="#1E1D1D"/>
<path d="M33.4396 28.7915C33.0861 28.7915 32.7326 28.8074 32.3806 28.7872C32.0745 28.7713 31.8393 28.6197 31.8112 28.3121C31.7787 27.9482 32.0567 27.7779 32.3762 27.7634C33.1053 27.7316 33.8389 27.7374 34.5696 27.7591C34.9083 27.7692 35.139 27.9396 35.1212 28.3064C35.105 28.6385 34.8787 28.7684 34.5755 28.7843C34.1983 28.8031 33.8182 28.7887 33.4411 28.7901L33.4396 28.7915Z" fill="#1E1D1D"/>
<path d="M28.0282 31.71C27.6495 31.6941 27.2694 31.6956 26.8938 31.6566C26.5639 31.6219 26.4205 31.4111 26.4427 31.1006C26.4619 30.8147 26.6423 30.6501 26.9263 30.6443C27.6333 30.6299 28.3417 30.6284 29.0472 30.6544C29.3637 30.666 29.5589 30.8653 29.5427 31.18C29.5279 31.4862 29.3415 31.6681 29.0132 31.6811C28.6848 31.6941 28.3565 31.71 28.0282 31.71C28.0282 31.7187 28.0282 31.7013 28.0282 31.71Z" fill="#1E1D1D"/>
<path d="M28.5064 29.1882C28.7 29.1882 28.8126 29.1824 28.9634 29.1998C29.2903 29.2373 29.5743 29.3514 29.5713 29.7181C29.5698 30.0748 29.3154 30.2221 28.9723 30.2394C28.6676 30.2539 28.3629 30.251 28.0583 30.2467C27.6885 30.2423 27.3942 30.1282 27.3883 29.721C27.3824 29.3081 27.6841 29.2041 28.0494 29.1882C28.2017 29.1824 28.3541 29.1882 28.5064 29.1882C28.5064 29.1911 28.5064 29.1796 28.5064 29.1882Z" fill="#1E1D1D"/>
<path d="M30.6972 28.8071C30.2889 28.7826 29.8053 28.8447 29.7979 28.2786C29.792 27.7183 30.2623 27.7328 30.672 27.7371C31.098 27.74 31.6171 27.688 31.5994 28.2988C31.5831 28.8649 31.0817 28.7768 30.6972 28.8071Z" fill="#1E1D1D"/>
<path d="M30.7575 29.1848C31.1776 29.2079 31.6538 29.1819 31.5991 29.7566C31.5414 30.3573 31.0134 30.236 30.6037 30.2447C30.2132 30.2534 29.7828 30.2303 29.805 29.7176C29.8316 29.114 30.3577 29.1848 30.7575 29.1848Z" fill="#1E1D1D"/>
<path d="M35.9122 29.204C36.3588 29.2083 36.6295 29.3542 36.5851 29.7614C36.5422 30.1397 36.2331 30.2581 35.8708 30.2393C35.5321 30.222 35.2954 30.0819 35.2939 29.7166C35.2939 29.2834 35.6193 29.2083 35.9122 29.204Z" fill="#1E1D1D"/>
<path d="M32.7853 30.2447C32.3652 30.2186 32.0961 30.0757 32.1316 29.6714C32.1685 29.2627 32.5043 29.1963 32.8474 29.2122C33.1802 29.2281 33.4227 29.3754 33.4213 29.7392C33.4183 30.1724 33.0932 30.2447 32.7838 30.2447H32.7853Z" fill="#1E1D1D"/>
<path d="M31.1319 31.1427C31.1068 31.5528 30.8125 31.6611 30.4546 31.6726C30.0996 31.6842 29.857 31.5224 29.8452 31.173C29.8304 30.7499 30.1676 30.6632 30.5137 30.6546C30.8494 30.6474 31.1068 30.7759 31.1305 31.1427H31.1319Z" fill="#1E1D1D"/>
<path d="M32.0231 30.6555C32.4505 30.6454 32.7227 30.7421 32.7271 31.1176C32.7316 31.5031 32.486 31.6793 32.0971 31.6735C31.714 31.6677 31.4611 31.4973 31.47 31.1118C31.4788 30.7291 31.7805 30.667 32.0231 30.6569V30.6555Z" fill="#1E1D1D"/>
<path d="M34.9698 29.702C34.9801 30.0659 34.7583 30.2247 34.4122 30.2334C34.0528 30.2435 33.7585 30.1381 33.7511 29.7265C33.7452 29.3424 34.0114 29.2529 34.3486 29.2515C34.6769 29.2515 34.9565 29.3136 34.9698 29.7005V29.702Z" fill="#1E1D1D"/>
<path d="M20.0256 8.82767C20.9278 8.83344 21.7191 9.42523 21.691 10.0733C21.6614 10.7762 20.8968 11.3911 20.0626 11.3839C19.2299 11.3781 18.6043 10.7892 18.625 10.0314C18.6442 9.31409 19.2181 8.82333 20.0256 8.82767Z" fill="white"/>
<path d="M25.4923 11.4405C25.476 12.174 24.948 12.6982 24.2233 12.6968C23.4557 12.6968 22.7443 12.0556 22.7827 11.4015C22.8168 10.8094 23.469 10.3777 24.3017 10.3965C25.0146 10.4123 25.5041 10.8412 25.4908 11.4405H25.4923Z" fill="white"/>
<path d="M26.4213 3.96674C26.3592 4.54434 26.1048 4.91689 25.4851 4.92989C24.8846 4.94288 24.5089 4.61798 24.4882 4.07504C24.4675 3.53498 24.8091 3.1812 25.4126 3.15088C26.0338 3.11911 26.3074 3.47867 26.4213 3.96674Z" fill="white"/>
<path d="M35.4265 15.5021C35.4265 15.9743 35.15 16.2587 34.6974 16.2515C34.2611 16.2443 33.9801 15.9844 33.9874 15.5584C33.9948 15.1772 34.2404 14.9129 34.6515 14.897C35.1026 14.8797 35.3969 15.2075 35.4265 15.5021Z" fill="white"/>
<path d="M18.9788 36.1971C19.0188 36.7386 18.8354 37.0939 18.1447 37.0924C17.4451 37.0924 17.2987 36.6838 17.2913 36.1567C17.2839 35.6282 17.4333 35.2008 18.1166 35.1878C18.8442 35.1748 19.0084 35.5993 18.9788 36.1971Z" fill="#ADADAD"/>
<path d="M37.8555 37.0736C37.6617 37.0606 37.4502 37.0288 37.4547 36.7747C37.4591 36.5653 37.644 36.5147 37.8274 36.5119C38.0389 36.5075 38.2474 36.5552 38.243 36.8064C38.2385 37.0129 38.0581 37.0606 37.857 37.0721L37.8555 37.0736Z" fill="#ADADAD"/>
<path d="M37.8242 35.7511C37.6482 35.7266 37.5181 35.6616 37.5284 35.4825C37.5388 35.3078 37.6778 35.2385 37.8375 35.2356C38.0416 35.2313 38.1881 35.3324 38.157 35.5388C38.1333 35.7064 37.9721 35.7439 37.8227 35.7511H37.8242Z" fill="#ADADAD"/>
<path d="M31.5595 35.5154C31.7606 35.5284 31.7961 35.667 31.7991 35.8157C31.8005 35.9341 31.7813 36.0684 31.6275 36.0944C31.4323 36.1276 31.3628 35.9962 31.348 35.8432C31.3332 35.6915 31.3746 35.5587 31.5595 35.5168V35.5154Z" fill="#ADADAD"/>
<path d="M11 42.5693V41H11.3144L11.688 42.1112C11.7225 42.2146 11.7476 42.2921 11.7634 42.3435C11.7813 42.2864 11.8093 42.2025 11.8474 42.0919L12.2253 41H12.5063V42.5693H12.305V41.2558L11.8463 42.5693H11.6579L11.2013 41.2334V42.5693H11Z" fill="white"/>
<path d="M12.8358 43.0071L12.8142 42.8262C12.8566 42.8377 12.8936 42.8434 12.9252 42.8434C12.9682 42.8434 13.0027 42.8362 13.0285 42.822C13.0544 42.8077 13.0755 42.7877 13.092 42.762C13.1042 42.7427 13.124 42.6949 13.1513 42.6186C13.1548 42.6079 13.1606 42.5922 13.1685 42.5715L12.7346 41.4325H12.9435L13.1814 42.0908C13.2123 42.1743 13.2399 42.2621 13.2643 42.3542C13.2866 42.2657 13.3131 42.1793 13.344 42.0951L13.5884 41.4325H13.7822L13.3472 42.5886C13.3006 42.7135 13.2643 42.7995 13.2385 42.8466C13.204 42.9101 13.1645 42.9565 13.12 42.9857C13.0755 43.0157 13.0224 43.0307 12.9607 43.0307C12.9234 43.0307 12.8817 43.0228 12.8358 43.0071Z" fill="white"/>
<path d="M13.948 41.4325H14.1418V41.9056H14.6791V41.4325H14.8729V42.5693H14.6791V42.0651H14.1418V42.5693H13.948V41.4325Z" fill="white"/>
<path d="M15.1658 41.4325H15.3596V42.2996L15.8969 41.4325H16.1057V42.5693H15.9119V41.7076L15.3747 42.5693H15.1658V41.4325Z" fill="white"/>
<path d="M16.4008 41.4325H16.5946V42.4109H17.1308V41.4325H17.3246V42.4109H17.4495V42.8915H17.2901V42.5693H16.4008V41.4325Z" fill="white"/>
<path d="M17.6616 41.4325H17.8554V42.2996L18.3927 41.4325H18.6015V42.5693H18.4077V41.7076L17.8705 42.5693H17.6616V41.4325Z" fill="white"/>
<path d="M18.8944 41.4325H19.7967V42.5693H19.6029V41.592H19.0882V42.5693H18.8944V41.4325Z" fill="white"/>
<path d="M20.8346 42.4291C20.7629 42.4897 20.6936 42.5326 20.6268 42.5575C20.5608 42.5825 20.4897 42.595 20.4136 42.595C20.288 42.595 20.1915 42.5647 20.124 42.504C20.0565 42.4426 20.0228 42.3645 20.0228 42.2696C20.0228 42.2139 20.0354 42.1633 20.0605 42.1176C20.0863 42.0712 20.1197 42.0341 20.1606 42.0062C20.2022 41.9784 20.2489 41.9574 20.3006 41.9431C20.3386 41.9331 20.3961 41.9235 20.4729 41.9142C20.6293 41.8956 20.7445 41.8735 20.8185 41.8478C20.8192 41.8214 20.8196 41.8046 20.8196 41.7975C20.8196 41.719 20.8013 41.6637 20.7646 41.6316C20.7151 41.588 20.6415 41.5663 20.5439 41.5663C20.4528 41.5663 20.3853 41.5823 20.3415 41.6145C20.2984 41.6459 20.2665 41.7019 20.2457 41.7825L20.0562 41.7568C20.0734 41.6762 20.1018 41.6112 20.1412 41.562C20.1807 41.512 20.2378 41.4739 20.3124 41.4475C20.3871 41.4203 20.4736 41.4068 20.5719 41.4068C20.6695 41.4068 20.7489 41.4182 20.8099 41.441C20.8709 41.4639 20.9157 41.4928 20.9445 41.5277C20.9732 41.562 20.9933 41.6055 21.0048 41.6583C21.0112 41.6912 21.0144 41.7504 21.0144 41.836V42.093C21.0144 42.2721 21.0184 42.3856 21.0263 42.4334C21.0349 42.4805 21.0514 42.5258 21.0758 42.5693H20.8734C20.8533 42.5294 20.8404 42.4826 20.8346 42.4291ZM20.8185 41.9988C20.7481 42.0273 20.6426 42.0516 20.5019 42.0715C20.4223 42.083 20.3659 42.0958 20.3329 42.1101C20.2999 42.1244 20.2744 42.1454 20.2564 42.1732C20.2385 42.2004 20.2295 42.2307 20.2295 42.2642C20.2295 42.3156 20.2489 42.3584 20.2877 42.3927C20.3271 42.4269 20.3846 42.4441 20.4599 42.4441C20.5346 42.4441 20.601 42.428 20.6591 42.3959C20.7173 42.3631 20.76 42.3185 20.7873 42.2621C20.8081 42.2186 20.8185 42.1543 20.8185 42.0694V41.9988Z" fill="white"/>
<path d="M21.4107 41.4325H22.3108V42.5693H22.1181V41.592H21.6045V42.1583C21.6045 42.2903 21.6002 42.3773 21.5916 42.4195C21.5829 42.4616 21.5593 42.4983 21.5205 42.5297C21.4817 42.5611 21.4257 42.5768 21.3525 42.5768C21.3073 42.5768 21.2553 42.574 21.1964 42.5683V42.4077H21.2815C21.3217 42.4077 21.3504 42.4038 21.3676 42.3959C21.3848 42.3873 21.3963 42.3741 21.4021 42.3563C21.4078 42.3385 21.4107 42.2803 21.4107 42.1818V41.4325Z" fill="white"/>
<path d="M22.6004 41.4325H22.7942V41.8767H23.0397C23.1998 41.8767 23.3229 41.9078 23.409 41.9699C23.4959 42.0312 23.5393 42.1162 23.5393 42.2246C23.5393 42.3195 23.5031 42.4009 23.4306 42.4687C23.3588 42.5358 23.2436 42.5693 23.0849 42.5693H22.6004V41.4325ZM22.7942 42.4109H22.9977C23.1205 42.4109 23.2081 42.3959 23.2605 42.3659C23.3129 42.336 23.3391 42.2892 23.3391 42.2257C23.3391 42.1765 23.3197 42.1326 23.2809 42.094C23.2421 42.0555 23.1564 42.0362 23.0236 42.0362H22.7942V42.4109Z" fill="white"/>
<path d="M23.7547 41.4325H23.9485V41.9056H24.4857V41.4325H24.6795V42.5693H24.4857V42.0651H23.9485V42.5693H23.7547V41.4325Z" fill="white"/>
<path d="M24.9003 42.0009C24.9003 41.7904 24.9591 41.6344 25.0769 41.5331C25.1752 41.4489 25.2951 41.4068 25.4365 41.4068C25.5937 41.4068 25.7222 41.4582 25.8219 41.5609C25.9217 41.663 25.9716 41.8043 25.9716 41.9848C25.9716 42.1311 25.9493 42.2464 25.9048 42.3306C25.8611 42.4141 25.7968 42.479 25.7121 42.5254C25.6281 42.5718 25.5362 42.595 25.4365 42.595C25.2764 42.595 25.1468 42.544 25.0478 42.4419C24.9494 42.3399 24.9003 42.1929 24.9003 42.0009ZM25.0995 42.0009C25.0995 42.1465 25.1314 42.2557 25.1953 42.3285C25.2592 42.4005 25.3396 42.4366 25.4365 42.4366C25.5327 42.4366 25.6127 42.4002 25.6766 42.3274C25.7405 42.2546 25.7724 42.1436 25.7724 41.9945C25.7724 41.8539 25.7401 41.7476 25.6755 41.6755C25.6116 41.6027 25.5319 41.5663 25.4365 41.5663C25.3396 41.5663 25.2592 41.6023 25.1953 41.6744C25.1314 41.7465 25.0995 41.8553 25.0995 42.0009Z" fill="white"/>
<path d="M26.9826 42.2032L27.1829 42.2278C27.1513 42.3442 27.0928 42.4344 27.0074 42.4987C26.922 42.5629 26.8129 42.595 26.6801 42.595C26.5128 42.595 26.38 42.544 26.2817 42.4419C26.1841 42.3392 26.1353 42.1954 26.1353 42.0105C26.1353 41.8193 26.1848 41.6708 26.2838 41.5652C26.3829 41.4596 26.5114 41.4068 26.6693 41.4068C26.8222 41.4068 26.9471 41.4585 27.044 41.562C27.1409 41.6655 27.1894 41.8111 27.1894 41.9988C27.1894 42.0102 27.189 42.0273 27.1883 42.0501H26.3355C26.3427 42.175 26.3782 42.2707 26.4421 42.337C26.506 42.4034 26.5857 42.4366 26.6811 42.4366C26.7522 42.4366 26.8129 42.418 26.8631 42.3809C26.9134 42.3438 26.9532 42.2846 26.9826 42.2032ZM26.3463 41.8917H26.9848C26.9762 41.7961 26.9518 41.7244 26.9116 41.6765C26.8498 41.6023 26.7698 41.5652 26.6715 41.5652C26.5824 41.5652 26.5074 41.5948 26.4464 41.6541C26.3861 41.7133 26.3528 41.7925 26.3463 41.8917Z" fill="white"/>
<path d="M28.7872 42.4291C28.7154 42.4897 28.6461 42.5326 28.5794 42.5575C28.5133 42.5825 28.4423 42.595 28.3662 42.595C28.2406 42.595 28.144 42.5647 28.0766 42.504C28.0091 42.4426 27.9753 42.3645 27.9753 42.2696C27.9753 42.2139 27.9879 42.1633 28.013 42.1176C28.0389 42.0712 28.0723 42.0341 28.1132 42.0062C28.1548 41.9784 28.2015 41.9574 28.2531 41.9431C28.2912 41.9331 28.3486 41.9235 28.4254 41.9142C28.5819 41.8956 28.6971 41.8735 28.771 41.8478C28.7717 41.8214 28.7721 41.8046 28.7721 41.7975C28.7721 41.719 28.7538 41.6637 28.7172 41.6316C28.6677 41.588 28.5941 41.5663 28.4965 41.5663C28.4053 41.5663 28.3378 41.5823 28.2941 41.6145C28.251 41.6459 28.219 41.7019 28.1982 41.7825L28.0087 41.7568C28.026 41.6762 28.0543 41.6112 28.0938 41.562C28.1333 41.512 28.1903 41.4739 28.265 41.4475C28.3396 41.4203 28.4261 41.4068 28.5245 41.4068C28.6221 41.4068 28.7014 41.4182 28.7624 41.441C28.8234 41.4639 28.8683 41.4928 28.897 41.5277C28.9257 41.562 28.9458 41.6055 28.9573 41.6583C28.9638 41.6912 28.967 41.7504 28.967 41.836V42.093C28.967 42.2721 28.9709 42.3856 28.9788 42.4334C28.9874 42.4805 29.004 42.5258 29.0284 42.5693H28.8259C28.8058 42.5294 28.7929 42.4826 28.7872 42.4291ZM28.771 41.9988C28.7007 42.0273 28.5952 42.0516 28.4545 42.0715C28.3748 42.083 28.3185 42.0958 28.2854 42.1101C28.2524 42.1244 28.2269 42.1454 28.209 42.1732C28.191 42.2004 28.1821 42.2307 28.1821 42.2642C28.1821 42.3156 28.2015 42.3584 28.2402 42.3927C28.2797 42.4269 28.3371 42.4441 28.4125 42.4441C28.4871 42.4441 28.5535 42.428 28.6117 42.3959C28.6698 42.3631 28.7125 42.3185 28.7398 42.2621C28.7606 42.2186 28.771 42.1543 28.771 42.0694V41.9988Z" fill="white"/>
<path d="M29.2695 41.4325H29.7164C29.8262 41.4325 29.9077 41.4418 29.9608 41.4603C30.0146 41.4781 30.0606 41.5113 30.0986 41.5599C30.1374 41.6084 30.1568 41.6666 30.1568 41.7343C30.1568 41.7886 30.1453 41.836 30.1223 41.8767C30.1 41.9167 30.0663 41.9502 30.0211 41.9773C30.0749 41.9952 30.1194 42.0287 30.1546 42.078C30.1905 42.1265 30.2084 42.1843 30.2084 42.2514C30.2013 42.3592 30.1625 42.4391 30.0921 42.4912C30.0218 42.5433 29.9195 42.5693 29.7853 42.5693H29.2695V41.4325ZM29.4634 41.911H29.6701C29.7526 41.911 29.8093 41.9067 29.8402 41.8981C29.8711 41.8896 29.8987 41.8724 29.9231 41.8467C29.9475 41.8203 29.9597 41.7889 29.9597 41.7525C29.9597 41.6926 29.9382 41.6509 29.8951 41.6273C29.8528 41.6037 29.7799 41.592 29.6765 41.592H29.4634V41.911ZM29.4634 42.4109H29.7185C29.8284 42.4109 29.9037 42.3984 29.9446 42.3734C29.9856 42.3477 30.0071 42.3038 30.0092 42.2418C30.0092 42.2054 29.9974 42.1718 29.9737 42.1411C29.95 42.1097 29.9192 42.0901 29.8811 42.0823C29.8431 42.0737 29.7821 42.0694 29.6981 42.0694H29.4634V42.4109Z" fill="white"/>
<path d="M30.286 41.4325H31.2152V41.592H30.8469V42.5693H30.6542V41.592H30.286V41.4325Z" fill="white"/>
<path d="M31.3024 42.0009C31.3024 41.7904 31.3612 41.6344 31.4789 41.5331C31.5773 41.4489 31.6972 41.4068 31.8386 41.4068C31.9958 41.4068 32.1243 41.4582 32.224 41.5609C32.3238 41.663 32.3737 41.8043 32.3737 41.9848C32.3737 42.1311 32.3514 42.2464 32.3069 42.3306C32.2631 42.4141 32.1989 42.479 32.1142 42.5254C32.0302 42.5718 31.9383 42.595 31.8386 42.595C31.6785 42.595 31.5489 42.544 31.4499 42.4419C31.3515 42.3399 31.3024 42.1929 31.3024 42.0009ZM31.5016 42.0009C31.5016 42.1465 31.5335 42.2557 31.5974 42.3285C31.6613 42.4005 31.7417 42.4366 31.8386 42.4366C31.9348 42.4366 32.0148 42.4002 32.0787 42.3274C32.1426 42.2546 32.1745 42.1436 32.1745 41.9945C32.1745 41.8539 32.1422 41.7476 32.0776 41.6755C32.0137 41.6027 31.934 41.5663 31.8386 41.5663C31.7417 41.5663 31.6613 41.6023 31.5974 41.6744C31.5335 41.7465 31.5016 41.8553 31.5016 42.0009Z" fill="white"/>
<path d="M32.603 41.4325H32.7968V41.9056H33.3341V41.4325H33.5279V42.5693H33.3341V42.0651H32.7968V42.5693H32.603V41.4325Z" fill="white"/>
<path d="M33.7486 42.0009C33.7486 41.7904 33.8075 41.6344 33.9252 41.5331C34.0236 41.4489 34.1434 41.4068 34.2848 41.4068C34.442 41.4068 34.5705 41.4582 34.6703 41.5609C34.7701 41.663 34.82 41.8043 34.82 41.9848C34.82 42.1311 34.7977 42.2464 34.7532 42.3306C34.7094 42.4141 34.6452 42.479 34.5605 42.5254C34.4765 42.5718 34.3846 42.595 34.2848 42.595C34.1248 42.595 33.9952 42.544 33.8962 42.4419C33.7978 42.3399 33.7486 42.1929 33.7486 42.0009ZM33.9478 42.0009C33.9478 42.1465 33.9798 42.2557 34.0437 42.3285C34.1075 42.4005 34.1879 42.4366 34.2848 42.4366C34.381 42.4366 34.4611 42.4002 34.525 42.3274C34.5888 42.2546 34.6208 42.1436 34.6208 41.9945C34.6208 41.8539 34.5885 41.7476 34.5239 41.6755C34.46 41.6027 34.3803 41.5663 34.2848 41.5663C34.1879 41.5663 34.1075 41.6023 34.0437 41.6744C33.9798 41.7465 33.9478 41.8553 33.9478 42.0009Z" fill="white"/>
<path d="M35.0536 41.4325H35.3551L35.6555 42.3424L35.9893 41.4325H36.2681V42.5693H36.0743V41.6541L35.7362 42.5693H35.5629L35.2431 41.6102V42.5693H35.0536V41.4325Z" fill="white"/>
<path d="M36.5653 41.4325H36.7591V41.9056H37.2964V41.4325H37.4902V42.5693H37.2964V42.0651H36.7591V42.5693H36.5653V41.4325Z" fill="white"/>
<path d="M37.7109 42.0009C37.7109 41.7904 37.7698 41.6344 37.8875 41.5331C37.9858 41.4489 38.1057 41.4068 38.2471 41.4068C38.4043 41.4068 38.5328 41.4582 38.6326 41.5609C38.7324 41.663 38.7822 41.8043 38.7822 41.9848C38.7822 42.1311 38.76 42.2464 38.7155 42.3306C38.6717 42.4141 38.6075 42.479 38.5228 42.5254C38.4388 42.5718 38.3469 42.595 38.2471 42.595C38.0871 42.595 37.9575 42.544 37.8584 42.4419C37.7601 42.3399 37.7109 42.1929 37.7109 42.0009ZM37.9101 42.0009C37.9101 42.1465 37.9421 42.2557 38.0059 42.3285C38.0698 42.4005 38.1502 42.4366 38.2471 42.4366C38.3433 42.4366 38.4233 42.4002 38.4872 42.3274C38.5511 42.2546 38.5831 42.1436 38.5831 41.9945C38.5831 41.8539 38.5508 41.7476 38.4862 41.6755C38.4223 41.6027 38.3426 41.5663 38.2471 41.5663C38.1502 41.5663 38.0698 41.6023 38.0059 41.6744C37.9421 41.7465 37.9101 41.8553 37.9101 42.0009Z" fill="white"/>
<path d="M39.7933 42.2032L39.9935 42.2278C39.962 42.3442 39.9035 42.4344 39.818 42.4987C39.7326 42.5629 39.6235 42.595 39.4907 42.595C39.3235 42.595 39.1907 42.544 39.0923 42.4419C38.9947 42.3392 38.9459 42.1954 38.9459 42.0105C38.9459 41.8193 38.9954 41.6708 39.0945 41.5652C39.1935 41.4596 39.322 41.4068 39.4799 41.4068C39.6328 41.4068 39.7577 41.4585 39.8546 41.562C39.9515 41.6655 40 41.8111 40 41.9988C40 42.0102 39.9996 42.0273 39.9989 42.0501H39.1462C39.1533 42.175 39.1889 42.2707 39.2528 42.337C39.3167 42.4034 39.3963 42.4366 39.4918 42.4366C39.5629 42.4366 39.6235 42.418 39.6738 42.3809C39.724 42.3438 39.7638 42.2846 39.7933 42.2032ZM39.1569 41.8917H39.7954C39.7868 41.7961 39.7624 41.7244 39.7222 41.6765C39.6605 41.6023 39.5804 41.5652 39.4821 41.5652C39.3931 41.5652 39.3181 41.5948 39.2571 41.6541C39.1968 41.7133 39.1634 41.7925 39.1569 41.8917Z" fill="white"/>
<path d="M13.9297 44.4855C13.9297 44.275 13.9886 44.1191 14.1063 44.0177C14.2046 43.9335 14.3245 43.8914 14.4659 43.8914C14.6231 43.8914 14.7516 43.9428 14.8514 44.0456C14.9512 44.1476 15.001 44.2889 15.001 44.4695C15.001 44.6158 14.9788 44.731 14.9343 44.8153C14.8905 44.8988 14.8263 44.9637 14.7416 45.0101C14.6576 45.0565 14.5657 45.0797 14.4659 45.0797C14.3058 45.0797 14.1763 45.0286 14.0772 44.9266C13.9789 44.8245 13.9297 44.6775 13.9297 44.4855ZM14.1289 44.4855C14.1289 44.6311 14.1608 44.7403 14.2247 44.8131C14.2886 44.8852 14.369 44.9212 14.4659 44.9212C14.5621 44.9212 14.6421 44.8848 14.706 44.812C14.7699 44.7393 14.8018 44.6283 14.8018 44.4791C14.8018 44.3385 14.7695 44.2322 14.7049 44.1601C14.6411 44.0873 14.5614 44.0509 14.4659 44.0509C14.369 44.0509 14.2886 44.087 14.2247 44.1591C14.1608 44.2311 14.1289 44.34 14.1289 44.4855Z" fill="white"/>
<path d="M16.067 43.4472L16.2382 43.4493C16.2303 43.5257 16.2131 43.5789 16.1865 43.6088C16.1607 43.6388 16.1269 43.6581 16.0853 43.6666C16.0444 43.6752 15.9636 43.6795 15.843 43.6795C15.683 43.6795 15.5738 43.6948 15.5157 43.7255C15.4576 43.7562 15.4156 43.8054 15.3897 43.8732C15.3646 43.9403 15.3506 44.027 15.3477 44.1334C15.3965 44.0613 15.4536 44.0074 15.5189 43.9717C15.5843 43.9353 15.6578 43.9171 15.7397 43.9171C15.8897 43.9171 16.0139 43.9685 16.1122 44.0713C16.2105 44.1733 16.2597 44.3118 16.2597 44.4866C16.2597 44.6194 16.2349 44.7282 16.1854 44.8131C16.1359 44.898 16.077 44.9637 16.0088 45.0101C15.9414 45.0565 15.8491 45.0797 15.7321 45.0797C15.5965 45.0797 15.4909 45.049 15.4156 44.9876C15.3402 44.9255 15.2824 44.8463 15.2422 44.75C15.202 44.6536 15.1819 44.4859 15.1819 44.2468C15.1819 43.9464 15.2329 43.7441 15.3348 43.6399C15.4375 43.5357 15.595 43.4836 15.8075 43.4836C15.9396 43.4836 16.0146 43.4814 16.0325 43.4772C16.0505 43.4729 16.062 43.4629 16.067 43.4472ZM16.0573 44.4813C16.0573 44.3628 16.0289 44.2657 15.9722 44.1901C15.9162 44.1144 15.8369 44.0766 15.7343 44.0766C15.6273 44.0766 15.5448 44.1166 15.4866 44.1965C15.4285 44.2764 15.3994 44.3831 15.3994 44.5166C15.3994 44.6486 15.4314 44.7496 15.4952 44.8195C15.5598 44.8895 15.6392 44.9244 15.7332 44.9244C15.8294 44.9244 15.9073 44.8841 15.9668 44.8035C16.0271 44.7221 16.0573 44.6147 16.0573 44.4813Z" fill="white"/>
<path d="M16.4998 43.9171H16.6936V44.8955H17.1351V43.9171H17.3289V44.8955H17.7714V43.9171H17.9641V44.8955H18.0923V45.3762H17.9318V45.054H16.4998V43.9171Z" fill="white"/>
<path d="M19.0656 44.6879L19.2659 44.7125C19.2343 44.8288 19.1758 44.9191 19.0904 44.9833C19.005 45.0475 18.8958 45.0797 18.7631 45.0797C18.5958 45.0797 18.463 45.0286 18.3647 44.9266C18.267 44.8238 18.2182 44.68 18.2182 44.4952C18.2182 44.3039 18.2678 44.1555 18.3668 44.0499C18.4659 43.9442 18.5944 43.8914 18.7523 43.8914C18.9052 43.8914 19.0301 43.9432 19.127 44.0467C19.2239 44.1501 19.2723 44.2957 19.2723 44.4834C19.2723 44.4948 19.272 44.512 19.2713 44.5348H18.4185C18.4257 44.6597 18.4612 44.7553 18.5251 44.8217C18.589 44.888 18.6687 44.9212 18.7641 44.9212C18.8352 44.9212 18.8958 44.9027 18.9461 44.8656C18.9963 44.8285 19.0362 44.7692 19.0656 44.6879ZM18.4293 44.3764H19.0678C19.0591 44.2807 19.0347 44.209 18.9945 44.1612C18.9328 44.087 18.8528 44.0499 18.7544 44.0499C18.6654 44.0499 18.5904 44.0795 18.5294 44.1387C18.4691 44.1979 18.4357 44.2772 18.4293 44.3764Z" fill="white"/>
<path d="M19.4381 44.4855C19.4381 44.275 19.497 44.1191 19.6147 44.0177C19.7131 43.9335 19.8329 43.8914 19.9743 43.8914C20.1315 43.8914 20.26 43.9428 20.3598 44.0456C20.4596 44.1476 20.5095 44.2889 20.5095 44.4695C20.5095 44.6158 20.4872 44.731 20.4427 44.8153C20.3989 44.8988 20.3347 44.9637 20.25 45.0101C20.166 45.0565 20.0741 45.0797 19.9743 45.0797C19.8143 45.0797 19.6847 45.0286 19.5857 44.9266C19.4873 44.8245 19.4381 44.6775 19.4381 44.4855ZM19.6373 44.4855C19.6373 44.6311 19.6693 44.7403 19.7332 44.8131C19.797 44.8852 19.8774 44.9212 19.9743 44.9212C20.0705 44.9212 20.1506 44.8848 20.2144 44.812C20.2783 44.7393 20.3103 44.6283 20.3103 44.4791C20.3103 44.3385 20.278 44.2322 20.2134 44.1601C20.1495 44.0873 20.0698 44.0509 19.9743 44.0509C19.8774 44.0509 19.797 44.087 19.7332 44.1591C19.6693 44.2311 19.6373 44.34 19.6373 44.4855Z" fill="white"/>
<path d="M21.5754 43.4472L21.7466 43.4493C21.7387 43.5257 21.7215 43.5789 21.6949 43.6088C21.6691 43.6388 21.6353 43.6581 21.5937 43.6666C21.5528 43.6752 21.472 43.6795 21.3515 43.6795C21.1914 43.6795 21.0823 43.6948 21.0241 43.7255C20.966 43.7562 20.924 43.8054 20.8982 43.8732C20.873 43.9403 20.859 44.027 20.8562 44.1334C20.905 44.0613 20.962 44.0074 21.0274 43.9717C21.0927 43.9353 21.1663 43.9171 21.2481 43.9171C21.3981 43.9171 21.5223 43.9685 21.6206 44.0713C21.719 44.1733 21.7681 44.3118 21.7681 44.4866C21.7681 44.6194 21.7434 44.7282 21.6938 44.8131C21.6443 44.898 21.5855 44.9637 21.5173 45.0101C21.4498 45.0565 21.3576 45.0797 21.2406 45.0797C21.1049 45.0797 20.9994 45.049 20.924 44.9876C20.8486 44.9255 20.7908 44.8463 20.7506 44.75C20.7105 44.6536 20.6904 44.4859 20.6904 44.2468C20.6904 43.9464 20.7413 43.7441 20.8432 43.6399C20.9459 43.5357 21.1034 43.4836 21.3159 43.4836C21.448 43.4836 21.523 43.4814 21.541 43.4772C21.5589 43.4729 21.5704 43.4629 21.5754 43.4472ZM21.5657 44.4813C21.5657 44.3628 21.5374 44.2657 21.4807 44.1901C21.4247 44.1144 21.3454 44.0766 21.2427 44.0766C21.1358 44.0766 21.0532 44.1166 20.9951 44.1965C20.9369 44.2764 20.9078 44.3831 20.9078 44.5166C20.9078 44.6486 20.9398 44.7496 21.0037 44.8195C21.0683 44.8895 21.1476 44.9244 21.2416 44.9244C21.3378 44.9244 21.4157 44.8841 21.4753 44.8035C21.5356 44.7221 21.5657 44.6147 21.5657 44.4813Z" fill="white"/>
<path d="M22.0018 45.4897V43.9171H22.1784V44.0649C22.22 44.007 22.267 43.9639 22.3194 43.9353C22.3718 43.9061 22.4353 43.8914 22.51 43.8914C22.6076 43.8914 22.6937 43.9164 22.7684 43.9664C22.843 44.0163 22.8994 44.087 22.9374 44.1783C22.9755 44.269 22.9945 44.3685 22.9945 44.477C22.9945 44.5933 22.9733 44.6982 22.931 44.7917C22.8893 44.8845 22.8283 44.9558 22.7479 45.0058C22.6683 45.055 22.5843 45.0797 22.496 45.0797C22.4314 45.0797 22.3732 45.0661 22.3216 45.039C22.2706 45.0119 22.2286 44.9776 22.1956 44.9362V45.4897H22.0018ZM22.1773 44.492C22.1773 44.6383 22.2071 44.7464 22.2667 44.8163C22.3262 44.8863 22.3984 44.9212 22.4831 44.9212C22.5692 44.9212 22.6428 44.8852 22.7038 44.8131C22.7655 44.7403 22.7964 44.6279 22.7964 44.4759C22.7964 44.331 22.7662 44.2226 22.7059 44.1505C22.6464 44.0784 22.5749 44.0424 22.4917 44.0424C22.4091 44.0424 22.3359 44.0809 22.272 44.158C22.2089 44.2343 22.1773 44.3457 22.1773 44.492Z" fill="white"/>
<path d="M23.9754 44.9137C23.9036 44.9744 23.8343 45.0172 23.7676 45.0422C23.7015 45.0672 23.6305 45.0797 23.5544 45.0797C23.4288 45.0797 23.3322 45.0493 23.2648 44.9887C23.1973 44.9273 23.1635 44.8492 23.1635 44.7542C23.1635 44.6986 23.1761 44.6479 23.2012 44.6022C23.2271 44.5558 23.2605 44.5187 23.3014 44.4909C23.343 44.4631 23.3897 44.442 23.4413 44.4277C23.4794 44.4178 23.5368 44.4081 23.6136 44.3988C23.7701 44.3803 23.8853 44.3582 23.9592 44.3325C23.96 44.3061 23.9603 44.2893 23.9603 44.2822C23.9603 44.2037 23.942 44.1483 23.9054 44.1162C23.8559 44.0727 23.7823 44.0509 23.6847 44.0509C23.5935 44.0509 23.526 44.067 23.4823 44.0991C23.4392 44.1305 23.4072 44.1865 23.3864 44.2672L23.1969 44.2415C23.2142 44.1608 23.2425 44.0959 23.282 44.0467C23.3215 43.9967 23.3785 43.9585 23.4532 43.9321C23.5278 43.905 23.6143 43.8914 23.7127 43.8914C23.8103 43.8914 23.8896 43.9029 23.9506 43.9257C24.0116 43.9485 24.0565 43.9774 24.0852 44.0124C24.1139 44.0467 24.134 44.0902 24.1455 44.143C24.152 44.1758 24.1552 44.2351 24.1552 44.3207V44.5776C24.1552 44.7567 24.1591 44.8702 24.167 44.918C24.1757 44.9651 24.1922 45.0104 24.2166 45.054H24.0141C23.994 45.014 23.9811 44.9673 23.9754 44.9137ZM23.9592 44.4834C23.8889 44.512 23.7834 44.5362 23.6427 44.5562C23.563 44.5676 23.5067 44.5805 23.4736 44.5947C23.4406 44.609 23.4151 44.6301 23.3972 44.6579C23.3792 44.685 23.3703 44.7153 23.3703 44.7489C23.3703 44.8003 23.3897 44.8431 23.4284 44.8773C23.4679 44.9116 23.5253 44.9287 23.6007 44.9287C23.6753 44.9287 23.7417 44.9127 23.7999 44.8806C23.858 44.8477 23.9007 44.8031 23.928 44.7467C23.9488 44.7032 23.9592 44.639 23.9592 44.5541V44.4834Z" fill="white"/>
<path d="M24.6839 44.5401V44.3892C24.7657 44.3885 24.8213 44.3853 24.8507 44.3796C24.8809 44.3739 24.9092 44.3567 24.9358 44.3282C24.9624 44.2996 24.9756 44.264 24.9756 44.2211C24.9756 44.169 24.9581 44.1277 24.9229 44.097C24.8884 44.0656 24.8436 44.0499 24.7883 44.0499C24.6792 44.0499 24.6027 44.1137 24.559 44.2415L24.3748 44.2115C24.4323 43.9981 24.5708 43.8914 24.7905 43.8914C24.9125 43.8914 25.0079 43.9246 25.0769 43.991C25.1465 44.0574 25.1813 44.1366 25.1813 44.2286C25.1813 44.3214 25.1361 44.3953 25.0456 44.4502C25.1031 44.4809 25.1461 44.5202 25.1748 44.568C25.2035 44.6151 25.2179 44.6711 25.2179 44.736C25.2179 44.8381 25.1806 44.9209 25.1059 44.9844C25.0313 45.0479 24.9268 45.0797 24.7926 45.0797C24.532 45.0797 24.3809 44.9644 24.3393 44.7339L24.5213 44.6954C24.5378 44.7682 24.5712 44.8245 24.6214 44.8645C24.6724 44.9045 24.7305 44.9244 24.7958 44.9244C24.8612 44.9244 24.9153 44.9062 24.9584 44.8699C25.0022 44.8327 25.0241 44.7856 25.0241 44.7285C25.0241 44.6843 25.0105 44.6458 24.9832 44.6129C24.9559 44.5801 24.9268 44.5598 24.896 44.5519C24.8651 44.5434 24.8091 44.5391 24.728 44.5391C24.7215 44.5391 24.7068 44.5394 24.6839 44.5401Z" fill="white"/>
<path d="M25.345 44.4855C25.345 44.275 25.4038 44.1191 25.5215 44.0177C25.6199 43.9335 25.7397 43.8914 25.8812 43.8914C26.0384 43.8914 26.1668 43.9428 26.2666 44.0456C26.3664 44.1476 26.4163 44.2889 26.4163 44.4695C26.4163 44.6158 26.394 44.731 26.3495 44.8153C26.3057 44.8988 26.2415 44.9637 26.1568 45.0101C26.0728 45.0565 25.9809 45.0797 25.8812 45.0797C25.7211 45.0797 25.5915 45.0286 25.4925 44.9266C25.3941 44.8245 25.345 44.6775 25.345 44.4855ZM25.5441 44.4855C25.5441 44.6311 25.5761 44.7403 25.64 44.8131C25.7039 44.8852 25.7843 44.9212 25.8812 44.9212C25.9773 44.9212 26.0574 44.8848 26.1213 44.812C26.1851 44.7393 26.2171 44.6283 26.2171 44.4791C26.2171 44.3385 26.1848 44.2322 26.1202 44.1601C26.0563 44.0873 25.9766 44.0509 25.8812 44.0509C25.7843 44.0509 25.7039 44.087 25.64 44.1591C25.5761 44.2311 25.5441 44.34 25.5441 44.4855Z" fill="white"/>
<path d="M26.6456 43.9171H27.0924C27.2023 43.9171 27.2837 43.9264 27.3369 43.945C27.3907 43.9628 27.4366 43.996 27.4747 44.0445C27.5134 44.093 27.5328 44.1512 27.5328 44.219C27.5328 44.2732 27.5213 44.3207 27.4984 44.3614C27.4761 44.4013 27.4424 44.4349 27.3972 44.462C27.451 44.4798 27.4955 44.5134 27.5307 44.5626C27.5666 44.6112 27.5845 44.669 27.5845 44.736C27.5773 44.8438 27.5386 44.9237 27.4682 44.9758C27.3979 45.0279 27.2956 45.054 27.1614 45.054H26.6456V43.9171ZM26.8394 44.3956H27.0462C27.1287 44.3956 27.1854 44.3913 27.2163 44.3828C27.2471 44.3742 27.2748 44.3571 27.2992 44.3314C27.3236 44.305 27.3358 44.2736 27.3358 44.2372C27.3358 44.1773 27.3142 44.1355 27.2712 44.112C27.2288 44.0884 27.156 44.0766 27.0526 44.0766H26.8394V44.3956ZM26.8394 44.8955H27.0946C27.2044 44.8955 27.2798 44.8831 27.3207 44.8581C27.3616 44.8324 27.3832 44.7885 27.3853 44.7264C27.3853 44.69 27.3735 44.6565 27.3498 44.6258C27.3261 44.5944 27.2952 44.5748 27.2572 44.5669C27.2191 44.5583 27.1581 44.5541 27.0741 44.5541H26.8394V44.8955Z" fill="white"/>
<path d="M28.5363 44.9137C28.4645 44.9744 28.3953 45.0172 28.3285 45.0422C28.2625 45.0672 28.1914 45.0797 28.1153 45.0797C27.9897 45.0797 27.8932 45.0493 27.8257 44.9887C27.7582 44.9273 27.7245 44.8492 27.7245 44.7542C27.7245 44.6986 27.737 44.6479 27.7622 44.6022C27.788 44.5558 27.8214 44.5187 27.8623 44.4909C27.9039 44.4631 27.9506 44.442 28.0023 44.4277C28.0403 44.4178 28.0977 44.4081 28.1745 44.3988C28.331 44.3803 28.4462 44.3582 28.5202 44.3325C28.5209 44.3061 28.5212 44.2893 28.5212 44.2822C28.5212 44.2037 28.5029 44.1483 28.4663 44.1162C28.4168 44.0727 28.3432 44.0509 28.2456 44.0509C28.1544 44.0509 28.087 44.067 28.0432 44.0991C28.0001 44.1305 27.9682 44.1865 27.9474 44.2672L27.7579 44.2415C27.7751 44.1608 27.8034 44.0959 27.8429 44.0467C27.8824 43.9967 27.9395 43.9585 28.0141 43.9321C28.0888 43.905 28.1753 43.8914 28.2736 43.8914C28.3712 43.8914 28.4505 43.9029 28.5115 43.9257C28.5726 43.9485 28.6174 43.9774 28.6461 44.0124C28.6748 44.0467 28.6949 44.0902 28.7064 44.143C28.7129 44.1758 28.7161 44.2351 28.7161 44.3207V44.5776C28.7161 44.7567 28.7201 44.8702 28.728 44.918C28.7366 44.9651 28.7531 45.0104 28.7775 45.054H28.5751C28.555 45.014 28.5421 44.9673 28.5363 44.9137ZM28.5202 44.4834C28.4498 44.512 28.3443 44.5362 28.2036 44.5562C28.1239 44.5676 28.0676 44.5805 28.0346 44.5947C28.0015 44.609 27.9761 44.6301 27.9581 44.6579C27.9402 44.685 27.9312 44.7153 27.9312 44.7489C27.9312 44.8003 27.9506 44.8431 27.9893 44.8773C28.0288 44.9116 28.0862 44.9287 28.1616 44.9287C28.2363 44.9287 28.3027 44.9127 28.3608 44.8806C28.4189 44.8477 28.4617 44.8031 28.4889 44.7467C28.5098 44.7032 28.5202 44.639 28.5202 44.5541V44.4834Z" fill="white"/>
<path d="M28.8636 43.9171H29.7928V44.0766H29.4246V45.054H29.2319V44.0766H28.8636V43.9171Z" fill="white"/>
<path d="M30.7349 44.6879L30.9352 44.7125C30.9036 44.8288 30.8451 44.9191 30.7597 44.9833C30.6743 45.0475 30.5652 45.0797 30.4324 45.0797C30.2651 45.0797 30.1323 45.0286 30.034 44.9266C29.9364 44.8238 29.8876 44.68 29.8876 44.4952C29.8876 44.3039 29.9371 44.1555 30.0362 44.0499C30.1352 43.9442 30.2637 43.8914 30.4216 43.8914C30.5745 43.8914 30.6994 43.9432 30.7963 44.0467C30.8932 44.1501 30.9417 44.2957 30.9417 44.4834C30.9417 44.4948 30.9413 44.512 30.9406 44.5348H30.0878C30.095 44.6597 30.1306 44.7553 30.1944 44.8217C30.2583 44.888 30.338 44.9212 30.4335 44.9212C30.5045 44.9212 30.5652 44.9027 30.6154 44.8656C30.6657 44.8285 30.7055 44.7692 30.7349 44.6879ZM30.0986 44.3764H30.7371C30.7285 44.2807 30.7041 44.209 30.6639 44.1612C30.6021 44.087 30.5221 44.0499 30.4238 44.0499C30.3348 44.0499 30.2598 44.0795 30.1987 44.1387C30.1384 44.1979 30.1051 44.2772 30.0986 44.3764Z" fill="white"/>
<path d="M31.2012 43.9171H32.1013V45.054H31.9086V44.0766H31.395V44.6429C31.395 44.7749 31.3907 44.862 31.382 44.9041C31.3734 44.9462 31.3497 44.983 31.311 45.0144C31.2722 45.0458 31.2162 45.0615 31.143 45.0615C31.0978 45.0615 31.0458 45.0586 30.9869 45.0529V44.8923H31.072C31.1122 44.8923 31.1409 44.8884 31.1581 44.8806C31.1753 44.872 31.1868 44.8588 31.1925 44.8409C31.1983 44.8231 31.2012 44.7649 31.2012 44.6665V43.9171Z" fill="white"/>
<path d="M32.3909 43.9171H32.5847V44.3614H32.8302C32.9903 44.3614 33.1134 44.3924 33.1995 44.4545C33.2864 44.5159 33.3298 44.6008 33.3298 44.7093C33.3298 44.8042 33.2936 44.8856 33.2211 44.9533C33.1493 45.0204 33.0341 45.054 32.8754 45.054H32.3909V43.9171ZM32.5847 44.8955H32.7882C32.911 44.8955 32.9985 44.8806 33.0509 44.8506C33.1033 44.8206 33.1295 44.7739 33.1295 44.7103C33.1295 44.6611 33.1102 44.6172 33.0714 44.5787C33.0326 44.5401 32.9469 44.5209 32.8141 44.5209H32.5847V44.8955Z" fill="white"/>
<path d="M33.5451 43.9171H33.739V44.3903H34.2762V43.9171H34.47V45.054H34.2762V44.5498H33.739V45.054H33.5451V43.9171Z" fill="white"/>
<path d="M34.6908 44.4855C34.6908 44.275 34.7496 44.1191 34.8673 44.0177C34.9657 43.9335 35.0856 43.8914 35.227 43.8914C35.3842 43.8914 35.5126 43.9428 35.6124 44.0456C35.7122 44.1476 35.7621 44.2889 35.7621 44.4695C35.7621 44.6158 35.7398 44.731 35.6953 44.8153C35.6515 44.8988 35.5873 44.9637 35.5026 45.0101C35.4186 45.0565 35.3267 45.0797 35.227 45.0797C35.0669 45.0797 34.9373 45.0286 34.8383 44.9266C34.7399 44.8245 34.6908 44.6775 34.6908 44.4855ZM34.89 44.4855C34.89 44.6311 34.9219 44.7403 34.9858 44.8131C35.0497 44.8852 35.1301 44.9212 35.227 44.9212C35.3231 44.9212 35.4032 44.8848 35.4671 44.812C35.531 44.7393 35.5629 44.6283 35.5629 44.4791C35.5629 44.3385 35.5306 44.2322 35.466 44.1601C35.4021 44.0873 35.3224 44.0509 35.227 44.0509C35.1301 44.0509 35.0497 44.087 34.9858 44.1591C34.9219 44.2311 34.89 44.34 34.89 44.4855Z" fill="white"/>
<path d="M36.7731 44.6879L36.9734 44.7125C36.9418 44.8288 36.8833 44.9191 36.7979 44.9833C36.7125 45.0475 36.6034 45.0797 36.4706 45.0797C36.3033 45.0797 36.1705 45.0286 36.0722 44.9266C35.9746 44.8238 35.9257 44.68 35.9257 44.4952C35.9257 44.3039 35.9753 44.1555 36.0743 44.0499C36.1734 43.9442 36.3019 43.8914 36.4598 43.8914C36.6127 43.8914 36.7376 43.9432 36.8345 44.0467C36.9314 44.1501 36.9798 44.2957 36.9798 44.4834C36.9798 44.4948 36.9795 44.512 36.9788 44.5348H36.126C36.1332 44.6597 36.1687 44.7553 36.2326 44.8217C36.2965 44.888 36.3762 44.9212 36.4716 44.9212C36.5427 44.9212 36.6034 44.9027 36.6536 44.8656C36.7038 44.8285 36.7437 44.7692 36.7731 44.6879ZM36.1368 44.3764H36.7753C36.7667 44.2807 36.7422 44.209 36.702 44.1612C36.6403 44.087 36.5603 44.0499 36.4619 44.0499C36.3729 44.0499 36.2979 44.0795 36.2369 44.1387C36.1766 44.1979 36.1432 44.2772 36.1368 44.3764Z" fill="white"/>
<path d="M19.4263 47.9764L19.4048 47.7955C19.4471 47.807 19.4841 47.8127 19.5157 47.8127C19.5587 47.8127 19.5932 47.8055 19.619 47.7913C19.6449 47.777 19.666 47.757 19.6826 47.7313C19.6948 47.712 19.7145 47.6642 19.7418 47.5879C19.7454 47.5772 19.7511 47.5615 19.759 47.5408L19.3251 46.4018H19.534L19.7719 47.0601C19.8028 47.1436 19.8304 47.2314 19.8548 47.3235C19.8771 47.235 19.9036 47.1486 19.9345 47.0644L20.1789 46.4018H20.3727L19.9377 47.5579C19.8911 47.6828 19.8548 47.7688 19.829 47.8159C19.7945 47.8794 19.7551 47.9258 19.7106 47.955C19.666 47.985 19.6129 48 19.5512 48C19.5139 48 19.4722 47.9921 19.4263 47.9764Z" fill="white"/>
<path d="M20.4664 46.4018H20.6602V46.6169C20.6602 46.7097 20.6656 46.7772 20.6764 46.8193C20.6878 46.8607 20.7148 46.8971 20.7571 46.9285C20.7995 46.9591 20.8526 46.9745 20.9165 46.9745C20.9897 46.9745 21.0844 46.9552 21.2007 46.9167V46.4018H21.3945V47.5386H21.2007V47.0805C21.0816 47.1176 20.9703 47.1361 20.8669 47.1361C20.7801 47.1361 20.7033 47.1144 20.6365 47.0708C20.5705 47.0266 20.5256 46.9727 20.5019 46.9092C20.4782 46.8457 20.4664 46.7757 20.4664 46.6994V46.4018Z" fill="white"/>
<path d="M21.6874 47.9743V46.4018H21.864V46.5495C21.9056 46.4917 21.9526 46.4485 22.005 46.42C22.0574 46.3907 22.1209 46.3761 22.1956 46.3761C22.2932 46.3761 22.3793 46.4011 22.454 46.451C22.5287 46.501 22.585 46.5716 22.623 46.663C22.6611 46.7536 22.6801 46.8532 22.6801 46.9616C22.6801 47.078 22.6589 47.1829 22.6166 47.2764C22.5749 47.3691 22.5139 47.4405 22.4335 47.4905C22.3539 47.5397 22.2699 47.5643 22.1816 47.5643C22.117 47.5643 22.0588 47.5508 22.0072 47.5236C21.9562 47.4965 21.9142 47.4623 21.8812 47.4209V47.9743H21.6874ZM21.8629 46.9766C21.8629 47.1229 21.8927 47.231 21.9523 47.301C22.0118 47.3709 22.084 47.4059 22.1687 47.4059C22.2548 47.4059 22.3284 47.3698 22.3894 47.2978C22.4511 47.225 22.482 47.1126 22.482 46.9606C22.482 46.8157 22.4518 46.7072 22.3915 46.6351C22.332 46.5631 22.2606 46.527 22.1773 46.527C22.0947 46.527 22.0215 46.5656 21.9576 46.6426C21.8945 46.719 21.8629 46.8303 21.8629 46.9766Z" fill="white"/>
<path d="M23.6976 47.1725L23.8979 47.1971C23.8663 47.3135 23.8078 47.4037 23.7224 47.468C23.6369 47.5322 23.5278 47.5643 23.395 47.5643C23.2278 47.5643 23.095 47.5133 22.9967 47.4112C22.899 47.3085 22.8502 47.1647 22.8502 46.9798C22.8502 46.7886 22.8998 46.6401 22.9988 46.5345C23.0979 46.4289 23.2264 46.3761 23.3843 46.3761C23.5372 46.3761 23.6621 46.4278 23.759 46.5313C23.8559 46.6348 23.9043 46.7804 23.9043 46.9681C23.9043 46.9795 23.904 46.9966 23.9032 47.0194H23.0505C23.0577 47.1443 23.0932 47.24 23.1571 47.3063C23.221 47.3727 23.3006 47.4059 23.3961 47.4059C23.4672 47.4059 23.5278 47.3873 23.5781 47.3502C23.6283 47.3131 23.6682 47.2539 23.6976 47.1725ZM23.0613 46.861H23.6997C23.6911 46.7654 23.6667 46.6937 23.6265 46.6458C23.5648 46.5716 23.4848 46.5345 23.3864 46.5345C23.2974 46.5345 23.2224 46.5641 23.1614 46.6234C23.1011 46.6826 23.0677 46.7618 23.0613 46.861Z" fill="white"/>
<path d="M24.8077 46.4018V46.8931C24.8694 46.8931 24.9128 46.8814 24.938 46.8578C24.9631 46.8342 24.9997 46.7657 25.0478 46.6523C25.093 46.5445 25.1336 46.4756 25.1695 46.4457C25.2046 46.4164 25.2606 46.4018 25.3374 46.4018H25.4085V46.5613L25.3557 46.5602C25.304 46.5602 25.271 46.5677 25.2567 46.5827C25.2416 46.5984 25.2186 46.6451 25.1878 46.7229C25.159 46.7971 25.1325 46.8485 25.1081 46.8771C25.0837 46.9056 25.0456 46.9317 24.9939 46.9552C25.0779 46.9773 25.1598 47.0544 25.2394 47.1864L25.4526 47.5386H25.2394L25.0316 47.1864C24.9893 47.1151 24.9523 47.0683 24.9207 47.0462C24.8891 47.0241 24.8515 47.013 24.8077 47.013V47.5386H24.6096V47.013C24.5665 47.013 24.5292 47.0241 24.4976 47.0462C24.466 47.0676 24.429 47.1144 24.3867 47.1864L24.1789 47.5386H23.9657L24.1778 47.1864C24.2582 47.0544 24.3404 46.9773 24.4244 46.9552C24.3669 46.9288 24.3267 46.9003 24.3038 46.8696C24.2808 46.8382 24.2464 46.764 24.2004 46.6469C24.1846 46.6077 24.1678 46.5834 24.1498 46.5741C24.1311 46.5648 24.1035 46.5602 24.0669 46.5602C24.0576 46.5602 24.0386 46.5606 24.0098 46.5613V46.4018H24.0368C24.1114 46.4018 24.1638 46.4064 24.194 46.4157C24.2248 46.4243 24.2521 46.4432 24.2758 46.4724C24.3002 46.501 24.3318 46.5609 24.3705 46.6523C24.4179 46.7643 24.4538 46.8325 24.4782 46.8567C24.5033 46.881 24.5471 46.8931 24.6096 46.8931V46.4018H24.8077Z" fill="white"/>
<path d="M25.7444 46.4018H26.5412V47.3802H26.665V47.8608H26.5056V47.5386H25.6055V47.8608H25.4462V47.3802H25.5485C25.6848 47.1961 25.7502 46.8699 25.7444 46.4018ZM25.9059 46.5613C25.8916 46.9302 25.8341 47.2032 25.7336 47.3802H26.3484V46.5613H25.9059Z" fill="white"/>
<path d="M27.662 47.1725L27.8623 47.1971C27.8307 47.3135 27.7722 47.4037 27.6868 47.468C27.6014 47.5322 27.4923 47.5643 27.3595 47.5643C27.1922 47.5643 27.0594 47.5133 26.9611 47.4112C26.8635 47.3085 26.8147 47.1647 26.8147 46.9798C26.8147 46.7886 26.8642 46.6401 26.9632 46.5345C27.0623 46.4289 27.1908 46.3761 27.3487 46.3761C27.5016 46.3761 27.6265 46.4278 27.7234 46.5313C27.8203 46.6348 27.8688 46.7804 27.8688 46.9681C27.8688 46.9795 27.8684 46.9966 27.8677 47.0194H27.0149C27.0221 47.1443 27.0576 47.24 27.1215 47.3063C27.1854 47.3727 27.2651 47.4059 27.3605 47.4059C27.4316 47.4059 27.4923 47.3873 27.5425 47.3502C27.5928 47.3131 27.6326 47.2539 27.662 47.1725ZM27.0257 46.861H27.6642C27.6556 46.7654 27.6312 46.6937 27.591 46.6458C27.5292 46.5716 27.4492 46.5345 27.3509 46.5345C27.2619 46.5345 27.1868 46.5641 27.1258 46.6234C27.0655 46.6826 27.0322 46.7618 27.0257 46.861Z" fill="white"/>
<path d="M28.1078 46.4018H28.3016V46.8749H28.8389V46.4018H29.0327V47.5386H28.8389V47.0344H28.3016V47.5386H28.1078V46.4018Z" fill="white"/>
<path d="M29.3255 46.4018H29.5193V47.2689L30.0566 46.4018H30.2655V47.5386H30.0717V46.6769L29.5344 47.5386H29.3255V46.4018Z" fill="white"/>
<path d="M31.3401 47.1725L31.5403 47.1971C31.5087 47.3135 31.4502 47.4037 31.3648 47.468C31.2794 47.5322 31.1703 47.5643 31.0375 47.5643C30.8703 47.5643 30.7375 47.5133 30.6391 47.4112C30.5415 47.3085 30.4927 47.1647 30.4927 46.9798C30.4927 46.7886 30.5422 46.6401 30.6413 46.5345C30.7403 46.4289 30.8688 46.3761 31.0267 46.3761C31.1796 46.3761 31.3045 46.4278 31.4014 46.5313C31.4983 46.6348 31.5468 46.7804 31.5468 46.9681C31.5468 46.9795 31.5464 46.9966 31.5457 47.0194H30.693C30.7001 47.1443 30.7357 47.24 30.7995 47.3063C30.8634 47.3727 30.9431 47.4059 31.0386 47.4059C31.1096 47.4059 31.1703 47.3873 31.2205 47.3502C31.2708 47.3131 31.3106 47.2539 31.3401 47.1725ZM30.7037 46.861H31.3422C31.3336 46.7654 31.3092 46.6937 31.269 46.6458C31.2073 46.5716 31.1272 46.5345 31.0289 46.5345C30.9399 46.5345 30.8649 46.5641 30.8039 46.6234C30.7436 46.6826 30.7102 46.7618 30.7037 46.861Z" fill="white"/>
</svg>
