<svg width="50" height="50" viewBox="0 0 50 50" fill="none" xmlns="http://www.w3.org/2000/svg">
<path d="M11.0875 33.5535C12.0505 34.2381 13.0326 34.8748 14.0336 35.4636C13.9696 35.5346 13.882 35.5881 13.7666 35.6226L13.6412 35.6601L13.7151 35.7681C14.1857 36.4559 14.8396 36.8741 15.6711 37.0209L15.6715 37.0209C16.2878 37.1268 16.9178 37.1587 17.5614 37.1171C17.6074 37.1414 17.6379 37.1632 17.6563 37.1814C17.6708 37.1957 17.6743 37.204 17.675 37.2066C17.6743 37.2091 17.6708 37.2174 17.6563 37.2317C17.6356 37.2521 17.5998 37.2771 17.5438 37.3051C17.2357 37.4164 16.9255 37.5079 16.6131 37.5798L16.5972 37.5834L16.5834 37.5922C16.0746 37.914 15.7031 38.1862 15.4738 38.4081C15.3596 38.5185 15.2751 38.6218 15.2282 38.7172C15.181 38.8134 15.1652 38.9175 15.219 39.0103C15.2696 39.0975 15.367 39.1479 15.4784 39.1781C15.5925 39.209 15.7403 39.2239 15.9182 39.2253C16.2747 39.2281 16.7721 39.1767 17.4074 39.0731L17.4171 39.0715L17.4263 39.068C18.045 38.8297 18.6154 38.5188 19.137 38.1348C19.3373 38.0876 19.5058 37.9936 19.6402 37.8532C19.6442 37.8634 19.6481 37.8733 19.6519 37.8832C19.6581 37.8991 19.6642 37.9148 19.6705 37.9304C19.6893 37.9767 19.7102 38.0213 19.7437 38.0653C19.6745 38.2301 19.5773 38.3448 19.4549 38.4172C19.3191 38.4974 19.142 38.5317 18.9159 38.5105L18.8114 38.5007V38.6057V38.6068V38.6078V38.6089V38.61V38.6111V38.6122V38.6133V38.6144V38.6155V38.6166V38.6177V38.6188V38.6199V38.621V38.6221V38.6231V38.6242V38.6253V38.6264V38.6275V38.6286V38.6297V38.6308V38.6319V38.633V38.6341V38.6352V38.6363V38.6374V38.6385V38.6395V38.6406V38.6417V38.6428V38.6439V38.645V38.6461V38.6472V38.6483V38.6494V38.6505V38.6516V38.6527V38.6538V38.6548V38.6559V38.657V38.6581V38.6592V38.6603V38.6614V38.6625V38.6636V38.6647V38.6658V38.6669V38.668V38.6691V38.6702V38.6712V38.6723V38.6734V38.6745V38.6756V38.6767V38.6778V38.6789V38.68V38.6811V38.6822V38.6833V38.6844V38.6855V38.6865V38.6876V38.6887V38.6898V38.6909V38.692V38.6931V38.6942V38.6953V38.6964V38.6975V38.6986V38.6997V38.7008V38.7018V38.7029V38.704V38.7051V38.7062V38.7073V38.7084V38.7095V38.7106V38.7117V38.7128V38.7139V38.715V38.7161V38.7172V38.7182V38.7193V38.7204V38.7215V38.7226V38.7237V38.7248V38.7259V38.727V38.7281V38.7292V38.7303V38.7314V38.7325V38.7335V38.7346V38.7357V38.7368V38.7379V38.739V38.7401V38.7412V38.7423V38.7434V38.7445V38.7456V38.7467V38.7478V38.7489V38.7499V38.751V38.7521V38.7532V38.7543V38.7554V38.7565V38.7576V38.7587V38.7598V38.7609V38.762V38.7631V38.7642V38.7652V38.7663V38.7674V38.7685V38.7696V38.7707V38.7718V38.7729V38.774V38.7751V38.7762V38.7773V38.7784V38.7795V38.7805V38.7816V38.7827V38.7838V38.7849V38.786V38.7871V38.7882V38.7893V38.7904V38.7915V38.7926V38.7937V38.7948V38.7959V38.7969V38.798V38.7991V38.8002V38.8013V38.8024V38.8035V38.8046V38.8057V38.8068V38.8079V38.809V38.8101V38.8112V38.8122V38.8133V38.8144V38.8155V38.8166V38.8177V38.8188V38.8199V38.821V38.8221V38.8232V38.8243V38.8254V38.8265V38.8276V38.8286V38.8297V38.8308V38.8319V38.833V38.8341V38.8352V38.8363V38.8374V38.8385V38.8396V38.8407V38.8418V38.8429V38.8439V38.845V38.8461V38.8472V38.8483V38.8494V38.8505V38.8516V38.8527V38.8538V38.8549V38.856V38.8571V38.8582V38.8592V38.8603V38.8614V38.8625V38.8636V38.8647V38.8658V38.8669V38.868V38.8691V38.8702V38.8713V38.8724V38.8735V38.8746V38.8756V38.8767V38.8778V38.8789V38.88V38.8811V38.8822V38.8833V38.8844V38.8855V38.8866V38.8877V38.8888V38.8899V38.8909V38.892V38.8931V38.8942V38.8953V38.8964V38.8975V38.8986V38.8997V38.9008V38.9019V38.903V38.9041V38.9052V38.9063V38.9073V38.9084V38.9095V38.9106V38.9117V38.9128V38.9139V38.915V38.9161V38.9172V38.9183V38.9194V38.9205V38.9216V38.9226V38.9237V38.9248V38.9259V38.927V38.9281V38.9292V38.9303V38.9314V38.9325V38.9336V38.9347V38.9358V38.9369V38.9379V38.939V38.9401V38.9412V38.9423V38.9434V38.9445V38.9456V38.9467V38.9478V38.9489V38.95V38.9511V38.9522V38.9533V38.9543V38.9554V38.9565V38.9576V38.9587V38.9598V38.9609V38.962V38.9631V38.9642V38.9653V38.9664V38.9675V38.9686V38.9696V38.9707V38.9718V38.9729V38.974V38.9751V38.9762V38.9773V38.9784V38.9795V38.9806V38.9817V38.9828V38.9839V38.985V38.986V38.9871V38.9882V38.9893V38.9904V38.9915V38.9926V38.9937V38.9948V38.9959V38.997V38.9981V38.9992V39.0003V39.0013V39.0024V39.0035V39.0046V39.0057V39.0068V39.0079V39.009V39.0101V39.0112V39.0123V39.0134V39.0145V39.0156V39.0166V39.0177V39.0188V39.0199V39.021V39.0221V39.0232V39.0243V39.0254V39.0265V39.0276V39.0287V39.0298V39.0309V39.032V39.033V39.0341V39.0352V39.0363V39.0374V39.0385V39.0396V39.0407V39.0418V39.0429V39.044V39.0451V39.0462V39.0473V39.0483V39.0494V39.0505V39.0516V39.0527V39.0538V39.0549V39.056V39.0571V39.0582V39.0593V39.0604V39.0615V39.0626V39.0637V39.0647V39.0658V39.0669V39.068V39.0691V39.0702V39.0713V39.0724V39.0735V39.0746V39.0757V39.0768V39.0779V39.079V39.08V39.0811V39.0822V39.0833V39.0844V39.0855V39.0866V39.0877V39.0888V39.0899V39.091V39.0921V39.0932V39.0943V39.0953V39.0964V39.0975V39.0986V39.0997V39.1008V39.1019V39.103V39.1041V39.1052V39.1063V39.1074V39.1085V39.1096V39.1107V39.1117V39.1128V39.1139V39.1149C18.2903 39.4709 17.7392 39.8014 17.1582 40.1067L16.9137 40.2352L17.1853 40.2853C17.3648 40.3185 17.5121 40.3822 17.6302 40.4745C17.3881 40.7284 17.2765 41.042 17.2966 41.4091L17.2962 41.4091L17.2974 41.4178C17.3633 41.8654 17.5303 42.1875 17.8202 42.3481C18.1078 42.5075 18.4871 42.4911 18.9384 42.3336L18.9541 42.3281L18.967 42.3177C19.3665 41.995 19.7278 41.8684 20.0552 41.9104C20.3828 41.9525 20.7012 42.1665 21.0079 42.5801L21.1837 42.8172L21.1802 42.522C21.1773 42.27 21.1549 42.0107 21.1132 41.7442C21.8148 42.0318 22.5192 42.3209 23.2261 42.6116L23.2473 42.6203L23.2702 42.6184C23.5896 42.5922 23.8567 42.4969 24.0644 42.3263C24.2239 42.1955 24.3438 42.024 24.4262 41.8154C24.707 42.2215 25.1017 42.4889 25.6062 42.6159L25.6343 42.6229L25.6617 42.6132C26.3949 42.3514 27.1178 42.069 27.8304 41.7657C27.7557 42.0212 27.7483 42.2812 27.8088 42.5446L27.8549 42.7452L27.9784 42.5805C28.2324 42.2418 28.5526 42.0085 28.9408 41.8784C29.4414 42.0716 29.9367 42.2544 30.4267 42.4268L30.4434 42.4327L30.4612 42.4322C30.8953 42.4196 31.2224 42.3184 31.4071 42.1001C31.595 41.8779 31.611 41.5654 31.4977 41.1929C31.4341 40.9098 31.3341 40.6421 31.1975 40.3896C31.3497 40.385 31.4967 40.3474 31.6375 40.2767L31.8267 40.1818L31.6303 40.1027C30.8519 39.789 30.303 39.2771 29.9772 38.5659L29.9517 38.5101H29.8903H29.8892H29.8881H29.887H29.8859H29.8848H29.8836H29.8825H29.8814H29.8803H29.8792H29.8781H29.877H29.8759H29.8748H29.8737H29.8726H29.8714H29.8703H29.8692H29.8681H29.867H29.8659H29.8648H29.8637H29.8626H29.8615H29.8603H29.8592H29.8581H29.857H29.8559H29.8548H29.8537H29.8526H29.8515H29.8504H29.8493H29.8481H29.847H29.8459H29.8448H29.8437H29.8426H29.8415H29.8404H29.8393H29.8382H29.837H29.8359H29.8348H29.8337H29.8326H29.8315H29.8304H29.8293H29.8282H29.8271H29.8259H29.8248H29.8237H29.8226H29.8215H29.8204H29.8193H29.8182H29.8171H29.816H29.8149H29.8137H29.8126H29.8115H29.8104H29.8093H29.8082H29.8071H29.806H29.8049H29.8038H29.8026H29.8015H29.8004H29.7993H29.7982H29.7971H29.796H29.7949H29.7938H29.7927H29.7916H29.7904H29.7893H29.7882H29.7871H29.786H29.7849H29.7838H29.7827H29.7816H29.7805H29.7793H29.7782H29.7771H29.776H29.7749H29.7738H29.7727H29.7716H29.7705H29.7694H29.7683H29.7671H29.766H29.7649H29.7638H29.7627H29.7616H29.7605H29.7594H29.7583H29.7572H29.756H29.7549H29.7538H29.7527H29.7516H29.7505H29.7494H29.7483H29.7472H29.7461H29.745H29.7438H29.7427H29.7416H29.7405H29.7394H29.7383H29.7372H29.7361H29.735H29.7339H29.7327H29.7316H29.7305H29.7294H29.7283H29.7272H29.7261H29.725H29.7239H29.7228H29.7216H29.7205H29.7194H29.7183H29.7172H29.7161H29.715H29.7139H29.7128H29.7117H29.7106H29.7094H29.7083H29.7072H29.7061H29.705H29.7039H29.7028H29.7017H29.7006H29.6995H29.6983H29.6972H29.6961H29.695H29.6939H29.6928H29.6917H29.6906H29.6895H29.6884H29.6873H29.6861H29.685H29.6839H29.6828H29.6817H29.6806H29.6795H29.6784H29.6773H29.6762H29.675H29.6739H29.6728H29.6717H29.6706H29.6695H29.6684H29.6673H29.6662H29.6651H29.664H29.6628H29.6617H29.6606H29.6595H29.6584H29.6573H29.6562H29.6551H29.654H29.6529H29.6517H29.6506H29.6495H29.6484H29.6473H29.6462H29.6451H29.644H29.6429H29.6418H29.6406H29.6395H29.6384H29.6373H29.6362H29.6351H29.634H29.6329H29.6318H29.6307H29.6296H29.6284H29.6273H29.6262H29.6251H29.624H29.6229H29.6218H29.6207H29.6196H29.6185H29.6173H29.6162H29.6151H29.614H29.6129H29.6118H29.6107H29.6096H29.6085H29.6074H29.6063H29.6051H29.604H29.6029H29.6018H29.6007H29.5996H29.5985H29.5974H29.5963H29.5952H29.594H29.5929H29.5918H29.5907H29.5896H29.5885H29.5874H29.5863H29.5852H29.5841H29.583H29.5818H29.5807H29.5796H29.5785H29.5774H29.5763H29.5752H29.5741H29.573H29.5719H29.5707H29.5696H29.5685H29.5674H29.5663H29.5652H29.5641H29.563H29.5619H29.5608H29.5597H29.5585H29.5574H29.5563H29.5552H29.5541H29.553H29.5519H29.5508H29.5497H29.5486H29.5474H29.5463H29.5452H29.5441H29.543H29.5419H29.5408H29.5397H29.5386H29.5375H29.5364H29.5352H29.5341H29.533H29.5319H29.5308H29.5297H29.5286H29.5275H29.5264H29.5253H29.5241H29.523H29.5219H29.5208H29.5197H29.5186H29.5175H29.5164H29.5153H29.5142H29.5131H29.5119H29.5108H29.5097H29.5086H29.5075H29.5064H29.5053H29.5042H29.5031H29.502H29.5008H29.4997H29.4986H29.4975H29.4964H29.4953H29.4942H29.4931H29.492H29.4909H29.4897H29.4886H29.4875H29.4864H29.4853H29.4842H29.4831H29.482H29.4809H29.4798H29.4787H29.4775H29.4764H29.4753H29.4742H29.4731H29.472H29.4709H29.4698H29.4687H29.4676H29.4664H29.4653H29.4642H29.4631H29.462H29.4609H29.4598H29.4587H29.4576H29.4565H29.4554H29.4542H29.4531H29.452H29.4509H29.4498H29.4487H29.4476H29.4465H29.4454H29.4443H29.4431H29.442H29.4409H29.4398H29.4387H29.4376H29.4365H29.4354H29.4343H29.4332H29.4321H29.4309H29.4298H29.4287H29.4276H29.4265H29.4254H29.4243H29.4232H29.4221H29.421H29.4198H29.4187H29.4176H29.4165H29.4154H29.4143H29.4132H29.4121H29.411H29.4099H29.4087H29.4076H29.4065H29.4054H29.4043H29.4032H29.4021H29.401H29.3999H29.3988H29.3977H29.3965H29.3954H29.3943H29.3932H29.3921H29.391H29.3899H29.3888H29.3877H29.3866H29.3854H29.3843H29.3832H29.3821H29.3816C29.343 38.4431 29.2901 38.3899 29.2212 38.356C29.1836 38.3374 29.1433 38.3257 29.101 38.3198L29.1915 38.1416H29.1916H29.1927H29.1939H29.195H29.1961H29.1972H29.1983H29.1994H29.2005H29.2016H29.2027H29.2038H29.205H29.2061H29.2072H29.2083H29.2094H29.2105H29.2116H29.2127H29.2138H29.2149H29.216H29.2172H29.2183H29.2194H29.2205H29.2216H29.2227H29.2238H29.2249H29.226H29.2271H29.2283H29.2294H29.2305H29.2316H29.2327H29.2338H29.2349H29.236H29.2371H29.2382H29.2394H29.2405H29.2416H29.2427H29.2438H29.2449H29.246H29.2471H29.2482H29.2493H29.2504H29.2516H29.2527H29.2538H29.2549H29.256H29.2571H29.2582H29.2593H29.2604H29.2615H29.2627H29.2638H29.2649H29.266H29.2671H29.2682H29.2693H29.2704H29.2715H29.2726H29.2737H29.2749H29.276H29.2771H29.2782H29.2793H29.2804H29.2815H29.2826H29.2837H29.2848H29.286H29.2871H29.2882H29.2893H29.2904H29.2915H29.2926H29.2937H29.2948H29.2959H29.297H29.2982H29.2993H29.3004H29.3015H29.3026H29.3037H29.3048H29.3059H29.307H29.3081H29.3093H29.3104H29.3115H29.3126H29.3137H29.3148H29.3159H29.317H29.3181H29.3192H29.3204H29.3215H29.3226H29.3237H29.3248H29.3259H29.327H29.3281H29.3292H29.3303H29.3314H29.3326H29.3337H29.3348H29.3359H29.337H29.3381H29.3392H29.3403H29.3414H29.3425H29.3437H29.3448H29.3459H29.347H29.3481H29.3492H29.3503H29.3514H29.3525H29.3536H29.3547H29.3559H29.357H29.3581H29.3592H29.3603H29.3614H29.3625H29.3636H29.3647H29.3658H29.367H29.3681H29.3692H29.3703H29.3714H29.3725H29.3736H29.3747H29.3758H29.3769H29.378H29.3792H29.3803H29.3814H29.3825H29.3836H29.3847H29.3858H29.3869H29.388H29.3891H29.3903H29.3914H29.3925H29.3936H29.3947H29.3958H29.3969H29.398H29.3991H29.4002H29.4014H29.4025H29.4036H29.4047H29.4058H29.4069H29.408H29.4091H29.4102H29.4113H29.4124H29.4136H29.4147H29.4158H29.4169H29.418H29.4191H29.4202H29.4213H29.4224H29.4235H29.4247H29.4258H29.4269H29.428H29.4291H29.4302H29.4313H29.4324H29.4335H29.4346H29.4357H29.4369H29.438H29.4391H29.4402H29.4413H29.4424H29.4435H29.4446H29.4457H29.4468H29.448H29.4491H29.4502H29.4513H29.4524H29.4535H29.4546H29.4557H29.4568H29.4579H29.459H29.4602H29.4613H29.4624H29.4635H29.4646H29.4657H29.4668H29.4679H29.469H29.4701H29.4713H29.4724H29.4735H29.4746H29.4757H29.4768H29.4779H29.479H29.4801H29.4812H29.4823H29.4835H29.4846H29.4857H29.4868H29.4879H29.489H29.4901H29.4912H29.4923H29.4934H29.4946H29.4957H29.4968H29.4979H29.499H29.5001H29.5012H29.5023H29.5034H29.5045H29.5056H29.5068H29.5079H29.509H29.5101H29.5112H29.5123H29.5134H29.5145H29.5156H29.5167H29.5179H29.519H29.5201H29.5212H29.5223H29.5234H29.5245H29.5256H29.5267H29.5278H29.529H29.5301H29.5312H29.5323H29.5334H29.5345H29.5356H29.5367H29.5378H29.5389H29.54H29.5412H29.5423H29.5434H29.5445H29.5456H29.5467H29.5478H29.5489H29.55H29.5511H29.5523H29.5534H29.5545H29.5556H29.5567H29.5578H29.5589H29.56H29.5611H29.5622H29.5633H29.5645H29.5656H29.5667H29.5678H29.5689H29.57H29.5711H29.5722H29.5733H29.5744H29.5756H29.5767H29.5778H29.5789H29.58H29.5811H29.5822H29.5833H29.5844H29.5855H29.5867H29.5878H29.5889H29.59H29.5911H29.5922H29.5933H29.5944H29.5955H29.5966H29.5977H29.5989H29.6H29.6011H29.6022H29.6033H29.6044H29.6055H29.6066H29.6077H29.6088H29.61H29.6111H29.6122H29.6133H29.6144H29.6155H29.6166H29.6177H29.6188H29.6199H29.621H29.6222H29.6233H29.6244H29.6255H29.6266H29.6277H29.6288H29.6299H29.631H29.6321H29.6333H29.6344H29.6355H29.6366H29.6377H29.6388H29.6399H29.641H29.6421H29.6432H29.6443H29.6455H29.6466H29.6477H29.6488H29.6499H29.651H29.6521H29.6532H29.6543H29.6554H29.6566H29.6577H29.6588H29.6599H29.661H29.6621H29.6632H29.6643H29.6654H29.6665H29.6677H29.6688H29.6699H29.671H29.6721H29.6732H29.6743H29.6754H29.6765H29.6776H29.6787H29.6799H29.681H29.6821H29.6832H29.6843H29.6854H29.6865H29.6876H29.6887H29.6898H29.691H29.6921H29.6932H29.6943H29.6954H29.6965H29.6976H29.6987H29.6998H29.7009H29.7839L29.7956 38.0595C29.8398 37.7492 29.993 37.5355 30.26 37.4085C30.455 37.5325 30.6476 37.5815 30.8301 37.5276C31.009 37.4748 31.1537 37.33 31.2712 37.1193C31.9026 37.1575 32.5208 37.1248 33.1257 37.0209L33.1262 37.0209C33.9578 36.8741 34.6116 36.4559 35.0821 35.7681L35.1363 35.689L35.0569 35.6351C34.9939 35.5923 34.9518 35.5423 34.9276 35.4842C36.6402 34.617 38.1106 33.439 39.3378 31.9507L39.3384 31.9513L39.3451 31.9405C40.3936 30.2601 40.8089 28.4357 40.5901 26.4711C40.5666 26.158 40.6249 25.8686 40.7645 25.6002C41.4834 24.7223 42.5506 24.7203 43.2689 25.2439C43.6264 25.688 43.7168 26.0726 43.8102 26.5004C43.9608 27.1905 44.2506 27.8247 44.6789 28.4024L44.6854 28.4111L44.6936 28.4182C44.8019 28.5108 44.9185 28.5994 45.033 28.6864C45.049 28.6986 45.0649 28.7107 45.0808 28.7228C45.2114 28.8223 45.3381 28.9207 45.4523 29.0256C45.6803 29.2353 45.8492 29.4631 45.892 29.7584C45.9784 30.3542 45.5966 30.7534 45.1723 31.0669C45.0752 31.1386 45.0083 31.1947 44.9562 31.2384C44.9029 31.2831 44.8701 31.3103 44.836 31.3313C44.7727 31.37 44.6975 31.3919 44.4597 31.422C44.2346 31.4505 44.0399 31.3954 43.8693 31.2562L43.7342 31.1461L43.714 31.3192C43.6192 32.127 43.5873 32.9372 43.6183 33.7498C43.2434 36.127 41.5718 37.5927 39.6858 38.8051C38.414 39.6226 37.0938 40.3659 35.7251 41.0351C31.6101 42.3343 27.8661 44.2825 24.4933 46.8796C21.1199 44.2821 17.3751 42.3336 13.2593 41.0344C10.9415 40.0318 8.90269 38.6412 7.14218 36.8624C6.34205 35.9047 5.64585 35.0167 5.36685 33.7399C5.32075 33.328 5.32061 32.9301 5.32058 32.5303V32.5271C5.32056 32.1285 5.32054 31.7275 5.27266 31.3192L5.25238 31.1461L5.11734 31.2562C4.94661 31.3954 4.75201 31.4505 4.52696 31.422L4.52705 31.4213H4.51495C4.38472 31.4213 4.28132 31.4002 4.17844 31.3495C4.07456 31.2983 3.96596 31.2145 3.82916 31.0802C3.81828 31.0661 3.8074 31.052 3.79654 31.0379C3.48655 30.6365 3.18936 30.2517 3.09804 29.7503C3.18834 29.4555 3.36009 29.2287 3.57161 29.0239C3.70975 28.8902 3.85799 28.7715 4.01087 28.6492C4.10361 28.5749 4.19806 28.4993 4.293 28.4182C4.86668 27.9277 5.01886 27.2264 5.15937 26.5789C5.16469 26.5544 5.16999 26.53 5.17529 26.5056C5.35951 25.9618 5.45211 25.7776 5.72808 25.2338C6.17703 24.8415 6.60895 24.7462 7.01761 24.8346C7.43379 24.9246 7.84048 25.2084 8.22399 25.6038C8.36226 25.8713 8.41991 26.1597 8.39648 26.4714C8.10123 29.2752 8.99636 31.6364 11.0782 33.546L11.0777 33.5466L11.0875 33.5535Z" fill="white" stroke="#1E1D1D" stroke-width="0.191155"/>
<path d="M29.1458 37.9958L29.1455 37.9956L29.1421 38.0023C29.1174 38.0512 29.0717 38.1036 29.0139 38.1686L29.0094 38.1736C28.9598 38.2294 28.9007 38.2959 28.8631 38.3657C28.5736 38.7203 28.2133 39.0161 27.8548 39.3104C27.7545 39.3927 27.6544 39.4749 27.556 39.5582L27.5559 39.5581L27.5513 39.5625C26.9555 40.1384 26.2248 40.3516 25.3441 40.3751H25.3416H25.338H25.3343H25.3306H25.3269H25.3232H25.3195H25.3158H25.3121H25.3084H25.3047H25.301H25.2973H25.2936H25.2899H25.2862H25.2825H25.2788H25.2751H25.2714H25.2677H25.264H25.2603H25.2566H25.2529H25.2492H25.2455H25.2418H25.2381H25.2344H25.2307H25.227H25.2233H25.2196H25.2159H25.2122H25.2085H25.2048H25.2011H25.1974H25.1937H25.19H25.1863H25.1826H25.1789H25.1752H25.1715H25.1678H25.1641H25.1604H25.1567H25.153H25.1493H25.1456H25.1419H25.1382H25.1345H25.1308H25.1271H25.1234H25.1197H25.116H25.1124H25.1087H25.105H25.1013H25.0976H25.0939H25.0902H25.0865H25.0828H25.0791H25.0754H25.0717H25.068H25.0643H25.0606H25.0569H25.0532H25.0495H25.0458H25.0421H25.0384H25.0347H25.031H25.0273H25.0236H25.0199H25.0162H25.0125H25.0088H25.0051H25.0014H24.9977H24.994H24.9903H24.9866H24.9829H24.9792H24.9755H24.9718H24.9681H24.9644H24.9607H24.957H24.9533H24.9496H24.9459H24.9422H24.9385H24.9348H24.9311H24.9274H24.9237H24.92H24.9163H24.9126H24.9089H24.9052H24.9015H24.8978H24.8941H24.8904H24.8867H24.883H24.8793H24.8756H24.8719H24.8682H24.8645H24.8608H24.8571H24.8535H24.8498H24.8461H24.8424H24.8387H24.835H24.8313H24.8276H24.8239H24.8202H24.8165H24.8128H24.8091H24.8054H24.8017H24.798H24.7943H24.7906H24.7869H24.7832H24.7795H24.7758H24.7721H24.7684H24.7647H24.761H24.7573H24.7536H24.7499H24.7462H24.7425H24.7388H24.7351H24.7314H24.7277H24.724H24.7203H24.7166H24.7129H24.7092H24.7055H24.7018H24.6981H24.6944H24.6907H24.687H24.6833H24.6796H24.6759H24.6722H24.6685H24.6648H24.6611H24.6574H24.6537H24.65H24.6463H24.6426H24.6389H24.6352H24.6315H24.6278H24.6241H24.6204H24.6167H24.613H24.6093H24.6056H24.6019H24.5982H24.5945H24.5908H24.5871H24.5834H24.5797H24.576H24.5723H24.5686H24.565H24.5613H24.5576H24.5539H24.5502H24.5465H24.5428H24.5391H24.5354H24.5317H24.528H24.5243H24.5206H24.5169H24.5132H24.5095H24.5058H24.5021H24.4984H24.4947H24.491H24.4873H24.4836H24.4799H24.4762H24.4725H24.4688H24.4651H24.4614H24.4577H24.454H24.4503H24.4466H24.4429H24.4392H24.4355H24.4318H24.4281H24.4244H24.4207H24.417H24.4133H24.4096H24.4059H24.4022H24.3985H24.3948H24.3911H24.3874H24.3837H24.38H24.3763H24.3726H24.3689H24.3652H24.3615H24.3578H24.3541H24.3504H24.3467H24.343H24.3393H24.3356H24.3319H24.3282H24.3245H24.3208H24.3171H24.3134H24.3097H24.306H24.3023H24.2986H24.2949H24.2912H24.2875H24.2838H24.2801H24.2764H24.2727H24.269H24.2653H24.2617H24.258H24.2543H24.2506H24.2469H24.2432H24.2395H24.2358H24.2321H24.2284H24.2247H24.221H24.2173H24.2136H24.2099H24.2062H24.2025H24.1988H24.1951H24.1914H24.1877H24.184H24.1803H24.1766H24.1729H24.1692H24.1655H24.1618H24.1581H24.1544H24.1507H24.147H24.1433H24.1396H24.1359H24.1322H24.1285H24.1248H24.1211H24.1174H24.1137H24.11H24.1063H24.1026H24.0989H24.0952H24.0915H24.0878H24.0841H24.0804H24.0767H24.073H24.0693H24.0656H24.0619H24.0582H24.0545H24.0508H24.0471H24.0434H24.0397H24.036H24.0323H24.0286H24.0249H24.0212H24.0175H24.0138H24.0101H24.0064H24.0027H23.999H23.9953H23.9916H23.9879H23.9842H23.9805H23.9768H23.9731H23.9695H23.9658H23.9621H23.9584H23.9547H23.951H23.9473H23.9436H23.9399H23.9362H23.9325H23.9288H23.9251H23.9214H23.9177H23.914H23.9103H23.9066H23.9029H23.8992H23.8955H23.8918H23.8881H23.8844H23.8807H23.877H23.8733H23.8696H23.8659H23.8622H23.8585H23.8548H23.8511H23.8474H23.8437H23.84H23.8363H23.8326H23.8289H23.8252H23.8215H23.8178H23.8141H23.8104H23.8067H23.803H23.7993H23.7956H23.7919H23.7882H23.7845H23.7808H23.7771H23.7734H23.7697H23.766H23.7623H23.7586H23.7549H23.7512H23.7475H23.7438H23.7401H23.7364H23.7327H23.729H23.7253H23.7216H23.7179H23.7142H23.7105H23.7069H23.7032H23.6995H23.6958H23.6921H23.6884H23.6847H23.681H23.6773H23.6736H23.6699H23.6662H23.6625H23.6588H23.6551H23.6514H23.6477H23.644H23.6403H23.6366H23.6329H23.6292H23.6255H23.6218H23.6181H23.6144H23.6107H23.607H23.6033H23.5996H23.5959H23.5922H23.5885H23.5848H23.5811H23.5774H23.5737H23.57H23.5663H23.5626H23.5589H23.5552H23.5515H23.5478H23.5441H23.5404H23.5367H23.533H23.5293H23.5256H23.5219H23.5182H23.5145H23.5108H23.5071H23.5034H23.4997H23.496H23.4923H23.4886H23.4849H23.4812H23.4776H23.4739H23.4702H23.4665H23.4628H23.4591H23.4578C22.6273 40.2674 21.8903 39.9648 21.2447 39.4677C20.7994 38.9678 20.3596 38.4726 19.9252 37.9821C19.8861 37.938 19.8686 37.9153 19.8488 37.8761C19.8266 37.832 19.8019 37.7679 19.7538 37.639C19.5644 37.1312 19.377 36.6388 19.1918 36.1621V36.148V36.1319V36.1159V36.0999V36.0838V36.0678V36.0518V36.0357V36.0197V36.0037V35.9877V35.9716V35.9556V35.9396V35.9235V35.9075V35.8915V35.8754V35.8594V35.8434V35.8273V35.8113V35.7953V35.7792V35.7632V35.7472V35.7311V35.7151V35.6991V35.683V35.667V35.651V35.635V35.6189V35.6029V35.5869V35.5708V35.5548V35.5388V35.5227V35.5067V35.4907V35.4746V35.4586V35.4426V35.4265V35.4105V35.3945V35.3784V35.3624V35.3464V35.3304V35.3143V35.2983V35.2823V35.2662V35.2502V35.2342V35.2181V35.2021V35.1861V35.17V35.154V35.138V35.1219V35.1059V35.0899V35.0738V35.0578V35.0418V35.0258V35.0097V34.9937V34.9777V34.9616V34.9456V34.9296V34.9135V34.8975V34.8815V34.8654V34.8494V34.8334V34.8173V34.8013V34.7853V34.7692V34.7532V34.7372V34.7212V34.7051V34.6891V34.6731V34.657V34.641V34.625V34.6089V34.5929V34.5769V34.5608V34.5448V34.5288V34.5127V34.4967V34.4807V34.4646V34.4486V34.4326V34.4166V34.4005V34.3845V34.3685V34.3524V34.3364V34.3204V34.3043V34.2883V34.2723V34.2562V34.2402V34.2242V34.2081V34.1921V34.1761V34.1601V34.144V34.128V34.112V34.0959V34.0799V34.0639V34.0478V34.0318V34.0158V33.9997V33.9837V33.9677V33.9516V33.9356V33.9196V33.9035V33.8875V33.8715V33.8555V33.8394V33.8234V33.8074V33.7913V33.7753V33.7593V33.7432V33.7272V33.7112V33.6951V33.6791V33.6631V33.647V33.631V33.615V33.599V33.5829V33.5669V33.5509V33.5348V33.5188V33.5028V33.4867V33.4707V33.4547V33.4386V33.4226V33.4066V33.3905V33.3745V33.3585V33.3425V33.3264V33.3104V33.2944V33.2783V33.2623V33.2463V33.2302V33.2142V33.1982V33.1821V33.1661V33.1501V33.134V33.118V33.102V33.086V33.0699V33.0539V33.0379V33.0218V33.0058V32.9898V32.9737V32.9577V32.9417V32.9256V32.9096V32.8936V32.8775V32.8615V32.8455V32.8294V32.8134V32.7974V32.7814V32.7653V32.7493V32.7333V32.7172V32.7012V32.6852V32.6691V32.6531V32.6371V32.621V32.605V32.589V32.5729V32.5569V32.5409V32.5249V32.5088V32.4928V32.4768V32.4607V32.4447V32.4287V32.4126V32.3966V32.3806V32.3645V32.3485V32.3325V32.3164V32.3004V32.2844V32.2684V32.2523V32.2363V32.2203V32.2042V32.1882V32.1722V32.1561V32.1401V32.1241V32.108V32.092V32.076V32.0599V32.0439V32.0279V32.0119V31.9958V31.9798V31.9638V31.9477V31.9317V31.9157V31.8996V31.8836V31.8676V31.8515V31.8355V31.8195V31.8034V31.7874V31.7714V31.7554V31.7393V31.7233V31.7073V31.6912V31.6752V31.6592V31.6431V31.6271V31.6111V31.595V31.579V31.563V31.5469V31.5309V31.5149V31.4989V31.4828V31.4668V31.4508V31.4347V31.4187V31.4027V31.3866V31.3706V31.3546V31.3385V31.3225V31.3065V31.2904V31.2744V31.2584V31.2424V31.2263V31.2103V31.1943V31.1782V31.1622V31.1462V31.1301V31.1141V31.0981V31.082V31.066V31.05V31.0339V31.0179V31.0019V30.9859V30.9698V30.9538V30.9378V30.9217V30.9057V30.8897V30.8736V30.8576V30.8416V30.8255V30.8095V30.7935V30.7774V30.7614V30.7454V30.7293V30.7133V30.6973V30.6813V30.6652V30.6492V30.6332V30.6171V30.6011V30.5851V30.569V30.553V30.537V30.5209V30.5049V30.4889V30.4728V30.4568V30.4408V30.4248V30.4087V30.3927V30.3767V30.3606V30.3446V30.3286V30.3125V30.2965V30.2805V30.2644V30.2484V30.2324V30.2163V30.2003V30.1843V30.1683V30.1522V30.1362V30.1202V30.1041V30.0881V30.0721V30.056V30.04V30.024V30.0079V29.9919V29.9759V29.9598V29.9438V29.9278V29.9117V29.8957V29.8797V29.8637V29.8476V29.8316V29.8156V29.7995V29.7835V29.7675V29.7514V29.7354V29.7194V29.7033V29.6873V29.6713V29.6552V29.6392V29.6232V29.6072V29.5911V29.5751V29.5591V29.543V29.527V29.511V29.4949V29.4789V29.4629V29.4468V29.4308V29.4148V29.3987V29.3827V29.3667V29.3506V29.3346V29.3186V29.3026V29.2865V29.2705V29.2545V29.2384V29.2224V29.2064V29.1903V29.1743V29.1583V29.1422V29.1262V29.1102V29.0941V29.0781V29.0621V29.046V29.03V29.014V28.998V28.9819V28.9659V28.9499V28.9338V28.9178V28.9018V28.8857V28.8697V28.8537V28.8376V28.8216V28.8056V28.7895V28.7735V28.7575V28.7414V28.7254V28.7094V28.6934V28.6773V28.6613V28.6453V28.6292V28.6132V28.5972V28.5811V28.5651V28.5491V28.533V28.517V28.501V28.4849V28.4689V28.4529V28.4368V28.4208V28.4048V28.3887V28.3727V28.3567V28.3407V28.3246V28.3086V28.2926V28.2765V28.2605V28.2445V28.2284V28.2124V28.1964V28.1803V28.1643V28.1483V28.1322V28.1162V28.1002V28.0841V28.0681V28.0675H19.2016H19.2227H19.2438H19.2648H19.2859H19.307H19.3281H19.3492H19.3703H19.3913H19.4124H19.4335H19.4546H19.4757H19.4967H19.5178H19.5389H19.56H19.5811H19.6022H19.6232H19.6443H19.6654H19.6865H19.7076H19.7287H19.7497H19.7708H19.7919H19.813H19.8341H19.8551H19.8762H19.8973H19.9184H19.9395H19.9606H19.9816H20.0027H20.0238H20.0449H20.066H20.087H20.1081H20.1292H20.1503H20.1714H20.1925H20.2135H20.2346H20.2557H20.2768H20.2979H20.3189H20.34H20.3611H20.3822H20.4033H20.4244H20.4454H20.4665H20.4876H20.5087H20.5298H20.5509H20.5719H20.593H20.6141H20.6352H20.6563H20.6773H20.6984H20.7195H20.7406H20.7617H20.7828H20.8038H20.8249H20.846H20.8671H20.8882H20.9092H20.9303H20.9514H20.9725H20.9936H21.0147H21.0357H21.0568H21.0779H21.099H21.1201H21.1411H21.1622H21.1833H21.2044H21.2255H21.2466H21.2676H21.2887H21.3098H21.3309H21.352H21.373H21.3941H21.4152H21.4363H21.4574H21.4785H21.4995H21.5206H21.5417H21.5628H21.5839H21.605H21.626H21.6471H21.6682H21.6893H21.7104H21.7314H21.7525H21.7736H21.7947H21.8158H21.8369H21.8579H21.879H21.9001H21.9212H21.9423H21.9633H21.9844H22.0055H22.0266H22.0477H22.0688H22.0898H22.1109H22.132H22.1531H22.1742H22.1952H22.2163H22.2374H22.2585H22.2796H22.3007H22.3217H22.3428H22.3639H22.385H22.4061H22.4272H22.4482H22.4693H22.4904H22.5115H22.5326H22.5536H22.5747H22.5958H22.6169H22.638H22.6591H22.6801H22.7012H22.7223H22.7434H22.7645H22.7855H22.8066H22.8277H22.8488H22.8699H22.891H22.912H22.9331H22.9542H22.9753H22.9964H23.0174H23.0385H23.0596H23.0807H23.1018H23.1229H23.1439H23.165H23.1861H23.2072H23.2283H23.2494H23.2704H23.2915H23.3126H23.3337H23.3548H23.3758H23.3969H23.418H23.4391H23.4602H23.4813H23.5023H23.5234H23.5445H23.5656H23.5867H23.6077H23.6288H23.6499H23.671H23.6921H23.7132H23.7342H23.7553H23.7764H23.7975H23.8186H23.8396H23.8607H23.8818H23.9029H23.924H23.9451H23.9661H23.9872H24.0083H24.0294H24.0505H24.0715H24.0926H24.1137H24.1348H24.1559H24.177H24.198H24.2191H24.2402H24.2613H24.2824H24.3035H24.3245H24.3456H24.3667H24.3878H24.4089H24.4299H24.451H24.4721H24.4932H24.5143H24.5354H24.5564H24.5775H24.5986H24.6197H24.6408H24.6618H24.6829H24.704H24.7251H24.7462H24.7673H24.7883H24.8094H24.8305H24.8516H24.8727H24.8937H24.9148H24.9359H24.957H24.9781H24.9992H25.0202H25.0413H25.0624H25.0835H25.1046H25.1256H25.1467H25.1678H25.1889H25.21H25.2311H25.2521H25.2732H25.2943H25.3154H25.3365H25.3576H25.3786H25.3997H25.4208H25.4419H25.463H25.484H25.5051H25.5262H25.5473H25.5684H25.5895H25.6105H25.6316H25.6527H25.6738H25.6949H25.7159H25.737H25.7581H25.7792H25.8003H25.8214H25.8424H25.8635H25.8846H25.9057H25.9268H25.9478H25.9689H25.99H26.0111H26.0322H26.0533H26.0743H26.0954H26.1165H26.1376H26.1587H26.1798H26.2008H26.2219H26.243H26.2641H26.2852H26.3062H26.3273H26.3484H26.3695H26.3906H26.4117H26.4327H26.4538H26.4749H26.496H26.5171H26.5381H26.5592H26.5803H26.6014H26.6225H26.6436H26.6646H26.6857H26.7068H26.7279H26.749H26.77H26.7911H26.8122H26.8333H26.8544H26.8755H26.8965H26.9176H26.9387H26.9598H26.9809H27.0019H27.023H27.0441H27.0652H27.0863H27.1074H27.1284H27.1495H27.1706H27.1917H27.2128H27.2339H27.2549H27.276H27.2971H27.3182H27.3393H27.3603H27.3814H27.4025H27.4236H27.4447H27.4658H27.4868H27.5079H27.529H27.5501H27.5712H27.5922H27.6133H27.6344H27.6555H27.6766H27.6977H27.7187H27.7398H27.7609H27.782H27.8031H27.8241H27.8452H27.8663H27.8874H27.9085H27.9296H27.9506H27.9717H27.9928H28.0139H28.035H28.0561H28.0771H28.0982H28.1193H28.1404H28.1615H28.1825H28.2036H28.2247H28.2458H28.2669H28.288H28.309H28.3301H28.3512H28.3723H28.3934H28.4144H28.4355H28.4566H28.4777H28.4988H28.5199H28.5409H28.562H28.5831H28.6042H28.6253H28.6463H28.6674H28.6885H28.7096H28.7307H28.7518H28.7728H28.7939H28.815H28.8361H28.8572H28.8783H28.8993H28.9204H28.9415H28.9626H28.9837H29.0047H29.0258H29.0469H29.068H29.0891H29.1102H29.1312H29.1523H29.1734H29.1945H29.2156H29.2366H29.2577H29.2788H29.2999H29.321H29.3421H29.3631H29.3842H29.4053H29.4264H29.4475H29.4685H29.4896H29.5107H29.5318H29.5529H29.574H29.595H29.6161H29.6372H29.6583H29.6794H29.7004H29.7215H29.7426H29.7637H29.7848H29.7946V28.0739V28.0885V28.1031V28.1177V28.1322V28.1468V28.1614V28.176V28.1905V28.2051V28.2197V28.2343V28.2488V28.2634V28.278V28.2925V28.3071V28.3217V28.3363V28.3508V28.3654V28.38V28.3946V28.4091V28.4237V28.4383V28.4529V28.4674V28.482V28.4966V28.5112V28.5257V28.5403V28.5549V28.5694V28.584V28.5986V28.6132V28.6277V28.6423V28.6569V28.6715V28.686V28.7006V28.7152V28.7298V28.7443V28.7589V28.7735V28.7881V28.8026V28.8172V28.8318V28.8464V28.8609V28.8755V28.8901V28.9046V28.9192V28.9338V28.9484V28.9629V28.9775V28.9921V29.0067V29.0212V29.0358V29.0504V29.065V29.0795V29.0941V29.1087V29.1233V29.1378V29.1524V29.167V29.1816V29.1961V29.2107V29.2253V29.2398V29.2544V29.269V29.2836V29.2981V29.3127V29.3273V29.3419V29.3564V29.371V29.3856V29.4002V29.4147V29.4293V29.4439V29.4585V29.473V29.4876V29.5022V29.5168V29.5313V29.5459V29.5605V29.5751V29.5896V29.6042V29.6188V29.6333V29.6479V29.6625V29.6771V29.6916V29.7062V29.7208V29.7354V29.7499V29.7645V29.7791V29.7937V29.8082V29.8228V29.8374V29.852V29.8665V29.8811V29.8957V29.9103V29.9248V29.9394V29.954V29.9686V29.9831V29.9977V30.0123V30.0268V30.0414V30.056V30.0706V30.0851V30.0997V30.1143V30.1289V30.1434V30.158V30.1726V30.1872V30.2017V30.2163V30.2309V30.2455V30.26V30.2746V30.2892V30.3038V30.3183V30.3329V30.3475V30.3621V30.3766V30.3912V30.4058V30.4204V30.4349V30.4495V30.4641V30.4786V30.4932V30.5078V30.5224V30.5369V30.5515V30.5661V30.5807V30.5952V30.6098V30.6244V30.639V30.6535V30.6681V30.6827V30.6973V30.7118V30.7264V30.741V30.7556V30.7701V30.7847V30.7993V30.8139V30.8284V30.843V30.8576V30.8722V30.8867V30.9013V30.9159V30.9304V30.945V30.9596V30.9742V30.9887V31.0033V31.0179V31.0325V31.047V31.0616V31.0762V31.0908V31.1053V31.1199V31.1345V31.1491V31.1636V31.1782V31.1928V31.2074V31.2219V31.2365V31.2511V31.2657V31.2802V31.2948V31.3094V31.324V31.3385V31.3531V31.3677V31.3822V31.3968V31.4114V31.426V31.4405V31.4551V31.4697V31.4843V31.4988V31.5134V31.528V31.5426V31.5571V31.5717V31.5863V31.6009V31.6154V31.63V31.6446V31.6592V31.6737V31.6883V31.7029V31.7175V31.732V31.7466V31.7612V31.7758V31.7903V31.8049V31.8195V31.8341V31.8486V31.8632V31.8778V31.8923V31.9069V31.9215V31.9361V31.9506V31.9652V31.9798V31.9944V32.0089V32.0235V32.0381V32.0527V32.0672V32.0818V32.0964V32.111V32.1255V32.1401V32.1547V32.1693V32.1838V32.1984V32.213V32.2276V32.2421V32.2567V32.2713V32.2859V32.3004V32.315V32.3296V32.3441V32.3587V32.3733V32.3879V32.4024V32.417V32.4316V32.4462V32.4607V32.4753V32.4899V32.5045V32.519V32.5336V32.5482V32.5628V32.5773V32.5919V32.6065V32.6211V32.6356V32.6502V32.6648V32.6794V32.6939V32.7085V32.7231V32.7377V32.7522V32.7668V32.7814V32.7959V32.8105V32.8251V32.8397V32.8542V32.8688V32.8834V32.898V32.9125V32.9271V32.9417V32.9563V32.9708V32.9854V33V33.0146V33.0291V33.0437V33.0583V33.0729V33.0874V33.102V33.1166V33.1312V33.1457V33.1603V33.1749V33.1895V33.204V33.2186V33.2332V33.2477V33.2623V33.2769V33.2915V33.306V33.3206V33.3352V33.3498V33.3643V33.3789V33.3935V33.4081V33.4226V33.4372V33.4518V33.4664V33.4809V33.4955V33.5101V33.5247V33.5392V33.5538V33.5684V33.583V33.5975V33.6121V33.6267V33.6413V33.6558V33.6704V33.685V33.6995V33.7141V33.7287V33.7433V33.7578V33.7724V33.787V33.8016V33.8161V33.8307V33.8453V33.8599V33.8744V33.889V33.9036V33.9182V33.9327V33.9473V33.9619V33.9765V33.991V34.0056V34.0202V34.0347V34.0493V34.0639V34.0785V34.093V34.1076V34.1222V34.1368V34.1513V34.1659V34.1805V34.1951V34.2096V34.2242V34.2388V34.2534V34.2679V34.2825V34.2971V34.3117V34.3262V34.3408V34.3554V34.37V34.3845V34.3991V34.4137V34.4282V34.4428V34.4574V34.472V34.4865V34.5011V34.5157V34.5303V34.5448V34.5594V34.574V34.5886V34.6031V34.6177V34.6323V34.6469V34.6614V34.676V34.6906V34.7052V34.7197V34.7343V34.7489V34.7634V34.778V34.7926V34.8072V34.8217V34.8363V34.8509V34.8655V34.88V34.8946V34.9092V34.9238V34.9383V34.9529V34.9675V34.9821V34.9966V35.0112V35.0258V35.0404V35.0549V35.0695V35.0841V35.0986V35.1132V35.1278V35.1424V35.1569V35.1715V35.1861V35.2007V35.2152V35.2298V35.2444V35.259V35.2735V35.2881V35.3027V35.3173V35.3318V35.3464V35.361V35.3755V35.3901V35.4047V35.4193V35.4338C29.7946 35.8965 29.7758 36.1696 29.7018 36.5341C29.6088 36.9923 29.4228 37.541 29.1458 37.9958Z" fill="white" stroke="#1E1D1D" stroke-width="0.191155"/>
<path d="M19.7596 28.823V28.8136H19.775H19.7935H19.812H19.8305H19.849H19.8675H19.886H19.9045H19.923H19.9415H19.96H19.9784H19.9969H20.0154H20.0339H20.0524H20.0709H20.0894H20.1079H20.1264H20.1449H20.1634H20.1819H20.2004H20.2189H20.2374H20.2558H20.2743H20.2928H20.3113H20.3298H20.3483H20.3668H20.3853H20.4038H20.4223H20.4408H20.4593H20.4778H20.4963H20.5148H20.5332H20.5517H20.5702H20.5887H20.6072H20.6257H20.6442H20.6627H20.6812H20.6997H20.7182H20.7367H20.7552H20.7737H20.7922H20.8106H20.8291H20.8476H20.8661H20.8846H20.9031H20.9216H20.9401H20.9586H20.9771H20.9956H21.0141H21.0326H21.0511H21.0695H21.088H21.1065H21.125H21.1435H21.162H21.1805H21.199H21.2175H21.236H21.2545H21.273H21.2915H21.31H21.3285H21.3469H21.3654H21.3839H21.4024H21.4209H21.4394H21.4579H21.4764H21.4949H21.5134H21.5319H21.5504H21.5689H21.5874H21.6058H21.6243H21.6428H21.6613H21.6798H21.6983H21.7168H21.7353H21.7538H21.7723H21.7908H21.8093H21.8278H21.8463H21.8647H21.8832H21.9017H21.9202H21.9387H21.9572H21.9757H21.9942H22.0127H22.0312H22.0497H22.0682H22.0867H22.1052H22.1237H22.1421H22.1606H22.1791H22.1976H22.2161H22.2346H22.2531H22.2716H22.2901H22.3086H22.3271H22.3456H22.3641H22.3826H22.401H22.4195H22.438H22.4565H22.475H22.4935H22.512H22.5305H22.549H22.5675H22.586H22.6045H22.623H22.6415H22.6599H22.6784H22.6969H22.7154H22.7339H22.7524H22.7709H22.7894H22.8079H22.8264H22.8449H22.8634H22.8819H22.9004H22.9188H22.9373H22.9558H22.9743H22.9928H23.0113H23.0298H23.0483H23.0668H23.0853H23.1038H23.1223H23.1408H23.1593H23.1777H23.1962H23.2147H23.2332H23.2517H23.2702H23.2887H23.3072H23.3257H23.3442H23.3627H23.3812H23.3997H23.4182H23.4366H23.4551H23.4736H23.4921H23.5106H23.5291H23.5476H23.5661H23.5846H23.6031H23.6216H23.6401H23.6586H23.6771H23.6955H23.714H23.7325H23.751H23.7695H23.788H23.8065H23.825H23.8435H23.862H23.8805H23.899H23.9175H23.936H23.9544H23.9729H23.9914H24.0099H24.0284H24.0469H24.0654H24.0839H24.1024H24.1209H24.1394H24.1579H24.1764H24.1949H24.2133H24.2318H24.2503H24.2688H24.2873H24.3058H24.3243H24.3428H24.3613H24.3798H24.3983H24.4168H24.4353H24.4538H24.4722H24.4907H24.5092H24.5277H24.5462H24.5647H24.5832H24.6017H24.6202H24.6387H24.6572H24.6757H24.6942H24.7127H24.7311H24.7496H24.7681H24.7866H24.8051H24.8236H24.8421H24.8606H24.8791H24.8976H24.9161H24.9346H24.9531H24.9716H24.99H25.0085H25.027H25.0455H25.064H25.0825H25.101H25.1195H25.138H25.1565H25.175H25.1935H25.212H25.2305H25.2489H25.2674H25.2859H25.3044H25.3229H25.3414H25.3599H25.3784H25.3969H25.4154H25.4339H25.4524H25.4709H25.4893H25.5078H25.5263H25.5448H25.5633H25.5818H25.6003H25.6188H25.6373H25.6558H25.6743H25.6928H25.7113H25.7298H25.7483H25.7667H25.7852H25.8037H25.8222H25.8407H25.8592H25.8777H25.8962H25.9147H25.9332H25.9517H25.9702H25.9887H26.0072H26.0256H26.0441H26.0626H26.0811H26.0996H26.1181H26.1366H26.1551H26.1736H26.1921H26.2106H26.2291H26.2476H26.2661H26.2845H26.303H26.3215H26.34H26.3585H26.377H26.3955H26.414H26.4325H26.451H26.4695H26.488H26.5065H26.525H26.5434H26.5619H26.5804H26.5989H26.6174H26.6359H26.6544H26.6729H26.6914H26.7099H26.7284H26.7469H26.7654H26.7839H26.8023H26.8208H26.8393H26.8578H26.8763H26.8948H26.9133H26.9318H26.9503H26.9688H26.9873H27.0058H27.0243H27.0428H27.0612H27.0797H27.0982H27.1167H27.1352H27.1537H27.1722H27.1907H27.2092H27.2277H27.2462H27.2647H27.2832H27.3017H27.3201H27.3386H27.3571H27.3756H27.3941H27.4126H27.4311H27.4496H27.4681H27.4866H27.5051H27.5236H27.5421H27.5606H27.5791H27.5975H27.616H27.6345H27.653H27.6715H27.69H27.7085H27.727H27.7455H27.764H27.7825H27.801H27.8195H27.838H27.8564H27.8749H27.8934H27.9119H27.9304H27.9489H27.9674H27.9859H28.0044H28.0229H28.0414H28.0599H28.0784H28.0969H28.1154H28.1338H28.1523H28.1708H28.1893H28.2078H28.2263H28.2448H28.2633H28.2818H28.3003H28.3188H28.3373H28.3558H28.3743H28.3928H28.4112H28.4297H28.4482H28.4667H28.4852H28.5037H28.5222H28.5407H28.5592H28.5777H28.5962H28.6147H28.6332H28.6517H28.6701H28.6886H28.7071H28.7256H28.7441H28.7626H28.7811H28.7996H28.8181H28.8366H28.8551H28.8736H28.8921H28.9106H28.9291H28.9475H28.966H28.9845H29.003H29.0215H29.0369V28.8226V28.8375V28.8525V28.8674V28.8823V28.8973V28.9122V28.9272V28.9421V28.957V28.972V28.9869V29.0019V29.0168V29.0317V29.0467V29.0616V29.0765V29.0915V29.1064V29.1214V29.1363V29.1512V29.1662V29.1811V29.1961V29.211V29.2259V29.2409V29.2558V29.2707V29.2857V29.3006V29.3156V29.3305V29.3454V29.3604V29.3753V29.3903V29.4052V29.4201V29.4351V29.45V29.465V29.4799V29.4948V29.5098V29.5247V29.5396V29.5546V29.5695V29.5845V29.5994V29.6143V29.6293V29.6442V29.6592V29.6741V29.689V29.704V29.7189V29.7338V29.7488V29.7637V29.7787V29.7936V29.8085V29.8235V29.8384V29.8534V29.8683V29.8832V29.8982V29.9131V29.928V29.943V29.9579V29.9729V29.9878V30.0027V30.0177V30.0326V30.0476V30.0625V30.0774V30.0924V30.1073V30.1222V30.1372V30.1521V30.1671V30.182V30.1969V30.2119V30.2268V30.2418V30.2567V30.2716V30.2866V30.3015V30.3164V30.3314V30.3463V30.3613V30.3762V30.3911V30.4061V30.421V30.436V30.4509V30.4658V30.4808V30.4957V30.5106V30.5256V30.5405V30.5555V30.5704V30.5853V30.6003V30.6152V30.6302V30.6451V30.66V30.675V30.6899V30.7048V30.7198V30.7347V30.7497V30.7646V30.7795V30.7945V30.8094V30.8243V30.8393V30.8542V30.8692V30.8841V30.899V30.914V30.9289V30.9439V30.9588V30.9737V30.9887V31.0036V31.0185V31.0335V31.0484V31.0634V31.0783V31.0932V31.1082V31.1231V31.1381V31.153V31.1679V31.1829V31.1978V31.2127V31.2277V31.2426V31.2576V31.2725V31.2874V31.3024V31.3173V31.3323V31.3472V31.3621V31.3771V31.392V31.4069V31.4219V31.4368V31.4518V31.4667V31.4816V31.4966V31.5115V31.5264V31.5414V31.5563V31.5713V31.5862V31.6011V31.6161V31.631V31.646V31.6609V31.6758V31.6908V31.7057V31.7206V31.7356V31.7505V31.7655V31.7804V31.7953V31.8103V31.8252V31.8402V31.8551V31.87V31.885V31.8999V31.9148V31.9298V31.9447V31.9597V31.9746V31.9895V32.0045V32.0194V32.0344V32.0493V32.0642V32.0792V32.0941V32.109V32.124V32.1389V32.1539V32.1688V32.1837V32.1987V32.2136V32.2285V32.2435V32.2584V32.2734V32.2883V32.3032V32.3182V32.3331V32.3481V32.363V32.3779V32.3929V32.4078V32.4227V32.4377V32.4526V32.4676V32.4825V32.4974V32.5124V32.5273V32.5423V32.5572V32.5721V32.5871V32.602V32.6169V32.6319V32.6468V32.6618V32.6767V32.6916V32.7066V32.7215V32.7364V32.7514V32.7663V32.7813V32.7962V32.8111V32.8261V32.841V32.856V32.8709V32.8858V32.9008V32.9157V32.9306V32.9456V32.9605V32.9755V32.9904V33.0053V33.0203V33.0352V33.0501V33.0651V33.08V33.095V33.1099V33.1248V33.1398V33.1547V33.1697V33.1846V33.1995V33.2145V33.2294V33.2443V33.2593V33.2742V33.2892V33.3041V33.319V33.334V33.3489V33.3639V33.3788V33.3937V33.4087V33.4236V33.4385V33.4535V33.4684V33.4834V33.4983V33.5132V33.5282V33.5431V33.5581V33.573V33.5879V33.6029V33.6178V33.6327V33.6477V33.6626V33.6776V33.6925V33.7074V33.7224V33.7373V33.7522V33.7672V33.7821V33.7971V33.812V33.8269V33.8419V33.8568V33.8718V33.8867V33.9016V33.9166V33.9315V33.9464V33.9614V33.9763V33.9913V34.0062V34.0211V34.0361V34.051V34.066V34.0809V34.0958V34.1108V34.1257V34.1406V34.1556V34.1705V34.1855V34.2004V34.2153V34.2303V34.2452V34.2602V34.2751V34.29V34.305V34.3199V34.3348V34.3498V34.3647V34.3797V34.3946V34.4095V34.4245V34.4394V34.4543V34.4693V34.4842V34.4992V34.5141V34.529V34.544V34.5589V34.5739V34.5888V34.6037V34.6187V34.6336V34.6485V34.6635V34.6784V34.6934V34.7083V34.7232V34.7382V34.7531V34.7681V34.783V34.7979V34.8129V34.8278V34.8427V34.8577V34.8726V34.8876V34.9025V34.9174V34.9324V34.9473V34.9623V34.9772V34.9921V35.0071V35.022V35.0369V35.0519V35.0668V35.0818V35.0967V35.1116V35.1266V35.1415V35.1565V35.1714V35.1863V35.2013V35.2162V35.2311V35.2461V35.261V35.276V35.2909V35.3058V35.3208V35.3357V35.3507V35.3656V35.3805V35.3955V35.4104V35.4253V35.4403V35.4552V35.4702V35.4851V35.5V35.515V35.5299V35.5449V35.5598V35.5747V35.5897V35.6046V35.6195V35.6345V35.6494V35.6644V35.6793V35.6942V35.7092V35.7241V35.7391V35.754V35.7689V35.7839V35.7988V35.8138V35.8287V35.8436V35.8586V35.8735V35.8884V35.9034V35.9183V35.9333V35.9482V35.9631V35.9781V35.993V36.008V36.0229V36.0378V36.0528V36.0677V36.0826V36.0976V36.1125V36.1275V36.1424V36.1573V36.1723V36.1872V36.2022V36.2171V36.232V36.247V36.2619V36.2769V36.2918V36.3067V36.3217V36.3366V36.3501C28.425 38.076 27.4446 39.0959 26.2146 39.5084C24.9797 39.9224 23.4725 39.7313 21.7965 38.9888C20.6028 38.0607 19.9255 36.8752 19.7596 35.4283V35.4206V35.4075V35.3944V35.3813V35.3682V35.355V35.3419V35.3288V35.3157V35.3026V35.2895V35.2763V35.2632V35.2501V35.237V35.2239V35.2108V35.1976V35.1845V35.1714V35.1583V35.1452V35.1321V35.1189V35.1058V35.0927V35.0796V35.0665V35.0534V35.0402V35.0271V35.014V35.0009V34.9878V34.9747V34.9615V34.9484V34.9353V34.9222V34.9091V34.896V34.8828V34.8697V34.8566V34.8435V34.8304V34.8173V34.8041V34.791V34.7779V34.7648V34.7517V34.7386V34.7254V34.7123V34.6992V34.6861V34.673V34.6599V34.6467V34.6336V34.6205V34.6074V34.5943V34.5812V34.568V34.5549V34.5418V34.5287V34.5156V34.5025V34.4893V34.4762V34.4631V34.45V34.4369V34.4238V34.4106V34.3975V34.3844V34.3713V34.3582V34.3451V34.3319V34.3188V34.3057V34.2926V34.2795V34.2664V34.2532V34.2401V34.227V34.2139V34.2008V34.1877V34.1745V34.1614V34.1483V34.1352V34.1221V34.109V34.0958V34.0827V34.0696V34.0565V34.0434V34.0303V34.0171V34.004V33.9909V33.9778V33.9647V33.9516V33.9384V33.9253V33.9122V33.8991V33.886V33.8729V33.8597V33.8466V33.8335V33.8204V33.8073V33.7942V33.781V33.7679V33.7548V33.7417V33.7286V33.7155V33.7023V33.6892V33.6761V33.663V33.6499V33.6368V33.6236V33.6105V33.5974V33.5843V33.5712V33.5581V33.5449V33.5318V33.5187V33.5056V33.4925V33.4794V33.4662V33.4531V33.44V33.4269V33.4138V33.4007V33.3875V33.3744V33.3613V33.3482V33.3351V33.322V33.3088V33.2957V33.2826V33.2695V33.2564V33.2433V33.2301V33.217V33.2039V33.1908V33.1777V33.1646V33.1514V33.1383V33.1252V33.1121V33.099V33.0859V33.0727V33.0596V33.0465V33.0334V33.0203V33.0072V32.994V32.9809V32.9678V32.9547V32.9416V32.9285V32.9153V32.9022V32.8891V32.876V32.8629V32.8498V32.8366V32.8235V32.8104V32.7973V32.7842V32.7711V32.7579V32.7448V32.7317V32.7186V32.7055V32.6924V32.6792V32.6661V32.653V32.6399V32.6268V32.6137V32.6005V32.5874V32.5743V32.5612V32.5481V32.535V32.5218V32.5087V32.4956V32.4825V32.4694V32.4563V32.4431V32.43V32.4169V32.4038V32.3907V32.3776V32.3644V32.3513V32.3382V32.3251V32.312V32.2989V32.2857V32.2726V32.2595V32.2464V32.2333V32.2202V32.207V32.1939V32.1808V32.1677V32.1546V32.1415V32.1283V32.1152V32.1021V32.089V32.0759V32.0628V32.0496V32.0365V32.0234V32.0103V31.9972V31.9841V31.9709V31.9578V31.9447V31.9316V31.9185V31.9054V31.8922V31.8791V31.866V31.8529V31.8398V31.8267V31.8135V31.8004V31.7873V31.7742V31.7611V31.748V31.7348V31.7217V31.7086V31.6955V31.6824V31.6693V31.6561V31.643V31.6299V31.6168V31.6037V31.5906V31.5774V31.5643V31.5512V31.5381V31.525V31.5119V31.4987V31.4856V31.4725V31.4594V31.4463V31.4332V31.42V31.4069V31.3938V31.3807V31.3676V31.3545V31.3413V31.3282V31.3151V31.302V31.2889V31.2758V31.2626V31.2495V31.2364V31.2233V31.2102V31.1971V31.1839V31.1708V31.1577V31.1446V31.1315V31.1184V31.1052V31.0921V31.079V31.0659V31.0528V31.0397V31.0265V31.0134V31.0003V30.9872V30.9741V30.961V30.9478V30.9347V30.9216V30.9085V30.8954V30.8823V30.8691V30.856V30.8429V30.8298V30.8167V30.8036V30.7904V30.7773V30.7642V30.7511V30.738V30.7249V30.7117V30.6986V30.6855V30.6724V30.6593V30.6462V30.633V30.6199V30.6068V30.5937V30.5806V30.5675V30.5543V30.5412V30.5281V30.515V30.5019V30.4888V30.4756V30.4625V30.4494V30.4363V30.4232V30.4101V30.3969V30.3838V30.3707V30.3576V30.3445V30.3314V30.3182V30.3051V30.292V30.2789V30.2658V30.2527V30.2395V30.2264V30.2133V30.2002V30.1871V30.174V30.1608V30.1477V30.1346V30.1215V30.1084V30.0953V30.0821V30.069V30.0559V30.0428V30.0297V30.0166V30.0034V29.9903V29.9772V29.9641V29.951V29.9379V29.9247V29.9116V29.8985V29.8854V29.8723V29.8592V29.846V29.8329V29.8198V29.8067V29.7936V29.7805V29.7673V29.7542V29.7411V29.728V29.7149V29.7018V29.6886V29.6755V29.6624V29.6493V29.6362V29.6231V29.6099V29.5968V29.5837V29.5706V29.5575V29.5444V29.5312V29.5181V29.505V29.4919V29.4788V29.4657V29.4525V29.4394V29.4263V29.4132V29.4001V29.387V29.3739V29.3607V29.3476V29.3345V29.3214V29.3083V29.2952V29.282V29.2689V29.2558V29.2427V29.2296V29.2165V29.2033V29.1902V29.1771V29.164V29.1509V29.1378V29.1246V29.1115V29.0984V29.0853V29.0722V29.0591V29.0459V29.0328V29.0197V29.0066V28.9935V28.9804V28.9672V28.9541V28.941V28.9279V28.9148V28.9017V28.8885V28.8754V28.8623V28.8492V28.8361V28.823Z" fill="white" stroke="#1E1D1D" stroke-width="0.191155"/>
<path d="M33.8101 35.3946C34.1531 35.44 34.4761 35.4223 34.7799 35.3432C36.4933 34.4835 37.9619 33.3101 39.1862 31.8223C40.2098 30.1744 40.6142 28.3889 40.3999 26.4628C40.3666 26.163 40.3134 25.7907 40.2698 25.4862C40.2453 25.3145 40.2238 25.1644 40.2107 25.0609C40.1161 24.3132 39.9958 23.4747 39.8334 22.7305C39.5552 21.4555 39.4282 20.1387 39.4525 18.7802C39.4525 18.7799 39.4525 18.7796 39.4525 18.7793L39.5481 18.781C39.5483 17.9366 39.6113 17.1258 39.7375 16.3487L33.8101 35.3946ZM33.8101 35.3946C35.7872 34.4922 37.5031 33.2162 38.957 31.5671L38.9626 31.5607L38.9671 31.5534C39.7088 30.3278 40.0607 29 40.0224 27.5722L40.0229 27.5722L40.0215 27.5621C39.6966 25.1372 39.4128 22.7065 39.1699 20.27C38.907 16.2276 39.5673 12.3451 41.151 8.6214L41.1764 8.56164L41.1302 8.516L36.9641 4.39977L36.9368 4.37277L36.8984 4.37219C28.6283 4.24744 20.3583 4.24744 12.0882 4.37219L12.0498 4.37277L12.0225 4.39976L7.8564 8.516L7.81021 8.56164L7.83562 8.62139C9.41924 12.3451 10.0795 16.2276 9.81667 20.27C9.57384 22.7065 9.28996 25.1372 8.96505 27.5621L8.9644 27.562L8.96422 27.5733C8.9272 29.9006 9.82431 31.7997 11.6512 33.2625L11.6511 33.2626L11.6562 33.2662C12.7659 34.0405 13.9125 34.7309 15.0961 35.3375H15.0944H15.0918H15.0892H15.0867H15.0841H15.0815H15.0789H15.0763H15.0737H15.0711H15.0685H15.0659H15.0634H15.0608H15.0582H15.0556H15.053H15.0504H15.0478H15.0452H15.0426H15.0401H15.0375H15.0349H15.0323H15.0297H15.0271H15.0245H15.0219H15.0193H15.0168H15.0142H15.0116H15.009H15.0064H15.0038H15.0012H14.9986H14.996H14.9934H14.9909H14.9883H14.9857H14.9831H14.9805H14.9779H14.9753H14.9727H14.9701H14.9676H14.965H14.9624H14.9598H14.9572H14.9546H14.952H14.9494H14.9468H14.9443H14.9417H14.9391H14.9365H14.9339H14.9313H14.9287H14.9261H14.9235H14.921H14.9184H14.9158H14.9132H14.9106H14.908H14.9054H14.9028H14.9002H14.8977H14.8951H14.8925H14.8899H14.8873H14.8847H14.8821H14.8795H14.8769H14.8744H14.8718H14.8692H14.8666H14.864H14.8614H14.8588H14.8562H14.8536H14.8511H14.8485H14.8459H14.8433H14.8407H14.8381H14.8355H14.8329H14.8303H14.8278H14.8252H14.8226H14.82H14.8174H14.8148H14.8122H14.8096H14.807H14.8044H14.8019H14.7993H14.7967H14.7941H14.7915H14.7889H14.7863H14.7837H14.7811H14.7786H14.776H14.7734H14.7708H14.7682H14.7656H14.763H14.7604H14.7578H14.7553H14.7527H14.7501H14.7475H14.7449H14.7423H14.7397H14.7371H14.7345H14.732H14.7294H14.7268H14.7242H14.7216H14.719H14.7164H14.7138H14.7112H14.7087H14.7061H14.7035H14.7009H14.6983H14.6957H14.6931H14.6905H14.6879H14.6854H14.6828H14.6802H14.6776H14.675H14.6724H14.6698H14.6672H14.6646H14.6621H14.6595H14.6569H14.6543H14.6517H14.6491H14.6465H14.6439H14.6413H14.6388H14.6362H14.6336H14.631H14.6284H14.6258H14.6232H14.6206H14.618H14.6154H14.6129H14.6103H14.6077H14.6051H14.6025H14.5999H14.5973H14.5947H14.5921H14.5896H14.587H14.5844H14.5818H14.5792H14.5766H14.574H14.5714H14.5688H14.5663H14.5637H14.5611H14.5585H14.5559H14.5533H14.5507H14.5481H14.5455H14.543H14.5404H14.5378H14.5352H14.5326H14.53H14.5274H14.5248H14.5222H14.5197H14.5171H14.5145H14.5119H14.5093H14.5067H14.5041H14.5015H14.4989H14.4964H14.4938H14.4912H14.4886H14.486H14.4834H14.4808H14.4782H14.4756H14.4731H14.4705H14.4679H14.4653H14.4627H14.4601H14.4575H14.4549H14.4523H14.4498H14.4472H14.4446H14.442H14.4394H14.4368H14.4342H14.4316H14.429H14.4265H14.4239H14.4213H14.4187H14.4161H14.4135H14.4109H14.4083H14.4057H14.4031H14.4006H14.398H14.3954H14.3928H14.3902H14.3876H14.385H14.3824H14.3798H14.3773H14.3747H14.3721H14.3695H14.3669H14.3643H14.3617H14.3591H14.3565H14.354H14.3514H14.3488H14.3462H14.3436H14.341H14.3384H14.3358H14.3332H14.3307H14.3281H14.3255H14.3229H14.3203H14.3177H14.3151H14.3125H14.3099H14.3074H14.3048H14.3022H14.2996H14.297H14.2944H14.2918H14.2892H14.2866H14.2841H14.2815H14.2789H14.2763H14.2737H14.2711H14.2685H14.2659H14.2633H14.2608H14.2582H14.2556H14.253H14.2504H14.2478H14.2452H14.2426H14.24H14.2375H14.2349H14.2323H14.2297H14.2271H14.2245H14.2219H14.2193H14.2167H14.2142H14.2116H14.209H14.2064H14.2038H14.2012H14.1987C13.1806 34.7396 12.1821 34.0918 11.2032 33.3941C9.16859 31.5202 8.29759 29.2125 8.58673 26.4622C8.59092 26.4224 8.59507 26.3826 8.59923 26.3428C8.64402 25.9141 8.68919 25.4817 8.77529 24.9713C8.83142 24.6385 8.8838 24.352 8.93226 24.0869C9.01897 23.6125 9.09319 23.2065 9.15407 22.7264L33.8101 35.3946ZM41.5179 8.60244C40.4075 11.0663 39.7821 13.6453 39.6423 16.3386L9.05978 22.7102C9.33651 21.4424 9.46276 20.1327 9.43852 18.781L9.5341 18.781C9.5341 18.7807 9.5341 18.7805 9.5341 18.7802C9.53407 18.6395 9.53495 18.4993 9.53582 18.3597C9.54014 17.6688 9.54436 16.9917 9.43902 16.3386C9.2989 13.6432 8.57969 11.0642 7.46873 8.60243C8.83141 7.13326 10.1964 5.66196 11.5638 4.18853C20.1835 4.06459 28.8031 4.06459 37.4228 4.18853C38.7901 5.66197 40.1553 7.13327 41.5179 8.60244Z" fill="white" stroke="white" stroke-width="0.191155"/>
<path fill-rule="evenodd" clip-rule="evenodd" d="M33.4749 35.4525C33.2854 35.4525 33.0958 35.4525 32.9063 35.4525C32.7607 35.3095 32.6659 35.1222 32.6219 34.8904C32.5493 34.9946 32.4545 35.057 32.3376 35.0778C32.7457 34.7332 33.2512 34.5458 33.854 34.5157C34.6583 34.1921 35.1322 33.63 35.2757 32.8295C34.5023 32.9151 33.7756 33.1024 33.0958 33.3915C32.8953 33.5976 32.7372 33.8476 32.6219 34.141C32.3454 33.779 32.1243 33.4043 31.9585 33.0168C31.9585 32.9544 31.9585 32.8918 31.9585 32.8295C32.3207 32.8433 32.5419 33.0307 32.6219 33.3915C32.9409 32.7596 33.3517 32.1975 33.854 31.7053C34.3882 31.3154 34.5146 30.8157 34.2332 30.2064C33.8738 30.3517 33.5578 30.539 33.2854 30.7685C32.8712 31.1678 32.6185 31.6673 32.5271 32.2674C32.0972 31.149 31.2759 30.6494 30.0629 30.7685C30.0629 30.5812 30.0629 30.3938 30.0629 30.2064C30.8177 30.287 31.5443 30.4744 32.2428 30.7685C32.6856 30.4914 32.9699 30.0854 33.0958 29.5507C32.9009 28.9472 32.6799 28.3539 32.4324 27.7708C32.2589 27.9259 32.1327 28.1133 32.0532 28.3329C31.9901 29.0199 31.9268 29.7068 31.8637 30.3938C31.6374 29.4536 31.0372 29.0165 30.0629 29.0823C30.0629 28.77 30.0629 28.4578 30.0629 28.1455C30.3421 28.3778 30.6581 28.5652 31.0107 28.7076C31.2742 28.15 31.211 27.6503 30.8211 27.2087C30.5091 26.787 30.0984 26.4747 29.589 26.2719C29.4201 26.8336 29.5149 27.3331 29.8733 27.7708C26.2086 27.7708 22.5438 27.7708 18.8791 27.7708C19.2375 27.3331 19.3322 26.8336 19.1634 26.2719C18.654 26.4747 18.2433 26.787 17.9313 27.2087C17.5414 27.6503 17.4782 28.15 17.7417 28.7076C18.1749 28.589 18.4909 28.3392 18.6895 27.9582C18.7527 27.9582 18.8159 27.9582 18.8791 27.9582C18.8791 28.3329 18.8791 28.7076 18.8791 29.0823C18.6263 29.0823 18.3736 29.0823 18.1208 29.0823C17.4554 29.2655 17.0447 29.7026 16.8887 30.3938C16.7958 30.1516 16.7642 29.9016 16.7939 29.6444C16.6318 27.291 16.2527 27.2284 15.6566 29.457C15.7677 29.8954 15.9572 30.3014 16.2253 30.6748C16.7321 30.6462 17.2376 30.5525 17.7417 30.3938C18.1357 30.3056 18.5148 30.1808 18.8791 30.0191C18.8791 30.2688 18.8791 30.5188 18.8791 30.7685C17.8806 30.5765 17.1224 30.8888 16.6044 31.7053C16.527 31.9195 16.4006 32.1068 16.2253 32.2674C16.1339 31.6673 15.8812 31.1678 15.467 30.7685C15.1946 30.539 14.8787 30.3517 14.5193 30.2064C14.2378 30.8157 14.3642 31.3154 14.8984 31.7053C15.4007 32.1975 15.8114 32.7596 16.1305 33.3915C16.2106 33.0307 16.4317 32.8433 16.7939 32.8295C16.7308 32.9544 16.6676 33.0792 16.6044 33.2042C16.4959 33.533 16.338 33.8453 16.1305 34.141C16.0332 33.9485 15.9384 33.7612 15.8461 33.5789C15.7404 33.3372 15.5509 33.1811 15.2775 33.1105C12.9171 32.6382 12.7908 33.1066 14.8984 34.5157C15.5011 34.5458 16.0066 34.7332 16.4148 35.0778C16.2978 35.057 16.203 34.9946 16.1305 34.8904C16.0865 35.1222 15.9917 35.3095 15.8461 35.4525C15.7198 35.4525 15.5934 35.4525 15.467 35.4525C14.1587 34.8046 12.895 34.0552 11.6759 33.2042C9.87013 31.7578 8.98552 29.8842 9.02211 27.5834C9.34756 25.1536 9.63189 22.7179 9.87511 20.2765C10.1395 16.213 9.47604 12.3097 7.88477 8.56662C9.27484 7.19267 10.6649 5.8187 12.055 4.44475C20.3323 4.31985 28.6096 4.31985 36.8869 4.44475C38.277 5.8187 39.6672 7.19267 41.0572 8.56662C39.4659 12.3097 38.8024 16.213 39.0668 20.2765C39.3101 22.7179 39.5944 25.1536 39.9199 27.5834C39.9578 28.9948 39.6103 30.3063 38.8773 31.518C37.362 33.2373 35.5612 34.5488 33.4749 35.4525Z" fill="#1E1D1D"/>
<path fill-rule="evenodd" clip-rule="evenodd" d="M30.0796 30.2105C30.0796 29.8374 30.0796 29.4643 30.0796 29.0912C31.0529 29.0258 31.6525 29.461 31.8786 30.3971C31.9416 29.713 32.0049 29.0291 32.068 28.345C32.1473 28.1264 32.2734 27.9399 32.4467 27.7854C32.694 28.3659 32.9148 28.9567 33.1095 29.5576C32.9837 30.09 32.6997 30.4943 32.2573 30.7702C31.5595 30.4773 30.8337 30.2907 30.0796 30.2105Z" fill="white"/>
<path fill-rule="evenodd" clip-rule="evenodd" d="M18.1492 29.0913C18.4017 29.0913 18.6542 29.0913 18.9067 29.0913C18.9067 29.4023 18.9067 29.7131 18.9067 30.024C18.5429 30.185 18.1641 30.3093 17.7705 30.3971C17.8421 29.9455 17.9684 29.5103 18.1492 29.0913Z" fill="white"/>
<path fill-rule="evenodd" clip-rule="evenodd" d="M18.1493 29.0913C17.9684 29.5103 17.8422 29.9455 17.7706 30.3971C17.2669 30.5552 16.7619 30.6484 16.2556 30.677C15.9878 30.3052 15.7985 29.9009 15.6875 29.4644C15.8769 29.4644 16.0662 29.4644 16.2556 29.4644C16.2273 29.6607 16.2589 29.8472 16.3503 30.024C16.4844 29.8597 16.6422 29.7355 16.8237 29.651C16.794 29.9071 16.8256 30.1559 16.9184 30.3971C17.0743 29.709 17.4846 29.2738 18.1493 29.0913Z" fill="white"/>
<path d="M26.2589 34.9292C25.7848 35.0425 25.3112 35.0446 24.8371 34.9354C25.3667 33.5169 25.8032 32.0697 26.1465 30.5936L26.158 30.5439L26.1073 30.5388C25.5193 30.479 24.9448 30.5418 24.3844 30.7274L24.3633 30.7343L24.356 30.7553C23.8908 32.0997 23.4819 33.4614 23.1297 34.8407C22.6413 35.0311 22.1366 35.0628 21.6146 34.9353C22.0367 33.5515 22.4739 32.1677 22.9262 30.7839L22.9401 30.7414L22.8976 30.7274C22.3529 30.547 21.7949 30.4826 21.2241 30.534V30.5324V30.5299V30.5273V30.5248V30.5222V30.5197V30.5171V30.5146V30.512V30.5095V30.5069V30.5044V30.5018V30.4993V30.4967V30.4942V30.4916V30.4891V30.4865V30.484V30.4814V30.4789V30.4763V30.4738V30.4712V30.4687V30.4661V30.4636V30.461V30.4585V30.4559V30.4534V30.4508V30.4483V30.4457V30.4432V30.4406V30.4381V30.4355V30.433V30.4304V30.4279V30.4253V30.4228V30.4202V30.4177V30.4151V30.4126V30.41V30.4075V30.4049V30.4024V30.3998V30.3973V30.3947V30.3922V30.3896V30.3871V30.3845V30.382V30.3794V30.3769V30.3743V30.3718V30.3692V30.3667V30.3641V30.3616V30.359V30.3565V30.3539V30.3513V30.3488V30.3462V30.3437V30.3411V30.3386V30.336V30.3335V30.3309V30.3284V30.3258V30.3233V30.3207V30.3182V30.3156V30.3131V30.3105V30.308V30.3054V30.3029V30.3003V30.2978V30.2952V30.2927V30.2901V30.2876V30.285V30.2825V30.2799V30.2774V30.2748V30.2723V30.2697V30.2672V30.2646V30.2621V30.2595V30.257V30.2544V30.2519V30.2493V30.2468V30.2442V30.2417V30.2391V30.2366V30.234V30.2315V30.2289V30.2264V30.2238V30.2213V30.2187V30.2162V30.2136V30.2111V30.2085V30.206V30.2034V30.2009V30.1983V30.1958V30.1932V30.1907V30.1881V30.1856V30.183V30.1805V30.1779V30.1754V30.1728V30.1703V30.1677V30.1652V30.1626V30.1601V30.1575V30.155V30.1524V30.1499V30.1473V30.1448V30.1422V30.1397V30.1371V30.1346V30.132V30.1295V30.1269V30.1244V30.1218V30.1193V30.1167V30.1142V30.1116V30.109V30.1065V30.1039V30.1014V30.0988V30.0963V30.0937V30.0912V30.0886V30.0861V30.0835V30.081V30.0784V30.0759V30.0733V30.0708V30.0682V30.0657V30.0631V30.0606V30.058V30.0555V30.0529V30.0504V30.0478V30.0453V30.0427V30.0402V30.0376V30.0351V30.0325V30.03V30.0274V30.0249V30.0223V30.0198V30.0172V30.0147V30.0121V30.0096V30.007V30.0045V30.0019V29.9994V29.9968V29.9943V29.9917V29.9892V29.9866V29.9841V29.9815V29.979V29.9764V29.9739V29.9713V29.9688V29.9662V29.9637V29.9611V29.9586V29.956V29.9535V29.9509V29.9484V29.9458V29.9433V29.9407V29.9382V29.9356V29.9331V29.9305V29.928V29.9254V29.9229V29.9203V29.9178V29.9152V29.9127V29.9101V29.9075V29.905V29.9024V29.8999V29.8973V29.8948V29.8922V29.8897V29.8871V29.8846V29.882V29.8795V29.8769V29.8744V29.8718V29.8693V29.8667V29.8642V29.8616V29.8591V29.8565V29.854V29.8514V29.8489V29.8463V29.8438V29.8412V29.8387V29.8361V29.8336V29.831V29.8285V29.8259V29.8234V29.8208V29.8183V29.8157V29.8132V29.8106V29.8081V29.8055V29.803V29.8004V29.7979V29.7953V29.7928V29.7902V29.7877V29.7851V29.7826V29.78V29.7775V29.7749V29.7724V29.7698V29.7673V29.7647V29.7622V29.7596V29.7571V29.7545V29.752V29.7494V29.7469V29.7443V29.7418V29.7392V29.7367V29.7341V29.7316V29.729V29.7265V29.7239V29.7214V29.7188V29.7163V29.7137V29.7112V29.7086V29.7061V29.7035V29.7009V29.6984V29.6958V29.6933V29.6907V29.6882V29.6856V29.6831V29.6805V29.678V29.6754V29.6729V29.6703V29.6678V29.6652V29.6627V29.6601V29.6576V29.655V29.6525V29.6499V29.6474V29.6448V29.6423V29.6397V29.6372V29.6346V29.6321V29.6295V29.627V29.6244V29.6219V29.6193V29.6168V29.6142V29.6117V29.6091V29.6066V29.604V29.6015V29.5989V29.5964V29.5938V29.5913V29.5887V29.5862V29.5836V29.5811V29.5785V29.576V29.5734V29.5709V29.5683V29.5658V29.5632V29.5607V29.5581V29.5556V29.553V29.5505V29.5479V29.5454V29.5428V29.5403V29.5377V29.5352V29.5326V29.5301V29.5275V29.525V29.5224V29.5199V29.5173V29.5148V29.5122V29.5097V29.5071V29.5046V29.502V29.4995V29.4969V29.4944V29.4918V29.4893V29.4867V29.4842V29.4816V29.4791V29.4765V29.474V29.4714V29.4689V29.4663V29.4638V29.4612V29.4587V29.4561V29.4536V29.451V29.4485V29.4459V29.4434V29.4408V29.4383V29.4357V29.4332V29.4306V29.4281V29.4255V29.4229V29.4204V29.4178V29.4153V29.4127V29.4102V29.4076V29.4051V29.4025V29.4V29.3974V29.3949V29.3923V29.3898V29.3872V29.3847V29.3821V29.3796V29.377V29.3745V29.3719V29.3694V29.3668V29.3643V29.3617V29.3592V29.3566V29.3541V29.3515V29.349V29.3464V29.3439V29.3413V29.3388V29.3362V29.3337V29.3311V29.3286V29.326V29.3235V29.3225H21.2295H21.2358H21.2421H21.2484H21.2547H21.2609H21.2672H21.2735H21.2798H21.2861H21.2924H21.2987H21.305H21.3112H21.3175H21.3238H21.3301H21.3364H21.3427H21.349H21.3553H21.3615H21.3678H21.3741H21.3804H21.3867H21.393H21.3993H21.4056H21.4118H21.4181H21.4244H21.4307H21.437H21.4433H21.4496H21.4559H21.4621H21.4684H21.4747H21.481H21.4873H21.4936H21.4999H21.5062H21.5125H21.5187H21.525H21.5313H21.5376H21.5439H21.5502H21.5565H21.5628H21.569H21.5753H21.5816H21.5879H21.5942H21.6005H21.6068H21.6131H21.6193H21.6256H21.6319H21.6382H21.6445H21.6508H21.6571H21.6634H21.6696H21.6759H21.6822H21.6885H21.6948H21.7011H21.7074H21.7137H21.7199H21.7262H21.7325H21.7388H21.7451H21.7514H21.7577H21.764H21.7702H21.7765H21.7828H21.7891H21.7954H21.8017H21.808H21.8143H21.8205H21.8268H21.8331H21.8394H21.8457H21.852H21.8583H21.8646H21.8709H21.8771H21.8834H21.8897H21.896H21.9023H21.9086H21.9149H21.9212H21.9274H21.9337H21.94H21.9463H21.9526H21.9589H21.9652H21.9715H21.9777H21.984H21.9903H21.9966H22.0029H22.0092H22.0155H22.0218H22.028H22.0343H22.0406H22.0469H22.0532H22.0595H22.0658H22.0721H22.0783H22.0846H22.0909H22.0972H22.1035H22.1098H22.1161H22.1224H22.1286H22.1349H22.1412H22.1475H22.1538H22.1601H22.1664H22.1727H22.1789H22.1852H22.1915H22.1978H22.2041H22.2104H22.2167H22.223H22.2292H22.2355H22.2418H22.2481H22.2544H22.2607H22.267H22.2733H22.2795H22.2858H22.2921H22.2984H22.3047H22.311H22.3173H22.3236H22.3299H22.3361H22.3424H22.3487H22.355H22.3613H22.3676H22.3739H22.3802H22.3864H22.3927H22.399H22.4053H22.4116H22.4179H22.4242H22.4305H22.4367H22.443H22.4493H22.4556H22.4619H22.4682H22.4745H22.4808H22.487H22.4933H22.4996H22.5059H22.5122H22.5185H22.5248H22.5311H22.5373H22.5436H22.5499H22.5562H22.5625H22.5688H22.5751H22.5814H22.5876H22.5939H22.6002H22.6065H22.6128H22.6191H22.6254H22.6317H22.6379H22.6442H22.6505H22.6568H22.6631H22.6694H22.6757H22.682H22.6882H22.6945H22.7008H22.7071H22.7134H22.7197H22.726H22.7323H22.7385H22.7448H22.7511H22.7574H22.7637H22.77H22.7763H22.7826H22.7888H22.7951H22.8014H22.8077H22.814H22.8203H22.8266H22.8329H22.8391H22.8454H22.8517H22.858H22.8643H22.8706H22.8769H22.8832H22.8894H22.8957H22.902H22.9083H22.9146H22.9209H22.9272H22.9335H22.9397H22.946H22.9523H22.9586H22.9649H22.9712H22.9775H22.9838H22.9901H22.9963H23.0026H23.0089H23.0152H23.0215H23.0278H23.0341H23.0404H23.0466H23.0529H23.0592H23.0655H23.0718H23.0781H23.0844H23.0907H23.0969H23.1032H23.1095H23.1158H23.1221H23.1284H23.1347H23.141H23.1472H23.1535H23.1598H23.1661H23.1724H23.1787H23.185H23.1913H23.1975H23.2038H23.2101H23.2164H23.2227H23.229H23.2353H23.2416H23.2478H23.2541H23.2604H23.2667H23.273H23.2793H23.2856H23.2919H23.2981H23.3044H23.3107H23.317H23.3233H23.3296H23.3359H23.3422H23.3484H23.3547H23.361H23.3673H23.3736H23.3799H23.3862H23.3925H23.3987H23.405H23.4113H23.4176H23.4239H23.4302H23.4365H23.4428H23.449H23.4553H23.4616H23.4679H23.4742H23.4805H23.4868H23.4931H23.4993H23.5056H23.5119H23.5182H23.5245H23.5308H23.5371H23.5434H23.5496H23.5559H23.5622H23.5685H23.5748H23.5811H23.5874H23.5937H23.5999H23.6062H23.6125H23.6188H23.6251H23.6314H23.6377H23.644H23.6502H23.6565H23.6628H23.6691H23.6754H23.6817H23.688H23.6943H23.7005H23.7068H23.7131H23.7194H23.7257H23.732H23.7383H23.7446H23.7508H23.7571H23.7634H23.7697H23.776H23.7823H23.7886H23.7949H23.8011H23.8074H23.8137H23.82H23.8263H23.8326H23.8389H23.8452H23.8514H23.8577H23.864H23.8703H23.8766H23.8829H23.8892H23.8955H23.9017H23.908H23.9143H23.9206H23.9269H23.9332H23.9395H23.9458H23.952H23.9583H23.9646H23.9709H23.9772H23.9835H23.9898H23.9961H24.0023H24.0086H24.0149H24.0212H24.0275H24.0338H24.0401H24.0464H24.0526H24.0589H24.0652H24.0715H24.0778H24.0841H24.0904H24.0967H24.1029H24.1092H24.1155H24.1218H24.1281H24.1344H24.1407H24.147H24.1532H24.1595H24.1658H24.1721H24.1784H24.1847H24.191H24.1973H24.2035H24.2098H24.2161H24.2224H24.2287H24.235H24.2413H24.2476H24.2538H24.2601H24.2664H24.2727H24.279H24.2853H24.2916H24.2979H24.3041H24.3104H24.3167H24.323H24.3293H24.3356H24.3419H24.3482H24.3544H24.3607H24.367H24.3733H24.3796H24.3859H24.3922H24.3985H24.4051H24.4118H24.4184H24.4251H24.4317H24.4384H24.4451H24.4517H24.4584H24.465H24.4717H24.4783H24.485H24.4917H24.4983H24.505H24.5116H24.5183H24.525H24.5316H24.5383H24.5449H24.5516H24.5582H24.5649H24.5716H24.5782H24.5849H24.5915H24.5982H24.6048H24.6115H24.6182H24.6248H24.6315H24.6381H24.6448H24.6514H24.6581H24.6648H24.6714H24.6781H24.6847H24.6914H24.698H24.7047H24.7114H24.718H24.7247H24.7313H24.738H24.7446H24.7513H24.758H24.7646H24.7713H24.7779H24.7846H24.7912H24.7979H24.8046H24.8112H24.8179H24.8245H24.8312H24.8378H24.8445H24.8512H24.8578H24.8645H24.8711H24.8778H24.8845H24.8911H24.8978H24.9044H24.9111H24.9177H24.9244H24.9311H24.9377H24.9444H24.951H24.9577H24.9643H24.971H24.9777H24.9843H24.991H24.9976H25.0043H25.0109H25.0176H25.0243H25.0309H25.0376H25.0442H25.0509H25.0575H25.0642H25.0709H25.0775H25.0842H25.0908H25.0975H25.1041H25.1108H25.1175H25.1241H25.1308H25.1374H25.1441H25.1507H25.1574H25.1641H25.1707H25.1774H25.184H25.1907H25.1973H25.204H25.2107H25.2173H25.224H25.2306H25.2373H25.2439H25.2506H25.2573H25.2639H25.2706H25.2772H25.2839H25.2906H25.2972H25.3039H25.3105H25.3172H25.3238H25.3305H25.3372H25.3438H25.3505H25.3571H25.3638H25.3704H25.3771H25.3838H25.3904H25.3971H25.4037H25.4104H25.417H25.4237H25.4304H25.437H25.4437H25.4503H25.457H25.4636H25.4703H25.477H25.4836H25.4903H25.4969H25.5036H25.5102H25.5169H25.5236H25.5302H25.5369H25.5435H25.5502H25.5568H25.5635H25.5702H25.5768H25.5835H25.5901H25.5968H25.6034H25.6101H25.6168H25.6234H25.6301H25.6367H25.6434H25.6501H25.6567H25.6634H25.67H25.6767H25.6833H25.69H25.6967H25.7033H25.71H25.7166H25.7233H25.7299H25.7366H25.7433H25.7499H25.7566H25.7632H25.7699H25.7765H25.7832H25.7899H25.7965H25.8032H25.8098H25.8165H25.8231H25.8298H25.8365H25.8431H25.8498H25.8564H25.8631H25.8697H25.8764H25.8831H25.8897H25.8964H25.903H25.9097H25.9163H25.923H25.9297H25.9363H25.943H25.9496H25.9563H25.963H25.9696H25.9763H25.9829H25.9896H25.9962H26.0029H26.0096H26.0162H26.0229H26.0295H26.0362H26.0428H26.0495H26.0562H26.0628H26.0695H26.0761H26.0828H26.0894H26.0961H26.1028H26.1094H26.1161H26.1227H26.1294H26.136H26.1427H26.1494H26.156H26.1627H26.1693H26.176H26.1826H26.1893H26.196H26.2026H26.2093H26.2159H26.2226H26.2292H26.2359H26.2426H26.2492H26.2559H26.2625H26.2692H26.2759H26.2825H26.2892H26.2958H26.3025H26.3091H26.3158H26.3225H26.3291H26.3358H26.3424H26.3491H26.3557H26.3624H26.3691H26.3757H26.3824H26.389H26.3957H26.4023H26.409H26.4157H26.4223H26.429H26.4356H26.4423H26.4489H26.4556H26.4623H26.4689H26.4756H26.4822H26.4889H26.4955H26.5022H26.5089H26.5155H26.5222H26.5288H26.5355H26.5422H26.5488H26.5555H26.5621H26.5688H26.5754H26.5821H26.5888H26.5954H26.6021H26.6087H26.6154H26.622H26.6287H26.6354H26.642H26.6487H26.6553H26.662H26.6686H26.6753H26.682H26.6886H26.6953H26.7019H26.7086H26.7152H26.7219H26.7286H26.7352H26.7419H26.7485H26.7552H26.7618H26.7685H26.7752H26.7818H26.7885H26.7951H26.8018H26.8085H26.8151H26.8218H26.8284H26.8351H26.8417H26.8484H26.8551H26.8617H26.8684H26.875H26.8817H26.8883H26.895H26.9017H26.9083H26.915H26.9216H26.9283H26.9349H26.9416H26.9483H26.9549H26.9616H26.9682H26.9749H26.9815H26.9882H26.9949H27.0015H27.0082H27.0148H27.0215H27.0282H27.0348H27.0415H27.0481H27.0548H27.0614H27.0681H27.0748H27.0814H27.0881H27.0947H27.1014H27.108H27.1147H27.1214H27.128H27.1347H27.1413H27.148H27.1546H27.1613H27.168H27.1746H27.1813H27.1879H27.1946H27.2012H27.2079H27.2146H27.2212H27.2279H27.2345H27.2412H27.2479H27.2545H27.2612H27.2678H27.2745H27.2811H27.2878H27.2945H27.3011H27.3078H27.3144H27.3211H27.3277H27.3344H27.3411H27.3477H27.3544H27.361H27.3677H27.3743H27.381H27.3877H27.3943H27.401H27.4076H27.4143H27.4209H27.4276H27.4343H27.4409H27.4476H27.4542H27.4609H27.4676H27.4742H27.4809H27.4875H27.4942H27.5008H27.5075H27.5142H27.5208H27.5275H27.5341H27.5408H27.5474H27.5541H27.5608H27.5674H27.5741H27.5807H27.5874H27.594H27.6007H27.6074H27.614H27.6207H27.6273H27.634H27.6406H27.6473H27.654H27.6606H27.6673H27.6739H27.6806H27.6873H27.6939H27.7006H27.7072H27.7139H27.7205H27.7272H27.7339H27.7405H27.7472H27.7538H27.7552C27.4725 31.2472 26.9739 33.1161 26.2589 34.9292Z" fill="#1E1D1D" stroke="white" stroke-width="0.0897733"/>
<path fill-rule="evenodd" clip-rule="evenodd" d="M16.8237 29.6513C16.6422 29.7358 16.4844 29.8601 16.3503 30.0244C16.2589 29.8476 16.2273 29.661 16.2556 29.4648C16.0662 29.4648 15.8769 29.4648 15.6875 29.4648C16.283 27.2458 16.6617 27.3081 16.8237 29.6513Z" fill="white"/>
<path fill-rule="evenodd" clip-rule="evenodd" d="M30.8371 27.2258C31.2266 27.6655 31.2897 28.163 31.0264 28.7182C30.6742 28.5764 30.3585 28.3899 30.0796 28.1586C30.0796 28.0341 30.0796 27.9099 30.0796 27.7855C30.269 27.7855 30.4583 27.7855 30.6477 27.7855C30.6028 27.5446 30.6659 27.3581 30.8371 27.2258Z" fill="white"/>
<path fill-rule="evenodd" clip-rule="evenodd" d="M17.9599 27.2256C18.1311 27.3578 18.1942 27.5444 18.1493 27.7852C18.3938 27.741 18.5831 27.8031 18.7174 27.9718C18.519 28.3512 18.2034 28.5999 17.7706 28.718C17.5073 28.1628 17.5705 27.6653 17.9599 27.2256Z" fill="white"/>
<path fill-rule="evenodd" clip-rule="evenodd" d="M30.8373 27.2257C30.6662 27.358 30.6031 27.5445 30.648 27.7854C30.4586 27.7854 30.2692 27.7854 30.0799 27.7854C30.0168 27.7854 29.9536 27.7854 29.8905 27.7854C29.5324 27.3496 29.4377 26.8522 29.6064 26.293C30.1153 26.4948 30.5256 26.8058 30.8373 27.2257Z" fill="white"/>
<path fill-rule="evenodd" clip-rule="evenodd" d="M18.9068 27.7854C18.9068 27.8475 18.9068 27.9098 18.9068 27.9719C18.8437 27.9719 18.7806 27.9719 18.7174 27.9719C18.5832 27.8033 18.3938 27.7411 18.1493 27.7854C18.1943 27.5445 18.1311 27.358 17.96 27.2257C18.2717 26.8058 18.682 26.4948 19.1909 26.293C19.3595 26.8522 19.2648 27.3496 18.9068 27.7854Z" fill="white"/>
<path fill-rule="evenodd" clip-rule="evenodd" d="M15.4986 30.7701C15.4986 31.0811 15.4986 31.3919 15.4986 31.7028C15.3092 31.7028 15.1199 31.7028 14.9305 31.7028C14.3969 31.3146 14.2706 30.8171 14.5518 30.2104C14.9109 30.355 15.2265 30.5416 15.4986 30.7701Z" fill="white"/>
<path fill-rule="evenodd" clip-rule="evenodd" d="M33.8669 31.7028C33.6776 31.7028 33.4882 31.7028 33.2988 31.7028C33.2988 31.3919 33.2988 31.0811 33.2988 30.7701C33.571 30.5416 33.8866 30.355 34.2457 30.2104C34.5269 30.8171 34.4006 31.3146 33.8669 31.7028Z" fill="white"/>
<path fill-rule="evenodd" clip-rule="evenodd" d="M15.4978 30.7705C15.9115 31.168 16.164 31.6654 16.2553 32.2629C16.4305 32.103 16.5567 31.9165 16.634 31.7032C16.6623 32.0097 16.7254 32.3207 16.8234 32.636C16.8234 32.6981 16.8234 32.7604 16.8234 32.8225C16.4615 32.8363 16.2406 33.0229 16.1606 33.3822C15.8419 32.753 15.4316 32.1933 14.9297 31.7032C15.1191 31.7032 15.3084 31.7032 15.4978 31.7032C15.4978 31.3923 15.4978 31.0815 15.4978 30.7705Z" fill="white"/>
<path fill-rule="evenodd" clip-rule="evenodd" d="M18.9072 30.7702C18.9072 30.9567 18.9072 31.1433 18.9072 31.3298C18.4277 31.5535 18.1752 31.9266 18.1497 32.4491C18.3767 33.1205 18.5661 33.8044 18.7178 34.5011C18.6945 34.767 18.6314 35.0156 18.5284 35.2473C18.0176 35.5355 17.6389 35.4113 17.3922 34.8742C17.4083 34.4211 17.5977 34.048 17.9603 33.7549C17.8714 33.5753 17.7451 33.5753 17.5816 33.7549C17.3922 33.7549 17.2029 33.7549 17.0135 33.7549C17.0542 33.4417 16.9279 33.2552 16.6348 33.1953C16.6979 33.0709 16.761 32.9466 16.8241 32.8222C17.1342 32.6064 17.4499 32.3887 17.771 32.1693C17.33 32.0954 17.0144 32.251 16.8241 32.6357C16.7262 32.3204 16.6631 32.0094 16.6348 31.7029C17.1522 30.8899 17.9097 30.579 18.9072 30.7702Z" fill="white"/>
<path fill-rule="evenodd" clip-rule="evenodd" d="M18.9055 31.3298C18.9055 32.8222 18.9055 34.3146 18.9055 35.807C18.7457 36.0254 18.6196 36.2743 18.5272 36.5532C18.4011 36.4911 18.275 36.4287 18.1489 36.3666C18.275 35.9935 18.4011 35.6204 18.5272 35.2473C18.63 35.0156 18.693 34.767 18.7163 34.5011C18.5648 33.8044 18.3757 33.1205 18.1489 32.4491C18.1744 31.9266 18.4266 31.5535 18.9055 31.3298Z" fill="#1E1D1D"/>
<path fill-rule="evenodd" clip-rule="evenodd" d="M30.0796 30.7701C31.2914 30.6514 32.1119 31.1489 32.5414 32.2624C32.6327 31.6649 32.8851 31.1676 33.2989 30.7701C33.2989 31.081 33.2989 31.3918 33.2989 31.7028C33.4882 31.7028 33.6776 31.7028 33.867 31.7028C33.3651 32.1929 32.9548 32.7525 32.6361 33.3817C32.5561 33.0224 32.3352 32.8359 31.9733 32.8221C31.9733 32.8842 31.9733 32.9465 31.9733 33.0086C31.8078 33.4172 31.4921 33.6037 31.0264 33.5683C30.9236 33.5795 30.8605 33.6416 30.8371 33.7548C31.1997 34.0479 31.3891 34.421 31.4052 34.8741C31.1588 35.1319 31.0011 35.4427 30.9317 35.8069C30.7731 35.5272 30.6153 35.4651 30.4583 35.6203C30.332 35.4338 30.2059 35.2472 30.0796 35.0607C30.0796 34.6876 30.0796 34.3145 30.0796 33.9414C30.56 33.3455 30.7178 32.6615 30.553 31.8894C30.4189 31.725 30.261 31.6008 30.0796 31.5163C30.0796 31.2676 30.0796 31.0187 30.0796 30.7701Z" fill="white"/>
<path fill-rule="evenodd" clip-rule="evenodd" d="M16.8232 32.8219C16.8232 32.7598 16.8232 32.6975 16.8232 32.6353C17.0135 32.2507 17.3291 32.0951 17.7701 32.169C17.449 32.3883 17.1334 32.606 16.8232 32.8219Z" fill="#1E1D1D"/>
<path fill-rule="evenodd" clip-rule="evenodd" d="M31.9722 32.8219C30.7938 32.2386 30.7938 32.052 31.9722 32.2623C31.9722 32.4488 31.9722 32.6354 31.9722 32.8219Z" fill="white"/>
<path fill-rule="evenodd" clip-rule="evenodd" d="M30.0796 31.5164C30.2608 31.6009 30.4185 31.7251 30.5524 31.8895C30.717 32.6616 30.5594 33.3456 30.0796 33.9415C30.0796 33.1332 30.0796 32.3247 30.0796 31.5164Z" fill="#1E1D1D"/>
<path fill-rule="evenodd" clip-rule="evenodd" d="M15.8771 33.5683C15.5615 33.8792 15.2459 34.19 14.9302 34.501C12.8247 33.098 12.951 32.6316 15.309 33.1019C15.5821 33.1722 15.7715 33.3276 15.8771 33.5683Z" fill="white"/>
<path fill-rule="evenodd" clip-rule="evenodd" d="M33.8668 34.5012C33.6691 34.0693 33.4167 33.6962 33.1094 33.3819C33.7884 33.0941 34.5145 32.9075 35.2871 32.8223C35.1438 33.6194 34.6703 34.179 33.8668 34.5012Z" fill="white"/>
<path fill-rule="evenodd" clip-rule="evenodd" d="M31.0263 33.5686C31.2393 33.8725 31.4919 34.1523 31.7838 34.4081C31.6414 34.5332 31.5781 34.6886 31.5944 34.8744C31.5313 34.8744 31.4681 34.8744 31.405 34.8744C31.3889 34.4213 31.1996 34.0482 30.8369 33.7552C30.8604 33.6419 30.9235 33.5798 31.0263 33.5686Z" fill="#1E1D1D"/>
<path fill-rule="evenodd" clip-rule="evenodd" d="M17.3919 34.8741C17.3288 34.8741 17.2657 34.8741 17.2026 34.8741C17.2188 34.6883 17.1557 34.5329 17.0132 34.4078C17.2423 34.2139 17.4317 33.9962 17.5813 33.7549C17.7448 33.5752 17.8711 33.5752 17.96 33.7549C17.5974 34.0479 17.408 34.421 17.3919 34.8741Z" fill="#1E1D1D"/>
<path fill-rule="evenodd" clip-rule="evenodd" d="M31.9742 33.0093C32.1399 33.3951 32.3607 33.7682 32.637 34.1286C32.7521 33.8364 32.91 33.5876 33.1104 33.3824C33.4177 33.6967 33.6702 34.0698 33.8679 34.5017C33.2657 34.5317 32.7606 34.7182 32.3529 35.0613C32.1242 34.9244 31.8717 34.8623 31.5954 34.8748C31.5792 34.689 31.6424 34.5336 31.7848 34.4084C31.493 34.1526 31.2404 33.8728 31.0273 33.5689C31.493 33.6044 31.8087 33.4178 31.9742 33.0093Z" fill="white"/>
<path fill-rule="evenodd" clip-rule="evenodd" d="M16.634 33.1953C16.9272 33.2552 17.0534 33.4417 17.0127 33.755C17.2021 33.755 17.3915 33.755 17.5808 33.755C17.4313 33.9963 17.2419 34.2141 17.0127 34.4079C17.1552 34.533 17.2184 34.6884 17.2021 34.8742C16.9259 34.8617 16.6734 34.9239 16.4446 35.0608C16.0368 34.7177 15.5319 34.5312 14.9297 34.5011C15.2453 34.1902 15.5609 33.8794 15.8765 33.5684C15.9687 33.7499 16.0634 33.9365 16.1606 34.1281C16.3678 33.8337 16.5256 33.5227 16.634 33.1953Z" fill="white"/>
<path fill-rule="evenodd" clip-rule="evenodd" d="M30.0791 35.0605C30.2052 35.2471 30.3312 35.4336 30.4573 35.6202C30.5203 35.8689 30.5835 36.1177 30.6465 36.3664C30.5818 36.5227 30.4558 36.585 30.2682 36.5529C30.1566 36.3168 30.0628 36.3706 29.9852 36.1092C29.9455 36.3999 29.9126 36.3842 29.7632 36.5911C29.87 36.1473 29.8076 35.8464 29.8899 35.4336C29.9852 35.3207 30.1116 35.2456 30.0791 35.0605Z" fill="white"/>
<path fill-rule="evenodd" clip-rule="evenodd" d="M14.1727 35.4338C14.6145 35.4338 15.0564 35.4338 15.4983 35.4338C15.6245 35.4338 15.7507 35.4338 15.877 35.4338C16.1781 35.9851 16.115 36.4826 15.6876 36.9262C14.881 36.7839 14.2498 36.3798 13.7939 35.7137C13.9674 35.6618 14.0936 35.5685 14.1727 35.4338Z" fill="white"/>
<path fill-rule="evenodd" clip-rule="evenodd" d="M32.9201 35.4338C33.1095 35.4338 33.2988 35.4338 33.4882 35.4338C33.9612 35.5424 34.403 35.5424 34.8138 35.4338C34.8348 35.5489 34.8979 35.6422 35.0032 35.7137C34.5473 36.3798 33.9162 36.7839 33.1095 36.9262C32.6821 36.4826 32.619 35.9851 32.9201 35.4338Z" fill="white"/>
<path fill-rule="evenodd" clip-rule="evenodd" d="M16.4676 35.0143C16.5794 35.1357 16.6831 35.3066 16.8237 35.4338C16.6138 35.7071 16.7084 35.8937 17.1078 35.9935C17.2016 35.6254 17.2331 35.2523 17.2024 34.8742C17.2656 34.8742 17.3287 34.8742 17.3918 34.8742C17.6385 35.4113 18.0172 35.5355 18.528 35.2473C18.4018 35.6204 18.2755 35.9935 18.1493 36.3666C18.004 36.4919 17.8777 36.6473 17.7706 36.8329C18.0049 36.8762 18.1943 36.9695 18.3387 37.1128C18.1438 37.2295 17.9544 37.3849 17.7706 37.5791C18.2385 37.6109 18.6804 37.7662 19.0961 38.0455C18.5772 38.4298 18.0091 38.7406 17.3918 38.9783C17.3993 38.7762 17.4624 38.5897 17.5812 38.4186C17.1509 38.3003 16.8352 38.0515 16.6343 37.6724C16.9523 37.5993 17.2679 37.506 17.5812 37.3926C17.8337 37.2682 17.8337 37.1439 17.5812 37.0195C16.9357 37.0631 16.3045 37.0322 15.6875 36.9262C16.1148 36.4826 16.178 35.9851 15.8769 35.4338C16.0223 35.2915 16.1124 34.9822 16.1563 34.7515C16.2288 34.8552 16.3507 34.9936 16.4676 35.0143Z" fill="white"/>
<path fill-rule="evenodd" clip-rule="evenodd" d="M17.2009 34.8744C17.2315 35.2525 17.2 35.6256 17.1063 35.9937C16.7075 35.8939 16.6129 35.7073 16.8226 35.434C16.6821 35.3068 16.556 35.1824 16.4443 35.0609C16.6728 34.924 16.925 34.8619 17.2009 34.8744Z" fill="#1E1D1D"/>
<path fill-rule="evenodd" clip-rule="evenodd" d="M18.1492 36.3667C18.2755 36.4288 18.4017 36.4911 18.528 36.5532C18.5117 36.739 18.5749 36.8944 18.7173 37.0196C18.6048 37.1062 18.4785 37.1373 18.3386 37.1129C18.1942 36.9696 18.0049 36.8763 17.7705 36.8331C17.8777 36.6475 18.0039 36.4921 18.1492 36.3667Z" fill="#1E1D1D"/>
<path fill-rule="evenodd" clip-rule="evenodd" d="M30.6469 36.3667C30.7919 36.4921 30.9181 36.6475 31.0251 36.8331C30.7289 36.9465 30.4766 37.1021 30.2686 37.2994C30.1071 37.0883 30.1071 36.8396 30.2686 36.5532C30.4562 36.5853 30.5822 36.523 30.6469 36.3667Z" fill="#1E1D1D"/>
<path fill-rule="evenodd" clip-rule="evenodd" d="M31.4053 34.8738C31.4683 34.8738 31.5316 34.8738 31.5946 34.8738C31.3806 36.1032 31.6963 36.2897 32.5415 35.4335C32.4727 35.306 32.3556 35.0476 32.298 34.9263C32.4149 34.9056 32.5368 34.811 32.6093 34.7073C32.6532 34.938 32.7748 35.2911 32.9202 35.4335C32.6191 35.9847 32.6822 36.4822 33.1096 36.9258C32.4926 37.0318 31.8614 37.0628 31.2159 37.0191C30.9811 37.4804 30.6654 37.5737 30.269 37.2989C30.4773 37.1016 30.73 36.946 31.0265 36.8326C30.9193 36.6469 30.793 36.4916 30.6478 36.3662C30.5847 36.1175 30.5215 35.8687 30.4584 35.62C30.6154 35.4648 30.7731 35.5269 30.9318 35.8066C31.0011 35.4424 31.1589 35.1316 31.4053 34.8738Z" fill="white"/>
<path d="M43.7144 31.1431C43.7144 31.1431 42.3871 28.8692 41.5366 27.4122M41.5366 27.4122C41.0894 27.0891 41.0894 26.3362 41.5366 26.0131C41.8646 25.7761 42.196 25.6894 42.5782 25.8265C42.877 25.9338 43.1349 26.184 43.2409 26.4794C43.3914 26.8987 42.984 27.2176 42.5782 27.4122C42.2124 27.5875 41.9023 27.5875 41.5366 27.4122Z" stroke="#1E1D1D" stroke-width="0.191155"/>
<path fill-rule="evenodd" clip-rule="evenodd" d="M31.5951 34.8744C31.8714 34.8619 32.1238 34.924 32.3526 35.0609C32.4102 35.1822 32.4732 35.3066 32.542 35.434C31.6968 36.2903 31.3811 36.1037 31.5951 34.8744Z" fill="#1E1D1D"/>
<path fill-rule="evenodd" clip-rule="evenodd" d="M18.907 35.8076C18.8745 35.9927 18.9376 36.1169 19.0963 36.1807C19.2835 36.6622 19.4729 37.1597 19.6644 37.6731C19.5277 37.8692 19.3383 37.9936 19.0963 38.0462C18.9806 37.6218 18.7281 37.311 18.3389 37.1135C18.4788 37.1379 18.605 37.1067 18.7176 37.0202C18.5751 36.895 18.512 36.7396 18.5282 36.5538C18.6208 36.2749 18.747 36.0261 18.907 35.8076Z" fill="white"/>
<path fill-rule="evenodd" clip-rule="evenodd" d="M30.2692 36.5538C30.1075 36.8402 30.1075 37.0888 30.2692 37.3C29.9418 37.4373 29.7524 37.6862 29.7011 38.0462C29.5118 38.0462 29.3749 38.0375 29.1855 38.0375C29.5493 37.547 29.5858 37.2052 29.7636 36.5538C29.8526 36.2853 29.9454 36.0983 29.9852 35.8076C30.0628 36.069 30.1575 36.3176 30.2692 36.5538Z" fill="white"/>
<path fill-rule="evenodd" clip-rule="evenodd" d="M18.3386 37.1128C18.7278 37.3103 18.9803 37.6211 19.0961 38.0455C18.6803 37.7663 18.2385 37.6109 17.7705 37.5792C17.9544 37.385 18.1438 37.2296 18.3386 37.1128Z" fill="#1E1D1D"/>
<path d="M16.7143 37.6308L16.6689 37.5452L16.587 37.597C16.0783 37.9188 15.7072 38.1907 15.4783 38.4122C15.3643 38.5225 15.2804 38.6251 15.2339 38.7197C15.1871 38.815 15.172 38.9168 15.2245 39.0073C15.2739 39.0925 15.3695 39.1423 15.4804 39.1724C15.5939 39.2031 15.7411 39.218 15.9188 39.2194C16.2748 39.2222 16.7717 39.1709 17.4069 39.0673L17.4795 39.0555L17.4822 38.982C17.489 38.7977 17.5463 38.6277 17.6556 38.4702L17.7279 38.3661L17.6056 38.3325C17.1981 38.2205 16.9031 37.9871 16.7143 37.6308Z" fill="white" stroke="#1E1D1D" stroke-width="0.179547"/>
<path fill-rule="evenodd" clip-rule="evenodd" d="M32.163 37.6722C31.962 38.0513 31.6464 38.3001 31.2161 38.4184C31.3349 38.5895 31.3981 38.776 31.4055 38.978C30.7881 38.7404 30.22 38.4296 29.7012 38.0453C29.9004 38.0731 30.0898 38.0421 30.2693 37.952C30.0428 37.83 30.0428 37.7368 30.2693 37.6722C30.8754 37.564 31.5068 37.564 32.163 37.6722Z" fill="white" stroke="#1E1D1D" stroke-width="0.179547"/>
<path fill-rule="evenodd" clip-rule="evenodd" d="M32.1627 37.6729C34.1923 38.9569 33.9397 39.3921 31.4052 38.9787C31.3978 38.7767 31.3346 38.5901 31.2158 38.419C31.6461 38.3008 31.9617 38.0519 32.1627 37.6729Z" fill="white" fill-opacity="0.5" stroke="#1E1D1D" stroke-width="0.179547"/>
<path fill-rule="evenodd" clip-rule="evenodd" d="M19.8531 38.0457C20.2895 38.5383 20.7313 39.0359 21.1787 39.538C20.8895 39.5244 20.7002 39.6488 20.6106 39.9111C20.3581 39.9111 20.1056 39.9111 19.8531 39.9111C19.6103 39.5977 19.2947 39.3491 18.9062 39.1649C18.9062 38.9784 18.9062 38.7918 18.9062 38.6053C19.386 38.6503 19.7016 38.4637 19.8531 38.0457Z" fill="#1E1D1D"/>
<path fill-rule="evenodd" clip-rule="evenodd" d="M28.9437 38.4188C29.1316 38.3867 29.2577 38.449 29.3225 38.6054C29.3371 38.8386 29.4634 38.994 29.7012 39.0717C29.4192 39.3456 29.1666 39.6254 28.9437 39.9112C28.6913 39.9112 28.4387 39.9112 28.1863 39.9112C28.0967 39.6489 27.9073 39.5245 27.6182 39.5381C28.0637 39.1607 28.5055 38.7876 28.9437 38.4188Z" fill="#1E1D1D"/>
<path fill-rule="evenodd" clip-rule="evenodd" d="M29.3221 38.605C29.5115 38.605 29.7008 38.605 29.8902 38.605C30.2269 39.34 30.795 39.8685 31.5945 40.1906C31.415 40.2807 31.2256 40.3117 31.0264 40.2839C30.3701 39.9869 29.6756 39.8627 28.9434 39.9108C29.1662 39.625 29.4189 39.3452 29.7008 39.0714C29.463 38.9936 29.3367 38.8382 29.3221 38.605Z" fill="white"/>
<path fill-rule="evenodd" clip-rule="evenodd" d="M19.8536 39.9114C20.1061 39.9114 20.3586 39.9114 20.6111 39.9114C21.6217 40.2382 22.5369 40.7357 23.3569 41.4038C23.9034 41.0922 23.9349 40.7812 23.4516 40.471C24.0828 40.471 24.7141 40.471 25.3453 40.471C25.3453 40.5954 25.2822 40.6576 25.1559 40.6576C24.9035 40.6576 24.6509 40.6576 24.3984 40.6576C24.3984 40.9685 24.3984 41.2793 24.3984 41.5903C24.2507 42.1621 23.872 42.473 23.2622 42.523C22.5017 42.2104 21.7442 41.8994 20.9898 41.5903C20.6585 41.2362 20.2482 40.9876 19.7589 40.8441C19.3267 41.0715 18.8848 41.0715 18.4333 40.8441C18.0385 40.9605 17.6913 41.1471 17.3918 41.4038C17.3713 41.028 17.4975 40.7173 17.7705 40.471C18.3883 40.027 19.0827 39.8405 19.8536 39.9114Z" fill="white"/>
<path fill-rule="evenodd" clip-rule="evenodd" d="M18.9065 39.165C19.2949 39.3492 19.6105 39.5978 19.8533 39.9112C19.0824 39.8403 18.388 40.0269 17.7703 40.4709C17.6259 40.3276 17.4365 40.2343 17.2021 40.1911C17.8018 39.876 18.3699 39.534 18.9065 39.165Z" fill="white"/>
<path fill-rule="evenodd" clip-rule="evenodd" d="M21.1789 39.5381C21.8416 40.0504 22.599 40.3614 23.4514 40.4709C23.9346 40.7811 23.9032 41.0921 23.3567 41.4036C22.5367 40.7356 21.6215 40.238 20.6108 39.9112C20.7004 39.6489 20.8898 39.5245 21.1789 39.5381Z" fill="white"/>
<path fill-rule="evenodd" clip-rule="evenodd" d="M27.6171 39.5381C27.9062 39.5245 28.0956 39.6489 28.1852 39.9112C27.2754 40.2716 26.4233 40.769 25.6287 41.4036C25.3482 41.2225 25.1903 40.9738 25.1553 40.6574C25.2816 40.6574 25.3446 40.5953 25.3446 40.4709C26.2407 40.4472 26.9982 40.1364 27.6171 39.5381Z" fill="white"/>
<path fill-rule="evenodd" clip-rule="evenodd" d="M28.1858 39.911C28.4382 39.911 28.6909 39.911 28.9433 39.911C29.6756 39.8628 30.37 39.9871 31.0263 40.2841C31.2045 40.5732 31.3306 40.884 31.4051 41.2168C30.9714 40.8737 30.5296 40.8116 30.0795 41.0302C29.8901 41.0302 29.7008 41.0302 29.5114 41.0302C28.9012 40.8719 28.3962 41.0584 27.9964 41.5899C27.2198 41.9257 26.4307 42.2365 25.6293 42.5226C25.0792 42.3842 24.6689 42.0732 24.3984 41.5899C24.3984 41.2789 24.3984 40.9681 24.3984 40.6571C24.6509 40.6571 24.9035 40.6571 25.1559 40.6571C25.1909 40.9735 25.3489 41.2222 25.6293 41.4033C26.4239 40.7687 27.2761 40.2714 28.1858 39.911Z" fill="white"/>
<path fill-rule="evenodd" clip-rule="evenodd" d="M20.9896 41.5899C21.0492 41.9119 21.0807 42.2229 21.0843 42.5227C20.4539 41.6726 19.728 41.5793 18.9065 42.2429C18.0242 42.5509 17.5193 42.271 17.3916 41.4034C17.7124 41.1032 18.0237 40.8842 18.4331 40.8438C19.0465 40.928 19.2243 40.928 19.7587 40.8438C20.336 40.8842 20.6583 41.2359 20.9896 41.5899Z" fill="white"/>
<path fill-rule="evenodd" clip-rule="evenodd" d="M29.512 41.0301C29.7638 41.0301 30.163 41.018 30.0801 41.0301C30.9199 40.7088 31.0533 40.9278 31.4056 41.2166C31.6264 41.9382 31.3108 42.3113 30.4588 42.3359C29.9594 42.1602 29.4544 41.9737 28.9438 41.7763C28.5219 41.9104 28.1748 42.1591 27.9023 42.5225C27.8296 42.2059 27.861 41.8951 27.997 41.5897C28.3968 41.0583 28.6076 40.8402 29.512 41.0301Z" fill="white"/>
<path d="M21.4468 37.3926V35.6286H21.6922V37.2284H22.1134V35.6286H22.3588V37.2284H22.7799V35.6286H23.0254V37.3926H21.4468Z" fill="#1E1D1D"/>
<path d="M23.2489 37.3926V35.6286H23.4822V36.4196H23.5973L23.9851 35.6286H24.2427L23.8124 36.4793L24.2548 37.3926H23.9942L23.6094 36.5778H23.4822V37.3926H23.2489Z" fill="#1E1D1D"/>
<path d="M24.7446 37.4284C24.6537 37.4284 24.5739 37.4175 24.5052 37.3956C24.4365 37.3757 24.382 37.3329 24.3416 37.2673C24.3012 37.2016 24.281 37.1031 24.281 36.9718V35.9987C24.281 35.8893 24.3012 35.8067 24.3416 35.751C24.382 35.6933 24.4365 35.6545 24.5052 35.6346C24.5759 35.6147 24.6567 35.6047 24.7476 35.6047C24.8385 35.6047 24.9183 35.6157 24.9869 35.6376C25.0576 35.6575 25.1132 35.6953 25.1536 35.751C25.194 35.8067 25.2142 35.8893 25.2142 35.9987V36.9718C25.2142 37.1051 25.194 37.2046 25.1536 37.2702C25.1132 37.3339 25.0576 37.3757 24.9869 37.3956C24.9163 37.4175 24.8355 37.4284 24.7446 37.4284ZM24.7446 37.2881C24.791 37.2881 24.8314 37.2822 24.8658 37.2702C24.9021 37.2583 24.9304 37.2354 24.9506 37.2016C24.9708 37.1658 24.9809 37.113 24.9809 37.0434V35.9928C24.9809 35.9251 24.9708 35.8744 24.9506 35.8405C24.9304 35.8047 24.9021 35.7808 24.8658 35.7689C24.8314 35.757 24.791 35.751 24.7446 35.751C24.6981 35.751 24.6577 35.757 24.6234 35.7689C24.589 35.7808 24.5618 35.8047 24.5416 35.8405C24.5214 35.8744 24.5113 35.9251 24.5113 35.9928V37.0434C24.5113 37.113 24.5214 37.1658 24.5416 37.2016C24.5618 37.2354 24.589 37.2583 24.6234 37.2702C24.6577 37.2822 24.6981 37.2881 24.7446 37.2881Z" fill="#1E1D1D"/>
<path d="M25.2817 37.3926V37.2673C25.3201 37.2673 25.3535 37.2483 25.3817 37.2105C25.412 37.1707 25.4302 37.115 25.4363 37.0434L25.5332 35.6286H26.418V37.3926H26.1847V35.7958H25.7635L25.6665 37.1061C25.6645 37.1339 25.6605 37.1648 25.6544 37.1986C25.6504 37.2304 25.6403 37.2603 25.6241 37.2881C25.61 37.316 25.5868 37.3399 25.5544 37.3598C25.5241 37.3797 25.4807 37.3906 25.4242 37.3926H25.2817Z" fill="#1E1D1D"/>
<path d="M26.4565 37.3926L26.8322 35.6286H27.1473L27.52 37.3926H27.2624L27.1776 37.0046H26.7837L26.7049 37.3926H26.4565ZM26.7928 36.8852H27.1715L26.9837 35.8793L26.7928 36.8852Z" fill="#1E1D1D"/>
<path d="M5.27246 31.1434C5.27246 31.1434 6.59974 28.8695 7.4502 27.4124M7.4502 27.4124C7.61824 27.088 7.61824 26.8042 7.4502 26.4797C7.25422 26.1013 6.93038 25.861 6.50336 25.9201C5.88954 26.005 5.57441 26.9983 6.02993 27.4124M7.4502 27.4124C6.88209 27.7855 6.59804 27.8788 6.02993 27.4124M6.02993 27.4124C5.46183 26.6662 5.6512 25.6402 6.2193 24.894" stroke="#1E1D1D" stroke-width="0.191155"/>
<path d="M43.2522 26.7975C43.2522 26.7975 43.3354 26.1123 43.2241 25.7798C43.1462 25.5469 42.957 25.0806 42.957 25.0806" stroke="#1E1D1D" stroke-width="0.191155"/>
<g clip-path="url(#clip0_1748_11)">
<path d="M16.4019 8.07104C16.3864 8.11108 16.3647 9.72182 16.3554 11.6529C16.343 13.5839 16.3275 15.4811 16.3213 15.8722C16.312 16.2603 16.3058 17.329 16.3058 18.2437L16.3027 19.9068L17.0247 19.9252C17.4214 19.9376 17.8862 19.9622 18.0566 19.9776C18.227 19.9961 18.6608 20.0423 19.0172 20.0762L19.6679 20.1408L20.8609 20.5258C22.3266 21.0032 22.5559 21.0802 22.6768 21.1541C22.7325 21.1849 22.9061 21.268 23.0641 21.3358C23.2252 21.4066 23.4452 21.5175 23.5568 21.5822C23.8171 21.7331 24.2912 21.9487 24.4244 21.9733L24.5267 21.9949L24.5081 16.9779C24.4957 14.2183 24.4864 11.5574 24.4864 11.0677V10.1715L24.1487 10.0144C23.9627 9.92509 23.69 9.82038 23.5382 9.77726C23.3864 9.73414 23.0269 9.58015 22.7356 9.43848C22.2244 9.18594 21.961 9.07814 21.6046 8.97343C21.5117 8.94571 21.366 8.89643 21.2824 8.86255C21.1987 8.83176 21.115 8.80404 21.0964 8.80404C21.0778 8.80404 20.9849 8.764 20.8919 8.71472C20.799 8.66545 20.6378 8.60385 20.5356 8.57305C20.4333 8.54533 20.266 8.49606 20.1637 8.46526C20.0615 8.43446 19.8538 8.38518 19.6989 8.35747C19.5471 8.32975 19.3364 8.28663 19.2341 8.26507C19.1319 8.24043 18.7352 8.17268 18.351 8.11416C17.7405 8.02177 17.5794 8.00637 17.0402 8.00329C16.4298 8.00021 16.4298 8.00021 16.4019 8.07104Z" fill="white"/>
<path d="M31.2729 8.05538C30.0799 8.25249 29.4788 8.36952 29.1813 8.46192C29.079 8.49579 28.9458 8.52967 28.8869 8.53891C28.8249 8.54815 28.6731 8.60667 28.5461 8.66826C28.419 8.72986 28.0689 8.86229 27.7714 8.96392C27.2539 9.14255 26.9161 9.29039 26.408 9.56141C26.2809 9.63224 26.0423 9.72464 25.8812 9.77083C25.72 9.82011 25.435 9.93406 25.2521 10.0295L24.9175 10.2051V14.0703C24.9206 17.4981 24.9485 21.9546 24.9671 21.9792C24.9857 22.0038 25.4598 21.7944 25.6488 21.6774C26.4606 21.1723 27.948 20.5871 29.4447 20.1806C30.2844 19.9527 30.5633 19.9188 31.8555 19.9003L32.9214 19.8849L32.8997 16.4756C32.8873 14.6031 32.875 13.0139 32.8688 12.9461C32.8626 12.8784 32.8533 11.7696 32.8502 10.4823C32.8471 9.19491 32.8347 8.11082 32.8192 8.07078L32.7913 7.99994L32.1654 8.0061C31.8059 8.01226 31.4217 8.03382 31.2729 8.05538Z" fill="white"/>
<path d="M15.2532 11.7207C15.2532 13.3284 15.2439 16.0571 15.2315 17.7849L15.2129 20.9324L15.4887 20.9509C16.1518 20.9971 16.6507 21.0371 16.8955 21.0618C17.0411 21.0772 17.3045 21.0987 17.4842 21.108C17.9862 21.1357 18.0947 21.148 18.4603 21.2127C19.548 21.4067 20.93 21.7393 21.3421 21.9056C21.4971 21.9703 21.8007 22.0843 22.0207 22.1582C22.2408 22.2352 22.5506 22.3522 22.7056 22.42C23.1952 22.6263 24.3107 22.9097 24.6392 22.9097C24.7476 22.9097 24.887 22.8973 24.949 22.8789C25.011 22.8635 25.1876 22.8204 25.3395 22.7865C25.8198 22.6756 26.2567 22.5401 26.5634 22.4107C26.7246 22.343 26.9756 22.2475 27.1212 22.2013C27.2669 22.1551 27.5829 22.0381 27.8246 21.9426C28.0694 21.8471 28.3266 21.7578 28.3979 21.7424C28.4723 21.727 28.7542 21.6593 29.0269 21.5915C29.2996 21.5207 29.6405 21.4437 29.7861 21.416C29.9317 21.3882 30.1332 21.3451 30.2354 21.3174C30.5453 21.2404 31.3386 21.1234 31.5586 21.1234C31.6763 21.1234 31.9676 21.1049 32.2093 21.0803C32.4541 21.0556 32.8476 21.0217 33.0862 21.0033C33.3248 20.9848 33.6347 20.9632 33.7772 20.9509L34.0313 20.9324L34.0282 15.09C34.0282 11.8778 34.0189 9.14907 34.0096 9.02588L33.991 8.80413H33.5913H33.1885L33.2071 10.3348C33.2164 11.1787 33.235 13.7411 33.2443 16.0294L33.2659 20.1902L32.8197 20.2087C31.8405 20.2456 30.8242 20.3442 30.2509 20.452C29.9782 20.5013 28.8193 20.8185 28.7232 20.8678C28.6737 20.8924 28.3266 21.0279 27.9486 21.1696C27.5705 21.3112 27.0159 21.5422 26.7153 21.687C26.4178 21.8317 26.0831 21.9857 25.9716 22.0258C25.8631 22.0689 25.6462 22.1644 25.4913 22.2444C25.3364 22.3214 25.1938 22.3861 25.1783 22.3861C25.1597 22.3861 25.1133 22.4138 25.0699 22.4446C25.0296 22.4785 24.9211 22.5247 24.8282 22.5524C24.6794 22.5955 24.6392 22.5955 24.5152 22.5586C24.3045 22.4939 23.9079 22.3276 23.6971 22.2136C23.5949 22.1582 23.4214 22.0781 23.3098 22.035C23.1983 21.995 22.8574 21.841 22.5506 21.6931C22.2439 21.5453 21.6706 21.302 21.2771 21.1542C20.8835 21.0063 20.5303 20.8678 20.4931 20.8462C20.4528 20.8277 20.2111 20.7569 19.9539 20.6891C19.6936 20.6214 19.4333 20.5505 19.3745 20.5321C19.046 20.4366 18.2062 20.3195 17.4997 20.2764C17.3293 20.2641 17.0566 20.2426 16.8955 20.2272C16.7344 20.2148 16.4648 20.1994 16.2943 20.1994H15.9907L16.0093 18.3577C16.0186 17.3475 16.0371 14.782 16.0464 12.6601L16.0681 8.80413H15.6591H15.2532V11.7207Z" fill="white"/>
<path d="M14.1995 11.6346C14.1995 12.4753 14.1933 15.2195 14.184 17.7357C14.1778 20.2519 14.1778 22.3739 14.1871 22.457C14.2026 22.5802 14.2243 22.6172 14.3142 22.6849L14.4257 22.7681L15.3429 22.7742C16.5049 22.7804 17.6484 22.8635 18.894 23.0329C19.0149 23.0483 19.4177 23.0976 19.7927 23.1407C20.1676 23.1869 20.7037 23.2701 20.9857 23.3255C22.1353 23.5596 23.9232 23.9292 24.0689 23.9661C24.1618 23.9877 24.4438 24 24.7661 24C25.2712 24 25.3455 23.9908 25.8351 23.886C28.8037 23.2547 28.9307 23.23 30.3902 23.0514C32.203 22.8297 32.9498 22.7742 34.087 22.7712H34.9949L35.0693 22.651C35.1096 22.5864 35.1498 22.4693 35.1622 22.3893C35.187 22.2537 35.1839 10.1624 35.1622 10.1285C35.156 10.1193 34.9794 10.11 34.7687 10.1131H34.3876L34.3938 12.2228C34.4 13.3839 34.4124 15.9217 34.4216 17.8619L34.4402 21.3883L33.7647 21.4284C31.9799 21.5269 31.7165 21.5515 31.01 21.6809C30.4367 21.7887 29.6156 22.0074 28.9958 22.2199C27.7718 22.6418 25.7484 23.2947 25.2402 23.4333C25.0976 23.4734 24.9396 23.5349 24.8838 23.575C24.763 23.6643 24.7289 23.6674 24.6607 23.5904C24.605 23.5288 24.4407 23.461 24.1928 23.4025C23.9263 23.3378 21.8285 22.6726 20.8369 22.34C18.9126 21.6932 18.1318 21.5515 15.8883 21.4438C15.6497 21.4314 15.4328 21.4191 15.408 21.413C15.3832 21.4099 15.2655 21.4037 15.1508 21.4037L14.9401 21.4006L14.9649 17.5724C14.9773 15.4689 14.9897 12.9281 14.9897 11.9302V10.1131L14.5961 10.11L14.1995 10.107V11.6346Z" fill="white"/>
</g>
<defs>
<clipPath id="clip0_1748_11">
<rect width="22" height="16.0001" fill="white" transform="translate(14 8)"/>
</clipPath>
</defs>
</svg>
