<svg width="50" height="50" viewBox="0 0 50 50" fill="none" xmlns="http://www.w3.org/2000/svg">
<path d="M11.0875 33.5534C12.0505 34.2379 13.0326 34.8746 14.0336 35.4634C13.9696 35.5345 13.882 35.588 13.7666 35.6225L13.6412 35.66L13.7151 35.768C14.1857 36.4558 14.8396 36.874 15.6711 37.0207L15.6715 37.0208C16.2878 37.1266 16.9178 37.1585 17.5614 37.117C17.6074 37.1413 17.6379 37.1631 17.6563 37.1813C17.6708 37.1956 17.6743 37.2038 17.675 37.2064C17.6743 37.209 17.6708 37.2173 17.6563 37.2316C17.6356 37.252 17.5998 37.277 17.5438 37.3049C17.2357 37.4162 16.9255 37.5078 16.6131 37.5797L16.5972 37.5833L16.5834 37.592C16.0746 37.9139 15.7031 38.1861 15.4738 38.408C15.3596 38.5184 15.2751 38.6216 15.2282 38.7171C15.181 38.8133 15.1652 38.9174 15.219 39.0102C15.2696 39.0973 15.367 39.1477 15.4784 39.1779C15.5925 39.2089 15.7403 39.2237 15.9182 39.2251C16.2747 39.2279 16.7721 39.1766 17.4074 39.073L17.4171 39.0714L17.4263 39.0678C18.045 38.8296 18.6154 38.5187 19.137 38.1347C19.3373 38.0875 19.5058 37.9934 19.6402 37.853C19.6442 37.8632 19.6481 37.8732 19.6519 37.883C19.6581 37.899 19.6642 37.9146 19.6705 37.9303C19.6893 37.9766 19.7102 38.0212 19.7437 38.0652C19.6745 38.2299 19.5773 38.3447 19.4549 38.4171C19.3191 38.4973 19.142 38.5316 18.9159 38.5104L18.8114 38.5006V38.6055V38.6066V38.6077V38.6088V38.6099V38.611V38.6121V38.6132V38.6143V38.6154V38.6165V38.6176V38.6187V38.6197V38.6208V38.6219V38.623V38.6241V38.6252V38.6263V38.6274V38.6285V38.6296V38.6307V38.6318V38.6329V38.634V38.6351V38.6361V38.6372V38.6383V38.6394V38.6405V38.6416V38.6427V38.6438V38.6449V38.646V38.6471V38.6482V38.6493V38.6504V38.6514V38.6525V38.6536V38.6547V38.6558V38.6569V38.658V38.6591V38.6602V38.6613V38.6624V38.6635V38.6646V38.6657V38.6667V38.6678V38.6689V38.67V38.6711V38.6722V38.6733V38.6744V38.6755V38.6766V38.6777V38.6788V38.6799V38.681V38.6821V38.6831V38.6842V38.6853V38.6864V38.6875V38.6886V38.6897V38.6908V38.6919V38.693V38.6941V38.6952V38.6963V38.6974V38.6984V38.6995V38.7006V38.7017V38.7028V38.7039V38.705V38.7061V38.7072V38.7083V38.7094V38.7105V38.7116V38.7127V38.7138V38.7148V38.7159V38.717V38.7181V38.7192V38.7203V38.7214V38.7225V38.7236V38.7247V38.7258V38.7269V38.728V38.7291V38.7301V38.7312V38.7323V38.7334V38.7345V38.7356V38.7367V38.7378V38.7389V38.74V38.7411V38.7422V38.7433V38.7444V38.7454V38.7465V38.7476V38.7487V38.7498V38.7509V38.752V38.7531V38.7542V38.7553V38.7564V38.7575V38.7586V38.7597V38.7608V38.7618V38.7629V38.764V38.7651V38.7662V38.7673V38.7684V38.7695V38.7706V38.7717V38.7728V38.7739V38.775V38.7761V38.7771V38.7782V38.7793V38.7804V38.7815V38.7826V38.7837V38.7848V38.7859V38.787V38.7881V38.7892V38.7903V38.7914V38.7925V38.7935V38.7946V38.7957V38.7968V38.7979V38.799V38.8001V38.8012V38.8023V38.8034V38.8045V38.8056V38.8067V38.8078V38.8088V38.8099V38.811V38.8121V38.8132V38.8143V38.8154V38.8165V38.8176V38.8187V38.8198V38.8209V38.822V38.8231V38.8241V38.8252V38.8263V38.8274V38.8285V38.8296V38.8307V38.8318V38.8329V38.834V38.8351V38.8362V38.8373V38.8384V38.8395V38.8405V38.8416V38.8427V38.8438V38.8449V38.846V38.8471V38.8482V38.8493V38.8504V38.8515V38.8526V38.8537V38.8548V38.8558V38.8569V38.858V38.8591V38.8602V38.8613V38.8624V38.8635V38.8646V38.8657V38.8668V38.8679V38.869V38.8701V38.8712V38.8722V38.8733V38.8744V38.8755V38.8766V38.8777V38.8788V38.8799V38.881V38.8821V38.8832V38.8843V38.8854V38.8865V38.8875V38.8886V38.8897V38.8908V38.8919V38.893V38.8941V38.8952V38.8963V38.8974V38.8985V38.8996V38.9007V38.9018V38.9028V38.9039V38.905V38.9061V38.9072V38.9083V38.9094V38.9105V38.9116V38.9127V38.9138V38.9149V38.916V38.9171V38.9182V38.9192V38.9203V38.9214V38.9225V38.9236V38.9247V38.9258V38.9269V38.928V38.9291V38.9302V38.9313V38.9324V38.9335V38.9345V38.9356V38.9367V38.9378V38.9389V38.94V38.9411V38.9422V38.9433V38.9444V38.9455V38.9466V38.9477V38.9488V38.9499V38.9509V38.952V38.9531V38.9542V38.9553V38.9564V38.9575V38.9586V38.9597V38.9608V38.9619V38.963V38.9641V38.9652V38.9662V38.9673V38.9684V38.9695V38.9706V38.9717V38.9728V38.9739V38.975V38.9761V38.9772V38.9783V38.9794V38.9805V38.9815V38.9826V38.9837V38.9848V38.9859V38.987V38.9881V38.9892V38.9903V38.9914V38.9925V38.9936V38.9947V38.9958V38.9969V38.9979V38.999V39.0001V39.0012V39.0023V39.0034V39.0045V39.0056V39.0067V39.0078V39.0089V39.01V39.0111V39.0122V39.0132V39.0143V39.0154V39.0165V39.0176V39.0187V39.0198V39.0209V39.022V39.0231V39.0242V39.0253V39.0264V39.0275V39.0286V39.0296V39.0307V39.0318V39.0329V39.034V39.0351V39.0362V39.0373V39.0384V39.0395V39.0406V39.0417V39.0428V39.0439V39.0449V39.046V39.0471V39.0482V39.0493V39.0504V39.0515V39.0526V39.0537V39.0548V39.0559V39.057V39.0581V39.0592V39.0602V39.0613V39.0624V39.0635V39.0646V39.0657V39.0668V39.0679V39.069V39.0701V39.0712V39.0723V39.0734V39.0745V39.0756V39.0766V39.0777V39.0788V39.0799V39.081V39.0821V39.0832V39.0843V39.0854V39.0865V39.0876V39.0887V39.0898V39.0909V39.0919V39.093V39.0941V39.0952V39.0963V39.0974V39.0985V39.0996V39.1007V39.1018V39.1029V39.104V39.1051V39.1062V39.1073V39.1083V39.1094V39.1105V39.1116V39.1127V39.1138V39.1148C18.2903 39.4708 17.7392 39.8013 17.1582 40.1066L16.9137 40.235L17.1853 40.2852C17.3648 40.3183 17.5121 40.3821 17.6302 40.4744C17.3881 40.7283 17.2765 41.0419 17.2966 41.409L17.2962 41.409L17.2974 41.4177C17.3633 41.8652 17.5303 42.1873 17.8202 42.3479C18.1078 42.5073 18.4871 42.491 18.9384 42.3335L18.9541 42.328L18.967 42.3176C19.3665 41.9949 19.7278 41.8682 20.0552 41.9103C20.3828 41.9524 20.7012 42.1664 21.0079 42.58L21.1837 42.8171L21.1802 42.5219C21.1773 42.2699 21.1549 42.0105 21.1132 41.7441C21.8148 42.0317 22.5192 42.3208 23.2261 42.6114L23.2473 42.6202L23.2702 42.6183C23.5896 42.5921 23.8567 42.4968 24.0644 42.3262C24.2239 42.1953 24.3438 42.0239 24.4262 41.8153C24.707 42.2214 25.1017 42.4888 25.6062 42.6157L25.6343 42.6228L25.6617 42.6131C26.3949 42.3512 27.1178 42.0689 27.8304 41.7656C27.7557 42.021 27.7483 42.2811 27.8088 42.5444L27.8549 42.7451L27.9784 42.5804C28.2324 42.2416 28.5526 42.0084 28.9408 41.8783C29.4414 42.0714 29.9367 42.2542 30.4267 42.4267L30.4434 42.4325L30.4612 42.432C30.8953 42.4195 31.2224 42.3183 31.4071 42.0999C31.595 41.8778 31.611 41.5653 31.4977 41.1928C31.4341 40.9097 31.3341 40.6419 31.1975 40.3894C31.3497 40.3849 31.4967 40.3473 31.6375 40.2766L31.8267 40.1817L31.6303 40.1025C30.8519 39.7888 30.303 39.2769 29.9772 38.5657L29.9517 38.51H29.8903H29.8892H29.8881H29.887H29.8859H29.8848H29.8836H29.8825H29.8814H29.8803H29.8792H29.8781H29.877H29.8759H29.8748H29.8737H29.8726H29.8714H29.8703H29.8692H29.8681H29.867H29.8659H29.8648H29.8637H29.8626H29.8615H29.8603H29.8592H29.8581H29.857H29.8559H29.8548H29.8537H29.8526H29.8515H29.8504H29.8493H29.8481H29.847H29.8459H29.8448H29.8437H29.8426H29.8415H29.8404H29.8393H29.8382H29.837H29.8359H29.8348H29.8337H29.8326H29.8315H29.8304H29.8293H29.8282H29.8271H29.8259H29.8248H29.8237H29.8226H29.8215H29.8204H29.8193H29.8182H29.8171H29.816H29.8149H29.8137H29.8126H29.8115H29.8104H29.8093H29.8082H29.8071H29.806H29.8049H29.8038H29.8026H29.8015H29.8004H29.7993H29.7982H29.7971H29.796H29.7949H29.7938H29.7927H29.7916H29.7904H29.7893H29.7882H29.7871H29.786H29.7849H29.7838H29.7827H29.7816H29.7805H29.7793H29.7782H29.7771H29.776H29.7749H29.7738H29.7727H29.7716H29.7705H29.7694H29.7683H29.7671H29.766H29.7649H29.7638H29.7627H29.7616H29.7605H29.7594H29.7583H29.7572H29.756H29.7549H29.7538H29.7527H29.7516H29.7505H29.7494H29.7483H29.7472H29.7461H29.745H29.7438H29.7427H29.7416H29.7405H29.7394H29.7383H29.7372H29.7361H29.735H29.7339H29.7327H29.7316H29.7305H29.7294H29.7283H29.7272H29.7261H29.725H29.7239H29.7228H29.7216H29.7205H29.7194H29.7183H29.7172H29.7161H29.715H29.7139H29.7128H29.7117H29.7106H29.7094H29.7083H29.7072H29.7061H29.705H29.7039H29.7028H29.7017H29.7006H29.6995H29.6983H29.6972H29.6961H29.695H29.6939H29.6928H29.6917H29.6906H29.6895H29.6884H29.6873H29.6861H29.685H29.6839H29.6828H29.6817H29.6806H29.6795H29.6784H29.6773H29.6762H29.675H29.6739H29.6728H29.6717H29.6706H29.6695H29.6684H29.6673H29.6662H29.6651H29.664H29.6628H29.6617H29.6606H29.6595H29.6584H29.6573H29.6562H29.6551H29.654H29.6529H29.6517H29.6506H29.6495H29.6484H29.6473H29.6462H29.6451H29.644H29.6429H29.6418H29.6406H29.6395H29.6384H29.6373H29.6362H29.6351H29.634H29.6329H29.6318H29.6307H29.6296H29.6284H29.6273H29.6262H29.6251H29.624H29.6229H29.6218H29.6207H29.6196H29.6185H29.6173H29.6162H29.6151H29.614H29.6129H29.6118H29.6107H29.6096H29.6085H29.6074H29.6063H29.6051H29.604H29.6029H29.6018H29.6007H29.5996H29.5985H29.5974H29.5963H29.5952H29.594H29.5929H29.5918H29.5907H29.5896H29.5885H29.5874H29.5863H29.5852H29.5841H29.583H29.5818H29.5807H29.5796H29.5785H29.5774H29.5763H29.5752H29.5741H29.573H29.5719H29.5707H29.5696H29.5685H29.5674H29.5663H29.5652H29.5641H29.563H29.5619H29.5608H29.5597H29.5585H29.5574H29.5563H29.5552H29.5541H29.553H29.5519H29.5508H29.5497H29.5486H29.5474H29.5463H29.5452H29.5441H29.543H29.5419H29.5408H29.5397H29.5386H29.5375H29.5364H29.5352H29.5341H29.533H29.5319H29.5308H29.5297H29.5286H29.5275H29.5264H29.5253H29.5241H29.523H29.5219H29.5208H29.5197H29.5186H29.5175H29.5164H29.5153H29.5142H29.5131H29.5119H29.5108H29.5097H29.5086H29.5075H29.5064H29.5053H29.5042H29.5031H29.502H29.5008H29.4997H29.4986H29.4975H29.4964H29.4953H29.4942H29.4931H29.492H29.4909H29.4897H29.4886H29.4875H29.4864H29.4853H29.4842H29.4831H29.482H29.4809H29.4798H29.4787H29.4775H29.4764H29.4753H29.4742H29.4731H29.472H29.4709H29.4698H29.4687H29.4676H29.4664H29.4653H29.4642H29.4631H29.462H29.4609H29.4598H29.4587H29.4576H29.4565H29.4554H29.4542H29.4531H29.452H29.4509H29.4498H29.4487H29.4476H29.4465H29.4454H29.4443H29.4431H29.442H29.4409H29.4398H29.4387H29.4376H29.4365H29.4354H29.4343H29.4332H29.4321H29.4309H29.4298H29.4287H29.4276H29.4265H29.4254H29.4243H29.4232H29.4221H29.421H29.4198H29.4187H29.4176H29.4165H29.4154H29.4143H29.4132H29.4121H29.411H29.4099H29.4087H29.4076H29.4065H29.4054H29.4043H29.4032H29.4021H29.401H29.3999H29.3988H29.3977H29.3965H29.3954H29.3943H29.3932H29.3921H29.391H29.3899H29.3888H29.3877H29.3866H29.3854H29.3843H29.3832H29.3821H29.3816C29.343 38.4429 29.2901 38.3898 29.2212 38.3559C29.1836 38.3373 29.1433 38.3256 29.101 38.3197L29.1915 38.1415H29.1916H29.1927H29.1939H29.195H29.1961H29.1972H29.1983H29.1994H29.2005H29.2016H29.2027H29.2038H29.205H29.2061H29.2072H29.2083H29.2094H29.2105H29.2116H29.2127H29.2138H29.2149H29.216H29.2172H29.2183H29.2194H29.2205H29.2216H29.2227H29.2238H29.2249H29.226H29.2271H29.2283H29.2294H29.2305H29.2316H29.2327H29.2338H29.2349H29.236H29.2371H29.2382H29.2394H29.2405H29.2416H29.2427H29.2438H29.2449H29.246H29.2471H29.2482H29.2493H29.2504H29.2516H29.2527H29.2538H29.2549H29.256H29.2571H29.2582H29.2593H29.2604H29.2615H29.2627H29.2638H29.2649H29.266H29.2671H29.2682H29.2693H29.2704H29.2715H29.2726H29.2737H29.2749H29.276H29.2771H29.2782H29.2793H29.2804H29.2815H29.2826H29.2837H29.2848H29.286H29.2871H29.2882H29.2893H29.2904H29.2915H29.2926H29.2937H29.2948H29.2959H29.297H29.2982H29.2993H29.3004H29.3015H29.3026H29.3037H29.3048H29.3059H29.307H29.3081H29.3093H29.3104H29.3115H29.3126H29.3137H29.3148H29.3159H29.317H29.3181H29.3192H29.3204H29.3215H29.3226H29.3237H29.3248H29.3259H29.327H29.3281H29.3292H29.3303H29.3314H29.3326H29.3337H29.3348H29.3359H29.337H29.3381H29.3392H29.3403H29.3414H29.3425H29.3437H29.3448H29.3459H29.347H29.3481H29.3492H29.3503H29.3514H29.3525H29.3536H29.3547H29.3559H29.357H29.3581H29.3592H29.3603H29.3614H29.3625H29.3636H29.3647H29.3658H29.367H29.3681H29.3692H29.3703H29.3714H29.3725H29.3736H29.3747H29.3758H29.3769H29.378H29.3792H29.3803H29.3814H29.3825H29.3836H29.3847H29.3858H29.3869H29.388H29.3891H29.3903H29.3914H29.3925H29.3936H29.3947H29.3958H29.3969H29.398H29.3991H29.4002H29.4014H29.4025H29.4036H29.4047H29.4058H29.4069H29.408H29.4091H29.4102H29.4113H29.4124H29.4136H29.4147H29.4158H29.4169H29.418H29.4191H29.4202H29.4213H29.4224H29.4235H29.4247H29.4258H29.4269H29.428H29.4291H29.4302H29.4313H29.4324H29.4335H29.4346H29.4357H29.4369H29.438H29.4391H29.4402H29.4413H29.4424H29.4435H29.4446H29.4457H29.4468H29.448H29.4491H29.4502H29.4513H29.4524H29.4535H29.4546H29.4557H29.4568H29.4579H29.459H29.4602H29.4613H29.4624H29.4635H29.4646H29.4657H29.4668H29.4679H29.469H29.4701H29.4713H29.4724H29.4735H29.4746H29.4757H29.4768H29.4779H29.479H29.4801H29.4812H29.4823H29.4835H29.4846H29.4857H29.4868H29.4879H29.489H29.4901H29.4912H29.4923H29.4934H29.4946H29.4957H29.4968H29.4979H29.499H29.5001H29.5012H29.5023H29.5034H29.5045H29.5056H29.5068H29.5079H29.509H29.5101H29.5112H29.5123H29.5134H29.5145H29.5156H29.5167H29.5179H29.519H29.5201H29.5212H29.5223H29.5234H29.5245H29.5256H29.5267H29.5278H29.529H29.5301H29.5312H29.5323H29.5334H29.5345H29.5356H29.5367H29.5378H29.5389H29.54H29.5412H29.5423H29.5434H29.5445H29.5456H29.5467H29.5478H29.5489H29.55H29.5511H29.5523H29.5534H29.5545H29.5556H29.5567H29.5578H29.5589H29.56H29.5611H29.5622H29.5633H29.5645H29.5656H29.5667H29.5678H29.5689H29.57H29.5711H29.5722H29.5733H29.5744H29.5756H29.5767H29.5778H29.5789H29.58H29.5811H29.5822H29.5833H29.5844H29.5855H29.5867H29.5878H29.5889H29.59H29.5911H29.5922H29.5933H29.5944H29.5955H29.5966H29.5977H29.5989H29.6H29.6011H29.6022H29.6033H29.6044H29.6055H29.6066H29.6077H29.6088H29.61H29.6111H29.6122H29.6133H29.6144H29.6155H29.6166H29.6177H29.6188H29.6199H29.621H29.6222H29.6233H29.6244H29.6255H29.6266H29.6277H29.6288H29.6299H29.631H29.6321H29.6333H29.6344H29.6355H29.6366H29.6377H29.6388H29.6399H29.641H29.6421H29.6432H29.6443H29.6455H29.6466H29.6477H29.6488H29.6499H29.651H29.6521H29.6532H29.6543H29.6554H29.6566H29.6577H29.6588H29.6599H29.661H29.6621H29.6632H29.6643H29.6654H29.6665H29.6677H29.6688H29.6699H29.671H29.6721H29.6732H29.6743H29.6754H29.6765H29.6776H29.6787H29.6799H29.681H29.6821H29.6832H29.6843H29.6854H29.6865H29.6876H29.6887H29.6898H29.691H29.6921H29.6932H29.6943H29.6954H29.6965H29.6976H29.6987H29.6998H29.7009H29.7839L29.7956 38.0594C29.8398 37.749 29.993 37.5354 30.26 37.4084C30.455 37.5324 30.6476 37.5814 30.8301 37.5275C31.009 37.4746 31.1537 37.3299 31.2712 37.1192C31.9026 37.1573 32.5208 37.1247 33.1257 37.0208L33.1262 37.0207C33.9578 36.874 34.6116 36.4558 35.0821 35.768L35.1363 35.6888L35.0569 35.635C34.9939 35.5922 34.9518 35.5422 34.9276 35.484C36.6402 34.6169 38.1106 33.4389 39.3378 31.9506L39.3384 31.9511L39.3451 31.9404C40.3936 30.26 40.8089 28.4356 40.5901 26.471C40.5666 26.1579 40.6249 25.8685 40.7645 25.6001C41.4834 24.7221 42.5506 24.7202 43.2689 25.2438C43.6264 25.6879 43.7168 26.0725 43.8102 26.5003C43.9608 27.1904 44.2506 27.8246 44.6789 28.4023L44.6854 28.411L44.6936 28.418C44.8019 28.5107 44.9185 28.5993 45.033 28.6863C45.049 28.6984 45.0649 28.7105 45.0808 28.7226C45.2114 28.8222 45.3381 28.9206 45.4523 29.0255C45.6803 29.2352 45.8492 29.463 45.892 29.7582C45.9784 30.3541 45.5966 30.7533 45.1723 31.0668C45.0752 31.1385 45.0083 31.1946 44.9562 31.2383C44.9029 31.283 44.8701 31.3102 44.836 31.3311C44.7727 31.3699 44.6975 31.3918 44.4597 31.4219C44.2346 31.4504 44.0399 31.3953 43.8693 31.2561L43.7342 31.146L43.714 31.319C43.6192 32.1269 43.5873 32.9371 43.6183 33.7496C43.2434 36.1269 41.5718 37.5926 39.6858 38.805C38.414 39.6225 37.0938 40.3658 35.7251 41.0349C31.6101 42.3342 27.8661 44.2824 24.4933 46.8795C21.1199 44.2819 17.3751 42.3335 13.2593 41.0343C10.9415 40.0316 8.90269 38.6411 7.14218 36.8622C6.34205 35.9046 5.64585 35.0166 5.36685 33.7397C5.32075 33.3279 5.32061 32.9299 5.32058 32.5302V32.527C5.32056 32.1283 5.32054 31.7274 5.27266 31.319L5.25238 31.146L5.11734 31.2561C4.94661 31.3953 4.75201 31.4504 4.52696 31.4219L4.52705 31.4211H4.51495C4.38472 31.4211 4.28132 31.4 4.17844 31.3494C4.07456 31.2982 3.96596 31.2143 3.82916 31.0801C3.81828 31.066 3.8074 31.0519 3.79654 31.0378C3.48655 30.6364 3.18936 30.2515 3.09804 29.7502C3.18834 29.4554 3.36009 29.2286 3.57161 29.0238C3.70975 28.8901 3.85799 28.7714 4.01087 28.649C4.10361 28.5748 4.19806 28.4992 4.293 28.4181C4.86668 27.9276 5.01886 27.2263 5.15937 26.5788C5.16469 26.5543 5.16999 26.5299 5.17529 26.5055C5.35951 25.9617 5.45211 25.7775 5.72808 25.2337C6.17703 24.8413 6.60895 24.746 7.01761 24.8345C7.43379 24.9245 7.84048 25.2083 8.22399 25.6037C8.36226 25.8712 8.41991 26.1595 8.39648 26.4713C8.10123 29.2751 8.99636 31.6363 11.0782 33.5459L11.0777 33.5465L11.0875 33.5534Z" fill="white" stroke="#1E1D1D" stroke-width="0.191155"/>
<path d="M29.1458 37.9958L29.1455 37.9956L29.1421 38.0023C29.1174 38.0512 29.0717 38.1036 29.0139 38.1686L29.0094 38.1736C28.9598 38.2294 28.9007 38.2959 28.8631 38.3657C28.5736 38.7203 28.2133 39.0161 27.8548 39.3104C27.7545 39.3927 27.6544 39.4749 27.556 39.5582L27.5559 39.5581L27.5513 39.5625C26.9555 40.1384 26.2248 40.3516 25.3441 40.3751H25.3416H25.338H25.3343H25.3306H25.3269H25.3232H25.3195H25.3158H25.3121H25.3084H25.3047H25.301H25.2973H25.2936H25.2899H25.2862H25.2825H25.2788H25.2751H25.2714H25.2677H25.264H25.2603H25.2566H25.2529H25.2492H25.2455H25.2418H25.2381H25.2344H25.2307H25.227H25.2233H25.2196H25.2159H25.2122H25.2085H25.2048H25.2011H25.1974H25.1937H25.19H25.1863H25.1826H25.1789H25.1752H25.1715H25.1678H25.1641H25.1604H25.1567H25.153H25.1493H25.1456H25.1419H25.1382H25.1345H25.1308H25.1271H25.1234H25.1197H25.116H25.1124H25.1087H25.105H25.1013H25.0976H25.0939H25.0902H25.0865H25.0828H25.0791H25.0754H25.0717H25.068H25.0643H25.0606H25.0569H25.0532H25.0495H25.0458H25.0421H25.0384H25.0347H25.031H25.0273H25.0236H25.0199H25.0162H25.0125H25.0088H25.0051H25.0014H24.9977H24.994H24.9903H24.9866H24.9829H24.9792H24.9755H24.9718H24.9681H24.9644H24.9607H24.957H24.9533H24.9496H24.9459H24.9422H24.9385H24.9348H24.9311H24.9274H24.9237H24.92H24.9163H24.9126H24.9089H24.9052H24.9015H24.8978H24.8941H24.8904H24.8867H24.883H24.8793H24.8756H24.8719H24.8682H24.8645H24.8608H24.8571H24.8535H24.8498H24.8461H24.8424H24.8387H24.835H24.8313H24.8276H24.8239H24.8202H24.8165H24.8128H24.8091H24.8054H24.8017H24.798H24.7943H24.7906H24.7869H24.7832H24.7795H24.7758H24.7721H24.7684H24.7647H24.761H24.7573H24.7536H24.7499H24.7462H24.7425H24.7388H24.7351H24.7314H24.7277H24.724H24.7203H24.7166H24.7129H24.7092H24.7055H24.7018H24.6981H24.6944H24.6907H24.687H24.6833H24.6796H24.6759H24.6722H24.6685H24.6648H24.6611H24.6574H24.6537H24.65H24.6463H24.6426H24.6389H24.6352H24.6315H24.6278H24.6241H24.6204H24.6167H24.613H24.6093H24.6056H24.6019H24.5982H24.5945H24.5908H24.5871H24.5834H24.5797H24.576H24.5723H24.5686H24.565H24.5613H24.5576H24.5539H24.5502H24.5465H24.5428H24.5391H24.5354H24.5317H24.528H24.5243H24.5206H24.5169H24.5132H24.5095H24.5058H24.5021H24.4984H24.4947H24.491H24.4873H24.4836H24.4799H24.4762H24.4725H24.4688H24.4651H24.4614H24.4577H24.454H24.4503H24.4466H24.4429H24.4392H24.4355H24.4318H24.4281H24.4244H24.4207H24.417H24.4133H24.4096H24.4059H24.4022H24.3985H24.3948H24.3911H24.3874H24.3837H24.38H24.3763H24.3726H24.3689H24.3652H24.3615H24.3578H24.3541H24.3504H24.3467H24.343H24.3393H24.3356H24.3319H24.3282H24.3245H24.3208H24.3171H24.3134H24.3097H24.306H24.3023H24.2986H24.2949H24.2912H24.2875H24.2838H24.2801H24.2764H24.2727H24.269H24.2653H24.2617H24.258H24.2543H24.2506H24.2469H24.2432H24.2395H24.2358H24.2321H24.2284H24.2247H24.221H24.2173H24.2136H24.2099H24.2062H24.2025H24.1988H24.1951H24.1914H24.1877H24.184H24.1803H24.1766H24.1729H24.1692H24.1655H24.1618H24.1581H24.1544H24.1507H24.147H24.1433H24.1396H24.1359H24.1322H24.1285H24.1248H24.1211H24.1174H24.1137H24.11H24.1063H24.1026H24.0989H24.0952H24.0915H24.0878H24.0841H24.0804H24.0767H24.073H24.0693H24.0656H24.0619H24.0582H24.0545H24.0508H24.0471H24.0434H24.0397H24.036H24.0323H24.0286H24.0249H24.0212H24.0175H24.0138H24.0101H24.0064H24.0027H23.999H23.9953H23.9916H23.9879H23.9842H23.9805H23.9768H23.9731H23.9695H23.9658H23.9621H23.9584H23.9547H23.951H23.9473H23.9436H23.9399H23.9362H23.9325H23.9288H23.9251H23.9214H23.9177H23.914H23.9103H23.9066H23.9029H23.8992H23.8955H23.8918H23.8881H23.8844H23.8807H23.877H23.8733H23.8696H23.8659H23.8622H23.8585H23.8548H23.8511H23.8474H23.8437H23.84H23.8363H23.8326H23.8289H23.8252H23.8215H23.8178H23.8141H23.8104H23.8067H23.803H23.7993H23.7956H23.7919H23.7882H23.7845H23.7808H23.7771H23.7734H23.7697H23.766H23.7623H23.7586H23.7549H23.7512H23.7475H23.7438H23.7401H23.7364H23.7327H23.729H23.7253H23.7216H23.7179H23.7142H23.7105H23.7069H23.7032H23.6995H23.6958H23.6921H23.6884H23.6847H23.681H23.6773H23.6736H23.6699H23.6662H23.6625H23.6588H23.6551H23.6514H23.6477H23.644H23.6403H23.6366H23.6329H23.6292H23.6255H23.6218H23.6181H23.6144H23.6107H23.607H23.6033H23.5996H23.5959H23.5922H23.5885H23.5848H23.5811H23.5774H23.5737H23.57H23.5663H23.5626H23.5589H23.5552H23.5515H23.5478H23.5441H23.5404H23.5367H23.533H23.5293H23.5256H23.5219H23.5182H23.5145H23.5108H23.5071H23.5034H23.4997H23.496H23.4923H23.4886H23.4849H23.4812H23.4776H23.4739H23.4702H23.4665H23.4628H23.4591H23.4578C22.6273 40.2674 21.8903 39.9648 21.2447 39.4677C20.7994 38.9678 20.3596 38.4726 19.9252 37.9821C19.8861 37.938 19.8686 37.9153 19.8488 37.8761C19.8266 37.832 19.8019 37.7679 19.7538 37.639C19.5644 37.1312 19.377 36.6388 19.1918 36.1621V36.148V36.1319V36.1159V36.0999V36.0838V36.0678V36.0518V36.0357V36.0197V36.0037V35.9877V35.9716V35.9556V35.9396V35.9235V35.9075V35.8915V35.8754V35.8594V35.8434V35.8273V35.8113V35.7953V35.7792V35.7632V35.7472V35.7311V35.7151V35.6991V35.683V35.667V35.651V35.635V35.6189V35.6029V35.5869V35.5708V35.5548V35.5388V35.5227V35.5067V35.4907V35.4746V35.4586V35.4426V35.4265V35.4105V35.3945V35.3784V35.3624V35.3464V35.3304V35.3143V35.2983V35.2823V35.2662V35.2502V35.2342V35.2181V35.2021V35.1861V35.17V35.154V35.138V35.1219V35.1059V35.0899V35.0738V35.0578V35.0418V35.0258V35.0097V34.9937V34.9777V34.9616V34.9456V34.9296V34.9135V34.8975V34.8815V34.8654V34.8494V34.8334V34.8173V34.8013V34.7853V34.7692V34.7532V34.7372V34.7212V34.7051V34.6891V34.6731V34.657V34.641V34.625V34.6089V34.5929V34.5769V34.5608V34.5448V34.5288V34.5127V34.4967V34.4807V34.4646V34.4486V34.4326V34.4166V34.4005V34.3845V34.3685V34.3524V34.3364V34.3204V34.3043V34.2883V34.2723V34.2562V34.2402V34.2242V34.2081V34.1921V34.1761V34.1601V34.144V34.128V34.112V34.0959V34.0799V34.0639V34.0478V34.0318V34.0158V33.9997V33.9837V33.9677V33.9516V33.9356V33.9196V33.9035V33.8875V33.8715V33.8555V33.8394V33.8234V33.8074V33.7913V33.7753V33.7593V33.7432V33.7272V33.7112V33.6951V33.6791V33.6631V33.647V33.631V33.615V33.599V33.5829V33.5669V33.5509V33.5348V33.5188V33.5028V33.4867V33.4707V33.4547V33.4386V33.4226V33.4066V33.3905V33.3745V33.3585V33.3425V33.3264V33.3104V33.2944V33.2783V33.2623V33.2463V33.2302V33.2142V33.1982V33.1821V33.1661V33.1501V33.134V33.118V33.102V33.086V33.0699V33.0539V33.0379V33.0218V33.0058V32.9898V32.9737V32.9577V32.9417V32.9256V32.9096V32.8936V32.8775V32.8615V32.8455V32.8294V32.8134V32.7974V32.7814V32.7653V32.7493V32.7333V32.7172V32.7012V32.6852V32.6691V32.6531V32.6371V32.621V32.605V32.589V32.5729V32.5569V32.5409V32.5249V32.5088V32.4928V32.4768V32.4607V32.4447V32.4287V32.4126V32.3966V32.3806V32.3645V32.3485V32.3325V32.3164V32.3004V32.2844V32.2684V32.2523V32.2363V32.2203V32.2042V32.1882V32.1722V32.1561V32.1401V32.1241V32.108V32.092V32.076V32.0599V32.0439V32.0279V32.0119V31.9958V31.9798V31.9638V31.9477V31.9317V31.9157V31.8996V31.8836V31.8676V31.8515V31.8355V31.8195V31.8034V31.7874V31.7714V31.7554V31.7393V31.7233V31.7073V31.6912V31.6752V31.6592V31.6431V31.6271V31.6111V31.595V31.579V31.563V31.5469V31.5309V31.5149V31.4989V31.4828V31.4668V31.4508V31.4347V31.4187V31.4027V31.3866V31.3706V31.3546V31.3385V31.3225V31.3065V31.2904V31.2744V31.2584V31.2424V31.2263V31.2103V31.1943V31.1782V31.1622V31.1462V31.1301V31.1141V31.0981V31.082V31.066V31.05V31.0339V31.0179V31.0019V30.9859V30.9698V30.9538V30.9378V30.9217V30.9057V30.8897V30.8736V30.8576V30.8416V30.8255V30.8095V30.7935V30.7774V30.7614V30.7454V30.7293V30.7133V30.6973V30.6813V30.6652V30.6492V30.6332V30.6171V30.6011V30.5851V30.569V30.553V30.537V30.5209V30.5049V30.4889V30.4728V30.4568V30.4408V30.4248V30.4087V30.3927V30.3767V30.3606V30.3446V30.3286V30.3125V30.2965V30.2805V30.2644V30.2484V30.2324V30.2163V30.2003V30.1843V30.1683V30.1522V30.1362V30.1202V30.1041V30.0881V30.0721V30.056V30.04V30.024V30.0079V29.9919V29.9759V29.9598V29.9438V29.9278V29.9117V29.8957V29.8797V29.8637V29.8476V29.8316V29.8156V29.7995V29.7835V29.7675V29.7514V29.7354V29.7194V29.7033V29.6873V29.6713V29.6552V29.6392V29.6232V29.6072V29.5911V29.5751V29.5591V29.543V29.527V29.511V29.4949V29.4789V29.4629V29.4468V29.4308V29.4148V29.3987V29.3827V29.3667V29.3506V29.3346V29.3186V29.3026V29.2865V29.2705V29.2545V29.2384V29.2224V29.2064V29.1903V29.1743V29.1583V29.1422V29.1262V29.1102V29.0941V29.0781V29.0621V29.046V29.03V29.014V28.998V28.9819V28.9659V28.9499V28.9338V28.9178V28.9018V28.8857V28.8697V28.8537V28.8376V28.8216V28.8056V28.7895V28.7735V28.7575V28.7414V28.7254V28.7094V28.6934V28.6773V28.6613V28.6453V28.6292V28.6132V28.5972V28.5811V28.5651V28.5491V28.533V28.517V28.501V28.4849V28.4689V28.4529V28.4368V28.4208V28.4048V28.3887V28.3727V28.3567V28.3407V28.3246V28.3086V28.2926V28.2765V28.2605V28.2445V28.2284V28.2124V28.1964V28.1803V28.1643V28.1483V28.1322V28.1162V28.1002V28.0841V28.0681V28.0675H19.2016H19.2227H19.2438H19.2648H19.2859H19.307H19.3281H19.3492H19.3703H19.3913H19.4124H19.4335H19.4546H19.4757H19.4967H19.5178H19.5389H19.56H19.5811H19.6022H19.6232H19.6443H19.6654H19.6865H19.7076H19.7287H19.7497H19.7708H19.7919H19.813H19.8341H19.8551H19.8762H19.8973H19.9184H19.9395H19.9606H19.9816H20.0027H20.0238H20.0449H20.066H20.087H20.1081H20.1292H20.1503H20.1714H20.1925H20.2135H20.2346H20.2557H20.2768H20.2979H20.3189H20.34H20.3611H20.3822H20.4033H20.4244H20.4454H20.4665H20.4876H20.5087H20.5298H20.5509H20.5719H20.593H20.6141H20.6352H20.6563H20.6773H20.6984H20.7195H20.7406H20.7617H20.7828H20.8038H20.8249H20.846H20.8671H20.8882H20.9092H20.9303H20.9514H20.9725H20.9936H21.0147H21.0357H21.0568H21.0779H21.099H21.1201H21.1411H21.1622H21.1833H21.2044H21.2255H21.2466H21.2676H21.2887H21.3098H21.3309H21.352H21.373H21.3941H21.4152H21.4363H21.4574H21.4785H21.4995H21.5206H21.5417H21.5628H21.5839H21.605H21.626H21.6471H21.6682H21.6893H21.7104H21.7314H21.7525H21.7736H21.7947H21.8158H21.8369H21.8579H21.879H21.9001H21.9212H21.9423H21.9633H21.9844H22.0055H22.0266H22.0477H22.0688H22.0898H22.1109H22.132H22.1531H22.1742H22.1952H22.2163H22.2374H22.2585H22.2796H22.3007H22.3217H22.3428H22.3639H22.385H22.4061H22.4272H22.4482H22.4693H22.4904H22.5115H22.5326H22.5536H22.5747H22.5958H22.6169H22.638H22.6591H22.6801H22.7012H22.7223H22.7434H22.7645H22.7855H22.8066H22.8277H22.8488H22.8699H22.891H22.912H22.9331H22.9542H22.9753H22.9964H23.0174H23.0385H23.0596H23.0807H23.1018H23.1229H23.1439H23.165H23.1861H23.2072H23.2283H23.2494H23.2704H23.2915H23.3126H23.3337H23.3548H23.3758H23.3969H23.418H23.4391H23.4602H23.4813H23.5023H23.5234H23.5445H23.5656H23.5867H23.6077H23.6288H23.6499H23.671H23.6921H23.7132H23.7342H23.7553H23.7764H23.7975H23.8186H23.8396H23.8607H23.8818H23.9029H23.924H23.9451H23.9661H23.9872H24.0083H24.0294H24.0505H24.0715H24.0926H24.1137H24.1348H24.1559H24.177H24.198H24.2191H24.2402H24.2613H24.2824H24.3035H24.3245H24.3456H24.3667H24.3878H24.4089H24.4299H24.451H24.4721H24.4932H24.5143H24.5354H24.5564H24.5775H24.5986H24.6197H24.6408H24.6618H24.6829H24.704H24.7251H24.7462H24.7673H24.7883H24.8094H24.8305H24.8516H24.8727H24.8937H24.9148H24.9359H24.957H24.9781H24.9992H25.0202H25.0413H25.0624H25.0835H25.1046H25.1256H25.1467H25.1678H25.1889H25.21H25.2311H25.2521H25.2732H25.2943H25.3154H25.3365H25.3576H25.3786H25.3997H25.4208H25.4419H25.463H25.484H25.5051H25.5262H25.5473H25.5684H25.5895H25.6105H25.6316H25.6527H25.6738H25.6949H25.7159H25.737H25.7581H25.7792H25.8003H25.8214H25.8424H25.8635H25.8846H25.9057H25.9268H25.9478H25.9689H25.99H26.0111H26.0322H26.0533H26.0743H26.0954H26.1165H26.1376H26.1587H26.1798H26.2008H26.2219H26.243H26.2641H26.2852H26.3062H26.3273H26.3484H26.3695H26.3906H26.4117H26.4327H26.4538H26.4749H26.496H26.5171H26.5381H26.5592H26.5803H26.6014H26.6225H26.6436H26.6646H26.6857H26.7068H26.7279H26.749H26.77H26.7911H26.8122H26.8333H26.8544H26.8755H26.8965H26.9176H26.9387H26.9598H26.9809H27.0019H27.023H27.0441H27.0652H27.0863H27.1074H27.1284H27.1495H27.1706H27.1917H27.2128H27.2339H27.2549H27.276H27.2971H27.3182H27.3393H27.3603H27.3814H27.4025H27.4236H27.4447H27.4658H27.4868H27.5079H27.529H27.5501H27.5712H27.5922H27.6133H27.6344H27.6555H27.6766H27.6977H27.7187H27.7398H27.7609H27.782H27.8031H27.8241H27.8452H27.8663H27.8874H27.9085H27.9296H27.9506H27.9717H27.9928H28.0139H28.035H28.0561H28.0771H28.0982H28.1193H28.1404H28.1615H28.1825H28.2036H28.2247H28.2458H28.2669H28.288H28.309H28.3301H28.3512H28.3723H28.3934H28.4144H28.4355H28.4566H28.4777H28.4988H28.5199H28.5409H28.562H28.5831H28.6042H28.6253H28.6463H28.6674H28.6885H28.7096H28.7307H28.7518H28.7728H28.7939H28.815H28.8361H28.8572H28.8783H28.8993H28.9204H28.9415H28.9626H28.9837H29.0047H29.0258H29.0469H29.068H29.0891H29.1102H29.1312H29.1523H29.1734H29.1945H29.2156H29.2366H29.2577H29.2788H29.2999H29.321H29.3421H29.3631H29.3842H29.4053H29.4264H29.4475H29.4685H29.4896H29.5107H29.5318H29.5529H29.574H29.595H29.6161H29.6372H29.6583H29.6794H29.7004H29.7215H29.7426H29.7637H29.7848H29.7946V28.0739V28.0885V28.1031V28.1177V28.1322V28.1468V28.1614V28.176V28.1905V28.2051V28.2197V28.2343V28.2488V28.2634V28.278V28.2925V28.3071V28.3217V28.3363V28.3508V28.3654V28.38V28.3946V28.4091V28.4237V28.4383V28.4529V28.4674V28.482V28.4966V28.5112V28.5257V28.5403V28.5549V28.5694V28.584V28.5986V28.6132V28.6277V28.6423V28.6569V28.6715V28.686V28.7006V28.7152V28.7298V28.7443V28.7589V28.7735V28.7881V28.8026V28.8172V28.8318V28.8464V28.8609V28.8755V28.8901V28.9046V28.9192V28.9338V28.9484V28.9629V28.9775V28.9921V29.0067V29.0212V29.0358V29.0504V29.065V29.0795V29.0941V29.1087V29.1233V29.1378V29.1524V29.167V29.1816V29.1961V29.2107V29.2253V29.2398V29.2544V29.269V29.2836V29.2981V29.3127V29.3273V29.3419V29.3564V29.371V29.3856V29.4002V29.4147V29.4293V29.4439V29.4585V29.473V29.4876V29.5022V29.5168V29.5313V29.5459V29.5605V29.5751V29.5896V29.6042V29.6188V29.6333V29.6479V29.6625V29.6771V29.6916V29.7062V29.7208V29.7354V29.7499V29.7645V29.7791V29.7937V29.8082V29.8228V29.8374V29.852V29.8665V29.8811V29.8957V29.9103V29.9248V29.9394V29.954V29.9686V29.9831V29.9977V30.0123V30.0268V30.0414V30.056V30.0706V30.0851V30.0997V30.1143V30.1289V30.1434V30.158V30.1726V30.1872V30.2017V30.2163V30.2309V30.2455V30.26V30.2746V30.2892V30.3038V30.3183V30.3329V30.3475V30.3621V30.3766V30.3912V30.4058V30.4204V30.4349V30.4495V30.4641V30.4786V30.4932V30.5078V30.5224V30.5369V30.5515V30.5661V30.5807V30.5952V30.6098V30.6244V30.639V30.6535V30.6681V30.6827V30.6973V30.7118V30.7264V30.741V30.7556V30.7701V30.7847V30.7993V30.8139V30.8284V30.843V30.8576V30.8722V30.8867V30.9013V30.9159V30.9304V30.945V30.9596V30.9742V30.9887V31.0033V31.0179V31.0325V31.047V31.0616V31.0762V31.0908V31.1053V31.1199V31.1345V31.1491V31.1636V31.1782V31.1928V31.2074V31.2219V31.2365V31.2511V31.2657V31.2802V31.2948V31.3094V31.324V31.3385V31.3531V31.3677V31.3822V31.3968V31.4114V31.426V31.4405V31.4551V31.4697V31.4843V31.4988V31.5134V31.528V31.5426V31.5571V31.5717V31.5863V31.6009V31.6154V31.63V31.6446V31.6592V31.6737V31.6883V31.7029V31.7175V31.732V31.7466V31.7612V31.7758V31.7903V31.8049V31.8195V31.8341V31.8486V31.8632V31.8778V31.8923V31.9069V31.9215V31.9361V31.9506V31.9652V31.9798V31.9944V32.0089V32.0235V32.0381V32.0527V32.0672V32.0818V32.0964V32.111V32.1255V32.1401V32.1547V32.1693V32.1838V32.1984V32.213V32.2276V32.2421V32.2567V32.2713V32.2859V32.3004V32.315V32.3296V32.3441V32.3587V32.3733V32.3879V32.4024V32.417V32.4316V32.4462V32.4607V32.4753V32.4899V32.5045V32.519V32.5336V32.5482V32.5628V32.5773V32.5919V32.6065V32.6211V32.6356V32.6502V32.6648V32.6794V32.6939V32.7085V32.7231V32.7377V32.7522V32.7668V32.7814V32.7959V32.8105V32.8251V32.8397V32.8542V32.8688V32.8834V32.898V32.9125V32.9271V32.9417V32.9563V32.9708V32.9854V33V33.0146V33.0291V33.0437V33.0583V33.0729V33.0874V33.102V33.1166V33.1312V33.1457V33.1603V33.1749V33.1895V33.204V33.2186V33.2332V33.2477V33.2623V33.2769V33.2915V33.306V33.3206V33.3352V33.3498V33.3643V33.3789V33.3935V33.4081V33.4226V33.4372V33.4518V33.4664V33.4809V33.4955V33.5101V33.5247V33.5392V33.5538V33.5684V33.583V33.5975V33.6121V33.6267V33.6413V33.6558V33.6704V33.685V33.6995V33.7141V33.7287V33.7433V33.7578V33.7724V33.787V33.8016V33.8161V33.8307V33.8453V33.8599V33.8744V33.889V33.9036V33.9182V33.9327V33.9473V33.9619V33.9765V33.991V34.0056V34.0202V34.0347V34.0493V34.0639V34.0785V34.093V34.1076V34.1222V34.1368V34.1513V34.1659V34.1805V34.1951V34.2096V34.2242V34.2388V34.2534V34.2679V34.2825V34.2971V34.3117V34.3262V34.3408V34.3554V34.37V34.3845V34.3991V34.4137V34.4282V34.4428V34.4574V34.472V34.4865V34.5011V34.5157V34.5303V34.5448V34.5594V34.574V34.5886V34.6031V34.6177V34.6323V34.6469V34.6614V34.676V34.6906V34.7052V34.7197V34.7343V34.7489V34.7634V34.778V34.7926V34.8072V34.8217V34.8363V34.8509V34.8655V34.88V34.8946V34.9092V34.9238V34.9383V34.9529V34.9675V34.9821V34.9966V35.0112V35.0258V35.0404V35.0549V35.0695V35.0841V35.0986V35.1132V35.1278V35.1424V35.1569V35.1715V35.1861V35.2007V35.2152V35.2298V35.2444V35.259V35.2735V35.2881V35.3027V35.3173V35.3318V35.3464V35.361V35.3755V35.3901V35.4047V35.4193V35.4338C29.7946 35.8965 29.7758 36.1696 29.7018 36.5341C29.6088 36.9923 29.4228 37.541 29.1458 37.9958Z" fill="white" stroke="#1E1D1D" stroke-width="0.191155"/>
<path d="M19.7596 28.823V28.8136H19.775H19.7935H19.812H19.8305H19.849H19.8675H19.886H19.9045H19.923H19.9415H19.96H19.9784H19.9969H20.0154H20.0339H20.0524H20.0709H20.0894H20.1079H20.1264H20.1449H20.1634H20.1819H20.2004H20.2189H20.2374H20.2558H20.2743H20.2928H20.3113H20.3298H20.3483H20.3668H20.3853H20.4038H20.4223H20.4408H20.4593H20.4778H20.4963H20.5148H20.5332H20.5517H20.5702H20.5887H20.6072H20.6257H20.6442H20.6627H20.6812H20.6997H20.7182H20.7367H20.7552H20.7737H20.7922H20.8106H20.8291H20.8476H20.8661H20.8846H20.9031H20.9216H20.9401H20.9586H20.9771H20.9956H21.0141H21.0326H21.0511H21.0695H21.088H21.1065H21.125H21.1435H21.162H21.1805H21.199H21.2175H21.236H21.2545H21.273H21.2915H21.31H21.3285H21.3469H21.3654H21.3839H21.4024H21.4209H21.4394H21.4579H21.4764H21.4949H21.5134H21.5319H21.5504H21.5689H21.5874H21.6058H21.6243H21.6428H21.6613H21.6798H21.6983H21.7168H21.7353H21.7538H21.7723H21.7908H21.8093H21.8278H21.8463H21.8647H21.8832H21.9017H21.9202H21.9387H21.9572H21.9757H21.9942H22.0127H22.0312H22.0497H22.0682H22.0867H22.1052H22.1237H22.1421H22.1606H22.1791H22.1976H22.2161H22.2346H22.2531H22.2716H22.2901H22.3086H22.3271H22.3456H22.3641H22.3826H22.401H22.4195H22.438H22.4565H22.475H22.4935H22.512H22.5305H22.549H22.5675H22.586H22.6045H22.623H22.6415H22.6599H22.6784H22.6969H22.7154H22.7339H22.7524H22.7709H22.7894H22.8079H22.8264H22.8449H22.8634H22.8819H22.9004H22.9188H22.9373H22.9558H22.9743H22.9928H23.0113H23.0298H23.0483H23.0668H23.0853H23.1038H23.1223H23.1408H23.1593H23.1777H23.1962H23.2147H23.2332H23.2517H23.2702H23.2887H23.3072H23.3257H23.3442H23.3627H23.3812H23.3997H23.4182H23.4366H23.4551H23.4736H23.4921H23.5106H23.5291H23.5476H23.5661H23.5846H23.6031H23.6216H23.6401H23.6586H23.6771H23.6955H23.714H23.7325H23.751H23.7695H23.788H23.8065H23.825H23.8435H23.862H23.8805H23.899H23.9175H23.936H23.9544H23.9729H23.9914H24.0099H24.0284H24.0469H24.0654H24.0839H24.1024H24.1209H24.1394H24.1579H24.1764H24.1949H24.2133H24.2318H24.2503H24.2688H24.2873H24.3058H24.3243H24.3428H24.3613H24.3798H24.3983H24.4168H24.4353H24.4538H24.4722H24.4907H24.5092H24.5277H24.5462H24.5647H24.5832H24.6017H24.6202H24.6387H24.6572H24.6757H24.6942H24.7127H24.7311H24.7496H24.7681H24.7866H24.8051H24.8236H24.8421H24.8606H24.8791H24.8976H24.9161H24.9346H24.9531H24.9716H24.99H25.0085H25.027H25.0455H25.064H25.0825H25.101H25.1195H25.138H25.1565H25.175H25.1935H25.212H25.2305H25.2489H25.2674H25.2859H25.3044H25.3229H25.3414H25.3599H25.3784H25.3969H25.4154H25.4339H25.4524H25.4709H25.4893H25.5078H25.5263H25.5448H25.5633H25.5818H25.6003H25.6188H25.6373H25.6558H25.6743H25.6928H25.7113H25.7298H25.7483H25.7667H25.7852H25.8037H25.8222H25.8407H25.8592H25.8777H25.8962H25.9147H25.9332H25.9517H25.9702H25.9887H26.0072H26.0256H26.0441H26.0626H26.0811H26.0996H26.1181H26.1366H26.1551H26.1736H26.1921H26.2106H26.2291H26.2476H26.2661H26.2845H26.303H26.3215H26.34H26.3585H26.377H26.3955H26.414H26.4325H26.451H26.4695H26.488H26.5065H26.525H26.5434H26.5619H26.5804H26.5989H26.6174H26.6359H26.6544H26.6729H26.6914H26.7099H26.7284H26.7469H26.7654H26.7839H26.8023H26.8208H26.8393H26.8578H26.8763H26.8948H26.9133H26.9318H26.9503H26.9688H26.9873H27.0058H27.0243H27.0428H27.0612H27.0797H27.0982H27.1167H27.1352H27.1537H27.1722H27.1907H27.2092H27.2277H27.2462H27.2647H27.2832H27.3017H27.3201H27.3386H27.3571H27.3756H27.3941H27.4126H27.4311H27.4496H27.4681H27.4866H27.5051H27.5236H27.5421H27.5606H27.5791H27.5975H27.616H27.6345H27.653H27.6715H27.69H27.7085H27.727H27.7455H27.764H27.7825H27.801H27.8195H27.838H27.8564H27.8749H27.8934H27.9119H27.9304H27.9489H27.9674H27.9859H28.0044H28.0229H28.0414H28.0599H28.0784H28.0969H28.1154H28.1338H28.1523H28.1708H28.1893H28.2078H28.2263H28.2448H28.2633H28.2818H28.3003H28.3188H28.3373H28.3558H28.3743H28.3928H28.4112H28.4297H28.4482H28.4667H28.4852H28.5037H28.5222H28.5407H28.5592H28.5777H28.5962H28.6147H28.6332H28.6517H28.6701H28.6886H28.7071H28.7256H28.7441H28.7626H28.7811H28.7996H28.8181H28.8366H28.8551H28.8736H28.8921H28.9106H28.9291H28.9475H28.966H28.9845H29.003H29.0215H29.0369V28.8226V28.8375V28.8525V28.8674V28.8823V28.8973V28.9122V28.9272V28.9421V28.957V28.972V28.9869V29.0019V29.0168V29.0317V29.0467V29.0616V29.0765V29.0915V29.1064V29.1214V29.1363V29.1512V29.1662V29.1811V29.1961V29.211V29.2259V29.2409V29.2558V29.2707V29.2857V29.3006V29.3156V29.3305V29.3454V29.3604V29.3753V29.3903V29.4052V29.4201V29.4351V29.45V29.465V29.4799V29.4948V29.5098V29.5247V29.5396V29.5546V29.5695V29.5845V29.5994V29.6143V29.6293V29.6442V29.6592V29.6741V29.689V29.704V29.7189V29.7338V29.7488V29.7637V29.7787V29.7936V29.8085V29.8235V29.8384V29.8534V29.8683V29.8832V29.8982V29.9131V29.928V29.943V29.9579V29.9729V29.9878V30.0027V30.0177V30.0326V30.0476V30.0625V30.0774V30.0924V30.1073V30.1222V30.1372V30.1521V30.1671V30.182V30.1969V30.2119V30.2268V30.2418V30.2567V30.2716V30.2866V30.3015V30.3164V30.3314V30.3463V30.3613V30.3762V30.3911V30.4061V30.421V30.436V30.4509V30.4658V30.4808V30.4957V30.5106V30.5256V30.5405V30.5555V30.5704V30.5853V30.6003V30.6152V30.6302V30.6451V30.66V30.675V30.6899V30.7048V30.7198V30.7347V30.7497V30.7646V30.7795V30.7945V30.8094V30.8243V30.8393V30.8542V30.8692V30.8841V30.899V30.914V30.9289V30.9439V30.9588V30.9737V30.9887V31.0036V31.0185V31.0335V31.0484V31.0634V31.0783V31.0932V31.1082V31.1231V31.1381V31.153V31.1679V31.1829V31.1978V31.2127V31.2277V31.2426V31.2576V31.2725V31.2874V31.3024V31.3173V31.3323V31.3472V31.3621V31.3771V31.392V31.4069V31.4219V31.4368V31.4518V31.4667V31.4816V31.4966V31.5115V31.5264V31.5414V31.5563V31.5713V31.5862V31.6011V31.6161V31.631V31.646V31.6609V31.6758V31.6908V31.7057V31.7206V31.7356V31.7505V31.7655V31.7804V31.7953V31.8103V31.8252V31.8402V31.8551V31.87V31.885V31.8999V31.9148V31.9298V31.9447V31.9597V31.9746V31.9895V32.0045V32.0194V32.0344V32.0493V32.0642V32.0792V32.0941V32.109V32.124V32.1389V32.1539V32.1688V32.1837V32.1987V32.2136V32.2285V32.2435V32.2584V32.2734V32.2883V32.3032V32.3182V32.3331V32.3481V32.363V32.3779V32.3929V32.4078V32.4227V32.4377V32.4526V32.4676V32.4825V32.4974V32.5124V32.5273V32.5423V32.5572V32.5721V32.5871V32.602V32.6169V32.6319V32.6468V32.6618V32.6767V32.6916V32.7066V32.7215V32.7364V32.7514V32.7663V32.7813V32.7962V32.8111V32.8261V32.841V32.856V32.8709V32.8858V32.9008V32.9157V32.9306V32.9456V32.9605V32.9755V32.9904V33.0053V33.0203V33.0352V33.0501V33.0651V33.08V33.095V33.1099V33.1248V33.1398V33.1547V33.1697V33.1846V33.1995V33.2145V33.2294V33.2443V33.2593V33.2742V33.2892V33.3041V33.319V33.334V33.3489V33.3639V33.3788V33.3937V33.4087V33.4236V33.4385V33.4535V33.4684V33.4834V33.4983V33.5132V33.5282V33.5431V33.5581V33.573V33.5879V33.6029V33.6178V33.6327V33.6477V33.6626V33.6776V33.6925V33.7074V33.7224V33.7373V33.7522V33.7672V33.7821V33.7971V33.812V33.8269V33.8419V33.8568V33.8718V33.8867V33.9016V33.9166V33.9315V33.9464V33.9614V33.9763V33.9913V34.0062V34.0211V34.0361V34.051V34.066V34.0809V34.0958V34.1108V34.1257V34.1406V34.1556V34.1705V34.1855V34.2004V34.2153V34.2303V34.2452V34.2602V34.2751V34.29V34.305V34.3199V34.3348V34.3498V34.3647V34.3797V34.3946V34.4095V34.4245V34.4394V34.4543V34.4693V34.4842V34.4992V34.5141V34.529V34.544V34.5589V34.5739V34.5888V34.6037V34.6187V34.6336V34.6485V34.6635V34.6784V34.6934V34.7083V34.7232V34.7382V34.7531V34.7681V34.783V34.7979V34.8129V34.8278V34.8427V34.8577V34.8726V34.8876V34.9025V34.9174V34.9324V34.9473V34.9623V34.9772V34.9921V35.0071V35.022V35.0369V35.0519V35.0668V35.0818V35.0967V35.1116V35.1266V35.1415V35.1565V35.1714V35.1863V35.2013V35.2162V35.2311V35.2461V35.261V35.276V35.2909V35.3058V35.3208V35.3357V35.3507V35.3656V35.3805V35.3955V35.4104V35.4253V35.4403V35.4552V35.4702V35.4851V35.5V35.515V35.5299V35.5449V35.5598V35.5747V35.5897V35.6046V35.6195V35.6345V35.6494V35.6644V35.6793V35.6942V35.7092V35.7241V35.7391V35.754V35.7689V35.7839V35.7988V35.8138V35.8287V35.8436V35.8586V35.8735V35.8884V35.9034V35.9183V35.9333V35.9482V35.9631V35.9781V35.993V36.008V36.0229V36.0378V36.0528V36.0677V36.0826V36.0976V36.1125V36.1275V36.1424V36.1573V36.1723V36.1872V36.2022V36.2171V36.232V36.247V36.2619V36.2769V36.2918V36.3067V36.3217V36.3366V36.3501C28.425 38.076 27.4446 39.0959 26.2146 39.5084C24.9797 39.9224 23.4725 39.7313 21.7965 38.9888C20.6028 38.0607 19.9255 36.8752 19.7596 35.4283V35.4206V35.4075V35.3944V35.3813V35.3682V35.355V35.3419V35.3288V35.3157V35.3026V35.2895V35.2763V35.2632V35.2501V35.237V35.2239V35.2108V35.1976V35.1845V35.1714V35.1583V35.1452V35.1321V35.1189V35.1058V35.0927V35.0796V35.0665V35.0534V35.0402V35.0271V35.014V35.0009V34.9878V34.9747V34.9615V34.9484V34.9353V34.9222V34.9091V34.896V34.8828V34.8697V34.8566V34.8435V34.8304V34.8173V34.8041V34.791V34.7779V34.7648V34.7517V34.7386V34.7254V34.7123V34.6992V34.6861V34.673V34.6599V34.6467V34.6336V34.6205V34.6074V34.5943V34.5812V34.568V34.5549V34.5418V34.5287V34.5156V34.5025V34.4893V34.4762V34.4631V34.45V34.4369V34.4238V34.4106V34.3975V34.3844V34.3713V34.3582V34.3451V34.3319V34.3188V34.3057V34.2926V34.2795V34.2664V34.2532V34.2401V34.227V34.2139V34.2008V34.1877V34.1745V34.1614V34.1483V34.1352V34.1221V34.109V34.0958V34.0827V34.0696V34.0565V34.0434V34.0303V34.0171V34.004V33.9909V33.9778V33.9647V33.9516V33.9384V33.9253V33.9122V33.8991V33.886V33.8729V33.8597V33.8466V33.8335V33.8204V33.8073V33.7942V33.781V33.7679V33.7548V33.7417V33.7286V33.7155V33.7023V33.6892V33.6761V33.663V33.6499V33.6368V33.6236V33.6105V33.5974V33.5843V33.5712V33.5581V33.5449V33.5318V33.5187V33.5056V33.4925V33.4794V33.4662V33.4531V33.44V33.4269V33.4138V33.4007V33.3875V33.3744V33.3613V33.3482V33.3351V33.322V33.3088V33.2957V33.2826V33.2695V33.2564V33.2433V33.2301V33.217V33.2039V33.1908V33.1777V33.1646V33.1514V33.1383V33.1252V33.1121V33.099V33.0859V33.0727V33.0596V33.0465V33.0334V33.0203V33.0072V32.994V32.9809V32.9678V32.9547V32.9416V32.9285V32.9153V32.9022V32.8891V32.876V32.8629V32.8498V32.8366V32.8235V32.8104V32.7973V32.7842V32.7711V32.7579V32.7448V32.7317V32.7186V32.7055V32.6924V32.6792V32.6661V32.653V32.6399V32.6268V32.6137V32.6005V32.5874V32.5743V32.5612V32.5481V32.535V32.5218V32.5087V32.4956V32.4825V32.4694V32.4563V32.4431V32.43V32.4169V32.4038V32.3907V32.3776V32.3644V32.3513V32.3382V32.3251V32.312V32.2989V32.2857V32.2726V32.2595V32.2464V32.2333V32.2202V32.207V32.1939V32.1808V32.1677V32.1546V32.1415V32.1283V32.1152V32.1021V32.089V32.0759V32.0628V32.0496V32.0365V32.0234V32.0103V31.9972V31.9841V31.9709V31.9578V31.9447V31.9316V31.9185V31.9054V31.8922V31.8791V31.866V31.8529V31.8398V31.8267V31.8135V31.8004V31.7873V31.7742V31.7611V31.748V31.7348V31.7217V31.7086V31.6955V31.6824V31.6693V31.6561V31.643V31.6299V31.6168V31.6037V31.5906V31.5774V31.5643V31.5512V31.5381V31.525V31.5119V31.4987V31.4856V31.4725V31.4594V31.4463V31.4332V31.42V31.4069V31.3938V31.3807V31.3676V31.3545V31.3413V31.3282V31.3151V31.302V31.2889V31.2758V31.2626V31.2495V31.2364V31.2233V31.2102V31.1971V31.1839V31.1708V31.1577V31.1446V31.1315V31.1184V31.1052V31.0921V31.079V31.0659V31.0528V31.0397V31.0265V31.0134V31.0003V30.9872V30.9741V30.961V30.9478V30.9347V30.9216V30.9085V30.8954V30.8823V30.8691V30.856V30.8429V30.8298V30.8167V30.8036V30.7904V30.7773V30.7642V30.7511V30.738V30.7249V30.7117V30.6986V30.6855V30.6724V30.6593V30.6462V30.633V30.6199V30.6068V30.5937V30.5806V30.5675V30.5543V30.5412V30.5281V30.515V30.5019V30.4888V30.4756V30.4625V30.4494V30.4363V30.4232V30.4101V30.3969V30.3838V30.3707V30.3576V30.3445V30.3314V30.3182V30.3051V30.292V30.2789V30.2658V30.2527V30.2395V30.2264V30.2133V30.2002V30.1871V30.174V30.1608V30.1477V30.1346V30.1215V30.1084V30.0953V30.0821V30.069V30.0559V30.0428V30.0297V30.0166V30.0034V29.9903V29.9772V29.9641V29.951V29.9379V29.9247V29.9116V29.8985V29.8854V29.8723V29.8592V29.846V29.8329V29.8198V29.8067V29.7936V29.7805V29.7673V29.7542V29.7411V29.728V29.7149V29.7018V29.6886V29.6755V29.6624V29.6493V29.6362V29.6231V29.6099V29.5968V29.5837V29.5706V29.5575V29.5444V29.5312V29.5181V29.505V29.4919V29.4788V29.4657V29.4525V29.4394V29.4263V29.4132V29.4001V29.387V29.3739V29.3607V29.3476V29.3345V29.3214V29.3083V29.2952V29.282V29.2689V29.2558V29.2427V29.2296V29.2165V29.2033V29.1902V29.1771V29.164V29.1509V29.1378V29.1246V29.1115V29.0984V29.0853V29.0722V29.0591V29.0459V29.0328V29.0197V29.0066V28.9935V28.9804V28.9672V28.9541V28.941V28.9279V28.9148V28.9017V28.8885V28.8754V28.8623V28.8492V28.8361V28.823Z" fill="white" stroke="#1E1D1D" stroke-width="0.191155"/>
<path d="M33.8101 35.3946C34.1531 35.44 34.4761 35.4223 34.7799 35.3432C36.4933 34.4835 37.9619 33.3101 39.1862 31.8223C40.2098 30.1744 40.6142 28.3889 40.3999 26.4628C40.3666 26.163 40.3134 25.7907 40.2698 25.4862C40.2453 25.3145 40.2238 25.1644 40.2107 25.0609C40.1161 24.3132 39.9958 23.4747 39.8334 22.7305C39.5552 21.4555 39.4282 20.1387 39.4525 18.7802C39.4525 18.7799 39.4525 18.7796 39.4525 18.7793L39.5481 18.781C39.5483 17.9366 39.6113 17.1258 39.7375 16.3487L33.8101 35.3946ZM33.8101 35.3946C35.7872 34.4922 37.5031 33.2162 38.957 31.5671L38.9626 31.5607L38.9671 31.5534C39.7088 30.3278 40.0607 29 40.0224 27.5722L40.0229 27.5722L40.0215 27.5621C39.6966 25.1372 39.4128 22.7065 39.1699 20.27C38.907 16.2276 39.5673 12.3451 41.151 8.6214L41.1764 8.56164L41.1302 8.516L36.9641 4.39977L36.9368 4.37277L36.8984 4.37219C28.6283 4.24744 20.3583 4.24744 12.0882 4.37219L12.0498 4.37277L12.0225 4.39976L7.8564 8.516L7.81021 8.56164L7.83562 8.62139C9.41924 12.3451 10.0795 16.2276 9.81667 20.27C9.57384 22.7065 9.28996 25.1372 8.96505 27.5621L8.9644 27.562L8.96422 27.5733C8.9272 29.9006 9.82431 31.7997 11.6512 33.2625L11.6511 33.2626L11.6562 33.2662C12.7659 34.0405 13.9125 34.7309 15.0961 35.3375H15.0944H15.0918H15.0892H15.0867H15.0841H15.0815H15.0789H15.0763H15.0737H15.0711H15.0685H15.0659H15.0634H15.0608H15.0582H15.0556H15.053H15.0504H15.0478H15.0452H15.0426H15.0401H15.0375H15.0349H15.0323H15.0297H15.0271H15.0245H15.0219H15.0193H15.0168H15.0142H15.0116H15.009H15.0064H15.0038H15.0012H14.9986H14.996H14.9934H14.9909H14.9883H14.9857H14.9831H14.9805H14.9779H14.9753H14.9727H14.9701H14.9676H14.965H14.9624H14.9598H14.9572H14.9546H14.952H14.9494H14.9468H14.9443H14.9417H14.9391H14.9365H14.9339H14.9313H14.9287H14.9261H14.9235H14.921H14.9184H14.9158H14.9132H14.9106H14.908H14.9054H14.9028H14.9002H14.8977H14.8951H14.8925H14.8899H14.8873H14.8847H14.8821H14.8795H14.8769H14.8744H14.8718H14.8692H14.8666H14.864H14.8614H14.8588H14.8562H14.8536H14.8511H14.8485H14.8459H14.8433H14.8407H14.8381H14.8355H14.8329H14.8303H14.8278H14.8252H14.8226H14.82H14.8174H14.8148H14.8122H14.8096H14.807H14.8044H14.8019H14.7993H14.7967H14.7941H14.7915H14.7889H14.7863H14.7837H14.7811H14.7786H14.776H14.7734H14.7708H14.7682H14.7656H14.763H14.7604H14.7578H14.7553H14.7527H14.7501H14.7475H14.7449H14.7423H14.7397H14.7371H14.7345H14.732H14.7294H14.7268H14.7242H14.7216H14.719H14.7164H14.7138H14.7112H14.7087H14.7061H14.7035H14.7009H14.6983H14.6957H14.6931H14.6905H14.6879H14.6854H14.6828H14.6802H14.6776H14.675H14.6724H14.6698H14.6672H14.6646H14.6621H14.6595H14.6569H14.6543H14.6517H14.6491H14.6465H14.6439H14.6413H14.6388H14.6362H14.6336H14.631H14.6284H14.6258H14.6232H14.6206H14.618H14.6154H14.6129H14.6103H14.6077H14.6051H14.6025H14.5999H14.5973H14.5947H14.5921H14.5896H14.587H14.5844H14.5818H14.5792H14.5766H14.574H14.5714H14.5688H14.5663H14.5637H14.5611H14.5585H14.5559H14.5533H14.5507H14.5481H14.5455H14.543H14.5404H14.5378H14.5352H14.5326H14.53H14.5274H14.5248H14.5222H14.5197H14.5171H14.5145H14.5119H14.5093H14.5067H14.5041H14.5015H14.4989H14.4964H14.4938H14.4912H14.4886H14.486H14.4834H14.4808H14.4782H14.4756H14.4731H14.4705H14.4679H14.4653H14.4627H14.4601H14.4575H14.4549H14.4523H14.4498H14.4472H14.4446H14.442H14.4394H14.4368H14.4342H14.4316H14.429H14.4265H14.4239H14.4213H14.4187H14.4161H14.4135H14.4109H14.4083H14.4057H14.4031H14.4006H14.398H14.3954H14.3928H14.3902H14.3876H14.385H14.3824H14.3798H14.3773H14.3747H14.3721H14.3695H14.3669H14.3643H14.3617H14.3591H14.3565H14.354H14.3514H14.3488H14.3462H14.3436H14.341H14.3384H14.3358H14.3332H14.3307H14.3281H14.3255H14.3229H14.3203H14.3177H14.3151H14.3125H14.3099H14.3074H14.3048H14.3022H14.2996H14.297H14.2944H14.2918H14.2892H14.2866H14.2841H14.2815H14.2789H14.2763H14.2737H14.2711H14.2685H14.2659H14.2633H14.2608H14.2582H14.2556H14.253H14.2504H14.2478H14.2452H14.2426H14.24H14.2375H14.2349H14.2323H14.2297H14.2271H14.2245H14.2219H14.2193H14.2167H14.2142H14.2116H14.209H14.2064H14.2038H14.2012H14.1987C13.1806 34.7396 12.1821 34.0918 11.2032 33.3941C9.16859 31.5202 8.29759 29.2125 8.58673 26.4622C8.59092 26.4224 8.59507 26.3826 8.59923 26.3428C8.64402 25.9141 8.68919 25.4817 8.77529 24.9713C8.83142 24.6385 8.8838 24.352 8.93226 24.0869C9.01897 23.6125 9.09319 23.2065 9.15407 22.7264L33.8101 35.3946ZM41.5179 8.60244C40.4075 11.0663 39.7821 13.6453 39.6423 16.3386L9.05978 22.7102C9.33651 21.4424 9.46276 20.1327 9.43852 18.781L9.5341 18.781C9.5341 18.7807 9.5341 18.7805 9.5341 18.7802C9.53407 18.6395 9.53495 18.4993 9.53582 18.3597C9.54014 17.6688 9.54436 16.9917 9.43902 16.3386C9.2989 13.6432 8.57969 11.0642 7.46873 8.60243C8.83141 7.13326 10.1964 5.66196 11.5638 4.18853C20.1835 4.06459 28.8031 4.06459 37.4228 4.18853C38.7901 5.66197 40.1553 7.13327 41.5179 8.60244Z" fill="white" stroke="white" stroke-width="0.191155"/>
<path fill-rule="evenodd" clip-rule="evenodd" d="M33.4749 35.4523C33.2854 35.4523 33.0958 35.4523 32.9063 35.4523C32.7607 35.3094 32.6659 35.122 32.6219 34.8903C32.5493 34.9944 32.4545 35.0568 32.3376 35.0776C32.7457 34.7331 33.2512 34.5457 33.854 34.5156C34.6583 34.192 35.1322 33.6299 35.2757 32.8293C34.5023 32.915 33.7756 33.1023 33.0958 33.3914C32.8953 33.5975 32.7372 33.8474 32.6219 34.1408C32.3454 33.7789 32.1243 33.4041 31.9585 33.0167C31.9585 32.9543 31.9585 32.8917 31.9585 32.8293C32.3207 32.8432 32.5419 33.0306 32.6219 33.3914C32.9409 32.7595 33.3517 32.1974 33.854 31.7052C34.3882 31.3153 34.5146 30.8156 34.2332 30.2063C33.8738 30.3515 33.5578 30.5389 33.2854 30.7684C32.8712 31.1677 32.6185 31.6672 32.5271 32.2673C32.0972 31.1489 31.2759 30.6492 30.0629 30.7684C30.0629 30.581 30.0629 30.3937 30.0629 30.2063C30.8177 30.2869 31.5443 30.4742 32.2428 30.7684C32.6856 30.4913 32.9699 30.0853 33.0958 29.5506C32.9009 28.9471 32.6799 28.3537 32.4324 27.7707C32.2589 27.9258 32.1327 28.1132 32.0532 28.3327C31.9901 29.0198 31.9268 29.7066 31.8637 30.3937C31.6374 29.4535 31.0372 29.0164 30.0629 29.0822C30.0629 28.7699 30.0629 28.4577 30.0629 28.1454C30.3421 28.3777 30.6581 28.5651 31.0107 28.7075C31.2742 28.1499 31.211 27.6502 30.8211 27.2086C30.5091 26.7869 30.0984 26.4745 29.589 26.2718C29.4201 26.8335 29.5149 27.333 29.8733 27.7707C26.2086 27.7707 22.5438 27.7707 18.8791 27.7707C19.2375 27.333 19.3322 26.8335 19.1634 26.2718C18.654 26.4745 18.2433 26.7869 17.9313 27.2086C17.5414 27.6502 17.4782 28.1499 17.7417 28.7075C18.1749 28.5889 18.4909 28.3391 18.6895 27.958C18.7527 27.958 18.8159 27.958 18.8791 27.958C18.8791 28.3328 18.8791 28.7075 18.8791 29.0822C18.6263 29.0822 18.3736 29.0822 18.1208 29.0822C17.4554 29.2654 17.0447 29.7025 16.8887 30.3937C16.7958 30.1514 16.7642 29.9015 16.7939 29.6443C16.6318 27.2909 16.2527 27.2283 15.6566 29.4569C15.7677 29.8953 15.9572 30.3013 16.2253 30.6747C16.7321 30.6461 17.2376 30.5524 17.7417 30.3937C18.1357 30.3054 18.5148 30.1807 18.8791 30.019C18.8791 30.2687 18.8791 30.5187 18.8791 30.7684C17.8806 30.5764 17.1224 30.8887 16.6044 31.7052C16.527 31.9193 16.4006 32.1067 16.2253 32.2673C16.1339 31.6672 15.8812 31.1677 15.467 30.7684C15.1946 30.5389 14.8787 30.3515 14.5193 30.2063C14.2378 30.8156 14.3642 31.3153 14.8984 31.7052C15.4007 32.1974 15.8114 32.7595 16.1305 33.3914C16.2106 33.0306 16.4317 32.8432 16.7939 32.8293C16.7308 32.9543 16.6676 33.0791 16.6044 33.2041C16.4959 33.5329 16.338 33.8452 16.1305 34.1408C16.0332 33.9484 15.9384 33.7611 15.8461 33.5788C15.7404 33.3371 15.5509 33.181 15.2775 33.1104C12.9171 32.638 12.7908 33.1064 14.8984 34.5156C15.5011 34.5457 16.0066 34.7331 16.4148 35.0776C16.2978 35.0568 16.203 34.9944 16.1305 34.8903C16.0865 35.122 15.9917 35.3094 15.8461 35.4523C15.7198 35.4523 15.5934 35.4523 15.467 35.4523C14.1587 34.8045 12.895 34.055 11.6759 33.2041C9.87013 31.7576 8.98552 29.8841 9.02211 27.5833C9.34756 25.1535 9.63189 22.7178 9.87511 20.2764C10.1395 16.2129 9.47604 12.3096 7.88477 8.5665C9.27484 7.19255 10.6649 5.81858 12.055 4.44463C20.3323 4.31973 28.6096 4.31973 36.8869 4.44463C38.277 5.81858 39.6672 7.19255 41.0572 8.5665C39.4659 12.3096 38.8024 16.2129 39.0668 20.2764C39.3101 22.7178 39.5944 25.1535 39.9199 27.5833C39.9578 28.9947 39.6103 30.3062 38.8773 31.5178C37.362 33.2372 35.5612 34.5487 33.4749 35.4523Z" fill="#1E1D1D"/>
<path fill-rule="evenodd" clip-rule="evenodd" d="M30.0796 30.2104C30.0796 29.8373 30.0796 29.4642 30.0796 29.0911C31.0529 29.0256 31.6525 29.4609 31.8786 30.3969C31.9416 29.7129 32.0049 29.029 32.068 28.3449C32.1473 28.1263 32.2734 27.9397 32.4467 27.7853C32.694 28.3658 32.9148 28.9566 33.1095 29.5575C32.9837 30.0899 32.6997 30.4941 32.2573 30.77C31.5595 30.4772 30.8337 30.2906 30.0796 30.2104Z" fill="white"/>
<path fill-rule="evenodd" clip-rule="evenodd" d="M18.1492 29.0912C18.4017 29.0912 18.6542 29.0912 18.9067 29.0912C18.9067 29.4022 18.9067 29.713 18.9067 30.0239C18.5429 30.1849 18.1641 30.3092 17.7705 30.397C17.8421 29.9454 17.9684 29.5102 18.1492 29.0912Z" fill="white"/>
<path fill-rule="evenodd" clip-rule="evenodd" d="M18.1493 29.0912C17.9684 29.5102 17.8422 29.9454 17.7706 30.397C17.2669 30.555 16.7619 30.6483 16.2556 30.6768C15.9878 30.3051 15.7985 29.9008 15.6875 29.4643C15.8769 29.4643 16.0662 29.4643 16.2556 29.4643C16.2273 29.6605 16.2589 29.8471 16.3503 30.0239C16.4844 29.8596 16.6422 29.7353 16.8237 29.6508C16.794 29.907 16.8256 30.1558 16.9184 30.397C17.0743 29.7088 17.4846 29.2736 18.1493 29.0912Z" fill="white"/>
<path d="M26.2589 34.9292C25.7848 35.0425 25.3112 35.0446 24.8371 34.9354C25.3667 33.5169 25.8032 32.0697 26.1465 30.5936L26.158 30.5439L26.1073 30.5388C25.5193 30.479 24.9448 30.5418 24.3844 30.7274L24.3633 30.7343L24.356 30.7553C23.8908 32.0997 23.4819 33.4614 23.1297 34.8407C22.6413 35.0311 22.1366 35.0628 21.6146 34.9353C22.0367 33.5515 22.4739 32.1677 22.9262 30.7839L22.9401 30.7414L22.8976 30.7274C22.3529 30.547 21.7949 30.4826 21.2241 30.534V30.5324V30.5299V30.5273V30.5248V30.5222V30.5197V30.5171V30.5146V30.512V30.5095V30.5069V30.5044V30.5018V30.4993V30.4967V30.4942V30.4916V30.4891V30.4865V30.484V30.4814V30.4789V30.4763V30.4738V30.4712V30.4687V30.4661V30.4636V30.461V30.4585V30.4559V30.4534V30.4508V30.4483V30.4457V30.4432V30.4406V30.4381V30.4355V30.433V30.4304V30.4279V30.4253V30.4228V30.4202V30.4177V30.4151V30.4126V30.41V30.4075V30.4049V30.4024V30.3998V30.3973V30.3947V30.3922V30.3896V30.3871V30.3845V30.382V30.3794V30.3769V30.3743V30.3718V30.3692V30.3667V30.3641V30.3616V30.359V30.3565V30.3539V30.3513V30.3488V30.3462V30.3437V30.3411V30.3386V30.336V30.3335V30.3309V30.3284V30.3258V30.3233V30.3207V30.3182V30.3156V30.3131V30.3105V30.308V30.3054V30.3029V30.3003V30.2978V30.2952V30.2927V30.2901V30.2876V30.285V30.2825V30.2799V30.2774V30.2748V30.2723V30.2697V30.2672V30.2646V30.2621V30.2595V30.257V30.2544V30.2519V30.2493V30.2468V30.2442V30.2417V30.2391V30.2366V30.234V30.2315V30.2289V30.2264V30.2238V30.2213V30.2187V30.2162V30.2136V30.2111V30.2085V30.206V30.2034V30.2009V30.1983V30.1958V30.1932V30.1907V30.1881V30.1856V30.183V30.1805V30.1779V30.1754V30.1728V30.1703V30.1677V30.1652V30.1626V30.1601V30.1575V30.155V30.1524V30.1499V30.1473V30.1448V30.1422V30.1397V30.1371V30.1346V30.132V30.1295V30.1269V30.1244V30.1218V30.1193V30.1167V30.1142V30.1116V30.109V30.1065V30.1039V30.1014V30.0988V30.0963V30.0937V30.0912V30.0886V30.0861V30.0835V30.081V30.0784V30.0759V30.0733V30.0708V30.0682V30.0657V30.0631V30.0606V30.058V30.0555V30.0529V30.0504V30.0478V30.0453V30.0427V30.0402V30.0376V30.0351V30.0325V30.03V30.0274V30.0249V30.0223V30.0198V30.0172V30.0147V30.0121V30.0096V30.007V30.0045V30.0019V29.9994V29.9968V29.9943V29.9917V29.9892V29.9866V29.9841V29.9815V29.979V29.9764V29.9739V29.9713V29.9688V29.9662V29.9637V29.9611V29.9586V29.956V29.9535V29.9509V29.9484V29.9458V29.9433V29.9407V29.9382V29.9356V29.9331V29.9305V29.928V29.9254V29.9229V29.9203V29.9178V29.9152V29.9127V29.9101V29.9075V29.905V29.9024V29.8999V29.8973V29.8948V29.8922V29.8897V29.8871V29.8846V29.882V29.8795V29.8769V29.8744V29.8718V29.8693V29.8667V29.8642V29.8616V29.8591V29.8565V29.854V29.8514V29.8489V29.8463V29.8438V29.8412V29.8387V29.8361V29.8336V29.831V29.8285V29.8259V29.8234V29.8208V29.8183V29.8157V29.8132V29.8106V29.8081V29.8055V29.803V29.8004V29.7979V29.7953V29.7928V29.7902V29.7877V29.7851V29.7826V29.78V29.7775V29.7749V29.7724V29.7698V29.7673V29.7647V29.7622V29.7596V29.7571V29.7545V29.752V29.7494V29.7469V29.7443V29.7418V29.7392V29.7367V29.7341V29.7316V29.729V29.7265V29.7239V29.7214V29.7188V29.7163V29.7137V29.7112V29.7086V29.7061V29.7035V29.7009V29.6984V29.6958V29.6933V29.6907V29.6882V29.6856V29.6831V29.6805V29.678V29.6754V29.6729V29.6703V29.6678V29.6652V29.6627V29.6601V29.6576V29.655V29.6525V29.6499V29.6474V29.6448V29.6423V29.6397V29.6372V29.6346V29.6321V29.6295V29.627V29.6244V29.6219V29.6193V29.6168V29.6142V29.6117V29.6091V29.6066V29.604V29.6015V29.5989V29.5964V29.5938V29.5913V29.5887V29.5862V29.5836V29.5811V29.5785V29.576V29.5734V29.5709V29.5683V29.5658V29.5632V29.5607V29.5581V29.5556V29.553V29.5505V29.5479V29.5454V29.5428V29.5403V29.5377V29.5352V29.5326V29.5301V29.5275V29.525V29.5224V29.5199V29.5173V29.5148V29.5122V29.5097V29.5071V29.5046V29.502V29.4995V29.4969V29.4944V29.4918V29.4893V29.4867V29.4842V29.4816V29.4791V29.4765V29.474V29.4714V29.4689V29.4663V29.4638V29.4612V29.4587V29.4561V29.4536V29.451V29.4485V29.4459V29.4434V29.4408V29.4383V29.4357V29.4332V29.4306V29.4281V29.4255V29.4229V29.4204V29.4178V29.4153V29.4127V29.4102V29.4076V29.4051V29.4025V29.4V29.3974V29.3949V29.3923V29.3898V29.3872V29.3847V29.3821V29.3796V29.377V29.3745V29.3719V29.3694V29.3668V29.3643V29.3617V29.3592V29.3566V29.3541V29.3515V29.349V29.3464V29.3439V29.3413V29.3388V29.3362V29.3337V29.3311V29.3286V29.326V29.3235V29.3225H21.2295H21.2358H21.2421H21.2484H21.2547H21.2609H21.2672H21.2735H21.2798H21.2861H21.2924H21.2987H21.305H21.3112H21.3175H21.3238H21.3301H21.3364H21.3427H21.349H21.3553H21.3615H21.3678H21.3741H21.3804H21.3867H21.393H21.3993H21.4056H21.4118H21.4181H21.4244H21.4307H21.437H21.4433H21.4496H21.4559H21.4621H21.4684H21.4747H21.481H21.4873H21.4936H21.4999H21.5062H21.5125H21.5187H21.525H21.5313H21.5376H21.5439H21.5502H21.5565H21.5628H21.569H21.5753H21.5816H21.5879H21.5942H21.6005H21.6068H21.6131H21.6193H21.6256H21.6319H21.6382H21.6445H21.6508H21.6571H21.6634H21.6696H21.6759H21.6822H21.6885H21.6948H21.7011H21.7074H21.7137H21.7199H21.7262H21.7325H21.7388H21.7451H21.7514H21.7577H21.764H21.7702H21.7765H21.7828H21.7891H21.7954H21.8017H21.808H21.8143H21.8205H21.8268H21.8331H21.8394H21.8457H21.852H21.8583H21.8646H21.8709H21.8771H21.8834H21.8897H21.896H21.9023H21.9086H21.9149H21.9212H21.9274H21.9337H21.94H21.9463H21.9526H21.9589H21.9652H21.9715H21.9777H21.984H21.9903H21.9966H22.0029H22.0092H22.0155H22.0218H22.028H22.0343H22.0406H22.0469H22.0532H22.0595H22.0658H22.0721H22.0783H22.0846H22.0909H22.0972H22.1035H22.1098H22.1161H22.1224H22.1286H22.1349H22.1412H22.1475H22.1538H22.1601H22.1664H22.1727H22.1789H22.1852H22.1915H22.1978H22.2041H22.2104H22.2167H22.223H22.2292H22.2355H22.2418H22.2481H22.2544H22.2607H22.267H22.2733H22.2795H22.2858H22.2921H22.2984H22.3047H22.311H22.3173H22.3236H22.3299H22.3361H22.3424H22.3487H22.355H22.3613H22.3676H22.3739H22.3802H22.3864H22.3927H22.399H22.4053H22.4116H22.4179H22.4242H22.4305H22.4367H22.443H22.4493H22.4556H22.4619H22.4682H22.4745H22.4808H22.487H22.4933H22.4996H22.5059H22.5122H22.5185H22.5248H22.5311H22.5373H22.5436H22.5499H22.5562H22.5625H22.5688H22.5751H22.5814H22.5876H22.5939H22.6002H22.6065H22.6128H22.6191H22.6254H22.6317H22.6379H22.6442H22.6505H22.6568H22.6631H22.6694H22.6757H22.682H22.6882H22.6945H22.7008H22.7071H22.7134H22.7197H22.726H22.7323H22.7385H22.7448H22.7511H22.7574H22.7637H22.77H22.7763H22.7826H22.7888H22.7951H22.8014H22.8077H22.814H22.8203H22.8266H22.8329H22.8391H22.8454H22.8517H22.858H22.8643H22.8706H22.8769H22.8832H22.8894H22.8957H22.902H22.9083H22.9146H22.9209H22.9272H22.9335H22.9397H22.946H22.9523H22.9586H22.9649H22.9712H22.9775H22.9838H22.9901H22.9963H23.0026H23.0089H23.0152H23.0215H23.0278H23.0341H23.0404H23.0466H23.0529H23.0592H23.0655H23.0718H23.0781H23.0844H23.0907H23.0969H23.1032H23.1095H23.1158H23.1221H23.1284H23.1347H23.141H23.1472H23.1535H23.1598H23.1661H23.1724H23.1787H23.185H23.1913H23.1975H23.2038H23.2101H23.2164H23.2227H23.229H23.2353H23.2416H23.2478H23.2541H23.2604H23.2667H23.273H23.2793H23.2856H23.2919H23.2981H23.3044H23.3107H23.317H23.3233H23.3296H23.3359H23.3422H23.3484H23.3547H23.361H23.3673H23.3736H23.3799H23.3862H23.3925H23.3987H23.405H23.4113H23.4176H23.4239H23.4302H23.4365H23.4428H23.449H23.4553H23.4616H23.4679H23.4742H23.4805H23.4868H23.4931H23.4993H23.5056H23.5119H23.5182H23.5245H23.5308H23.5371H23.5434H23.5496H23.5559H23.5622H23.5685H23.5748H23.5811H23.5874H23.5937H23.5999H23.6062H23.6125H23.6188H23.6251H23.6314H23.6377H23.644H23.6502H23.6565H23.6628H23.6691H23.6754H23.6817H23.688H23.6943H23.7005H23.7068H23.7131H23.7194H23.7257H23.732H23.7383H23.7446H23.7508H23.7571H23.7634H23.7697H23.776H23.7823H23.7886H23.7949H23.8011H23.8074H23.8137H23.82H23.8263H23.8326H23.8389H23.8452H23.8514H23.8577H23.864H23.8703H23.8766H23.8829H23.8892H23.8955H23.9017H23.908H23.9143H23.9206H23.9269H23.9332H23.9395H23.9458H23.952H23.9583H23.9646H23.9709H23.9772H23.9835H23.9898H23.9961H24.0023H24.0086H24.0149H24.0212H24.0275H24.0338H24.0401H24.0464H24.0526H24.0589H24.0652H24.0715H24.0778H24.0841H24.0904H24.0967H24.1029H24.1092H24.1155H24.1218H24.1281H24.1344H24.1407H24.147H24.1532H24.1595H24.1658H24.1721H24.1784H24.1847H24.191H24.1973H24.2035H24.2098H24.2161H24.2224H24.2287H24.235H24.2413H24.2476H24.2538H24.2601H24.2664H24.2727H24.279H24.2853H24.2916H24.2979H24.3041H24.3104H24.3167H24.323H24.3293H24.3356H24.3419H24.3482H24.3544H24.3607H24.367H24.3733H24.3796H24.3859H24.3922H24.3985H24.4051H24.4118H24.4184H24.4251H24.4317H24.4384H24.4451H24.4517H24.4584H24.465H24.4717H24.4783H24.485H24.4917H24.4983H24.505H24.5116H24.5183H24.525H24.5316H24.5383H24.5449H24.5516H24.5582H24.5649H24.5716H24.5782H24.5849H24.5915H24.5982H24.6048H24.6115H24.6182H24.6248H24.6315H24.6381H24.6448H24.6514H24.6581H24.6648H24.6714H24.6781H24.6847H24.6914H24.698H24.7047H24.7114H24.718H24.7247H24.7313H24.738H24.7446H24.7513H24.758H24.7646H24.7713H24.7779H24.7846H24.7912H24.7979H24.8046H24.8112H24.8179H24.8245H24.8312H24.8378H24.8445H24.8512H24.8578H24.8645H24.8711H24.8778H24.8845H24.8911H24.8978H24.9044H24.9111H24.9177H24.9244H24.9311H24.9377H24.9444H24.951H24.9577H24.9643H24.971H24.9777H24.9843H24.991H24.9976H25.0043H25.0109H25.0176H25.0243H25.0309H25.0376H25.0442H25.0509H25.0575H25.0642H25.0709H25.0775H25.0842H25.0908H25.0975H25.1041H25.1108H25.1175H25.1241H25.1308H25.1374H25.1441H25.1507H25.1574H25.1641H25.1707H25.1774H25.184H25.1907H25.1973H25.204H25.2107H25.2173H25.224H25.2306H25.2373H25.2439H25.2506H25.2573H25.2639H25.2706H25.2772H25.2839H25.2906H25.2972H25.3039H25.3105H25.3172H25.3238H25.3305H25.3372H25.3438H25.3505H25.3571H25.3638H25.3704H25.3771H25.3838H25.3904H25.3971H25.4037H25.4104H25.417H25.4237H25.4304H25.437H25.4437H25.4503H25.457H25.4636H25.4703H25.477H25.4836H25.4903H25.4969H25.5036H25.5102H25.5169H25.5236H25.5302H25.5369H25.5435H25.5502H25.5568H25.5635H25.5702H25.5768H25.5835H25.5901H25.5968H25.6034H25.6101H25.6168H25.6234H25.6301H25.6367H25.6434H25.6501H25.6567H25.6634H25.67H25.6767H25.6833H25.69H25.6967H25.7033H25.71H25.7166H25.7233H25.7299H25.7366H25.7433H25.7499H25.7566H25.7632H25.7699H25.7765H25.7832H25.7899H25.7965H25.8032H25.8098H25.8165H25.8231H25.8298H25.8365H25.8431H25.8498H25.8564H25.8631H25.8697H25.8764H25.8831H25.8897H25.8964H25.903H25.9097H25.9163H25.923H25.9297H25.9363H25.943H25.9496H25.9563H25.963H25.9696H25.9763H25.9829H25.9896H25.9962H26.0029H26.0096H26.0162H26.0229H26.0295H26.0362H26.0428H26.0495H26.0562H26.0628H26.0695H26.0761H26.0828H26.0894H26.0961H26.1028H26.1094H26.1161H26.1227H26.1294H26.136H26.1427H26.1494H26.156H26.1627H26.1693H26.176H26.1826H26.1893H26.196H26.2026H26.2093H26.2159H26.2226H26.2292H26.2359H26.2426H26.2492H26.2559H26.2625H26.2692H26.2759H26.2825H26.2892H26.2958H26.3025H26.3091H26.3158H26.3225H26.3291H26.3358H26.3424H26.3491H26.3557H26.3624H26.3691H26.3757H26.3824H26.389H26.3957H26.4023H26.409H26.4157H26.4223H26.429H26.4356H26.4423H26.4489H26.4556H26.4623H26.4689H26.4756H26.4822H26.4889H26.4955H26.5022H26.5089H26.5155H26.5222H26.5288H26.5355H26.5422H26.5488H26.5555H26.5621H26.5688H26.5754H26.5821H26.5888H26.5954H26.6021H26.6087H26.6154H26.622H26.6287H26.6354H26.642H26.6487H26.6553H26.662H26.6686H26.6753H26.682H26.6886H26.6953H26.7019H26.7086H26.7152H26.7219H26.7286H26.7352H26.7419H26.7485H26.7552H26.7618H26.7685H26.7752H26.7818H26.7885H26.7951H26.8018H26.8085H26.8151H26.8218H26.8284H26.8351H26.8417H26.8484H26.8551H26.8617H26.8684H26.875H26.8817H26.8883H26.895H26.9017H26.9083H26.915H26.9216H26.9283H26.9349H26.9416H26.9483H26.9549H26.9616H26.9682H26.9749H26.9815H26.9882H26.9949H27.0015H27.0082H27.0148H27.0215H27.0282H27.0348H27.0415H27.0481H27.0548H27.0614H27.0681H27.0748H27.0814H27.0881H27.0947H27.1014H27.108H27.1147H27.1214H27.128H27.1347H27.1413H27.148H27.1546H27.1613H27.168H27.1746H27.1813H27.1879H27.1946H27.2012H27.2079H27.2146H27.2212H27.2279H27.2345H27.2412H27.2479H27.2545H27.2612H27.2678H27.2745H27.2811H27.2878H27.2945H27.3011H27.3078H27.3144H27.3211H27.3277H27.3344H27.3411H27.3477H27.3544H27.361H27.3677H27.3743H27.381H27.3877H27.3943H27.401H27.4076H27.4143H27.4209H27.4276H27.4343H27.4409H27.4476H27.4542H27.4609H27.4676H27.4742H27.4809H27.4875H27.4942H27.5008H27.5075H27.5142H27.5208H27.5275H27.5341H27.5408H27.5474H27.5541H27.5608H27.5674H27.5741H27.5807H27.5874H27.594H27.6007H27.6074H27.614H27.6207H27.6273H27.634H27.6406H27.6473H27.654H27.6606H27.6673H27.6739H27.6806H27.6873H27.6939H27.7006H27.7072H27.7139H27.7205H27.7272H27.7339H27.7405H27.7472H27.7538H27.7552C27.4725 31.2472 26.9739 33.1161 26.2589 34.9292Z" fill="#1E1D1D" stroke="white" stroke-width="0.0897733"/>
<path fill-rule="evenodd" clip-rule="evenodd" d="M16.8237 29.6512C16.6422 29.7357 16.4844 29.86 16.3503 30.0243C16.2589 29.8475 16.2273 29.6609 16.2556 29.4647C16.0662 29.4647 15.8769 29.4647 15.6875 29.4647C16.283 27.2457 16.6617 27.308 16.8237 29.6512Z" fill="white"/>
<path fill-rule="evenodd" clip-rule="evenodd" d="M30.8371 27.2257C31.2266 27.6654 31.2897 28.1629 31.0264 28.7181C30.6742 28.5763 30.3585 28.3898 30.0796 28.1584C30.0796 28.034 30.0796 27.9098 30.0796 27.7854C30.269 27.7854 30.4583 27.7854 30.6477 27.7854C30.6028 27.5445 30.6659 27.358 30.8371 27.2257Z" fill="white"/>
<path fill-rule="evenodd" clip-rule="evenodd" d="M17.9599 27.2257C18.1311 27.358 18.1942 27.5445 18.1493 27.7854C18.3938 27.7411 18.5831 27.8033 18.7174 27.9719C18.519 28.3513 18.2034 28.6 17.7706 28.7181C17.5073 28.1629 17.5705 27.6654 17.9599 27.2257Z" fill="white"/>
<path fill-rule="evenodd" clip-rule="evenodd" d="M30.8373 27.2257C30.6662 27.358 30.6031 27.5445 30.648 27.7854C30.4586 27.7854 30.2692 27.7854 30.0799 27.7854C30.0168 27.7854 29.9536 27.7854 29.8905 27.7854C29.5324 27.3496 29.4377 26.8522 29.6064 26.293C30.1153 26.4948 30.5256 26.8058 30.8373 27.2257Z" fill="white"/>
<path fill-rule="evenodd" clip-rule="evenodd" d="M18.9068 27.7854C18.9068 27.8475 18.9068 27.9098 18.9068 27.9719C18.8437 27.9719 18.7806 27.9719 18.7174 27.9719C18.5832 27.8033 18.3938 27.7411 18.1493 27.7854C18.1943 27.5445 18.1311 27.358 17.96 27.2257C18.2717 26.8058 18.682 26.4948 19.1909 26.293C19.3595 26.8522 19.2648 27.3496 18.9068 27.7854Z" fill="white"/>
<path fill-rule="evenodd" clip-rule="evenodd" d="M15.4986 30.7702C15.4986 31.0812 15.4986 31.392 15.4986 31.703C15.3092 31.703 15.1199 31.703 14.9305 31.703C14.3969 31.3147 14.2706 30.8172 14.5518 30.2106C14.9109 30.3551 15.2265 30.5417 15.4986 30.7702Z" fill="white"/>
<path fill-rule="evenodd" clip-rule="evenodd" d="M33.8669 31.703C33.6776 31.703 33.4882 31.703 33.2988 31.703C33.2988 31.392 33.2988 31.0812 33.2988 30.7702C33.571 30.5417 33.8866 30.3551 34.2457 30.2106C34.5269 30.8172 34.4006 31.3147 33.8669 31.703Z" fill="white"/>
<path fill-rule="evenodd" clip-rule="evenodd" d="M15.4978 30.7704C15.9115 31.1679 16.164 31.6653 16.2553 32.2628C16.4305 32.1029 16.5567 31.9163 16.634 31.7031C16.6623 32.0096 16.7254 32.3206 16.8234 32.6359C16.8234 32.698 16.8234 32.7603 16.8234 32.8224C16.4615 32.8362 16.2406 33.0228 16.1606 33.3821C15.8419 32.7528 15.4316 32.1932 14.9297 31.7031C15.1191 31.7031 15.3084 31.7031 15.4978 31.7031C15.4978 31.3922 15.4978 31.0814 15.4978 30.7704Z" fill="white"/>
<path fill-rule="evenodd" clip-rule="evenodd" d="M18.9072 30.7702C18.9072 30.9567 18.9072 31.1433 18.9072 31.3298C18.4277 31.5535 18.1752 31.9266 18.1497 32.4491C18.3767 33.1205 18.5661 33.8044 18.7178 34.5011C18.6945 34.767 18.6314 35.0156 18.5284 35.2473C18.0176 35.5355 17.6389 35.4113 17.3922 34.8742C17.4083 34.4211 17.5977 34.048 17.9603 33.7549C17.8714 33.5753 17.7451 33.5753 17.5816 33.7549C17.3922 33.7549 17.2029 33.7549 17.0135 33.7549C17.0542 33.4417 16.9279 33.2552 16.6348 33.1953C16.6979 33.0709 16.761 32.9466 16.8241 32.8222C17.1342 32.6064 17.4499 32.3887 17.771 32.1693C17.33 32.0954 17.0144 32.251 16.8241 32.6357C16.7262 32.3204 16.6631 32.0094 16.6348 31.7029C17.1522 30.8899 17.9097 30.579 18.9072 30.7702Z" fill="white"/>
<path fill-rule="evenodd" clip-rule="evenodd" d="M18.9055 31.33C18.9055 32.8223 18.9055 34.3147 18.9055 35.8071C18.7457 36.0256 18.6196 36.2744 18.5272 36.5533C18.4011 36.4912 18.275 36.4289 18.1489 36.3668C18.275 35.9937 18.4011 35.6206 18.5272 35.2475C18.63 35.0158 18.693 34.7671 18.7163 34.5013C18.5648 33.8045 18.3757 33.1206 18.1489 32.4492C18.1744 31.9267 18.4266 31.5536 18.9055 31.33Z" fill="#1E1D1D"/>
<path fill-rule="evenodd" clip-rule="evenodd" d="M30.0796 30.7701C31.2914 30.6514 32.1119 31.1489 32.5414 32.2624C32.6327 31.6649 32.8851 31.1676 33.2989 30.7701C33.2989 31.081 33.2989 31.3918 33.2989 31.7028C33.4882 31.7028 33.6776 31.7028 33.867 31.7028C33.3651 32.1929 32.9548 32.7525 32.6361 33.3817C32.5561 33.0224 32.3352 32.8359 31.9733 32.8221C31.9733 32.8842 31.9733 32.9465 31.9733 33.0086C31.8078 33.4172 31.4921 33.6037 31.0264 33.5683C30.9236 33.5795 30.8605 33.6416 30.8371 33.7548C31.1997 34.0479 31.3891 34.421 31.4052 34.8741C31.1588 35.1319 31.0011 35.4427 30.9317 35.8069C30.7731 35.5272 30.6153 35.4651 30.4583 35.6203C30.332 35.4338 30.2059 35.2472 30.0796 35.0607C30.0796 34.6876 30.0796 34.3145 30.0796 33.9414C30.56 33.3455 30.7178 32.6615 30.553 31.8894C30.4189 31.725 30.261 31.6008 30.0796 31.5163C30.0796 31.2676 30.0796 31.0187 30.0796 30.7701Z" fill="white"/>
<path fill-rule="evenodd" clip-rule="evenodd" d="M16.8232 32.8219C16.8232 32.7598 16.8232 32.6975 16.8232 32.6353C17.0135 32.2507 17.3291 32.0951 17.7701 32.169C17.449 32.3883 17.1334 32.606 16.8232 32.8219Z" fill="#1E1D1D"/>
<path fill-rule="evenodd" clip-rule="evenodd" d="M31.9722 32.822C30.7938 32.2387 30.7938 32.0521 31.9722 32.2624C31.9722 32.4489 31.9722 32.6355 31.9722 32.822Z" fill="white"/>
<path fill-rule="evenodd" clip-rule="evenodd" d="M30.0796 31.5162C30.2608 31.6007 30.4185 31.725 30.5524 31.8893C30.717 32.6615 30.5594 33.3455 30.0796 33.9414C30.0796 33.133 30.0796 32.3245 30.0796 31.5162Z" fill="#1E1D1D"/>
<path fill-rule="evenodd" clip-rule="evenodd" d="M15.8771 33.5681C15.5615 33.8791 15.2459 34.1899 14.9302 34.5009C12.8247 33.0979 12.951 32.6315 15.309 33.1018C15.5821 33.1721 15.7715 33.3275 15.8771 33.5681Z" fill="white"/>
<path fill-rule="evenodd" clip-rule="evenodd" d="M33.8668 34.5011C33.6691 34.0692 33.4167 33.6961 33.1094 33.3818C33.7884 33.0939 34.5145 32.9074 35.2871 32.8221C35.1438 33.6193 34.6703 34.1789 33.8668 34.5011Z" fill="white"/>
<path fill-rule="evenodd" clip-rule="evenodd" d="M31.0263 33.5686C31.2393 33.8725 31.4919 34.1523 31.7838 34.4081C31.6414 34.5332 31.5781 34.6886 31.5944 34.8744C31.5313 34.8744 31.4681 34.8744 31.405 34.8744C31.3889 34.4213 31.1996 34.0482 30.8369 33.7552C30.8604 33.6419 30.9235 33.5798 31.0263 33.5686Z" fill="#1E1D1D"/>
<path fill-rule="evenodd" clip-rule="evenodd" d="M17.3919 34.8743C17.3288 34.8743 17.2657 34.8743 17.2026 34.8743C17.2188 34.6885 17.1557 34.5331 17.0132 34.4079C17.2423 34.2141 17.4317 33.9964 17.5813 33.755C17.7448 33.5753 17.8711 33.5753 17.96 33.755C17.5974 34.048 17.408 34.4211 17.3919 34.8743Z" fill="#1E1D1D"/>
<path fill-rule="evenodd" clip-rule="evenodd" d="M31.9742 33.0093C32.1399 33.3951 32.3607 33.7682 32.637 34.1286C32.7521 33.8364 32.91 33.5876 33.1104 33.3824C33.4177 33.6967 33.6702 34.0698 33.8679 34.5017C33.2657 34.5317 32.7606 34.7182 32.3529 35.0613C32.1242 34.9244 31.8717 34.8623 31.5954 34.8748C31.5792 34.689 31.6424 34.5336 31.7848 34.4084C31.493 34.1526 31.2404 33.8728 31.0273 33.5689C31.493 33.6044 31.8087 33.4178 31.9742 33.0093Z" fill="white"/>
<path fill-rule="evenodd" clip-rule="evenodd" d="M16.634 33.1954C16.9272 33.2553 17.0534 33.4419 17.0127 33.7551C17.2021 33.7551 17.3915 33.7551 17.5808 33.7551C17.4313 33.9965 17.2419 34.2142 17.0127 34.408C17.1552 34.5332 17.2184 34.6886 17.2021 34.8744C16.9259 34.8619 16.6734 34.924 16.4446 35.0609C16.0368 34.7179 15.5319 34.5313 14.9297 34.5013C15.2453 34.1903 15.5609 33.8795 15.8765 33.5685C15.9687 33.75 16.0634 33.9366 16.1606 34.1282C16.3678 33.8338 16.5256 33.5228 16.634 33.1954Z" fill="white"/>
<path fill-rule="evenodd" clip-rule="evenodd" d="M30.0791 35.0607C30.2052 35.2472 30.3312 35.4338 30.4573 35.6203C30.5203 35.869 30.5835 36.1178 30.6465 36.3665C30.5818 36.5228 30.4558 36.5851 30.2682 36.5531C30.1566 36.3169 30.0628 36.3707 29.9852 36.1093C29.9455 36.4 29.9126 36.3843 29.7632 36.5912C29.87 36.1475 29.8076 35.8465 29.8899 35.4338C29.9852 35.3208 30.1116 35.2457 30.0791 35.0607Z" fill="white"/>
<path fill-rule="evenodd" clip-rule="evenodd" d="M14.1727 35.4338C14.6145 35.4338 15.0564 35.4338 15.4983 35.4338C15.6245 35.4338 15.7507 35.4338 15.877 35.4338C16.1781 35.9851 16.115 36.4826 15.6876 36.9262C14.881 36.7839 14.2498 36.3798 13.7939 35.7137C13.9674 35.6618 14.0936 35.5685 14.1727 35.4338Z" fill="white"/>
<path fill-rule="evenodd" clip-rule="evenodd" d="M32.9201 35.4338C33.1095 35.4338 33.2988 35.4338 33.4882 35.4338C33.9612 35.5424 34.403 35.5424 34.8138 35.4338C34.8348 35.5489 34.8979 35.6422 35.0032 35.7137C34.5473 36.3798 33.9162 36.7839 33.1095 36.9262C32.6821 36.4826 32.619 35.9851 32.9201 35.4338Z" fill="white"/>
<path fill-rule="evenodd" clip-rule="evenodd" d="M16.4676 35.0143C16.5794 35.1357 16.6831 35.3066 16.8237 35.4338C16.6138 35.7071 16.7084 35.8937 17.1078 35.9935C17.2016 35.6254 17.2331 35.2523 17.2024 34.8742C17.2656 34.8742 17.3287 34.8742 17.3918 34.8742C17.6385 35.4113 18.0172 35.5355 18.528 35.2473C18.4018 35.6204 18.2755 35.9935 18.1493 36.3666C18.004 36.4919 17.8777 36.6473 17.7706 36.8329C18.0049 36.8762 18.1943 36.9695 18.3387 37.1128C18.1438 37.2295 17.9544 37.3849 17.7706 37.5791C18.2385 37.6109 18.6804 37.7662 19.0961 38.0455C18.5772 38.4298 18.0091 38.7406 17.3918 38.9783C17.3993 38.7762 17.4624 38.5897 17.5812 38.4186C17.1509 38.3003 16.8352 38.0515 16.6343 37.6724C16.9523 37.5993 17.2679 37.506 17.5812 37.3926C17.8337 37.2682 17.8337 37.1439 17.5812 37.0195C16.9357 37.0631 16.3045 37.0322 15.6875 36.9262C16.1148 36.4826 16.178 35.9851 15.8769 35.4338C16.0223 35.2915 16.1124 34.9822 16.1563 34.7515C16.2288 34.8552 16.3507 34.9936 16.4676 35.0143Z" fill="white"/>
<path fill-rule="evenodd" clip-rule="evenodd" d="M17.2009 34.8744C17.2315 35.2525 17.2 35.6256 17.1063 35.9937C16.7075 35.8939 16.6129 35.7073 16.8226 35.434C16.6821 35.3068 16.556 35.1824 16.4443 35.0609C16.6728 34.924 16.925 34.8619 17.2009 34.8744Z" fill="#1E1D1D"/>
<path fill-rule="evenodd" clip-rule="evenodd" d="M18.1492 36.3666C18.2755 36.4287 18.4017 36.491 18.528 36.5531C18.5117 36.7389 18.5749 36.8943 18.7173 37.0195C18.6048 37.1061 18.4785 37.1372 18.3386 37.1128C18.1942 36.9695 18.0049 36.8762 17.7705 36.8329C17.8777 36.6473 18.0039 36.4919 18.1492 36.3666Z" fill="#1E1D1D"/>
<path fill-rule="evenodd" clip-rule="evenodd" d="M30.6469 36.3666C30.7919 36.4919 30.9181 36.6473 31.0251 36.8329C30.7289 36.9464 30.4766 37.1019 30.2686 37.2993C30.1071 37.0881 30.1071 36.8395 30.2686 36.5531C30.4562 36.5852 30.5822 36.5229 30.6469 36.3666Z" fill="#1E1D1D"/>
<path fill-rule="evenodd" clip-rule="evenodd" d="M31.4053 34.8738C31.4683 34.8738 31.5316 34.8738 31.5946 34.8738C31.3806 36.1032 31.6963 36.2897 32.5415 35.4335C32.4727 35.306 32.3556 35.0476 32.298 34.9263C32.4149 34.9056 32.5368 34.811 32.6093 34.7073C32.6532 34.938 32.7748 35.2911 32.9202 35.4335C32.6191 35.9847 32.6822 36.4822 33.1096 36.9258C32.4926 37.0318 31.8614 37.0628 31.2159 37.0191C30.9811 37.4804 30.6654 37.5737 30.269 37.2989C30.4773 37.1016 30.73 36.946 31.0265 36.8326C30.9193 36.6469 30.793 36.4916 30.6478 36.3662C30.5847 36.1175 30.5215 35.8687 30.4584 35.62C30.6154 35.4648 30.7731 35.5269 30.9318 35.8066C31.0011 35.4424 31.1589 35.1316 31.4053 34.8738Z" fill="white"/>
<path d="M43.7144 31.1433C43.7144 31.1433 42.3871 28.8693 41.5366 27.4123M41.5366 27.4123C41.0894 27.0892 41.0894 26.3363 41.5366 26.0132C41.8646 25.7762 42.196 25.6895 42.5782 25.8267C42.877 25.9339 43.1349 26.1841 43.2409 26.4796C43.3914 26.8988 42.984 27.2177 42.5782 27.4123C42.2124 27.5877 41.9023 27.5877 41.5366 27.4123Z" stroke="#1E1D1D" stroke-width="0.191155"/>
<path fill-rule="evenodd" clip-rule="evenodd" d="M31.5951 34.8744C31.8714 34.8619 32.1238 34.924 32.3526 35.0609C32.4102 35.1822 32.4732 35.3066 32.542 35.434C31.6968 36.2903 31.3811 36.1037 31.5951 34.8744Z" fill="#1E1D1D"/>
<path fill-rule="evenodd" clip-rule="evenodd" d="M18.907 35.8075C18.8745 35.9926 18.9376 36.1168 19.0963 36.1806C19.2835 36.6621 19.4729 37.1596 19.6644 37.673C19.5277 37.869 19.3383 37.9935 19.0963 38.0461C18.9806 37.6217 18.7281 37.3109 18.3389 37.1133C18.4788 37.1378 18.605 37.1066 18.7176 37.0201C18.5751 36.8949 18.512 36.7395 18.5282 36.5537C18.6208 36.2748 18.747 36.0259 18.907 35.8075Z" fill="white"/>
<path fill-rule="evenodd" clip-rule="evenodd" d="M30.2692 36.5537C30.1075 36.84 30.1075 37.0887 30.2692 37.2999C29.9418 37.4372 29.7524 37.686 29.7011 38.0461C29.5118 38.0461 29.3749 38.0374 29.1855 38.0374C29.5493 37.5469 29.5858 37.2051 29.7636 36.5537C29.8526 36.2852 29.9454 36.0981 29.9852 35.8075C30.0628 36.0688 30.1575 36.3175 30.2692 36.5537Z" fill="white"/>
<path fill-rule="evenodd" clip-rule="evenodd" d="M18.3386 37.1129C18.7278 37.3105 18.9803 37.6213 19.0961 38.0457C18.6803 37.7664 18.2385 37.611 17.7705 37.5793C17.9544 37.3851 18.1438 37.2297 18.3386 37.1129Z" fill="#1E1D1D"/>
<path d="M16.7143 37.6307L16.6689 37.545L16.587 37.5969C16.0783 37.9187 15.7072 38.1906 15.4783 38.4121C15.3643 38.5223 15.2804 38.625 15.2339 38.7196C15.1871 38.8149 15.172 38.9167 15.2245 39.0072C15.2739 39.0924 15.3695 39.1422 15.4804 39.1723C15.5939 39.203 15.7411 39.2179 15.9188 39.2193C16.2748 39.2221 16.7717 39.1708 17.4069 39.0672L17.4795 39.0553L17.4822 38.9819C17.489 38.7976 17.5463 38.6275 17.6556 38.4701L17.7279 38.366L17.6056 38.3324C17.1981 38.2204 16.9031 37.9869 16.7143 37.6307Z" fill="white" stroke="#1E1D1D" stroke-width="0.179547"/>
<path fill-rule="evenodd" clip-rule="evenodd" d="M32.163 37.6722C31.962 38.0513 31.6464 38.3001 31.2161 38.4184C31.3349 38.5895 31.3981 38.776 31.4055 38.978C30.7881 38.7404 30.22 38.4296 29.7012 38.0453C29.9004 38.0731 30.0898 38.0421 30.2693 37.952C30.0428 37.83 30.0428 37.7368 30.2693 37.6722C30.8754 37.564 31.5068 37.564 32.163 37.6722Z" fill="white" stroke="#1E1D1D" stroke-width="0.179547"/>
<path fill-rule="evenodd" clip-rule="evenodd" d="M32.1627 37.6727C34.1923 38.9567 33.9397 39.392 31.4052 38.9786C31.3978 38.7765 31.3346 38.59 31.2158 38.4189C31.6461 38.3006 31.9617 38.0518 32.1627 37.6727Z" fill="white" fill-opacity="0.5" stroke="#1E1D1D" stroke-width="0.179547"/>
<path fill-rule="evenodd" clip-rule="evenodd" d="M19.8531 38.0457C20.2895 38.5383 20.7313 39.0359 21.1787 39.538C20.8895 39.5244 20.7002 39.6488 20.6106 39.9111C20.3581 39.9111 20.1056 39.9111 19.8531 39.9111C19.6103 39.5977 19.2947 39.3491 18.9062 39.1649C18.9062 38.9784 18.9062 38.7918 18.9062 38.6053C19.386 38.6503 19.7016 38.4637 19.8531 38.0457Z" fill="#1E1D1D"/>
<path fill-rule="evenodd" clip-rule="evenodd" d="M28.9437 38.4188C29.1316 38.3867 29.2577 38.449 29.3225 38.6054C29.3371 38.8386 29.4634 38.994 29.7012 39.0717C29.4192 39.3456 29.1666 39.6254 28.9437 39.9112C28.6913 39.9112 28.4387 39.9112 28.1863 39.9112C28.0967 39.6489 27.9073 39.5245 27.6182 39.5381C28.0637 39.1607 28.5055 38.7876 28.9437 38.4188Z" fill="#1E1D1D"/>
<path fill-rule="evenodd" clip-rule="evenodd" d="M29.3221 38.605C29.5115 38.605 29.7008 38.605 29.8902 38.605C30.2269 39.34 30.795 39.8685 31.5945 40.1906C31.415 40.2807 31.2256 40.3117 31.0264 40.2839C30.3701 39.9869 29.6756 39.8627 28.9434 39.9108C29.1662 39.625 29.4189 39.3452 29.7008 39.0714C29.463 38.9936 29.3367 38.8382 29.3221 38.605Z" fill="white"/>
<path fill-rule="evenodd" clip-rule="evenodd" d="M19.8536 39.9112C20.1061 39.9112 20.3586 39.9112 20.6111 39.9112C21.6217 40.2381 22.5369 40.7356 23.3569 41.4036C23.9034 41.0921 23.9349 40.7811 23.4516 40.4709C24.0828 40.4709 24.7141 40.4709 25.3453 40.4709C25.3453 40.5953 25.2822 40.6574 25.1559 40.6574C24.9035 40.6574 24.6509 40.6574 24.3984 40.6574C24.3984 40.9684 24.3984 41.2792 24.3984 41.5902C24.2507 42.1619 23.872 42.4729 23.2622 42.5229C22.5017 42.2103 21.7442 41.8993 20.9898 41.5902C20.6585 41.2361 20.2482 40.9874 19.7589 40.844C19.3267 41.0714 18.8848 41.0714 18.4333 40.844C18.0385 40.9604 17.6913 41.1469 17.3918 41.4036C17.3713 41.0279 17.4975 40.7171 17.7705 40.4709C18.3883 40.0269 19.0827 39.8404 19.8536 39.9112Z" fill="white"/>
<path fill-rule="evenodd" clip-rule="evenodd" d="M18.9065 39.165C19.2949 39.3492 19.6105 39.5978 19.8533 39.9112C19.0824 39.8403 18.388 40.0269 17.7703 40.4709C17.6259 40.3276 17.4365 40.2343 17.2021 40.1911C17.8018 39.876 18.3699 39.534 18.9065 39.165Z" fill="white"/>
<path fill-rule="evenodd" clip-rule="evenodd" d="M21.1789 39.538C21.8416 40.0503 22.599 40.3612 23.4514 40.4707C23.9346 40.781 23.9032 41.0919 23.3567 41.4035C22.5367 40.7354 21.6215 40.2379 20.6108 39.9111C20.7004 39.6488 20.8898 39.5244 21.1789 39.538Z" fill="white"/>
<path fill-rule="evenodd" clip-rule="evenodd" d="M27.6171 39.538C27.9062 39.5244 28.0956 39.6488 28.1852 39.9111C27.2754 40.2715 26.4233 40.7688 25.6287 41.4035C25.3482 41.2223 25.1903 40.9737 25.1553 40.6573C25.2816 40.6573 25.3446 40.5952 25.3446 40.4707C26.2407 40.447 26.9982 40.1363 27.6171 39.538Z" fill="white"/>
<path fill-rule="evenodd" clip-rule="evenodd" d="M28.1858 39.9108C28.4382 39.9108 28.6909 39.9108 28.9433 39.9108C29.6756 39.8627 30.37 39.9869 31.0263 40.2839C31.2045 40.5731 31.3306 40.8839 31.4051 41.2167C30.9714 40.8736 30.5296 40.8115 30.0795 41.0301C29.8901 41.0301 29.7008 41.0301 29.5114 41.0301C28.9012 40.8717 28.3962 41.0583 27.9964 41.5898C27.2198 41.9256 26.4307 42.2363 25.6293 42.5225C25.0792 42.3841 24.6689 42.0731 24.3984 41.5898C24.3984 41.2788 24.3984 40.968 24.3984 40.657C24.6509 40.657 24.9035 40.657 25.1559 40.657C25.1909 40.9734 25.3489 41.2221 25.6293 41.4032C26.4239 40.7686 27.2761 40.2712 28.1858 39.9108Z" fill="white"/>
<path fill-rule="evenodd" clip-rule="evenodd" d="M20.9896 41.5901C21.0492 41.912 21.0807 42.223 21.0843 42.5228C20.4539 41.6727 19.728 41.5794 18.9065 42.243C18.0242 42.551 17.5193 42.2712 17.3916 41.4035C17.7124 41.1033 18.0237 40.8843 18.4331 40.8439C19.0465 40.9281 19.2243 40.9281 19.7587 40.8439C20.336 40.8843 20.6583 41.236 20.9896 41.5901Z" fill="white"/>
<path fill-rule="evenodd" clip-rule="evenodd" d="M29.512 41.0301C29.7638 41.0301 30.163 41.018 30.0801 41.0301C30.9199 40.7088 31.0533 40.9278 31.4056 41.2166C31.6264 41.9382 31.3108 42.3113 30.4588 42.3359C29.9594 42.1602 29.4544 41.9737 28.9438 41.7763C28.5219 41.9104 28.1748 42.1591 27.9023 42.5225C27.8296 42.2059 27.861 41.8951 27.997 41.5897C28.3968 41.0583 28.6076 40.8402 29.512 41.0301Z" fill="white"/>
<path d="M21.4468 37.3925V35.6285H21.6922V37.2283H22.1134V35.6285H22.3588V37.2283H22.7799V35.6285H23.0254V37.3925H21.4468Z" fill="#1E1D1D"/>
<path d="M23.2489 37.3925V35.6285H23.4822V36.4195H23.5973L23.9851 35.6285H24.2427L23.8124 36.4792L24.2548 37.3925H23.9942L23.6094 36.5776H23.4822V37.3925H23.2489Z" fill="#1E1D1D"/>
<path d="M24.7446 37.4283C24.6537 37.4283 24.5739 37.4174 24.5052 37.3955C24.4365 37.3756 24.382 37.3328 24.3416 37.2671C24.3012 37.2015 24.281 37.103 24.281 36.9716V35.9986C24.281 35.8892 24.3012 35.8066 24.3416 35.7509C24.382 35.6932 24.4365 35.6544 24.5052 35.6345C24.5759 35.6146 24.6567 35.6046 24.7476 35.6046C24.8385 35.6046 24.9183 35.6156 24.9869 35.6374C25.0576 35.6573 25.1132 35.6952 25.1536 35.7509C25.194 35.8066 25.2142 35.8892 25.2142 35.9986V36.9716C25.2142 37.105 25.194 37.2044 25.1536 37.2701C25.1132 37.3338 25.0576 37.3756 24.9869 37.3955C24.9163 37.4174 24.8355 37.4283 24.7446 37.4283ZM24.7446 37.288C24.791 37.288 24.8314 37.2821 24.8658 37.2701C24.9021 37.2582 24.9304 37.2353 24.9506 37.2015C24.9708 37.1656 24.9809 37.1129 24.9809 37.0433V35.9926C24.9809 35.925 24.9708 35.8742 24.9506 35.8404C24.9304 35.8046 24.9021 35.7807 24.8658 35.7688C24.8314 35.7568 24.791 35.7509 24.7446 35.7509C24.6981 35.7509 24.6577 35.7568 24.6234 35.7688C24.589 35.7807 24.5618 35.8046 24.5416 35.8404C24.5214 35.8742 24.5113 35.925 24.5113 35.9926V37.0433C24.5113 37.1129 24.5214 37.1656 24.5416 37.2015C24.5618 37.2353 24.589 37.2582 24.6234 37.2701C24.6577 37.2821 24.6981 37.288 24.7446 37.288Z" fill="#1E1D1D"/>
<path d="M25.2817 37.3925V37.2671C25.3201 37.2671 25.3535 37.2482 25.3817 37.2104C25.412 37.1706 25.4302 37.1149 25.4363 37.0433L25.5332 35.6285H26.418V37.3925H26.1847V35.7956H25.7635L25.6665 37.106C25.6645 37.1338 25.6605 37.1647 25.6544 37.1985C25.6504 37.2303 25.6403 37.2602 25.6241 37.288C25.61 37.3159 25.5868 37.3398 25.5544 37.3597C25.5241 37.3796 25.4807 37.3905 25.4242 37.3925H25.2817Z" fill="#1E1D1D"/>
<path d="M26.4565 37.3925L26.8322 35.6285H27.1473L27.52 37.3925H27.2624L27.1776 37.0045H26.7837L26.7049 37.3925H26.4565ZM26.7928 36.8851H27.1715L26.9837 35.8792L26.7928 36.8851Z" fill="#1E1D1D"/>
<path d="M5.27246 31.1434C5.27246 31.1434 6.59974 28.8695 7.4502 27.4124M7.4502 27.4124C7.61824 27.088 7.61824 26.8042 7.4502 26.4797C7.25422 26.1013 6.93038 25.861 6.50336 25.9201C5.88954 26.005 5.57441 26.9983 6.02993 27.4124M7.4502 27.4124C6.88209 27.7855 6.59804 27.8788 6.02993 27.4124M6.02993 27.4124C5.46183 26.6662 5.6512 25.6402 6.2193 24.894" stroke="#1E1D1D" stroke-width="0.191155"/>
<path d="M43.2522 26.7975C43.2522 26.7975 43.3354 26.1123 43.2241 25.7798C43.1462 25.5469 42.957 25.0806 42.957 25.0806" stroke="#1E1D1D" stroke-width="0.191155"/>
<g clip-path="url(#clip0_555_4058)">
<path d="M16.4019 8.07117C16.3864 8.1112 16.3647 9.72194 16.3554 11.653C16.343 13.584 16.3275 15.4812 16.3213 15.8723C16.312 16.2604 16.3058 17.3291 16.3058 18.2438L16.3027 19.9069L17.0247 19.9254C17.4214 19.9377 17.8862 19.9623 18.0566 19.9777C18.227 19.9962 18.6608 20.0424 19.0172 20.0763L19.6679 20.1409L20.8609 20.5259C22.3266 21.0033 22.5559 21.0803 22.6768 21.1542C22.7325 21.185 22.9061 21.2682 23.0641 21.3359C23.2252 21.4068 23.4452 21.5176 23.5568 21.5823C23.8171 21.7332 24.2912 21.9488 24.4244 21.9734L24.5267 21.995L24.5081 16.978C24.4957 14.2185 24.4864 11.5575 24.4864 11.0678V10.1716L24.1487 10.0145C23.9627 9.92521 23.69 9.8205 23.5382 9.77738C23.3864 9.73426 23.0269 9.58027 22.7356 9.4386C22.2244 9.18606 21.961 9.07826 21.6046 8.97355C21.5117 8.94583 21.366 8.89655 21.2824 8.86268C21.1987 8.83188 21.115 8.80416 21.0964 8.80416C21.0778 8.80416 20.9849 8.76412 20.8919 8.71485C20.799 8.66557 20.6378 8.60397 20.5356 8.57317C20.4333 8.54546 20.266 8.49618 20.1637 8.46538C20.0615 8.43458 19.8538 8.38531 19.6989 8.35759C19.5471 8.32987 19.3364 8.28675 19.2341 8.26519C19.1319 8.24055 18.7352 8.1728 18.351 8.11428C17.7405 8.02189 17.5794 8.00649 17.0402 8.00341C16.4298 8.00033 16.4298 8.00033 16.4019 8.07117Z" fill="#ADADAD"/>
<path d="M31.2729 8.0555C30.0799 8.25261 29.4788 8.36964 29.1813 8.46204C29.079 8.49592 28.9458 8.52979 28.8869 8.53903C28.8249 8.54827 28.6731 8.60679 28.5461 8.66839C28.419 8.72998 28.0689 8.86241 27.7714 8.96405C27.2539 9.14268 26.9161 9.29051 26.408 9.56153C26.2809 9.63237 26.0423 9.72476 25.8812 9.77096C25.72 9.82023 25.435 9.93419 25.2521 10.0297L24.9175 10.2052V14.0704C24.9206 17.4982 24.9485 21.9547 24.9671 21.9793C24.9857 22.004 25.4598 21.7945 25.6488 21.6775C26.4606 21.1724 27.948 20.5873 29.4447 20.1807C30.2844 19.9528 30.5633 19.9189 31.8555 19.9005L32.9214 19.8851L32.8997 16.4757C32.8873 14.6032 32.875 13.014 32.8688 12.9462C32.8626 12.8785 32.8533 11.7698 32.8502 10.4824C32.8471 9.19503 32.8347 8.11094 32.8192 8.0709L32.7913 8.00007L32.1654 8.00623C31.8059 8.01239 31.4217 8.03394 31.2729 8.0555Z" fill="#ADADAD"/>
<path d="M15.2532 11.7208C15.2532 13.3285 15.2439 16.0572 15.2315 17.785L15.2129 20.9326L15.4887 20.951C16.1518 20.9972 16.6507 21.0373 16.8955 21.0619C17.0411 21.0773 17.3045 21.0989 17.4842 21.1081C17.9862 21.1358 18.0947 21.1481 18.4603 21.2128C19.548 21.4068 20.93 21.7395 21.3421 21.9058C21.4971 21.9704 21.8007 22.0844 22.0207 22.1583C22.2408 22.2353 22.5506 22.3523 22.7056 22.4201C23.1952 22.6264 24.3107 22.9098 24.6392 22.9098C24.7476 22.9098 24.887 22.8975 24.949 22.879C25.011 22.8636 25.1876 22.8205 25.3395 22.7866C25.8198 22.6757 26.2567 22.5402 26.5634 22.4109C26.7246 22.3431 26.9756 22.2476 27.1212 22.2014C27.2669 22.1552 27.5829 22.0382 27.8246 21.9427C28.0694 21.8473 28.3266 21.7579 28.3979 21.7425C28.4723 21.7271 28.7542 21.6594 29.0269 21.5916C29.2996 21.5208 29.6405 21.4438 29.7861 21.4161C29.9317 21.3884 30.1332 21.3452 30.2354 21.3175C30.5453 21.2405 31.3386 21.1235 31.5586 21.1235C31.6763 21.1235 31.9676 21.105 32.2093 21.0804C32.4541 21.0557 32.8476 21.0219 33.0862 21.0034C33.3248 20.9849 33.6347 20.9633 33.7772 20.951L34.0313 20.9326L34.0282 15.0901C34.0282 11.8779 34.0189 9.14919 34.0096 9.026L33.991 8.80425H33.5913H33.1885L33.2071 10.3349C33.2164 11.1788 33.235 13.7412 33.2443 16.0295L33.2659 20.1903L32.8197 20.2088C31.8405 20.2458 30.8242 20.3443 30.2509 20.4521C29.9782 20.5014 28.8193 20.8186 28.7232 20.8679C28.6737 20.8925 28.3266 21.028 27.9486 21.1697C27.5705 21.3114 27.0159 21.5424 26.7153 21.6871C26.4178 21.8319 26.0831 21.9858 25.9716 22.0259C25.8631 22.069 25.6462 22.1645 25.4913 22.2446C25.3364 22.3215 25.1938 22.3862 25.1783 22.3862C25.1597 22.3862 25.1133 22.4139 25.0699 22.4447C25.0296 22.4786 24.9211 22.5248 24.8282 22.5525C24.6794 22.5956 24.6392 22.5956 24.5152 22.5587C24.3045 22.494 23.9079 22.3277 23.6971 22.2138C23.5949 22.1583 23.4214 22.0782 23.3098 22.0351C23.1983 21.9951 22.8574 21.8411 22.5506 21.6933C22.2439 21.5454 21.6706 21.3021 21.2771 21.1543C20.8835 21.0065 20.5303 20.8679 20.4931 20.8463C20.4528 20.8278 20.2111 20.757 19.9539 20.6892C19.6936 20.6215 19.4333 20.5507 19.3745 20.5322C19.046 20.4367 18.2062 20.3197 17.4997 20.2766C17.3293 20.2642 17.0566 20.2427 16.8955 20.2273C16.7344 20.215 16.4648 20.1996 16.2943 20.1996H15.9907L16.0093 18.3578C16.0186 17.3477 16.0371 14.7822 16.0464 12.6602L16.0681 8.80425H15.6591H15.2532V11.7208Z" fill="#ADADAD"/>
<path d="M14.1995 11.6347C14.1995 12.4755 14.1933 15.2196 14.184 17.7358C14.1778 20.252 14.1778 22.374 14.1871 22.4571C14.2026 22.5803 14.2243 22.6173 14.3142 22.685L14.4257 22.7682L15.3429 22.7744C16.5049 22.7805 17.6484 22.8637 18.894 23.0331C19.0149 23.0485 19.4177 23.0977 19.7927 23.1409C20.1676 23.1871 20.7037 23.2702 20.9857 23.3256C22.1353 23.5597 23.9232 23.9293 24.0689 23.9662C24.1618 23.9878 24.4438 24.0001 24.7661 24.0001C25.2712 24.0001 25.3455 23.9909 25.8351 23.8862C28.8037 23.2548 28.9307 23.2302 30.3902 23.0515C32.203 22.8298 32.9498 22.7744 34.087 22.7713H34.9949L35.0693 22.6512C35.1096 22.5865 35.1498 22.4695 35.1622 22.3894C35.187 22.2539 35.1839 10.1625 35.1622 10.1286C35.156 10.1194 34.9794 10.1102 34.7687 10.1132H34.3876L34.3938 12.2229C34.4 13.384 34.4124 15.9218 34.4216 17.8621L34.4402 21.3884L33.7647 21.4285C31.9799 21.527 31.7165 21.5517 31.01 21.681C30.4367 21.7888 29.6156 22.0075 28.9958 22.22C27.7718 22.6419 25.7484 23.2948 25.2402 23.4334C25.0976 23.4735 24.9396 23.5351 24.8838 23.5751C24.763 23.6644 24.7289 23.6675 24.6607 23.5905C24.605 23.5289 24.4407 23.4612 24.1928 23.4026C23.9263 23.338 21.8285 22.6727 20.8369 22.3401C18.9126 21.6933 18.1318 21.5517 15.8883 21.4439C15.6497 21.4316 15.4328 21.4192 15.408 21.4131C15.3832 21.41 15.2655 21.4038 15.1508 21.4038L14.9401 21.4008L14.9649 17.5726C14.9773 15.469 14.9897 12.9282 14.9897 11.9303V10.1132L14.5961 10.1102L14.1995 10.1071V11.6347Z" fill="#ADADAD"/>
</g>
<defs>
<clipPath id="clip0_555_4058">
<rect width="22" height="16.0001" fill="white" transform="translate(14 8)"/>
</clipPath>
</defs>
</svg>
