<svg width="50" height="50" viewBox="0 0 50 50" fill="none" xmlns="http://www.w3.org/2000/svg">
<path d="M8.46795 33.4921L8.50795 31.5921L8.62395 31.6001L8.57995 33.4921C8.57728 33.6335 8.60528 33.7455 8.66395 33.8281C8.72528 33.9108 8.81061 33.9521 8.91995 33.9521C8.92795 33.9521 8.93195 33.9601 8.93195 33.9761C8.93195 33.9921 8.92795 34.0001 8.91995 34.0001C8.86128 34.0001 8.80128 33.9988 8.73995 33.9961C8.67861 33.9935 8.60928 33.9921 8.53195 33.9921C8.44661 33.9921 8.36928 33.9935 8.29995 33.9961C8.23061 33.9988 8.16661 34.0001 8.10795 34.0001C8.09995 34.0001 8.09595 33.9921 8.09595 33.9761C8.09595 33.9601 8.09995 33.9521 8.10795 33.9521C8.21728 33.9521 8.30395 33.9108 8.36795 33.8281C8.43195 33.7455 8.46528 33.6335 8.46795 33.4921ZM11.3319 33.9521C11.3373 33.9521 11.3399 33.9601 11.3399 33.9761C11.3399 33.9921 11.3373 34.0001 11.3319 34.0001C11.2626 34.0001 11.1839 33.9988 11.0959 33.9961C11.0079 33.9935 10.9159 33.9921 10.8199 33.9921C10.7213 33.9921 10.6293 33.9935 10.5439 33.9961C10.4586 33.9988 10.3813 34.0001 10.3119 34.0001C10.3039 34.0001 10.2999 33.9921 10.2999 33.9761C10.2999 33.9601 10.3039 33.9521 10.3119 33.9521C10.4373 33.9521 10.5173 33.9348 10.5519 33.9001C10.5893 33.8655 10.6039 33.7908 10.5959 33.6761L10.5039 31.9001L10.7079 31.5801L9.68795 33.9721C9.68528 33.9828 9.67461 33.9881 9.65595 33.9881C9.63995 33.9881 9.62928 33.9828 9.62395 33.9721L8.49995 31.8321C8.39861 31.6428 8.27728 31.5481 8.13595 31.5481C8.12795 31.5481 8.12395 31.5401 8.12395 31.5241C8.12395 31.5081 8.12795 31.5001 8.13595 31.5001C8.19195 31.5001 8.25061 31.5015 8.31195 31.5041C8.37328 31.5068 8.42528 31.5081 8.46795 31.5081C8.53728 31.5081 8.59728 31.5068 8.64795 31.5041C8.70128 31.5015 8.74261 31.5001 8.77195 31.5001C8.80928 31.5001 8.83728 31.5135 8.85595 31.5401C8.87728 31.5668 8.91061 31.6228 8.95595 31.7081L9.85195 33.3881L9.65195 33.7481L10.5879 31.6001C10.6039 31.5628 10.6199 31.5375 10.6359 31.5241C10.6546 31.5081 10.6786 31.5001 10.7079 31.5001C10.7346 31.5001 10.7626 31.5015 10.7919 31.5041C10.8213 31.5068 10.8559 31.5081 10.8959 31.5081C10.9813 31.5081 11.0533 31.5068 11.1119 31.5041C11.1733 31.5015 11.2333 31.5001 11.2919 31.5001C11.2999 31.5001 11.3039 31.5081 11.3039 31.5241C11.3039 31.5401 11.2999 31.5481 11.2919 31.5481C11.1693 31.5481 11.0786 31.5735 11.0199 31.6241C10.9639 31.6748 10.9386 31.7535 10.9439 31.8601L11.0399 33.6761C11.0453 33.7535 11.0546 33.8121 11.0679 33.8521C11.0839 33.8921 11.1119 33.9188 11.1519 33.9321C11.1919 33.9455 11.2519 33.9521 11.3319 33.9521Z" fill="white"/>
<path d="M12.6976 34.0161C12.6523 34.0161 12.5936 34.0135 12.5216 34.0081C12.4523 34.0055 12.3803 34.0028 12.3056 34.0001C12.231 33.9948 12.163 33.9921 12.1016 33.9921C12.0056 33.9921 11.9136 33.9935 11.8256 33.9961C11.7403 33.9988 11.663 34.0001 11.5936 34.0001C11.5856 34.0001 11.5816 33.9921 11.5816 33.9761C11.5816 33.9601 11.5856 33.9521 11.5936 33.9521C11.6763 33.9521 11.7376 33.9455 11.7776 33.9321C11.8176 33.9188 11.8443 33.8921 11.8576 33.8521C11.8736 33.8121 11.8816 33.7535 11.8816 33.6761V31.8241C11.8816 31.7468 11.875 31.6895 11.8616 31.6521C11.8483 31.6121 11.8216 31.5855 11.7816 31.5721C11.7416 31.5561 11.6803 31.5481 11.5976 31.5481C11.5923 31.5481 11.5896 31.5401 11.5896 31.5241C11.5896 31.5081 11.5923 31.5001 11.5976 31.5001H13.2736C13.311 31.5001 13.3336 31.5055 13.3416 31.5161C13.3523 31.5268 13.3576 31.5548 13.3576 31.6001L13.3896 32.2081C13.3896 32.2161 13.383 32.2201 13.3696 32.2201C13.3563 32.2201 13.347 32.2161 13.3416 32.2081C13.3016 31.9975 13.227 31.8428 13.1176 31.7441C13.0083 31.6428 12.875 31.5921 12.7176 31.5921H12.5496C12.4936 31.5921 12.4496 31.6001 12.4176 31.6161C12.3856 31.6321 12.363 31.6588 12.3496 31.6961C12.3363 31.7308 12.3296 31.7815 12.3296 31.8481V33.6761C12.3296 33.7215 12.3363 33.7628 12.3496 33.8001C12.363 33.8348 12.3896 33.8628 12.4296 33.8841C12.4723 33.9055 12.5363 33.9161 12.6216 33.9161C12.803 33.9161 12.9336 33.8681 13.0136 33.7721C13.0936 33.6761 13.1336 33.5428 13.1336 33.3721C13.1336 33.2148 13.107 33.0868 13.0536 32.9881C13.003 32.8895 12.931 32.8175 12.8376 32.7721C12.7443 32.7241 12.635 32.7001 12.5096 32.7001C12.4536 32.7001 12.395 32.7055 12.3336 32.7161C12.2723 32.7241 12.2083 32.7361 12.1416 32.7521L12.1176 32.6601C12.203 32.6361 12.291 32.6188 12.3816 32.6081C12.475 32.5948 12.5643 32.5881 12.6496 32.5881C12.8203 32.5881 12.9776 32.6135 13.1216 32.6641C13.2656 32.7121 13.3816 32.7868 13.4696 32.8881C13.5576 32.9868 13.6016 33.1148 13.6016 33.2721C13.6016 33.4135 13.563 33.5401 13.4856 33.6521C13.4083 33.7641 13.3016 33.8535 13.1656 33.9201C13.0296 33.9841 12.8736 34.0161 12.6976 34.0161Z" fill="white"/>
<path d="M15.2725 34.0481C15.0805 34.0481 14.9059 34.0148 14.7485 33.9481C14.5939 33.8788 14.4605 33.7841 14.3485 33.6641C14.2392 33.5441 14.1539 33.4068 14.0925 33.2521C14.0339 33.0948 14.0045 32.9281 14.0045 32.7521C14.0045 32.5361 14.0459 32.3468 14.1285 32.1841C14.2139 32.0215 14.3259 31.8868 14.4645 31.7801C14.6032 31.6708 14.7552 31.5895 14.9205 31.5361C15.0859 31.4828 15.2499 31.4561 15.4125 31.4561C15.6099 31.4561 15.7859 31.4921 15.9405 31.5641C16.0979 31.6335 16.2312 31.7281 16.3405 31.8481C16.4499 31.9681 16.5325 32.1041 16.5885 32.2561C16.6472 32.4081 16.6765 32.5641 16.6765 32.7241C16.6765 32.9108 16.6392 33.0841 16.5645 33.2441C16.4899 33.4041 16.3872 33.5441 16.2565 33.6641C16.1285 33.7841 15.9792 33.8788 15.8085 33.9481C15.6405 34.0148 15.4619 34.0481 15.2725 34.0481ZM15.4045 33.9481C15.5539 33.9481 15.6872 33.9055 15.8045 33.8201C15.9219 33.7348 16.0139 33.6095 16.0805 33.4441C16.1499 33.2788 16.1845 33.0775 16.1845 32.8401C16.1845 32.5948 16.1472 32.3761 16.0725 32.1841C15.9979 31.9921 15.8912 31.8415 15.7525 31.7321C15.6139 31.6201 15.4472 31.5641 15.2525 31.5641C15.0099 31.5641 14.8232 31.6561 14.6925 31.8401C14.5619 32.0241 14.4965 32.2788 14.4965 32.6041C14.4965 32.7988 14.5192 32.9788 14.5645 33.1441C14.6099 33.3068 14.6725 33.4495 14.7525 33.5721C14.8352 33.6921 14.9312 33.7855 15.0405 33.8521C15.1525 33.9161 15.2739 33.9481 15.4045 33.9481Z" fill="white"/>
<path d="M17.6493 34.0481C17.54 34.0481 17.452 34.0241 17.3853 33.9761C17.3186 33.9281 17.2853 33.8655 17.2853 33.7881C17.2853 33.7375 17.3026 33.6908 17.3373 33.6481C17.372 33.6028 17.4253 33.5801 17.4973 33.5801C17.5613 33.5801 17.608 33.5961 17.6373 33.6281C17.6666 33.6575 17.688 33.6921 17.7013 33.7321C17.7146 33.7721 17.728 33.8081 17.7413 33.8401C17.7573 33.8695 17.7826 33.8841 17.8173 33.8841C17.844 33.8841 17.8706 33.8708 17.8973 33.8441C17.924 33.8148 17.9546 33.7588 17.9893 33.6761L18.7373 31.9241C18.7826 31.8148 18.784 31.7255 18.7413 31.6561C18.6986 31.5841 18.616 31.5481 18.4933 31.5481C18.488 31.5481 18.4853 31.5401 18.4853 31.5241C18.4853 31.5081 18.488 31.5001 18.4933 31.5001C18.5626 31.5001 18.6293 31.5028 18.6933 31.5081C18.7573 31.5108 18.8413 31.5121 18.9453 31.5121C19.0013 31.5121 19.0453 31.5121 19.0773 31.5121C19.112 31.5095 19.144 31.5068 19.1733 31.5041C19.2053 31.5015 19.2466 31.5001 19.2973 31.5001C19.3053 31.5001 19.3093 31.5081 19.3093 31.5241C19.3093 31.5401 19.3053 31.5481 19.2973 31.5481C19.2226 31.5481 19.1426 31.5828 19.0573 31.6521C18.9746 31.7215 18.908 31.8121 18.8573 31.9241L18.1053 33.6721C18.0466 33.8081 17.984 33.9055 17.9173 33.9641C17.8506 34.0201 17.7613 34.0481 17.6493 34.0481ZM18.0733 33.5801L17.1733 31.8321C17.1226 31.7308 17.0746 31.6588 17.0293 31.6161C16.984 31.5708 16.9213 31.5481 16.8413 31.5481C16.836 31.5481 16.8333 31.5401 16.8333 31.5241C16.8333 31.5081 16.836 31.5001 16.8413 31.5001C16.8866 31.5001 16.9226 31.5015 16.9493 31.5041C16.976 31.5068 17.012 31.5095 17.0573 31.5121C17.1026 31.5121 17.176 31.5121 17.2773 31.5121C17.4026 31.5121 17.5013 31.5121 17.5733 31.5121C17.648 31.5095 17.7066 31.5068 17.7493 31.5041C17.7946 31.5015 17.8346 31.5001 17.8693 31.5001C17.8746 31.5001 17.8773 31.5081 17.8773 31.5241C17.8773 31.5401 17.8746 31.5481 17.8693 31.5481C17.7653 31.5481 17.692 31.5655 17.6493 31.6001C17.6066 31.6348 17.6093 31.6988 17.6573 31.7921L18.3013 33.1081L18.0733 33.5801Z" fill="white"/>
<path d="M20.4428 32.5401L20.3268 31.5761C20.3241 31.5521 20.3455 31.5295 20.3908 31.5081C20.4361 31.4868 20.4881 31.4695 20.5468 31.4561C20.6081 31.4428 20.6601 31.4375 20.7028 31.4401C20.7455 31.4401 20.7641 31.4508 20.7588 31.4721L20.5068 32.5361C20.5041 32.5415 20.4921 32.5455 20.4708 32.5481C20.4521 32.5508 20.4428 32.5481 20.4428 32.5401ZM21.0508 32.5401L20.9348 31.5761C20.9321 31.5521 20.9535 31.5295 20.9988 31.5081C21.0441 31.4868 21.0961 31.4695 21.1548 31.4561C21.2161 31.4428 21.2681 31.4375 21.3108 31.4401C21.3535 31.4401 21.3721 31.4508 21.3668 31.4721L21.1148 32.5361C21.1121 32.5415 21.1001 32.5455 21.0788 32.5481C21.0601 32.5508 21.0508 32.5481 21.0508 32.5401Z" fill="white"/>
<path d="M23.1058 31.4561C23.2178 31.4561 23.3378 31.4655 23.4658 31.4841C23.5965 31.5028 23.6992 31.5295 23.7738 31.5641C23.7978 31.5721 23.8138 31.5828 23.8218 31.5961C23.8298 31.6068 23.8352 31.6268 23.8378 31.6561L23.8858 32.2121C23.8858 32.2201 23.8792 32.2255 23.8658 32.2281C23.8552 32.2308 23.8472 32.2268 23.8418 32.2161C23.7538 32.0108 23.6338 31.8495 23.4818 31.7321C23.3325 31.6148 23.1552 31.5561 22.9498 31.5561C22.7712 31.5561 22.6192 31.6015 22.4938 31.6921C22.3712 31.7828 22.2778 31.9095 22.2138 32.0721C22.1525 32.2321 22.1218 32.4188 22.1218 32.6321C22.1218 32.8161 22.1445 32.9895 22.1898 33.1521C22.2352 33.3121 22.2992 33.4535 22.3818 33.5761C22.4645 33.6961 22.5632 33.7908 22.6778 33.8601C22.7925 33.9295 22.9192 33.9641 23.0578 33.9641C23.2285 33.9641 23.3805 33.9081 23.5138 33.7961C23.6498 33.6841 23.7712 33.5108 23.8778 33.2761C23.8832 33.2655 23.8925 33.2615 23.9058 33.2641C23.9192 33.2668 23.9258 33.2721 23.9258 33.2801L23.8658 33.8241C23.8605 33.8561 23.8538 33.8775 23.8458 33.8881C23.8405 33.8961 23.8258 33.9055 23.8018 33.9161C23.6792 33.9615 23.5552 33.9948 23.4298 34.0161C23.3072 34.0375 23.1872 34.0481 23.0698 34.0481C22.8112 34.0481 22.5898 34.0095 22.4058 33.9321C22.2218 33.8521 22.0712 33.7481 21.9538 33.6201C21.8392 33.4895 21.7538 33.3481 21.6978 33.1961C21.6445 33.0415 21.6178 32.8895 21.6178 32.7401C21.6178 32.5428 21.6578 32.3655 21.7378 32.2081C21.8205 32.0508 21.9312 31.9161 22.0698 31.8041C22.2112 31.6921 22.3698 31.6068 22.5458 31.5481C22.7245 31.4868 22.9112 31.4561 23.1058 31.4561Z" fill="white"/>
<path d="M25.5616 34.0481C25.3696 34.0481 25.1949 34.0148 25.0376 33.9481C24.8829 33.8788 24.7496 33.7841 24.6376 33.6641C24.5283 33.5441 24.4429 33.4068 24.3816 33.2521C24.3229 33.0948 24.2936 32.9281 24.2936 32.7521C24.2936 32.5361 24.3349 32.3468 24.4176 32.1841C24.5029 32.0215 24.6149 31.8868 24.7536 31.7801C24.8923 31.6708 25.0443 31.5895 25.2096 31.5361C25.3749 31.4828 25.5389 31.4561 25.7016 31.4561C25.8989 31.4561 26.0749 31.4921 26.2296 31.5641C26.3869 31.6335 26.5203 31.7281 26.6296 31.8481C26.7389 31.9681 26.8216 32.1041 26.8776 32.2561C26.9363 32.4081 26.9656 32.5641 26.9656 32.7241C26.9656 32.9108 26.9283 33.0841 26.8536 33.2441C26.7789 33.4041 26.6763 33.5441 26.5456 33.6641C26.4176 33.7841 26.2683 33.8788 26.0976 33.9481C25.9296 34.0148 25.7509 34.0481 25.5616 34.0481ZM25.6936 33.9481C25.8429 33.9481 25.9763 33.9055 26.0936 33.8201C26.2109 33.7348 26.3029 33.6095 26.3696 33.4441C26.4389 33.2788 26.4736 33.0775 26.4736 32.8401C26.4736 32.5948 26.4363 32.3761 26.3616 32.1841C26.2869 31.9921 26.1803 31.8415 26.0416 31.7321C25.9029 31.6201 25.7363 31.5641 25.5416 31.5641C25.2989 31.5641 25.1123 31.6561 24.9816 31.8401C24.8509 32.0241 24.7856 32.2788 24.7856 32.6041C24.7856 32.7988 24.8083 32.9788 24.8536 33.1441C24.8989 33.3068 24.9616 33.4495 25.0416 33.5721C25.1243 33.6921 25.2203 33.7855 25.3296 33.8521C25.4416 33.9161 25.5629 33.9481 25.6936 33.9481Z" fill="white"/>
<path d="M27.2801 34.0001C27.2748 34.0001 27.2721 33.9921 27.2721 33.9761C27.2721 33.9601 27.2748 33.9521 27.2801 33.9521C27.3708 33.9521 27.4374 33.9455 27.4801 33.9321C27.5254 33.9188 27.5561 33.8921 27.5721 33.8521C27.5881 33.8121 27.5961 33.7535 27.5961 33.6761V31.8241C27.5961 31.7468 27.5881 31.6895 27.5721 31.6521C27.5561 31.6121 27.5254 31.5855 27.4801 31.5721C27.4374 31.5561 27.3708 31.5481 27.2801 31.5481C27.2748 31.5481 27.2721 31.5401 27.2721 31.5241C27.2721 31.5081 27.2748 31.5001 27.2801 31.5001C27.3494 31.5001 27.4281 31.5028 27.5161 31.5081C27.6041 31.5108 27.6961 31.5121 27.7921 31.5121C27.9014 31.5121 28.0028 31.5108 28.0961 31.5081C28.1894 31.5028 28.2734 31.5001 28.3481 31.5001C28.3561 31.5001 28.3601 31.5081 28.3601 31.5241C28.3601 31.5401 28.3561 31.5481 28.3481 31.5481C28.2601 31.5481 28.1934 31.5561 28.1481 31.5721C28.1054 31.5855 28.0761 31.6121 28.0601 31.6521C28.0468 31.6895 28.0401 31.7468 28.0401 31.8241V33.6681C28.0401 33.7508 28.0428 33.8095 28.0481 33.8441C28.0561 33.8788 28.0734 33.9001 28.1001 33.9081C28.1294 33.9135 28.1761 33.9161 28.2401 33.9161H28.8481C28.9174 33.9161 28.9668 33.9121 28.9961 33.9041C29.0281 33.8935 29.0481 33.8708 29.0561 33.8361C29.0641 33.7988 29.0681 33.7428 29.0681 33.6681V31.8241C29.0681 31.7468 29.0601 31.6895 29.0441 31.6521C29.0308 31.6121 29.0014 31.5855 28.9561 31.5721C28.9108 31.5561 28.8441 31.5481 28.7561 31.5481C28.7481 31.5481 28.7441 31.5401 28.7441 31.5241C28.7441 31.5081 28.7481 31.5001 28.7561 31.5001C28.8014 31.5028 28.8601 31.5055 28.9321 31.5081C29.0041 31.5081 29.0734 31.5095 29.1401 31.5121C29.2094 31.5121 29.2601 31.5121 29.2921 31.5121C29.3908 31.5121 29.4854 31.5108 29.5761 31.5081C29.6694 31.5028 29.7534 31.5001 29.8281 31.5001C29.8334 31.5001 29.8361 31.5081 29.8361 31.5241C29.8361 31.5401 29.8334 31.5481 29.8281 31.5481C29.7401 31.5481 29.6734 31.5561 29.6281 31.5721C29.5828 31.5855 29.5521 31.6121 29.5361 31.6521C29.5201 31.6895 29.5121 31.7468 29.5121 31.8241V33.6681C29.5121 33.7508 29.5148 33.8095 29.5201 33.8441C29.5281 33.8788 29.5454 33.9001 29.5721 33.9081C29.6014 33.9135 29.6494 33.9161 29.7161 33.9161H30.3241C30.3988 33.9161 30.4508 33.9121 30.4801 33.9041C30.5094 33.8961 30.5268 33.8748 30.5321 33.8401C30.5401 33.8055 30.5441 33.7481 30.5441 33.6681V31.8241C30.5441 31.7468 30.5361 31.6895 30.5201 31.6521C30.5068 31.6121 30.4774 31.5855 30.4321 31.5721C30.3894 31.5561 30.3228 31.5481 30.2321 31.5481C30.2268 31.5481 30.2241 31.5401 30.2241 31.5241C30.2241 31.5081 30.2268 31.5001 30.2321 31.5001C30.3094 31.5001 30.3948 31.5028 30.4881 31.5081C30.5814 31.5108 30.6828 31.5121 30.7921 31.5121C30.8881 31.5121 30.9788 31.5108 31.0641 31.5081C31.1521 31.5028 31.2308 31.5001 31.3001 31.5001C31.3081 31.5001 31.3121 31.5081 31.3121 31.5241C31.3121 31.5401 31.3081 31.5481 31.3001 31.5481C31.2121 31.5481 31.1454 31.5561 31.1001 31.5721C31.0548 31.5855 31.0241 31.6121 31.0081 31.6521C30.9948 31.6895 30.9881 31.7468 30.9881 31.8241V33.6761C30.9881 33.7508 30.9961 33.8081 31.0121 33.8481C31.0281 33.8881 31.0588 33.9161 31.1041 33.9321C31.1494 33.9455 31.2148 33.9521 31.3001 33.9521C31.3081 33.9521 31.3121 33.9601 31.3121 33.9761C31.3121 33.9921 31.3081 34.0001 31.3001 34.0001H27.2801Z" fill="white"/>
<path d="M32.7431 33.4921V32.2161L32.8191 32.2281V33.4921C32.8191 33.6495 32.8431 33.7655 32.8911 33.8401C32.9418 33.9148 33.0191 33.9521 33.1231 33.9521C33.1311 33.9521 33.1351 33.9601 33.1351 33.9761C33.1351 33.9921 33.1311 34.0001 33.1231 34.0001C33.0725 34.0001 33.0191 33.9988 32.9631 33.9961C32.9098 33.9935 32.8498 33.9921 32.7831 33.9921C32.7218 33.9921 32.6605 33.9935 32.5991 33.9961C32.5405 33.9988 32.4845 34.0001 32.4311 34.0001C32.4258 34.0001 32.4231 33.9921 32.4231 33.9761C32.4231 33.9601 32.4258 33.9521 32.4311 33.9521C32.5378 33.9521 32.6165 33.9148 32.6671 33.8401C32.7178 33.7655 32.7431 33.6495 32.7431 33.4921ZM34.2711 34.0441C34.2711 34.0495 34.2645 34.0521 34.2511 34.0521C34.2378 34.0548 34.2285 34.0548 34.2231 34.0521L32.8071 32.4561C32.7165 32.3548 32.6391 32.2828 32.5751 32.2401C32.5138 32.1975 32.4538 32.1761 32.3951 32.1761C32.3898 32.1761 32.3871 32.1681 32.3871 32.1521C32.3871 32.1361 32.3898 32.1281 32.3951 32.1281C32.4325 32.1281 32.4711 32.1295 32.5111 32.1321C32.5511 32.1321 32.5871 32.1321 32.6191 32.1321C32.6458 32.1321 32.6658 32.1321 32.6791 32.1321C32.6925 32.1295 32.7205 32.1281 32.7631 32.1281C32.8058 32.1281 32.8818 32.1281 32.9911 32.1281C33.0258 32.1281 33.0551 32.1455 33.0791 32.1801C33.1031 32.2148 33.1445 32.2668 33.2031 32.3361L34.2271 33.4801L34.2711 34.0441ZM34.2711 32.6401V34.0441L34.1911 33.9201V32.6401C34.1911 32.4801 34.1671 32.3628 34.1191 32.2881C34.0711 32.2135 33.9938 32.1761 33.8871 32.1761C33.8818 32.1761 33.8791 32.1681 33.8791 32.1521C33.8791 32.1361 33.8818 32.1281 33.8871 32.1281C33.9405 32.1281 33.9938 32.1308 34.0471 32.1361C34.1031 32.1388 34.1631 32.1401 34.2271 32.1401C34.2885 32.1401 34.3498 32.1388 34.4111 32.1361C34.4751 32.1308 34.5325 32.1281 34.5831 32.1281C34.5911 32.1281 34.5951 32.1361 34.5951 32.1521C34.5951 32.1681 34.5911 32.1761 34.5831 32.1761C34.4765 32.1761 34.3978 32.2135 34.3471 32.2881C34.2965 32.3628 34.2711 32.4801 34.2711 32.6401ZM34.6791 33.8241C34.6711 33.8241 34.6658 33.8121 34.6631 33.7881C34.6605 33.7641 34.6605 33.7415 34.6631 33.7201C34.6658 33.6961 34.6698 33.6841 34.6751 33.6841H35.6471C35.6551 33.6841 35.6605 33.6961 35.6631 33.7201C35.6658 33.7415 35.6658 33.7641 35.6631 33.7881C35.6605 33.8121 35.6551 33.8241 35.6471 33.8241H34.6791ZM35.1431 33.5201C35.0391 33.5201 34.9485 33.4948 34.8711 33.4441C34.7938 33.3935 34.7338 33.3255 34.6911 33.2401C34.6511 33.1548 34.6311 33.0628 34.6311 32.9641C34.6311 32.8441 34.6591 32.7455 34.7151 32.6681C34.7738 32.5908 34.8458 32.5335 34.9311 32.4961C35.0191 32.4561 35.1058 32.4361 35.1911 32.4361C35.2978 32.4361 35.3885 32.4628 35.4631 32.5161C35.5378 32.5668 35.5951 32.6335 35.6351 32.7161C35.6751 32.7961 35.6951 32.8828 35.6951 32.9761C35.6951 33.0775 35.6698 33.1695 35.6191 33.2521C35.5685 33.3348 35.5005 33.4001 35.4151 33.4481C35.3325 33.4961 35.2418 33.5201 35.1431 33.5201ZM35.2031 33.4601C35.2645 33.4601 35.3125 33.4241 35.3471 33.3521C35.3845 33.2775 35.4031 33.1761 35.4031 33.0481C35.4031 32.8961 35.3765 32.7668 35.3231 32.6601C35.2698 32.5535 35.2005 32.5001 35.1151 32.5001C35.0538 32.5001 35.0058 32.5335 34.9711 32.6001C34.9391 32.6668 34.9231 32.7628 34.9231 32.8881C34.9231 32.9868 34.9351 33.0801 34.9591 33.1681C34.9831 33.2561 35.0165 33.3268 35.0591 33.3801C35.1018 33.4335 35.1498 33.4601 35.2031 33.4601Z" fill="white"/>
<path d="M36.1244 33.2161C36.3964 33.2161 36.6151 33.2481 36.7804 33.3121C36.9458 33.3761 37.0658 33.4641 37.1404 33.5761C37.2151 33.6881 37.2524 33.8175 37.2524 33.9641C37.2524 34.1161 37.2124 34.2535 37.1324 34.3761C37.0524 34.5015 36.9271 34.6215 36.7564 34.7361C36.5858 34.8535 36.3618 34.9748 36.0844 35.1001C36.0738 35.1028 36.0644 35.0975 36.0564 35.0841C36.0484 35.0708 36.0498 35.0615 36.0604 35.0561C36.2631 34.9415 36.4204 34.8268 36.5324 34.7121C36.6471 34.6001 36.7271 34.4868 36.7724 34.3721C36.8178 34.2601 36.8404 34.1468 36.8404 34.0321C36.8404 33.8135 36.7751 33.6428 36.6444 33.5201C36.5164 33.3948 36.3298 33.3321 36.0844 33.3321C36.0524 33.3321 36.0391 33.3161 36.0444 33.2841L36.1724 32.5721C36.1751 32.5535 36.1791 32.5428 36.1844 32.5401C36.1898 32.5348 36.2031 32.5308 36.2244 32.5281C36.4538 32.5015 36.6324 32.4801 36.7604 32.4641C36.8884 32.4455 36.9818 32.4308 37.0404 32.4201C37.0991 32.4068 37.1364 32.3921 37.1524 32.3761C37.1711 32.3575 37.1844 32.3348 37.1924 32.3081C37.1951 32.3001 37.2031 32.2975 37.2164 32.3001C37.2324 32.3001 37.2391 32.3055 37.2364 32.3161L37.1564 32.7601C37.1484 32.7921 37.1364 32.8121 37.1204 32.8201C37.1044 32.8281 37.0791 32.8321 37.0444 32.8321L36.2844 32.8481C36.2498 32.8481 36.2298 32.8668 36.2244 32.9041L36.1524 33.2921L36.1244 33.2161Z" fill="white"/>
<path d="M38.6332 32.5961C38.6625 32.5295 38.6865 32.4628 38.7052 32.3961C38.7265 32.3268 38.7372 32.2575 38.7372 32.1881C38.7372 32.0681 38.7065 31.9721 38.6452 31.9001C38.5865 31.8255 38.5172 31.7881 38.4372 31.7881C38.3625 31.7881 38.3025 31.8135 38.2572 31.8641C38.2145 31.9121 38.1932 31.9735 38.1932 32.0481C38.1932 32.1308 38.2185 32.2055 38.2692 32.2721C38.3198 32.3388 38.3852 32.4001 38.4652 32.4561C38.5452 32.5095 38.6292 32.5641 38.7172 32.6201C38.8132 32.6788 38.9052 32.7415 38.9932 32.8081C39.0838 32.8721 39.1572 32.9481 39.2132 33.0361C39.2718 33.1215 39.3012 33.2241 39.3012 33.3441C39.3012 33.4828 39.2598 33.6055 39.1772 33.7121C39.0972 33.8188 38.9892 33.9028 38.8532 33.9641C38.7198 34.0228 38.5732 34.0521 38.4132 34.0521C38.2478 34.0521 38.1038 34.0215 37.9812 33.9601C37.8585 33.8988 37.7638 33.8188 37.6972 33.7201C37.6305 33.6188 37.5972 33.5081 37.5972 33.3881C37.5972 33.2761 37.6252 33.1695 37.6812 33.0681C37.7398 32.9668 37.8212 32.8761 37.9252 32.7961C38.0318 32.7135 38.1558 32.6495 38.2972 32.6041L38.3212 32.6401C38.2278 32.6988 38.1518 32.7855 38.0932 32.9001C38.0372 33.0148 38.0092 33.1415 38.0092 33.2801C38.0092 33.4001 38.0305 33.5121 38.0732 33.6161C38.1185 33.7201 38.1798 33.8041 38.2572 33.8681C38.3345 33.9321 38.4225 33.9641 38.5212 33.9641C38.6092 33.9641 38.6838 33.9428 38.7452 33.9001C38.8065 33.8548 38.8532 33.7975 38.8852 33.7281C38.9172 33.6561 38.9332 33.5815 38.9332 33.5041C38.9332 33.3975 38.9052 33.3081 38.8492 33.2361C38.7932 33.1615 38.7225 33.0948 38.6372 33.0361C38.5518 32.9775 38.4625 32.9201 38.3692 32.8641C38.2812 32.8081 38.1972 32.7495 38.1172 32.6881C38.0372 32.6268 37.9705 32.5575 37.9172 32.4801C37.8665 32.4001 37.8412 32.3095 37.8412 32.2081C37.8412 32.0855 37.8745 31.9881 37.9412 31.9161C38.0105 31.8415 38.0945 31.7881 38.1932 31.7561C38.2918 31.7215 38.3865 31.7041 38.4772 31.7041C38.6052 31.7041 38.7132 31.7255 38.8012 31.7681C38.8918 31.8108 38.9598 31.8641 39.0052 31.9281C39.0532 31.9921 39.0772 32.0561 39.0772 32.1201C39.0772 32.2028 39.0412 32.2935 38.9692 32.3921C38.8972 32.4881 38.7932 32.5641 38.6572 32.6201L38.6332 32.5961Z" fill="white"/>
<path d="M39.6342 32.5401L39.5182 31.5761C39.5155 31.5521 39.5369 31.5295 39.5822 31.5081C39.6275 31.4868 39.6795 31.4695 39.7382 31.4561C39.7995 31.4428 39.8515 31.4375 39.8942 31.4401C39.9369 31.4401 39.9555 31.4508 39.9502 31.4721L39.6982 32.5361C39.6955 32.5415 39.6835 32.5455 39.6622 32.5481C39.6435 32.5508 39.6342 32.5481 39.6342 32.5401ZM40.2422 32.5401L40.1262 31.5761C40.1235 31.5521 40.1449 31.5295 40.1902 31.5081C40.2355 31.4868 40.2875 31.4695 40.3462 31.4561C40.4075 31.4428 40.4595 31.4375 40.5022 31.4401C40.5449 31.4401 40.5635 31.4508 40.5582 31.4721L40.3062 32.5361C40.3035 32.5415 40.2915 32.5455 40.2702 32.5481C40.2515 32.5508 40.2422 32.5481 40.2422 32.5401Z" fill="white"/>
<path d="M16.36 37.456C16.3786 37.456 16.3893 37.4587 16.392 37.464C16.3946 37.4667 16.396 37.476 16.396 37.492C16.3933 37.572 16.3893 37.66 16.384 37.756C16.3786 37.8493 16.376 37.9227 16.376 37.976C16.376 37.9813 16.368 37.984 16.352 37.984C16.3386 37.984 16.3306 37.9813 16.328 37.976C16.2746 37.8133 16.208 37.6987 16.128 37.632C16.048 37.5627 15.9653 37.528 15.88 37.528C15.816 37.528 15.7733 37.548 15.752 37.588C15.7306 37.628 15.72 37.6947 15.72 37.788V38.676C15.72 38.7907 15.7333 38.8653 15.76 38.9C15.7866 38.9347 15.8453 38.952 15.936 38.952C15.9413 38.952 15.944 38.96 15.944 38.976C15.944 38.992 15.9413 39 15.936 39C15.88 39 15.8173 38.9987 15.748 38.996C15.6813 38.9933 15.612 38.992 15.54 38.992C15.4653 38.992 15.392 38.9933 15.32 38.996C15.2506 38.9987 15.1866 39 15.128 39C15.12 39 15.116 38.992 15.116 38.976C15.116 38.96 15.12 38.952 15.128 38.952C15.2213 38.952 15.2813 38.9347 15.308 38.9C15.3346 38.8653 15.348 38.7907 15.348 38.676V37.78C15.348 37.6627 15.3346 37.588 15.308 37.556C15.2813 37.5213 15.2226 37.504 15.132 37.504C15.124 37.504 15.12 37.496 15.12 37.48C15.12 37.464 15.124 37.456 15.132 37.456H16.36Z" fill="white"/>
<path d="M16.9161 39.044C16.8414 39.044 16.7814 39.0227 16.7361 38.98C16.6934 38.9347 16.6721 38.8747 16.6721 38.8C16.6721 38.7307 16.6934 38.6747 16.7361 38.632C16.7814 38.5893 16.8414 38.568 16.9161 38.568C16.9934 38.568 17.0521 38.5893 17.0921 38.632C17.1321 38.6747 17.1521 38.7307 17.1521 38.8C17.1521 38.8747 17.1321 38.9347 17.0921 38.98C17.0521 39.0227 16.9934 39.044 16.9161 39.044Z" fill="white"/>
<path d="M20.3497 39C20.3257 39 20.303 38.996 20.2817 38.988C20.263 38.98 20.235 38.956 20.1977 38.916C20.163 38.876 20.1124 38.8107 20.0457 38.72C19.979 38.6267 19.887 38.496 19.7697 38.328C19.6844 38.208 19.615 38.1093 19.5617 38.032C19.5084 37.9547 19.4604 37.896 19.4177 37.856C19.3777 37.8133 19.335 37.784 19.2897 37.768C19.2444 37.7493 19.187 37.74 19.1177 37.74C19.0937 37.74 19.0684 37.7413 19.0417 37.744C19.015 37.7467 18.987 37.7493 18.9577 37.752L18.9537 37.68C19.1377 37.672 19.283 37.668 19.3897 37.668C19.4884 37.668 19.571 37.676 19.6377 37.692C19.7044 37.7053 19.7644 37.7333 19.8177 37.776C19.8737 37.816 19.9324 37.8747 19.9937 37.952C20.0577 38.0267 20.1337 38.1253 20.2217 38.248C20.3284 38.3947 20.4204 38.52 20.4977 38.624C20.5777 38.728 20.6537 38.808 20.7257 38.864C20.8004 38.92 20.8804 38.9493 20.9657 38.952C20.9737 38.952 20.9777 38.96 20.9777 38.976C20.9777 38.992 20.9737 39 20.9657 39H20.3497ZM18.3617 39C18.3537 39 18.3497 38.992 18.3497 38.976C18.3497 38.96 18.3537 38.952 18.3617 38.952C18.4497 38.952 18.5164 38.9453 18.5617 38.932C18.607 38.9187 18.6364 38.892 18.6497 38.852C18.6657 38.812 18.6737 38.7533 18.6737 38.676V36.824C18.6737 36.7467 18.6657 36.6893 18.6497 36.652C18.6364 36.612 18.607 36.5853 18.5617 36.572C18.519 36.556 18.4537 36.548 18.3657 36.548C18.3577 36.548 18.3537 36.54 18.3537 36.524C18.3537 36.508 18.3577 36.5 18.3657 36.5C18.435 36.5 18.5124 36.5027 18.5977 36.508C18.683 36.5107 18.7737 36.512 18.8697 36.512C18.979 36.512 19.0804 36.5107 19.1737 36.508C19.2697 36.5027 19.3537 36.5 19.4257 36.5C19.4337 36.5 19.4377 36.508 19.4377 36.524C19.4377 36.54 19.4337 36.548 19.4257 36.548C19.3404 36.548 19.275 36.556 19.2297 36.572C19.1844 36.588 19.1537 36.616 19.1377 36.656C19.1244 36.696 19.1177 36.7547 19.1177 36.832V38.676C19.1177 38.7533 19.1244 38.812 19.1377 38.852C19.1537 38.892 19.183 38.9187 19.2257 38.932C19.271 38.9453 19.3377 38.952 19.4257 38.952C19.4337 38.952 19.4377 38.96 19.4377 38.976C19.4377 38.992 19.4337 39 19.4257 39C19.351 39 19.267 38.9987 19.1737 38.996C19.0804 38.9933 18.979 38.992 18.8697 38.992C18.7737 38.992 18.6817 38.9933 18.5937 38.996C18.5084 38.9987 18.431 39 18.3617 39ZM19.4417 37.732L19.3697 37.696L19.8097 37.092C19.9297 36.9267 19.983 36.7947 19.9697 36.696C19.959 36.5973 19.9057 36.548 19.8097 36.548C19.8044 36.548 19.8017 36.54 19.8017 36.524C19.8017 36.508 19.8044 36.5 19.8097 36.5C19.8737 36.5 19.9457 36.5027 20.0257 36.508C20.1057 36.5107 20.199 36.512 20.3057 36.512C20.4284 36.512 20.5244 36.5107 20.5937 36.508C20.6657 36.5027 20.735 36.5 20.8017 36.5C20.8097 36.5 20.8137 36.508 20.8137 36.524C20.8137 36.54 20.8097 36.548 20.8017 36.548C20.7244 36.548 20.639 36.568 20.5457 36.608C20.4524 36.6453 20.3604 36.6987 20.2697 36.768C20.1817 36.8347 20.103 36.9107 20.0337 36.996L19.4417 37.732Z" fill="white"/>
<path d="M21.7954 39.048C21.6221 39.048 21.4741 39.012 21.3514 38.94C21.2314 38.868 21.1394 38.7733 21.0754 38.656C21.0141 38.536 20.9834 38.4093 20.9834 38.276C20.9834 38.1187 21.0234 37.976 21.1034 37.848C21.1834 37.7173 21.2914 37.6133 21.4274 37.536C21.5661 37.4587 21.7221 37.42 21.8954 37.42C22.0608 37.42 22.1874 37.456 22.2754 37.528C22.3634 37.5973 22.4074 37.6933 22.4074 37.816C22.4074 37.8453 22.4048 37.872 22.3994 37.896C22.3941 37.92 22.3821 37.932 22.3634 37.932H21.9794C21.9848 37.8067 21.9701 37.704 21.9354 37.624C21.9008 37.5413 21.8381 37.5 21.7474 37.5C21.6408 37.5 21.5541 37.556 21.4874 37.668C21.4208 37.7773 21.3874 37.924 21.3874 38.108C21.3874 38.2573 21.4114 38.388 21.4594 38.5C21.5074 38.612 21.5768 38.6987 21.6674 38.76C21.7581 38.8213 21.8674 38.852 21.9954 38.852C22.0594 38.852 22.1274 38.8427 22.1994 38.824C22.2741 38.8053 22.3408 38.7773 22.3994 38.74C22.4048 38.7347 22.4114 38.7373 22.4194 38.748C22.4301 38.7587 22.4328 38.768 22.4274 38.776C22.3288 38.8747 22.2274 38.9453 22.1234 38.988C22.0221 39.028 21.9128 39.048 21.7954 39.048ZM21.2474 37.94L21.2434 37.864L22.1194 37.844V37.932L21.2474 37.94Z" fill="white"/>
<path d="M22.8673 38.584L22.9233 37.544L23.0033 37.556L22.9473 38.584C22.942 38.7067 22.962 38.7987 23.0073 38.86C23.0526 38.9213 23.1166 38.952 23.1993 38.952C23.2073 38.952 23.2113 38.96 23.2113 38.976C23.2113 38.992 23.2073 39 23.1993 39C23.1566 39 23.1113 38.9987 23.0633 38.996C23.0153 38.9933 22.9633 38.992 22.9073 38.992C22.854 38.992 22.8006 38.9933 22.7473 38.996C22.6966 38.9987 22.6486 39 22.6033 39C22.5953 39 22.5913 38.992 22.5913 38.976C22.5913 38.96 22.5953 38.952 22.6033 38.952C22.6886 38.952 22.7526 38.9213 22.7953 38.86C22.838 38.7987 22.862 38.7067 22.8673 38.584ZM24.7353 38.952C24.7433 38.952 24.7473 38.96 24.7473 38.976C24.7473 38.992 24.7433 39 24.7353 39C24.6793 39 24.6153 38.9987 24.5433 38.996C24.4713 38.9933 24.4006 38.992 24.3313 38.992C24.2593 38.992 24.194 38.9933 24.1353 38.996C24.0793 38.9987 24.0246 39 23.9713 39C23.966 39 23.9633 38.992 23.9633 38.976C23.9633 38.96 23.966 38.952 23.9713 38.952C24.046 38.952 24.0953 38.9347 24.1193 38.9C24.1433 38.8653 24.1513 38.7907 24.1433 38.676L24.0673 37.72L24.1633 37.504L23.6073 38.908C23.6046 38.916 23.5953 38.92 23.5793 38.92C23.5633 38.92 23.5526 38.916 23.5473 38.908L22.9953 37.788C22.9366 37.668 22.8833 37.5907 22.8353 37.556C22.79 37.5213 22.7353 37.504 22.6713 37.504C22.666 37.504 22.6633 37.496 22.6633 37.48C22.6633 37.464 22.666 37.456 22.6713 37.456C22.7273 37.456 22.7753 37.4573 22.8153 37.46C22.8553 37.46 22.8873 37.46 22.9113 37.46C22.9486 37.46 22.9833 37.46 23.0153 37.46C23.0473 37.4573 23.0713 37.456 23.0873 37.456C23.1433 37.456 23.1886 37.4667 23.2233 37.488C23.258 37.5093 23.2993 37.5667 23.3473 37.66L23.7473 38.484L23.5753 38.796L24.0633 37.556C24.074 37.524 24.09 37.5 24.1113 37.484C24.1353 37.4653 24.1593 37.456 24.1833 37.456C24.1993 37.456 24.2313 37.4573 24.2793 37.46C24.3273 37.46 24.374 37.46 24.4193 37.46C24.4753 37.46 24.522 37.46 24.5593 37.46C24.5966 37.4573 24.6353 37.456 24.6753 37.456C24.6806 37.456 24.6833 37.464 24.6833 37.48C24.6833 37.496 24.6806 37.504 24.6753 37.504C24.5953 37.504 24.534 37.52 24.4913 37.552C24.4486 37.584 24.4313 37.656 24.4393 37.768L24.5153 38.676C24.5233 38.7533 24.5313 38.812 24.5393 38.852C24.55 38.892 24.57 38.9187 24.5993 38.932C24.6286 38.9453 24.674 38.952 24.7353 38.952Z" fill="white"/>
<path d="M25.7642 39.048C25.5909 39.048 25.4429 39.012 25.3202 38.94C25.2002 38.868 25.1082 38.7733 25.0442 38.656C24.9829 38.536 24.9522 38.4093 24.9522 38.276C24.9522 38.1187 24.9922 37.976 25.0722 37.848C25.1522 37.7173 25.2602 37.6133 25.3962 37.536C25.5349 37.4587 25.6909 37.42 25.8642 37.42C26.0295 37.42 26.1562 37.456 26.2442 37.528C26.3322 37.5973 26.3762 37.6933 26.3762 37.816C26.3762 37.8453 26.3735 37.872 26.3682 37.896C26.3629 37.92 26.3509 37.932 26.3322 37.932H25.9482C25.9535 37.8067 25.9389 37.704 25.9042 37.624C25.8695 37.5413 25.8069 37.5 25.7162 37.5C25.6095 37.5 25.5229 37.556 25.4562 37.668C25.3895 37.7773 25.3562 37.924 25.3562 38.108C25.3562 38.2573 25.3802 38.388 25.4282 38.5C25.4762 38.612 25.5455 38.6987 25.6362 38.76C25.7269 38.8213 25.8362 38.852 25.9642 38.852C26.0282 38.852 26.0962 38.8427 26.1682 38.824C26.2429 38.8053 26.3095 38.7773 26.3682 38.74C26.3735 38.7347 26.3802 38.7373 26.3882 38.748C26.3989 38.7587 26.4015 38.768 26.3962 38.776C26.2975 38.8747 26.1962 38.9453 26.0922 38.988C25.9909 39.028 25.8815 39.048 25.7642 39.048ZM25.2162 37.94L25.2122 37.864L26.0882 37.844V37.932L25.2162 37.94Z" fill="white"/>
<path d="M26.5721 40.1C26.5641 40.1 26.5601 40.092 26.5601 40.076C26.5601 40.06 26.5641 40.052 26.5721 40.052C26.6654 40.052 26.7254 40.0347 26.7521 40C26.7814 39.9653 26.7961 39.8907 26.7961 39.776V37.78C26.7961 37.6627 26.7747 37.588 26.7321 37.556C26.6921 37.5213 26.6254 37.504 26.5321 37.504C26.5267 37.504 26.5241 37.496 26.5241 37.48C26.5241 37.464 26.5267 37.456 26.5321 37.456C26.5721 37.456 26.6254 37.456 26.6921 37.456C26.7587 37.456 26.8267 37.456 26.8961 37.456C26.9681 37.456 27.0294 37.456 27.0801 37.456C27.1174 37.456 27.1414 37.464 27.1521 37.48C27.1627 37.4933 27.1681 37.516 27.1681 37.548V39.776C27.1681 39.8507 27.1761 39.908 27.1921 39.948C27.2107 39.988 27.2454 40.0147 27.2961 40.028C27.3467 40.044 27.4227 40.052 27.5241 40.052C27.5321 40.052 27.5361 40.06 27.5361 40.076C27.5361 40.092 27.5321 40.1 27.5241 40.1C27.4494 40.1 27.3654 40.0987 27.2721 40.096C27.1787 40.0933 27.0801 40.092 26.9761 40.092C26.9014 40.092 26.8281 40.0933 26.7561 40.096C26.6867 40.0987 26.6254 40.1 26.5721 40.1ZM27.5121 39.052C27.4081 39.052 27.3187 39.044 27.2441 39.028C27.1721 39.012 27.0854 38.9867 26.9841 38.952L27.1241 38.7C27.1827 38.772 27.2454 38.832 27.3121 38.88C27.3814 38.928 27.4734 38.952 27.5881 38.952C27.7134 38.952 27.8121 38.8973 27.8841 38.788C27.9561 38.6787 27.9921 38.504 27.9921 38.264C27.9921 38.0507 27.9427 37.892 27.8441 37.788C27.7454 37.6813 27.6294 37.628 27.4961 37.628C27.3974 37.628 27.3121 37.6533 27.2401 37.704C27.1681 37.7547 27.0974 37.8187 27.0281 37.896L26.9881 37.848C27.1241 37.6907 27.2534 37.5773 27.3761 37.508C27.5014 37.4387 27.6294 37.404 27.7601 37.404C27.8721 37.404 27.9761 37.4333 28.0721 37.492C28.1681 37.548 28.2454 37.6307 28.3041 37.74C28.3654 37.8493 28.3961 37.9827 28.3961 38.14C28.3961 38.3107 28.3681 38.4547 28.3121 38.572C28.2587 38.6893 28.1881 38.784 28.1001 38.856C28.0121 38.9253 27.9161 38.9747 27.8121 39.004C27.7107 39.036 27.6107 39.052 27.5121 39.052Z" fill="white"/>
<path d="M29.4675 39.052C29.2995 39.052 29.1542 39.0133 29.0315 38.936C28.9088 38.8587 28.8142 38.756 28.7475 38.628C28.6808 38.4973 28.6475 38.3573 28.6475 38.208C28.6475 38.0693 28.6742 37.9493 28.7275 37.848C28.7808 37.7467 28.8515 37.664 28.9395 37.6C29.0275 37.5333 29.1235 37.484 29.2275 37.452C29.3315 37.42 29.4342 37.404 29.5355 37.404C29.7062 37.404 29.8515 37.444 29.9715 37.524C30.0942 37.604 30.1875 37.7067 30.2515 37.832C30.3155 37.9573 30.3475 38.0907 30.3475 38.232C30.3475 38.3947 30.3062 38.5387 30.2235 38.664C30.1435 38.7867 30.0368 38.8827 29.9035 38.952C29.7702 39.0187 29.6248 39.052 29.4675 39.052ZM29.5875 38.968C29.6942 38.968 29.7742 38.916 29.8275 38.812C29.8808 38.708 29.9075 38.5613 29.9075 38.372C29.9075 38.1773 29.8822 38.0147 29.8315 37.884C29.7835 37.7533 29.7208 37.6547 29.6435 37.588C29.5662 37.5213 29.4848 37.488 29.3995 37.488C29.2955 37.488 29.2155 37.5347 29.1595 37.628C29.1062 37.7213 29.0795 37.8653 29.0795 38.06C29.0795 38.2413 29.1022 38.4013 29.1475 38.54C29.1928 38.676 29.2542 38.7813 29.3315 38.856C29.4088 38.9307 29.4942 38.968 29.5875 38.968Z" fill="white"/>
<path d="M31.0165 37.46C31.0805 37.46 31.1512 37.4587 31.2285 37.456C31.3085 37.4507 31.3819 37.448 31.4485 37.448C31.6325 37.448 31.7725 37.4733 31.8685 37.524C31.9672 37.5747 32.0165 37.6507 32.0165 37.752C32.0165 37.8987 31.8832 38.0427 31.6165 38.184L31.5685 38.152C31.5819 38.1147 31.5925 38.0733 31.6005 38.028C31.6085 37.98 31.6125 37.9267 31.6125 37.868C31.6125 37.7427 31.5912 37.6547 31.5485 37.604C31.5085 37.5533 31.4432 37.528 31.3525 37.528C31.2912 37.528 31.2499 37.544 31.2285 37.576C31.2072 37.608 31.1965 37.6787 31.1965 37.788V38.676C31.1965 38.7587 31.2125 38.8213 31.2445 38.864C31.2765 38.904 31.3419 38.924 31.4405 38.924C31.5552 38.924 31.6392 38.8973 31.6925 38.844C31.7459 38.788 31.7725 38.7053 31.7725 38.596C31.7725 38.4867 31.7432 38.396 31.6845 38.324C31.6285 38.252 31.5325 38.216 31.3965 38.216H31.0325L31.0285 38.14H31.5365C31.9685 38.14 32.1845 38.264 32.1845 38.512C32.1845 38.656 32.1219 38.7747 31.9965 38.868C31.8712 38.9613 31.7085 39.008 31.5085 39.008C31.4499 39.008 31.3712 39.0053 31.2725 39C31.1765 38.9947 31.0912 38.992 31.0165 38.992C30.9419 38.992 30.8685 38.9933 30.7965 38.996C30.7272 38.9987 30.6632 39 30.6045 39C30.5965 39 30.5925 38.992 30.5925 38.976C30.5925 38.96 30.5965 38.952 30.6045 38.952C30.6979 38.952 30.7579 38.9347 30.7845 38.9C30.8112 38.8653 30.8245 38.7907 30.8245 38.676V37.78C30.8245 37.6627 30.8112 37.588 30.7845 37.556C30.7579 37.5213 30.6992 37.504 30.6085 37.504C30.6005 37.504 30.5965 37.496 30.5965 37.48C30.5965 37.464 30.6005 37.456 30.6085 37.456C30.6645 37.456 30.7272 37.4573 30.7965 37.46C30.8685 37.46 30.9419 37.46 31.0165 37.46Z" fill="white"/>
<path d="M33.2448 39.052C33.0768 39.052 32.9315 39.0133 32.8088 38.936C32.6862 38.8587 32.5915 38.756 32.5248 38.628C32.4582 38.4973 32.4248 38.3573 32.4248 38.208C32.4248 38.0693 32.4515 37.9493 32.5048 37.848C32.5582 37.7467 32.6288 37.664 32.7168 37.6C32.8048 37.5333 32.9008 37.484 33.0048 37.452C33.1088 37.42 33.2115 37.404 33.3128 37.404C33.4835 37.404 33.6288 37.444 33.7488 37.524C33.8715 37.604 33.9648 37.7067 34.0288 37.832C34.0928 37.9573 34.1248 38.0907 34.1248 38.232C34.1248 38.3947 34.0835 38.5387 34.0008 38.664C33.9208 38.7867 33.8142 38.8827 33.6808 38.952C33.5475 39.0187 33.4022 39.052 33.2448 39.052ZM33.3648 38.968C33.4715 38.968 33.5515 38.916 33.6048 38.812C33.6582 38.708 33.6848 38.5613 33.6848 38.372C33.6848 38.1773 33.6595 38.0147 33.6088 37.884C33.5608 37.7533 33.4982 37.6547 33.4208 37.588C33.3435 37.5213 33.2622 37.488 33.1768 37.488C33.0728 37.488 32.9928 37.5347 32.9368 37.628C32.8835 37.7213 32.8568 37.8653 32.8568 38.06C32.8568 38.2413 32.8795 38.4013 32.9248 38.54C32.9702 38.676 33.0315 38.7813 33.1088 38.856C33.1862 38.9307 33.2715 38.968 33.3648 38.968Z" fill="white"/>
<path d="M17.5257 13.003C16.4891 13.0741 15.4874 13.2181 14.6582 13.4187C14.5591 13.4424 14.4729 13.4661 14.4674 13.4734C14.4564 13.4843 10.9945 24.1732 11 24.1787C11.0018 24.1805 11.2715 24.093 11.5999 23.9836C13.5097 23.351 15.1902 23.0229 16.8102 22.9645C18.3714 22.9098 19.7822 23.1432 21.0022 23.6609C22.1525 24.1495 23.0698 24.8533 23.7798 25.7903L23.9376 26L23.9412 25.4257C23.9577 23.1322 24.0018 15.5791 23.9999 15.2254V14.7878L23.8679 14.6766C22.8937 13.8471 21.6352 13.3221 20.1033 13.1033C19.5327 13.0213 19.3052 13.0067 18.4521 13.0012C17.999 12.9994 17.5807 12.9994 17.5257 13.003Z" fill="white"/>
<path d="M29.8831 13.0091C27.9254 13.1241 26.3388 13.6751 25.1745 14.6476L25 14.7935V15.8974C24.9982 17.2694 25.0515 25.9907 25.0588 25.9998C25.0625 26.0034 25.0955 25.9615 25.1323 25.9067C25.3673 25.5546 25.9054 24.989 26.3112 24.6679C27.2937 23.8888 28.4452 23.3871 29.8353 23.1316C30.8013 22.9546 31.9509 22.9236 33.1243 23.0422C34.5237 23.1827 36.1324 23.5549 37.7851 24.1242C37.9027 24.1643 38 24.1917 38 24.1844C38 24.1388 34.5475 13.4817 34.5292 13.4707C34.4943 13.4489 33.9452 13.3284 33.5742 13.2609C32.9278 13.1442 32.2227 13.0584 31.545 13.0146C31.2824 12.9982 30.1365 12.9945 29.8831 13.0091Z" fill="white"/>
<path d="M10.0513 21.1658C8.92371 24.5563 8 27.3408 8 27.3519C8 27.3703 9.55175 27.3758 15.7 27.3758C21.8336 27.3758 23.4055 27.3813 23.4275 27.3979C23.4441 27.4108 23.4863 27.4642 23.523 27.5158C23.6608 27.7092 23.8646 27.862 24.0905 27.943C24.1933 27.978 24.2723 27.9909 24.4265 27.9983C24.6726 28.0075 24.7957 27.9817 25.0326 27.8639C25.2235 27.7699 25.3337 27.6797 25.4751 27.5029L25.5761 27.3758H33.2871C39.4482 27.3758 41 27.3703 41 27.3519C41 27.3408 40.08 24.5618 38.9561 21.1787L36.9104 15.0276L36.4751 15.0221C36.0656 15.0184 36.0399 15.0203 36.0491 15.0497C36.1629 15.4199 39.3344 26.374 39.3417 26.42C39.3528 26.4992 39.3252 26.5618 39.2683 26.5747C39.2426 26.5821 39.0791 26.5268 38.8055 26.42C34.1135 24.5894 29.9045 24.3224 26.6486 25.6447C25.9489 25.9283 25.2933 26.304 24.7865 26.7091L24.5955 26.862L24.511 26.8491C24.4192 26.8362 24.3861 26.816 24.175 26.6447C23.7434 26.2966 23.0346 25.897 22.3698 25.6263C21.2955 25.1898 20.201 24.9449 18.8255 24.8307C18.4528 24.8012 17.1838 24.8012 16.7963 24.8307C14.578 25.0056 12.479 25.5139 10.0568 26.4642C9.76845 26.5765 9.72621 26.5802 9.68214 26.4937C9.65459 26.444 9.71886 26.2156 11.2982 20.7717C12.2017 17.652 12.9454 15.0792 12.9528 15.0497L12.9638 15H12.5341H12.1043L10.0513 21.1658Z" fill="white"/>
<path d="M34.8626 15.0217C34.9124 15.1572 37.9163 24.4437 37.9163 24.4672C37.9163 24.5142 37.8592 24.5612 37.8039 24.5612C37.7781 24.5612 37.6473 24.5214 37.5109 24.4726C35.8025 23.8671 34.048 23.4641 32.4981 23.3213C32.0687 23.2833 30.974 23.2671 30.5796 23.2942C29.6858 23.3556 28.9818 23.4876 28.2409 23.7298C27.2439 24.0551 26.4164 24.5286 25.6811 25.1901C25.4268 25.4197 24.9753 25.9185 25.0011 25.9438C25.0047 25.9474 25.1079 25.8914 25.2277 25.8173C26.2524 25.1919 27.6604 24.7166 29.1163 24.5087C29.7706 24.4148 30.3511 24.3768 31.1251 24.3768C31.7609 24.375 32.1553 24.3949 32.7561 24.4545C34.5898 24.6353 36.5747 25.1124 38.6001 25.8625C38.8157 25.942 38.9945 26.0035 39 25.9998C39.0037 25.9944 38.2739 23.5183 37.38 20.4963L35.7527 15H35.3031C34.9511 15 34.8552 15.0054 34.8626 15.0217Z" fill="white"/>
<path d="M13.2499 15.0217C13.2112 15.1305 9.99632 25.9897 10 25.9988C10.0037 26.006 10.0885 25.9806 10.1899 25.9408C10.2913 25.9027 10.5659 25.8031 10.7982 25.7197C13.4343 24.7811 15.8952 24.3299 18.1442 24.3734C18.7506 24.3861 19.0032 24.4024 19.5175 24.4604C21.1508 24.6434 22.6513 25.1254 23.7997 25.8321C23.9048 25.8955 23.9933 25.9444 23.9988 25.939C24.0302 25.9082 23.4329 25.2758 23.1306 25.0203C21.1028 23.3098 18.0483 22.8387 14.3007 23.6613C13.4472 23.8479 12.4573 24.1306 11.5761 24.4405C11.3752 24.5093 11.2001 24.5673 11.1853 24.5673C11.1392 24.5673 11.0839 24.4984 11.0839 24.4423C11.0839 24.4151 11.7678 22.2969 12.6047 19.7365C13.4416 17.1762 14.1311 15.0634 14.1366 15.0399L14.1477 15H13.7034C13.3642 15 13.2555 15.0054 13.2499 15.0217Z" fill="white"/>
</svg>
