<svg width="50" height="50" viewBox="0 0 50 50" fill="none" xmlns="http://www.w3.org/2000/svg">
<path d="M8.46819 33.492L8.50819 31.592L8.62419 31.6L8.58019 33.492C8.57752 33.6333 8.60552 33.7453 8.66419 33.828C8.72552 33.9107 8.81086 33.952 8.92019 33.952C8.92819 33.952 8.93219 33.96 8.93219 33.976C8.93219 33.992 8.92819 34 8.92019 34C8.86152 34 8.80152 33.9987 8.74019 33.996C8.67886 33.9933 8.60952 33.992 8.53219 33.992C8.44686 33.992 8.36952 33.9933 8.30019 33.996C8.23086 33.9987 8.16686 34 8.10819 34C8.10019 34 8.09619 33.992 8.09619 33.976C8.09619 33.96 8.10019 33.952 8.10819 33.952C8.21752 33.952 8.30419 33.9107 8.36819 33.828C8.43219 33.7453 8.46552 33.6333 8.46819 33.492ZM11.3322 33.952C11.3375 33.952 11.3402 33.96 11.3402 33.976C11.3402 33.992 11.3375 34 11.3322 34C11.2629 34 11.1842 33.9987 11.0962 33.996C11.0082 33.9933 10.9162 33.992 10.8202 33.992C10.7215 33.992 10.6295 33.9933 10.5442 33.996C10.4589 33.9987 10.3815 34 10.3122 34C10.3042 34 10.3002 33.992 10.3002 33.976C10.3002 33.96 10.3042 33.952 10.3122 33.952C10.4375 33.952 10.5175 33.9347 10.5522 33.9C10.5895 33.8653 10.6042 33.7907 10.5962 33.676L10.5042 31.9L10.7082 31.58L9.68819 33.972C9.68552 33.9827 9.67486 33.988 9.65619 33.988C9.64019 33.988 9.62952 33.9827 9.62419 33.972L8.50019 31.832C8.39886 31.6427 8.27752 31.548 8.13619 31.548C8.12819 31.548 8.12419 31.54 8.12419 31.524C8.12419 31.508 8.12819 31.5 8.13619 31.5C8.19219 31.5 8.25086 31.5013 8.31219 31.504C8.37352 31.5067 8.42552 31.508 8.46819 31.508C8.53752 31.508 8.59752 31.5067 8.64819 31.504C8.70152 31.5013 8.74286 31.5 8.77219 31.5C8.80952 31.5 8.83752 31.5133 8.85619 31.54C8.87752 31.5667 8.91086 31.6227 8.95619 31.708L9.85219 33.388L9.65219 33.748L10.5882 31.6C10.6042 31.5627 10.6202 31.5373 10.6362 31.524C10.6549 31.508 10.6789 31.5 10.7082 31.5C10.7349 31.5 10.7629 31.5013 10.7922 31.504C10.8215 31.5067 10.8562 31.508 10.8962 31.508C10.9815 31.508 11.0535 31.5067 11.1122 31.504C11.1735 31.5013 11.2335 31.5 11.2922 31.5C11.3002 31.5 11.3042 31.508 11.3042 31.524C11.3042 31.54 11.3002 31.548 11.2922 31.548C11.1695 31.548 11.0789 31.5733 11.0202 31.624C10.9642 31.6747 10.9389 31.7533 10.9442 31.86L11.0402 33.676C11.0455 33.7533 11.0549 33.812 11.0682 33.852C11.0842 33.892 11.1122 33.9187 11.1522 33.932C11.1922 33.9453 11.2522 33.952 11.3322 33.952Z" fill="white"/>
<path d="M12.6979 34.016C12.6525 34.016 12.5939 34.0133 12.5219 34.008C12.4525 34.0053 12.3805 34.0027 12.3059 34C12.2312 33.9947 12.1632 33.992 12.1019 33.992C12.0059 33.992 11.9139 33.9933 11.8259 33.996C11.7405 33.9987 11.6632 34 11.5939 34C11.5859 34 11.5819 33.992 11.5819 33.976C11.5819 33.96 11.5859 33.952 11.5939 33.952C11.6765 33.952 11.7379 33.9453 11.7779 33.932C11.8179 33.9187 11.8445 33.892 11.8579 33.852C11.8739 33.812 11.8819 33.7533 11.8819 33.676V31.824C11.8819 31.7467 11.8752 31.6893 11.8619 31.652C11.8485 31.612 11.8219 31.5853 11.7819 31.572C11.7419 31.556 11.6805 31.548 11.5979 31.548C11.5925 31.548 11.5899 31.54 11.5899 31.524C11.5899 31.508 11.5925 31.5 11.5979 31.5H13.2739C13.3112 31.5 13.3339 31.5053 13.3419 31.516C13.3525 31.5267 13.3579 31.5547 13.3579 31.6L13.3899 32.208C13.3899 32.216 13.3832 32.22 13.3699 32.22C13.3565 32.22 13.3472 32.216 13.3419 32.208C13.3019 31.9973 13.2272 31.8427 13.1179 31.744C13.0085 31.6427 12.8752 31.592 12.7179 31.592H12.5499C12.4939 31.592 12.4499 31.6 12.4179 31.616C12.3859 31.632 12.3632 31.6587 12.3499 31.696C12.3365 31.7307 12.3299 31.7813 12.3299 31.848V33.676C12.3299 33.7213 12.3365 33.7627 12.3499 33.8C12.3632 33.8347 12.3899 33.8627 12.4299 33.884C12.4725 33.9053 12.5365 33.916 12.6219 33.916C12.8032 33.916 12.9339 33.868 13.0139 33.772C13.0939 33.676 13.1339 33.5427 13.1339 33.372C13.1339 33.2147 13.1072 33.0867 13.0539 32.988C13.0032 32.8893 12.9312 32.8173 12.8379 32.772C12.7445 32.724 12.6352 32.7 12.5099 32.7C12.4539 32.7 12.3952 32.7053 12.3339 32.716C12.2725 32.724 12.2085 32.736 12.1419 32.752L12.1179 32.66C12.2032 32.636 12.2912 32.6187 12.3819 32.608C12.4752 32.5947 12.5645 32.588 12.6499 32.588C12.8205 32.588 12.9779 32.6133 13.1219 32.664C13.2659 32.712 13.3819 32.7867 13.4699 32.888C13.5579 32.9867 13.6019 33.1147 13.6019 33.272C13.6019 33.4133 13.5632 33.54 13.4859 33.652C13.4085 33.764 13.3019 33.8533 13.1659 33.92C13.0299 33.984 12.8739 34.016 12.6979 34.016Z" fill="white"/>
<path d="M15.2728 34.048C15.0808 34.048 14.9061 34.0147 14.7488 33.948C14.5941 33.8787 14.4608 33.784 14.3488 33.664C14.2395 33.544 14.1541 33.4067 14.0928 33.252C14.0341 33.0947 14.0048 32.928 14.0048 32.752C14.0048 32.536 14.0461 32.3467 14.1288 32.184C14.2141 32.0213 14.3261 31.8867 14.4648 31.78C14.6035 31.6707 14.7555 31.5893 14.9208 31.536C15.0861 31.4827 15.2501 31.456 15.4128 31.456C15.6101 31.456 15.7861 31.492 15.9408 31.564C16.0981 31.6333 16.2315 31.728 16.3408 31.848C16.4501 31.968 16.5328 32.104 16.5888 32.256C16.6475 32.408 16.6768 32.564 16.6768 32.724C16.6768 32.9107 16.6395 33.084 16.5648 33.244C16.4901 33.404 16.3875 33.544 16.2568 33.664C16.1288 33.784 15.9795 33.8787 15.8088 33.948C15.6408 34.0147 15.4621 34.048 15.2728 34.048ZM15.4048 33.948C15.5541 33.948 15.6875 33.9053 15.8048 33.82C15.9221 33.7347 16.0141 33.6093 16.0808 33.444C16.1501 33.2787 16.1848 33.0773 16.1848 32.84C16.1848 32.5947 16.1475 32.376 16.0728 32.184C15.9981 31.992 15.8915 31.8413 15.7528 31.732C15.6141 31.62 15.4475 31.564 15.2528 31.564C15.0101 31.564 14.8235 31.656 14.6928 31.84C14.5621 32.024 14.4968 32.2787 14.4968 32.604C14.4968 32.7987 14.5195 32.9787 14.5648 33.144C14.6101 33.3067 14.6728 33.4493 14.7528 33.572C14.8355 33.692 14.9315 33.7853 15.0408 33.852C15.1528 33.916 15.2741 33.948 15.4048 33.948Z" fill="white"/>
<path d="M17.6495 34.048C17.5402 34.048 17.4522 34.024 17.3855 33.976C17.3189 33.928 17.2855 33.8653 17.2855 33.788C17.2855 33.7373 17.3029 33.6907 17.3375 33.648C17.3722 33.6027 17.4255 33.58 17.4975 33.58C17.5615 33.58 17.6082 33.596 17.6375 33.628C17.6669 33.6573 17.6882 33.692 17.7015 33.732C17.7149 33.772 17.7282 33.808 17.7415 33.84C17.7575 33.8693 17.7829 33.884 17.8175 33.884C17.8442 33.884 17.8709 33.8707 17.8975 33.844C17.9242 33.8147 17.9549 33.7587 17.9895 33.676L18.7375 31.924C18.7829 31.8147 18.7842 31.7253 18.7415 31.656C18.6989 31.584 18.6162 31.548 18.4935 31.548C18.4882 31.548 18.4855 31.54 18.4855 31.524C18.4855 31.508 18.4882 31.5 18.4935 31.5C18.5629 31.5 18.6295 31.5027 18.6935 31.508C18.7575 31.5107 18.8415 31.512 18.9455 31.512C19.0015 31.512 19.0455 31.512 19.0775 31.512C19.1122 31.5093 19.1442 31.5067 19.1735 31.504C19.2055 31.5013 19.2469 31.5 19.2975 31.5C19.3055 31.5 19.3095 31.508 19.3095 31.524C19.3095 31.54 19.3055 31.548 19.2975 31.548C19.2229 31.548 19.1429 31.5827 19.0575 31.652C18.9749 31.7213 18.9082 31.812 18.8575 31.924L18.1055 33.672C18.0469 33.808 17.9842 33.9053 17.9175 33.964C17.8509 34.02 17.7615 34.048 17.6495 34.048ZM18.0735 33.58L17.1735 31.832C17.1229 31.7307 17.0749 31.6587 17.0295 31.616C16.9842 31.5707 16.9215 31.548 16.8415 31.548C16.8362 31.548 16.8335 31.54 16.8335 31.524C16.8335 31.508 16.8362 31.5 16.8415 31.5C16.8869 31.5 16.9229 31.5013 16.9495 31.504C16.9762 31.5067 17.0122 31.5093 17.0575 31.512C17.1029 31.512 17.1762 31.512 17.2775 31.512C17.4029 31.512 17.5015 31.512 17.5735 31.512C17.6482 31.5093 17.7069 31.5067 17.7495 31.504C17.7949 31.5013 17.8349 31.5 17.8695 31.5C17.8749 31.5 17.8775 31.508 17.8775 31.524C17.8775 31.54 17.8749 31.548 17.8695 31.548C17.7655 31.548 17.6922 31.5653 17.6495 31.6C17.6069 31.6347 17.6095 31.6987 17.6575 31.792L18.3015 33.108L18.0735 33.58Z" fill="white"/>
<path d="M20.443 32.54L20.327 31.576C20.3244 31.552 20.3457 31.5293 20.391 31.508C20.4364 31.4867 20.4884 31.4693 20.547 31.456C20.6084 31.4427 20.6604 31.4373 20.703 31.44C20.7457 31.44 20.7644 31.4507 20.759 31.472L20.507 32.536C20.5044 32.5413 20.4924 32.5453 20.471 32.548C20.4524 32.5507 20.443 32.548 20.443 32.54ZM21.051 32.54L20.935 31.576C20.9324 31.552 20.9537 31.5293 20.999 31.508C21.0444 31.4867 21.0964 31.4693 21.155 31.456C21.2164 31.4427 21.2684 31.4373 21.311 31.44C21.3537 31.44 21.3724 31.4507 21.367 31.472L21.115 32.536C21.1124 32.5413 21.1004 32.5453 21.079 32.548C21.0604 32.5507 21.051 32.548 21.051 32.54Z" fill="white"/>
<path d="M23.1061 31.456C23.2181 31.456 23.3381 31.4653 23.4661 31.484C23.5967 31.5027 23.6994 31.5293 23.7741 31.564C23.7981 31.572 23.8141 31.5827 23.8221 31.596C23.8301 31.6067 23.8354 31.6267 23.8381 31.656L23.8861 32.212C23.8861 32.22 23.8794 32.2253 23.8661 32.228C23.8554 32.2307 23.8474 32.2267 23.8421 32.216C23.7541 32.0107 23.6341 31.8493 23.4821 31.732C23.3327 31.6147 23.1554 31.556 22.9501 31.556C22.7714 31.556 22.6194 31.6013 22.4941 31.692C22.3714 31.7827 22.2781 31.9093 22.2141 32.072C22.1527 32.232 22.1221 32.4187 22.1221 32.632C22.1221 32.816 22.1447 32.9893 22.1901 33.152C22.2354 33.312 22.2994 33.4533 22.3821 33.576C22.4647 33.696 22.5634 33.7907 22.6781 33.86C22.7927 33.9293 22.9194 33.964 23.0581 33.964C23.2287 33.964 23.3807 33.908 23.5141 33.796C23.6501 33.684 23.7714 33.5107 23.8781 33.276C23.8834 33.2653 23.8927 33.2613 23.9061 33.264C23.9194 33.2667 23.9261 33.272 23.9261 33.28L23.8661 33.824C23.8607 33.856 23.8541 33.8773 23.8461 33.888C23.8407 33.896 23.8261 33.9053 23.8021 33.916C23.6794 33.9613 23.5554 33.9947 23.4301 34.016C23.3074 34.0373 23.1874 34.048 23.0701 34.048C22.8114 34.048 22.5901 34.0093 22.4061 33.932C22.2221 33.852 22.0714 33.748 21.9541 33.62C21.8394 33.4893 21.7541 33.348 21.6981 33.196C21.6447 33.0413 21.6181 32.8893 21.6181 32.74C21.6181 32.5427 21.6581 32.3653 21.7381 32.208C21.8207 32.0507 21.9314 31.916 22.0701 31.804C22.2114 31.692 22.3701 31.6067 22.5461 31.548C22.7247 31.4867 22.9114 31.456 23.1061 31.456Z" fill="white"/>
<path d="M25.5618 34.048C25.3698 34.048 25.1952 34.0147 25.0378 33.948C24.8832 33.8787 24.7498 33.784 24.6378 33.664C24.5285 33.544 24.4432 33.4067 24.3818 33.252C24.3232 33.0947 24.2938 32.928 24.2938 32.752C24.2938 32.536 24.3352 32.3467 24.4178 32.184C24.5032 32.0213 24.6152 31.8867 24.7538 31.78C24.8925 31.6707 25.0445 31.5893 25.2098 31.536C25.3752 31.4827 25.5392 31.456 25.7018 31.456C25.8992 31.456 26.0752 31.492 26.2298 31.564C26.3872 31.6333 26.5205 31.728 26.6298 31.848C26.7392 31.968 26.8218 32.104 26.8778 32.256C26.9365 32.408 26.9658 32.564 26.9658 32.724C26.9658 32.9107 26.9285 33.084 26.8538 33.244C26.7792 33.404 26.6765 33.544 26.5458 33.664C26.4178 33.784 26.2685 33.8787 26.0978 33.948C25.9298 34.0147 25.7512 34.048 25.5618 34.048ZM25.6938 33.948C25.8432 33.948 25.9765 33.9053 26.0938 33.82C26.2112 33.7347 26.3032 33.6093 26.3698 33.444C26.4392 33.2787 26.4738 33.0773 26.4738 32.84C26.4738 32.5947 26.4365 32.376 26.3618 32.184C26.2872 31.992 26.1805 31.8413 26.0418 31.732C25.9032 31.62 25.7365 31.564 25.5418 31.564C25.2992 31.564 25.1125 31.656 24.9818 31.84C24.8512 32.024 24.7858 32.2787 24.7858 32.604C24.7858 32.7987 24.8085 32.9787 24.8538 33.144C24.8992 33.3067 24.9618 33.4493 25.0418 33.572C25.1245 33.692 25.2205 33.7853 25.3298 33.852C25.4418 33.916 25.5632 33.948 25.6938 33.948Z" fill="white"/>
<path d="M27.2803 34C27.275 34 27.2723 33.992 27.2723 33.976C27.2723 33.96 27.275 33.952 27.2803 33.952C27.371 33.952 27.4377 33.9453 27.4803 33.932C27.5257 33.9187 27.5563 33.892 27.5723 33.852C27.5883 33.812 27.5963 33.7533 27.5963 33.676V31.824C27.5963 31.7467 27.5883 31.6893 27.5723 31.652C27.5563 31.612 27.5257 31.5853 27.4803 31.572C27.4377 31.556 27.371 31.548 27.2803 31.548C27.275 31.548 27.2723 31.54 27.2723 31.524C27.2723 31.508 27.275 31.5 27.2803 31.5C27.3497 31.5 27.4283 31.5027 27.5163 31.508C27.6043 31.5107 27.6963 31.512 27.7923 31.512C27.9017 31.512 28.003 31.5107 28.0963 31.508C28.1897 31.5027 28.2737 31.5 28.3483 31.5C28.3563 31.5 28.3603 31.508 28.3603 31.524C28.3603 31.54 28.3563 31.548 28.3483 31.548C28.2603 31.548 28.1937 31.556 28.1483 31.572C28.1057 31.5853 28.0763 31.612 28.0603 31.652C28.047 31.6893 28.0403 31.7467 28.0403 31.824V33.668C28.0403 33.7507 28.043 33.8093 28.0483 33.844C28.0563 33.8787 28.0737 33.9 28.1003 33.908C28.1297 33.9133 28.1763 33.916 28.2403 33.916H28.8483C28.9177 33.916 28.967 33.912 28.9963 33.904C29.0283 33.8933 29.0483 33.8707 29.0563 33.836C29.0643 33.7987 29.0683 33.7427 29.0683 33.668V31.824C29.0683 31.7467 29.0603 31.6893 29.0443 31.652C29.031 31.612 29.0017 31.5853 28.9563 31.572C28.911 31.556 28.8443 31.548 28.7563 31.548C28.7483 31.548 28.7443 31.54 28.7443 31.524C28.7443 31.508 28.7483 31.5 28.7563 31.5C28.8017 31.5027 28.8603 31.5053 28.9323 31.508C29.0043 31.508 29.0737 31.5093 29.1403 31.512C29.2097 31.512 29.2603 31.512 29.2923 31.512C29.391 31.512 29.4857 31.5107 29.5763 31.508C29.6697 31.5027 29.7537 31.5 29.8283 31.5C29.8337 31.5 29.8363 31.508 29.8363 31.524C29.8363 31.54 29.8337 31.548 29.8283 31.548C29.7403 31.548 29.6737 31.556 29.6283 31.572C29.583 31.5853 29.5523 31.612 29.5363 31.652C29.5203 31.6893 29.5123 31.7467 29.5123 31.824V33.668C29.5123 33.7507 29.515 33.8093 29.5203 33.844C29.5283 33.8787 29.5457 33.9 29.5723 33.908C29.6017 33.9133 29.6497 33.916 29.7163 33.916H30.3243C30.399 33.916 30.451 33.912 30.4803 33.904C30.5097 33.896 30.527 33.8747 30.5323 33.84C30.5403 33.8053 30.5443 33.748 30.5443 33.668V31.824C30.5443 31.7467 30.5363 31.6893 30.5203 31.652C30.507 31.612 30.4777 31.5853 30.4323 31.572C30.3897 31.556 30.323 31.548 30.2323 31.548C30.227 31.548 30.2243 31.54 30.2243 31.524C30.2243 31.508 30.227 31.5 30.2323 31.5C30.3097 31.5 30.395 31.5027 30.4883 31.508C30.5817 31.5107 30.683 31.512 30.7923 31.512C30.8883 31.512 30.979 31.5107 31.0643 31.508C31.1523 31.5027 31.231 31.5 31.3003 31.5C31.3083 31.5 31.3123 31.508 31.3123 31.524C31.3123 31.54 31.3083 31.548 31.3003 31.548C31.2123 31.548 31.1457 31.556 31.1003 31.572C31.055 31.5853 31.0243 31.612 31.0083 31.652C30.995 31.6893 30.9883 31.7467 30.9883 31.824V33.676C30.9883 33.7507 30.9963 33.808 31.0123 33.848C31.0283 33.888 31.059 33.916 31.1043 33.932C31.1497 33.9453 31.215 33.952 31.3003 33.952C31.3083 33.952 31.3123 33.96 31.3123 33.976C31.3123 33.992 31.3083 34 31.3003 34H27.2803Z" fill="white"/>
<path d="M32.7434 33.492V32.216L32.8194 32.228V33.492C32.8194 33.6493 32.8434 33.7653 32.8914 33.84C32.942 33.9147 33.0194 33.952 33.1234 33.952C33.1314 33.952 33.1354 33.96 33.1354 33.976C33.1354 33.992 33.1314 34 33.1234 34C33.0727 34 33.0194 33.9987 32.9634 33.996C32.91 33.9933 32.85 33.992 32.7834 33.992C32.722 33.992 32.6607 33.9933 32.5994 33.996C32.5407 33.9987 32.4847 34 32.4314 34C32.426 34 32.4234 33.992 32.4234 33.976C32.4234 33.96 32.426 33.952 32.4314 33.952C32.538 33.952 32.6167 33.9147 32.6674 33.84C32.718 33.7653 32.7434 33.6493 32.7434 33.492ZM34.2714 34.044C34.2714 34.0493 34.2647 34.052 34.2514 34.052C34.238 34.0547 34.2287 34.0547 34.2234 34.052L32.8074 32.456C32.7167 32.3547 32.6394 32.2827 32.5754 32.24C32.514 32.1973 32.454 32.176 32.3954 32.176C32.39 32.176 32.3874 32.168 32.3874 32.152C32.3874 32.136 32.39 32.128 32.3954 32.128C32.4327 32.128 32.4714 32.1293 32.5114 32.132C32.5514 32.132 32.5874 32.132 32.6194 32.132C32.646 32.132 32.666 32.132 32.6794 32.132C32.6927 32.1293 32.7207 32.128 32.7634 32.128C32.806 32.128 32.882 32.128 32.9914 32.128C33.026 32.128 33.0554 32.1453 33.0794 32.18C33.1034 32.2147 33.1447 32.2667 33.2034 32.336L34.2274 33.48L34.2714 34.044ZM34.2714 32.64V34.044L34.1914 33.92V32.64C34.1914 32.48 34.1674 32.3627 34.1194 32.288C34.0714 32.2133 33.994 32.176 33.8874 32.176C33.882 32.176 33.8794 32.168 33.8794 32.152C33.8794 32.136 33.882 32.128 33.8874 32.128C33.9407 32.128 33.994 32.1307 34.0474 32.136C34.1034 32.1387 34.1634 32.14 34.2274 32.14C34.2887 32.14 34.35 32.1387 34.4114 32.136C34.4754 32.1307 34.5327 32.128 34.5834 32.128C34.5914 32.128 34.5954 32.136 34.5954 32.152C34.5954 32.168 34.5914 32.176 34.5834 32.176C34.4767 32.176 34.398 32.2133 34.3474 32.288C34.2967 32.3627 34.2714 32.48 34.2714 32.64ZM34.6794 33.824C34.6714 33.824 34.666 33.812 34.6634 33.788C34.6607 33.764 34.6607 33.7413 34.6634 33.72C34.666 33.696 34.67 33.684 34.6754 33.684H35.6474C35.6554 33.684 35.6607 33.696 35.6634 33.72C35.666 33.7413 35.666 33.764 35.6634 33.788C35.6607 33.812 35.6554 33.824 35.6474 33.824H34.6794ZM35.1434 33.52C35.0394 33.52 34.9487 33.4947 34.8714 33.444C34.794 33.3933 34.734 33.3253 34.6914 33.24C34.6514 33.1547 34.6314 33.0627 34.6314 32.964C34.6314 32.844 34.6594 32.7453 34.7154 32.668C34.774 32.5907 34.846 32.5333 34.9314 32.496C35.0194 32.456 35.106 32.436 35.1914 32.436C35.298 32.436 35.3887 32.4627 35.4634 32.516C35.538 32.5667 35.5954 32.6333 35.6354 32.716C35.6754 32.796 35.6954 32.8827 35.6954 32.976C35.6954 33.0773 35.67 33.1693 35.6194 33.252C35.5687 33.3347 35.5007 33.4 35.4154 33.448C35.3327 33.496 35.242 33.52 35.1434 33.52ZM35.2034 33.46C35.2647 33.46 35.3127 33.424 35.3474 33.352C35.3847 33.2773 35.4034 33.176 35.4034 33.048C35.4034 32.896 35.3767 32.7667 35.3234 32.66C35.27 32.5533 35.2007 32.5 35.1154 32.5C35.054 32.5 35.006 32.5333 34.9714 32.6C34.9394 32.6667 34.9234 32.7627 34.9234 32.888C34.9234 32.9867 34.9354 33.08 34.9594 33.168C34.9834 33.256 35.0167 33.3267 35.0594 33.38C35.102 33.4333 35.15 33.46 35.2034 33.46Z" fill="white"/>
<path d="M36.1247 33.216C36.3967 33.216 36.6154 33.248 36.7807 33.312C36.946 33.376 37.066 33.464 37.1407 33.576C37.2154 33.688 37.2527 33.8173 37.2527 33.964C37.2527 34.116 37.2127 34.2533 37.1327 34.376C37.0527 34.5013 36.9274 34.6213 36.7567 34.736C36.586 34.8533 36.362 34.9747 36.0847 35.1C36.074 35.1027 36.0647 35.0973 36.0567 35.084C36.0487 35.0707 36.05 35.0613 36.0607 35.056C36.2634 34.9413 36.4207 34.8267 36.5327 34.712C36.6474 34.6 36.7274 34.4867 36.7727 34.372C36.818 34.26 36.8407 34.1467 36.8407 34.032C36.8407 33.8133 36.7754 33.6427 36.6447 33.52C36.5167 33.3947 36.33 33.332 36.0847 33.332C36.0527 33.332 36.0394 33.316 36.0447 33.284L36.1727 32.572C36.1754 32.5533 36.1794 32.5427 36.1847 32.54C36.19 32.5347 36.2034 32.5307 36.2247 32.528C36.454 32.5013 36.6327 32.48 36.7607 32.464C36.8887 32.4453 36.982 32.4307 37.0407 32.42C37.0994 32.4067 37.1367 32.392 37.1527 32.376C37.1714 32.3573 37.1847 32.3347 37.1927 32.308C37.1954 32.3 37.2034 32.2973 37.2167 32.3C37.2327 32.3 37.2394 32.3053 37.2367 32.316L37.1567 32.76C37.1487 32.792 37.1367 32.812 37.1207 32.82C37.1047 32.828 37.0794 32.832 37.0447 32.832L36.2847 32.848C36.25 32.848 36.23 32.8667 36.2247 32.904L36.1527 33.292L36.1247 33.216Z" fill="white"/>
<path d="M38.6334 32.596C38.6627 32.5293 38.6867 32.4627 38.7054 32.396C38.7267 32.3267 38.7374 32.2573 38.7374 32.188C38.7374 32.068 38.7067 31.972 38.6454 31.9C38.5867 31.8253 38.5174 31.788 38.4374 31.788C38.3627 31.788 38.3027 31.8133 38.2574 31.864C38.2147 31.912 38.1934 31.9733 38.1934 32.048C38.1934 32.1307 38.2187 32.2053 38.2694 32.272C38.3201 32.3387 38.3854 32.4 38.4654 32.456C38.5454 32.5093 38.6294 32.564 38.7174 32.62C38.8134 32.6787 38.9054 32.7413 38.9934 32.808C39.0841 32.872 39.1574 32.948 39.2134 33.036C39.2721 33.1213 39.3014 33.224 39.3014 33.344C39.3014 33.4827 39.2601 33.6053 39.1774 33.712C39.0974 33.8187 38.9894 33.9027 38.8534 33.964C38.7201 34.0227 38.5734 34.052 38.4134 34.052C38.2481 34.052 38.1041 34.0213 37.9814 33.96C37.8587 33.8987 37.7641 33.8187 37.6974 33.72C37.6307 33.6187 37.5974 33.508 37.5974 33.388C37.5974 33.276 37.6254 33.1693 37.6814 33.068C37.7401 32.9667 37.8214 32.876 37.9254 32.796C38.0321 32.7133 38.1561 32.6493 38.2974 32.604L38.3214 32.64C38.2281 32.6987 38.1521 32.7853 38.0934 32.9C38.0374 33.0147 38.0094 33.1413 38.0094 33.28C38.0094 33.4 38.0307 33.512 38.0734 33.616C38.1187 33.72 38.1801 33.804 38.2574 33.868C38.3347 33.932 38.4227 33.964 38.5214 33.964C38.6094 33.964 38.6841 33.9427 38.7454 33.9C38.8067 33.8547 38.8534 33.7973 38.8854 33.728C38.9174 33.656 38.9334 33.5813 38.9334 33.504C38.9334 33.3973 38.9054 33.308 38.8494 33.236C38.7934 33.1613 38.7227 33.0947 38.6374 33.036C38.5521 32.9773 38.4627 32.92 38.3694 32.864C38.2814 32.808 38.1974 32.7493 38.1174 32.688C38.0374 32.6267 37.9707 32.5573 37.9174 32.48C37.8667 32.4 37.8414 32.3093 37.8414 32.208C37.8414 32.0853 37.8747 31.988 37.9414 31.916C38.0107 31.8413 38.0947 31.788 38.1934 31.756C38.2921 31.7213 38.3867 31.704 38.4774 31.704C38.6054 31.704 38.7134 31.7253 38.8014 31.768C38.8921 31.8107 38.9601 31.864 39.0054 31.928C39.0534 31.992 39.0774 32.056 39.0774 32.12C39.0774 32.2027 39.0414 32.2933 38.9694 32.392C38.8974 32.488 38.7934 32.564 38.6574 32.62L38.6334 32.596Z" fill="white"/>
<path d="M39.6344 32.54L39.5184 31.576C39.5158 31.552 39.5371 31.5293 39.5824 31.508C39.6278 31.4867 39.6798 31.4693 39.7384 31.456C39.7998 31.4427 39.8518 31.4373 39.8944 31.44C39.9371 31.44 39.9558 31.4507 39.9504 31.472L39.6984 32.536C39.6958 32.5413 39.6838 32.5453 39.6624 32.548C39.6438 32.5507 39.6344 32.548 39.6344 32.54ZM40.2424 32.54L40.1264 31.576C40.1238 31.552 40.1451 31.5293 40.1904 31.508C40.2358 31.4867 40.2878 31.4693 40.3464 31.456C40.4078 31.4427 40.4598 31.4373 40.5024 31.44C40.5451 31.44 40.5638 31.4507 40.5584 31.472L40.3064 32.536C40.3038 32.5413 40.2918 32.5453 40.2704 32.548C40.2518 32.5507 40.2424 32.548 40.2424 32.54Z" fill="white"/>
<path d="M16.3602 37.456C16.3789 37.456 16.3895 37.4587 16.3922 37.464C16.3949 37.4667 16.3962 37.476 16.3962 37.492C16.3935 37.572 16.3895 37.66 16.3842 37.756C16.3789 37.8493 16.3762 37.9227 16.3762 37.976C16.3762 37.9813 16.3682 37.984 16.3522 37.984C16.3389 37.984 16.3309 37.9813 16.3282 37.976C16.2749 37.8133 16.2082 37.6987 16.1282 37.632C16.0482 37.5627 15.9655 37.528 15.8802 37.528C15.8162 37.528 15.7735 37.548 15.7522 37.588C15.7309 37.628 15.7202 37.6947 15.7202 37.788V38.676C15.7202 38.7907 15.7335 38.8653 15.7602 38.9C15.7869 38.9347 15.8455 38.952 15.9362 38.952C15.9415 38.952 15.9442 38.96 15.9442 38.976C15.9442 38.992 15.9415 39 15.9362 39C15.8802 39 15.8175 38.9987 15.7482 38.996C15.6815 38.9933 15.6122 38.992 15.5402 38.992C15.4655 38.992 15.3922 38.9933 15.3202 38.996C15.2509 38.9987 15.1869 39 15.1282 39C15.1202 39 15.1162 38.992 15.1162 38.976C15.1162 38.96 15.1202 38.952 15.1282 38.952C15.2215 38.952 15.2815 38.9347 15.3082 38.9C15.3349 38.8653 15.3482 38.7907 15.3482 38.676V37.78C15.3482 37.6627 15.3349 37.588 15.3082 37.556C15.2815 37.5213 15.2229 37.504 15.1322 37.504C15.1242 37.504 15.1202 37.496 15.1202 37.48C15.1202 37.464 15.1242 37.456 15.1322 37.456H16.3602Z" fill="white"/>
<path d="M16.9163 39.044C16.8416 39.044 16.7816 39.0227 16.7363 38.98C16.6936 38.9347 16.6723 38.8747 16.6723 38.8C16.6723 38.7307 16.6936 38.6747 16.7363 38.632C16.7816 38.5893 16.8416 38.568 16.9163 38.568C16.9936 38.568 17.0523 38.5893 17.0923 38.632C17.1323 38.6747 17.1523 38.7307 17.1523 38.8C17.1523 38.8747 17.1323 38.9347 17.0923 38.98C17.0523 39.0227 16.9936 39.044 16.9163 39.044Z" fill="white"/>
<path d="M20.3499 39C20.3259 39 20.3033 38.996 20.2819 38.988C20.2633 38.98 20.2353 38.956 20.1979 38.916C20.1633 38.876 20.1126 38.8107 20.0459 38.72C19.9793 38.6267 19.8873 38.496 19.7699 38.328C19.6846 38.208 19.6153 38.1093 19.5619 38.032C19.5086 37.9547 19.4606 37.896 19.4179 37.856C19.3779 37.8133 19.3353 37.784 19.2899 37.768C19.2446 37.7493 19.1873 37.74 19.1179 37.74C19.0939 37.74 19.0686 37.7413 19.0419 37.744C19.0153 37.7467 18.9873 37.7493 18.9579 37.752L18.9539 37.68C19.1379 37.672 19.2833 37.668 19.3899 37.668C19.4886 37.668 19.5713 37.676 19.6379 37.692C19.7046 37.7053 19.7646 37.7333 19.8179 37.776C19.8739 37.816 19.9326 37.8747 19.9939 37.952C20.0579 38.0267 20.1339 38.1253 20.2219 38.248C20.3286 38.3947 20.4206 38.52 20.4979 38.624C20.5779 38.728 20.6539 38.808 20.7259 38.864C20.8006 38.92 20.8806 38.9493 20.9659 38.952C20.9739 38.952 20.9779 38.96 20.9779 38.976C20.9779 38.992 20.9739 39 20.9659 39H20.3499ZM18.3619 39C18.3539 39 18.3499 38.992 18.3499 38.976C18.3499 38.96 18.3539 38.952 18.3619 38.952C18.4499 38.952 18.5166 38.9453 18.5619 38.932C18.6073 38.9187 18.6366 38.892 18.6499 38.852C18.6659 38.812 18.6739 38.7533 18.6739 38.676V36.824C18.6739 36.7467 18.6659 36.6893 18.6499 36.652C18.6366 36.612 18.6073 36.5853 18.5619 36.572C18.5193 36.556 18.4539 36.548 18.3659 36.548C18.3579 36.548 18.3539 36.54 18.3539 36.524C18.3539 36.508 18.3579 36.5 18.3659 36.5C18.4353 36.5 18.5126 36.5027 18.5979 36.508C18.6833 36.5107 18.7739 36.512 18.8699 36.512C18.9793 36.512 19.0806 36.5107 19.1739 36.508C19.2699 36.5027 19.3539 36.5 19.4259 36.5C19.4339 36.5 19.4379 36.508 19.4379 36.524C19.4379 36.54 19.4339 36.548 19.4259 36.548C19.3406 36.548 19.2753 36.556 19.2299 36.572C19.1846 36.588 19.1539 36.616 19.1379 36.656C19.1246 36.696 19.1179 36.7547 19.1179 36.832V38.676C19.1179 38.7533 19.1246 38.812 19.1379 38.852C19.1539 38.892 19.1833 38.9187 19.2259 38.932C19.2713 38.9453 19.3379 38.952 19.4259 38.952C19.4339 38.952 19.4379 38.96 19.4379 38.976C19.4379 38.992 19.4339 39 19.4259 39C19.3513 39 19.2673 38.9987 19.1739 38.996C19.0806 38.9933 18.9793 38.992 18.8699 38.992C18.7739 38.992 18.6819 38.9933 18.5939 38.996C18.5086 38.9987 18.4313 39 18.3619 39ZM19.4419 37.732L19.3699 37.696L19.8099 37.092C19.9299 36.9267 19.9833 36.7947 19.9699 36.696C19.9593 36.5973 19.9059 36.548 19.8099 36.548C19.8046 36.548 19.8019 36.54 19.8019 36.524C19.8019 36.508 19.8046 36.5 19.8099 36.5C19.8739 36.5 19.9459 36.5027 20.0259 36.508C20.1059 36.5107 20.1993 36.512 20.3059 36.512C20.4286 36.512 20.5246 36.5107 20.5939 36.508C20.6659 36.5027 20.7353 36.5 20.8019 36.5C20.8099 36.5 20.8139 36.508 20.8139 36.524C20.8139 36.54 20.8099 36.548 20.8019 36.548C20.7246 36.548 20.6393 36.568 20.5459 36.608C20.4526 36.6453 20.3606 36.6987 20.2699 36.768C20.1819 36.8347 20.1033 36.9107 20.0339 36.996L19.4419 37.732Z" fill="white"/>
<path d="M21.7957 39.048C21.6223 39.048 21.4743 39.012 21.3517 38.94C21.2317 38.868 21.1397 38.7733 21.0757 38.656C21.0143 38.536 20.9837 38.4093 20.9837 38.276C20.9837 38.1187 21.0237 37.976 21.1037 37.848C21.1837 37.7173 21.2917 37.6133 21.4277 37.536C21.5663 37.4587 21.7223 37.42 21.8957 37.42C22.061 37.42 22.1877 37.456 22.2757 37.528C22.3637 37.5973 22.4077 37.6933 22.4077 37.816C22.4077 37.8453 22.405 37.872 22.3997 37.896C22.3943 37.92 22.3823 37.932 22.3637 37.932H21.9797C21.985 37.8067 21.9703 37.704 21.9357 37.624C21.901 37.5413 21.8383 37.5 21.7477 37.5C21.641 37.5 21.5543 37.556 21.4877 37.668C21.421 37.7773 21.3877 37.924 21.3877 38.108C21.3877 38.2573 21.4117 38.388 21.4597 38.5C21.5077 38.612 21.577 38.6987 21.6677 38.76C21.7583 38.8213 21.8677 38.852 21.9957 38.852C22.0597 38.852 22.1277 38.8427 22.1997 38.824C22.2743 38.8053 22.341 38.7773 22.3997 38.74C22.405 38.7347 22.4117 38.7373 22.4197 38.748C22.4303 38.7587 22.433 38.768 22.4277 38.776C22.329 38.8747 22.2277 38.9453 22.1237 38.988C22.0223 39.028 21.913 39.048 21.7957 39.048ZM21.2477 37.94L21.2437 37.864L22.1197 37.844V37.932L21.2477 37.94Z" fill="white"/>
<path d="M22.8676 38.584L22.9236 37.544L23.0036 37.556L22.9476 38.584C22.9422 38.7067 22.9622 38.7987 23.0076 38.86C23.0529 38.9213 23.1169 38.952 23.1996 38.952C23.2076 38.952 23.2116 38.96 23.2116 38.976C23.2116 38.992 23.2076 39 23.1996 39C23.1569 39 23.1116 38.9987 23.0636 38.996C23.0156 38.9933 22.9636 38.992 22.9076 38.992C22.8542 38.992 22.8009 38.9933 22.7476 38.996C22.6969 38.9987 22.6489 39 22.6036 39C22.5956 39 22.5916 38.992 22.5916 38.976C22.5916 38.96 22.5956 38.952 22.6036 38.952C22.6889 38.952 22.7529 38.9213 22.7956 38.86C22.8382 38.7987 22.8622 38.7067 22.8676 38.584ZM24.7356 38.952C24.7436 38.952 24.7476 38.96 24.7476 38.976C24.7476 38.992 24.7436 39 24.7356 39C24.6796 39 24.6156 38.9987 24.5436 38.996C24.4716 38.9933 24.4009 38.992 24.3316 38.992C24.2596 38.992 24.1942 38.9933 24.1356 38.996C24.0796 38.9987 24.0249 39 23.9716 39C23.9662 39 23.9636 38.992 23.9636 38.976C23.9636 38.96 23.9662 38.952 23.9716 38.952C24.0462 38.952 24.0956 38.9347 24.1196 38.9C24.1436 38.8653 24.1516 38.7907 24.1436 38.676L24.0676 37.72L24.1636 37.504L23.6076 38.908C23.6049 38.916 23.5956 38.92 23.5796 38.92C23.5636 38.92 23.5529 38.916 23.5476 38.908L22.9956 37.788C22.9369 37.668 22.8836 37.5907 22.8356 37.556C22.7902 37.5213 22.7356 37.504 22.6716 37.504C22.6662 37.504 22.6636 37.496 22.6636 37.48C22.6636 37.464 22.6662 37.456 22.6716 37.456C22.7276 37.456 22.7756 37.4573 22.8156 37.46C22.8556 37.46 22.8876 37.46 22.9116 37.46C22.9489 37.46 22.9836 37.46 23.0156 37.46C23.0476 37.4573 23.0716 37.456 23.0876 37.456C23.1436 37.456 23.1889 37.4667 23.2236 37.488C23.2582 37.5093 23.2996 37.5667 23.3476 37.66L23.7476 38.484L23.5756 38.796L24.0636 37.556C24.0742 37.524 24.0902 37.5 24.1116 37.484C24.1356 37.4653 24.1596 37.456 24.1836 37.456C24.1996 37.456 24.2316 37.4573 24.2796 37.46C24.3276 37.46 24.3742 37.46 24.4196 37.46C24.4756 37.46 24.5222 37.46 24.5596 37.46C24.5969 37.4573 24.6356 37.456 24.6756 37.456C24.6809 37.456 24.6836 37.464 24.6836 37.48C24.6836 37.496 24.6809 37.504 24.6756 37.504C24.5956 37.504 24.5342 37.52 24.4916 37.552C24.4489 37.584 24.4316 37.656 24.4396 37.768L24.5156 38.676C24.5236 38.7533 24.5316 38.812 24.5396 38.852C24.5502 38.892 24.5702 38.9187 24.5996 38.932C24.6289 38.9453 24.6742 38.952 24.7356 38.952Z" fill="white"/>
<path d="M25.7644 39.048C25.5911 39.048 25.4431 39.012 25.3204 38.94C25.2004 38.868 25.1084 38.7733 25.0444 38.656C24.9831 38.536 24.9524 38.4093 24.9524 38.276C24.9524 38.1187 24.9924 37.976 25.0724 37.848C25.1524 37.7173 25.2604 37.6133 25.3964 37.536C25.5351 37.4587 25.6911 37.42 25.8644 37.42C26.0298 37.42 26.1564 37.456 26.2444 37.528C26.3324 37.5973 26.3764 37.6933 26.3764 37.816C26.3764 37.8453 26.3738 37.872 26.3684 37.896C26.3631 37.92 26.3511 37.932 26.3324 37.932H25.9484C25.9538 37.8067 25.9391 37.704 25.9044 37.624C25.8698 37.5413 25.8071 37.5 25.7164 37.5C25.6098 37.5 25.5231 37.556 25.4564 37.668C25.3898 37.7773 25.3564 37.924 25.3564 38.108C25.3564 38.2573 25.3804 38.388 25.4284 38.5C25.4764 38.612 25.5458 38.6987 25.6364 38.76C25.7271 38.8213 25.8364 38.852 25.9644 38.852C26.0284 38.852 26.0964 38.8427 26.1684 38.824C26.2431 38.8053 26.3098 38.7773 26.3684 38.74C26.3738 38.7347 26.3804 38.7373 26.3884 38.748C26.3991 38.7587 26.4018 38.768 26.3964 38.776C26.2978 38.8747 26.1964 38.9453 26.0924 38.988C25.9911 39.028 25.8818 39.048 25.7644 39.048ZM25.2164 37.94L25.2124 37.864L26.0884 37.844V37.932L25.2164 37.94Z" fill="white"/>
<path d="M26.5723 40.1C26.5643 40.1 26.5603 40.092 26.5603 40.076C26.5603 40.06 26.5643 40.052 26.5723 40.052C26.6656 40.052 26.7256 40.0347 26.7523 40C26.7816 39.9653 26.7963 39.8907 26.7963 39.776V37.78C26.7963 37.6627 26.775 37.588 26.7323 37.556C26.6923 37.5213 26.6256 37.504 26.5323 37.504C26.527 37.504 26.5243 37.496 26.5243 37.48C26.5243 37.464 26.527 37.456 26.5323 37.456C26.5723 37.456 26.6256 37.456 26.6923 37.456C26.759 37.456 26.827 37.456 26.8963 37.456C26.9683 37.456 27.0296 37.456 27.0803 37.456C27.1176 37.456 27.1416 37.464 27.1523 37.48C27.163 37.4933 27.1683 37.516 27.1683 37.548V39.776C27.1683 39.8507 27.1763 39.908 27.1923 39.948C27.211 39.988 27.2456 40.0147 27.2963 40.028C27.347 40.044 27.423 40.052 27.5243 40.052C27.5323 40.052 27.5363 40.06 27.5363 40.076C27.5363 40.092 27.5323 40.1 27.5243 40.1C27.4496 40.1 27.3656 40.0987 27.2723 40.096C27.179 40.0933 27.0803 40.092 26.9763 40.092C26.9016 40.092 26.8283 40.0933 26.7563 40.096C26.687 40.0987 26.6256 40.1 26.5723 40.1ZM27.5123 39.052C27.4083 39.052 27.319 39.044 27.2443 39.028C27.1723 39.012 27.0856 38.9867 26.9843 38.952L27.1243 38.7C27.183 38.772 27.2456 38.832 27.3123 38.88C27.3816 38.928 27.4736 38.952 27.5883 38.952C27.7136 38.952 27.8123 38.8973 27.8843 38.788C27.9563 38.6787 27.9923 38.504 27.9923 38.264C27.9923 38.0507 27.943 37.892 27.8443 37.788C27.7456 37.6813 27.6296 37.628 27.4963 37.628C27.3976 37.628 27.3123 37.6533 27.2403 37.704C27.1683 37.7547 27.0976 37.8187 27.0283 37.896L26.9883 37.848C27.1243 37.6907 27.2536 37.5773 27.3763 37.508C27.5016 37.4387 27.6296 37.404 27.7603 37.404C27.8723 37.404 27.9763 37.4333 28.0723 37.492C28.1683 37.548 28.2456 37.6307 28.3043 37.74C28.3656 37.8493 28.3963 37.9827 28.3963 38.14C28.3963 38.3107 28.3683 38.4547 28.3123 38.572C28.259 38.6893 28.1883 38.784 28.1003 38.856C28.0123 38.9253 27.9163 38.9747 27.8123 39.004C27.711 39.036 27.611 39.052 27.5123 39.052Z" fill="white"/>
<path d="M29.4677 39.052C29.2997 39.052 29.1544 39.0133 29.0317 38.936C28.9091 38.8587 28.8144 38.756 28.7477 38.628C28.6811 38.4973 28.6477 38.3573 28.6477 38.208C28.6477 38.0693 28.6744 37.9493 28.7277 37.848C28.7811 37.7467 28.8517 37.664 28.9397 37.6C29.0277 37.5333 29.1237 37.484 29.2277 37.452C29.3317 37.42 29.4344 37.404 29.5357 37.404C29.7064 37.404 29.8517 37.444 29.9717 37.524C30.0944 37.604 30.1877 37.7067 30.2517 37.832C30.3157 37.9573 30.3477 38.0907 30.3477 38.232C30.3477 38.3947 30.3064 38.5387 30.2237 38.664C30.1437 38.7867 30.0371 38.8827 29.9037 38.952C29.7704 39.0187 29.6251 39.052 29.4677 39.052ZM29.5877 38.968C29.6944 38.968 29.7744 38.916 29.8277 38.812C29.8811 38.708 29.9077 38.5613 29.9077 38.372C29.9077 38.1773 29.8824 38.0147 29.8317 37.884C29.7837 37.7533 29.7211 37.6547 29.6437 37.588C29.5664 37.5213 29.4851 37.488 29.3997 37.488C29.2957 37.488 29.2157 37.5347 29.1597 37.628C29.1064 37.7213 29.0797 37.8653 29.0797 38.06C29.0797 38.2413 29.1024 38.4013 29.1477 38.54C29.1931 38.676 29.2544 38.7813 29.3317 38.856C29.4091 38.9307 29.4944 38.968 29.5877 38.968Z" fill="white"/>
<path d="M31.0168 37.46C31.0808 37.46 31.1514 37.4587 31.2288 37.456C31.3088 37.4507 31.3821 37.448 31.4488 37.448C31.6328 37.448 31.7728 37.4733 31.8688 37.524C31.9674 37.5747 32.0168 37.6507 32.0168 37.752C32.0168 37.8987 31.8834 38.0427 31.6168 38.184L31.5688 38.152C31.5821 38.1147 31.5928 38.0733 31.6008 38.028C31.6088 37.98 31.6128 37.9267 31.6128 37.868C31.6128 37.7427 31.5914 37.6547 31.5488 37.604C31.5088 37.5533 31.4434 37.528 31.3528 37.528C31.2914 37.528 31.2501 37.544 31.2288 37.576C31.2074 37.608 31.1968 37.6787 31.1968 37.788V38.676C31.1968 38.7587 31.2128 38.8213 31.2448 38.864C31.2768 38.904 31.3421 38.924 31.4408 38.924C31.5554 38.924 31.6394 38.8973 31.6928 38.844C31.7461 38.788 31.7728 38.7053 31.7728 38.596C31.7728 38.4867 31.7434 38.396 31.6848 38.324C31.6288 38.252 31.5328 38.216 31.3968 38.216H31.0328L31.0288 38.14H31.5368C31.9688 38.14 32.1848 38.264 32.1848 38.512C32.1848 38.656 32.1221 38.7747 31.9968 38.868C31.8714 38.9613 31.7088 39.008 31.5088 39.008C31.4501 39.008 31.3714 39.0053 31.2728 39C31.1768 38.9947 31.0914 38.992 31.0168 38.992C30.9421 38.992 30.8688 38.9933 30.7968 38.996C30.7274 38.9987 30.6634 39 30.6048 39C30.5968 39 30.5928 38.992 30.5928 38.976C30.5928 38.96 30.5968 38.952 30.6048 38.952C30.6981 38.952 30.7581 38.9347 30.7848 38.9C30.8114 38.8653 30.8248 38.7907 30.8248 38.676V37.78C30.8248 37.6627 30.8114 37.588 30.7848 37.556C30.7581 37.5213 30.6994 37.504 30.6088 37.504C30.6008 37.504 30.5968 37.496 30.5968 37.48C30.5968 37.464 30.6008 37.456 30.6088 37.456C30.6648 37.456 30.7274 37.4573 30.7968 37.46C30.8688 37.46 30.9421 37.46 31.0168 37.46Z" fill="white"/>
<path d="M33.2451 39.052C33.0771 39.052 32.9318 39.0133 32.8091 38.936C32.6864 38.8587 32.5918 38.756 32.5251 38.628C32.4584 38.4973 32.4251 38.3573 32.4251 38.208C32.4251 38.0693 32.4518 37.9493 32.5051 37.848C32.5584 37.7467 32.6291 37.664 32.7171 37.6C32.8051 37.5333 32.9011 37.484 33.0051 37.452C33.1091 37.42 33.2118 37.404 33.3131 37.404C33.4838 37.404 33.6291 37.444 33.7491 37.524C33.8718 37.604 33.9651 37.7067 34.0291 37.832C34.0931 37.9573 34.1251 38.0907 34.1251 38.232C34.1251 38.3947 34.0838 38.5387 34.0011 38.664C33.9211 38.7867 33.8144 38.8827 33.6811 38.952C33.5478 39.0187 33.4024 39.052 33.2451 39.052ZM33.3651 38.968C33.4718 38.968 33.5518 38.916 33.6051 38.812C33.6584 38.708 33.6851 38.5613 33.6851 38.372C33.6851 38.1773 33.6598 38.0147 33.6091 37.884C33.5611 37.7533 33.4984 37.6547 33.4211 37.588C33.3438 37.5213 33.2624 37.488 33.1771 37.488C33.0731 37.488 32.9931 37.5347 32.9371 37.628C32.8838 37.7213 32.8571 37.8653 32.8571 38.06C32.8571 38.2413 32.8798 38.4013 32.9251 38.54C32.9704 38.676 33.0318 38.7813 33.1091 38.856C33.1864 38.9307 33.2718 38.968 33.3651 38.968Z" fill="white"/>
<path d="M17.5257 13.003C16.4891 13.0741 15.4874 13.2181 14.6582 13.4187C14.5591 13.4424 14.4729 13.4661 14.4674 13.4734C14.4564 13.4843 10.9945 24.1732 11 24.1787C11.0018 24.1805 11.2715 24.093 11.5999 23.9836C13.5097 23.351 15.1902 23.0229 16.8102 22.9645C18.3714 22.9098 19.7822 23.1432 21.0022 23.6609C22.1525 24.1495 23.0698 24.8533 23.7798 25.7903L23.9376 26L23.9412 25.4257C23.9577 23.1322 24.0018 15.5791 23.9999 15.2254V14.7878L23.8679 14.6766C22.8937 13.8471 21.6352 13.3221 20.1033 13.1033C19.5327 13.0213 19.3052 13.0067 18.4521 13.0012C17.999 12.9994 17.5807 12.9994 17.5257 13.003Z" fill="#ADADAD"/>
<path d="M29.8831 13.0091C27.9254 13.1241 26.3388 13.6751 25.1745 14.6476L25 14.7935V15.8974C24.9982 17.2694 25.0515 25.9907 25.0588 25.9998C25.0625 26.0034 25.0955 25.9615 25.1323 25.9067C25.3673 25.5546 25.9054 24.989 26.3112 24.6679C27.2937 23.8888 28.4452 23.3871 29.8353 23.1316C30.8013 22.9546 31.9509 22.9236 33.1243 23.0422C34.5237 23.1827 36.1324 23.5549 37.7851 24.1242C37.9027 24.1643 38 24.1917 38 24.1844C38 24.1388 34.5475 13.4817 34.5292 13.4707C34.4943 13.4489 33.9452 13.3284 33.5742 13.2609C32.9278 13.1442 32.2227 13.0584 31.545 13.0146C31.2824 12.9982 30.1365 12.9945 29.8831 13.0091Z" fill="#ADADAD"/>
<path d="M10.0513 21.1658C8.92371 24.5563 8 27.3408 8 27.3519C8 27.3703 9.55175 27.3758 15.7 27.3758C21.8336 27.3758 23.4055 27.3813 23.4275 27.3979C23.4441 27.4108 23.4863 27.4642 23.523 27.5158C23.6608 27.7092 23.8646 27.862 24.0905 27.943C24.1933 27.978 24.2723 27.9909 24.4265 27.9983C24.6726 28.0075 24.7957 27.9817 25.0326 27.8639C25.2235 27.7699 25.3337 27.6797 25.4751 27.5029L25.5761 27.3758H33.2871C39.4482 27.3758 41 27.3703 41 27.3519C41 27.3408 40.08 24.5618 38.9561 21.1787L36.9104 15.0276L36.4751 15.0221C36.0656 15.0184 36.0399 15.0203 36.0491 15.0497C36.1629 15.4199 39.3344 26.374 39.3417 26.42C39.3528 26.4992 39.3252 26.5618 39.2683 26.5747C39.2426 26.5821 39.0791 26.5268 38.8055 26.42C34.1135 24.5894 29.9045 24.3224 26.6486 25.6447C25.9489 25.9283 25.2933 26.304 24.7865 26.7091L24.5955 26.862L24.511 26.8491C24.4192 26.8362 24.3861 26.816 24.175 26.6447C23.7434 26.2966 23.0346 25.897 22.3698 25.6263C21.2955 25.1898 20.201 24.9449 18.8255 24.8307C18.4528 24.8012 17.1838 24.8012 16.7963 24.8307C14.578 25.0056 12.479 25.5139 10.0568 26.4642C9.76845 26.5765 9.72621 26.5802 9.68214 26.4937C9.65459 26.444 9.71886 26.2156 11.2982 20.7717C12.2017 17.652 12.9454 15.0792 12.9528 15.0497L12.9638 15H12.5341H12.1043L10.0513 21.1658Z" fill="#ADADAD"/>
<path d="M34.8626 15.0217C34.9124 15.1572 37.9163 24.4437 37.9163 24.4672C37.9163 24.5142 37.8592 24.5612 37.8039 24.5612C37.7781 24.5612 37.6473 24.5214 37.5109 24.4726C35.8025 23.8671 34.048 23.4641 32.4981 23.3213C32.0687 23.2833 30.974 23.2671 30.5796 23.2942C29.6858 23.3556 28.9818 23.4876 28.2409 23.7298C27.2439 24.0551 26.4164 24.5286 25.6811 25.1901C25.4268 25.4197 24.9753 25.9185 25.0011 25.9438C25.0047 25.9474 25.1079 25.8914 25.2277 25.8173C26.2524 25.1919 27.6604 24.7166 29.1163 24.5087C29.7706 24.4148 30.3511 24.3768 31.1251 24.3768C31.7609 24.375 32.1553 24.3949 32.7561 24.4545C34.5898 24.6353 36.5747 25.1124 38.6001 25.8625C38.8157 25.942 38.9945 26.0035 39 25.9998C39.0037 25.9944 38.2739 23.5183 37.38 20.4963L35.7527 15H35.3031C34.9511 15 34.8552 15.0054 34.8626 15.0217Z" fill="#ADADAD"/>
<path d="M13.2499 15.0217C13.2112 15.1305 9.99632 25.9897 10 25.9988C10.0037 26.006 10.0885 25.9806 10.1899 25.9408C10.2913 25.9027 10.5659 25.8031 10.7982 25.7197C13.4343 24.7811 15.8952 24.3299 18.1442 24.3734C18.7506 24.3861 19.0032 24.4024 19.5175 24.4604C21.1508 24.6434 22.6513 25.1254 23.7997 25.8321C23.9048 25.8955 23.9933 25.9444 23.9988 25.939C24.0302 25.9082 23.4329 25.2758 23.1306 25.0203C21.1028 23.3098 18.0483 22.8387 14.3007 23.6613C13.4472 23.8479 12.4573 24.1306 11.5761 24.4405C11.3752 24.5093 11.2001 24.5673 11.1853 24.5673C11.1392 24.5673 11.0839 24.4984 11.0839 24.4423C11.0839 24.4151 11.7678 22.2969 12.6047 19.7365C13.4416 17.1762 14.1311 15.0634 14.1366 15.0399L14.1477 15H13.7034C13.3642 15 13.2555 15.0054 13.2499 15.0217Z" fill="#ADADAD"/>
</svg>
