<svg width="50" height="50" viewBox="0 0 50 50" fill="none" xmlns="http://www.w3.org/2000/svg">
<path d="M20.755 14.1596C13.2443 15.0565 7.35356 16.9698 4.70272 19.3615C3.78965 20.1986 3.7602 20.2584 4.55545 19.7202C13.7156 13.6813 32.8605 13.7112 41.6377 19.78C47.2634 23.6964 46.4976 28.958 39.7821 32.4857C35.1874 34.8774 30.5926 35.8042 23.1113 35.8042C14.5697 35.8042 8.32553 34.2496 4.11364 31.1105L3.08276 30.3332L3.93692 31.26C5.85142 33.3527 11.5654 35.6547 17.0733 36.5516C20.755 37.1495 28.413 37.1495 32.0947 36.5516C40.0178 35.2361 45.7907 32.2167 47.4401 28.4797C47.7641 27.7921 47.9997 26.5664 47.9997 25.6097C47.9997 21.2748 44.3769 17.9863 37.1902 15.8039C32.5071 14.3988 25.0847 13.6514 20.755 14.1596Z" fill="white"/>
<path d="M5.50427 21.0351C7.89243 18.789 13.0226 16.8424 18.0348 16.2135C24.9634 15.4049 32.3048 16.3932 37.376 18.9088C41.5037 20.9453 43.6559 24.0299 42.9778 26.875C42.3292 29.4804 38.8796 32.2357 34.3981 33.7331C30.8601 34.931 28.5014 35.2305 23.047 35.2305C15.2633 35.2305 11.342 34.2721 6.80154 31.2773C2.2316 28.2825 1.75986 24.539 5.50427 21.0351Z" fill="white"/>
<path d="M9.22681 28.7436C9.22681 28.7436 11.8631 26.8544 13.7517 26.0476C15.7306 25.2023 16.9358 24.8935 19.0654 24.6154C22.0774 24.2221 23.801 24.8345 26.8283 25.0788C28.9059 25.2464 30.0581 25.6261 32.1419 25.5843C35.3811 25.5192 40.2784 23.9414 40.2784 23.9414C40.2784 23.9414 37.3428 25.8732 35.2554 26.6374C32.7907 27.5397 31.2678 27.6621 28.6548 27.859C25.4649 28.0993 23.6748 27.4651 20.4768 27.3956C18.4832 27.3523 17.3557 27.2029 15.3707 27.3956C12.9271 27.6329 9.22681 28.7436 9.22681 28.7436Z" fill="#1F1E1E" fill-opacity="0.95"/>
<path d="M11.8835 22.1516L12.2915 22.739L12.1823 22.796C12.0149 22.6187 11.8863 22.5215 11.7965 22.5043C11.7075 22.4846 11.5604 22.5283 11.3552 22.6353L10.8737 22.8865L11.678 24.5026C11.7674 24.6822 11.83 24.785 11.8659 24.8111C11.901 24.8355 11.9443 24.8513 11.9958 24.8586C12.0482 24.8633 12.1323 24.8354 12.2481 24.775L12.2949 24.869L11.1581 25.462L11.1114 25.368C11.2718 25.28 11.3634 25.2002 11.3861 25.1286C11.408 25.0553 11.3688 24.9179 11.2685 24.7163L10.6539 23.4813C10.5721 23.317 10.5107 23.2167 10.4698 23.1804C10.4279 23.1425 10.3788 23.1254 10.3224 23.1293C10.2676 23.1323 10.1761 23.1661 10.0478 23.2309L9.99976 23.1343L11.8835 22.1516Z" fill="#1E1D1D"/>
<path d="M14.0931 23.2386L14.6468 21.6133C14.5888 21.4797 14.5256 21.3962 14.4572 21.3627C14.3887 21.3292 14.2964 21.335 14.1802 21.38L14.1399 21.2801L15.258 20.8274L15.2983 20.9273C15.1811 20.9748 15.1073 21.0189 15.0769 21.0598C15.0459 21.0989 15.0261 21.1406 15.0175 21.1848C15.0088 21.2291 15.0434 21.3477 15.1212 21.5405L15.6366 22.8187C15.7115 23.0046 15.766 23.112 15.8001 23.141C15.8335 23.1683 15.876 23.1878 15.9275 23.1996C15.9801 23.2089 16.0677 23.1887 16.1902 23.1392L16.2294 23.2365L15.0667 23.7072L15.0274 23.6099C15.1727 23.5511 15.2592 23.4855 15.287 23.413C15.314 23.3388 15.2862 23.1992 15.2035 22.994L14.7464 21.8605L14.1938 23.4885C14.2574 23.6361 14.3197 23.7302 14.3809 23.7707C14.442 23.8112 14.5368 23.8065 14.6652 23.7565L14.7044 23.8538L13.5942 24.3033L13.5549 24.206C13.7107 24.1429 13.7991 24.0745 13.8202 24.0007C13.8406 23.9251 13.8109 23.7883 13.731 23.5902L13.2156 22.312C13.14 22.1244 13.0858 22.0178 13.0531 21.9923C13.0198 21.965 12.9776 21.9464 12.9268 21.9364C12.8752 21.9246 12.7873 21.9439 12.6631 21.9942L12.6228 21.8942L13.7856 21.4235L13.8259 21.5234C13.7086 21.5709 13.6348 21.6151 13.6045 21.6559C13.5734 21.695 13.5536 21.7367 13.545 21.7809C13.5364 21.8252 13.571 21.9438 13.6487 22.1367L14.0931 23.2386Z" fill="#1E1D1D"/>
<path d="M18.2614 22.2285L18.7893 20.205L19.6438 20.0825L19.6586 20.1897C19.5332 20.2077 19.4511 20.2329 19.4124 20.2653C19.3752 20.2956 19.3472 20.3312 19.3284 20.3723C19.3096 20.4133 19.3145 20.5373 19.343 20.7442L19.5319 22.1154C19.5565 22.2941 19.5807 22.4085 19.6046 22.4588C19.63 22.507 19.6713 22.5404 19.7284 22.559C19.7873 22.5774 19.873 22.5786 19.9855 22.5624L19.9999 22.6668L18.7747 22.8425L18.7603 22.7381C18.9115 22.7164 19.009 22.6737 19.0529 22.6098C19.0965 22.5441 19.1031 22.4013 19.0728 22.1812L18.8586 20.6267L18.2603 22.9162L18.1635 22.9301L16.9531 20.8998L17.1673 22.4544C17.1919 22.6331 17.2171 22.7474 17.2427 22.7974C17.2682 22.8456 17.3094 22.879 17.3665 22.8977C17.4236 22.9163 17.5084 22.9176 17.6209 22.9015L17.6353 23.0059L16.6673 23.1446L16.6529 23.0402C16.817 23.0167 16.918 22.9716 16.9558 22.9048C16.9933 22.8361 16.9974 22.6955 16.9682 22.4829L16.7793 21.1118C16.7515 20.9105 16.7251 20.7935 16.6999 20.7607C16.6744 20.7259 16.6385 20.6975 16.5922 20.6754C16.5457 20.6514 16.457 20.6488 16.326 20.6675L16.3113 20.5603L17.2018 20.4326L18.2614 22.2285Z" fill="#1E1D1D"/>
<path d="M21.3478 21.2276L22.4419 21.3066L22.4793 20.7531C22.4905 20.5876 22.4914 20.4797 22.4818 20.4293C22.4724 20.377 22.4431 20.3319 22.3938 20.2939C22.3465 20.2542 22.2584 20.2297 22.1295 20.2203L22.1368 20.1119L23.3608 20.2003L23.3534 20.3087C23.2392 20.3005 23.1545 20.3077 23.0993 20.3305C23.0459 20.3534 23.0083 20.3899 22.9864 20.4399C22.9646 20.488 22.9476 20.6034 22.9352 20.786L22.8413 22.1727C22.8301 22.3381 22.8291 22.448 22.8384 22.5022C22.8496 22.5565 22.8807 22.6027 22.9318 22.6408C22.983 22.677 23.0694 22.6995 23.191 22.7083L23.1838 22.8138L21.9599 22.7254L21.967 22.6199C22.1199 22.6309 22.224 22.6098 22.2795 22.5564C22.3351 22.5012 22.3704 22.3623 22.3854 22.1397L22.4293 21.4921L21.3352 21.4131L21.2914 22.0607C21.2801 22.2262 21.2792 22.3361 21.2885 22.3902C21.2996 22.4446 21.3307 22.4908 21.3818 22.5289C21.433 22.5651 21.5194 22.5876 21.641 22.5963L21.6339 22.7019L20.4099 22.6135L20.4171 22.508C20.581 22.5198 20.688 22.4969 20.7382 22.4394C20.7885 22.3799 20.8209 22.2428 20.8355 22.0278L20.9294 20.6412C20.9406 20.4757 20.9406 20.3658 20.9295 20.3115C20.9202 20.2573 20.8899 20.2121 20.8387 20.1759C20.7875 20.1397 20.7011 20.1172 20.5795 20.1084L20.5869 20L21.8108 20.0884L21.8035 20.1968C21.6893 20.1886 21.6046 20.1958 21.5494 20.2186C21.496 20.2415 21.4583 20.278 21.4364 20.328C21.4147 20.3761 21.3976 20.4915 21.3852 20.6741L21.3478 21.2276Z" fill="#1E1D1D"/>
<path d="M25.5439 22.2678L24.5012 22.1403L24.2673 22.5499C24.2097 22.6508 24.1778 22.7274 24.1716 22.7799C24.1667 22.8216 24.1815 22.8609 24.2161 22.8979C24.2521 22.9337 24.3345 22.9643 24.4631 22.9896L24.4543 23.0643L23.6062 22.9606L23.4998 22.8979C23.6147 22.8915 23.7648 22.8081 23.8017 22.7799C23.8769 22.7235 23.8942 22.6878 23.9998 22.5L25.2467 20.3396L25.3974 20.3394L26.0654 22.7308C26.1192 22.9231 26.1733 23.0505 26.2276 23.1131C26.2835 23.1746 26.366 23.2154 26.4751 23.2355L26.4663 23.3102L25.4037 23.1803L25.4125 23.1056C25.5204 23.1134 25.5947 23.104 25.6354 23.0776C25.6775 23.0513 25.7012 23.016 25.7064 22.9716C25.7134 22.9124 25.698 22.8156 25.6602 22.6813L25.5439 22.2678ZM25.506 22.1116L25.1801 20.9496L24.5804 21.9985L25.506 22.1116Z" fill="#1E1D1D"/>
<path d="M26.9863 21.6492L27.0429 20.8441L27.1614 20.8524C27.1932 20.8847 27.2297 20.9022 27.2711 20.9051C27.3031 20.9073 27.3738 20.8972 27.4831 20.8747C27.6654 20.8367 27.8129 20.8216 27.9258 20.8294C28.1741 20.8467 28.3771 20.9181 28.5346 21.0437C28.694 21.1694 28.767 21.3267 28.7538 21.5156C28.7334 21.8054 28.4975 22.0004 28.0462 22.1006C28.5542 22.243 28.795 22.5012 28.7687 22.8753C28.7549 23.0716 28.6599 23.2398 28.4837 23.3797C28.3076 23.5178 28.0615 23.5759 27.7455 23.5539C27.5386 23.5396 27.3586 23.4904 27.2058 23.4065C27.0549 23.3208 26.8934 23.1837 26.7214 22.9951L26.7999 22.9273C27.0918 23.1862 27.3759 23.3253 27.6525 23.3445C27.8105 23.3555 27.944 23.3112 28.0531 23.2117C28.1622 23.1122 28.2227 22.9773 28.2347 22.8071C28.2609 22.435 28.033 22.2209 27.5511 22.1648L27.5626 22.0022C27.7902 22.018 27.959 21.9696 28.069 21.857C28.1811 21.7426 28.2419 21.6162 28.2517 21.4778C28.2602 21.3563 28.2235 21.2466 28.1415 21.1488C28.0614 21.0512 27.949 20.9973 27.8041 20.9873C27.4693 20.964 27.2305 21.187 27.0878 21.6563L26.9863 21.6492Z" fill="#1E1D1D"/>
<path d="M30.0741 22.991L31.2522 21.7581C31.256 21.6132 31.2341 21.5112 31.1866 21.4521C31.139 21.3931 31.0536 21.3594 30.9303 21.351L30.9359 21.2439L32.1308 21.3068L32.1252 21.4139C31.9999 21.4073 31.9151 21.4161 31.8707 21.4401C31.8264 21.4623 31.7911 21.4915 31.7649 21.5278C31.7386 21.5642 31.7201 21.6857 31.7093 21.8925L31.6379 23.2628C31.6275 23.462 31.6315 23.5819 31.65 23.6225C31.6686 23.6612 31.6987 23.6967 31.7401 23.729C31.7835 23.7596 31.8707 23.7783 32.0016 23.7852L31.9961 23.8895L30.7535 23.8241L30.759 23.7197C30.9142 23.7279 31.0194 23.7052 31.0747 23.6515C31.1301 23.596 31.1636 23.4583 31.175 23.2384L31.2384 22.0232L30.0601 23.2588C30.0555 23.4188 30.0723 23.5299 30.1103 23.5923C30.1483 23.6546 30.2355 23.6903 30.3719 23.6993L30.3664 23.8037L29.1799 23.7412L29.1854 23.6368C29.3518 23.6456 29.46 23.6211 29.5098 23.5635C29.5598 23.5039 29.5904 23.3679 29.6014 23.1555L29.6729 21.7852C29.6834 21.5841 29.6792 21.4651 29.6605 21.4283C29.6419 21.3896 29.6119 21.3551 29.5703 21.3246C29.5289 21.2923 29.4418 21.2726 29.309 21.2656L29.3146 21.1584L30.5572 21.2239L30.5516 21.3311C30.4263 21.3245 30.3415 21.3332 30.2971 21.3572C30.2528 21.3794 30.2175 21.4086 30.1913 21.445C30.165 21.4813 30.1465 21.6028 30.1357 21.8096L30.0741 22.991Z" fill="#1E1D1D"/>
<path d="M34.8641 21.1584L34.8697 21.2662C34.7529 21.2724 34.667 21.293 34.6122 21.3281C34.5592 21.3631 34.5255 21.4056 34.5111 21.4557C34.4967 21.5057 34.494 21.6168 34.503 21.7888L34.575 23.1671C34.5836 23.3316 34.5968 23.4399 34.6147 23.4921C34.6324 23.5423 34.6704 23.583 34.7287 23.614C34.7889 23.645 34.8774 23.6574 34.9943 23.6513L34.9998 23.7562L33.7475 23.822L33.7421 23.7171C33.8985 23.7089 34.0016 23.675 34.0514 23.6155C34.1011 23.5541 34.1202 23.4129 34.1086 23.1916L34.0791 22.6273L33.9634 22.6362C33.9464 22.6371 33.9162 22.6378 33.8728 22.6381L33.1087 23.8556L32.4642 23.8895L32.4587 23.7846C32.553 23.7796 32.6173 23.7639 32.6519 23.7375C32.6882 23.709 32.7526 23.6213 32.845 23.4742L33.4052 22.5859C32.9639 22.4575 32.7351 22.2373 32.7188 21.9253C32.7096 21.7495 32.7789 21.5932 32.9267 21.4565C33.0763 21.3179 33.3386 21.2387 33.7136 21.2189L34.8641 21.1584ZM34.016 21.4192C33.9414 21.4022 33.8712 21.3955 33.8052 21.399C33.6149 21.409 33.4751 21.4637 33.3858 21.5632C33.2965 21.6627 33.2553 21.7777 33.2621 21.9081C33.2708 22.0745 33.3449 22.209 33.4844 22.3116C33.6239 22.4142 33.7954 22.4602 33.999 22.4495C34.0197 22.4484 34.0432 22.4453 34.0693 22.4401L34.016 21.4192Z" fill="#1E1D1D"/>
<path d="M27.8689 31.5639L29.6483 29.1104H29.9853V31.5639H30.3279V32.1457H29.9853V33.0001H29.2255V32.1457H27.8689V31.5639ZM28.1369 31.5639H29.2255V30.0603L28.1369 31.5639Z" fill="#1E1D1D"/>
<path d="M32.9823 32.9998H30.7371V32.938C31.4254 32.1192 31.8428 31.5683 31.9891 31.2854C32.1373 31.0025 32.2114 30.7261 32.2114 30.4563C32.2114 30.2596 32.1504 30.0966 32.0285 29.9673C31.9066 29.8361 31.7574 29.7706 31.5811 29.7706C31.2923 29.7706 31.0681 29.9148 30.9087 30.2034L30.8046 30.1668C30.9059 29.8071 31.0597 29.541 31.266 29.3687C31.4723 29.1963 31.7106 29.1101 31.9807 29.1101C32.1739 29.1101 32.3502 29.1551 32.5096 29.245C32.669 29.3349 32.7938 29.4586 32.8838 29.616C32.9738 29.7715 33.0189 29.9177 33.0189 30.0544C33.0189 30.3036 32.9495 30.5566 32.8107 30.8133C32.6212 31.1599 32.2076 31.6433 31.5699 32.2635H32.3942C32.5968 32.2635 32.7281 32.255 32.7881 32.2382C32.85 32.2213 32.9007 32.1932 32.9401 32.1539C32.9795 32.1126 33.031 32.0274 33.0948 31.8981H33.1961L32.9823 32.9998Z" fill="#1E1D1D"/>
</svg>
