1<svg width="50" height="50" viewBox="0 0 50 50" fill="none" xmlns="http://www.w3.org/2000/svg">
<path d="M20.7553 14.1595C13.2446 15.0564 7.3538 16.9697 4.70296 19.3614C3.7899 20.1985 3.76044 20.2582 4.5557 19.7201C13.7158 13.6812 32.8608 13.7111 41.638 19.7799C47.2636 23.6963 46.4978 28.9579 39.7824 32.4856C35.1876 34.8773 30.5928 35.804 23.1116 35.804C14.57 35.804 8.32578 34.2495 4.11389 31.1104L3.08301 30.3331L3.93717 31.2599C5.85166 33.3526 11.5657 35.6546 17.0735 36.5514C20.7553 37.1494 28.4132 37.1494 32.095 36.5514C40.018 35.236 45.791 32.2166 47.4404 28.4796C47.7644 27.792 48 26.5663 48 25.6096C48 21.2747 44.3772 17.9862 37.1905 15.8038C32.5073 14.3987 25.085 13.6513 20.7553 14.1595Z" fill="#ADADAD"/>
<path d="M5.50451 21.035C7.89268 18.7889 13.0228 16.8423 18.035 16.2134C24.9636 15.4048 32.305 16.393 37.3762 18.9087C41.5039 20.9451 43.6562 24.0298 42.9781 26.8749C42.3294 29.4803 38.8799 32.2355 34.3984 33.7329C30.8603 34.9309 28.5017 35.2303 23.0472 35.2303C15.2636 35.2303 11.3423 34.272 6.80179 31.2772C2.23184 28.2824 1.76011 24.5389 5.50451 21.035Z" fill="white"/>
<path d="M9.22705 28.7434C9.22705 28.7434 11.8633 26.8542 13.752 26.0474C15.7308 25.2021 16.9361 24.8932 19.0656 24.6152C22.0776 24.2218 23.8012 24.8343 26.8285 25.0785C28.9062 25.2462 30.0584 25.6259 32.1422 25.584C35.3813 25.5189 40.2787 23.9412 40.2787 23.9412C40.2787 23.9412 37.343 25.8729 35.2556 26.6371C32.7909 27.5395 31.2681 27.6619 28.6551 27.8587C25.4652 28.0991 23.675 27.4649 20.477 27.3954C18.4834 27.352 17.3559 27.2026 15.371 27.3954C12.9273 27.6327 9.22705 28.7434 9.22705 28.7434Z" fill="#1F1E1E" fill-opacity="0.95"/>
<path d="M11.8838 22.1515L12.2918 22.7389L12.1826 22.7958C12.0152 22.6186 11.8865 22.5214 11.7967 22.5042C11.7077 22.4845 11.5606 22.5281 11.3554 22.6352L10.8739 22.8864L11.6782 24.5025C11.7676 24.6821 11.8302 24.7849 11.8661 24.811C11.9012 24.8354 11.9445 24.8512 11.9961 24.8584C12.0484 24.8631 12.1325 24.8353 12.2483 24.7749L12.2951 24.8689L11.1584 25.4619L11.1116 25.3679C11.2721 25.2799 11.3637 25.2001 11.3864 25.1285C11.4083 25.0552 11.369 24.9177 11.2687 24.7161L10.6541 23.4812C10.5723 23.3168 10.511 23.2166 10.47 23.1803C10.4282 23.1424 10.3791 23.1253 10.3226 23.1292C10.2678 23.1321 10.1763 23.166 10.0481 23.2308L10 23.1342L11.8838 22.1515Z" fill="#1E1D1D"/>
<path d="M14.0933 23.2384L14.647 21.6131C14.5891 21.4795 14.5259 21.3959 14.4574 21.3625C14.389 21.329 14.2966 21.3347 14.1804 21.3797L14.1401 21.2798L15.2583 20.8271L15.2986 20.9271C15.1813 20.9746 15.1075 21.0187 15.0772 21.0595C15.0461 21.0986 15.0263 21.1403 15.0177 21.1846C15.0091 21.2289 15.0437 21.3474 15.1214 21.5403L15.6368 22.8185C15.7118 23.0043 15.7663 23.1118 15.8004 23.1408C15.8338 23.1681 15.8762 23.1876 15.9278 23.1993C15.9804 23.2086 16.0679 23.1885 16.1904 23.1389L16.2297 23.2362L15.0669 23.7069L15.0277 23.6096C15.1729 23.5508 15.2594 23.4852 15.2872 23.4128C15.3143 23.3386 15.2865 23.1989 15.2037 22.9938L14.7467 21.8603L14.194 23.4882C14.2576 23.6358 14.32 23.7299 14.3811 23.7704C14.4422 23.811 14.537 23.8062 14.6655 23.7563L14.7047 23.8536L13.5944 24.3031L13.5552 24.2057C13.7109 24.1427 13.7994 24.0743 13.8205 24.0005C13.8409 23.9249 13.8112 23.788 13.7313 23.5899L13.2159 22.3117C13.1402 22.1241 13.0861 22.0176 13.0534 21.992C13.02 21.9648 12.9779 21.9461 12.927 21.9361C12.8755 21.9244 12.7876 21.9436 12.6633 21.9939L12.623 21.894L13.7858 21.4233L13.8261 21.5232C13.7089 21.5707 13.6351 21.6148 13.6047 21.6557C13.5737 21.6947 13.5538 21.7364 13.5452 21.7807C13.5366 21.825 13.5712 21.9435 13.649 22.1364L14.0933 23.2384Z" fill="#1E1D1D"/>
<path d="M18.2617 22.2282L18.7895 20.2048L19.6441 20.0823L19.6588 20.1895C19.5335 20.2075 19.4514 20.2327 19.4126 20.2651C19.3754 20.2953 19.3474 20.331 19.3286 20.372C19.3099 20.4131 19.3147 20.5371 19.3432 20.744L19.5321 22.1151C19.5567 22.2938 19.581 22.4083 19.6048 22.4586C19.6302 22.5067 19.6715 22.5401 19.7286 22.5588C19.7875 22.5772 19.8733 22.5783 19.9857 22.5622L20.0001 22.6666L18.7749 22.8422L18.7606 22.7379C18.9117 22.7162 19.0093 22.6734 19.0531 22.6096C19.0967 22.5439 19.1033 22.401 19.073 22.1809L18.8589 20.6264L18.2605 22.916L18.1637 22.9299L16.9534 20.8996L17.1675 22.4541C17.1921 22.6328 17.2173 22.7472 17.243 22.7972C17.2684 22.8453 17.3097 22.8787 17.3668 22.8974C17.4239 22.9161 17.5087 22.9173 17.6211 22.9012L17.6355 23.0056L16.6676 23.1444L16.6532 23.04C16.8173 23.0165 16.9182 22.9713 16.956 22.9045C16.9936 22.8358 16.9977 22.6952 16.9684 22.4827L16.7795 21.1115C16.7518 20.9103 16.7253 20.7932 16.7001 20.7604C16.6746 20.7257 16.6388 20.6973 16.5925 20.6751C16.5459 20.6511 16.4572 20.6485 16.3263 20.6673L16.3115 20.5601L17.202 20.4324L18.2617 22.2282Z" fill="#1E1D1D"/>
<path d="M21.348 21.2275L22.4421 21.3065L22.4796 20.753C22.4908 20.5875 22.4916 20.4796 22.4821 20.4292C22.4727 20.3769 22.4433 20.3318 22.3941 20.2938C22.3468 20.2541 22.2587 20.2295 22.1297 20.2202L22.1371 20.1118L23.361 20.2002L23.3537 20.3086C23.2395 20.3004 23.1548 20.3076 23.0996 20.3304C23.0462 20.3533 23.0085 20.3898 22.9866 20.4398C22.9649 20.4879 22.9478 20.6033 22.9354 20.7859L22.8416 22.1725C22.8303 22.338 22.8294 22.4479 22.8387 22.5021C22.8498 22.5564 22.8809 22.6026 22.932 22.6407C22.9832 22.6769 23.0696 22.6994 23.1912 22.7081L23.184 22.8137L21.9601 22.7253L21.9673 22.6198C22.1201 22.6308 22.2243 22.6096 22.2797 22.5563C22.3353 22.5011 22.3706 22.3622 22.3857 22.1396L22.4295 21.4919L21.3355 21.4129L21.2916 22.0606C21.2804 22.2261 21.2794 22.3359 21.2887 22.3901C21.2998 22.4445 21.331 22.4907 21.3821 22.5288C21.4333 22.5649 21.5197 22.5874 21.6412 22.5962L21.6341 22.7018L20.4102 22.6134L20.4173 22.5078C20.5812 22.5197 20.6883 22.4968 20.7385 22.4393C20.7887 22.3798 20.8212 22.2426 20.8357 22.0277L20.9296 20.641C20.9408 20.4756 20.9409 20.3657 20.9297 20.3113C20.9205 20.2571 20.8902 20.212 20.839 20.1758C20.7877 20.1396 20.7013 20.1171 20.5798 20.1083L20.5871 19.9999L21.8111 20.0883L21.8037 20.1967C21.6895 20.1884 21.6048 20.1957 21.5496 20.2185C21.4962 20.2414 21.4586 20.2778 21.4367 20.3279C21.4149 20.376 21.3979 20.4914 21.3855 20.674L21.348 21.2275Z" fill="#1E1D1D"/>
<path d="M25.5442 22.2678L24.5014 22.1403L24.2676 22.5499C24.21 22.6508 24.1781 22.7274 24.1719 22.7799C24.1669 22.8216 24.1817 22.8609 24.2163 22.8979C24.2524 22.9337 24.3347 22.9643 24.4634 22.9896L24.4545 23.0643L23.6064 22.9606L23.5 22.8979C23.6149 22.8915 23.7651 22.8081 23.802 22.7799C23.8771 22.7235 23.8945 22.6878 24 22.5L25.2469 20.3396L25.3976 20.3394L26.0656 22.7308C26.1194 22.9231 26.1735 23.0505 26.2279 23.1131C26.2838 23.1746 26.3662 23.2154 26.4753 23.2355L26.4665 23.3102L25.4039 23.1803L25.4127 23.1056C25.5206 23.1134 25.595 23.104 25.6357 23.0776C25.6778 23.0513 25.7014 23.016 25.7067 22.9716C25.7137 22.9124 25.6983 22.8156 25.6604 22.6813L25.5442 22.2678ZM25.5062 22.1116L25.1803 20.9496L24.5807 21.9985L25.5062 22.1116Z" fill="#1E1D1D"/>
<path d="M26.9865 21.649L27.0431 20.8439L27.1616 20.8521C27.1934 20.8844 27.23 20.902 27.2714 20.9049C27.3033 20.9071 27.374 20.897 27.4833 20.8745C27.6656 20.8364 27.8132 20.8213 27.9261 20.8292C28.1744 20.8464 28.3773 20.9178 28.5348 21.0434C28.6942 21.1691 28.7673 21.3264 28.754 21.5153C28.7336 21.8052 28.4978 22.0002 28.0465 22.1004C28.5544 22.2428 28.7953 22.501 28.7689 22.875C28.7551 23.0714 28.6601 23.2395 28.4839 23.3795C28.3078 23.5176 28.0618 23.5757 27.7457 23.5537C27.5388 23.5393 27.3589 23.4902 27.206 23.4062C27.0551 23.3206 26.8937 23.1835 26.7217 22.9949L26.8002 22.927C27.092 23.186 27.3762 23.3251 27.6527 23.3443C27.8107 23.3553 27.9443 23.311 28.0534 23.2115C28.1625 23.1119 28.223 22.9771 28.235 22.8069C28.2611 22.4347 28.0333 22.2207 27.5514 22.1646L27.5628 22.0019C27.7905 22.0177 27.9593 21.9693 28.0693 21.8567C28.1813 21.7423 28.2422 21.616 28.2519 21.4776C28.2605 21.356 28.2237 21.2464 28.1418 21.1486C28.0617 21.0509 27.9492 20.9971 27.8044 20.987C27.4695 20.9637 27.2307 21.1867 27.0881 21.656L26.9865 21.649Z" fill="#1E1D1D"/>
<path d="M30.0743 22.9908L31.2524 21.758C31.2563 21.6131 31.2344 21.5111 31.1868 21.452C31.1393 21.393 31.0538 21.3593 30.9305 21.3509L30.9361 21.2437L32.131 21.3067L32.1255 21.4138C32.0002 21.4072 31.9153 21.416 31.8709 21.44C31.8267 21.4622 31.7914 21.4914 31.7651 21.5277C31.7388 21.564 31.7203 21.6856 31.7095 21.8923L31.6381 23.2627C31.6277 23.4619 31.6318 23.5818 31.6503 23.6224C31.6689 23.661 31.6989 23.6965 31.7404 23.7289C31.7838 23.7594 31.8709 23.7782 32.0018 23.7851L31.9964 23.8894L30.7538 23.8239L30.7592 23.7196C30.9144 23.7278 31.0197 23.7051 31.075 23.6514C31.1304 23.5959 31.1638 23.4582 31.1753 23.2383L31.2386 22.023L30.0604 23.2587C30.0558 23.4187 30.0725 23.5298 30.1105 23.5921C30.1485 23.6545 30.2357 23.6901 30.3721 23.6992L30.3667 23.8035L29.1802 23.741L29.1856 23.6367C29.352 23.6455 29.4602 23.621 29.5101 23.5633C29.5601 23.5038 29.5906 23.3678 29.6017 23.1554L29.6731 21.7851C29.6836 21.5839 29.6795 21.465 29.6608 21.4282C29.6422 21.3895 29.6121 21.3549 29.5706 21.3245C29.5291 21.2921 29.442 21.2725 29.3092 21.2655L29.3148 21.1583L30.5574 21.2238L30.5519 21.3309C30.4266 21.3243 30.3417 21.3331 30.2973 21.3571C30.2531 21.3793 30.2178 21.4085 30.1915 21.4448C30.1652 21.4811 30.1467 21.6027 30.1359 21.8095L30.0743 22.9908Z" fill="#1E1D1D"/>
<path d="M34.8643 21.1583L34.8699 21.2661C34.7531 21.2722 34.6673 21.2929 34.6124 21.328C34.5594 21.363 34.5257 21.4055 34.5114 21.4556C34.497 21.5056 34.4943 21.6167 34.5032 21.7887L34.5752 23.167C34.5838 23.3315 34.5971 23.4398 34.6149 23.492C34.6326 23.5422 34.6707 23.5829 34.729 23.6139C34.7892 23.6449 34.8777 23.6573 34.9945 23.6511L35 23.7561L33.7478 23.8219L33.7423 23.717C33.8987 23.7088 34.0018 23.6749 34.0516 23.6154C34.1013 23.554 34.1204 23.4127 34.1088 23.1915L34.0794 22.6272L33.9636 22.6361C33.9467 22.637 33.9165 22.6376 33.873 22.638L33.109 23.8555L32.4645 23.8894L32.459 23.7845C32.5532 23.7795 32.6176 23.7638 32.6521 23.7373C32.6884 23.7089 32.7528 23.6211 32.8453 23.4741L33.4054 22.5858C32.9641 22.4574 32.7353 22.2371 32.719 21.9252C32.7098 21.7494 32.7791 21.5931 32.9269 21.4564C33.0765 21.3177 33.3388 21.2385 33.7138 21.2188L34.8643 21.1583ZM34.0163 21.419C33.9417 21.4021 33.8714 21.3954 33.8054 21.3988C33.6151 21.4089 33.4753 21.4636 33.386 21.5631C33.2967 21.6626 33.2555 21.7775 33.2623 21.908C33.271 22.0744 33.3451 22.2089 33.4846 22.3115C33.6242 22.4141 33.7957 22.4601 33.9992 22.4494C34.0199 22.4483 34.0434 22.4452 34.0696 22.44L34.0163 21.419Z" fill="#1E1D1D"/>
<path d="M27.8691 31.5638L29.6485 29.1102H29.9856V31.5638H30.3282V32.1456H29.9856V32.9999H29.2258V32.1456H27.8691V31.5638ZM28.1371 31.5638H29.2258V30.0602L28.1371 31.5638Z" fill="#1E1D1D"/>
<path d="M32.9825 32.9997H30.7373V32.9379C31.4257 32.1191 31.843 31.5682 31.9893 31.2853C32.1375 31.0024 32.2116 30.726 32.2116 30.4562C32.2116 30.2595 32.1506 30.0965 32.0287 29.9672C31.9068 29.836 31.7577 29.7704 31.5814 29.7704C31.2925 29.7704 31.0684 29.9147 30.9089 30.2033L30.8048 30.1667C30.9061 29.807 31.0599 29.5409 31.2663 29.3685C31.4726 29.1962 31.7108 29.11 31.9809 29.11C32.1741 29.11 32.3504 29.155 32.5098 29.2449C32.6693 29.3348 32.794 29.4585 32.8841 29.6159C32.9741 29.7714 33.0191 29.9175 33.0191 30.0543C33.0191 30.3035 32.9497 30.5564 32.8109 30.8131C32.6215 31.1598 32.2079 31.6432 31.5701 32.2633H32.3945C32.5971 32.2633 32.7284 32.2549 32.7884 32.2381C32.8503 32.2212 32.9009 32.1931 32.9403 32.1537C32.9797 32.1125 33.0313 32.0273 33.0951 31.898H33.1964L32.9825 32.9997Z" fill="#1E1D1D"/>
</svg>
