<svg width="50" height="50" viewBox="0 0 50 50" fill="none" xmlns="http://www.w3.org/2000/svg">
<path d="M25.0594 25.698C25.527 25.7764 26.0103 25.7982 26.4593 25.9452C27.8296 26.3951 28.5059 27.5322 28.8219 29.0005C29.0779 30.1899 28.9971 32.0557 28.9479 32.9271C28.941 33.0486 28.0225 32.9815 27.4713 32.9815C27.3521 32.9815 27.4033 32.6014 27.4014 32.4064C27.3935 31.4969 27.487 30.5722 27.3679 29.6812C27.1572 28.1051 26.0911 27.2381 24.641 27.212C22.7253 27.176 21.095 27.8524 19.9541 29.5886C19.4156 30.4088 18.8889 31.6679 18.5129 32.6003C18.3396 33.0295 18.4144 32.9184 17.874 32.9271C17.5776 32.9271 17.3355 32.9184 17.0313 32.9184C17.6338 31.1037 18.5404 29.5745 19.6893 28.0333C19.2108 28.0333 18.5129 28.0333 18.2175 28.0333C18.1683 28.0333 17.9222 27.3307 17.9222 27.2599C17.9222 27.2251 17.7125 27.2512 17.3315 27.2251C16.7901 27.2599 16.2486 27.2599 15.6836 27.2599C15.5054 27.2752 15.3627 27.2599 15.3134 27.2599C15.1894 27.5366 15.0181 28.0333 14.9689 28.0333C14.455 28.0213 13 28.0953 13 28.0333C13 27.9712 13.8673 26.3384 14.2699 25.5564C14.6174 24.8822 15.0299 24.209 15.4119 23.5599C15.5428 23.4106 15.6088 23.2331 15.7643 23.0697C15.845 23.0272 16.1374 23.0359 16.2309 23.0152C17.2646 22.9608 17.6761 23.0697 17.6761 23.0697C18.1191 23.9411 19.3703 26.3711 19.7966 27.2251C20.088 27.6989 20.1392 27.6128 20.4414 27.334C21.4937 26.3646 22.6396 25.6479 24.0572 25.6893C24.3486 25.698 24.641 25.6661 24.9659 25.6893C24.9964 25.6915 25.0584 25.6969 25.0584 25.6969L25.0594 25.698ZM17.4014 26.2219C17.173 25.637 16.9594 25.1011 16.7409 24.6022C16.7182 24.55 16.4869 24.5598 16.4672 24.6022C16.226 25.1185 16.0075 25.649 15.7643 26.2219H17.4014Z" fill="white"/>
<path d="M25.5768 25.2217C25.3673 25.2217 25.3474 25.2238 25.3149 25.2217C24.9743 25.1996 24.7911 25.169 24.3721 25.0636C23.3245 24.8002 21.6505 23.7158 21.2283 22.1941C20.9015 21.0149 20.9811 19.2203 21.1246 18.0105C21.1259 18 21.177 18.0105 21.706 18C22.0675 18.0105 22.3608 18.0105 22.785 18.0105C22.7515 18.313 22.7012 18.6133 22.6876 18.9136C22.6593 19.5565 22.5713 20.2098 22.6478 20.8432C22.8814 22.7895 24.1416 23.7706 26.243 23.6241C28.6545 23.4566 30.0289 22.1657 31.418 20.0307C31.7144 19.3921 31.9899 18.744 32.3042 18.0316C32.6583 18.0148 33.3023 18.0221 33.7255 18.0316C33.78 18.0327 33.6891 18.255 33.6514 18.3309C33.181 19.2783 32.7327 20.2435 32.1816 21.1435C31.7941 21.7779 31.1823 22.8398 31 23C32.4833 23 34.5177 23.0369 36 23C36 23 35.9832 23.9677 36 24.3165C36 24.3165 35.8952 24.3165 35.4836 24.3123C35.162 24.3017 34.3721 24.3239 34.0599 24.3165C34.0599 24.3165 34.0578 24.463 34.0599 24.7791C34.0662 25.6611 34.0421 27.1133 34.062 27.9953C34.062 27.9953 33.9782 28.0059 33.533 27.9953C32.2812 27.9953 32.2812 27.9953 32.2812 27.9953C32.2812 27.2577 32.2822 25.2354 32.2749 24.4977C32.2749 24.4503 32.2812 24.4314 32.2749 24.3165C31.8747 24.3165 30.7706 24.2817 30.3599 24.3165C30.3599 24.3165 30.3599 24.3239 30.3599 23.8286C30.3736 23.7675 30.3599 23.5883 30.3599 23.4302C30.2384 23.4829 30.1944 23.5367 30.0813 23.5883C29.2956 24.1679 27.3053 25.169 26.6767 25.169C26.4672 25.2217 25.9958 25.2217 25.6815 25.2217H25.5768Z" fill="white"/>
<path d="M8.53798 26.8157C8.53798 26.4966 8.52043 24.0017 8.50386 23.0178L6.53563 23C6.53563 23.9784 6.53953 25.944 6.53953 26.8301C6.53953 26.859 6.29776 26.859 5.61341 26.859H5.02851C5.02656 25.8351 4.99438 24.0996 4.99438 23.0178C4.389 23.0178 3.58476 23.0122 3.03007 23.05C3.00568 23.0517 3.00861 23.2824 3.00568 23.418C2.98911 24.2908 3.01348 25.1647 3.01933 26.0385C3.02323 26.6956 3.01933 27.9975 3.01933 27.9975C3.01933 27.9975 5.22835 28.0031 6.29776 27.9975C8.0408 27.9875 10.244 27.9419 11.9987 27.9419C11.9987 27.9419 12.0016 27.8563 11.9987 27.4739C11.9909 26.3999 11.9987 25.0868 11.9987 24.0128L11.9987 23.05C11.9188 23.05 10.0315 23.0189 9.95152 23.0178V23.3458C9.95249 23.6371 9.95152 24.3331 9.95152 24.6243L9.95151 26.8157C9.52453 26.8157 9.34418 26.7957 9.02541 26.8157H8.53798Z" fill="white"/>
<path d="M41.6094 25.8433C40.7982 25.8433 39.6065 25.8889 38.7724 25.8889C38.7724 25.8889 38.7828 26.5611 38.7724 26.89C38.7724 26.89 38.8057 26.9089 39.204 26.89C39.9818 26.8533 41.2184 26.9122 41.9972 26.89C41.9972 26.89 41.991 27.1178 41.9972 27.4745C42.0035 27.8345 41.9972 28 41.9972 28C40.6178 27.9789 38.3814 27.9767 37.0009 28C37.0009 28 36.9988 27.9322 37.0009 27.6145C37.0103 26.2089 37.003 24.8022 37.0239 23.3978C37.026 23.2656 36.9957 23.0564 37.052 23.0556C38.5743 23.0322 40.3363 23 41.8481 23C41.8481 23.2222 41.8221 23.84 41.8481 23.9789C41.8481 23.9789 41.7564 23.9989 41.4227 23.9922C40.7075 23.9778 39.4584 24.0011 38.7432 23.9922C38.7432 23.9922 38.739 24.0078 38.7432 24.4456C38.7473 24.8789 38.7432 24.8622 38.7432 24.8622C39.3156 24.8667 41.037 24.8645 41.6094 24.8622C41.6094 24.8622 41.6083 24.9445 41.6083 25.8433H41.6094Z" fill="white"/>
<path d="M44.7751 26.0757C44.7751 26.6395 44.7564 27.547 44.7751 27.998C44.7751 27.998 44.7253 28.0025 44.4209 27.998C43.9618 27.9903 43.5038 27.9958 43 27.9958V23.0015C43.429 23.0015 43.8382 22.9982 44.2464 23.0015C45.0057 23.0092 45.7671 22.9838 46.5233 23.0391C47.3428 23.0999 47.9598 23.7101 47.9982 24.3987C48.0377 25.1217 47.4155 25.8601 46.6136 26.0071C46.3103 26.0624 45.9977 26.0613 45.6882 26.0724C45.3994 26.0823 45.1106 26.0746 44.7751 26.0746V26.0757ZM44.7523 24.5723C44.7564 25.1062 44.9465 25.156 45.3578 25.1383C45.7453 25.1217 46.1441 25.0609 46.2272 24.569C46.2906 24.192 45.7858 23.9168 45.1553 23.9112C44.7398 23.9079 44.7564 24.1666 44.7523 24.5712V24.5723Z" fill="white"/>
<path d="M26.5508 19.0046C27.3813 19.0783 28.0507 19.8195 27.997 20.6073C27.941 21.4358 27.1978 22.058 26.3403 21.9957C25.6296 21.9436 24.9423 21.1479 25.0038 20.4463C25.0766 19.6076 25.7952 18.9377 26.5508 19.0046Z" fill="#ADADAD"/>
<path d="M4.21306 22H3.93002V21.6475H3V20.0276H3.35148V21.2497H3.73872V20.0276H4.0902V21.274H4.21306V22Z" fill="#ADADAD"/>
<path d="M4.36781 20.0276H5.31182V20.3735H4.72084V20.6309H5.26905V20.9613H4.72084V21.2807H5.32893V21.6475H4.36781V20.0276Z" fill="#ADADAD"/>
<path d="M5.521 20.0276H5.87325V20.5945H6.25816V20.0276H6.61198V21.6475H6.25816V20.9923H5.87325V21.6475H5.521V20.0276Z" fill="#ADADAD"/>
<path d="M6.76594 20.0276H7.8367V20.4276H7.47745V21.6475H7.12519V20.4276H6.76594V20.0276Z" fill="#ADADAD"/>
<path d="M7.99533 20.0276H8.58087C8.7084 20.0276 8.80378 20.0707 8.86703 20.1569C8.93079 20.2431 8.96268 20.3657 8.96268 20.5249C8.96268 20.6884 8.92794 20.8162 8.85848 20.9083C8.78953 21.0004 8.68403 21.0464 8.54199 21.0464H8.34914V21.6475H7.99533V20.0276ZM8.34914 20.7182H8.43546C8.50337 20.7182 8.55106 20.7017 8.57854 20.6685C8.60601 20.6346 8.61975 20.5915 8.61975 20.5392C8.61975 20.4884 8.60783 20.4453 8.58398 20.4099C8.56013 20.3746 8.51529 20.3569 8.44946 20.3569H8.34914V20.7182Z" fill="#ADADAD"/>
<path d="M10.4386 20.9856L10.7473 21.1182C10.7265 21.2413 10.6939 21.344 10.6493 21.4265C10.6047 21.509 10.5492 21.5713 10.4829 21.6133C10.4171 21.6552 10.3331 21.6762 10.2309 21.6762C10.1071 21.6762 10.0057 21.6508 9.92691 21.6C9.84863 21.5484 9.78097 21.4582 9.72395 21.3293C9.66693 21.2004 9.63841 21.0354 9.63841 20.8343C9.63841 20.5661 9.68844 20.3602 9.78849 20.2166C9.88906 20.0722 10.0311 20 10.2146 20C10.3582 20 10.471 20.0413 10.5529 20.1238C10.6353 20.2063 10.6965 20.333 10.7364 20.5039L10.4254 20.6022C10.4145 20.5529 10.4031 20.5168 10.3911 20.4939C10.3714 20.4556 10.3473 20.4262 10.3188 20.4055C10.2903 20.3849 10.2584 20.3746 10.2232 20.3746C10.1433 20.3746 10.0822 20.4203 10.0397 20.5116C10.0075 20.5794 9.99145 20.6858 9.99145 20.8309C9.99145 21.0107 10.0106 21.1341 10.049 21.2011C10.0874 21.2674 10.1413 21.3006 10.2107 21.3006C10.2781 21.3006 10.3289 21.2737 10.3631 21.2199C10.3979 21.1661 10.423 21.088 10.4386 20.9856Z" fill="#ADADAD"/>
<path d="M12.0109 21.6475H11.6594V20.4254H11.2722V21.6475H10.9207V20.0276H12.0109V21.6475Z" fill="#ADADAD"/>
<path d="M12.2014 20.8387C12.2014 20.5742 12.2532 20.3683 12.3569 20.221C12.4606 20.0737 12.605 20 12.79 20C12.9798 20 13.126 20.0726 13.2286 20.2177C13.3313 20.3621 13.3826 20.5646 13.3826 20.8254C13.3826 21.0147 13.36 21.1702 13.3149 21.2917C13.2703 21.4125 13.2055 21.5068 13.1205 21.5746C13.036 21.6416 12.9305 21.6751 12.804 21.6751C12.6755 21.6751 12.5689 21.646 12.4844 21.5878C12.4005 21.5296 12.3323 21.4376 12.2799 21.3116C12.2276 21.1856 12.2014 21.028 12.2014 20.8387ZM12.5537 20.8409C12.5537 21.0044 12.5749 21.1219 12.6174 21.1934C12.6604 21.2648 12.7188 21.3006 12.7924 21.3006C12.8681 21.3006 12.9266 21.2656 12.9681 21.1956C13.0096 21.1256 13.0303 21 13.0303 20.8188C13.0303 20.6663 13.0086 20.5551 12.965 20.4851C12.922 20.4144 12.8634 20.379 12.7893 20.379C12.7182 20.379 12.6612 20.4147 12.6182 20.4862C12.5752 20.5576 12.5537 20.6759 12.5537 20.8409Z" fill="#ADADAD"/>
<path d="M13.5708 20.0276H14.1563C14.2838 20.0276 14.3792 20.0707 14.4425 20.1569C14.5062 20.2431 14.5381 20.3657 14.5381 20.5249C14.5381 20.6884 14.5034 20.8162 14.4339 20.9083C14.365 21.0004 14.2595 21.0464 14.1174 21.0464H13.9246V21.6475H13.5708V20.0276ZM13.9246 20.7182H14.0109C14.0788 20.7182 14.1265 20.7017 14.154 20.6685C14.1814 20.6346 14.1952 20.5915 14.1952 20.5392C14.1952 20.4884 14.1833 20.4453 14.1594 20.4099C14.1356 20.3746 14.0907 20.3569 14.0249 20.3569H13.9246V20.7182Z" fill="#ADADAD"/>
<path d="M14.6431 20.0276H15.7138V20.4276H15.3546V21.6475H15.0023V20.4276H14.6431V20.0276Z" fill="#ADADAD"/>
<path d="M16.5754 21.3801H16.1742L16.119 21.6475H15.7589L16.1874 20.0276H16.5715L17 21.6475H16.6314L16.5754 21.3801ZM16.5016 21.0298L16.3756 20.4475L16.2504 21.0298H16.5016Z" fill="#ADADAD"/>
<path d="M32.2801 31.9856L32.7739 32.1182C32.7408 32.2413 32.6885 32.344 32.6172 32.4265C32.5459 32.509 32.4571 32.5713 32.351 32.6133C32.2457 32.6552 32.1113 32.6762 31.9479 32.6762C31.7497 32.6762 31.5876 32.6508 31.4615 32.6C31.3363 32.5484 31.2281 32.4582 31.1368 32.3293C31.0456 32.2004 31 32.0354 31 31.8343C31 31.5661 31.08 31.3602 31.2401 31.2166C31.401 31.0722 31.6282 31 31.9218 31C32.1515 31 32.3319 31.0413 32.4629 31.1238C32.5948 31.2063 32.6927 31.333 32.7565 31.5039L32.2589 31.6022C32.2415 31.5529 32.2233 31.5168 32.2042 31.4939C32.1727 31.4556 32.1341 31.4262 32.0885 31.4055C32.0429 31.3849 31.9919 31.3746 31.9355 31.3746C31.8078 31.3746 31.7099 31.4203 31.6419 31.5116C31.5905 31.5794 31.5648 31.6858 31.5648 31.8309C31.5648 32.0107 31.5955 32.1341 31.6568 32.2011C31.7182 32.2674 31.8045 32.3006 31.9156 32.3006C32.0234 32.3006 32.1047 32.2737 32.1594 32.2199C32.215 32.1661 32.2552 32.088 32.2801 31.9856Z" fill="#ADADAD"/>
<path d="M32.9207 31.0276H34.6337V31.4276H34.059V32.6475H33.4955V31.4276H32.9207V31.0276Z" fill="#ADADAD"/>
<path d="M36.0121 32.3801H35.3702L35.2819 32.6475H34.7059L35.3913 31.0276H36.0059L36.6913 32.6475H36.1017L36.0121 32.3801ZM35.8939 32.0298L35.6924 31.4475L35.4921 32.0298H35.8939Z" fill="#ADADAD"/>
<path d="M38.7862 33H38.3321V32.6475H37.1678V33H36.7149V32.274H36.9028C37.0081 32.0125 37.0608 31.7175 37.0608 31.389V31.0276H38.5897V32.274H38.7862V33ZM38.0261 32.274V31.4254H37.5733V31.4464C37.5733 31.6703 37.5306 31.9462 37.4452 32.274H38.0261Z" fill="#ADADAD"/>
<path d="M40.753 31.0276V32.6475H40.223V31.758L39.5401 32.6475H39.0089V31.0276H39.5401V31.9238L40.2268 31.0276H40.753Z" fill="#ADADAD"/>
<path d="M41.059 31.8387C41.059 31.5742 41.1419 31.3683 41.3078 31.221C41.4737 31.0737 41.7046 31 42.0007 31C42.3042 31 42.5381 31.0726 42.7023 31.2177C42.8665 31.3621 42.9486 31.5646 42.9486 31.8254C42.9486 32.0147 42.9126 32.1702 42.8404 32.2917C42.7691 32.4125 42.6654 32.5068 42.5294 32.5746C42.3942 32.6416 42.2255 32.6751 42.0231 32.6751C41.8174 32.6751 41.647 32.646 41.5118 32.5878C41.3775 32.5297 41.2684 32.4376 41.1846 32.3116C41.1009 32.1856 41.059 32.028 41.059 31.8387ZM41.6225 31.8409C41.6225 32.0044 41.6565 32.1219 41.7245 32.1934C41.7934 32.2648 41.8867 32.3006 42.0044 32.3006C42.1255 32.3006 42.2192 32.2656 42.2856 32.1956C42.3519 32.1256 42.3851 32 42.3851 31.8188C42.3851 31.6663 42.3503 31.5551 42.2806 31.4851C42.2118 31.4144 42.1181 31.379 41.9995 31.379C41.8858 31.379 41.7946 31.4147 41.7258 31.4862C41.657 31.5576 41.6225 31.6759 41.6225 31.8409Z" fill="#ADADAD"/>
<path d="M43.2547 31.0276H43.8182V31.5945H44.434V31.0276H45V32.6475H44.434V31.9923H43.8182V32.6475H43.2547V31.0276Z" fill="#ADADAD"/>
</svg>
