<svg width="20" height="20" viewBox="0 0 20 20" fill="none" xmlns="http://www.w3.org/2000/svg">
<path fill-rule="evenodd" clip-rule="evenodd" d="M4.67116 14.2676L2.80268 16.1361L3.86334 17.1967L6.09617 14.9639C7.37076 15.4846 8.67861 15.7502 9.99968 15.7502C13.4562 15.7502 16.8222 13.9316 19.7389 10.4846C19.9755 10.205 19.9755 9.79536 19.7389 9.51573C18.3566 7.88217 16.8735 6.61435 15.3276 5.73248L17.1967 3.86339L16.136 2.80273L13.9025 5.03624C12.6281 4.51575 11.3205 4.2502 9.99968 4.25019C6.54315 4.25017 3.17717 6.06869 0.260466 9.51574C0.0238552 9.79537 0.0238552 10.205 0.260466 10.4846C1.64254 12.118 3.12549 13.3857 4.67116 14.2676ZM6.03299 12.9058L5.77633 13.1624C4.43236 12.4607 3.10503 11.413 1.82894 10.0002C3.3631 8.30167 4.97134 7.1308 6.59349 6.45455C5.66245 7.34919 5.08301 8.60702 5.08301 10.0002C5.08301 11.0872 5.43574 12.0918 6.03299 12.9058ZM8.17238 12.8877C8.70085 13.2228 9.3276 13.4169 9.99967 13.4169C11.8866 13.4169 13.4163 11.8872 13.4163 10.0002C13.4163 9.32811 13.2223 8.70136 12.8872 8.1729L8.17238 12.8877ZM11.8264 7.11234L7.11183 11.8269C6.77692 11.2986 6.58301 10.672 6.58301 10.0002C6.58301 8.11322 8.1127 6.58352 9.99967 6.58352C10.6715 6.58352 11.2981 6.77743 11.8264 7.11234ZM13.966 7.0941C14.5635 7.90818 14.9163 8.91297 14.9163 10.0002C14.9163 11.3933 14.3369 12.6511 13.4059 13.5458C15.0281 12.8695 16.6363 11.6986 18.1704 10.0002C16.8941 8.58721 15.5666 7.53937 14.2224 6.83768L13.966 7.0941Z" fill="currentColor"/>
</svg>
