<svg width="20" height="20" viewBox="0 0 20 20" fill="none" xmlns="http://www.w3.org/2000/svg">
<path fill-rule="evenodd" clip-rule="evenodd" d="M6.59349 13.5458C4.97133 12.8696 3.3631 11.6987 1.82894 10.0002C3.3631 8.30167 4.97134 7.13079 6.59349 6.45454C5.66245 7.34918 5.08301 8.60701 5.08301 10.0002C5.08301 11.3934 5.66245 12.6512 6.59349 13.5458ZM13.4059 13.5458C15.0281 12.8695 16.6363 11.6986 18.1704 10.0002C16.6363 8.30173 15.0281 7.13087 13.4059 6.4546C14.3369 7.34924 14.9163 8.60705 14.9163 10.0002C14.9163 11.3933 14.3369 12.6511 13.4059 13.5458ZM19.7389 9.51572C16.8222 6.06875 13.4562 4.2502 9.99968 4.25018C6.54315 4.25016 3.17717 6.06868 0.260466 9.51573C0.0238552 9.79536 0.0238552 10.205 0.260466 10.4846C3.17717 13.9317 6.54315 15.7502 9.99968 15.7502C13.4562 15.7502 16.8222 13.9316 19.7389 10.4846C19.9755 10.205 19.9755 9.79536 19.7389 9.51572ZM6.58301 10.0002C6.58301 8.11321 8.1127 6.58352 9.99967 6.58352C11.8866 6.58352 13.4163 8.11321 13.4163 10.0002C13.4163 11.8872 11.8866 13.4169 9.99967 13.4169C8.1127 13.4169 6.58301 11.8872 6.58301 10.0002Z" fill="currentColor"/>
</svg>
