<svg width="81" height="22" viewBox="0 0 81 22" fill="none" xmlns="http://www.w3.org/2000/svg">
<path d="M26.0718 4.30469C25.9072 4.30469 25.7673 4.42422 25.7416 4.58697L23.8358 16.6733C23.8288 16.7174 23.8316 16.7626 23.8437 16.8056C23.8559 16.8486 23.8773 16.8884 23.9063 16.9224C23.9354 16.9563 23.9714 16.9836 24.012 17.0023C24.0526 17.021 24.0968 17.0307 24.1414 17.0307H26.4016C26.566 17.0307 26.7061 16.9109 26.7318 16.7484L27.2917 13.1992C27.3172 13.0366 27.4573 12.9169 27.6219 12.9169H29.6768C32.0778 12.9169 34.1159 11.1651 34.4882 8.79126C34.8635 6.39738 32.9934 4.30988 30.3427 4.30469H26.0718ZM28.2689 7.00282H29.913C31.2666 7.00282 31.7074 7.80149 31.568 8.68472C31.4286 9.56985 30.7441 10.2218 29.4347 10.2218H27.7613L28.2689 7.00282ZM39.085 7.8244C38.5143 7.82652 37.8576 7.94346 37.1204 8.25054C35.4293 8.95543 34.6171 10.4122 34.2723 11.4743C34.2723 11.4743 33.1745 14.7145 35.6546 16.4947C35.6546 16.4947 37.9547 18.2085 40.5439 16.3891L40.4993 16.6733C40.4924 16.7174 40.4951 16.7625 40.5072 16.8054C40.5194 16.8484 40.5407 16.8882 40.5697 16.9222C40.5987 16.9561 40.6346 16.9834 40.6752 17.0022C40.7157 17.0209 40.7598 17.0306 40.8045 17.0307H42.9501C43.1147 17.0307 43.2546 16.9109 43.2803 16.7484L44.5854 8.47165C44.5924 8.4275 44.5898 8.38237 44.5777 8.33934C44.5655 8.29632 44.5442 8.25643 44.5152 8.22242C44.4862 8.18842 44.4502 8.16109 44.4096 8.14234C44.3691 8.12358 44.3249 8.11384 44.2802 8.11377H42.1346C41.97 8.11377 41.8299 8.23354 41.8044 8.39606L41.7342 8.84157C41.7342 8.84157 40.7974 7.81802 39.085 7.8244ZM39.1552 10.4387C39.4016 10.4387 39.6269 10.4727 39.8291 10.5376C40.7549 10.8348 41.2797 11.7242 41.1279 12.6882C40.9405 13.8752 39.9671 14.7493 38.7186 14.7493C38.4725 14.7493 38.2471 14.7155 38.0447 14.6505C37.1192 14.3533 36.591 13.464 36.7429 12.4999C36.9302 11.3129 37.9067 10.4387 39.1552 10.4387Z" fill="#003087"/>
<path d="M56.9683 4.30469C56.8037 4.30469 56.6638 4.42422 56.6381 4.58697L54.7323 16.6733C54.7253 16.7174 54.728 16.7626 54.7402 16.8056C54.7524 16.8486 54.7738 16.8884 54.8028 16.9224C54.8318 16.9563 54.8679 16.9836 54.9085 17.0023C54.9491 17.021 54.9932 17.0307 55.0379 17.0307H57.2981C57.4625 17.0307 57.6026 16.9109 57.6283 16.7484L58.1882 13.1992C58.2137 13.0366 58.3538 12.9169 58.5184 12.9169H60.5733C62.9742 12.9169 65.0121 11.1651 65.3842 8.79126C65.7598 6.39738 63.8898 4.30988 61.2392 4.30469H56.9683ZM59.1654 7.00282H60.8095C62.1631 7.00282 62.6039 7.80149 62.4645 8.68472C62.3251 9.56985 61.6408 10.2218 60.3312 10.2218H58.6578L59.1654 7.00282ZM69.9813 7.8244C69.4106 7.82652 68.7539 7.94346 68.0166 8.25054C66.3255 8.95543 65.5134 10.4122 65.1685 11.4743C65.1685 11.4743 64.0713 14.7145 66.5513 16.4947C66.5513 16.4947 68.851 18.2085 71.4404 16.3891L71.3958 16.6733C71.3888 16.7174 71.3916 16.7626 71.4037 16.8056C71.4159 16.8486 71.4373 16.8884 71.4663 16.9224C71.4953 16.9563 71.5314 16.9836 71.572 17.0023C71.6126 17.021 71.6567 17.0307 71.7014 17.0307H73.8468C74.0114 17.0307 74.1513 16.9109 74.177 16.7484L75.4826 8.47165C75.4896 8.42746 75.487 8.38229 75.4748 8.33923C75.4627 8.29617 75.4413 8.25626 75.4123 8.22224C75.3832 8.18823 75.3472 8.16091 75.3065 8.14219C75.2659 8.12346 75.2217 8.11377 75.177 8.11377H73.0314C72.8667 8.11377 72.7266 8.23354 72.7011 8.39606L72.631 8.84157C72.631 8.84157 71.6936 7.81802 69.9813 7.8244ZM70.0514 10.4387C70.2978 10.4387 70.5232 10.4727 70.7254 10.5376C71.6511 10.8348 72.176 11.7242 72.0241 12.6882C71.8368 13.8752 70.8633 14.7493 69.6149 14.7493C69.3687 14.7493 69.1434 14.7155 68.941 14.6505C68.0154 14.3533 67.4873 13.464 67.6391 12.4999C67.8265 11.3129 68.803 10.4387 70.0514 10.4387Z" fill="#0070E0"/>
<path d="M45.6028 8.11352C45.4327 8.11352 45.3118 8.27958 45.3637 8.44139L47.716 15.7409L45.5891 19.1808C45.4859 19.3478 45.6059 19.5634 45.8022 19.5634H48.316C48.3879 19.5634 48.4586 19.5448 48.5212 19.5094C48.5838 19.4741 48.6362 19.4232 48.6734 19.3617L55.243 8.49384C55.3438 8.32683 55.2234 8.11328 55.0283 8.11328H52.5146C52.442 8.11334 52.3707 8.1323 52.3077 8.1683C52.2446 8.20429 52.192 8.25608 52.1551 8.31856L49.5692 12.6844L48.2565 8.35092C48.2137 8.2099 48.0836 8.11328 47.9364 8.11328L45.6028 8.11352Z" fill="#003087"/>
<path d="M77.922 4.30469C77.7576 4.30469 77.6175 4.42445 77.5918 4.58697L75.6855 16.6728C75.6784 16.717 75.6811 16.7622 75.6933 16.8052C75.7054 16.8483 75.7267 16.8882 75.7558 16.9222C75.7848 16.9562 75.8209 16.9835 75.8615 17.0023C75.9022 17.021 75.9464 17.0307 75.9911 17.0307H78.2513C78.4157 17.0307 78.5558 16.9109 78.5815 16.7484L80.4874 4.66209C80.4943 4.61798 80.4916 4.5729 80.4794 4.52993C80.4673 4.48697 80.446 4.44714 80.417 4.41319C80.388 4.37923 80.352 4.35195 80.3114 4.33322C80.2709 4.3145 80.2268 4.30476 80.1822 4.30469H77.922Z" fill="#0070E0"/>
<path d="M7.2281 4.30469C7.08251 4.30481 6.94173 4.35685 6.83106 4.45145C6.72039 4.54606 6.64708 4.67703 6.62431 4.82083L5.62109 11.1837C5.66787 10.8866 5.92392 10.6676 6.22487 10.6676H9.16464C12.1233 10.6676 14.6339 8.50921 15.0926 5.5843C15.1267 5.36594 15.1461 5.14551 15.1505 4.92454C14.3986 4.53028 13.5154 4.30469 12.5476 4.30469H7.2281Z" fill="#001C64"/>
<path d="M15.151 4.9248C15.1466 5.14578 15.1273 5.36621 15.0931 5.58457C14.6344 8.50948 12.1236 10.6678 9.16519 10.6678H6.22542C5.92471 10.6678 5.66841 10.8866 5.62164 11.184L4.69919 17.031L4.1214 20.699C4.11012 20.7699 4.11435 20.8424 4.1338 20.9114C4.15325 20.9805 4.18746 21.0445 4.23406 21.0991C4.28066 21.1537 4.33854 21.1975 4.40371 21.2275C4.46889 21.2575 4.5398 21.2731 4.61156 21.273H7.80243C7.94803 21.2729 8.0888 21.2209 8.19947 21.1263C8.31014 21.0317 8.38344 20.9007 8.40621 20.7569L9.24668 15.4261C9.26946 15.2822 9.34284 15.1511 9.4536 15.0565C9.56437 14.9619 9.70527 14.9099 9.85094 14.9099H11.7296C14.6883 14.9099 17.1988 12.7516 17.6576 9.82665C17.9833 7.75073 16.9378 5.86166 15.151 4.9248Z" fill="#0070E0"/>
<path d="M3.60412 0.0634766C3.30341 0.0634766 3.04712 0.282219 3.00035 0.57915L0.496397 16.4571C0.448917 16.7585 0.681837 17.0311 0.987034 17.0311H4.70019L5.62217 11.1841L6.62538 4.82123C6.64815 4.67743 6.72147 4.54645 6.83214 4.45185C6.9428 4.35724 7.08358 4.3052 7.22917 4.30508H12.5486C13.5167 4.30508 14.3997 4.53091 15.1516 4.92493C15.2031 2.262 13.0057 0.0634766 9.98469 0.0634766H3.60412Z" fill="#003087"/>
</svg>
