<svg width="20" height="20" viewBox="0 0 20 20" fill="none" xmlns="http://www.w3.org/2000/svg">
<g id="icon.default">
<path id="Union" d="M17.8028 8.86196L9.4201 17.2446C7.80917 18.8556 5.1996 18.8556 3.58867 17.2446C1.97773 15.6337 1.97773 13.0241 3.58867 11.4132L12.7003 2.30159C13.7062 1.29567 15.339 1.29567 16.3449 2.30159C17.3509 3.30752 17.3509 4.94032 16.3449 5.94624L8.69117 13.6C8.29026 14.0009 7.63422 14.0009 7.23331 13.6C6.8324 13.1991 6.8324 12.5431 7.23331 12.1421L14.1581 5.21731L13.0647 4.12392L6.13992 11.0487C5.134 12.0547 5.134 13.6875 6.13992 14.6934C7.14584 15.6993 8.77864 15.6993 9.78457 14.6934L17.4383 7.03964C19.0493 5.4287 19.0493 2.81913 17.4383 1.2082C15.8274 -0.402734 13.2178 -0.402733 11.6069 1.2082L2.49527 10.3198C0.279327 12.5358 0.279327 16.1221 2.49527 18.338C4.71122 20.554 8.29755 20.554 10.5135 18.338L18.8962 9.95535L17.8028 8.86196Z" fill="currentColor" />
</g>
</svg>
