<svg width="25" height="25" viewBox="0 0 25 25" fill="none" xmlns="http://www.w3.org/2000/svg">
<g id="icon.default">
<path id="Union" d="M19.6402 3.9224C18.0638 2.46864 15.8822 1.66797 13.4973 1.66797C9.85426 1.66797 7.61364 3.1025 6.37552 4.30585C4.84961 5.78884 3.97461 7.75796 3.97461 9.70841C3.97461 12.1573 5.04092 14.037 6.82661 14.7362C6.94649 14.7834 7.06711 14.8072 7.18537 14.8072C7.56208 14.8072 7.86057 14.5704 7.96398 14.1906C8.02426 13.9727 8.16393 13.4351 8.22465 13.2017C8.35465 12.7409 8.24962 12.5192 7.96612 12.1983C7.44966 11.6113 7.20916 10.9171 7.20916 10.0137C7.20916 7.33023 9.28919 4.47827 13.1444 4.47827C16.2032 4.47827 18.1034 6.14838 18.1034 8.83678C18.1034 10.5333 17.723 12.1044 17.0321 13.2609C16.552 14.0645 15.7077 15.0224 14.4116 15.0224C13.8511 15.0224 13.3476 14.8012 13.0299 14.4157C12.7298 14.0512 12.6309 13.5803 12.7516 13.0896C12.888 12.5351 13.0739 11.9567 13.2538 11.3976C13.582 10.3764 13.8922 9.41188 13.8922 8.64236C13.8922 7.32611 13.0499 6.44171 11.7963 6.44171C10.2032 6.44171 8.9551 7.99609 8.9551 9.98039C8.9551 10.9536 9.22434 11.6814 9.34622 11.9609C9.14552 12.7778 7.95275 17.6341 7.72651 18.5499C7.59569 19.0845 6.80763 23.3067 8.11201 23.6434C9.57756 24.0217 10.8876 19.9095 11.0209 19.4448C11.1289 19.0669 11.5071 17.6379 11.7388 16.7594C12.4463 17.4141 13.5854 17.8566 14.6938 17.8566C16.7834 17.8566 18.6626 16.9534 19.9853 15.3133C21.2681 13.7226 21.9746 11.5055 21.9746 9.07072C21.9746 7.16724 21.1237 5.29073 19.6402 3.9224Z" fill="#BFCFD5"/>
</g>
</svg>
