<svg xmlns="http://www.w3.org/2000/svg" width="20" height="21" viewBox="0 0 20 21" fill="none">
  <g clip-path="url(#clip0_3443_54483)">
    <path fill-rule="evenodd" clip-rule="evenodd" d="M1.75 10.5C1.75 5.94365 5.44365 2.25 10 2.25C14.5564 2.25 18.25 5.94365 18.25 10.5C18.25 15.0564 14.5564 18.75 10 18.75C5.44365 18.75 1.75 15.0564 1.75 10.5ZM10 0.75C4.61522 0.75 0.25 5.11522 0.25 10.5C0.25 15.8848 4.61522 20.25 10 20.25C15.3848 20.25 19.75 15.8848 19.75 10.5C19.75 5.11522 15.3848 0.75 10 0.75ZM9.07346 5.76809L14.663 9.68077C15.2317 10.0789 15.2317 10.9211 14.663 11.3192L9.07346 15.2319C8.41069 15.6959 7.5 15.2217 7.5 14.4127V6.58732C7.5 5.7783 8.41068 5.30415 9.07346 5.76809Z" fill="#141414"/>
  </g>
  <defs>
    <clipPath id="clip0_3443_54483">
      <rect width="20" height="20" fill="white" transform="translate(0 0.5)"/>
    </clipPath>
  </defs>
</svg>