<svg xmlns="http://www.w3.org/2000/svg" width="20" height="21" viewBox="0 0 20 21" fill="none">
  <g clip-path="url(#clip0_1246_56099)">
    <path fill-rule="evenodd" clip-rule="evenodd" d="M10 2.16992C5.44365 2.16992 1.75 5.86357 1.75 10.4199C1.75 14.9763 5.44365 18.6699 10 18.6699C14.5563 18.6699 18.25 14.9763 18.25 10.4199C18.25 5.86357 14.5563 2.16992 10 2.16992ZM0.25 10.4199C0.25 5.03515 4.61522 0.669922 10 0.669922C15.3848 0.669922 19.75 5.03515 19.75 10.4199C19.75 15.8047 15.3848 20.1699 10 20.1699C4.61522 20.1699 0.25 15.8047 0.25 10.4199ZM8.6093 6.7963C8.34582 7.16225 8.25065 7.62392 8.25065 7.92057C8.25065 8.33479 7.91486 8.67057 7.50065 8.67057C7.08644 8.67057 6.75065 8.33479 6.75065 7.92057C6.75065 7.38389 6.90549 6.59556 7.392 5.91984C7.90605 5.20589 8.75621 4.67057 10.0007 4.67057C11.2451 4.67057 12.0953 5.20589 12.6093 5.91984C13.0958 6.59556 13.2507 7.38389 13.2507 7.92057C13.2507 8.68337 13.056 9.27544 12.7304 9.75475C12.4191 10.2131 12.0144 10.5249 11.7007 10.7602L11.6338 10.8103C11.3274 11.0396 11.1271 11.1897 10.9769 11.3774C10.8468 11.5401 10.7507 11.7401 10.7507 12.0872C10.7507 12.5015 10.4149 12.8372 10.0007 12.8372C9.58644 12.8372 9.25065 12.5015 9.25065 12.0872C9.25065 11.3927 9.46702 10.8636 9.80562 10.4403C10.0829 10.0938 10.44 9.82834 10.7132 9.62533L10.7138 9.62488C10.7439 9.60256 10.7729 9.58099 10.8007 9.56016C11.1119 9.32669 11.3322 9.14364 11.4896 8.91192C11.6328 8.70113 11.7507 8.40777 11.7507 7.92057C11.7507 7.62392 11.6555 7.16225 11.392 6.7963C11.156 6.46859 10.7562 6.17057 10.0007 6.17057C9.24509 6.17057 8.84525 6.46859 8.6093 6.7963ZM10.0007 16.2539C10.4609 16.2539 10.834 15.8808 10.834 15.4206C10.834 14.9603 10.4609 14.5872 10.0007 14.5872C9.54041 14.5872 9.16732 14.9603 9.16732 15.4206C9.16732 15.8808 9.54041 16.2539 10.0007 16.2539Z" fill="black" fill-opacity="0.4"/>
  </g>
  <defs>
    <clipPath id="clip0_1246_56099">
      <rect width="20" height="20" fill="white" transform="translate(0 0.421875)"/>
    </clipPath>
  </defs>
</svg>