<svg xmlns="http://www.w3.org/2000/svg" width="20" height="21" viewBox="0 0 20 21" fill="none">
  <g clip-path="url(#clip0_4042_3767)">
    <path fill-rule="evenodd" clip-rule="evenodd" d="M1.29708 6.38576L2.57625 8.60133C3.24801 5.1152 6.31521 2.48193 9.99743 2.48193C12.4703 2.48193 14.6657 3.6703 16.0434 5.50393L14.8441 6.40494C13.7376 4.93218 11.9786 3.98193 9.99743 3.98193C7.04258 3.98193 4.58185 6.09748 4.04725 8.89656L6.14579 7.68496L6.89579 8.984L2.5228 11.5088L-0.00195312 7.13576L1.29708 6.38576ZM15.9487 11.1761C15.4162 13.9778 12.9542 16.0961 9.99746 16.0961C8.01601 16.0961 6.25679 15.1456 5.1503 13.6725L3.95095 14.5734C5.32856 16.4074 7.5243 17.5961 9.99746 17.5961C13.6817 17.5961 16.7502 14.96 17.4197 11.4711L18.7004 13.6893L19.9995 12.9393L17.4733 8.56382L13.0977 11.09L13.8477 12.3891L15.9487 11.1761Z" fill="#FF3900"/>
  </g>
  <defs>
    <clipPath id="clip0_4042_3767">
      <rect width="20" height="20" fill="white" transform="translate(0 0.0375977)"/>
    </clipPath>
  </defs>
</svg>