<svg width="18" height="28" viewBox="0 0 18 28" fill="none" xmlns="http://www.w3.org/2000/svg">
<path d="M0 22.5042V20.8934H12.7459V22.5042H0ZM3.6 28V0H12.5514C14.173 0 15.4865 0.379018 16.4919 1.13706C17.4973 1.86351 18 3.03215 18 4.64298V9.80711C18 10.881 17.8378 11.8917 17.5135 12.8393C17.2216 13.7552 16.6378 14.4975 15.7622 15.066C14.8865 15.6345 13.6054 15.9188 11.9189 15.9188H6.81081V28H3.6ZM6.81081 14.1658H11.0432C12.3405 14.1658 13.3135 13.7868 13.9622 13.0288C14.6108 12.2391 14.9351 11.0389 14.9351 9.42809V5.78003C14.9351 4.3903 14.627 3.37958 14.0108 2.74788C13.427 2.0846 12.6811 1.75296 11.773 1.75296H6.81081V14.1658Z" fill="white"/>
</svg>
