<svg width="21" height="13" viewBox="0 0 21 13" fill="none" xmlns="http://www.w3.org/2000/svg">
<path d="M1.65065 0C0.580685 0 -0.234056 1.02131 0.061021 2.02548C0.82931 4.643 1.96822 7.20616 3.66822 9.22146C5.36823 11.2367 7.66742 12.6975 10.6076 12.9873C11.5863 13.0837 12.4303 12.3093 12.4303 11.37V9.49478C12.4303 9.37777 12.5126 9.29462 12.6065 9.29205C12.6239 9.29165 12.6378 9.29115 12.6466 9.29115C12.9843 9.29115 13.6781 9.70178 14.2875 10.3401C14.897 10.9784 15.436 11.7686 15.6953 12.2063C15.9888 12.7007 16.5356 13 17.1172 13H19.4433C20.6019 13.0008 21.3771 11.7304 20.8101 10.7465C19.92 9.20095 18.1441 7.67237 17.2561 6.90998C18.8832 5.17549 19.962 3.28525 20.44 2.03182C20.8007 1.0848 20.0569 0.0190076 19.0079 0.0190076H17.3474C16.6257 0.0190076 15.9527 0.360399 15.6776 0.90685C14.3853 3.47751 13.2334 4.42168 12.4219 5.10171V1.61369C12.4219 0.743494 11.6781 0.0260652 10.7847 0.0244387L7.87678 0.0199113C6.95076 0.0187992 6.37657 1.12901 6.93139 1.849L7.49266 2.57846L7.49359 2.58027C7.58979 2.70376 7.6409 2.85173 7.6409 3.00383L7.65208 5.91353C6.49548 4.72945 5.23891 2.22123 4.85974 1.10234C4.6383 0.448747 4.00124 0.00653341 3.29808 0.00452697L1.65065 0ZM1.65065 1.39014L3.29436 1.39467C3.39539 1.3949 3.4697 1.44782 3.49947 1.53586C3.97029 2.92565 5.20729 5.57365 6.7757 7.0566C7.18298 7.44178 7.78076 7.51986 8.24413 7.33716C8.70749 7.15447 9.08509 6.68101 9.08509 6.12532L9.07297 3.00384C9.07297 2.54936 8.91971 2.10738 8.6385 1.74492L8.63757 1.74311L8.38118 1.41096L10.7819 1.41458C10.9073 1.41482 10.9899 1.4941 10.9899 1.61369V5.13701C10.9899 6.26523 12.4536 6.91346 13.3337 6.176C14.1405 5.49952 15.5691 4.29217 16.9643 1.51685C16.9966 1.45257 16.9685 1.40915 17.3474 1.40915H19.0079C19.1046 1.40915 19.1329 1.45385 19.0965 1.54943C18.6904 2.61439 17.6541 4.47153 16.1177 6.07826C15.6441 6.57355 15.6634 7.39191 16.1988 7.85214C17.0381 8.57274 18.8698 10.2261 19.5599 11.4243C19.623 11.5339 19.5756 11.61 19.4443 11.6099H17.1172C17.0371 11.6099 16.9713 11.5719 16.9363 11.513C16.6262 10.9897 16.0574 10.1485 15.3383 9.39523C14.6191 8.64201 13.763 7.90101 12.6466 7.90101C12.615 7.90101 12.5891 7.90142 12.5692 7.90191H12.5674C11.6789 7.92622 10.9982 8.65816 10.9982 9.49479V11.37C10.9982 11.5141 10.8838 11.6174 10.7521 11.6044C8.21082 11.3539 6.29537 10.1422 4.77585 8.34086C3.25632 6.53951 2.17108 4.14174 1.43809 1.64447C1.39711 1.50501 1.48523 1.39014 1.65065 1.39014Z" fill="white"/>
</svg>
