<svg width="20" height="18" viewBox="0 0 20 18" fill="none" xmlns="http://www.w3.org/2000/svg">
<path d="M17.938 1.00117C17.7386 1.00971 17.5445 1.06393 17.3695 1.13242C17.1963 1.20044 16.199 1.61637 14.7262 2.23164C13.2534 2.8469 11.339 3.6481 9.44117 4.44257C5.64559 6.03151 1.91578 7.59492 1.91578 7.59492L1.94297 7.58476C1.94297 7.58476 1.71785 7.65828 1.48962 7.81367C1.3755 7.89136 1.25273 7.99166 1.15221 8.13789C1.05168 8.28412 0.978197 8.49135 1.00589 8.71055C1.10317 9.48044 1.91978 9.69882 1.91978 9.69882L1.92298 9.70039L5.56734 10.9191C5.66025 11.222 6.67269 14.5238 6.89539 15.223C7.01839 15.6096 7.13351 15.8326 7.25359 15.9848C7.31368 16.0609 7.37666 16.1198 7.44628 16.1629C7.47395 16.18 7.50304 16.1929 7.53183 16.2043C7.53245 16.2046 7.53282 16.204 7.53343 16.2043C7.53697 16.2058 7.5403 16.206 7.54383 16.2074L7.53423 16.2051C7.54092 16.2077 7.54752 16.2122 7.55422 16.2145C7.56721 16.2189 7.57518 16.2188 7.5918 16.2223C8.00917 16.3647 8.35457 16.1004 8.35457 16.1004L8.36897 16.0895L10.6077 14.0605L14.2409 16.8285L14.2865 16.8488C14.9224 17.1247 15.4975 16.9708 15.816 16.7176C16.1345 16.4644 16.2598 16.1379 16.2598 16.1379L16.2733 16.1035L18.943 2.50742C19.0114 2.20325 19.0211 1.94033 18.9566 1.70274C18.8922 1.46515 18.7357 1.25862 18.5393 1.14415C18.3429 1.02967 18.1374 0.992617 17.938 1.00117ZM17.9596 1.81445C18.0406 1.81078 18.1006 1.81982 18.1195 1.83085C18.1384 1.84188 18.1469 1.84043 18.1651 1.90742C18.1833 1.9744 18.1931 2.1155 18.1435 2.33633L18.1419 2.34101L15.4874 15.8582C15.4811 15.8718 15.4258 15.9968 15.2995 16.0973C15.1707 16.1997 15.0274 16.2797 14.6471 16.1238L10.6741 13.0965L10.5621 13.0105L10.5597 13.0129L9.37161 12.1418L16.0487 4.46602C16.1535 4.34584 16.1761 4.17666 16.1065 4.03418C16.0369 3.89169 15.888 3.80256 15.7265 3.80665C15.6492 3.80861 15.5741 3.8319 15.5098 3.87384L5.84798 10.1676L2.19802 8.9465C2.19802 8.9465 1.83558 8.74942 1.81824 8.61212C1.81728 8.60451 1.813 8.6114 1.83183 8.584C1.85066 8.5566 1.898 8.51034 1.95736 8.46993C2.07607 8.38912 2.21162 8.34024 2.21162 8.34024L2.22521 8.33556L2.2388 8.33009C2.2388 8.33009 5.9688 6.7666 9.76418 5.17774C11.6619 4.38332 13.576 3.5827 15.0484 2.96759C16.5205 2.35264 17.5841 1.91 17.6742 1.87462C17.7767 1.8345 17.8786 1.81811 17.9596 1.81445ZM13.5317 6.12382L8.46811 11.9449L8.46571 11.9473C8.45781 11.9566 8.45034 11.9662 8.44333 11.9762C8.43529 11.987 8.42782 11.9982 8.42094 12.0098C8.39249 12.0569 8.37426 12.1093 8.36737 12.1637C8.36736 12.1647 8.36736 12.1657 8.36737 12.1668L7.70773 15.0652C7.69677 15.0339 7.68909 15.0225 7.67735 14.9855V14.9848C7.46784 14.327 6.51263 11.2131 6.38048 10.7824L13.5317 6.12382ZM9.03979 12.8988L9.94969 13.566L8.61284 14.7769L9.03979 12.8988Z" fill="white" stroke="white" stroke-width="0.45263"/>
</svg>
