<svg width="20" height="20" viewBox="0 0 20 20" fill="none" xmlns="http://www.w3.org/2000/svg">
<g clip-path="url(#clip0_3139_47486)">
<path fill-rule="evenodd" clip-rule="evenodd" d="M1.74902 7.99994C1.74902 4.54816 4.54724 1.74994 7.99902 1.74994C11.4508 1.74994 14.249 4.54816 14.249 7.99994C14.249 11.4517 11.4508 14.2499 7.99902 14.2499C4.54724 14.2499 1.74902 11.4517 1.74902 7.99994ZM7.99902 0.249939C3.71882 0.249939 0.249023 3.71973 0.249023 7.99994C0.249023 12.2801 3.71882 15.7499 7.99902 15.7499C9.86991 15.7499 11.586 15.087 12.9251 13.9832C12.9387 13.9994 12.9531 14.0151 12.9684 14.0303L18.4684 19.5303C18.7613 19.8232 19.2361 19.8232 19.529 19.5303C19.8219 19.2374 19.8219 18.7626 19.529 18.4697L14.029 12.9697C14.0138 12.9545 13.9981 12.94 13.982 12.9264C15.086 11.5872 15.749 9.87102 15.749 7.99994C15.749 3.71973 12.2792 0.249939 7.99902 0.249939Z" fill="#BFCFD5"/>
</g>
<defs>
<clipPath id="clip0_3139_47486">
<rect width="20" height="20" fill="white"/>
</clipPath>
</defs>
</svg>
