<svg width="24" height="25" viewBox="0 0 24 25" fill="none" xmlns="http://www.w3.org/2000/svg">
<g id="icon.default" clip-path="url(#clip0_1246_24525)">
<path id="Union" fill-rule="evenodd" clip-rule="evenodd" d="M20.0001 2.18354C18.8403 2.18354 17.9001 3.12375 17.9001 4.28355C17.9001 5.44334 18.8403 6.38354 20.0001 6.38354C21.1599 6.38354 22.1001 5.44334 22.1001 4.28355C22.1001 3.12375 21.1599 2.18354 20.0001 2.18354ZM16.1001 4.28355C16.1001 2.12963 17.8462 0.383545 20.0001 0.383545C22.154 0.383545 23.9001 2.12963 23.9001 4.28355C23.9001 6.43746 22.154 8.18355 20.0001 8.18355C18.7895 8.18355 17.7077 7.63195 16.9924 6.76637L7.60389 10.79C7.79475 11.25 7.9001 11.7545 7.9001 12.2835C7.9001 12.8129 7.79465 13.3175 7.60361 13.7777L16.9919 17.8013C17.7072 16.9354 18.7892 16.3835 20.0001 16.3835C22.154 16.3835 23.9001 18.1296 23.9001 20.2835C23.9001 22.4375 22.154 24.1835 20.0001 24.1835C17.8462 24.1835 16.1001 22.4375 16.1001 20.2835C16.1001 19.9863 16.1333 19.6969 16.1963 19.4187L6.51102 15.2678C5.83258 15.8392 4.95655 16.1835 4.0001 16.1835C1.84619 16.1835 0.100098 14.4375 0.100098 12.2835C0.100098 10.1296 1.84619 8.38354 4.0001 8.38354C4.95684 8.38354 5.83311 8.72805 6.51164 9.29978L16.1965 5.14913C16.1334 4.87073 16.1001 4.58103 16.1001 4.28355ZM20.0001 18.1835C18.8403 18.1835 17.9001 19.1237 17.9001 20.2835C17.9001 21.4433 18.8403 22.3835 20.0001 22.3835C21.1599 22.3835 22.1001 21.4433 22.1001 20.2835C22.1001 19.1237 21.1599 18.1835 20.0001 18.1835ZM1.9001 12.2835C1.9001 11.1237 2.8403 10.1835 4.0001 10.1835C5.1599 10.1835 6.1001 11.1237 6.1001 12.2835C6.1001 13.4433 5.1599 14.3835 4.0001 14.3835C2.8403 14.3835 1.9001 13.4433 1.9001 12.2835Z" fill="currentColor"/>
</g>
<defs>
<clipPath id="clip0_1246_24525">
<rect width="24" height="24" fill="white" transform="translate(0 0.283691)"/>
</clipPath>
</defs>
</svg>
