<svg width="24" height="24" viewBox="0 0 24 24" fill="none" xmlns="http://www.w3.org/2000/svg">
<g id="icon.default" clip-path="url(#clip0_3401_9903)">
<path id="Union" fill-rule="evenodd" clip-rule="evenodd" d="M0.299927 10.8V12C0.299927 14.5564 1.69014 16.7881 3.75579 17.9803C3.10613 18.583 2.69957 19.4441 2.69957 20.4001C2.69957 22.2227 4.17704 23.7001 5.99958 23.7001C7.82211 23.7001 9.29958 22.2227 9.29958 20.4001C9.29958 19.86 9.16979 19.3501 8.9397 18.9H15.0595C14.8294 19.3501 14.6996 19.86 14.6996 20.4001C14.6996 22.2227 16.177 23.7001 17.9996 23.7001C19.8221 23.7001 21.2996 22.2227 21.2996 20.4001C21.2996 18.5777 19.8223 17.1003 17.9999 17.1001V17.1H7.19993C5.47778 17.1 3.95499 16.2464 3.03158 14.9393C3.57441 15.1715 4.17216 15.3 4.79993 15.3H17.9999C21.148 15.3 23.6999 12.7481 23.6999 9.60003V6.00004V5.1945L22.8993 5.10554L2.09993 2.7945V0.600037H0.299927V2.5945V3.60004V10.8ZM2.09993 4.60558V10.8C2.09993 12.2912 3.30876 13.5 4.79993 13.5H17.9999C20.1538 13.5 21.8999 11.7539 21.8999 9.60003V6.80558L2.09993 4.60558ZM4.49958 20.4001C4.49958 19.5717 5.17115 18.9001 5.99958 18.9001C6.828 18.9001 7.49958 19.5717 7.49958 20.4001C7.49958 21.2286 6.828 21.9001 5.99958 21.9001C5.17115 21.9001 4.49958 21.2286 4.49958 20.4001ZM17.9996 18.9001C17.1711 18.9001 16.4996 19.5717 16.4996 20.4001C16.4996 21.2286 17.1711 21.9001 17.9996 21.9001C18.828 21.9001 19.4996 21.2286 19.4996 20.4001C19.4996 19.5717 18.828 18.9001 17.9996 18.9001Z" fill="currentColor"/>
</g>
<defs>
<clipPath id="clip0_3401_9903">
<rect width="24" height="24" fill="white"/>
</clipPath>
</defs>
</svg>
