<svg xmlns="http://www.w3.org/2000/svg" width="20" height="21" viewBox="0 0 20 21" fill="none">
  <g clip-path="url(#clip0_3443_54486)">
    <path fill-rule="evenodd" clip-rule="evenodd" d="M1.75 10.5C1.75 5.94365 5.44365 2.25 10 2.25C14.5563 2.25 18.25 5.94365 18.25 10.5C18.25 15.0563 14.5563 18.75 10 18.75C5.44365 18.75 1.75 15.0563 1.75 10.5ZM10 0.75C4.61522 0.75 0.25 5.11522 0.25 10.5C0.25 15.8848 4.61522 20.25 10 20.25C15.3848 20.25 19.75 15.8848 19.75 10.5C19.75 5.11522 15.3848 0.75 10 0.75ZM10.7498 5.50004C10.7498 5.08583 10.4141 4.75004 9.99984 4.75004C9.58562 4.75004 9.24984 5.08583 9.24984 5.50004V10.5C9.24984 10.9143 9.58562 11.25 9.99984 11.25H14.9998C15.4141 11.25 15.7498 10.9143 15.7498 10.5C15.7498 10.0858 15.4141 9.75004 14.9998 9.75004H10.7498V5.50004Z" fill="#141414"/>
  </g>
  <defs>
    <clipPath id="clip0_3443_54486">
      <rect width="20" height="20" fill="white" transform="translate(0 0.5)"/>
    </clipPath>
  </defs>
</svg>