<svg width="24" height="24" viewBox="0 0 24 24" fill="none" xmlns="http://www.w3.org/2000/svg">
<g id="icon.default" clip-path="url(#clip0_3401_9878)">
<path id="Union" fill-rule="evenodd" clip-rule="evenodd" d="M12.0004 2.0999C11.8885 2.0999 11.777 2.10175 11.666 2.10544C10.515 3.3856 9.66552 5.13062 9.1422 7.10009H14.8571C14.3337 5.1306 13.4843 3.38555 12.3332 2.10538C12.2227 2.10174 12.1118 2.0999 12.0004 2.0999ZM15.2352 8.90009H8.7641C8.60534 9.90663 8.52456 10.949 8.52454 12.0001C8.52453 13.0512 8.60528 14.0936 8.76401 15.1001H15.2353C15.394 14.0936 15.4747 13.0512 15.4747 12.0001C15.4747 10.949 15.3939 9.90663 15.2352 8.90009ZM7.28632 7.10009C7.68223 5.44026 8.29063 3.87496 9.12169 2.52494C6.67988 3.26585 4.6374 4.92483 3.39602 7.10009H7.28632ZM2.5954 8.90009H6.94427C6.79708 9.92358 6.72456 10.9655 6.72454 12.0001C6.72453 13.0346 6.79701 14.0766 6.94418 15.1001H2.59553C2.27425 14.1249 2.10041 13.0827 2.10041 11.9999C2.10041 10.9172 2.2742 9.87519 2.5954 8.90009ZM17.055 8.90009H21.4054C21.7266 9.87519 21.9004 10.9172 21.9004 11.9999C21.9004 13.0827 21.7266 14.1249 21.4053 15.1001H17.0551C17.2023 14.0766 17.2747 13.0346 17.2747 12.0001C17.2747 10.9655 17.2022 9.92358 17.055 8.90009ZM20.6048 7.10009H16.7129C16.317 5.44003 15.7085 3.87451 14.8772 2.52436C17.3199 3.26498 19.3631 4.92426 20.6048 7.10009ZM7.28619 16.9001H3.39624C4.63757 19.075 6.67978 20.7338 9.12125 21.4747C8.29032 20.1248 7.68203 18.5597 7.28619 16.9001ZM14.8572 16.9001H9.14206C9.66531 18.8694 10.5147 20.6142 11.6656 21.8943C11.7768 21.898 11.8884 21.8999 12.0004 21.8999C12.1119 21.8999 12.223 21.8981 12.3336 21.8944C13.4846 20.6143 14.334 18.8694 14.8572 16.9001ZM14.8777 21.4753C15.7088 20.1253 16.3172 18.5599 16.7131 16.9001H20.6046C19.3629 19.0756 17.32 20.7347 14.8777 21.4753ZM0.300415 11.9999C0.300415 5.53817 5.53868 0.299896 12.0004 0.299896C18.4621 0.299896 23.7004 5.53817 23.7004 11.9999C23.7004 18.4616 18.4621 23.6999 12.0004 23.6999C5.53868 23.6999 0.300415 18.4616 0.300415 11.9999Z" fill="currentColor"/>
</g>
<defs>
<clipPath id="clip0_3401_9878">
<rect width="24" height="24" fill="white"/>
</clipPath>
</defs>
</svg>
