<svg width="25" height="25" viewBox="0 0 25 25" fill="none" xmlns="http://www.w3.org/2000/svg">
<g id="icon.default" clip-path="url(#clip0_3271_20855)">
<path id="Union" d="M23.9546 5.30615C23.3036 4.11306 22.5971 3.89361 21.1586 3.81015C19.7216 3.7097 16.1081 3.66797 12.9776 3.66797C9.84111 3.66797 6.22611 3.7097 4.79061 3.80861C3.35511 3.89361 2.64711 4.11151 1.99011 5.30615C1.31961 6.4977 0.974609 8.55006 0.974609 12.1633C0.974609 12.1664 0.974609 12.168 0.974609 12.168C0.974609 12.1711 0.974609 12.1726 0.974609 12.1726V12.1757C0.974609 15.7735 1.31961 17.8413 1.99011 19.0205C2.64711 20.2136 3.35361 20.43 4.78911 20.5304C6.22611 20.617 9.84111 20.668 12.9776 20.668C16.1081 20.668 19.7216 20.617 21.1601 20.532C22.5986 20.4315 23.3051 20.2152 23.9561 19.0221C24.6326 17.8429 24.9746 15.7751 24.9746 12.1772C24.9746 12.1772 24.9746 12.1726 24.9746 12.1695C24.9746 12.1695 24.9746 12.1664 24.9746 12.1649C24.9746 8.55006 24.6326 6.4977 23.9546 5.30615ZM9.97461 16.8043V7.53161L17.4746 12.168L9.97461 16.8043Z" fill="#BFCFD5"/>
</g>
<defs>
<clipPath id="clip0_3271_20855">
<rect width="24" height="24" fill="white" transform="translate(0.974609 0.667969)"/>
</clipPath>
</defs>
</svg>
