<svg width="294" height="80" viewBox="0 0 294 80" fill="none" xmlns="http://www.w3.org/2000/svg">
<path fill-rule="evenodd" clip-rule="evenodd" d="M0.243286 60.6635V46.6958C1.33698 44.9491 2.38776 43.2282 3.39564 41.5331L24.2055 40.3607C23.0568 42.4707 21.8622 44.5824 20.6217 46.6958H55.2069V38.6141L72.5577 37.6366V46.6958H89.9085V55.6119L0.243286 60.6635ZM58.5845 77.7875H55.2069V63.3986L72.5577 62.4211V77.0002L58.5845 77.7875ZM171.342 71.4348L120.949 74.2739C115.141 71.364 110.584 67.4115 107.278 62.4163C106.875 61.7976 106.495 61.1686 106.138 60.5293L127.322 59.3357C131.391 61.7776 136.859 62.9985 143.727 62.9985C151.49 62.9985 157.429 61.4071 161.543 58.2241C161.906 57.9437 162.252 57.652 162.583 57.3492L183.052 56.196C182.253 58.4217 181.217 60.534 179.942 62.5327C177.696 66.0034 174.83 68.9708 171.342 71.4348ZM273.495 65.6797L256.144 66.6572V62.2998H201.18V55.1747L290.845 50.1231V62.2998H273.495V65.6797ZM273.495 26.316V45.2689L256.144 46.2464V27.2936L273.495 26.316ZM236.67 15.2696C238.067 11.5329 239.318 7.8016 240.423 4.07569V1.39738H221.908C220.555 6.49619 218.906 11.4904 216.961 16.38L236.67 15.2696ZM210.81 29.8476L231.028 28.7086C228.242 34.6906 225.086 40.6863 221.559 46.6958H248.168L201.18 49.343V46.6958C204.881 40.7849 208.091 35.1689 210.81 29.8476ZM180.777 18.4185C180.476 17.8996 180.159 17.3884 179.826 16.885C176.41 11.5284 171.558 7.37506 165.27 4.42503C159.059 1.47501 151.878 0 143.727 0C135.498 0 128.239 1.47501 121.951 4.42503C115.663 7.37506 110.772 11.5284 107.278 16.885C106.058 18.729 105.051 20.6772 104.257 22.7296L125.237 21.5476C125.381 21.4279 125.528 21.3099 125.677 21.1936C129.947 17.8554 135.925 16.1863 143.61 16.1863C149.991 16.1863 155.167 17.3367 159.14 19.6375L180.777 18.4185ZM167.554 32.2846L184.868 31.3091C185 32.6018 185.066 33.9267 185.066 35.2838V44.0175C185.066 46.1828 184.902 48.2698 184.574 50.2786L166.607 51.2908C167.346 49.2407 167.715 46.9327 167.715 44.3668V35.0509C167.715 34.094 167.661 33.1719 167.554 32.2846ZM119.389 34.9982L102.038 35.9757V44.0175C102.038 47.8647 102.58 51.4712 103.663 54.837L121.746 53.8182C120.175 51.177 119.389 48.0265 119.389 44.3668V35.0509C119.389 35.0333 119.389 35.0157 119.389 34.9982ZM72.5577 24.5155V14.6725H55.2069V25.493L72.5577 24.5155ZM30.9397 26.8602C34.3907 19.243 37.2396 11.6482 39.4864 4.07569V1.39738H20.9711C18.9526 9.00534 16.2743 16.3804 12.9362 23.5226C12.2668 24.9887 11.5566 26.4793 10.8055 27.9945L30.9397 26.8602ZM89.9085 61.4436L74.7103 62.2998H89.9085V61.4436Z" fill="#FF3900"/>
<path fill-rule="evenodd" clip-rule="evenodd" d="M92.8197 62.2265L77.0495 63.115H75.4689V63.204L58.1181 64.1815V63.115H3.15448V61.4465L92.8197 56.3948V62.2265ZM75.4689 77.7831L60.9224 78.6026H75.4689V77.7831ZM276.406 46.0518V47.5109H293.757V50.906L204.091 55.9576V50.1259L250.508 47.5109H259.055V47.0294L276.406 46.0518ZM219.885 17.1621L239.593 16.0518C237.922 20.5237 236.043 25.0033 233.954 29.4907L213.738 30.6297C214.833 28.4844 215.849 26.3871 216.784 24.3377C217.89 21.9714 218.924 19.5796 219.885 17.1621ZM58.1181 26.2759L75.4689 25.2984V38.4196L58.1181 39.3971V26.2759ZM13.7332 28.7765L33.8659 27.6422C31.8316 32.1346 29.5879 36.6347 27.1347 41.1426L6.32661 42.3149C9.12708 37.6032 11.5959 33.0903 13.7332 28.7765ZM107.181 23.5117C105.693 27.3438 104.949 31.5396 104.949 36.099V36.7587L122.3 35.7811C122.319 30.0368 124.283 25.5525 128.19 22.3281L107.181 23.5117ZM162.001 20.4233L183.67 19.2024C185.921 23.0677 187.29 27.3643 187.776 32.0923L170.461 33.0678C169.892 28.4274 167.851 24.741 164.338 22.0087C163.611 21.4301 162.832 20.9016 162.001 20.4233ZM124.639 54.6022L106.564 55.6205C107.199 57.6013 108.022 59.4989 109.032 61.3131L130.185 60.1214C129.626 59.7838 129.094 59.4231 128.588 59.0393C126.953 57.7671 125.636 56.2881 124.639 54.6022ZM165.532 58.13C167.352 56.4517 168.685 54.4328 169.53 52.0731L187.49 51.0612C187.157 53.1154 186.652 55.0877 185.975 56.9782L165.532 58.13ZM174.303 72.2149L123.802 75.06C124.151 75.2354 124.504 75.4071 124.862 75.5749C131.15 78.525 138.409 80 146.638 80C154.867 80 162.087 78.5638 168.297 75.6914C170.471 74.6717 172.473 73.5128 174.303 72.2149ZM259.055 67.4401V78.6026H276.406V66.4625L259.055 67.4401ZM259.055 28.0766V15.4876H276.406V27.099L259.055 28.0766Z" fill="#FF3900"/>
</svg>
