<svg width="274" height="81" viewBox="0 0 274 81" fill="none" xmlns="http://www.w3.org/2000/svg">
<path fill-rule="evenodd" clip-rule="evenodd" d="M30.2905 78.8495C22.0048 78.1047 15.4457 76.294 10.6132 73.4175C7.21639 71.3956 4.70427 68.8577 3.07684 65.8036L39.4865 63.7523C39.4884 63.7523 39.4904 63.7523 39.4923 63.7523C42.3955 63.7523 45.0104 63.6049 47.3372 63.31L77.4147 61.6155C75.9023 66.1779 72.9656 69.879 68.6044 72.7189C65.5987 74.6991 61.9568 76.2283 57.6788 77.3065L30.2905 78.8495ZM163.723 71.3321L112.849 74.1983C107.165 71.3011 102.694 67.3922 99.4377 62.4714C99.0046 61.8074 98.5984 61.1314 98.219 60.4434L119.263 59.2578C123.354 61.7884 128.895 63.0537 135.886 63.0537C143.649 63.0537 149.588 61.4622 153.703 58.2793C154.127 57.9513 154.529 57.6081 154.909 57.2496L175.265 56.1028C174.459 58.3831 173.404 60.5448 172.101 62.5879C169.903 65.9848 167.111 68.8995 163.723 71.3321ZM267.943 65.4605L198.371 69.3801C194.808 65.6561 192.907 60.9035 192.667 55.1224L209.997 54.146C210.106 57.187 211.928 59.5351 215.465 61.1905C219.191 62.8984 224.548 63.7523 231.535 63.7523C245.741 63.7523 252.845 60.7247 252.845 54.6694V53.3885C252.845 52.8088 252.769 52.2609 252.619 51.7447L270.261 50.7508C270.373 51.6392 270.428 52.5572 270.428 53.5049V54.9023C270.428 58.909 269.6 62.4284 267.943 65.4605ZM251.101 27.0461L243.296 31.7291C252.146 32.7383 258.861 35.1061 263.441 38.8324C265.699 40.6012 267.41 42.6619 268.573 45.0145L244.848 46.3511C241.504 45.5308 237.066 45.1206 231.535 45.1206H217.328V31.4962L221.851 28.6939L251.101 27.0461ZM268.332 12.954V1.45256H194.155V16.7073H201.712L268.332 12.954ZM172.855 18.3331C172.578 17.8624 172.288 17.398 171.985 16.9402C168.569 11.5836 163.717 7.43023 157.429 4.48021C151.218 1.53019 144.037 0.0551758 135.886 0.0551758C127.657 0.0551758 120.398 1.53019 114.11 4.48021C107.822 7.43023 102.931 11.5836 99.4377 16.9402C98.2469 18.7396 97.259 20.6383 96.4741 22.6363L117.587 21.4468C117.669 21.3802 117.752 21.3142 117.837 21.2487C122.106 17.9106 128.084 16.2415 135.77 16.2415C142.027 16.2415 147.126 17.3478 151.068 19.5605L172.855 18.3331ZM111.549 34.9082L94.1975 35.8858V44.0726C94.1975 47.8656 94.7239 51.4246 95.7767 54.7497L113.823 53.733C112.306 51.1207 111.548 48.017 111.548 44.4219V35.1061C111.548 35.04 111.549 34.974 111.549 34.9082ZM158.819 51.198C159.522 49.1849 159.874 46.9263 159.874 44.4219V35.1061C159.874 34.0973 159.815 33.1272 159.695 32.1957L177.012 31.2201C177.154 32.5584 177.225 33.9314 177.225 35.339V44.0726C177.225 46.1854 177.069 48.2236 176.757 50.1874L158.819 51.198ZM78.5462 55.7204C78.5947 55.0354 78.6189 54.3357 78.6189 53.6213V52.224C78.6189 46.1357 76.5658 41.0979 72.4596 37.1105L1.23509 41.1232L0.831543 48.9634H17.9494C18.3376 47.0226 20.356 45.5088 24.0047 44.4219C27.7311 43.3351 32.7384 42.7917 39.0266 42.7917C46.0134 42.7917 51.4089 43.6456 55.2129 45.3535C59.0945 46.9838 61.0353 49.3128 61.0353 52.3404V53.6213C61.0353 54.751 60.8116 55.7921 60.3643 56.7447L78.5462 55.7204ZM19.2843 59.0591C18.5496 58.1789 18.1823 57.1814 18.1823 56.0668V55.2516H0.831543V56.0668C0.831543 57.4679 0.939905 58.8058 1.15663 60.0804L19.2843 59.0591ZM17.7219 27.0731L1.91241 27.9637L3.27696 1.45256H73.6117V17.1731H18.1823L17.7219 27.0731Z" fill="#FF3900"/>
<path fill-rule="evenodd" clip-rule="evenodd" d="M71.5154 34.8729C64.9167 30.5255 55.6008 28.3518 43.5679 28.3518C33.8638 28.3518 26.1394 29.9045 20.3947 33.0098L20.6344 27.8555L4.8251 28.7462L4.14778 41.9056L75.339 37.8948C74.217 36.8095 72.9425 35.8022 71.5154 34.8729ZM81.4595 56.503L63.2908 57.5266C62.4517 59.3384 60.807 60.8313 58.3568 62.0054C56.3169 62.9602 53.7554 63.6481 50.6723 64.0691L80.3364 62.3979C80.9388 60.5708 81.3132 58.6058 81.4595 56.503ZM101.113 61.2274C100.115 59.4122 99.3028 57.514 98.6778 55.5329L116.716 54.5167C117.723 56.2609 119.067 57.7868 120.748 59.0942C121.187 59.4281 121.647 59.7445 122.127 60.0434L101.113 61.2274ZM60.7518 78.0803L32.9847 79.6446C35.9415 79.9181 39.1199 80.0548 42.5198 80.0548C49.5256 80.0548 55.6029 79.3967 60.7518 78.0803ZM271.469 45.7981C272.339 47.5482 272.905 49.4601 273.168 51.534L255.521 52.5282C254.938 50.5709 253.27 49.0721 250.515 48.0316C249.67 47.6934 248.716 47.3962 247.652 47.1399L271.469 45.7981ZM271.243 13.7366V17.5221L254.071 27.8252L224.82 29.4732L244.111 17.5221H204.05L271.243 13.7366ZM99.3981 23.4181C97.8717 27.2902 97.1085 31.5355 97.1085 36.1539V36.6683L114.46 35.6907C114.513 29.9231 116.54 25.4352 120.541 22.227L99.3981 23.4181ZM153.926 20.346L175.747 19.1167C178.024 22.979 179.415 27.2744 179.92 32.0028L162.602 32.9785C162.009 28.4059 159.974 24.7676 156.497 22.0636C155.703 21.4312 154.846 20.8587 153.926 20.346ZM161.741 51.98C160.925 54.331 159.63 56.3479 157.856 58.0305L178.187 56.8851C178.853 54.9947 179.348 53.023 179.673 50.9698L161.741 51.98ZM201.253 70.1646L270.872 66.2424C269.222 69.2759 266.745 71.8228 263.441 73.8831C256.842 77.9976 247.138 80.0548 234.329 80.0548C221.597 79.9772 211.932 77.8035 205.333 73.5337C203.791 72.5237 202.431 71.4006 201.253 70.1646ZM166.683 72.1123C164.793 73.4742 162.717 74.6855 160.456 75.7463C154.246 78.6186 147.026 80.0548 138.797 80.0548C130.568 80.0548 123.309 78.5798 117.021 75.6298C116.575 75.4205 116.136 75.2054 115.704 74.9843L166.683 72.1123ZM195.577 55.9054C195.56 55.4984 195.552 55.0863 195.552 54.6691V53.9704H212.903V54.6691C212.903 54.7563 212.904 54.843 212.907 54.929L195.577 55.9054ZM5.97139 66.5875L41.8558 64.5658C35.2146 64.5317 30.1181 63.8723 26.5664 62.5876C24.5359 61.8531 23.0703 60.9384 22.1698 59.8433L4.06226 60.8634C4.41187 62.9387 5.04825 64.8468 5.97139 66.5875Z" fill="#FF3900"/>
</svg>